G04 #@! TF.GenerationSoftware,KiCad,Pcbnew,5.1.9*
G04 #@! TF.CreationDate,2021-04-19T04:00:47-04:00*
G04 #@! TF.ProjectId,lm3886_psu,6c6d3338-3836-45f7-9073-752e6b696361,rev?*
G04 #@! TF.SameCoordinates,Original*
G04 #@! TF.FileFunction,Copper,L2,Bot*
G04 #@! TF.FilePolarity,Positive*
%FSLAX46Y46*%
G04 Gerber Fmt 4.6, Leading zero omitted, Abs format (unit mm)*
G04 Created by KiCad (PCBNEW 5.1.9) date 2021-04-19 04:00:47*
%MOMM*%
%LPD*%
G01*
G04 APERTURE LIST*
G04 #@! TA.AperFunction,ComponentPad*
%ADD10C,0.800000*%
G04 #@! TD*
G04 #@! TA.AperFunction,ComponentPad*
%ADD11C,6.400000*%
G04 #@! TD*
G04 #@! TA.AperFunction,ComponentPad*
%ADD12C,1.600000*%
G04 #@! TD*
G04 #@! TA.AperFunction,ComponentPad*
%ADD13R,1.600000X1.600000*%
G04 #@! TD*
G04 #@! TA.AperFunction,ComponentPad*
%ADD14O,2.400000X2.400000*%
G04 #@! TD*
G04 #@! TA.AperFunction,ComponentPad*
%ADD15C,2.400000*%
G04 #@! TD*
G04 #@! TA.AperFunction,ComponentPad*
%ADD16O,1.905000X2.000000*%
G04 #@! TD*
G04 #@! TA.AperFunction,ComponentPad*
%ADD17R,1.905000X2.000000*%
G04 #@! TD*
G04 #@! TA.AperFunction,ComponentPad*
%ADD18R,2.400000X2.400000*%
G04 #@! TD*
G04 #@! TA.AperFunction,ComponentPad*
%ADD19C,2.600000*%
G04 #@! TD*
G04 #@! TA.AperFunction,ComponentPad*
%ADD20R,2.600000X2.600000*%
G04 #@! TD*
G04 #@! TA.AperFunction,SMDPad,CuDef*
%ADD21R,2.500000X1.800000*%
G04 #@! TD*
G04 #@! TA.AperFunction,ComponentPad*
%ADD22C,4.000000*%
G04 #@! TD*
G04 #@! TA.AperFunction,ComponentPad*
%ADD23R,4.000000X4.000000*%
G04 #@! TD*
G04 #@! TA.AperFunction,ViaPad*
%ADD24C,0.800000*%
G04 #@! TD*
G04 #@! TA.AperFunction,Conductor*
%ADD25C,1.000000*%
G04 #@! TD*
G04 #@! TA.AperFunction,Conductor*
%ADD26C,0.250000*%
G04 #@! TD*
G04 #@! TA.AperFunction,Conductor*
%ADD27C,0.254000*%
G04 #@! TD*
G04 #@! TA.AperFunction,Conductor*
%ADD28C,0.100000*%
G04 #@! TD*
G04 APERTURE END LIST*
D10*
X123109056Y-88599944D03*
X121412000Y-87897000D03*
X119714944Y-88599944D03*
X119012000Y-90297000D03*
X119714944Y-91994056D03*
X121412000Y-92697000D03*
X123109056Y-91994056D03*
X123812000Y-90297000D03*
D11*
X121412000Y-90297000D03*
D12*
X143510000Y-94202000D03*
D13*
X143510000Y-92202000D03*
D12*
X143510000Y-88614000D03*
D13*
X143510000Y-86614000D03*
D12*
X129540000Y-91408000D03*
D13*
X129540000Y-89408000D03*
D12*
X135636000Y-91408000D03*
D13*
X135636000Y-89408000D03*
G04 #@! TA.AperFunction,SMDPad,CuDef*
G36*
G01*
X129293000Y-103749000D02*
X129293000Y-102499000D01*
G75*
G02*
X129543000Y-102249000I250000J0D01*
G01*
X130293000Y-102249000D01*
G75*
G02*
X130543000Y-102499000I0J-250000D01*
G01*
X130543000Y-103749000D01*
G75*
G02*
X130293000Y-103999000I-250000J0D01*
G01*
X129543000Y-103999000D01*
G75*
G02*
X129293000Y-103749000I0J250000D01*
G01*
G37*
G04 #@! TD.AperFunction*
G04 #@! TA.AperFunction,SMDPad,CuDef*
G36*
G01*
X132093000Y-103749000D02*
X132093000Y-102499000D01*
G75*
G02*
X132343000Y-102249000I250000J0D01*
G01*
X133093000Y-102249000D01*
G75*
G02*
X133343000Y-102499000I0J-250000D01*
G01*
X133343000Y-103749000D01*
G75*
G02*
X133093000Y-103999000I-250000J0D01*
G01*
X132343000Y-103999000D01*
G75*
G02*
X132093000Y-103749000I0J250000D01*
G01*
G37*
G04 #@! TD.AperFunction*
G04 #@! TA.AperFunction,SMDPad,CuDef*
G36*
G01*
X130543000Y-76845000D02*
X130543000Y-78095000D01*
G75*
G02*
X130293000Y-78345000I-250000J0D01*
G01*
X129543000Y-78345000D01*
G75*
G02*
X129293000Y-78095000I0J250000D01*
G01*
X129293000Y-76845000D01*
G75*
G02*
X129543000Y-76595000I250000J0D01*
G01*
X130293000Y-76595000D01*
G75*
G02*
X130543000Y-76845000I0J-250000D01*
G01*
G37*
G04 #@! TD.AperFunction*
G04 #@! TA.AperFunction,SMDPad,CuDef*
G36*
G01*
X133343000Y-76845000D02*
X133343000Y-78095000D01*
G75*
G02*
X133093000Y-78345000I-250000J0D01*
G01*
X132343000Y-78345000D01*
G75*
G02*
X132093000Y-78095000I0J250000D01*
G01*
X132093000Y-76845000D01*
G75*
G02*
X132343000Y-76595000I250000J0D01*
G01*
X133093000Y-76595000D01*
G75*
G02*
X133343000Y-76845000I0J-250000D01*
G01*
G37*
G04 #@! TD.AperFunction*
D14*
X84582000Y-102870000D03*
D15*
X84582000Y-118110000D03*
D14*
X84582000Y-62484000D03*
D15*
X84582000Y-77724000D03*
D16*
X135128000Y-100330000D03*
X132588000Y-100330000D03*
D17*
X130048000Y-100330000D03*
D16*
X130048000Y-80264000D03*
X132588000Y-80264000D03*
D17*
X135128000Y-80264000D03*
G04 #@! TA.AperFunction,SMDPad,CuDef*
G36*
G01*
X133363000Y-97907000D02*
X133363000Y-96657000D01*
G75*
G02*
X133613000Y-96407000I250000J0D01*
G01*
X134363000Y-96407000D01*
G75*
G02*
X134613000Y-96657000I0J-250000D01*
G01*
X134613000Y-97907000D01*
G75*
G02*
X134363000Y-98157000I-250000J0D01*
G01*
X133613000Y-98157000D01*
G75*
G02*
X133363000Y-97907000I0J250000D01*
G01*
G37*
G04 #@! TD.AperFunction*
G04 #@! TA.AperFunction,SMDPad,CuDef*
G36*
G01*
X130563000Y-97907000D02*
X130563000Y-96657000D01*
G75*
G02*
X130813000Y-96407000I250000J0D01*
G01*
X131563000Y-96407000D01*
G75*
G02*
X131813000Y-96657000I0J-250000D01*
G01*
X131813000Y-97907000D01*
G75*
G02*
X131563000Y-98157000I-250000J0D01*
G01*
X130813000Y-98157000D01*
G75*
G02*
X130563000Y-97907000I0J250000D01*
G01*
G37*
G04 #@! TD.AperFunction*
G04 #@! TA.AperFunction,SMDPad,CuDef*
G36*
G01*
X133363000Y-83937000D02*
X133363000Y-82687000D01*
G75*
G02*
X133613000Y-82437000I250000J0D01*
G01*
X134363000Y-82437000D01*
G75*
G02*
X134613000Y-82687000I0J-250000D01*
G01*
X134613000Y-83937000D01*
G75*
G02*
X134363000Y-84187000I-250000J0D01*
G01*
X133613000Y-84187000D01*
G75*
G02*
X133363000Y-83937000I0J250000D01*
G01*
G37*
G04 #@! TD.AperFunction*
G04 #@! TA.AperFunction,SMDPad,CuDef*
G36*
G01*
X130563000Y-83937000D02*
X130563000Y-82687000D01*
G75*
G02*
X130813000Y-82437000I250000J0D01*
G01*
X131563000Y-82437000D01*
G75*
G02*
X131813000Y-82687000I0J-250000D01*
G01*
X131813000Y-83937000D01*
G75*
G02*
X131563000Y-84187000I-250000J0D01*
G01*
X130813000Y-84187000D01*
G75*
G02*
X130563000Y-83937000I0J250000D01*
G01*
G37*
G04 #@! TD.AperFunction*
G04 #@! TA.AperFunction,SMDPad,CuDef*
G36*
G01*
X131813000Y-94117000D02*
X131813000Y-95367000D01*
G75*
G02*
X131563000Y-95617000I-250000J0D01*
G01*
X130813000Y-95617000D01*
G75*
G02*
X130563000Y-95367000I0J250000D01*
G01*
X130563000Y-94117000D01*
G75*
G02*
X130813000Y-93867000I250000J0D01*
G01*
X131563000Y-93867000D01*
G75*
G02*
X131813000Y-94117000I0J-250000D01*
G01*
G37*
G04 #@! TD.AperFunction*
G04 #@! TA.AperFunction,SMDPad,CuDef*
G36*
G01*
X134613000Y-94117000D02*
X134613000Y-95367000D01*
G75*
G02*
X134363000Y-95617000I-250000J0D01*
G01*
X133613000Y-95617000D01*
G75*
G02*
X133363000Y-95367000I0J250000D01*
G01*
X133363000Y-94117000D01*
G75*
G02*
X133613000Y-93867000I250000J0D01*
G01*
X134363000Y-93867000D01*
G75*
G02*
X134613000Y-94117000I0J-250000D01*
G01*
G37*
G04 #@! TD.AperFunction*
G04 #@! TA.AperFunction,SMDPad,CuDef*
G36*
G01*
X131813000Y-85227000D02*
X131813000Y-86477000D01*
G75*
G02*
X131563000Y-86727000I-250000J0D01*
G01*
X130813000Y-86727000D01*
G75*
G02*
X130563000Y-86477000I0J250000D01*
G01*
X130563000Y-85227000D01*
G75*
G02*
X130813000Y-84977000I250000J0D01*
G01*
X131563000Y-84977000D01*
G75*
G02*
X131813000Y-85227000I0J-250000D01*
G01*
G37*
G04 #@! TD.AperFunction*
G04 #@! TA.AperFunction,SMDPad,CuDef*
G36*
G01*
X134613000Y-85227000D02*
X134613000Y-86477000D01*
G75*
G02*
X134363000Y-86727000I-250000J0D01*
G01*
X133613000Y-86727000D01*
G75*
G02*
X133363000Y-86477000I0J250000D01*
G01*
X133363000Y-85227000D01*
G75*
G02*
X133613000Y-84977000I250000J0D01*
G01*
X134363000Y-84977000D01*
G75*
G02*
X134613000Y-85227000I0J-250000D01*
G01*
G37*
G04 #@! TD.AperFunction*
D15*
X150622000Y-93020000D03*
D18*
X150622000Y-96520000D03*
D15*
X150622000Y-84130000D03*
D18*
X150622000Y-87630000D03*
D19*
X150114000Y-103378000D03*
X150114000Y-108378000D03*
D20*
X150114000Y-113378000D03*
D19*
X150114000Y-67216000D03*
X150114000Y-72216000D03*
D20*
X150114000Y-77216000D03*
D19*
X83820000Y-97804000D03*
X83820000Y-92804000D03*
X83820000Y-87804000D03*
D20*
X83820000Y-82804000D03*
D21*
X130588000Y-109982000D03*
X134588000Y-109982000D03*
X134588000Y-70612000D03*
X130588000Y-70612000D03*
X134588000Y-106172000D03*
X130588000Y-106172000D03*
X134588000Y-74422000D03*
X130588000Y-74422000D03*
D22*
X105918000Y-113284000D03*
D23*
X105918000Y-103284000D03*
D22*
X105918000Y-77310000D03*
D23*
X105918000Y-67310000D03*
D24*
X139954000Y-75946000D03*
X139954000Y-76708000D03*
X139954000Y-77470000D03*
X139192000Y-75946000D03*
X139192000Y-76708000D03*
X139192000Y-77470000D03*
X138430000Y-75946000D03*
X138430000Y-76708000D03*
X138430000Y-77470000D03*
X125984000Y-76708000D03*
X126746000Y-77470000D03*
X125984000Y-77470000D03*
X125984000Y-75946000D03*
X125222000Y-77470000D03*
X125222000Y-75946000D03*
X126746000Y-76708000D03*
X125222000Y-76708000D03*
X126746000Y-75946000D03*
X125984000Y-104648000D03*
X125222000Y-104648000D03*
X126746000Y-103886000D03*
X126746000Y-104648000D03*
X125984000Y-103886000D03*
X125222000Y-103886000D03*
X126746000Y-103124000D03*
X125984000Y-103124000D03*
X125222000Y-103124000D03*
X139954000Y-104648000D03*
X138430000Y-103124000D03*
X139192000Y-103886000D03*
X139954000Y-103886000D03*
X139192000Y-104648000D03*
X139954000Y-103124000D03*
X139192000Y-103124000D03*
X138430000Y-104648000D03*
X138430000Y-103886000D03*
X127508000Y-76708000D03*
X127508000Y-77470000D03*
X127508000Y-75946000D03*
X137668000Y-75946000D03*
X137668000Y-76708000D03*
X137668000Y-77470000D03*
X127508000Y-104648000D03*
X127508000Y-103886000D03*
X127508000Y-103124000D03*
X137668000Y-104648000D03*
X137668000Y-103886000D03*
X137668000Y-103124000D03*
X125730000Y-81788000D03*
X126746000Y-81788000D03*
X125730000Y-97028000D03*
X126746000Y-97028000D03*
D25*
X132718000Y-77594000D02*
X130048000Y-80264000D01*
X132718000Y-77470000D02*
X132718000Y-77594000D01*
D26*
X132718000Y-77470000D02*
X132718000Y-77346000D01*
X132718000Y-77346000D02*
X131572000Y-76200000D01*
X131572000Y-76200000D02*
X131064000Y-76200000D01*
X130588000Y-75724000D02*
X130588000Y-74422000D01*
X131064000Y-76200000D02*
X130588000Y-75724000D01*
D25*
X132718000Y-100460000D02*
X132588000Y-100330000D01*
X132718000Y-103124000D02*
X132718000Y-100460000D01*
D26*
X132718000Y-103124000D02*
X132718000Y-104524000D01*
X134366000Y-106172000D02*
X134588000Y-106172000D01*
X132718000Y-104524000D02*
X134366000Y-106172000D01*
X134588000Y-70612000D02*
X134874000Y-70612000D01*
X136163001Y-79228999D02*
X135128000Y-80264000D01*
X136163001Y-71901001D02*
X136163001Y-79228999D01*
X134874000Y-70612000D02*
X136163001Y-71901001D01*
X133988000Y-83312000D02*
X133988000Y-83182000D01*
X135128000Y-82042000D02*
X135128000Y-80264000D01*
X133988000Y-83182000D02*
X135128000Y-82042000D01*
X133988000Y-83312000D02*
X133988000Y-85852000D01*
X133988000Y-87760000D02*
X135636000Y-89408000D01*
X133988000Y-85852000D02*
X133988000Y-87760000D01*
X131188000Y-94742000D02*
X131188000Y-97282000D01*
X131188000Y-99190000D02*
X130048000Y-100330000D01*
X131188000Y-97282000D02*
X131188000Y-99190000D01*
X130048000Y-100330000D02*
X130048000Y-100584000D01*
X130048000Y-100584000D02*
X131318000Y-101854000D01*
X131318000Y-101854000D02*
X131318000Y-104394000D01*
X131318000Y-104394000D02*
X131064000Y-104648000D01*
X129012999Y-105011999D02*
X129012999Y-108692999D01*
X129376998Y-104648000D02*
X129012999Y-105011999D01*
X131064000Y-104648000D02*
X129376998Y-104648000D01*
X130302000Y-109982000D02*
X130588000Y-109982000D01*
X129012999Y-108692999D02*
X130302000Y-109982000D01*
X131188000Y-93056000D02*
X129540000Y-91408000D01*
X131188000Y-94742000D02*
X131188000Y-93056000D01*
X132588000Y-80264000D02*
X132588000Y-80010000D01*
X134588000Y-78010000D02*
X134588000Y-74422000D01*
X132588000Y-80010000D02*
X134588000Y-78010000D01*
X131188000Y-83312000D02*
X131188000Y-83188000D01*
X132588000Y-81788000D02*
X132588000Y-80264000D01*
X131188000Y-83188000D02*
X132588000Y-81788000D01*
X130588000Y-70612000D02*
X130810000Y-70612000D01*
X130810000Y-70612000D02*
X132588000Y-72390000D01*
X132588000Y-72390000D02*
X132588000Y-72644000D01*
X134366000Y-74422000D02*
X134588000Y-74422000D01*
X132588000Y-72644000D02*
X134366000Y-74422000D01*
X133988000Y-99190000D02*
X135128000Y-100330000D01*
X133988000Y-97282000D02*
X133988000Y-99190000D01*
X130588000Y-106172000D02*
X130810000Y-106172000D01*
X130810000Y-106172000D02*
X132588000Y-107950000D01*
X132588000Y-107950000D02*
X132588000Y-108204000D01*
X134366000Y-109982000D02*
X134588000Y-109982000D01*
X132588000Y-108204000D02*
X134366000Y-109982000D01*
X135128000Y-100330000D02*
X135128000Y-103632000D01*
X136163001Y-104667001D02*
X136163001Y-108692999D01*
X135128000Y-103632000D02*
X136163001Y-104667001D01*
X134874000Y-109982000D02*
X134588000Y-109982000D01*
X136163001Y-108692999D02*
X134874000Y-109982000D01*
D27*
X154534001Y-127102000D02*
X79400000Y-127102000D01*
X79400000Y-123985872D01*
X80061000Y-123985872D01*
X80061000Y-124426128D01*
X80146890Y-124857925D01*
X80315369Y-125264669D01*
X80559962Y-125630729D01*
X80871271Y-125942038D01*
X81237331Y-126186631D01*
X81644075Y-126355110D01*
X82075872Y-126441000D01*
X82516128Y-126441000D01*
X82947925Y-126355110D01*
X83354669Y-126186631D01*
X83720729Y-125942038D01*
X84032038Y-125630729D01*
X84276631Y-125264669D01*
X84445110Y-124857925D01*
X84531000Y-124426128D01*
X84531000Y-123985872D01*
X149403000Y-123985872D01*
X149403000Y-124426128D01*
X149488890Y-124857925D01*
X149657369Y-125264669D01*
X149901962Y-125630729D01*
X150213271Y-125942038D01*
X150579331Y-126186631D01*
X150986075Y-126355110D01*
X151417872Y-126441000D01*
X151858128Y-126441000D01*
X152289925Y-126355110D01*
X152696669Y-126186631D01*
X153062729Y-125942038D01*
X153374038Y-125630729D01*
X153618631Y-125264669D01*
X153787110Y-124857925D01*
X153873000Y-124426128D01*
X153873000Y-123985872D01*
X153787110Y-123554075D01*
X153618631Y-123147331D01*
X153374038Y-122781271D01*
X153062729Y-122469962D01*
X152696669Y-122225369D01*
X152289925Y-122056890D01*
X151858128Y-121971000D01*
X151417872Y-121971000D01*
X150986075Y-122056890D01*
X150579331Y-122225369D01*
X150213271Y-122469962D01*
X149901962Y-122781271D01*
X149657369Y-123147331D01*
X149488890Y-123554075D01*
X149403000Y-123985872D01*
X84531000Y-123985872D01*
X84445110Y-123554075D01*
X84276631Y-123147331D01*
X84032038Y-122781271D01*
X83720729Y-122469962D01*
X83354669Y-122225369D01*
X82947925Y-122056890D01*
X82516128Y-121971000D01*
X82075872Y-121971000D01*
X81644075Y-122056890D01*
X81237331Y-122225369D01*
X80871271Y-122469962D01*
X80559962Y-122781271D01*
X80315369Y-123147331D01*
X80146890Y-123554075D01*
X80061000Y-123985872D01*
X79400000Y-123985872D01*
X79400000Y-119387980D01*
X83483626Y-119387980D01*
X83603514Y-119672836D01*
X83927210Y-119833699D01*
X84276069Y-119928322D01*
X84636684Y-119953067D01*
X84995198Y-119906985D01*
X85337833Y-119791846D01*
X85560486Y-119672836D01*
X85680374Y-119387980D01*
X84582000Y-118289605D01*
X83483626Y-119387980D01*
X79400000Y-119387980D01*
X79400000Y-118164684D01*
X82738933Y-118164684D01*
X82785015Y-118523198D01*
X82900154Y-118865833D01*
X83019164Y-119088486D01*
X83304020Y-119208374D01*
X84402395Y-118110000D01*
X84761605Y-118110000D01*
X85859980Y-119208374D01*
X86144836Y-119088486D01*
X86305699Y-118764790D01*
X86400322Y-118415931D01*
X86425067Y-118055316D01*
X86378985Y-117696802D01*
X86263846Y-117354167D01*
X86144836Y-117131514D01*
X85859980Y-117011626D01*
X84761605Y-118110000D01*
X84402395Y-118110000D01*
X83304020Y-117011626D01*
X83019164Y-117131514D01*
X82858301Y-117455210D01*
X82763678Y-117804069D01*
X82738933Y-118164684D01*
X79400000Y-118164684D01*
X79400000Y-116832020D01*
X83483626Y-116832020D01*
X84582000Y-117930395D01*
X85680374Y-116832020D01*
X85560486Y-116547164D01*
X85236790Y-116386301D01*
X84887931Y-116291678D01*
X84527316Y-116266933D01*
X84168802Y-116313015D01*
X83826167Y-116428154D01*
X83603514Y-116547164D01*
X83483626Y-116832020D01*
X79400000Y-116832020D01*
X79400000Y-113024475D01*
X103283000Y-113024475D01*
X103283000Y-113543525D01*
X103384261Y-114052601D01*
X103582893Y-114532141D01*
X103871262Y-114963715D01*
X104238285Y-115330738D01*
X104669859Y-115619107D01*
X105149399Y-115817739D01*
X105658475Y-115919000D01*
X106177525Y-115919000D01*
X106686601Y-115817739D01*
X107166141Y-115619107D01*
X107597715Y-115330738D01*
X107964738Y-114963715D01*
X108253107Y-114532141D01*
X108451739Y-114052601D01*
X108553000Y-113543525D01*
X108553000Y-113024475D01*
X108451739Y-112515399D01*
X108270563Y-112078000D01*
X148175928Y-112078000D01*
X148175928Y-114678000D01*
X148188188Y-114802482D01*
X148224498Y-114922180D01*
X148283463Y-115032494D01*
X148362815Y-115129185D01*
X148459506Y-115208537D01*
X148569820Y-115267502D01*
X148689518Y-115303812D01*
X148814000Y-115316072D01*
X151414000Y-115316072D01*
X151538482Y-115303812D01*
X151658180Y-115267502D01*
X151768494Y-115208537D01*
X151865185Y-115129185D01*
X151944537Y-115032494D01*
X152003502Y-114922180D01*
X152039812Y-114802482D01*
X152052072Y-114678000D01*
X152052072Y-112078000D01*
X152039812Y-111953518D01*
X152003502Y-111833820D01*
X151944537Y-111723506D01*
X151865185Y-111626815D01*
X151768494Y-111547463D01*
X151658180Y-111488498D01*
X151538482Y-111452188D01*
X151414000Y-111439928D01*
X148814000Y-111439928D01*
X148689518Y-111452188D01*
X148569820Y-111488498D01*
X148459506Y-111547463D01*
X148362815Y-111626815D01*
X148283463Y-111723506D01*
X148224498Y-111833820D01*
X148188188Y-111953518D01*
X148175928Y-112078000D01*
X108270563Y-112078000D01*
X108253107Y-112035859D01*
X107964738Y-111604285D01*
X107597715Y-111237262D01*
X107166141Y-110948893D01*
X106686601Y-110750261D01*
X106177525Y-110649000D01*
X105658475Y-110649000D01*
X105149399Y-110750261D01*
X104669859Y-110948893D01*
X104238285Y-111237262D01*
X103871262Y-111604285D01*
X103582893Y-112035859D01*
X103384261Y-112515399D01*
X103283000Y-113024475D01*
X79400000Y-113024475D01*
X79400000Y-105284000D01*
X103279928Y-105284000D01*
X103292188Y-105408482D01*
X103328498Y-105528180D01*
X103387463Y-105638494D01*
X103466815Y-105735185D01*
X103563506Y-105814537D01*
X103673820Y-105873502D01*
X103793518Y-105909812D01*
X103918000Y-105922072D01*
X105632250Y-105919000D01*
X105791000Y-105760250D01*
X105791000Y-103411000D01*
X106045000Y-103411000D01*
X106045000Y-105760250D01*
X106203750Y-105919000D01*
X107918000Y-105922072D01*
X108042482Y-105909812D01*
X108162180Y-105873502D01*
X108272494Y-105814537D01*
X108369185Y-105735185D01*
X108448537Y-105638494D01*
X108507502Y-105528180D01*
X108543812Y-105408482D01*
X108556072Y-105284000D01*
X108553000Y-103569750D01*
X108394250Y-103411000D01*
X106045000Y-103411000D01*
X105791000Y-103411000D01*
X103441750Y-103411000D01*
X103283000Y-103569750D01*
X103279928Y-105284000D01*
X79400000Y-105284000D01*
X79400000Y-102689268D01*
X82747000Y-102689268D01*
X82747000Y-103050732D01*
X82817518Y-103405250D01*
X82955844Y-103739199D01*
X83156662Y-104039744D01*
X83412256Y-104295338D01*
X83712801Y-104496156D01*
X84046750Y-104634482D01*
X84401268Y-104705000D01*
X84762732Y-104705000D01*
X85117250Y-104634482D01*
X85451199Y-104496156D01*
X85751744Y-104295338D01*
X86007338Y-104039744D01*
X86208156Y-103739199D01*
X86346482Y-103405250D01*
X86417000Y-103050732D01*
X86417000Y-102689268D01*
X86346482Y-102334750D01*
X86208156Y-102000801D01*
X86007338Y-101700256D01*
X85751744Y-101444662D01*
X85511297Y-101284000D01*
X103279928Y-101284000D01*
X103283000Y-102998250D01*
X103441750Y-103157000D01*
X105791000Y-103157000D01*
X105791000Y-100807750D01*
X106045000Y-100807750D01*
X106045000Y-103157000D01*
X108394250Y-103157000D01*
X108553000Y-102998250D01*
X108556072Y-101284000D01*
X108543812Y-101159518D01*
X108507502Y-101039820D01*
X108448537Y-100929506D01*
X108369185Y-100832815D01*
X108272494Y-100753463D01*
X108162180Y-100694498D01*
X108042482Y-100658188D01*
X107918000Y-100645928D01*
X106203750Y-100649000D01*
X106045000Y-100807750D01*
X105791000Y-100807750D01*
X105632250Y-100649000D01*
X103918000Y-100645928D01*
X103793518Y-100658188D01*
X103673820Y-100694498D01*
X103563506Y-100753463D01*
X103466815Y-100832815D01*
X103387463Y-100929506D01*
X103328498Y-101039820D01*
X103292188Y-101159518D01*
X103279928Y-101284000D01*
X85511297Y-101284000D01*
X85451199Y-101243844D01*
X85117250Y-101105518D01*
X84762732Y-101035000D01*
X84401268Y-101035000D01*
X84046750Y-101105518D01*
X83712801Y-101243844D01*
X83412256Y-101444662D01*
X83156662Y-101700256D01*
X82955844Y-102000801D01*
X82817518Y-102334750D01*
X82747000Y-102689268D01*
X79400000Y-102689268D01*
X79400000Y-97613419D01*
X81885000Y-97613419D01*
X81885000Y-97994581D01*
X81959361Y-98368419D01*
X82105225Y-98720566D01*
X82316987Y-99037491D01*
X82586509Y-99307013D01*
X82903434Y-99518775D01*
X83255581Y-99664639D01*
X83629419Y-99739000D01*
X84010581Y-99739000D01*
X84384419Y-99664639D01*
X84736566Y-99518775D01*
X85053491Y-99307013D01*
X85323013Y-99037491D01*
X85534775Y-98720566D01*
X85680639Y-98368419D01*
X85755000Y-97994581D01*
X85755000Y-97613419D01*
X85680639Y-97239581D01*
X85534775Y-96887434D01*
X85323013Y-96570509D01*
X85053491Y-96300987D01*
X84736566Y-96089225D01*
X84384419Y-95943361D01*
X84010581Y-95869000D01*
X83629419Y-95869000D01*
X83255581Y-95943361D01*
X82903434Y-96089225D01*
X82586509Y-96300987D01*
X82316987Y-96570509D01*
X82105225Y-96887434D01*
X81959361Y-97239581D01*
X81885000Y-97613419D01*
X79400000Y-97613419D01*
X79400000Y-94153224D01*
X82650381Y-94153224D01*
X82782317Y-94448312D01*
X83123045Y-94619159D01*
X83490557Y-94720250D01*
X83870729Y-94747701D01*
X84248951Y-94700457D01*
X84610690Y-94580333D01*
X84857683Y-94448312D01*
X84989619Y-94153224D01*
X83820000Y-92983605D01*
X82650381Y-94153224D01*
X79400000Y-94153224D01*
X79400000Y-92854729D01*
X81876299Y-92854729D01*
X81923543Y-93232951D01*
X82043667Y-93594690D01*
X82175688Y-93841683D01*
X82470776Y-93973619D01*
X83640395Y-92804000D01*
X83999605Y-92804000D01*
X85169224Y-93973619D01*
X85464312Y-93841683D01*
X85635159Y-93500955D01*
X85736250Y-93133443D01*
X85746038Y-92997881D01*
X118890724Y-92997881D01*
X119250912Y-93487548D01*
X119914882Y-93847849D01*
X120636385Y-94071694D01*
X121387695Y-94150480D01*
X122139938Y-94081178D01*
X122864208Y-93866452D01*
X123532670Y-93514555D01*
X123573088Y-93487548D01*
X123933276Y-92997881D01*
X121412000Y-90476605D01*
X118890724Y-92997881D01*
X85746038Y-92997881D01*
X85763701Y-92753271D01*
X85716457Y-92375049D01*
X85596333Y-92013310D01*
X85464312Y-91766317D01*
X85169224Y-91634381D01*
X83999605Y-92804000D01*
X83640395Y-92804000D01*
X82470776Y-91634381D01*
X82175688Y-91766317D01*
X82004841Y-92107045D01*
X81903750Y-92474557D01*
X81876299Y-92854729D01*
X79400000Y-92854729D01*
X79400000Y-91454776D01*
X82650381Y-91454776D01*
X83820000Y-92624395D01*
X84989619Y-91454776D01*
X84857683Y-91159688D01*
X84516955Y-90988841D01*
X84149443Y-90887750D01*
X83769271Y-90860299D01*
X83391049Y-90907543D01*
X83029310Y-91027667D01*
X82782317Y-91159688D01*
X82650381Y-91454776D01*
X79400000Y-91454776D01*
X79400000Y-90272695D01*
X117558520Y-90272695D01*
X117627822Y-91024938D01*
X117842548Y-91749208D01*
X118194445Y-92417670D01*
X118221452Y-92458088D01*
X118711119Y-92818276D01*
X121232395Y-90297000D01*
X121591605Y-90297000D01*
X124112881Y-92818276D01*
X124602548Y-92458088D01*
X124962849Y-91794118D01*
X125186694Y-91072615D01*
X125265480Y-90321305D01*
X125255042Y-90208000D01*
X128101928Y-90208000D01*
X128114188Y-90332482D01*
X128150498Y-90452180D01*
X128209463Y-90562494D01*
X128288815Y-90659185D01*
X128305393Y-90672790D01*
X128268320Y-90728273D01*
X128160147Y-90989426D01*
X128105000Y-91266665D01*
X128105000Y-91549335D01*
X128160147Y-91826574D01*
X128268320Y-92087727D01*
X128425363Y-92322759D01*
X128625241Y-92522637D01*
X128860273Y-92679680D01*
X129121426Y-92787853D01*
X129398665Y-92843000D01*
X129681335Y-92843000D01*
X129863886Y-92806688D01*
X130395325Y-93338127D01*
X130319614Y-93378595D01*
X130185038Y-93489038D01*
X130074595Y-93623614D01*
X129992528Y-93777150D01*
X129941992Y-93943746D01*
X129924928Y-94117000D01*
X129924928Y-95367000D01*
X129941992Y-95540254D01*
X129992528Y-95706850D01*
X130074595Y-95860386D01*
X130185038Y-95994962D01*
X130205799Y-96012000D01*
X130185038Y-96029038D01*
X130074595Y-96163614D01*
X129992528Y-96317150D01*
X129941992Y-96483746D01*
X129924928Y-96657000D01*
X129924928Y-97907000D01*
X129941992Y-98080254D01*
X129992528Y-98246850D01*
X130074595Y-98400386D01*
X130185038Y-98534962D01*
X130319614Y-98645405D01*
X130406652Y-98691928D01*
X129095500Y-98691928D01*
X128971018Y-98704188D01*
X128851320Y-98740498D01*
X128741006Y-98799463D01*
X128644315Y-98878815D01*
X128564963Y-98975506D01*
X128505998Y-99085820D01*
X128469688Y-99205518D01*
X128457428Y-99330000D01*
X128457428Y-101330000D01*
X128469688Y-101454482D01*
X128505998Y-101574180D01*
X128564963Y-101684494D01*
X128644315Y-101781185D01*
X128741006Y-101860537D01*
X128775298Y-101878867D01*
X128762463Y-101894506D01*
X128703498Y-102004820D01*
X128667188Y-102124518D01*
X128654928Y-102249000D01*
X128658000Y-102838250D01*
X128816750Y-102997000D01*
X129791000Y-102997000D01*
X129791000Y-102977000D01*
X130045000Y-102977000D01*
X130045000Y-102997000D01*
X130065000Y-102997000D01*
X130065000Y-103251000D01*
X130045000Y-103251000D01*
X130045000Y-103271000D01*
X129791000Y-103271000D01*
X129791000Y-103251000D01*
X128816750Y-103251000D01*
X128658000Y-103409750D01*
X128654928Y-103999000D01*
X128667188Y-104123482D01*
X128703498Y-104243180D01*
X128704724Y-104245473D01*
X128502002Y-104448195D01*
X128472998Y-104471998D01*
X128417870Y-104539173D01*
X128378025Y-104587723D01*
X128315339Y-104705000D01*
X128307453Y-104719753D01*
X128263996Y-104863014D01*
X128252999Y-104974667D01*
X128252999Y-104974677D01*
X128249323Y-105011999D01*
X128252999Y-105049322D01*
X128253000Y-108655667D01*
X128249323Y-108692999D01*
X128253000Y-108730332D01*
X128263701Y-108838974D01*
X128263997Y-108841984D01*
X128307453Y-108985245D01*
X128378025Y-109117275D01*
X128449200Y-109204001D01*
X128472999Y-109233000D01*
X128501997Y-109256798D01*
X128699928Y-109454729D01*
X128699928Y-110882000D01*
X128712188Y-111006482D01*
X128748498Y-111126180D01*
X128807463Y-111236494D01*
X128886815Y-111333185D01*
X128983506Y-111412537D01*
X129093820Y-111471502D01*
X129213518Y-111507812D01*
X129338000Y-111520072D01*
X131838000Y-111520072D01*
X131962482Y-111507812D01*
X132082180Y-111471502D01*
X132192494Y-111412537D01*
X132289185Y-111333185D01*
X132368537Y-111236494D01*
X132427502Y-111126180D01*
X132463812Y-111006482D01*
X132476072Y-110882000D01*
X132476072Y-109166873D01*
X132699928Y-109390729D01*
X132699928Y-110882000D01*
X132712188Y-111006482D01*
X132748498Y-111126180D01*
X132807463Y-111236494D01*
X132886815Y-111333185D01*
X132983506Y-111412537D01*
X133093820Y-111471502D01*
X133213518Y-111507812D01*
X133338000Y-111520072D01*
X135838000Y-111520072D01*
X135962482Y-111507812D01*
X136082180Y-111471502D01*
X136192494Y-111412537D01*
X136289185Y-111333185D01*
X136368537Y-111236494D01*
X136427502Y-111126180D01*
X136463812Y-111006482D01*
X136476072Y-110882000D01*
X136476072Y-109454730D01*
X136674004Y-109256798D01*
X136703002Y-109233000D01*
X136797975Y-109117275D01*
X136868547Y-108985246D01*
X136912004Y-108841985D01*
X136923001Y-108730332D01*
X136923001Y-108730324D01*
X136926677Y-108692999D01*
X136923001Y-108655674D01*
X136923001Y-108187419D01*
X148179000Y-108187419D01*
X148179000Y-108568581D01*
X148253361Y-108942419D01*
X148399225Y-109294566D01*
X148610987Y-109611491D01*
X148880509Y-109881013D01*
X149197434Y-110092775D01*
X149549581Y-110238639D01*
X149923419Y-110313000D01*
X150304581Y-110313000D01*
X150678419Y-110238639D01*
X151030566Y-110092775D01*
X151347491Y-109881013D01*
X151617013Y-109611491D01*
X151828775Y-109294566D01*
X151974639Y-108942419D01*
X152049000Y-108568581D01*
X152049000Y-108187419D01*
X151974639Y-107813581D01*
X151828775Y-107461434D01*
X151617013Y-107144509D01*
X151347491Y-106874987D01*
X151030566Y-106663225D01*
X150678419Y-106517361D01*
X150304581Y-106443000D01*
X149923419Y-106443000D01*
X149549581Y-106517361D01*
X149197434Y-106663225D01*
X148880509Y-106874987D01*
X148610987Y-107144509D01*
X148399225Y-107461434D01*
X148253361Y-107813581D01*
X148179000Y-108187419D01*
X136923001Y-108187419D01*
X136923001Y-104727224D01*
X148944381Y-104727224D01*
X149076317Y-105022312D01*
X149417045Y-105193159D01*
X149784557Y-105294250D01*
X150164729Y-105321701D01*
X150542951Y-105274457D01*
X150904690Y-105154333D01*
X151151683Y-105022312D01*
X151283619Y-104727224D01*
X150114000Y-103557605D01*
X148944381Y-104727224D01*
X136923001Y-104727224D01*
X136923001Y-104704323D01*
X136926677Y-104667000D01*
X136923001Y-104629677D01*
X136923001Y-104629668D01*
X136912004Y-104518015D01*
X136868547Y-104374754D01*
X136797975Y-104242725D01*
X136744591Y-104177676D01*
X136726800Y-104155997D01*
X136726796Y-104155993D01*
X136703002Y-104127000D01*
X136674010Y-104103207D01*
X135999531Y-103428729D01*
X148170299Y-103428729D01*
X148217543Y-103806951D01*
X148337667Y-104168690D01*
X148469688Y-104415683D01*
X148764776Y-104547619D01*
X149934395Y-103378000D01*
X150293605Y-103378000D01*
X151463224Y-104547619D01*
X151758312Y-104415683D01*
X151929159Y-104074955D01*
X152030250Y-103707443D01*
X152057701Y-103327271D01*
X152010457Y-102949049D01*
X151890333Y-102587310D01*
X151758312Y-102340317D01*
X151463224Y-102208381D01*
X150293605Y-103378000D01*
X149934395Y-103378000D01*
X148764776Y-102208381D01*
X148469688Y-102340317D01*
X148298841Y-102681045D01*
X148197750Y-103048557D01*
X148170299Y-103428729D01*
X135999531Y-103428729D01*
X135888000Y-103317199D01*
X135888000Y-102028776D01*
X148944381Y-102028776D01*
X150114000Y-103198395D01*
X151283619Y-102028776D01*
X151151683Y-101733688D01*
X150810955Y-101562841D01*
X150443443Y-101461750D01*
X150063271Y-101434299D01*
X149685049Y-101481543D01*
X149323310Y-101601667D01*
X149076317Y-101733688D01*
X148944381Y-102028776D01*
X135888000Y-102028776D01*
X135888000Y-101771319D01*
X136014235Y-101703845D01*
X136255963Y-101505463D01*
X136454345Y-101263734D01*
X136601755Y-100987948D01*
X136692530Y-100688703D01*
X136715500Y-100455485D01*
X136715500Y-100204514D01*
X136692530Y-99971296D01*
X136601755Y-99672051D01*
X136454345Y-99396265D01*
X136255963Y-99154537D01*
X136014234Y-98956155D01*
X135738448Y-98808745D01*
X135439203Y-98717970D01*
X135128000Y-98687319D01*
X134816796Y-98717970D01*
X134748000Y-98738839D01*
X134748000Y-98703339D01*
X134856386Y-98645405D01*
X134990962Y-98534962D01*
X135101405Y-98400386D01*
X135183472Y-98246850D01*
X135234008Y-98080254D01*
X135251072Y-97907000D01*
X135251072Y-96657000D01*
X135234008Y-96483746D01*
X135183472Y-96317150D01*
X135101405Y-96163614D01*
X135039628Y-96088338D01*
X135064185Y-96068185D01*
X135143537Y-95971494D01*
X135202502Y-95861180D01*
X135238812Y-95741482D01*
X135251072Y-95617000D01*
X135248000Y-95027750D01*
X135089250Y-94869000D01*
X134115000Y-94869000D01*
X134115000Y-94889000D01*
X133861000Y-94889000D01*
X133861000Y-94869000D01*
X132886750Y-94869000D01*
X132728000Y-95027750D01*
X132724928Y-95617000D01*
X132737188Y-95741482D01*
X132773498Y-95861180D01*
X132832463Y-95971494D01*
X132911815Y-96068185D01*
X132936372Y-96088338D01*
X132874595Y-96163614D01*
X132792528Y-96317150D01*
X132741992Y-96483746D01*
X132724928Y-96657000D01*
X132724928Y-97907000D01*
X132741992Y-98080254D01*
X132792528Y-98246850D01*
X132874595Y-98400386D01*
X132985038Y-98534962D01*
X133119614Y-98645405D01*
X133228001Y-98703339D01*
X133228001Y-98824541D01*
X133198448Y-98808745D01*
X132899203Y-98717970D01*
X132588000Y-98687319D01*
X132276796Y-98717970D01*
X131977551Y-98808745D01*
X131948000Y-98824540D01*
X131948000Y-98703339D01*
X132056386Y-98645405D01*
X132190962Y-98534962D01*
X132301405Y-98400386D01*
X132383472Y-98246850D01*
X132434008Y-98080254D01*
X132451072Y-97907000D01*
X132451072Y-96657000D01*
X132434008Y-96483746D01*
X132383472Y-96317150D01*
X132301405Y-96163614D01*
X132190962Y-96029038D01*
X132170201Y-96012000D01*
X132190962Y-95994962D01*
X132301405Y-95860386D01*
X132383472Y-95706850D01*
X132434008Y-95540254D01*
X132451072Y-95367000D01*
X132451072Y-94117000D01*
X132434008Y-93943746D01*
X132410728Y-93867000D01*
X132724928Y-93867000D01*
X132728000Y-94456250D01*
X132886750Y-94615000D01*
X133861000Y-94615000D01*
X133861000Y-93390750D01*
X134115000Y-93390750D01*
X134115000Y-94615000D01*
X135089250Y-94615000D01*
X135248000Y-94456250D01*
X135251072Y-93867000D01*
X135238812Y-93742518D01*
X135202502Y-93622820D01*
X135143537Y-93512506D01*
X135064185Y-93415815D01*
X134967494Y-93336463D01*
X134857180Y-93277498D01*
X134737482Y-93241188D01*
X134613000Y-93228928D01*
X134273750Y-93232000D01*
X134115000Y-93390750D01*
X133861000Y-93390750D01*
X133702250Y-93232000D01*
X133363000Y-93228928D01*
X133238518Y-93241188D01*
X133118820Y-93277498D01*
X133008506Y-93336463D01*
X132911815Y-93415815D01*
X132832463Y-93512506D01*
X132773498Y-93622820D01*
X132737188Y-93742518D01*
X132724928Y-93867000D01*
X132410728Y-93867000D01*
X132383472Y-93777150D01*
X132301405Y-93623614D01*
X132190962Y-93489038D01*
X132056386Y-93378595D01*
X131948000Y-93320661D01*
X131948000Y-93093323D01*
X131951676Y-93056000D01*
X131948000Y-93018677D01*
X131948000Y-93018667D01*
X131946359Y-93002000D01*
X142071928Y-93002000D01*
X142084188Y-93126482D01*
X142120498Y-93246180D01*
X142179463Y-93356494D01*
X142258815Y-93453185D01*
X142275393Y-93466790D01*
X142238320Y-93522273D01*
X142130147Y-93783426D01*
X142075000Y-94060665D01*
X142075000Y-94343335D01*
X142130147Y-94620574D01*
X142238320Y-94881727D01*
X142395363Y-95116759D01*
X142595241Y-95316637D01*
X142830273Y-95473680D01*
X143091426Y-95581853D01*
X143368665Y-95637000D01*
X143651335Y-95637000D01*
X143928574Y-95581853D01*
X144189727Y-95473680D01*
X144419725Y-95320000D01*
X148783928Y-95320000D01*
X148783928Y-97720000D01*
X148796188Y-97844482D01*
X148832498Y-97964180D01*
X148891463Y-98074494D01*
X148970815Y-98171185D01*
X149067506Y-98250537D01*
X149177820Y-98309502D01*
X149297518Y-98345812D01*
X149422000Y-98358072D01*
X151822000Y-98358072D01*
X151946482Y-98345812D01*
X152066180Y-98309502D01*
X152176494Y-98250537D01*
X152273185Y-98171185D01*
X152352537Y-98074494D01*
X152411502Y-97964180D01*
X152447812Y-97844482D01*
X152460072Y-97720000D01*
X152460072Y-95320000D01*
X152447812Y-95195518D01*
X152411502Y-95075820D01*
X152352537Y-94965506D01*
X152273185Y-94868815D01*
X152176494Y-94789463D01*
X152066180Y-94730498D01*
X151946482Y-94694188D01*
X151822000Y-94681928D01*
X151404838Y-94681928D01*
X151491199Y-94646156D01*
X151791744Y-94445338D01*
X152047338Y-94189744D01*
X152248156Y-93889199D01*
X152386482Y-93555250D01*
X152457000Y-93200732D01*
X152457000Y-92839268D01*
X152386482Y-92484750D01*
X152248156Y-92150801D01*
X152047338Y-91850256D01*
X151791744Y-91594662D01*
X151491199Y-91393844D01*
X151157250Y-91255518D01*
X150802732Y-91185000D01*
X150441268Y-91185000D01*
X150086750Y-91255518D01*
X149752801Y-91393844D01*
X149452256Y-91594662D01*
X149196662Y-91850256D01*
X148995844Y-92150801D01*
X148857518Y-92484750D01*
X148787000Y-92839268D01*
X148787000Y-93200732D01*
X148857518Y-93555250D01*
X148995844Y-93889199D01*
X149196662Y-94189744D01*
X149452256Y-94445338D01*
X149752801Y-94646156D01*
X149839162Y-94681928D01*
X149422000Y-94681928D01*
X149297518Y-94694188D01*
X149177820Y-94730498D01*
X149067506Y-94789463D01*
X148970815Y-94868815D01*
X148891463Y-94965506D01*
X148832498Y-95075820D01*
X148796188Y-95195518D01*
X148783928Y-95320000D01*
X144419725Y-95320000D01*
X144424759Y-95316637D01*
X144624637Y-95116759D01*
X144781680Y-94881727D01*
X144889853Y-94620574D01*
X144945000Y-94343335D01*
X144945000Y-94060665D01*
X144889853Y-93783426D01*
X144781680Y-93522273D01*
X144744607Y-93466790D01*
X144761185Y-93453185D01*
X144840537Y-93356494D01*
X144899502Y-93246180D01*
X144935812Y-93126482D01*
X144948072Y-93002000D01*
X144945000Y-92487750D01*
X144786250Y-92329000D01*
X143637000Y-92329000D01*
X143637000Y-92349000D01*
X143383000Y-92349000D01*
X143383000Y-92329000D01*
X142233750Y-92329000D01*
X142075000Y-92487750D01*
X142071928Y-93002000D01*
X131946359Y-93002000D01*
X131937003Y-92907014D01*
X131893546Y-92763753D01*
X131865671Y-92711603D01*
X131822974Y-92631723D01*
X131751799Y-92544997D01*
X131728001Y-92515999D01*
X131699003Y-92492201D01*
X131607504Y-92400702D01*
X134822903Y-92400702D01*
X134894486Y-92644671D01*
X135149996Y-92765571D01*
X135424184Y-92834300D01*
X135706512Y-92848217D01*
X135986130Y-92806787D01*
X136252292Y-92711603D01*
X136377514Y-92644671D01*
X136449097Y-92400702D01*
X135636000Y-91587605D01*
X134822903Y-92400702D01*
X131607504Y-92400702D01*
X130938688Y-91731886D01*
X130975000Y-91549335D01*
X130975000Y-91266665D01*
X130919853Y-90989426D01*
X130811680Y-90728273D01*
X130774607Y-90672790D01*
X130791185Y-90659185D01*
X130870537Y-90562494D01*
X130929502Y-90452180D01*
X130965812Y-90332482D01*
X130978072Y-90208000D01*
X130975000Y-89693750D01*
X130816250Y-89535000D01*
X129667000Y-89535000D01*
X129667000Y-89555000D01*
X129413000Y-89555000D01*
X129413000Y-89535000D01*
X128263750Y-89535000D01*
X128105000Y-89693750D01*
X128101928Y-90208000D01*
X125255042Y-90208000D01*
X125196178Y-89569062D01*
X124981452Y-88844792D01*
X124856799Y-88608000D01*
X128101928Y-88608000D01*
X128105000Y-89122250D01*
X128263750Y-89281000D01*
X129413000Y-89281000D01*
X129413000Y-88131750D01*
X129667000Y-88131750D01*
X129667000Y-89281000D01*
X130816250Y-89281000D01*
X130975000Y-89122250D01*
X130978072Y-88608000D01*
X130965812Y-88483518D01*
X130929502Y-88363820D01*
X130870537Y-88253506D01*
X130791185Y-88156815D01*
X130694494Y-88077463D01*
X130584180Y-88018498D01*
X130464482Y-87982188D01*
X130340000Y-87969928D01*
X129825750Y-87973000D01*
X129667000Y-88131750D01*
X129413000Y-88131750D01*
X129254250Y-87973000D01*
X128740000Y-87969928D01*
X128615518Y-87982188D01*
X128495820Y-88018498D01*
X128385506Y-88077463D01*
X128288815Y-88156815D01*
X128209463Y-88253506D01*
X128150498Y-88363820D01*
X128114188Y-88483518D01*
X128101928Y-88608000D01*
X124856799Y-88608000D01*
X124629555Y-88176330D01*
X124602548Y-88135912D01*
X124112881Y-87775724D01*
X121591605Y-90297000D01*
X121232395Y-90297000D01*
X118711119Y-87775724D01*
X118221452Y-88135912D01*
X117861151Y-88799882D01*
X117637306Y-89521385D01*
X117558520Y-90272695D01*
X79400000Y-90272695D01*
X79400000Y-89153224D01*
X82650381Y-89153224D01*
X82782317Y-89448312D01*
X83123045Y-89619159D01*
X83490557Y-89720250D01*
X83870729Y-89747701D01*
X84248951Y-89700457D01*
X84610690Y-89580333D01*
X84857683Y-89448312D01*
X84989619Y-89153224D01*
X83820000Y-87983605D01*
X82650381Y-89153224D01*
X79400000Y-89153224D01*
X79400000Y-87854729D01*
X81876299Y-87854729D01*
X81923543Y-88232951D01*
X82043667Y-88594690D01*
X82175688Y-88841683D01*
X82470776Y-88973619D01*
X83640395Y-87804000D01*
X83999605Y-87804000D01*
X85169224Y-88973619D01*
X85464312Y-88841683D01*
X85635159Y-88500955D01*
X85736250Y-88133443D01*
X85763701Y-87753271D01*
X85744072Y-87596119D01*
X118890724Y-87596119D01*
X121412000Y-90117395D01*
X123933276Y-87596119D01*
X123573088Y-87106452D01*
X122909118Y-86746151D01*
X122847391Y-86727000D01*
X129924928Y-86727000D01*
X129937188Y-86851482D01*
X129973498Y-86971180D01*
X130032463Y-87081494D01*
X130111815Y-87178185D01*
X130208506Y-87257537D01*
X130318820Y-87316502D01*
X130438518Y-87352812D01*
X130563000Y-87365072D01*
X130902250Y-87362000D01*
X131061000Y-87203250D01*
X131061000Y-85979000D01*
X131315000Y-85979000D01*
X131315000Y-87203250D01*
X131473750Y-87362000D01*
X131813000Y-87365072D01*
X131937482Y-87352812D01*
X132057180Y-87316502D01*
X132167494Y-87257537D01*
X132264185Y-87178185D01*
X132343537Y-87081494D01*
X132402502Y-86971180D01*
X132438812Y-86851482D01*
X132451072Y-86727000D01*
X132448000Y-86137750D01*
X132289250Y-85979000D01*
X131315000Y-85979000D01*
X131061000Y-85979000D01*
X130086750Y-85979000D01*
X129928000Y-86137750D01*
X129924928Y-86727000D01*
X122847391Y-86727000D01*
X122187615Y-86522306D01*
X121436305Y-86443520D01*
X120684062Y-86512822D01*
X119959792Y-86727548D01*
X119291330Y-87079445D01*
X119250912Y-87106452D01*
X118890724Y-87596119D01*
X85744072Y-87596119D01*
X85716457Y-87375049D01*
X85596333Y-87013310D01*
X85464312Y-86766317D01*
X85169224Y-86634381D01*
X83999605Y-87804000D01*
X83640395Y-87804000D01*
X82470776Y-86634381D01*
X82175688Y-86766317D01*
X82004841Y-87107045D01*
X81903750Y-87474557D01*
X81876299Y-87854729D01*
X79400000Y-87854729D01*
X79400000Y-86454776D01*
X82650381Y-86454776D01*
X83820000Y-87624395D01*
X84989619Y-86454776D01*
X84857683Y-86159688D01*
X84516955Y-85988841D01*
X84149443Y-85887750D01*
X83769271Y-85860299D01*
X83391049Y-85907543D01*
X83029310Y-86027667D01*
X82782317Y-86159688D01*
X82650381Y-86454776D01*
X79400000Y-86454776D01*
X79400000Y-81504000D01*
X81881928Y-81504000D01*
X81881928Y-84104000D01*
X81894188Y-84228482D01*
X81930498Y-84348180D01*
X81989463Y-84458494D01*
X82068815Y-84555185D01*
X82165506Y-84634537D01*
X82275820Y-84693502D01*
X82395518Y-84729812D01*
X82520000Y-84742072D01*
X85120000Y-84742072D01*
X85244482Y-84729812D01*
X85364180Y-84693502D01*
X85474494Y-84634537D01*
X85571185Y-84555185D01*
X85650537Y-84458494D01*
X85709502Y-84348180D01*
X85745812Y-84228482D01*
X85758072Y-84104000D01*
X85758072Y-81504000D01*
X85745812Y-81379518D01*
X85709502Y-81259820D01*
X85650537Y-81149506D01*
X85571185Y-81052815D01*
X85474494Y-80973463D01*
X85364180Y-80914498D01*
X85244482Y-80878188D01*
X85120000Y-80865928D01*
X82520000Y-80865928D01*
X82395518Y-80878188D01*
X82275820Y-80914498D01*
X82165506Y-80973463D01*
X82068815Y-81052815D01*
X81989463Y-81149506D01*
X81930498Y-81259820D01*
X81894188Y-81379518D01*
X81881928Y-81504000D01*
X79400000Y-81504000D01*
X79400000Y-80138514D01*
X128460500Y-80138514D01*
X128460500Y-80389485D01*
X128483470Y-80622703D01*
X128574245Y-80921948D01*
X128721655Y-81197734D01*
X128920037Y-81439463D01*
X129161765Y-81637845D01*
X129437551Y-81785255D01*
X129736796Y-81876030D01*
X130048000Y-81906681D01*
X130359203Y-81876030D01*
X130658448Y-81785255D01*
X130934234Y-81637845D01*
X131175963Y-81439463D01*
X131318000Y-81266391D01*
X131460037Y-81439463D01*
X131680668Y-81620531D01*
X131502270Y-81798928D01*
X130813000Y-81798928D01*
X130639746Y-81815992D01*
X130473150Y-81866528D01*
X130319614Y-81948595D01*
X130185038Y-82059038D01*
X130074595Y-82193614D01*
X129992528Y-82347150D01*
X129941992Y-82513746D01*
X129924928Y-82687000D01*
X129924928Y-83937000D01*
X129941992Y-84110254D01*
X129992528Y-84276850D01*
X130074595Y-84430386D01*
X130136372Y-84505662D01*
X130111815Y-84525815D01*
X130032463Y-84622506D01*
X129973498Y-84732820D01*
X129937188Y-84852518D01*
X129924928Y-84977000D01*
X129928000Y-85566250D01*
X130086750Y-85725000D01*
X131061000Y-85725000D01*
X131061000Y-85705000D01*
X131315000Y-85705000D01*
X131315000Y-85725000D01*
X132289250Y-85725000D01*
X132448000Y-85566250D01*
X132451072Y-84977000D01*
X132438812Y-84852518D01*
X132402502Y-84732820D01*
X132343537Y-84622506D01*
X132264185Y-84525815D01*
X132239628Y-84505662D01*
X132301405Y-84430386D01*
X132383472Y-84276850D01*
X132434008Y-84110254D01*
X132451072Y-83937000D01*
X132451072Y-82999730D01*
X132724928Y-82725874D01*
X132724928Y-83937000D01*
X132741992Y-84110254D01*
X132792528Y-84276850D01*
X132874595Y-84430386D01*
X132985038Y-84564962D01*
X133005799Y-84582000D01*
X132985038Y-84599038D01*
X132874595Y-84733614D01*
X132792528Y-84887150D01*
X132741992Y-85053746D01*
X132724928Y-85227000D01*
X132724928Y-86477000D01*
X132741992Y-86650254D01*
X132792528Y-86816850D01*
X132874595Y-86970386D01*
X132985038Y-87104962D01*
X133119614Y-87215405D01*
X133228001Y-87273339D01*
X133228001Y-87722668D01*
X133224324Y-87760000D01*
X133228001Y-87797333D01*
X133237818Y-87897000D01*
X133238998Y-87908985D01*
X133282454Y-88052246D01*
X133353026Y-88184276D01*
X133418348Y-88263870D01*
X133448000Y-88300001D01*
X133476998Y-88323799D01*
X134197928Y-89044729D01*
X134197928Y-90208000D01*
X134210188Y-90332482D01*
X134246498Y-90452180D01*
X134305463Y-90562494D01*
X134384815Y-90659185D01*
X134397758Y-90669807D01*
X134278429Y-90921996D01*
X134209700Y-91196184D01*
X134195783Y-91478512D01*
X134237213Y-91758130D01*
X134332397Y-92024292D01*
X134399329Y-92149514D01*
X134643298Y-92221097D01*
X135456395Y-91408000D01*
X135442253Y-91393858D01*
X135621858Y-91214253D01*
X135636000Y-91228395D01*
X135650143Y-91214253D01*
X135829748Y-91393858D01*
X135815605Y-91408000D01*
X136628702Y-92221097D01*
X136872671Y-92149514D01*
X136993571Y-91894004D01*
X137062300Y-91619816D01*
X137073036Y-91402000D01*
X142071928Y-91402000D01*
X142075000Y-91916250D01*
X142233750Y-92075000D01*
X143383000Y-92075000D01*
X143383000Y-90925750D01*
X143637000Y-90925750D01*
X143637000Y-92075000D01*
X144786250Y-92075000D01*
X144945000Y-91916250D01*
X144948072Y-91402000D01*
X144935812Y-91277518D01*
X144899502Y-91157820D01*
X144840537Y-91047506D01*
X144761185Y-90950815D01*
X144664494Y-90871463D01*
X144554180Y-90812498D01*
X144434482Y-90776188D01*
X144310000Y-90763928D01*
X143795750Y-90767000D01*
X143637000Y-90925750D01*
X143383000Y-90925750D01*
X143224250Y-90767000D01*
X142710000Y-90763928D01*
X142585518Y-90776188D01*
X142465820Y-90812498D01*
X142355506Y-90871463D01*
X142258815Y-90950815D01*
X142179463Y-91047506D01*
X142120498Y-91157820D01*
X142084188Y-91277518D01*
X142071928Y-91402000D01*
X137073036Y-91402000D01*
X137076217Y-91337488D01*
X137034787Y-91057870D01*
X136939603Y-90791708D01*
X136874384Y-90669691D01*
X136887185Y-90659185D01*
X136966537Y-90562494D01*
X137025502Y-90452180D01*
X137061812Y-90332482D01*
X137074072Y-90208000D01*
X137074072Y-89606702D01*
X142696903Y-89606702D01*
X142768486Y-89850671D01*
X143023996Y-89971571D01*
X143298184Y-90040300D01*
X143580512Y-90054217D01*
X143860130Y-90012787D01*
X144126292Y-89917603D01*
X144251514Y-89850671D01*
X144323097Y-89606702D01*
X143510000Y-88793605D01*
X142696903Y-89606702D01*
X137074072Y-89606702D01*
X137074072Y-88684512D01*
X142069783Y-88684512D01*
X142111213Y-88964130D01*
X142206397Y-89230292D01*
X142273329Y-89355514D01*
X142517298Y-89427097D01*
X143330395Y-88614000D01*
X143316253Y-88599858D01*
X143495858Y-88420253D01*
X143510000Y-88434395D01*
X143524143Y-88420253D01*
X143703748Y-88599858D01*
X143689605Y-88614000D01*
X144502702Y-89427097D01*
X144746671Y-89355514D01*
X144867571Y-89100004D01*
X144936300Y-88825816D01*
X144950217Y-88543488D01*
X144908787Y-88263870D01*
X144813603Y-87997708D01*
X144748384Y-87875691D01*
X144761185Y-87865185D01*
X144840537Y-87768494D01*
X144899502Y-87658180D01*
X144935812Y-87538482D01*
X144948072Y-87414000D01*
X144948072Y-86430000D01*
X148783928Y-86430000D01*
X148783928Y-88830000D01*
X148796188Y-88954482D01*
X148832498Y-89074180D01*
X148891463Y-89184494D01*
X148970815Y-89281185D01*
X149067506Y-89360537D01*
X149177820Y-89419502D01*
X149297518Y-89455812D01*
X149422000Y-89468072D01*
X151822000Y-89468072D01*
X151946482Y-89455812D01*
X152066180Y-89419502D01*
X152176494Y-89360537D01*
X152273185Y-89281185D01*
X152352537Y-89184494D01*
X152411502Y-89074180D01*
X152447812Y-88954482D01*
X152460072Y-88830000D01*
X152460072Y-86430000D01*
X152447812Y-86305518D01*
X152411502Y-86185820D01*
X152352537Y-86075506D01*
X152273185Y-85978815D01*
X152176494Y-85899463D01*
X152066180Y-85840498D01*
X151946482Y-85804188D01*
X151822000Y-85791928D01*
X151404838Y-85791928D01*
X151491199Y-85756156D01*
X151791744Y-85555338D01*
X152047338Y-85299744D01*
X152248156Y-84999199D01*
X152386482Y-84665250D01*
X152457000Y-84310732D01*
X152457000Y-83949268D01*
X152386482Y-83594750D01*
X152248156Y-83260801D01*
X152047338Y-82960256D01*
X151791744Y-82704662D01*
X151491199Y-82503844D01*
X151157250Y-82365518D01*
X150802732Y-82295000D01*
X150441268Y-82295000D01*
X150086750Y-82365518D01*
X149752801Y-82503844D01*
X149452256Y-82704662D01*
X149196662Y-82960256D01*
X148995844Y-83260801D01*
X148857518Y-83594750D01*
X148787000Y-83949268D01*
X148787000Y-84310732D01*
X148857518Y-84665250D01*
X148995844Y-84999199D01*
X149196662Y-85299744D01*
X149452256Y-85555338D01*
X149752801Y-85756156D01*
X149839162Y-85791928D01*
X149422000Y-85791928D01*
X149297518Y-85804188D01*
X149177820Y-85840498D01*
X149067506Y-85899463D01*
X148970815Y-85978815D01*
X148891463Y-86075506D01*
X148832498Y-86185820D01*
X148796188Y-86305518D01*
X148783928Y-86430000D01*
X144948072Y-86430000D01*
X144948072Y-85814000D01*
X144935812Y-85689518D01*
X144899502Y-85569820D01*
X144840537Y-85459506D01*
X144761185Y-85362815D01*
X144664494Y-85283463D01*
X144554180Y-85224498D01*
X144434482Y-85188188D01*
X144310000Y-85175928D01*
X142710000Y-85175928D01*
X142585518Y-85188188D01*
X142465820Y-85224498D01*
X142355506Y-85283463D01*
X142258815Y-85362815D01*
X142179463Y-85459506D01*
X142120498Y-85569820D01*
X142084188Y-85689518D01*
X142071928Y-85814000D01*
X142071928Y-87414000D01*
X142084188Y-87538482D01*
X142120498Y-87658180D01*
X142179463Y-87768494D01*
X142258815Y-87865185D01*
X142271758Y-87875807D01*
X142152429Y-88127996D01*
X142083700Y-88402184D01*
X142069783Y-88684512D01*
X137074072Y-88684512D01*
X137074072Y-88608000D01*
X137061812Y-88483518D01*
X137025502Y-88363820D01*
X136966537Y-88253506D01*
X136887185Y-88156815D01*
X136790494Y-88077463D01*
X136680180Y-88018498D01*
X136560482Y-87982188D01*
X136436000Y-87969928D01*
X135272729Y-87969928D01*
X134748000Y-87445199D01*
X134748000Y-87273339D01*
X134856386Y-87215405D01*
X134990962Y-87104962D01*
X135101405Y-86970386D01*
X135183472Y-86816850D01*
X135234008Y-86650254D01*
X135251072Y-86477000D01*
X135251072Y-85227000D01*
X135234008Y-85053746D01*
X135183472Y-84887150D01*
X135101405Y-84733614D01*
X134990962Y-84599038D01*
X134970201Y-84582000D01*
X134990962Y-84564962D01*
X135101405Y-84430386D01*
X135183472Y-84276850D01*
X135234008Y-84110254D01*
X135251072Y-83937000D01*
X135251072Y-82993730D01*
X135639009Y-82605794D01*
X135668001Y-82582001D01*
X135691795Y-82553008D01*
X135691799Y-82553004D01*
X135762973Y-82466277D01*
X135762974Y-82466276D01*
X135833546Y-82334247D01*
X135877003Y-82190986D01*
X135888000Y-82079333D01*
X135888000Y-82079324D01*
X135891676Y-82042001D01*
X135888000Y-82004678D01*
X135888000Y-81902072D01*
X136080500Y-81902072D01*
X136204982Y-81889812D01*
X136324680Y-81853502D01*
X136434994Y-81794537D01*
X136531685Y-81715185D01*
X136611037Y-81618494D01*
X136670002Y-81508180D01*
X136706312Y-81388482D01*
X136718572Y-81264000D01*
X136718572Y-79750028D01*
X136726796Y-79740007D01*
X136726800Y-79740003D01*
X136797974Y-79653276D01*
X136797975Y-79653275D01*
X136868547Y-79521246D01*
X136912004Y-79377985D01*
X136923001Y-79266332D01*
X136923001Y-79266323D01*
X136926677Y-79229000D01*
X136923001Y-79191677D01*
X136923001Y-78516000D01*
X148175928Y-78516000D01*
X148188188Y-78640482D01*
X148224498Y-78760180D01*
X148283463Y-78870494D01*
X148362815Y-78967185D01*
X148459506Y-79046537D01*
X148569820Y-79105502D01*
X148689518Y-79141812D01*
X148814000Y-79154072D01*
X149828250Y-79151000D01*
X149987000Y-78992250D01*
X149987000Y-77343000D01*
X150241000Y-77343000D01*
X150241000Y-78992250D01*
X150399750Y-79151000D01*
X151414000Y-79154072D01*
X151538482Y-79141812D01*
X151658180Y-79105502D01*
X151768494Y-79046537D01*
X151865185Y-78967185D01*
X151944537Y-78870494D01*
X152003502Y-78760180D01*
X152039812Y-78640482D01*
X152052072Y-78516000D01*
X152049000Y-77501750D01*
X151890250Y-77343000D01*
X150241000Y-77343000D01*
X149987000Y-77343000D01*
X148337750Y-77343000D01*
X148179000Y-77501750D01*
X148175928Y-78516000D01*
X136923001Y-78516000D01*
X136923001Y-75916000D01*
X148175928Y-75916000D01*
X148179000Y-76930250D01*
X148337750Y-77089000D01*
X149987000Y-77089000D01*
X149987000Y-75439750D01*
X150241000Y-75439750D01*
X150241000Y-77089000D01*
X151890250Y-77089000D01*
X152049000Y-76930250D01*
X152052072Y-75916000D01*
X152039812Y-75791518D01*
X152003502Y-75671820D01*
X151944537Y-75561506D01*
X151865185Y-75464815D01*
X151768494Y-75385463D01*
X151658180Y-75326498D01*
X151538482Y-75290188D01*
X151414000Y-75277928D01*
X150399750Y-75281000D01*
X150241000Y-75439750D01*
X149987000Y-75439750D01*
X149828250Y-75281000D01*
X148814000Y-75277928D01*
X148689518Y-75290188D01*
X148569820Y-75326498D01*
X148459506Y-75385463D01*
X148362815Y-75464815D01*
X148283463Y-75561506D01*
X148224498Y-75671820D01*
X148188188Y-75791518D01*
X148175928Y-75916000D01*
X136923001Y-75916000D01*
X136923001Y-72025419D01*
X148179000Y-72025419D01*
X148179000Y-72406581D01*
X148253361Y-72780419D01*
X148399225Y-73132566D01*
X148610987Y-73449491D01*
X148880509Y-73719013D01*
X149197434Y-73930775D01*
X149549581Y-74076639D01*
X149923419Y-74151000D01*
X150304581Y-74151000D01*
X150678419Y-74076639D01*
X151030566Y-73930775D01*
X151347491Y-73719013D01*
X151617013Y-73449491D01*
X151828775Y-73132566D01*
X151974639Y-72780419D01*
X152049000Y-72406581D01*
X152049000Y-72025419D01*
X151974639Y-71651581D01*
X151828775Y-71299434D01*
X151617013Y-70982509D01*
X151347491Y-70712987D01*
X151030566Y-70501225D01*
X150678419Y-70355361D01*
X150304581Y-70281000D01*
X149923419Y-70281000D01*
X149549581Y-70355361D01*
X149197434Y-70501225D01*
X148880509Y-70712987D01*
X148610987Y-70982509D01*
X148399225Y-71299434D01*
X148253361Y-71651581D01*
X148179000Y-72025419D01*
X136923001Y-72025419D01*
X136923001Y-71938326D01*
X136926677Y-71901001D01*
X136923001Y-71863676D01*
X136923001Y-71863668D01*
X136912004Y-71752015D01*
X136868547Y-71608754D01*
X136797975Y-71476725D01*
X136703002Y-71361000D01*
X136674005Y-71337203D01*
X136476072Y-71139270D01*
X136476072Y-69712000D01*
X136463812Y-69587518D01*
X136427502Y-69467820D01*
X136368537Y-69357506D01*
X136289185Y-69260815D01*
X136192494Y-69181463D01*
X136082180Y-69122498D01*
X135962482Y-69086188D01*
X135838000Y-69073928D01*
X133338000Y-69073928D01*
X133213518Y-69086188D01*
X133093820Y-69122498D01*
X132983506Y-69181463D01*
X132886815Y-69260815D01*
X132807463Y-69357506D01*
X132748498Y-69467820D01*
X132712188Y-69587518D01*
X132699928Y-69712000D01*
X132699928Y-71427126D01*
X132476072Y-71203270D01*
X132476072Y-69712000D01*
X132463812Y-69587518D01*
X132427502Y-69467820D01*
X132368537Y-69357506D01*
X132289185Y-69260815D01*
X132192494Y-69181463D01*
X132082180Y-69122498D01*
X131962482Y-69086188D01*
X131838000Y-69073928D01*
X129338000Y-69073928D01*
X129213518Y-69086188D01*
X129093820Y-69122498D01*
X128983506Y-69181463D01*
X128886815Y-69260815D01*
X128807463Y-69357506D01*
X128748498Y-69467820D01*
X128712188Y-69587518D01*
X128699928Y-69712000D01*
X128699928Y-71512000D01*
X128712188Y-71636482D01*
X128748498Y-71756180D01*
X128807463Y-71866494D01*
X128886815Y-71963185D01*
X128983506Y-72042537D01*
X129093820Y-72101502D01*
X129213518Y-72137812D01*
X129338000Y-72150072D01*
X131273270Y-72150072D01*
X131830564Y-72707366D01*
X131838997Y-72792986D01*
X131867464Y-72886830D01*
X131838000Y-72883928D01*
X129338000Y-72883928D01*
X129213518Y-72896188D01*
X129093820Y-72932498D01*
X128983506Y-72991463D01*
X128886815Y-73070815D01*
X128807463Y-73167506D01*
X128748498Y-73277820D01*
X128712188Y-73397518D01*
X128699928Y-73522000D01*
X128699928Y-75322000D01*
X128712188Y-75446482D01*
X128748498Y-75566180D01*
X128807463Y-75676494D01*
X128886815Y-75773185D01*
X128983506Y-75852537D01*
X129093820Y-75911502D01*
X129213518Y-75947812D01*
X129307401Y-75957058D01*
X129293000Y-75956928D01*
X129168518Y-75969188D01*
X129048820Y-76005498D01*
X128938506Y-76064463D01*
X128841815Y-76143815D01*
X128762463Y-76240506D01*
X128703498Y-76350820D01*
X128667188Y-76470518D01*
X128654928Y-76595000D01*
X128658000Y-77184250D01*
X128816750Y-77343000D01*
X129791000Y-77343000D01*
X129791000Y-77323000D01*
X130045000Y-77323000D01*
X130045000Y-77343000D01*
X131019250Y-77343000D01*
X131178000Y-77184250D01*
X131179169Y-76960000D01*
X131257199Y-76960000D01*
X131454928Y-77157729D01*
X131454928Y-77251940D01*
X131064559Y-77642309D01*
X131019250Y-77597000D01*
X130045000Y-77597000D01*
X130045000Y-77617000D01*
X129791000Y-77617000D01*
X129791000Y-77597000D01*
X128816750Y-77597000D01*
X128658000Y-77755750D01*
X128654928Y-78345000D01*
X128667188Y-78469482D01*
X128703498Y-78589180D01*
X128762463Y-78699494D01*
X128841815Y-78796185D01*
X128938506Y-78875537D01*
X129048820Y-78934502D01*
X129091831Y-78947549D01*
X128920037Y-79088537D01*
X128721655Y-79330265D01*
X128574245Y-79606051D01*
X128483470Y-79905296D01*
X128460500Y-80138514D01*
X79400000Y-80138514D01*
X79400000Y-77543268D01*
X82747000Y-77543268D01*
X82747000Y-77904732D01*
X82817518Y-78259250D01*
X82955844Y-78593199D01*
X83156662Y-78893744D01*
X83412256Y-79149338D01*
X83712801Y-79350156D01*
X84046750Y-79488482D01*
X84401268Y-79559000D01*
X84762732Y-79559000D01*
X85117250Y-79488482D01*
X85451199Y-79350156D01*
X85739530Y-79157499D01*
X104250106Y-79157499D01*
X104466228Y-79524258D01*
X104926105Y-79764938D01*
X105424098Y-79911275D01*
X105941071Y-79957648D01*
X106457159Y-79902273D01*
X106952526Y-79747279D01*
X107369772Y-79524258D01*
X107585894Y-79157499D01*
X105918000Y-77489605D01*
X104250106Y-79157499D01*
X85739530Y-79157499D01*
X85751744Y-79149338D01*
X86007338Y-78893744D01*
X86208156Y-78593199D01*
X86346482Y-78259250D01*
X86417000Y-77904732D01*
X86417000Y-77543268D01*
X86375190Y-77333071D01*
X103270352Y-77333071D01*
X103325727Y-77849159D01*
X103480721Y-78344526D01*
X103703742Y-78761772D01*
X104070501Y-78977894D01*
X105738395Y-77310000D01*
X106097605Y-77310000D01*
X107765499Y-78977894D01*
X108132258Y-78761772D01*
X108372938Y-78301895D01*
X108519275Y-77803902D01*
X108565648Y-77286929D01*
X108510273Y-76770841D01*
X108355279Y-76275474D01*
X108132258Y-75858228D01*
X107765499Y-75642106D01*
X106097605Y-77310000D01*
X105738395Y-77310000D01*
X104070501Y-75642106D01*
X103703742Y-75858228D01*
X103463062Y-76318105D01*
X103316725Y-76816098D01*
X103270352Y-77333071D01*
X86375190Y-77333071D01*
X86346482Y-77188750D01*
X86208156Y-76854801D01*
X86007338Y-76554256D01*
X85751744Y-76298662D01*
X85451199Y-76097844D01*
X85117250Y-75959518D01*
X84762732Y-75889000D01*
X84401268Y-75889000D01*
X84046750Y-75959518D01*
X83712801Y-76097844D01*
X83412256Y-76298662D01*
X83156662Y-76554256D01*
X82955844Y-76854801D01*
X82817518Y-77188750D01*
X82747000Y-77543268D01*
X79400000Y-77543268D01*
X79400000Y-75462501D01*
X104250106Y-75462501D01*
X105918000Y-77130395D01*
X107585894Y-75462501D01*
X107369772Y-75095742D01*
X106909895Y-74855062D01*
X106411902Y-74708725D01*
X105894929Y-74662352D01*
X105378841Y-74717727D01*
X104883474Y-74872721D01*
X104466228Y-75095742D01*
X104250106Y-75462501D01*
X79400000Y-75462501D01*
X79400000Y-65310000D01*
X103279928Y-65310000D01*
X103279928Y-69310000D01*
X103292188Y-69434482D01*
X103328498Y-69554180D01*
X103387463Y-69664494D01*
X103466815Y-69761185D01*
X103563506Y-69840537D01*
X103673820Y-69899502D01*
X103793518Y-69935812D01*
X103918000Y-69948072D01*
X107918000Y-69948072D01*
X108042482Y-69935812D01*
X108162180Y-69899502D01*
X108272494Y-69840537D01*
X108369185Y-69761185D01*
X108448537Y-69664494D01*
X108507502Y-69554180D01*
X108543812Y-69434482D01*
X108556072Y-69310000D01*
X108556072Y-67025419D01*
X148179000Y-67025419D01*
X148179000Y-67406581D01*
X148253361Y-67780419D01*
X148399225Y-68132566D01*
X148610987Y-68449491D01*
X148880509Y-68719013D01*
X149197434Y-68930775D01*
X149549581Y-69076639D01*
X149923419Y-69151000D01*
X150304581Y-69151000D01*
X150678419Y-69076639D01*
X151030566Y-68930775D01*
X151347491Y-68719013D01*
X151617013Y-68449491D01*
X151828775Y-68132566D01*
X151974639Y-67780419D01*
X152049000Y-67406581D01*
X152049000Y-67025419D01*
X151974639Y-66651581D01*
X151828775Y-66299434D01*
X151617013Y-65982509D01*
X151347491Y-65712987D01*
X151030566Y-65501225D01*
X150678419Y-65355361D01*
X150304581Y-65281000D01*
X149923419Y-65281000D01*
X149549581Y-65355361D01*
X149197434Y-65501225D01*
X148880509Y-65712987D01*
X148610987Y-65982509D01*
X148399225Y-66299434D01*
X148253361Y-66651581D01*
X148179000Y-67025419D01*
X108556072Y-67025419D01*
X108556072Y-65310000D01*
X108543812Y-65185518D01*
X108507502Y-65065820D01*
X108448537Y-64955506D01*
X108369185Y-64858815D01*
X108272494Y-64779463D01*
X108162180Y-64720498D01*
X108042482Y-64684188D01*
X107918000Y-64671928D01*
X103918000Y-64671928D01*
X103793518Y-64684188D01*
X103673820Y-64720498D01*
X103563506Y-64779463D01*
X103466815Y-64858815D01*
X103387463Y-64955506D01*
X103328498Y-65065820D01*
X103292188Y-65185518D01*
X103279928Y-65310000D01*
X79400000Y-65310000D01*
X79400000Y-62895806D01*
X82793801Y-62895806D01*
X82908500Y-63236754D01*
X83087511Y-63548774D01*
X83323954Y-63819875D01*
X83608743Y-64039639D01*
X83930934Y-64199621D01*
X84170195Y-64272195D01*
X84455000Y-64155432D01*
X84455000Y-62611000D01*
X84709000Y-62611000D01*
X84709000Y-64155432D01*
X84993805Y-64272195D01*
X85233066Y-64199621D01*
X85555257Y-64039639D01*
X85840046Y-63819875D01*
X86076489Y-63548774D01*
X86255500Y-63236754D01*
X86370199Y-62895806D01*
X86253854Y-62611000D01*
X84709000Y-62611000D01*
X84455000Y-62611000D01*
X82910146Y-62611000D01*
X82793801Y-62895806D01*
X79400000Y-62895806D01*
X79400000Y-62072194D01*
X82793801Y-62072194D01*
X82910146Y-62357000D01*
X84455000Y-62357000D01*
X84455000Y-60812568D01*
X84709000Y-60812568D01*
X84709000Y-62357000D01*
X86253854Y-62357000D01*
X86370199Y-62072194D01*
X86255500Y-61731246D01*
X86076489Y-61419226D01*
X85840046Y-61148125D01*
X85555257Y-60928361D01*
X85233066Y-60768379D01*
X84993805Y-60695805D01*
X84709000Y-60812568D01*
X84455000Y-60812568D01*
X84170195Y-60695805D01*
X83930934Y-60768379D01*
X83608743Y-60928361D01*
X83323954Y-61148125D01*
X83087511Y-61419226D01*
X82908500Y-61731246D01*
X82793801Y-62072194D01*
X79400000Y-62072194D01*
X79400000Y-56167872D01*
X80061000Y-56167872D01*
X80061000Y-56608128D01*
X80146890Y-57039925D01*
X80315369Y-57446669D01*
X80559962Y-57812729D01*
X80871271Y-58124038D01*
X81237331Y-58368631D01*
X81644075Y-58537110D01*
X82075872Y-58623000D01*
X82516128Y-58623000D01*
X82947925Y-58537110D01*
X83354669Y-58368631D01*
X83720729Y-58124038D01*
X84032038Y-57812729D01*
X84276631Y-57446669D01*
X84445110Y-57039925D01*
X84531000Y-56608128D01*
X84531000Y-56167872D01*
X149403000Y-56167872D01*
X149403000Y-56608128D01*
X149488890Y-57039925D01*
X149657369Y-57446669D01*
X149901962Y-57812729D01*
X150213271Y-58124038D01*
X150579331Y-58368631D01*
X150986075Y-58537110D01*
X151417872Y-58623000D01*
X151858128Y-58623000D01*
X152289925Y-58537110D01*
X152696669Y-58368631D01*
X153062729Y-58124038D01*
X153374038Y-57812729D01*
X153618631Y-57446669D01*
X153787110Y-57039925D01*
X153873000Y-56608128D01*
X153873000Y-56167872D01*
X153787110Y-55736075D01*
X153618631Y-55329331D01*
X153374038Y-54963271D01*
X153062729Y-54651962D01*
X152696669Y-54407369D01*
X152289925Y-54238890D01*
X151858128Y-54153000D01*
X151417872Y-54153000D01*
X150986075Y-54238890D01*
X150579331Y-54407369D01*
X150213271Y-54651962D01*
X149901962Y-54963271D01*
X149657369Y-55329331D01*
X149488890Y-55736075D01*
X149403000Y-56167872D01*
X84531000Y-56167872D01*
X84445110Y-55736075D01*
X84276631Y-55329331D01*
X84032038Y-54963271D01*
X83720729Y-54651962D01*
X83354669Y-54407369D01*
X82947925Y-54238890D01*
X82516128Y-54153000D01*
X82075872Y-54153000D01*
X81644075Y-54238890D01*
X81237331Y-54407369D01*
X80871271Y-54651962D01*
X80559962Y-54963271D01*
X80315369Y-55329331D01*
X80146890Y-55736075D01*
X80061000Y-56167872D01*
X79400000Y-56167872D01*
X79400000Y-53492000D01*
X154534000Y-53492000D01*
X154534001Y-127102000D01*
G04 #@! TA.AperFunction,Conductor*
D28*
G36*
X154534001Y-127102000D02*
G01*
X79400000Y-127102000D01*
X79400000Y-123985872D01*
X80061000Y-123985872D01*
X80061000Y-124426128D01*
X80146890Y-124857925D01*
X80315369Y-125264669D01*
X80559962Y-125630729D01*
X80871271Y-125942038D01*
X81237331Y-126186631D01*
X81644075Y-126355110D01*
X82075872Y-126441000D01*
X82516128Y-126441000D01*
X82947925Y-126355110D01*
X83354669Y-126186631D01*
X83720729Y-125942038D01*
X84032038Y-125630729D01*
X84276631Y-125264669D01*
X84445110Y-124857925D01*
X84531000Y-124426128D01*
X84531000Y-123985872D01*
X149403000Y-123985872D01*
X149403000Y-124426128D01*
X149488890Y-124857925D01*
X149657369Y-125264669D01*
X149901962Y-125630729D01*
X150213271Y-125942038D01*
X150579331Y-126186631D01*
X150986075Y-126355110D01*
X151417872Y-126441000D01*
X151858128Y-126441000D01*
X152289925Y-126355110D01*
X152696669Y-126186631D01*
X153062729Y-125942038D01*
X153374038Y-125630729D01*
X153618631Y-125264669D01*
X153787110Y-124857925D01*
X153873000Y-124426128D01*
X153873000Y-123985872D01*
X153787110Y-123554075D01*
X153618631Y-123147331D01*
X153374038Y-122781271D01*
X153062729Y-122469962D01*
X152696669Y-122225369D01*
X152289925Y-122056890D01*
X151858128Y-121971000D01*
X151417872Y-121971000D01*
X150986075Y-122056890D01*
X150579331Y-122225369D01*
X150213271Y-122469962D01*
X149901962Y-122781271D01*
X149657369Y-123147331D01*
X149488890Y-123554075D01*
X149403000Y-123985872D01*
X84531000Y-123985872D01*
X84445110Y-123554075D01*
X84276631Y-123147331D01*
X84032038Y-122781271D01*
X83720729Y-122469962D01*
X83354669Y-122225369D01*
X82947925Y-122056890D01*
X82516128Y-121971000D01*
X82075872Y-121971000D01*
X81644075Y-122056890D01*
X81237331Y-122225369D01*
X80871271Y-122469962D01*
X80559962Y-122781271D01*
X80315369Y-123147331D01*
X80146890Y-123554075D01*
X80061000Y-123985872D01*
X79400000Y-123985872D01*
X79400000Y-119387980D01*
X83483626Y-119387980D01*
X83603514Y-119672836D01*
X83927210Y-119833699D01*
X84276069Y-119928322D01*
X84636684Y-119953067D01*
X84995198Y-119906985D01*
X85337833Y-119791846D01*
X85560486Y-119672836D01*
X85680374Y-119387980D01*
X84582000Y-118289605D01*
X83483626Y-119387980D01*
X79400000Y-119387980D01*
X79400000Y-118164684D01*
X82738933Y-118164684D01*
X82785015Y-118523198D01*
X82900154Y-118865833D01*
X83019164Y-119088486D01*
X83304020Y-119208374D01*
X84402395Y-118110000D01*
X84761605Y-118110000D01*
X85859980Y-119208374D01*
X86144836Y-119088486D01*
X86305699Y-118764790D01*
X86400322Y-118415931D01*
X86425067Y-118055316D01*
X86378985Y-117696802D01*
X86263846Y-117354167D01*
X86144836Y-117131514D01*
X85859980Y-117011626D01*
X84761605Y-118110000D01*
X84402395Y-118110000D01*
X83304020Y-117011626D01*
X83019164Y-117131514D01*
X82858301Y-117455210D01*
X82763678Y-117804069D01*
X82738933Y-118164684D01*
X79400000Y-118164684D01*
X79400000Y-116832020D01*
X83483626Y-116832020D01*
X84582000Y-117930395D01*
X85680374Y-116832020D01*
X85560486Y-116547164D01*
X85236790Y-116386301D01*
X84887931Y-116291678D01*
X84527316Y-116266933D01*
X84168802Y-116313015D01*
X83826167Y-116428154D01*
X83603514Y-116547164D01*
X83483626Y-116832020D01*
X79400000Y-116832020D01*
X79400000Y-113024475D01*
X103283000Y-113024475D01*
X103283000Y-113543525D01*
X103384261Y-114052601D01*
X103582893Y-114532141D01*
X103871262Y-114963715D01*
X104238285Y-115330738D01*
X104669859Y-115619107D01*
X105149399Y-115817739D01*
X105658475Y-115919000D01*
X106177525Y-115919000D01*
X106686601Y-115817739D01*
X107166141Y-115619107D01*
X107597715Y-115330738D01*
X107964738Y-114963715D01*
X108253107Y-114532141D01*
X108451739Y-114052601D01*
X108553000Y-113543525D01*
X108553000Y-113024475D01*
X108451739Y-112515399D01*
X108270563Y-112078000D01*
X148175928Y-112078000D01*
X148175928Y-114678000D01*
X148188188Y-114802482D01*
X148224498Y-114922180D01*
X148283463Y-115032494D01*
X148362815Y-115129185D01*
X148459506Y-115208537D01*
X148569820Y-115267502D01*
X148689518Y-115303812D01*
X148814000Y-115316072D01*
X151414000Y-115316072D01*
X151538482Y-115303812D01*
X151658180Y-115267502D01*
X151768494Y-115208537D01*
X151865185Y-115129185D01*
X151944537Y-115032494D01*
X152003502Y-114922180D01*
X152039812Y-114802482D01*
X152052072Y-114678000D01*
X152052072Y-112078000D01*
X152039812Y-111953518D01*
X152003502Y-111833820D01*
X151944537Y-111723506D01*
X151865185Y-111626815D01*
X151768494Y-111547463D01*
X151658180Y-111488498D01*
X151538482Y-111452188D01*
X151414000Y-111439928D01*
X148814000Y-111439928D01*
X148689518Y-111452188D01*
X148569820Y-111488498D01*
X148459506Y-111547463D01*
X148362815Y-111626815D01*
X148283463Y-111723506D01*
X148224498Y-111833820D01*
X148188188Y-111953518D01*
X148175928Y-112078000D01*
X108270563Y-112078000D01*
X108253107Y-112035859D01*
X107964738Y-111604285D01*
X107597715Y-111237262D01*
X107166141Y-110948893D01*
X106686601Y-110750261D01*
X106177525Y-110649000D01*
X105658475Y-110649000D01*
X105149399Y-110750261D01*
X104669859Y-110948893D01*
X104238285Y-111237262D01*
X103871262Y-111604285D01*
X103582893Y-112035859D01*
X103384261Y-112515399D01*
X103283000Y-113024475D01*
X79400000Y-113024475D01*
X79400000Y-105284000D01*
X103279928Y-105284000D01*
X103292188Y-105408482D01*
X103328498Y-105528180D01*
X103387463Y-105638494D01*
X103466815Y-105735185D01*
X103563506Y-105814537D01*
X103673820Y-105873502D01*
X103793518Y-105909812D01*
X103918000Y-105922072D01*
X105632250Y-105919000D01*
X105791000Y-105760250D01*
X105791000Y-103411000D01*
X106045000Y-103411000D01*
X106045000Y-105760250D01*
X106203750Y-105919000D01*
X107918000Y-105922072D01*
X108042482Y-105909812D01*
X108162180Y-105873502D01*
X108272494Y-105814537D01*
X108369185Y-105735185D01*
X108448537Y-105638494D01*
X108507502Y-105528180D01*
X108543812Y-105408482D01*
X108556072Y-105284000D01*
X108553000Y-103569750D01*
X108394250Y-103411000D01*
X106045000Y-103411000D01*
X105791000Y-103411000D01*
X103441750Y-103411000D01*
X103283000Y-103569750D01*
X103279928Y-105284000D01*
X79400000Y-105284000D01*
X79400000Y-102689268D01*
X82747000Y-102689268D01*
X82747000Y-103050732D01*
X82817518Y-103405250D01*
X82955844Y-103739199D01*
X83156662Y-104039744D01*
X83412256Y-104295338D01*
X83712801Y-104496156D01*
X84046750Y-104634482D01*
X84401268Y-104705000D01*
X84762732Y-104705000D01*
X85117250Y-104634482D01*
X85451199Y-104496156D01*
X85751744Y-104295338D01*
X86007338Y-104039744D01*
X86208156Y-103739199D01*
X86346482Y-103405250D01*
X86417000Y-103050732D01*
X86417000Y-102689268D01*
X86346482Y-102334750D01*
X86208156Y-102000801D01*
X86007338Y-101700256D01*
X85751744Y-101444662D01*
X85511297Y-101284000D01*
X103279928Y-101284000D01*
X103283000Y-102998250D01*
X103441750Y-103157000D01*
X105791000Y-103157000D01*
X105791000Y-100807750D01*
X106045000Y-100807750D01*
X106045000Y-103157000D01*
X108394250Y-103157000D01*
X108553000Y-102998250D01*
X108556072Y-101284000D01*
X108543812Y-101159518D01*
X108507502Y-101039820D01*
X108448537Y-100929506D01*
X108369185Y-100832815D01*
X108272494Y-100753463D01*
X108162180Y-100694498D01*
X108042482Y-100658188D01*
X107918000Y-100645928D01*
X106203750Y-100649000D01*
X106045000Y-100807750D01*
X105791000Y-100807750D01*
X105632250Y-100649000D01*
X103918000Y-100645928D01*
X103793518Y-100658188D01*
X103673820Y-100694498D01*
X103563506Y-100753463D01*
X103466815Y-100832815D01*
X103387463Y-100929506D01*
X103328498Y-101039820D01*
X103292188Y-101159518D01*
X103279928Y-101284000D01*
X85511297Y-101284000D01*
X85451199Y-101243844D01*
X85117250Y-101105518D01*
X84762732Y-101035000D01*
X84401268Y-101035000D01*
X84046750Y-101105518D01*
X83712801Y-101243844D01*
X83412256Y-101444662D01*
X83156662Y-101700256D01*
X82955844Y-102000801D01*
X82817518Y-102334750D01*
X82747000Y-102689268D01*
X79400000Y-102689268D01*
X79400000Y-97613419D01*
X81885000Y-97613419D01*
X81885000Y-97994581D01*
X81959361Y-98368419D01*
X82105225Y-98720566D01*
X82316987Y-99037491D01*
X82586509Y-99307013D01*
X82903434Y-99518775D01*
X83255581Y-99664639D01*
X83629419Y-99739000D01*
X84010581Y-99739000D01*
X84384419Y-99664639D01*
X84736566Y-99518775D01*
X85053491Y-99307013D01*
X85323013Y-99037491D01*
X85534775Y-98720566D01*
X85680639Y-98368419D01*
X85755000Y-97994581D01*
X85755000Y-97613419D01*
X85680639Y-97239581D01*
X85534775Y-96887434D01*
X85323013Y-96570509D01*
X85053491Y-96300987D01*
X84736566Y-96089225D01*
X84384419Y-95943361D01*
X84010581Y-95869000D01*
X83629419Y-95869000D01*
X83255581Y-95943361D01*
X82903434Y-96089225D01*
X82586509Y-96300987D01*
X82316987Y-96570509D01*
X82105225Y-96887434D01*
X81959361Y-97239581D01*
X81885000Y-97613419D01*
X79400000Y-97613419D01*
X79400000Y-94153224D01*
X82650381Y-94153224D01*
X82782317Y-94448312D01*
X83123045Y-94619159D01*
X83490557Y-94720250D01*
X83870729Y-94747701D01*
X84248951Y-94700457D01*
X84610690Y-94580333D01*
X84857683Y-94448312D01*
X84989619Y-94153224D01*
X83820000Y-92983605D01*
X82650381Y-94153224D01*
X79400000Y-94153224D01*
X79400000Y-92854729D01*
X81876299Y-92854729D01*
X81923543Y-93232951D01*
X82043667Y-93594690D01*
X82175688Y-93841683D01*
X82470776Y-93973619D01*
X83640395Y-92804000D01*
X83999605Y-92804000D01*
X85169224Y-93973619D01*
X85464312Y-93841683D01*
X85635159Y-93500955D01*
X85736250Y-93133443D01*
X85746038Y-92997881D01*
X118890724Y-92997881D01*
X119250912Y-93487548D01*
X119914882Y-93847849D01*
X120636385Y-94071694D01*
X121387695Y-94150480D01*
X122139938Y-94081178D01*
X122864208Y-93866452D01*
X123532670Y-93514555D01*
X123573088Y-93487548D01*
X123933276Y-92997881D01*
X121412000Y-90476605D01*
X118890724Y-92997881D01*
X85746038Y-92997881D01*
X85763701Y-92753271D01*
X85716457Y-92375049D01*
X85596333Y-92013310D01*
X85464312Y-91766317D01*
X85169224Y-91634381D01*
X83999605Y-92804000D01*
X83640395Y-92804000D01*
X82470776Y-91634381D01*
X82175688Y-91766317D01*
X82004841Y-92107045D01*
X81903750Y-92474557D01*
X81876299Y-92854729D01*
X79400000Y-92854729D01*
X79400000Y-91454776D01*
X82650381Y-91454776D01*
X83820000Y-92624395D01*
X84989619Y-91454776D01*
X84857683Y-91159688D01*
X84516955Y-90988841D01*
X84149443Y-90887750D01*
X83769271Y-90860299D01*
X83391049Y-90907543D01*
X83029310Y-91027667D01*
X82782317Y-91159688D01*
X82650381Y-91454776D01*
X79400000Y-91454776D01*
X79400000Y-90272695D01*
X117558520Y-90272695D01*
X117627822Y-91024938D01*
X117842548Y-91749208D01*
X118194445Y-92417670D01*
X118221452Y-92458088D01*
X118711119Y-92818276D01*
X121232395Y-90297000D01*
X121591605Y-90297000D01*
X124112881Y-92818276D01*
X124602548Y-92458088D01*
X124962849Y-91794118D01*
X125186694Y-91072615D01*
X125265480Y-90321305D01*
X125255042Y-90208000D01*
X128101928Y-90208000D01*
X128114188Y-90332482D01*
X128150498Y-90452180D01*
X128209463Y-90562494D01*
X128288815Y-90659185D01*
X128305393Y-90672790D01*
X128268320Y-90728273D01*
X128160147Y-90989426D01*
X128105000Y-91266665D01*
X128105000Y-91549335D01*
X128160147Y-91826574D01*
X128268320Y-92087727D01*
X128425363Y-92322759D01*
X128625241Y-92522637D01*
X128860273Y-92679680D01*
X129121426Y-92787853D01*
X129398665Y-92843000D01*
X129681335Y-92843000D01*
X129863886Y-92806688D01*
X130395325Y-93338127D01*
X130319614Y-93378595D01*
X130185038Y-93489038D01*
X130074595Y-93623614D01*
X129992528Y-93777150D01*
X129941992Y-93943746D01*
X129924928Y-94117000D01*
X129924928Y-95367000D01*
X129941992Y-95540254D01*
X129992528Y-95706850D01*
X130074595Y-95860386D01*
X130185038Y-95994962D01*
X130205799Y-96012000D01*
X130185038Y-96029038D01*
X130074595Y-96163614D01*
X129992528Y-96317150D01*
X129941992Y-96483746D01*
X129924928Y-96657000D01*
X129924928Y-97907000D01*
X129941992Y-98080254D01*
X129992528Y-98246850D01*
X130074595Y-98400386D01*
X130185038Y-98534962D01*
X130319614Y-98645405D01*
X130406652Y-98691928D01*
X129095500Y-98691928D01*
X128971018Y-98704188D01*
X128851320Y-98740498D01*
X128741006Y-98799463D01*
X128644315Y-98878815D01*
X128564963Y-98975506D01*
X128505998Y-99085820D01*
X128469688Y-99205518D01*
X128457428Y-99330000D01*
X128457428Y-101330000D01*
X128469688Y-101454482D01*
X128505998Y-101574180D01*
X128564963Y-101684494D01*
X128644315Y-101781185D01*
X128741006Y-101860537D01*
X128775298Y-101878867D01*
X128762463Y-101894506D01*
X128703498Y-102004820D01*
X128667188Y-102124518D01*
X128654928Y-102249000D01*
X128658000Y-102838250D01*
X128816750Y-102997000D01*
X129791000Y-102997000D01*
X129791000Y-102977000D01*
X130045000Y-102977000D01*
X130045000Y-102997000D01*
X130065000Y-102997000D01*
X130065000Y-103251000D01*
X130045000Y-103251000D01*
X130045000Y-103271000D01*
X129791000Y-103271000D01*
X129791000Y-103251000D01*
X128816750Y-103251000D01*
X128658000Y-103409750D01*
X128654928Y-103999000D01*
X128667188Y-104123482D01*
X128703498Y-104243180D01*
X128704724Y-104245473D01*
X128502002Y-104448195D01*
X128472998Y-104471998D01*
X128417870Y-104539173D01*
X128378025Y-104587723D01*
X128315339Y-104705000D01*
X128307453Y-104719753D01*
X128263996Y-104863014D01*
X128252999Y-104974667D01*
X128252999Y-104974677D01*
X128249323Y-105011999D01*
X128252999Y-105049322D01*
X128253000Y-108655667D01*
X128249323Y-108692999D01*
X128253000Y-108730332D01*
X128263701Y-108838974D01*
X128263997Y-108841984D01*
X128307453Y-108985245D01*
X128378025Y-109117275D01*
X128449200Y-109204001D01*
X128472999Y-109233000D01*
X128501997Y-109256798D01*
X128699928Y-109454729D01*
X128699928Y-110882000D01*
X128712188Y-111006482D01*
X128748498Y-111126180D01*
X128807463Y-111236494D01*
X128886815Y-111333185D01*
X128983506Y-111412537D01*
X129093820Y-111471502D01*
X129213518Y-111507812D01*
X129338000Y-111520072D01*
X131838000Y-111520072D01*
X131962482Y-111507812D01*
X132082180Y-111471502D01*
X132192494Y-111412537D01*
X132289185Y-111333185D01*
X132368537Y-111236494D01*
X132427502Y-111126180D01*
X132463812Y-111006482D01*
X132476072Y-110882000D01*
X132476072Y-109166873D01*
X132699928Y-109390729D01*
X132699928Y-110882000D01*
X132712188Y-111006482D01*
X132748498Y-111126180D01*
X132807463Y-111236494D01*
X132886815Y-111333185D01*
X132983506Y-111412537D01*
X133093820Y-111471502D01*
X133213518Y-111507812D01*
X133338000Y-111520072D01*
X135838000Y-111520072D01*
X135962482Y-111507812D01*
X136082180Y-111471502D01*
X136192494Y-111412537D01*
X136289185Y-111333185D01*
X136368537Y-111236494D01*
X136427502Y-111126180D01*
X136463812Y-111006482D01*
X136476072Y-110882000D01*
X136476072Y-109454730D01*
X136674004Y-109256798D01*
X136703002Y-109233000D01*
X136797975Y-109117275D01*
X136868547Y-108985246D01*
X136912004Y-108841985D01*
X136923001Y-108730332D01*
X136923001Y-108730324D01*
X136926677Y-108692999D01*
X136923001Y-108655674D01*
X136923001Y-108187419D01*
X148179000Y-108187419D01*
X148179000Y-108568581D01*
X148253361Y-108942419D01*
X148399225Y-109294566D01*
X148610987Y-109611491D01*
X148880509Y-109881013D01*
X149197434Y-110092775D01*
X149549581Y-110238639D01*
X149923419Y-110313000D01*
X150304581Y-110313000D01*
X150678419Y-110238639D01*
X151030566Y-110092775D01*
X151347491Y-109881013D01*
X151617013Y-109611491D01*
X151828775Y-109294566D01*
X151974639Y-108942419D01*
X152049000Y-108568581D01*
X152049000Y-108187419D01*
X151974639Y-107813581D01*
X151828775Y-107461434D01*
X151617013Y-107144509D01*
X151347491Y-106874987D01*
X151030566Y-106663225D01*
X150678419Y-106517361D01*
X150304581Y-106443000D01*
X149923419Y-106443000D01*
X149549581Y-106517361D01*
X149197434Y-106663225D01*
X148880509Y-106874987D01*
X148610987Y-107144509D01*
X148399225Y-107461434D01*
X148253361Y-107813581D01*
X148179000Y-108187419D01*
X136923001Y-108187419D01*
X136923001Y-104727224D01*
X148944381Y-104727224D01*
X149076317Y-105022312D01*
X149417045Y-105193159D01*
X149784557Y-105294250D01*
X150164729Y-105321701D01*
X150542951Y-105274457D01*
X150904690Y-105154333D01*
X151151683Y-105022312D01*
X151283619Y-104727224D01*
X150114000Y-103557605D01*
X148944381Y-104727224D01*
X136923001Y-104727224D01*
X136923001Y-104704323D01*
X136926677Y-104667000D01*
X136923001Y-104629677D01*
X136923001Y-104629668D01*
X136912004Y-104518015D01*
X136868547Y-104374754D01*
X136797975Y-104242725D01*
X136744591Y-104177676D01*
X136726800Y-104155997D01*
X136726796Y-104155993D01*
X136703002Y-104127000D01*
X136674010Y-104103207D01*
X135999531Y-103428729D01*
X148170299Y-103428729D01*
X148217543Y-103806951D01*
X148337667Y-104168690D01*
X148469688Y-104415683D01*
X148764776Y-104547619D01*
X149934395Y-103378000D01*
X150293605Y-103378000D01*
X151463224Y-104547619D01*
X151758312Y-104415683D01*
X151929159Y-104074955D01*
X152030250Y-103707443D01*
X152057701Y-103327271D01*
X152010457Y-102949049D01*
X151890333Y-102587310D01*
X151758312Y-102340317D01*
X151463224Y-102208381D01*
X150293605Y-103378000D01*
X149934395Y-103378000D01*
X148764776Y-102208381D01*
X148469688Y-102340317D01*
X148298841Y-102681045D01*
X148197750Y-103048557D01*
X148170299Y-103428729D01*
X135999531Y-103428729D01*
X135888000Y-103317199D01*
X135888000Y-102028776D01*
X148944381Y-102028776D01*
X150114000Y-103198395D01*
X151283619Y-102028776D01*
X151151683Y-101733688D01*
X150810955Y-101562841D01*
X150443443Y-101461750D01*
X150063271Y-101434299D01*
X149685049Y-101481543D01*
X149323310Y-101601667D01*
X149076317Y-101733688D01*
X148944381Y-102028776D01*
X135888000Y-102028776D01*
X135888000Y-101771319D01*
X136014235Y-101703845D01*
X136255963Y-101505463D01*
X136454345Y-101263734D01*
X136601755Y-100987948D01*
X136692530Y-100688703D01*
X136715500Y-100455485D01*
X136715500Y-100204514D01*
X136692530Y-99971296D01*
X136601755Y-99672051D01*
X136454345Y-99396265D01*
X136255963Y-99154537D01*
X136014234Y-98956155D01*
X135738448Y-98808745D01*
X135439203Y-98717970D01*
X135128000Y-98687319D01*
X134816796Y-98717970D01*
X134748000Y-98738839D01*
X134748000Y-98703339D01*
X134856386Y-98645405D01*
X134990962Y-98534962D01*
X135101405Y-98400386D01*
X135183472Y-98246850D01*
X135234008Y-98080254D01*
X135251072Y-97907000D01*
X135251072Y-96657000D01*
X135234008Y-96483746D01*
X135183472Y-96317150D01*
X135101405Y-96163614D01*
X135039628Y-96088338D01*
X135064185Y-96068185D01*
X135143537Y-95971494D01*
X135202502Y-95861180D01*
X135238812Y-95741482D01*
X135251072Y-95617000D01*
X135248000Y-95027750D01*
X135089250Y-94869000D01*
X134115000Y-94869000D01*
X134115000Y-94889000D01*
X133861000Y-94889000D01*
X133861000Y-94869000D01*
X132886750Y-94869000D01*
X132728000Y-95027750D01*
X132724928Y-95617000D01*
X132737188Y-95741482D01*
X132773498Y-95861180D01*
X132832463Y-95971494D01*
X132911815Y-96068185D01*
X132936372Y-96088338D01*
X132874595Y-96163614D01*
X132792528Y-96317150D01*
X132741992Y-96483746D01*
X132724928Y-96657000D01*
X132724928Y-97907000D01*
X132741992Y-98080254D01*
X132792528Y-98246850D01*
X132874595Y-98400386D01*
X132985038Y-98534962D01*
X133119614Y-98645405D01*
X133228001Y-98703339D01*
X133228001Y-98824541D01*
X133198448Y-98808745D01*
X132899203Y-98717970D01*
X132588000Y-98687319D01*
X132276796Y-98717970D01*
X131977551Y-98808745D01*
X131948000Y-98824540D01*
X131948000Y-98703339D01*
X132056386Y-98645405D01*
X132190962Y-98534962D01*
X132301405Y-98400386D01*
X132383472Y-98246850D01*
X132434008Y-98080254D01*
X132451072Y-97907000D01*
X132451072Y-96657000D01*
X132434008Y-96483746D01*
X132383472Y-96317150D01*
X132301405Y-96163614D01*
X132190962Y-96029038D01*
X132170201Y-96012000D01*
X132190962Y-95994962D01*
X132301405Y-95860386D01*
X132383472Y-95706850D01*
X132434008Y-95540254D01*
X132451072Y-95367000D01*
X132451072Y-94117000D01*
X132434008Y-93943746D01*
X132410728Y-93867000D01*
X132724928Y-93867000D01*
X132728000Y-94456250D01*
X132886750Y-94615000D01*
X133861000Y-94615000D01*
X133861000Y-93390750D01*
X134115000Y-93390750D01*
X134115000Y-94615000D01*
X135089250Y-94615000D01*
X135248000Y-94456250D01*
X135251072Y-93867000D01*
X135238812Y-93742518D01*
X135202502Y-93622820D01*
X135143537Y-93512506D01*
X135064185Y-93415815D01*
X134967494Y-93336463D01*
X134857180Y-93277498D01*
X134737482Y-93241188D01*
X134613000Y-93228928D01*
X134273750Y-93232000D01*
X134115000Y-93390750D01*
X133861000Y-93390750D01*
X133702250Y-93232000D01*
X133363000Y-93228928D01*
X133238518Y-93241188D01*
X133118820Y-93277498D01*
X133008506Y-93336463D01*
X132911815Y-93415815D01*
X132832463Y-93512506D01*
X132773498Y-93622820D01*
X132737188Y-93742518D01*
X132724928Y-93867000D01*
X132410728Y-93867000D01*
X132383472Y-93777150D01*
X132301405Y-93623614D01*
X132190962Y-93489038D01*
X132056386Y-93378595D01*
X131948000Y-93320661D01*
X131948000Y-93093323D01*
X131951676Y-93056000D01*
X131948000Y-93018677D01*
X131948000Y-93018667D01*
X131946359Y-93002000D01*
X142071928Y-93002000D01*
X142084188Y-93126482D01*
X142120498Y-93246180D01*
X142179463Y-93356494D01*
X142258815Y-93453185D01*
X142275393Y-93466790D01*
X142238320Y-93522273D01*
X142130147Y-93783426D01*
X142075000Y-94060665D01*
X142075000Y-94343335D01*
X142130147Y-94620574D01*
X142238320Y-94881727D01*
X142395363Y-95116759D01*
X142595241Y-95316637D01*
X142830273Y-95473680D01*
X143091426Y-95581853D01*
X143368665Y-95637000D01*
X143651335Y-95637000D01*
X143928574Y-95581853D01*
X144189727Y-95473680D01*
X144419725Y-95320000D01*
X148783928Y-95320000D01*
X148783928Y-97720000D01*
X148796188Y-97844482D01*
X148832498Y-97964180D01*
X148891463Y-98074494D01*
X148970815Y-98171185D01*
X149067506Y-98250537D01*
X149177820Y-98309502D01*
X149297518Y-98345812D01*
X149422000Y-98358072D01*
X151822000Y-98358072D01*
X151946482Y-98345812D01*
X152066180Y-98309502D01*
X152176494Y-98250537D01*
X152273185Y-98171185D01*
X152352537Y-98074494D01*
X152411502Y-97964180D01*
X152447812Y-97844482D01*
X152460072Y-97720000D01*
X152460072Y-95320000D01*
X152447812Y-95195518D01*
X152411502Y-95075820D01*
X152352537Y-94965506D01*
X152273185Y-94868815D01*
X152176494Y-94789463D01*
X152066180Y-94730498D01*
X151946482Y-94694188D01*
X151822000Y-94681928D01*
X151404838Y-94681928D01*
X151491199Y-94646156D01*
X151791744Y-94445338D01*
X152047338Y-94189744D01*
X152248156Y-93889199D01*
X152386482Y-93555250D01*
X152457000Y-93200732D01*
X152457000Y-92839268D01*
X152386482Y-92484750D01*
X152248156Y-92150801D01*
X152047338Y-91850256D01*
X151791744Y-91594662D01*
X151491199Y-91393844D01*
X151157250Y-91255518D01*
X150802732Y-91185000D01*
X150441268Y-91185000D01*
X150086750Y-91255518D01*
X149752801Y-91393844D01*
X149452256Y-91594662D01*
X149196662Y-91850256D01*
X148995844Y-92150801D01*
X148857518Y-92484750D01*
X148787000Y-92839268D01*
X148787000Y-93200732D01*
X148857518Y-93555250D01*
X148995844Y-93889199D01*
X149196662Y-94189744D01*
X149452256Y-94445338D01*
X149752801Y-94646156D01*
X149839162Y-94681928D01*
X149422000Y-94681928D01*
X149297518Y-94694188D01*
X149177820Y-94730498D01*
X149067506Y-94789463D01*
X148970815Y-94868815D01*
X148891463Y-94965506D01*
X148832498Y-95075820D01*
X148796188Y-95195518D01*
X148783928Y-95320000D01*
X144419725Y-95320000D01*
X144424759Y-95316637D01*
X144624637Y-95116759D01*
X144781680Y-94881727D01*
X144889853Y-94620574D01*
X144945000Y-94343335D01*
X144945000Y-94060665D01*
X144889853Y-93783426D01*
X144781680Y-93522273D01*
X144744607Y-93466790D01*
X144761185Y-93453185D01*
X144840537Y-93356494D01*
X144899502Y-93246180D01*
X144935812Y-93126482D01*
X144948072Y-93002000D01*
X144945000Y-92487750D01*
X144786250Y-92329000D01*
X143637000Y-92329000D01*
X143637000Y-92349000D01*
X143383000Y-92349000D01*
X143383000Y-92329000D01*
X142233750Y-92329000D01*
X142075000Y-92487750D01*
X142071928Y-93002000D01*
X131946359Y-93002000D01*
X131937003Y-92907014D01*
X131893546Y-92763753D01*
X131865671Y-92711603D01*
X131822974Y-92631723D01*
X131751799Y-92544997D01*
X131728001Y-92515999D01*
X131699003Y-92492201D01*
X131607504Y-92400702D01*
X134822903Y-92400702D01*
X134894486Y-92644671D01*
X135149996Y-92765571D01*
X135424184Y-92834300D01*
X135706512Y-92848217D01*
X135986130Y-92806787D01*
X136252292Y-92711603D01*
X136377514Y-92644671D01*
X136449097Y-92400702D01*
X135636000Y-91587605D01*
X134822903Y-92400702D01*
X131607504Y-92400702D01*
X130938688Y-91731886D01*
X130975000Y-91549335D01*
X130975000Y-91266665D01*
X130919853Y-90989426D01*
X130811680Y-90728273D01*
X130774607Y-90672790D01*
X130791185Y-90659185D01*
X130870537Y-90562494D01*
X130929502Y-90452180D01*
X130965812Y-90332482D01*
X130978072Y-90208000D01*
X130975000Y-89693750D01*
X130816250Y-89535000D01*
X129667000Y-89535000D01*
X129667000Y-89555000D01*
X129413000Y-89555000D01*
X129413000Y-89535000D01*
X128263750Y-89535000D01*
X128105000Y-89693750D01*
X128101928Y-90208000D01*
X125255042Y-90208000D01*
X125196178Y-89569062D01*
X124981452Y-88844792D01*
X124856799Y-88608000D01*
X128101928Y-88608000D01*
X128105000Y-89122250D01*
X128263750Y-89281000D01*
X129413000Y-89281000D01*
X129413000Y-88131750D01*
X129667000Y-88131750D01*
X129667000Y-89281000D01*
X130816250Y-89281000D01*
X130975000Y-89122250D01*
X130978072Y-88608000D01*
X130965812Y-88483518D01*
X130929502Y-88363820D01*
X130870537Y-88253506D01*
X130791185Y-88156815D01*
X130694494Y-88077463D01*
X130584180Y-88018498D01*
X130464482Y-87982188D01*
X130340000Y-87969928D01*
X129825750Y-87973000D01*
X129667000Y-88131750D01*
X129413000Y-88131750D01*
X129254250Y-87973000D01*
X128740000Y-87969928D01*
X128615518Y-87982188D01*
X128495820Y-88018498D01*
X128385506Y-88077463D01*
X128288815Y-88156815D01*
X128209463Y-88253506D01*
X128150498Y-88363820D01*
X128114188Y-88483518D01*
X128101928Y-88608000D01*
X124856799Y-88608000D01*
X124629555Y-88176330D01*
X124602548Y-88135912D01*
X124112881Y-87775724D01*
X121591605Y-90297000D01*
X121232395Y-90297000D01*
X118711119Y-87775724D01*
X118221452Y-88135912D01*
X117861151Y-88799882D01*
X117637306Y-89521385D01*
X117558520Y-90272695D01*
X79400000Y-90272695D01*
X79400000Y-89153224D01*
X82650381Y-89153224D01*
X82782317Y-89448312D01*
X83123045Y-89619159D01*
X83490557Y-89720250D01*
X83870729Y-89747701D01*
X84248951Y-89700457D01*
X84610690Y-89580333D01*
X84857683Y-89448312D01*
X84989619Y-89153224D01*
X83820000Y-87983605D01*
X82650381Y-89153224D01*
X79400000Y-89153224D01*
X79400000Y-87854729D01*
X81876299Y-87854729D01*
X81923543Y-88232951D01*
X82043667Y-88594690D01*
X82175688Y-88841683D01*
X82470776Y-88973619D01*
X83640395Y-87804000D01*
X83999605Y-87804000D01*
X85169224Y-88973619D01*
X85464312Y-88841683D01*
X85635159Y-88500955D01*
X85736250Y-88133443D01*
X85763701Y-87753271D01*
X85744072Y-87596119D01*
X118890724Y-87596119D01*
X121412000Y-90117395D01*
X123933276Y-87596119D01*
X123573088Y-87106452D01*
X122909118Y-86746151D01*
X122847391Y-86727000D01*
X129924928Y-86727000D01*
X129937188Y-86851482D01*
X129973498Y-86971180D01*
X130032463Y-87081494D01*
X130111815Y-87178185D01*
X130208506Y-87257537D01*
X130318820Y-87316502D01*
X130438518Y-87352812D01*
X130563000Y-87365072D01*
X130902250Y-87362000D01*
X131061000Y-87203250D01*
X131061000Y-85979000D01*
X131315000Y-85979000D01*
X131315000Y-87203250D01*
X131473750Y-87362000D01*
X131813000Y-87365072D01*
X131937482Y-87352812D01*
X132057180Y-87316502D01*
X132167494Y-87257537D01*
X132264185Y-87178185D01*
X132343537Y-87081494D01*
X132402502Y-86971180D01*
X132438812Y-86851482D01*
X132451072Y-86727000D01*
X132448000Y-86137750D01*
X132289250Y-85979000D01*
X131315000Y-85979000D01*
X131061000Y-85979000D01*
X130086750Y-85979000D01*
X129928000Y-86137750D01*
X129924928Y-86727000D01*
X122847391Y-86727000D01*
X122187615Y-86522306D01*
X121436305Y-86443520D01*
X120684062Y-86512822D01*
X119959792Y-86727548D01*
X119291330Y-87079445D01*
X119250912Y-87106452D01*
X118890724Y-87596119D01*
X85744072Y-87596119D01*
X85716457Y-87375049D01*
X85596333Y-87013310D01*
X85464312Y-86766317D01*
X85169224Y-86634381D01*
X83999605Y-87804000D01*
X83640395Y-87804000D01*
X82470776Y-86634381D01*
X82175688Y-86766317D01*
X82004841Y-87107045D01*
X81903750Y-87474557D01*
X81876299Y-87854729D01*
X79400000Y-87854729D01*
X79400000Y-86454776D01*
X82650381Y-86454776D01*
X83820000Y-87624395D01*
X84989619Y-86454776D01*
X84857683Y-86159688D01*
X84516955Y-85988841D01*
X84149443Y-85887750D01*
X83769271Y-85860299D01*
X83391049Y-85907543D01*
X83029310Y-86027667D01*
X82782317Y-86159688D01*
X82650381Y-86454776D01*
X79400000Y-86454776D01*
X79400000Y-81504000D01*
X81881928Y-81504000D01*
X81881928Y-84104000D01*
X81894188Y-84228482D01*
X81930498Y-84348180D01*
X81989463Y-84458494D01*
X82068815Y-84555185D01*
X82165506Y-84634537D01*
X82275820Y-84693502D01*
X82395518Y-84729812D01*
X82520000Y-84742072D01*
X85120000Y-84742072D01*
X85244482Y-84729812D01*
X85364180Y-84693502D01*
X85474494Y-84634537D01*
X85571185Y-84555185D01*
X85650537Y-84458494D01*
X85709502Y-84348180D01*
X85745812Y-84228482D01*
X85758072Y-84104000D01*
X85758072Y-81504000D01*
X85745812Y-81379518D01*
X85709502Y-81259820D01*
X85650537Y-81149506D01*
X85571185Y-81052815D01*
X85474494Y-80973463D01*
X85364180Y-80914498D01*
X85244482Y-80878188D01*
X85120000Y-80865928D01*
X82520000Y-80865928D01*
X82395518Y-80878188D01*
X82275820Y-80914498D01*
X82165506Y-80973463D01*
X82068815Y-81052815D01*
X81989463Y-81149506D01*
X81930498Y-81259820D01*
X81894188Y-81379518D01*
X81881928Y-81504000D01*
X79400000Y-81504000D01*
X79400000Y-80138514D01*
X128460500Y-80138514D01*
X128460500Y-80389485D01*
X128483470Y-80622703D01*
X128574245Y-80921948D01*
X128721655Y-81197734D01*
X128920037Y-81439463D01*
X129161765Y-81637845D01*
X129437551Y-81785255D01*
X129736796Y-81876030D01*
X130048000Y-81906681D01*
X130359203Y-81876030D01*
X130658448Y-81785255D01*
X130934234Y-81637845D01*
X131175963Y-81439463D01*
X131318000Y-81266391D01*
X131460037Y-81439463D01*
X131680668Y-81620531D01*
X131502270Y-81798928D01*
X130813000Y-81798928D01*
X130639746Y-81815992D01*
X130473150Y-81866528D01*
X130319614Y-81948595D01*
X130185038Y-82059038D01*
X130074595Y-82193614D01*
X129992528Y-82347150D01*
X129941992Y-82513746D01*
X129924928Y-82687000D01*
X129924928Y-83937000D01*
X129941992Y-84110254D01*
X129992528Y-84276850D01*
X130074595Y-84430386D01*
X130136372Y-84505662D01*
X130111815Y-84525815D01*
X130032463Y-84622506D01*
X129973498Y-84732820D01*
X129937188Y-84852518D01*
X129924928Y-84977000D01*
X129928000Y-85566250D01*
X130086750Y-85725000D01*
X131061000Y-85725000D01*
X131061000Y-85705000D01*
X131315000Y-85705000D01*
X131315000Y-85725000D01*
X132289250Y-85725000D01*
X132448000Y-85566250D01*
X132451072Y-84977000D01*
X132438812Y-84852518D01*
X132402502Y-84732820D01*
X132343537Y-84622506D01*
X132264185Y-84525815D01*
X132239628Y-84505662D01*
X132301405Y-84430386D01*
X132383472Y-84276850D01*
X132434008Y-84110254D01*
X132451072Y-83937000D01*
X132451072Y-82999730D01*
X132724928Y-82725874D01*
X132724928Y-83937000D01*
X132741992Y-84110254D01*
X132792528Y-84276850D01*
X132874595Y-84430386D01*
X132985038Y-84564962D01*
X133005799Y-84582000D01*
X132985038Y-84599038D01*
X132874595Y-84733614D01*
X132792528Y-84887150D01*
X132741992Y-85053746D01*
X132724928Y-85227000D01*
X132724928Y-86477000D01*
X132741992Y-86650254D01*
X132792528Y-86816850D01*
X132874595Y-86970386D01*
X132985038Y-87104962D01*
X133119614Y-87215405D01*
X133228001Y-87273339D01*
X133228001Y-87722668D01*
X133224324Y-87760000D01*
X133228001Y-87797333D01*
X133237818Y-87897000D01*
X133238998Y-87908985D01*
X133282454Y-88052246D01*
X133353026Y-88184276D01*
X133418348Y-88263870D01*
X133448000Y-88300001D01*
X133476998Y-88323799D01*
X134197928Y-89044729D01*
X134197928Y-90208000D01*
X134210188Y-90332482D01*
X134246498Y-90452180D01*
X134305463Y-90562494D01*
X134384815Y-90659185D01*
X134397758Y-90669807D01*
X134278429Y-90921996D01*
X134209700Y-91196184D01*
X134195783Y-91478512D01*
X134237213Y-91758130D01*
X134332397Y-92024292D01*
X134399329Y-92149514D01*
X134643298Y-92221097D01*
X135456395Y-91408000D01*
X135442253Y-91393858D01*
X135621858Y-91214253D01*
X135636000Y-91228395D01*
X135650143Y-91214253D01*
X135829748Y-91393858D01*
X135815605Y-91408000D01*
X136628702Y-92221097D01*
X136872671Y-92149514D01*
X136993571Y-91894004D01*
X137062300Y-91619816D01*
X137073036Y-91402000D01*
X142071928Y-91402000D01*
X142075000Y-91916250D01*
X142233750Y-92075000D01*
X143383000Y-92075000D01*
X143383000Y-90925750D01*
X143637000Y-90925750D01*
X143637000Y-92075000D01*
X144786250Y-92075000D01*
X144945000Y-91916250D01*
X144948072Y-91402000D01*
X144935812Y-91277518D01*
X144899502Y-91157820D01*
X144840537Y-91047506D01*
X144761185Y-90950815D01*
X144664494Y-90871463D01*
X144554180Y-90812498D01*
X144434482Y-90776188D01*
X144310000Y-90763928D01*
X143795750Y-90767000D01*
X143637000Y-90925750D01*
X143383000Y-90925750D01*
X143224250Y-90767000D01*
X142710000Y-90763928D01*
X142585518Y-90776188D01*
X142465820Y-90812498D01*
X142355506Y-90871463D01*
X142258815Y-90950815D01*
X142179463Y-91047506D01*
X142120498Y-91157820D01*
X142084188Y-91277518D01*
X142071928Y-91402000D01*
X137073036Y-91402000D01*
X137076217Y-91337488D01*
X137034787Y-91057870D01*
X136939603Y-90791708D01*
X136874384Y-90669691D01*
X136887185Y-90659185D01*
X136966537Y-90562494D01*
X137025502Y-90452180D01*
X137061812Y-90332482D01*
X137074072Y-90208000D01*
X137074072Y-89606702D01*
X142696903Y-89606702D01*
X142768486Y-89850671D01*
X143023996Y-89971571D01*
X143298184Y-90040300D01*
X143580512Y-90054217D01*
X143860130Y-90012787D01*
X144126292Y-89917603D01*
X144251514Y-89850671D01*
X144323097Y-89606702D01*
X143510000Y-88793605D01*
X142696903Y-89606702D01*
X137074072Y-89606702D01*
X137074072Y-88684512D01*
X142069783Y-88684512D01*
X142111213Y-88964130D01*
X142206397Y-89230292D01*
X142273329Y-89355514D01*
X142517298Y-89427097D01*
X143330395Y-88614000D01*
X143316253Y-88599858D01*
X143495858Y-88420253D01*
X143510000Y-88434395D01*
X143524143Y-88420253D01*
X143703748Y-88599858D01*
X143689605Y-88614000D01*
X144502702Y-89427097D01*
X144746671Y-89355514D01*
X144867571Y-89100004D01*
X144936300Y-88825816D01*
X144950217Y-88543488D01*
X144908787Y-88263870D01*
X144813603Y-87997708D01*
X144748384Y-87875691D01*
X144761185Y-87865185D01*
X144840537Y-87768494D01*
X144899502Y-87658180D01*
X144935812Y-87538482D01*
X144948072Y-87414000D01*
X144948072Y-86430000D01*
X148783928Y-86430000D01*
X148783928Y-88830000D01*
X148796188Y-88954482D01*
X148832498Y-89074180D01*
X148891463Y-89184494D01*
X148970815Y-89281185D01*
X149067506Y-89360537D01*
X149177820Y-89419502D01*
X149297518Y-89455812D01*
X149422000Y-89468072D01*
X151822000Y-89468072D01*
X151946482Y-89455812D01*
X152066180Y-89419502D01*
X152176494Y-89360537D01*
X152273185Y-89281185D01*
X152352537Y-89184494D01*
X152411502Y-89074180D01*
X152447812Y-88954482D01*
X152460072Y-88830000D01*
X152460072Y-86430000D01*
X152447812Y-86305518D01*
X152411502Y-86185820D01*
X152352537Y-86075506D01*
X152273185Y-85978815D01*
X152176494Y-85899463D01*
X152066180Y-85840498D01*
X151946482Y-85804188D01*
X151822000Y-85791928D01*
X151404838Y-85791928D01*
X151491199Y-85756156D01*
X151791744Y-85555338D01*
X152047338Y-85299744D01*
X152248156Y-84999199D01*
X152386482Y-84665250D01*
X152457000Y-84310732D01*
X152457000Y-83949268D01*
X152386482Y-83594750D01*
X152248156Y-83260801D01*
X152047338Y-82960256D01*
X151791744Y-82704662D01*
X151491199Y-82503844D01*
X151157250Y-82365518D01*
X150802732Y-82295000D01*
X150441268Y-82295000D01*
X150086750Y-82365518D01*
X149752801Y-82503844D01*
X149452256Y-82704662D01*
X149196662Y-82960256D01*
X148995844Y-83260801D01*
X148857518Y-83594750D01*
X148787000Y-83949268D01*
X148787000Y-84310732D01*
X148857518Y-84665250D01*
X148995844Y-84999199D01*
X149196662Y-85299744D01*
X149452256Y-85555338D01*
X149752801Y-85756156D01*
X149839162Y-85791928D01*
X149422000Y-85791928D01*
X149297518Y-85804188D01*
X149177820Y-85840498D01*
X149067506Y-85899463D01*
X148970815Y-85978815D01*
X148891463Y-86075506D01*
X148832498Y-86185820D01*
X148796188Y-86305518D01*
X148783928Y-86430000D01*
X144948072Y-86430000D01*
X144948072Y-85814000D01*
X144935812Y-85689518D01*
X144899502Y-85569820D01*
X144840537Y-85459506D01*
X144761185Y-85362815D01*
X144664494Y-85283463D01*
X144554180Y-85224498D01*
X144434482Y-85188188D01*
X144310000Y-85175928D01*
X142710000Y-85175928D01*
X142585518Y-85188188D01*
X142465820Y-85224498D01*
X142355506Y-85283463D01*
X142258815Y-85362815D01*
X142179463Y-85459506D01*
X142120498Y-85569820D01*
X142084188Y-85689518D01*
X142071928Y-85814000D01*
X142071928Y-87414000D01*
X142084188Y-87538482D01*
X142120498Y-87658180D01*
X142179463Y-87768494D01*
X142258815Y-87865185D01*
X142271758Y-87875807D01*
X142152429Y-88127996D01*
X142083700Y-88402184D01*
X142069783Y-88684512D01*
X137074072Y-88684512D01*
X137074072Y-88608000D01*
X137061812Y-88483518D01*
X137025502Y-88363820D01*
X136966537Y-88253506D01*
X136887185Y-88156815D01*
X136790494Y-88077463D01*
X136680180Y-88018498D01*
X136560482Y-87982188D01*
X136436000Y-87969928D01*
X135272729Y-87969928D01*
X134748000Y-87445199D01*
X134748000Y-87273339D01*
X134856386Y-87215405D01*
X134990962Y-87104962D01*
X135101405Y-86970386D01*
X135183472Y-86816850D01*
X135234008Y-86650254D01*
X135251072Y-86477000D01*
X135251072Y-85227000D01*
X135234008Y-85053746D01*
X135183472Y-84887150D01*
X135101405Y-84733614D01*
X134990962Y-84599038D01*
X134970201Y-84582000D01*
X134990962Y-84564962D01*
X135101405Y-84430386D01*
X135183472Y-84276850D01*
X135234008Y-84110254D01*
X135251072Y-83937000D01*
X135251072Y-82993730D01*
X135639009Y-82605794D01*
X135668001Y-82582001D01*
X135691795Y-82553008D01*
X135691799Y-82553004D01*
X135762973Y-82466277D01*
X135762974Y-82466276D01*
X135833546Y-82334247D01*
X135877003Y-82190986D01*
X135888000Y-82079333D01*
X135888000Y-82079324D01*
X135891676Y-82042001D01*
X135888000Y-82004678D01*
X135888000Y-81902072D01*
X136080500Y-81902072D01*
X136204982Y-81889812D01*
X136324680Y-81853502D01*
X136434994Y-81794537D01*
X136531685Y-81715185D01*
X136611037Y-81618494D01*
X136670002Y-81508180D01*
X136706312Y-81388482D01*
X136718572Y-81264000D01*
X136718572Y-79750028D01*
X136726796Y-79740007D01*
X136726800Y-79740003D01*
X136797974Y-79653276D01*
X136797975Y-79653275D01*
X136868547Y-79521246D01*
X136912004Y-79377985D01*
X136923001Y-79266332D01*
X136923001Y-79266323D01*
X136926677Y-79229000D01*
X136923001Y-79191677D01*
X136923001Y-78516000D01*
X148175928Y-78516000D01*
X148188188Y-78640482D01*
X148224498Y-78760180D01*
X148283463Y-78870494D01*
X148362815Y-78967185D01*
X148459506Y-79046537D01*
X148569820Y-79105502D01*
X148689518Y-79141812D01*
X148814000Y-79154072D01*
X149828250Y-79151000D01*
X149987000Y-78992250D01*
X149987000Y-77343000D01*
X150241000Y-77343000D01*
X150241000Y-78992250D01*
X150399750Y-79151000D01*
X151414000Y-79154072D01*
X151538482Y-79141812D01*
X151658180Y-79105502D01*
X151768494Y-79046537D01*
X151865185Y-78967185D01*
X151944537Y-78870494D01*
X152003502Y-78760180D01*
X152039812Y-78640482D01*
X152052072Y-78516000D01*
X152049000Y-77501750D01*
X151890250Y-77343000D01*
X150241000Y-77343000D01*
X149987000Y-77343000D01*
X148337750Y-77343000D01*
X148179000Y-77501750D01*
X148175928Y-78516000D01*
X136923001Y-78516000D01*
X136923001Y-75916000D01*
X148175928Y-75916000D01*
X148179000Y-76930250D01*
X148337750Y-77089000D01*
X149987000Y-77089000D01*
X149987000Y-75439750D01*
X150241000Y-75439750D01*
X150241000Y-77089000D01*
X151890250Y-77089000D01*
X152049000Y-76930250D01*
X152052072Y-75916000D01*
X152039812Y-75791518D01*
X152003502Y-75671820D01*
X151944537Y-75561506D01*
X151865185Y-75464815D01*
X151768494Y-75385463D01*
X151658180Y-75326498D01*
X151538482Y-75290188D01*
X151414000Y-75277928D01*
X150399750Y-75281000D01*
X150241000Y-75439750D01*
X149987000Y-75439750D01*
X149828250Y-75281000D01*
X148814000Y-75277928D01*
X148689518Y-75290188D01*
X148569820Y-75326498D01*
X148459506Y-75385463D01*
X148362815Y-75464815D01*
X148283463Y-75561506D01*
X148224498Y-75671820D01*
X148188188Y-75791518D01*
X148175928Y-75916000D01*
X136923001Y-75916000D01*
X136923001Y-72025419D01*
X148179000Y-72025419D01*
X148179000Y-72406581D01*
X148253361Y-72780419D01*
X148399225Y-73132566D01*
X148610987Y-73449491D01*
X148880509Y-73719013D01*
X149197434Y-73930775D01*
X149549581Y-74076639D01*
X149923419Y-74151000D01*
X150304581Y-74151000D01*
X150678419Y-74076639D01*
X151030566Y-73930775D01*
X151347491Y-73719013D01*
X151617013Y-73449491D01*
X151828775Y-73132566D01*
X151974639Y-72780419D01*
X152049000Y-72406581D01*
X152049000Y-72025419D01*
X151974639Y-71651581D01*
X151828775Y-71299434D01*
X151617013Y-70982509D01*
X151347491Y-70712987D01*
X151030566Y-70501225D01*
X150678419Y-70355361D01*
X150304581Y-70281000D01*
X149923419Y-70281000D01*
X149549581Y-70355361D01*
X149197434Y-70501225D01*
X148880509Y-70712987D01*
X148610987Y-70982509D01*
X148399225Y-71299434D01*
X148253361Y-71651581D01*
X148179000Y-72025419D01*
X136923001Y-72025419D01*
X136923001Y-71938326D01*
X136926677Y-71901001D01*
X136923001Y-71863676D01*
X136923001Y-71863668D01*
X136912004Y-71752015D01*
X136868547Y-71608754D01*
X136797975Y-71476725D01*
X136703002Y-71361000D01*
X136674005Y-71337203D01*
X136476072Y-71139270D01*
X136476072Y-69712000D01*
X136463812Y-69587518D01*
X136427502Y-69467820D01*
X136368537Y-69357506D01*
X136289185Y-69260815D01*
X136192494Y-69181463D01*
X136082180Y-69122498D01*
X135962482Y-69086188D01*
X135838000Y-69073928D01*
X133338000Y-69073928D01*
X133213518Y-69086188D01*
X133093820Y-69122498D01*
X132983506Y-69181463D01*
X132886815Y-69260815D01*
X132807463Y-69357506D01*
X132748498Y-69467820D01*
X132712188Y-69587518D01*
X132699928Y-69712000D01*
X132699928Y-71427126D01*
X132476072Y-71203270D01*
X132476072Y-69712000D01*
X132463812Y-69587518D01*
X132427502Y-69467820D01*
X132368537Y-69357506D01*
X132289185Y-69260815D01*
X132192494Y-69181463D01*
X132082180Y-69122498D01*
X131962482Y-69086188D01*
X131838000Y-69073928D01*
X129338000Y-69073928D01*
X129213518Y-69086188D01*
X129093820Y-69122498D01*
X128983506Y-69181463D01*
X128886815Y-69260815D01*
X128807463Y-69357506D01*
X128748498Y-69467820D01*
X128712188Y-69587518D01*
X128699928Y-69712000D01*
X128699928Y-71512000D01*
X128712188Y-71636482D01*
X128748498Y-71756180D01*
X128807463Y-71866494D01*
X128886815Y-71963185D01*
X128983506Y-72042537D01*
X129093820Y-72101502D01*
X129213518Y-72137812D01*
X129338000Y-72150072D01*
X131273270Y-72150072D01*
X131830564Y-72707366D01*
X131838997Y-72792986D01*
X131867464Y-72886830D01*
X131838000Y-72883928D01*
X129338000Y-72883928D01*
X129213518Y-72896188D01*
X129093820Y-72932498D01*
X128983506Y-72991463D01*
X128886815Y-73070815D01*
X128807463Y-73167506D01*
X128748498Y-73277820D01*
X128712188Y-73397518D01*
X128699928Y-73522000D01*
X128699928Y-75322000D01*
X128712188Y-75446482D01*
X128748498Y-75566180D01*
X128807463Y-75676494D01*
X128886815Y-75773185D01*
X128983506Y-75852537D01*
X129093820Y-75911502D01*
X129213518Y-75947812D01*
X129307401Y-75957058D01*
X129293000Y-75956928D01*
X129168518Y-75969188D01*
X129048820Y-76005498D01*
X128938506Y-76064463D01*
X128841815Y-76143815D01*
X128762463Y-76240506D01*
X128703498Y-76350820D01*
X128667188Y-76470518D01*
X128654928Y-76595000D01*
X128658000Y-77184250D01*
X128816750Y-77343000D01*
X129791000Y-77343000D01*
X129791000Y-77323000D01*
X130045000Y-77323000D01*
X130045000Y-77343000D01*
X131019250Y-77343000D01*
X131178000Y-77184250D01*
X131179169Y-76960000D01*
X131257199Y-76960000D01*
X131454928Y-77157729D01*
X131454928Y-77251940D01*
X131064559Y-77642309D01*
X131019250Y-77597000D01*
X130045000Y-77597000D01*
X130045000Y-77617000D01*
X129791000Y-77617000D01*
X129791000Y-77597000D01*
X128816750Y-77597000D01*
X128658000Y-77755750D01*
X128654928Y-78345000D01*
X128667188Y-78469482D01*
X128703498Y-78589180D01*
X128762463Y-78699494D01*
X128841815Y-78796185D01*
X128938506Y-78875537D01*
X129048820Y-78934502D01*
X129091831Y-78947549D01*
X128920037Y-79088537D01*
X128721655Y-79330265D01*
X128574245Y-79606051D01*
X128483470Y-79905296D01*
X128460500Y-80138514D01*
X79400000Y-80138514D01*
X79400000Y-77543268D01*
X82747000Y-77543268D01*
X82747000Y-77904732D01*
X82817518Y-78259250D01*
X82955844Y-78593199D01*
X83156662Y-78893744D01*
X83412256Y-79149338D01*
X83712801Y-79350156D01*
X84046750Y-79488482D01*
X84401268Y-79559000D01*
X84762732Y-79559000D01*
X85117250Y-79488482D01*
X85451199Y-79350156D01*
X85739530Y-79157499D01*
X104250106Y-79157499D01*
X104466228Y-79524258D01*
X104926105Y-79764938D01*
X105424098Y-79911275D01*
X105941071Y-79957648D01*
X106457159Y-79902273D01*
X106952526Y-79747279D01*
X107369772Y-79524258D01*
X107585894Y-79157499D01*
X105918000Y-77489605D01*
X104250106Y-79157499D01*
X85739530Y-79157499D01*
X85751744Y-79149338D01*
X86007338Y-78893744D01*
X86208156Y-78593199D01*
X86346482Y-78259250D01*
X86417000Y-77904732D01*
X86417000Y-77543268D01*
X86375190Y-77333071D01*
X103270352Y-77333071D01*
X103325727Y-77849159D01*
X103480721Y-78344526D01*
X103703742Y-78761772D01*
X104070501Y-78977894D01*
X105738395Y-77310000D01*
X106097605Y-77310000D01*
X107765499Y-78977894D01*
X108132258Y-78761772D01*
X108372938Y-78301895D01*
X108519275Y-77803902D01*
X108565648Y-77286929D01*
X108510273Y-76770841D01*
X108355279Y-76275474D01*
X108132258Y-75858228D01*
X107765499Y-75642106D01*
X106097605Y-77310000D01*
X105738395Y-77310000D01*
X104070501Y-75642106D01*
X103703742Y-75858228D01*
X103463062Y-76318105D01*
X103316725Y-76816098D01*
X103270352Y-77333071D01*
X86375190Y-77333071D01*
X86346482Y-77188750D01*
X86208156Y-76854801D01*
X86007338Y-76554256D01*
X85751744Y-76298662D01*
X85451199Y-76097844D01*
X85117250Y-75959518D01*
X84762732Y-75889000D01*
X84401268Y-75889000D01*
X84046750Y-75959518D01*
X83712801Y-76097844D01*
X83412256Y-76298662D01*
X83156662Y-76554256D01*
X82955844Y-76854801D01*
X82817518Y-77188750D01*
X82747000Y-77543268D01*
X79400000Y-77543268D01*
X79400000Y-75462501D01*
X104250106Y-75462501D01*
X105918000Y-77130395D01*
X107585894Y-75462501D01*
X107369772Y-75095742D01*
X106909895Y-74855062D01*
X106411902Y-74708725D01*
X105894929Y-74662352D01*
X105378841Y-74717727D01*
X104883474Y-74872721D01*
X104466228Y-75095742D01*
X104250106Y-75462501D01*
X79400000Y-75462501D01*
X79400000Y-65310000D01*
X103279928Y-65310000D01*
X103279928Y-69310000D01*
X103292188Y-69434482D01*
X103328498Y-69554180D01*
X103387463Y-69664494D01*
X103466815Y-69761185D01*
X103563506Y-69840537D01*
X103673820Y-69899502D01*
X103793518Y-69935812D01*
X103918000Y-69948072D01*
X107918000Y-69948072D01*
X108042482Y-69935812D01*
X108162180Y-69899502D01*
X108272494Y-69840537D01*
X108369185Y-69761185D01*
X108448537Y-69664494D01*
X108507502Y-69554180D01*
X108543812Y-69434482D01*
X108556072Y-69310000D01*
X108556072Y-67025419D01*
X148179000Y-67025419D01*
X148179000Y-67406581D01*
X148253361Y-67780419D01*
X148399225Y-68132566D01*
X148610987Y-68449491D01*
X148880509Y-68719013D01*
X149197434Y-68930775D01*
X149549581Y-69076639D01*
X149923419Y-69151000D01*
X150304581Y-69151000D01*
X150678419Y-69076639D01*
X151030566Y-68930775D01*
X151347491Y-68719013D01*
X151617013Y-68449491D01*
X151828775Y-68132566D01*
X151974639Y-67780419D01*
X152049000Y-67406581D01*
X152049000Y-67025419D01*
X151974639Y-66651581D01*
X151828775Y-66299434D01*
X151617013Y-65982509D01*
X151347491Y-65712987D01*
X151030566Y-65501225D01*
X150678419Y-65355361D01*
X150304581Y-65281000D01*
X149923419Y-65281000D01*
X149549581Y-65355361D01*
X149197434Y-65501225D01*
X148880509Y-65712987D01*
X148610987Y-65982509D01*
X148399225Y-66299434D01*
X148253361Y-66651581D01*
X148179000Y-67025419D01*
X108556072Y-67025419D01*
X108556072Y-65310000D01*
X108543812Y-65185518D01*
X108507502Y-65065820D01*
X108448537Y-64955506D01*
X108369185Y-64858815D01*
X108272494Y-64779463D01*
X108162180Y-64720498D01*
X108042482Y-64684188D01*
X107918000Y-64671928D01*
X103918000Y-64671928D01*
X103793518Y-64684188D01*
X103673820Y-64720498D01*
X103563506Y-64779463D01*
X103466815Y-64858815D01*
X103387463Y-64955506D01*
X103328498Y-65065820D01*
X103292188Y-65185518D01*
X103279928Y-65310000D01*
X79400000Y-65310000D01*
X79400000Y-62895806D01*
X82793801Y-62895806D01*
X82908500Y-63236754D01*
X83087511Y-63548774D01*
X83323954Y-63819875D01*
X83608743Y-64039639D01*
X83930934Y-64199621D01*
X84170195Y-64272195D01*
X84455000Y-64155432D01*
X84455000Y-62611000D01*
X84709000Y-62611000D01*
X84709000Y-64155432D01*
X84993805Y-64272195D01*
X85233066Y-64199621D01*
X85555257Y-64039639D01*
X85840046Y-63819875D01*
X86076489Y-63548774D01*
X86255500Y-63236754D01*
X86370199Y-62895806D01*
X86253854Y-62611000D01*
X84709000Y-62611000D01*
X84455000Y-62611000D01*
X82910146Y-62611000D01*
X82793801Y-62895806D01*
X79400000Y-62895806D01*
X79400000Y-62072194D01*
X82793801Y-62072194D01*
X82910146Y-62357000D01*
X84455000Y-62357000D01*
X84455000Y-60812568D01*
X84709000Y-60812568D01*
X84709000Y-62357000D01*
X86253854Y-62357000D01*
X86370199Y-62072194D01*
X86255500Y-61731246D01*
X86076489Y-61419226D01*
X85840046Y-61148125D01*
X85555257Y-60928361D01*
X85233066Y-60768379D01*
X84993805Y-60695805D01*
X84709000Y-60812568D01*
X84455000Y-60812568D01*
X84170195Y-60695805D01*
X83930934Y-60768379D01*
X83608743Y-60928361D01*
X83323954Y-61148125D01*
X83087511Y-61419226D01*
X82908500Y-61731246D01*
X82793801Y-62072194D01*
X79400000Y-62072194D01*
X79400000Y-56167872D01*
X80061000Y-56167872D01*
X80061000Y-56608128D01*
X80146890Y-57039925D01*
X80315369Y-57446669D01*
X80559962Y-57812729D01*
X80871271Y-58124038D01*
X81237331Y-58368631D01*
X81644075Y-58537110D01*
X82075872Y-58623000D01*
X82516128Y-58623000D01*
X82947925Y-58537110D01*
X83354669Y-58368631D01*
X83720729Y-58124038D01*
X84032038Y-57812729D01*
X84276631Y-57446669D01*
X84445110Y-57039925D01*
X84531000Y-56608128D01*
X84531000Y-56167872D01*
X149403000Y-56167872D01*
X149403000Y-56608128D01*
X149488890Y-57039925D01*
X149657369Y-57446669D01*
X149901962Y-57812729D01*
X150213271Y-58124038D01*
X150579331Y-58368631D01*
X150986075Y-58537110D01*
X151417872Y-58623000D01*
X151858128Y-58623000D01*
X152289925Y-58537110D01*
X152696669Y-58368631D01*
X153062729Y-58124038D01*
X153374038Y-57812729D01*
X153618631Y-57446669D01*
X153787110Y-57039925D01*
X153873000Y-56608128D01*
X153873000Y-56167872D01*
X153787110Y-55736075D01*
X153618631Y-55329331D01*
X153374038Y-54963271D01*
X153062729Y-54651962D01*
X152696669Y-54407369D01*
X152289925Y-54238890D01*
X151858128Y-54153000D01*
X151417872Y-54153000D01*
X150986075Y-54238890D01*
X150579331Y-54407369D01*
X150213271Y-54651962D01*
X149901962Y-54963271D01*
X149657369Y-55329331D01*
X149488890Y-55736075D01*
X149403000Y-56167872D01*
X84531000Y-56167872D01*
X84445110Y-55736075D01*
X84276631Y-55329331D01*
X84032038Y-54963271D01*
X83720729Y-54651962D01*
X83354669Y-54407369D01*
X82947925Y-54238890D01*
X82516128Y-54153000D01*
X82075872Y-54153000D01*
X81644075Y-54238890D01*
X81237331Y-54407369D01*
X80871271Y-54651962D01*
X80559962Y-54963271D01*
X80315369Y-55329331D01*
X80146890Y-55736075D01*
X80061000Y-56167872D01*
X79400000Y-56167872D01*
X79400000Y-53492000D01*
X154534000Y-53492000D01*
X154534001Y-127102000D01*
G37*
G04 #@! TD.AperFunction*
D27*
X125603000Y-94361000D02*
X117221000Y-94361000D01*
X117221000Y-86233000D01*
X125603000Y-86233000D01*
X125603000Y-94361000D01*
G04 #@! TA.AperFunction,Conductor*
D28*
G36*
X125603000Y-94361000D02*
G01*
X117221000Y-94361000D01*
X117221000Y-86233000D01*
X125603000Y-86233000D01*
X125603000Y-94361000D01*
G37*
G04 #@! TD.AperFunction*
M02*
