M48
; DRILL file {KiCad 5.1.9} date Mon Apr 19 04:00:49 2021
; FORMAT={-:-/ absolute / inch / decimal}
; #@! TF.CreationDate,2021-04-19T04:00:49-04:00
; #@! TF.GenerationSoftware,Kicad,Pcbnew,5.1.9
; #@! TF.FileFunction,Plated,1,2,PTH
FMAT,2
INCH
T1C0.0157
T2C0.0197
T3C0.0315
T4C0.0433
T5C0.0472
T6C0.0512
T7C0.0787
T8C0.1260
%
G90
G05
T1
X4.93Y-2.99
X4.93Y-3.02
X4.93Y-3.05
X4.93Y-4.06
X4.93Y-4.09
X4.93Y-4.12
X4.95Y-3.22
X4.95Y-3.82
X4.96Y-2.99
X4.96Y-3.02
X4.96Y-3.05
X4.96Y-4.06
X4.96Y-4.09
X4.96Y-4.12
X4.99Y-2.99
X4.99Y-3.02
X4.99Y-3.05
X4.99Y-3.22
X4.99Y-3.82
X4.99Y-4.06
X4.99Y-4.09
X4.99Y-4.12
X5.02Y-2.99
X5.02Y-3.02
X5.02Y-3.05
X5.02Y-4.06
X5.02Y-4.09
X5.02Y-4.12
X5.42Y-2.99
X5.42Y-3.02
X5.42Y-3.05
X5.42Y-4.06
X5.42Y-4.09
X5.42Y-4.12
X5.45Y-2.99
X5.45Y-3.02
X5.45Y-3.05
X5.45Y-4.06
X5.45Y-4.09
X5.45Y-4.12
X5.48Y-2.99
X5.48Y-3.02
X5.48Y-3.05
X5.48Y-4.06
X5.48Y-4.09
X5.48Y-4.12
X5.51Y-2.99
X5.51Y-3.02
X5.51Y-3.05
X5.51Y-4.06
X5.51Y-4.09
X5.51Y-4.12
T2
X4.6855Y-3.555
X4.7132Y-3.4882
X4.7132Y-3.6218
X4.78Y-3.4605
X4.78Y-3.6495
X4.8468Y-3.4882
X4.8468Y-3.6218
X4.8745Y-3.555
T3
X5.1Y-3.52
X5.1Y-3.5987
X5.34Y-3.52
X5.34Y-3.5987
X5.65Y-3.41
X5.65Y-3.4887
X5.65Y-3.63
X5.65Y-3.7087
T4
X5.12Y-3.16
X5.12Y-3.95
X5.22Y-3.16
X5.22Y-3.95
X5.32Y-3.16
X5.32Y-3.95
T5
X3.33Y-2.46
X3.33Y-3.06
X3.33Y-4.05
X3.33Y-4.65
X5.93Y-3.3122
X5.93Y-3.45
X5.93Y-3.6622
X5.93Y-3.8
T6
X3.3Y-3.26
X3.3Y-3.4569
X3.3Y-3.6537
X3.3Y-3.8506
X5.91Y-2.6463
X5.91Y-2.8431
X5.91Y-3.04
X5.91Y-4.07
X5.91Y-4.2669
X5.91Y-4.4637
T7
X4.17Y-2.65
X4.17Y-3.0437
X4.17Y-4.0663
X4.17Y-4.46
T8
X4.78Y-3.555
T0
M30
