G04 #@! TF.GenerationSoftware,KiCad,Pcbnew,5.1.9*
G04 #@! TF.CreationDate,2021-04-19T04:00:47-04:00*
G04 #@! TF.ProjectId,lm3886_psu,6c6d3338-3836-45f7-9073-752e6b696361,rev?*
G04 #@! TF.SameCoordinates,Original*
G04 #@! TF.FileFunction,Soldermask,Top*
G04 #@! TF.FilePolarity,Negative*
%FSLAX46Y46*%
G04 Gerber Fmt 4.6, Leading zero omitted, Abs format (unit mm)*
G04 Created by KiCad (PCBNEW 5.1.9) date 2021-04-19 04:00:47*
%MOMM*%
%LPD*%
G01*
G04 APERTURE LIST*
%ADD10C,0.800000*%
%ADD11C,6.400000*%
%ADD12C,1.600000*%
%ADD13R,1.600000X1.600000*%
%ADD14C,3.200000*%
%ADD15O,2.400000X2.400000*%
%ADD16C,2.400000*%
%ADD17O,1.905000X2.000000*%
%ADD18R,1.905000X2.000000*%
%ADD19R,2.400000X2.400000*%
%ADD20C,2.600000*%
%ADD21R,2.600000X2.600000*%
%ADD22C,4.000000*%
%ADD23R,4.000000X4.000000*%
G04 APERTURE END LIST*
D10*
X123109056Y-88599944D03*
X121412000Y-87897000D03*
X119714944Y-88599944D03*
X119012000Y-90297000D03*
X119714944Y-91994056D03*
X121412000Y-92697000D03*
X123109056Y-91994056D03*
X123812000Y-90297000D03*
D11*
X121412000Y-90297000D03*
D12*
X143510000Y-94202000D03*
D13*
X143510000Y-92202000D03*
D12*
X143510000Y-88614000D03*
D13*
X143510000Y-86614000D03*
D12*
X129540000Y-91408000D03*
D13*
X129540000Y-89408000D03*
D12*
X135636000Y-91408000D03*
D13*
X135636000Y-89408000D03*
D14*
X82296000Y-124206000D03*
X151638000Y-124206000D03*
X151638000Y-56388000D03*
X82296000Y-56388000D03*
D15*
X84582000Y-102870000D03*
D16*
X84582000Y-118110000D03*
D15*
X84582000Y-62484000D03*
D16*
X84582000Y-77724000D03*
D17*
X135128000Y-100330000D03*
X132588000Y-100330000D03*
D18*
X130048000Y-100330000D03*
D17*
X130048000Y-80264000D03*
X132588000Y-80264000D03*
D18*
X135128000Y-80264000D03*
D16*
X150622000Y-93020000D03*
D19*
X150622000Y-96520000D03*
D16*
X150622000Y-84130000D03*
D19*
X150622000Y-87630000D03*
D20*
X150114000Y-103378000D03*
X150114000Y-108378000D03*
D21*
X150114000Y-113378000D03*
D20*
X150114000Y-67216000D03*
X150114000Y-72216000D03*
D21*
X150114000Y-77216000D03*
D20*
X83820000Y-97804000D03*
X83820000Y-92804000D03*
X83820000Y-87804000D03*
D21*
X83820000Y-82804000D03*
D22*
X105918000Y-113284000D03*
D23*
X105918000Y-103284000D03*
D22*
X105918000Y-77310000D03*
D23*
X105918000Y-67310000D03*
M02*
