G04 #@! TF.GenerationSoftware,KiCad,Pcbnew,5.1.9*
G04 #@! TF.CreationDate,2021-04-19T04:00:47-04:00*
G04 #@! TF.ProjectId,lm3886_psu,6c6d3338-3836-45f7-9073-752e6b696361,rev?*
G04 #@! TF.SameCoordinates,Original*
G04 #@! TF.FileFunction,Copper,L1,Top*
G04 #@! TF.FilePolarity,Positive*
%FSLAX46Y46*%
G04 Gerber Fmt 4.6, Leading zero omitted, Abs format (unit mm)*
G04 Created by KiCad (PCBNEW 5.1.9) date 2021-04-19 04:00:47*
%MOMM*%
%LPD*%
G01*
G04 APERTURE LIST*
G04 #@! TA.AperFunction,ComponentPad*
%ADD10C,0.800000*%
G04 #@! TD*
G04 #@! TA.AperFunction,ComponentPad*
%ADD11C,6.400000*%
G04 #@! TD*
G04 #@! TA.AperFunction,ComponentPad*
%ADD12C,1.600000*%
G04 #@! TD*
G04 #@! TA.AperFunction,ComponentPad*
%ADD13R,1.600000X1.600000*%
G04 #@! TD*
G04 #@! TA.AperFunction,ComponentPad*
%ADD14O,2.400000X2.400000*%
G04 #@! TD*
G04 #@! TA.AperFunction,ComponentPad*
%ADD15C,2.400000*%
G04 #@! TD*
G04 #@! TA.AperFunction,ComponentPad*
%ADD16O,1.905000X2.000000*%
G04 #@! TD*
G04 #@! TA.AperFunction,ComponentPad*
%ADD17R,1.905000X2.000000*%
G04 #@! TD*
G04 #@! TA.AperFunction,ComponentPad*
%ADD18R,2.400000X2.400000*%
G04 #@! TD*
G04 #@! TA.AperFunction,ComponentPad*
%ADD19C,2.600000*%
G04 #@! TD*
G04 #@! TA.AperFunction,ComponentPad*
%ADD20R,2.600000X2.600000*%
G04 #@! TD*
G04 #@! TA.AperFunction,ComponentPad*
%ADD21C,4.000000*%
G04 #@! TD*
G04 #@! TA.AperFunction,ComponentPad*
%ADD22R,4.000000X4.000000*%
G04 #@! TD*
G04 #@! TA.AperFunction,ViaPad*
%ADD23C,0.800000*%
G04 #@! TD*
G04 #@! TA.AperFunction,Conductor*
%ADD24C,1.000000*%
G04 #@! TD*
G04 #@! TA.AperFunction,Conductor*
%ADD25C,0.254000*%
G04 #@! TD*
G04 #@! TA.AperFunction,Conductor*
%ADD26C,0.100000*%
G04 #@! TD*
G04 APERTURE END LIST*
D10*
X123109056Y-88599944D03*
X121412000Y-87897000D03*
X119714944Y-88599944D03*
X119012000Y-90297000D03*
X119714944Y-91994056D03*
X121412000Y-92697000D03*
X123109056Y-91994056D03*
X123812000Y-90297000D03*
D11*
X121412000Y-90297000D03*
D12*
X143510000Y-94202000D03*
D13*
X143510000Y-92202000D03*
D12*
X143510000Y-88614000D03*
D13*
X143510000Y-86614000D03*
D12*
X129540000Y-91408000D03*
D13*
X129540000Y-89408000D03*
D12*
X135636000Y-91408000D03*
D13*
X135636000Y-89408000D03*
D14*
X84582000Y-102870000D03*
D15*
X84582000Y-118110000D03*
D14*
X84582000Y-62484000D03*
D15*
X84582000Y-77724000D03*
D16*
X135128000Y-100330000D03*
X132588000Y-100330000D03*
D17*
X130048000Y-100330000D03*
D16*
X130048000Y-80264000D03*
X132588000Y-80264000D03*
D17*
X135128000Y-80264000D03*
D15*
X150622000Y-93020000D03*
D18*
X150622000Y-96520000D03*
D15*
X150622000Y-84130000D03*
D18*
X150622000Y-87630000D03*
D19*
X150114000Y-103378000D03*
X150114000Y-108378000D03*
D20*
X150114000Y-113378000D03*
D19*
X150114000Y-67216000D03*
X150114000Y-72216000D03*
D20*
X150114000Y-77216000D03*
D19*
X83820000Y-97804000D03*
X83820000Y-92804000D03*
X83820000Y-87804000D03*
D20*
X83820000Y-82804000D03*
D21*
X105918000Y-113284000D03*
D22*
X105918000Y-103284000D03*
D21*
X105918000Y-77310000D03*
D22*
X105918000Y-67310000D03*
D23*
X139954000Y-75946000D03*
X139954000Y-76708000D03*
X139954000Y-77470000D03*
X139192000Y-75946000D03*
X139192000Y-76708000D03*
X139192000Y-77470000D03*
X138430000Y-75946000D03*
X138430000Y-76708000D03*
X138430000Y-77470000D03*
X125984000Y-76708000D03*
X126746000Y-77470000D03*
X125984000Y-77470000D03*
X125984000Y-75946000D03*
X125222000Y-77470000D03*
X125222000Y-75946000D03*
X126746000Y-76708000D03*
X125222000Y-76708000D03*
X126746000Y-75946000D03*
X125984000Y-104648000D03*
X125222000Y-104648000D03*
X126746000Y-103886000D03*
X126746000Y-104648000D03*
X125984000Y-103886000D03*
X125222000Y-103886000D03*
X126746000Y-103124000D03*
X125984000Y-103124000D03*
X125222000Y-103124000D03*
X139954000Y-104648000D03*
X138430000Y-103124000D03*
X139192000Y-103886000D03*
X139954000Y-103886000D03*
X139192000Y-104648000D03*
X139954000Y-103124000D03*
X139192000Y-103124000D03*
X138430000Y-104648000D03*
X138430000Y-103886000D03*
X127508000Y-76708000D03*
X127508000Y-77470000D03*
X127508000Y-75946000D03*
X137668000Y-75946000D03*
X137668000Y-76708000D03*
X137668000Y-77470000D03*
X127508000Y-104648000D03*
X127508000Y-103886000D03*
X127508000Y-103124000D03*
X137668000Y-104648000D03*
X137668000Y-103886000D03*
X137668000Y-103124000D03*
X125730000Y-81788000D03*
X126746000Y-81788000D03*
X125730000Y-97028000D03*
X126746000Y-97028000D03*
D24*
X130048000Y-80264000D02*
X122428000Y-80264000D01*
X132588000Y-99657498D02*
X131482502Y-98552000D01*
X132588000Y-100330000D02*
X132588000Y-99657498D01*
X131482502Y-98552000D02*
X122428000Y-98552000D01*
X150622000Y-87630000D02*
X150622000Y-84130000D01*
X138265498Y-86614000D02*
X143510000Y-86614000D01*
X132588000Y-80936502D02*
X138265498Y-86614000D01*
X132588000Y-80264000D02*
X132588000Y-80936502D01*
X143510000Y-86614000D02*
X146050000Y-86614000D01*
X147066000Y-87630000D02*
X150622000Y-87630000D01*
X146050000Y-86614000D02*
X147066000Y-87630000D01*
X150622000Y-93020000D02*
X150622000Y-96520000D01*
X135128000Y-100330000D02*
X135128000Y-97282000D01*
X138208000Y-94202000D02*
X143510000Y-94202000D01*
X135128000Y-97282000D02*
X138208000Y-94202000D01*
X143510000Y-94202000D02*
X146082000Y-94202000D01*
X147264000Y-93020000D02*
X150622000Y-93020000D01*
X146082000Y-94202000D02*
X147264000Y-93020000D01*
D25*
X147259955Y-53517923D02*
X147336976Y-53577024D01*
X147396077Y-53654045D01*
X147433231Y-53743743D01*
X147447000Y-53848328D01*
X147447000Y-59952000D01*
X147448086Y-59968577D01*
X147465123Y-60097987D01*
X147473704Y-60130011D01*
X147523654Y-60250601D01*
X147540232Y-60279313D01*
X147619692Y-60382866D01*
X147643134Y-60406308D01*
X147746687Y-60485768D01*
X147775399Y-60502346D01*
X147895989Y-60552296D01*
X147928013Y-60560877D01*
X148057423Y-60577914D01*
X148074000Y-60579000D01*
X154177672Y-60579000D01*
X154282257Y-60592769D01*
X154371955Y-60629923D01*
X154448976Y-60689024D01*
X154508077Y-60766045D01*
X154534000Y-60828629D01*
X154534000Y-74299370D01*
X154508077Y-74361955D01*
X154448976Y-74438976D01*
X154371955Y-74498077D01*
X154282257Y-74535231D01*
X154177672Y-74549000D01*
X124198000Y-74549000D01*
X124181423Y-74550086D01*
X124052013Y-74567123D01*
X124019989Y-74575704D01*
X123899399Y-74625654D01*
X123870687Y-74642232D01*
X123767134Y-74721692D01*
X123743692Y-74745134D01*
X123664232Y-74848687D01*
X123647654Y-74877399D01*
X123597704Y-74997989D01*
X123589123Y-75030013D01*
X123572086Y-75159423D01*
X123571000Y-75176000D01*
X123571000Y-87127282D01*
X123228554Y-86898467D01*
X122530628Y-86609377D01*
X121789715Y-86462000D01*
X121034285Y-86462000D01*
X120293372Y-86609377D01*
X119595446Y-86898467D01*
X118967330Y-87318161D01*
X118433161Y-87852330D01*
X118013467Y-88480446D01*
X117724377Y-89178372D01*
X117653439Y-89535000D01*
X84697395Y-89535000D01*
X84736566Y-89518775D01*
X85053491Y-89307013D01*
X85323013Y-89037491D01*
X85534775Y-88720566D01*
X85680639Y-88368419D01*
X85755000Y-87994581D01*
X85755000Y-87613419D01*
X85680639Y-87239581D01*
X85534775Y-86887434D01*
X85323013Y-86570509D01*
X85053491Y-86300987D01*
X84736566Y-86089225D01*
X84384419Y-85943361D01*
X84010581Y-85869000D01*
X83629419Y-85869000D01*
X83255581Y-85943361D01*
X82903434Y-86089225D01*
X82586509Y-86300987D01*
X82316987Y-86570509D01*
X82105225Y-86887434D01*
X81959361Y-87239581D01*
X81885000Y-87613419D01*
X81885000Y-87994581D01*
X81959361Y-88368419D01*
X82105225Y-88720566D01*
X82316987Y-89037491D01*
X82586509Y-89307013D01*
X82903434Y-89518775D01*
X82942605Y-89535000D01*
X79756328Y-89535000D01*
X79651743Y-89521231D01*
X79562045Y-89484077D01*
X79485024Y-89424976D01*
X79425923Y-89347955D01*
X79400000Y-89285371D01*
X79400000Y-84104000D01*
X81881928Y-84104000D01*
X81894188Y-84228482D01*
X81930498Y-84348180D01*
X81989463Y-84458494D01*
X82068815Y-84555185D01*
X82165506Y-84634537D01*
X82275820Y-84693502D01*
X82395518Y-84729812D01*
X82520000Y-84742072D01*
X83534250Y-84739000D01*
X83693000Y-84580250D01*
X83693000Y-82931000D01*
X83947000Y-82931000D01*
X83947000Y-84580250D01*
X84105750Y-84739000D01*
X85120000Y-84742072D01*
X85244482Y-84729812D01*
X85364180Y-84693502D01*
X85474494Y-84634537D01*
X85571185Y-84555185D01*
X85650537Y-84458494D01*
X85709502Y-84348180D01*
X85745812Y-84228482D01*
X85758072Y-84104000D01*
X85755000Y-83089750D01*
X85596250Y-82931000D01*
X83947000Y-82931000D01*
X83693000Y-82931000D01*
X82043750Y-82931000D01*
X81885000Y-83089750D01*
X81881928Y-84104000D01*
X79400000Y-84104000D01*
X79400000Y-81504000D01*
X81881928Y-81504000D01*
X81885000Y-82518250D01*
X82043750Y-82677000D01*
X83693000Y-82677000D01*
X83693000Y-81027750D01*
X83947000Y-81027750D01*
X83947000Y-82677000D01*
X85596250Y-82677000D01*
X85755000Y-82518250D01*
X85758072Y-81504000D01*
X85745812Y-81379518D01*
X85709502Y-81259820D01*
X85650537Y-81149506D01*
X85571185Y-81052815D01*
X85474494Y-80973463D01*
X85364180Y-80914498D01*
X85244482Y-80878188D01*
X85120000Y-80865928D01*
X84105750Y-80869000D01*
X83947000Y-81027750D01*
X83693000Y-81027750D01*
X83534250Y-80869000D01*
X82520000Y-80865928D01*
X82395518Y-80878188D01*
X82275820Y-80914498D01*
X82165506Y-80973463D01*
X82068815Y-81052815D01*
X81989463Y-81149506D01*
X81930498Y-81259820D01*
X81894188Y-81379518D01*
X81881928Y-81504000D01*
X79400000Y-81504000D01*
X79400000Y-79001980D01*
X83483626Y-79001980D01*
X83603514Y-79286836D01*
X83927210Y-79447699D01*
X84276069Y-79542322D01*
X84636684Y-79567067D01*
X84995198Y-79520985D01*
X85337833Y-79405846D01*
X85560486Y-79286836D01*
X85680374Y-79001980D01*
X84582000Y-77903605D01*
X83483626Y-79001980D01*
X79400000Y-79001980D01*
X79400000Y-77778684D01*
X82738933Y-77778684D01*
X82785015Y-78137198D01*
X82900154Y-78479833D01*
X83019164Y-78702486D01*
X83304020Y-78822374D01*
X84402395Y-77724000D01*
X84761605Y-77724000D01*
X85859980Y-78822374D01*
X86144836Y-78702486D01*
X86305699Y-78378790D01*
X86400322Y-78029931D01*
X86425067Y-77669316D01*
X86378985Y-77310802D01*
X86291505Y-77050475D01*
X103283000Y-77050475D01*
X103283000Y-77569525D01*
X103384261Y-78078601D01*
X103582893Y-78558141D01*
X103871262Y-78989715D01*
X104238285Y-79356738D01*
X104669859Y-79645107D01*
X105149399Y-79843739D01*
X105658475Y-79945000D01*
X106177525Y-79945000D01*
X106686601Y-79843739D01*
X107166141Y-79645107D01*
X107597715Y-79356738D01*
X107964738Y-78989715D01*
X108253107Y-78558141D01*
X108451739Y-78078601D01*
X108553000Y-77569525D01*
X108553000Y-77050475D01*
X108451739Y-76541399D01*
X108253107Y-76061859D01*
X107964738Y-75630285D01*
X107597715Y-75263262D01*
X107166141Y-74974893D01*
X106686601Y-74776261D01*
X106177525Y-74675000D01*
X105658475Y-74675000D01*
X105149399Y-74776261D01*
X104669859Y-74974893D01*
X104238285Y-75263262D01*
X103871262Y-75630285D01*
X103582893Y-76061859D01*
X103384261Y-76541399D01*
X103283000Y-77050475D01*
X86291505Y-77050475D01*
X86263846Y-76968167D01*
X86144836Y-76745514D01*
X85859980Y-76625626D01*
X84761605Y-77724000D01*
X84402395Y-77724000D01*
X83304020Y-76625626D01*
X83019164Y-76745514D01*
X82858301Y-77069210D01*
X82763678Y-77418069D01*
X82738933Y-77778684D01*
X79400000Y-77778684D01*
X79400000Y-76446020D01*
X83483626Y-76446020D01*
X84582000Y-77544395D01*
X85680374Y-76446020D01*
X85560486Y-76161164D01*
X85236790Y-76000301D01*
X84887931Y-75905678D01*
X84527316Y-75880933D01*
X84168802Y-75927015D01*
X83826167Y-76042154D01*
X83603514Y-76161164D01*
X83483626Y-76446020D01*
X79400000Y-76446020D01*
X79400000Y-73565224D01*
X148944381Y-73565224D01*
X149076317Y-73860312D01*
X149417045Y-74031159D01*
X149784557Y-74132250D01*
X150164729Y-74159701D01*
X150542951Y-74112457D01*
X150904690Y-73992333D01*
X151151683Y-73860312D01*
X151283619Y-73565224D01*
X150114000Y-72395605D01*
X148944381Y-73565224D01*
X79400000Y-73565224D01*
X79400000Y-72266729D01*
X148170299Y-72266729D01*
X148217543Y-72644951D01*
X148337667Y-73006690D01*
X148469688Y-73253683D01*
X148764776Y-73385619D01*
X149934395Y-72216000D01*
X150293605Y-72216000D01*
X151463224Y-73385619D01*
X151758312Y-73253683D01*
X151929159Y-72912955D01*
X152030250Y-72545443D01*
X152057701Y-72165271D01*
X152010457Y-71787049D01*
X151890333Y-71425310D01*
X151758312Y-71178317D01*
X151463224Y-71046381D01*
X150293605Y-72216000D01*
X149934395Y-72216000D01*
X148764776Y-71046381D01*
X148469688Y-71178317D01*
X148298841Y-71519045D01*
X148197750Y-71886557D01*
X148170299Y-72266729D01*
X79400000Y-72266729D01*
X79400000Y-70866776D01*
X148944381Y-70866776D01*
X150114000Y-72036395D01*
X151283619Y-70866776D01*
X151151683Y-70571688D01*
X150810955Y-70400841D01*
X150443443Y-70299750D01*
X150063271Y-70272299D01*
X149685049Y-70319543D01*
X149323310Y-70439667D01*
X149076317Y-70571688D01*
X148944381Y-70866776D01*
X79400000Y-70866776D01*
X79400000Y-69310000D01*
X103279928Y-69310000D01*
X103292188Y-69434482D01*
X103328498Y-69554180D01*
X103387463Y-69664494D01*
X103466815Y-69761185D01*
X103563506Y-69840537D01*
X103673820Y-69899502D01*
X103793518Y-69935812D01*
X103918000Y-69948072D01*
X105632250Y-69945000D01*
X105791000Y-69786250D01*
X105791000Y-67437000D01*
X106045000Y-67437000D01*
X106045000Y-69786250D01*
X106203750Y-69945000D01*
X107918000Y-69948072D01*
X108042482Y-69935812D01*
X108162180Y-69899502D01*
X108272494Y-69840537D01*
X108369185Y-69761185D01*
X108448537Y-69664494D01*
X108507502Y-69554180D01*
X108543812Y-69434482D01*
X108556072Y-69310000D01*
X108554738Y-68565224D01*
X148944381Y-68565224D01*
X149076317Y-68860312D01*
X149417045Y-69031159D01*
X149784557Y-69132250D01*
X150164729Y-69159701D01*
X150542951Y-69112457D01*
X150904690Y-68992333D01*
X151151683Y-68860312D01*
X151283619Y-68565224D01*
X150114000Y-67395605D01*
X148944381Y-68565224D01*
X108554738Y-68565224D01*
X108553000Y-67595750D01*
X108394250Y-67437000D01*
X106045000Y-67437000D01*
X105791000Y-67437000D01*
X103441750Y-67437000D01*
X103283000Y-67595750D01*
X103279928Y-69310000D01*
X79400000Y-69310000D01*
X79400000Y-67266729D01*
X148170299Y-67266729D01*
X148217543Y-67644951D01*
X148337667Y-68006690D01*
X148469688Y-68253683D01*
X148764776Y-68385619D01*
X149934395Y-67216000D01*
X150293605Y-67216000D01*
X151463224Y-68385619D01*
X151758312Y-68253683D01*
X151929159Y-67912955D01*
X152030250Y-67545443D01*
X152057701Y-67165271D01*
X152010457Y-66787049D01*
X151890333Y-66425310D01*
X151758312Y-66178317D01*
X151463224Y-66046381D01*
X150293605Y-67216000D01*
X149934395Y-67216000D01*
X148764776Y-66046381D01*
X148469688Y-66178317D01*
X148298841Y-66519045D01*
X148197750Y-66886557D01*
X148170299Y-67266729D01*
X79400000Y-67266729D01*
X79400000Y-65310000D01*
X103279928Y-65310000D01*
X103283000Y-67024250D01*
X103441750Y-67183000D01*
X105791000Y-67183000D01*
X105791000Y-64833750D01*
X106045000Y-64833750D01*
X106045000Y-67183000D01*
X108394250Y-67183000D01*
X108553000Y-67024250D01*
X108555074Y-65866776D01*
X148944381Y-65866776D01*
X150114000Y-67036395D01*
X151283619Y-65866776D01*
X151151683Y-65571688D01*
X150810955Y-65400841D01*
X150443443Y-65299750D01*
X150063271Y-65272299D01*
X149685049Y-65319543D01*
X149323310Y-65439667D01*
X149076317Y-65571688D01*
X148944381Y-65866776D01*
X108555074Y-65866776D01*
X108556072Y-65310000D01*
X108543812Y-65185518D01*
X108507502Y-65065820D01*
X108448537Y-64955506D01*
X108369185Y-64858815D01*
X108272494Y-64779463D01*
X108162180Y-64720498D01*
X108042482Y-64684188D01*
X107918000Y-64671928D01*
X106203750Y-64675000D01*
X106045000Y-64833750D01*
X105791000Y-64833750D01*
X105632250Y-64675000D01*
X103918000Y-64671928D01*
X103793518Y-64684188D01*
X103673820Y-64720498D01*
X103563506Y-64779463D01*
X103466815Y-64858815D01*
X103387463Y-64955506D01*
X103328498Y-65065820D01*
X103292188Y-65185518D01*
X103279928Y-65310000D01*
X79400000Y-65310000D01*
X79400000Y-62303268D01*
X82747000Y-62303268D01*
X82747000Y-62664732D01*
X82817518Y-63019250D01*
X82955844Y-63353199D01*
X83156662Y-63653744D01*
X83412256Y-63909338D01*
X83712801Y-64110156D01*
X84046750Y-64248482D01*
X84401268Y-64319000D01*
X84762732Y-64319000D01*
X85117250Y-64248482D01*
X85451199Y-64110156D01*
X85751744Y-63909338D01*
X86007338Y-63653744D01*
X86208156Y-63353199D01*
X86346482Y-63019250D01*
X86417000Y-62664732D01*
X86417000Y-62303268D01*
X86346482Y-61948750D01*
X86208156Y-61614801D01*
X86007338Y-61314256D01*
X85751744Y-61058662D01*
X85451199Y-60857844D01*
X85117250Y-60719518D01*
X84762732Y-60649000D01*
X84401268Y-60649000D01*
X84046750Y-60719518D01*
X83712801Y-60857844D01*
X83412256Y-61058662D01*
X83156662Y-61314256D01*
X82955844Y-61614801D01*
X82817518Y-61948750D01*
X82747000Y-62303268D01*
X79400000Y-62303268D01*
X79400000Y-60828629D01*
X79425923Y-60766045D01*
X79485024Y-60689024D01*
X79562045Y-60629923D01*
X79651743Y-60592769D01*
X79756328Y-60579000D01*
X85860000Y-60579000D01*
X85876577Y-60577914D01*
X86005987Y-60560877D01*
X86038011Y-60552296D01*
X86158601Y-60502346D01*
X86187313Y-60485768D01*
X86290866Y-60406308D01*
X86314308Y-60382866D01*
X86393768Y-60279313D01*
X86410346Y-60250601D01*
X86460296Y-60130011D01*
X86468877Y-60097987D01*
X86485914Y-59968577D01*
X86487000Y-59952000D01*
X86487000Y-53848328D01*
X86500769Y-53743743D01*
X86537923Y-53654045D01*
X86597024Y-53577024D01*
X86674045Y-53517923D01*
X86736629Y-53492000D01*
X147197371Y-53492000D01*
X147259955Y-53517923D01*
G04 #@! TA.AperFunction,Conductor*
D26*
G36*
X147259955Y-53517923D02*
G01*
X147336976Y-53577024D01*
X147396077Y-53654045D01*
X147433231Y-53743743D01*
X147447000Y-53848328D01*
X147447000Y-59952000D01*
X147448086Y-59968577D01*
X147465123Y-60097987D01*
X147473704Y-60130011D01*
X147523654Y-60250601D01*
X147540232Y-60279313D01*
X147619692Y-60382866D01*
X147643134Y-60406308D01*
X147746687Y-60485768D01*
X147775399Y-60502346D01*
X147895989Y-60552296D01*
X147928013Y-60560877D01*
X148057423Y-60577914D01*
X148074000Y-60579000D01*
X154177672Y-60579000D01*
X154282257Y-60592769D01*
X154371955Y-60629923D01*
X154448976Y-60689024D01*
X154508077Y-60766045D01*
X154534000Y-60828629D01*
X154534000Y-74299370D01*
X154508077Y-74361955D01*
X154448976Y-74438976D01*
X154371955Y-74498077D01*
X154282257Y-74535231D01*
X154177672Y-74549000D01*
X124198000Y-74549000D01*
X124181423Y-74550086D01*
X124052013Y-74567123D01*
X124019989Y-74575704D01*
X123899399Y-74625654D01*
X123870687Y-74642232D01*
X123767134Y-74721692D01*
X123743692Y-74745134D01*
X123664232Y-74848687D01*
X123647654Y-74877399D01*
X123597704Y-74997989D01*
X123589123Y-75030013D01*
X123572086Y-75159423D01*
X123571000Y-75176000D01*
X123571000Y-87127282D01*
X123228554Y-86898467D01*
X122530628Y-86609377D01*
X121789715Y-86462000D01*
X121034285Y-86462000D01*
X120293372Y-86609377D01*
X119595446Y-86898467D01*
X118967330Y-87318161D01*
X118433161Y-87852330D01*
X118013467Y-88480446D01*
X117724377Y-89178372D01*
X117653439Y-89535000D01*
X84697395Y-89535000D01*
X84736566Y-89518775D01*
X85053491Y-89307013D01*
X85323013Y-89037491D01*
X85534775Y-88720566D01*
X85680639Y-88368419D01*
X85755000Y-87994581D01*
X85755000Y-87613419D01*
X85680639Y-87239581D01*
X85534775Y-86887434D01*
X85323013Y-86570509D01*
X85053491Y-86300987D01*
X84736566Y-86089225D01*
X84384419Y-85943361D01*
X84010581Y-85869000D01*
X83629419Y-85869000D01*
X83255581Y-85943361D01*
X82903434Y-86089225D01*
X82586509Y-86300987D01*
X82316987Y-86570509D01*
X82105225Y-86887434D01*
X81959361Y-87239581D01*
X81885000Y-87613419D01*
X81885000Y-87994581D01*
X81959361Y-88368419D01*
X82105225Y-88720566D01*
X82316987Y-89037491D01*
X82586509Y-89307013D01*
X82903434Y-89518775D01*
X82942605Y-89535000D01*
X79756328Y-89535000D01*
X79651743Y-89521231D01*
X79562045Y-89484077D01*
X79485024Y-89424976D01*
X79425923Y-89347955D01*
X79400000Y-89285371D01*
X79400000Y-84104000D01*
X81881928Y-84104000D01*
X81894188Y-84228482D01*
X81930498Y-84348180D01*
X81989463Y-84458494D01*
X82068815Y-84555185D01*
X82165506Y-84634537D01*
X82275820Y-84693502D01*
X82395518Y-84729812D01*
X82520000Y-84742072D01*
X83534250Y-84739000D01*
X83693000Y-84580250D01*
X83693000Y-82931000D01*
X83947000Y-82931000D01*
X83947000Y-84580250D01*
X84105750Y-84739000D01*
X85120000Y-84742072D01*
X85244482Y-84729812D01*
X85364180Y-84693502D01*
X85474494Y-84634537D01*
X85571185Y-84555185D01*
X85650537Y-84458494D01*
X85709502Y-84348180D01*
X85745812Y-84228482D01*
X85758072Y-84104000D01*
X85755000Y-83089750D01*
X85596250Y-82931000D01*
X83947000Y-82931000D01*
X83693000Y-82931000D01*
X82043750Y-82931000D01*
X81885000Y-83089750D01*
X81881928Y-84104000D01*
X79400000Y-84104000D01*
X79400000Y-81504000D01*
X81881928Y-81504000D01*
X81885000Y-82518250D01*
X82043750Y-82677000D01*
X83693000Y-82677000D01*
X83693000Y-81027750D01*
X83947000Y-81027750D01*
X83947000Y-82677000D01*
X85596250Y-82677000D01*
X85755000Y-82518250D01*
X85758072Y-81504000D01*
X85745812Y-81379518D01*
X85709502Y-81259820D01*
X85650537Y-81149506D01*
X85571185Y-81052815D01*
X85474494Y-80973463D01*
X85364180Y-80914498D01*
X85244482Y-80878188D01*
X85120000Y-80865928D01*
X84105750Y-80869000D01*
X83947000Y-81027750D01*
X83693000Y-81027750D01*
X83534250Y-80869000D01*
X82520000Y-80865928D01*
X82395518Y-80878188D01*
X82275820Y-80914498D01*
X82165506Y-80973463D01*
X82068815Y-81052815D01*
X81989463Y-81149506D01*
X81930498Y-81259820D01*
X81894188Y-81379518D01*
X81881928Y-81504000D01*
X79400000Y-81504000D01*
X79400000Y-79001980D01*
X83483626Y-79001980D01*
X83603514Y-79286836D01*
X83927210Y-79447699D01*
X84276069Y-79542322D01*
X84636684Y-79567067D01*
X84995198Y-79520985D01*
X85337833Y-79405846D01*
X85560486Y-79286836D01*
X85680374Y-79001980D01*
X84582000Y-77903605D01*
X83483626Y-79001980D01*
X79400000Y-79001980D01*
X79400000Y-77778684D01*
X82738933Y-77778684D01*
X82785015Y-78137198D01*
X82900154Y-78479833D01*
X83019164Y-78702486D01*
X83304020Y-78822374D01*
X84402395Y-77724000D01*
X84761605Y-77724000D01*
X85859980Y-78822374D01*
X86144836Y-78702486D01*
X86305699Y-78378790D01*
X86400322Y-78029931D01*
X86425067Y-77669316D01*
X86378985Y-77310802D01*
X86291505Y-77050475D01*
X103283000Y-77050475D01*
X103283000Y-77569525D01*
X103384261Y-78078601D01*
X103582893Y-78558141D01*
X103871262Y-78989715D01*
X104238285Y-79356738D01*
X104669859Y-79645107D01*
X105149399Y-79843739D01*
X105658475Y-79945000D01*
X106177525Y-79945000D01*
X106686601Y-79843739D01*
X107166141Y-79645107D01*
X107597715Y-79356738D01*
X107964738Y-78989715D01*
X108253107Y-78558141D01*
X108451739Y-78078601D01*
X108553000Y-77569525D01*
X108553000Y-77050475D01*
X108451739Y-76541399D01*
X108253107Y-76061859D01*
X107964738Y-75630285D01*
X107597715Y-75263262D01*
X107166141Y-74974893D01*
X106686601Y-74776261D01*
X106177525Y-74675000D01*
X105658475Y-74675000D01*
X105149399Y-74776261D01*
X104669859Y-74974893D01*
X104238285Y-75263262D01*
X103871262Y-75630285D01*
X103582893Y-76061859D01*
X103384261Y-76541399D01*
X103283000Y-77050475D01*
X86291505Y-77050475D01*
X86263846Y-76968167D01*
X86144836Y-76745514D01*
X85859980Y-76625626D01*
X84761605Y-77724000D01*
X84402395Y-77724000D01*
X83304020Y-76625626D01*
X83019164Y-76745514D01*
X82858301Y-77069210D01*
X82763678Y-77418069D01*
X82738933Y-77778684D01*
X79400000Y-77778684D01*
X79400000Y-76446020D01*
X83483626Y-76446020D01*
X84582000Y-77544395D01*
X85680374Y-76446020D01*
X85560486Y-76161164D01*
X85236790Y-76000301D01*
X84887931Y-75905678D01*
X84527316Y-75880933D01*
X84168802Y-75927015D01*
X83826167Y-76042154D01*
X83603514Y-76161164D01*
X83483626Y-76446020D01*
X79400000Y-76446020D01*
X79400000Y-73565224D01*
X148944381Y-73565224D01*
X149076317Y-73860312D01*
X149417045Y-74031159D01*
X149784557Y-74132250D01*
X150164729Y-74159701D01*
X150542951Y-74112457D01*
X150904690Y-73992333D01*
X151151683Y-73860312D01*
X151283619Y-73565224D01*
X150114000Y-72395605D01*
X148944381Y-73565224D01*
X79400000Y-73565224D01*
X79400000Y-72266729D01*
X148170299Y-72266729D01*
X148217543Y-72644951D01*
X148337667Y-73006690D01*
X148469688Y-73253683D01*
X148764776Y-73385619D01*
X149934395Y-72216000D01*
X150293605Y-72216000D01*
X151463224Y-73385619D01*
X151758312Y-73253683D01*
X151929159Y-72912955D01*
X152030250Y-72545443D01*
X152057701Y-72165271D01*
X152010457Y-71787049D01*
X151890333Y-71425310D01*
X151758312Y-71178317D01*
X151463224Y-71046381D01*
X150293605Y-72216000D01*
X149934395Y-72216000D01*
X148764776Y-71046381D01*
X148469688Y-71178317D01*
X148298841Y-71519045D01*
X148197750Y-71886557D01*
X148170299Y-72266729D01*
X79400000Y-72266729D01*
X79400000Y-70866776D01*
X148944381Y-70866776D01*
X150114000Y-72036395D01*
X151283619Y-70866776D01*
X151151683Y-70571688D01*
X150810955Y-70400841D01*
X150443443Y-70299750D01*
X150063271Y-70272299D01*
X149685049Y-70319543D01*
X149323310Y-70439667D01*
X149076317Y-70571688D01*
X148944381Y-70866776D01*
X79400000Y-70866776D01*
X79400000Y-69310000D01*
X103279928Y-69310000D01*
X103292188Y-69434482D01*
X103328498Y-69554180D01*
X103387463Y-69664494D01*
X103466815Y-69761185D01*
X103563506Y-69840537D01*
X103673820Y-69899502D01*
X103793518Y-69935812D01*
X103918000Y-69948072D01*
X105632250Y-69945000D01*
X105791000Y-69786250D01*
X105791000Y-67437000D01*
X106045000Y-67437000D01*
X106045000Y-69786250D01*
X106203750Y-69945000D01*
X107918000Y-69948072D01*
X108042482Y-69935812D01*
X108162180Y-69899502D01*
X108272494Y-69840537D01*
X108369185Y-69761185D01*
X108448537Y-69664494D01*
X108507502Y-69554180D01*
X108543812Y-69434482D01*
X108556072Y-69310000D01*
X108554738Y-68565224D01*
X148944381Y-68565224D01*
X149076317Y-68860312D01*
X149417045Y-69031159D01*
X149784557Y-69132250D01*
X150164729Y-69159701D01*
X150542951Y-69112457D01*
X150904690Y-68992333D01*
X151151683Y-68860312D01*
X151283619Y-68565224D01*
X150114000Y-67395605D01*
X148944381Y-68565224D01*
X108554738Y-68565224D01*
X108553000Y-67595750D01*
X108394250Y-67437000D01*
X106045000Y-67437000D01*
X105791000Y-67437000D01*
X103441750Y-67437000D01*
X103283000Y-67595750D01*
X103279928Y-69310000D01*
X79400000Y-69310000D01*
X79400000Y-67266729D01*
X148170299Y-67266729D01*
X148217543Y-67644951D01*
X148337667Y-68006690D01*
X148469688Y-68253683D01*
X148764776Y-68385619D01*
X149934395Y-67216000D01*
X150293605Y-67216000D01*
X151463224Y-68385619D01*
X151758312Y-68253683D01*
X151929159Y-67912955D01*
X152030250Y-67545443D01*
X152057701Y-67165271D01*
X152010457Y-66787049D01*
X151890333Y-66425310D01*
X151758312Y-66178317D01*
X151463224Y-66046381D01*
X150293605Y-67216000D01*
X149934395Y-67216000D01*
X148764776Y-66046381D01*
X148469688Y-66178317D01*
X148298841Y-66519045D01*
X148197750Y-66886557D01*
X148170299Y-67266729D01*
X79400000Y-67266729D01*
X79400000Y-65310000D01*
X103279928Y-65310000D01*
X103283000Y-67024250D01*
X103441750Y-67183000D01*
X105791000Y-67183000D01*
X105791000Y-64833750D01*
X106045000Y-64833750D01*
X106045000Y-67183000D01*
X108394250Y-67183000D01*
X108553000Y-67024250D01*
X108555074Y-65866776D01*
X148944381Y-65866776D01*
X150114000Y-67036395D01*
X151283619Y-65866776D01*
X151151683Y-65571688D01*
X150810955Y-65400841D01*
X150443443Y-65299750D01*
X150063271Y-65272299D01*
X149685049Y-65319543D01*
X149323310Y-65439667D01*
X149076317Y-65571688D01*
X148944381Y-65866776D01*
X108555074Y-65866776D01*
X108556072Y-65310000D01*
X108543812Y-65185518D01*
X108507502Y-65065820D01*
X108448537Y-64955506D01*
X108369185Y-64858815D01*
X108272494Y-64779463D01*
X108162180Y-64720498D01*
X108042482Y-64684188D01*
X107918000Y-64671928D01*
X106203750Y-64675000D01*
X106045000Y-64833750D01*
X105791000Y-64833750D01*
X105632250Y-64675000D01*
X103918000Y-64671928D01*
X103793518Y-64684188D01*
X103673820Y-64720498D01*
X103563506Y-64779463D01*
X103466815Y-64858815D01*
X103387463Y-64955506D01*
X103328498Y-65065820D01*
X103292188Y-65185518D01*
X103279928Y-65310000D01*
X79400000Y-65310000D01*
X79400000Y-62303268D01*
X82747000Y-62303268D01*
X82747000Y-62664732D01*
X82817518Y-63019250D01*
X82955844Y-63353199D01*
X83156662Y-63653744D01*
X83412256Y-63909338D01*
X83712801Y-64110156D01*
X84046750Y-64248482D01*
X84401268Y-64319000D01*
X84762732Y-64319000D01*
X85117250Y-64248482D01*
X85451199Y-64110156D01*
X85751744Y-63909338D01*
X86007338Y-63653744D01*
X86208156Y-63353199D01*
X86346482Y-63019250D01*
X86417000Y-62664732D01*
X86417000Y-62303268D01*
X86346482Y-61948750D01*
X86208156Y-61614801D01*
X86007338Y-61314256D01*
X85751744Y-61058662D01*
X85451199Y-60857844D01*
X85117250Y-60719518D01*
X84762732Y-60649000D01*
X84401268Y-60649000D01*
X84046750Y-60719518D01*
X83712801Y-60857844D01*
X83412256Y-61058662D01*
X83156662Y-61314256D01*
X82955844Y-61614801D01*
X82817518Y-61948750D01*
X82747000Y-62303268D01*
X79400000Y-62303268D01*
X79400000Y-60828629D01*
X79425923Y-60766045D01*
X79485024Y-60689024D01*
X79562045Y-60629923D01*
X79651743Y-60592769D01*
X79756328Y-60579000D01*
X85860000Y-60579000D01*
X85876577Y-60577914D01*
X86005987Y-60560877D01*
X86038011Y-60552296D01*
X86158601Y-60502346D01*
X86187313Y-60485768D01*
X86290866Y-60406308D01*
X86314308Y-60382866D01*
X86393768Y-60279313D01*
X86410346Y-60250601D01*
X86460296Y-60130011D01*
X86468877Y-60097987D01*
X86485914Y-59968577D01*
X86487000Y-59952000D01*
X86487000Y-53848328D01*
X86500769Y-53743743D01*
X86537923Y-53654045D01*
X86597024Y-53577024D01*
X86674045Y-53517923D01*
X86736629Y-53492000D01*
X147197371Y-53492000D01*
X147259955Y-53517923D01*
G37*
G04 #@! TD.AperFunction*
D25*
X82903434Y-91089225D02*
X82586509Y-91300987D01*
X82316987Y-91570509D01*
X82105225Y-91887434D01*
X81959361Y-92239581D01*
X81885000Y-92613419D01*
X81885000Y-92994581D01*
X81959361Y-93368419D01*
X82105225Y-93720566D01*
X82316987Y-94037491D01*
X82586509Y-94307013D01*
X82903434Y-94518775D01*
X83255581Y-94664639D01*
X83629419Y-94739000D01*
X84010581Y-94739000D01*
X84384419Y-94664639D01*
X84736566Y-94518775D01*
X85053491Y-94307013D01*
X85323013Y-94037491D01*
X85534775Y-93720566D01*
X85680639Y-93368419D01*
X85755000Y-92994581D01*
X85755000Y-92613419D01*
X85680639Y-92239581D01*
X85534775Y-91887434D01*
X85323013Y-91570509D01*
X85053491Y-91300987D01*
X84736566Y-91089225D01*
X84663596Y-91059000D01*
X117653439Y-91059000D01*
X117724377Y-91415628D01*
X118013467Y-92113554D01*
X118433161Y-92741670D01*
X118967330Y-93275839D01*
X119595446Y-93695533D01*
X120293372Y-93984623D01*
X121034285Y-94132000D01*
X121789715Y-94132000D01*
X122530628Y-93984623D01*
X123228554Y-93695533D01*
X123571000Y-93466718D01*
X123571000Y-105418000D01*
X123572086Y-105434577D01*
X123589123Y-105563987D01*
X123597704Y-105596011D01*
X123647654Y-105716601D01*
X123664232Y-105745313D01*
X123743692Y-105848866D01*
X123767134Y-105872308D01*
X123870687Y-105951768D01*
X123899399Y-105968346D01*
X124019989Y-106018296D01*
X124052013Y-106026877D01*
X124181423Y-106043914D01*
X124198000Y-106045000D01*
X154177672Y-106045000D01*
X154282257Y-106058769D01*
X154371955Y-106095923D01*
X154448976Y-106155024D01*
X154508077Y-106232045D01*
X154534001Y-106294631D01*
X154534001Y-119765369D01*
X154508077Y-119827955D01*
X154448976Y-119904976D01*
X154371955Y-119964077D01*
X154282257Y-120001231D01*
X154177672Y-120015000D01*
X148074000Y-120015000D01*
X148057423Y-120016086D01*
X147928013Y-120033123D01*
X147895989Y-120041704D01*
X147775399Y-120091654D01*
X147746687Y-120108232D01*
X147643134Y-120187692D01*
X147619692Y-120211134D01*
X147540232Y-120314687D01*
X147523654Y-120343399D01*
X147473704Y-120463989D01*
X147465123Y-120496013D01*
X147448086Y-120625423D01*
X147447000Y-120642000D01*
X147447000Y-126745672D01*
X147433231Y-126850257D01*
X147396077Y-126939955D01*
X147336976Y-127016976D01*
X147259955Y-127076077D01*
X147197371Y-127102000D01*
X86736629Y-127102000D01*
X86674045Y-127076077D01*
X86597024Y-127016976D01*
X86537923Y-126939955D01*
X86500769Y-126850257D01*
X86487000Y-126745672D01*
X86487000Y-120642000D01*
X86485914Y-120625423D01*
X86468877Y-120496013D01*
X86460296Y-120463989D01*
X86410346Y-120343399D01*
X86393768Y-120314687D01*
X86314308Y-120211134D01*
X86290866Y-120187692D01*
X86187313Y-120108232D01*
X86158601Y-120091654D01*
X86038011Y-120041704D01*
X86005987Y-120033123D01*
X85876577Y-120016086D01*
X85860000Y-120015000D01*
X79756328Y-120015000D01*
X79651743Y-120001231D01*
X79562045Y-119964077D01*
X79485024Y-119904976D01*
X79425923Y-119827955D01*
X79400000Y-119765371D01*
X79400000Y-117929268D01*
X82747000Y-117929268D01*
X82747000Y-118290732D01*
X82817518Y-118645250D01*
X82955844Y-118979199D01*
X83156662Y-119279744D01*
X83412256Y-119535338D01*
X83712801Y-119736156D01*
X84046750Y-119874482D01*
X84401268Y-119945000D01*
X84762732Y-119945000D01*
X85117250Y-119874482D01*
X85451199Y-119736156D01*
X85751744Y-119535338D01*
X86007338Y-119279744D01*
X86208156Y-118979199D01*
X86346482Y-118645250D01*
X86417000Y-118290732D01*
X86417000Y-117929268D01*
X86346482Y-117574750D01*
X86208156Y-117240801D01*
X86007338Y-116940256D01*
X85751744Y-116684662D01*
X85451199Y-116483844D01*
X85117250Y-116345518D01*
X84762732Y-116275000D01*
X84401268Y-116275000D01*
X84046750Y-116345518D01*
X83712801Y-116483844D01*
X83412256Y-116684662D01*
X83156662Y-116940256D01*
X82955844Y-117240801D01*
X82817518Y-117574750D01*
X82747000Y-117929268D01*
X79400000Y-117929268D01*
X79400000Y-115131499D01*
X104250106Y-115131499D01*
X104466228Y-115498258D01*
X104926105Y-115738938D01*
X105424098Y-115885275D01*
X105941071Y-115931648D01*
X106457159Y-115876273D01*
X106952526Y-115721279D01*
X107369772Y-115498258D01*
X107585894Y-115131499D01*
X105918000Y-113463605D01*
X104250106Y-115131499D01*
X79400000Y-115131499D01*
X79400000Y-113307071D01*
X103270352Y-113307071D01*
X103325727Y-113823159D01*
X103480721Y-114318526D01*
X103703742Y-114735772D01*
X104070501Y-114951894D01*
X105738395Y-113284000D01*
X106097605Y-113284000D01*
X107765499Y-114951894D01*
X108132258Y-114735772D01*
X108162493Y-114678000D01*
X148175928Y-114678000D01*
X148188188Y-114802482D01*
X148224498Y-114922180D01*
X148283463Y-115032494D01*
X148362815Y-115129185D01*
X148459506Y-115208537D01*
X148569820Y-115267502D01*
X148689518Y-115303812D01*
X148814000Y-115316072D01*
X149828250Y-115313000D01*
X149987000Y-115154250D01*
X149987000Y-113505000D01*
X150241000Y-113505000D01*
X150241000Y-115154250D01*
X150399750Y-115313000D01*
X151414000Y-115316072D01*
X151538482Y-115303812D01*
X151658180Y-115267502D01*
X151768494Y-115208537D01*
X151865185Y-115129185D01*
X151944537Y-115032494D01*
X152003502Y-114922180D01*
X152039812Y-114802482D01*
X152052072Y-114678000D01*
X152049000Y-113663750D01*
X151890250Y-113505000D01*
X150241000Y-113505000D01*
X149987000Y-113505000D01*
X148337750Y-113505000D01*
X148179000Y-113663750D01*
X148175928Y-114678000D01*
X108162493Y-114678000D01*
X108372938Y-114275895D01*
X108519275Y-113777902D01*
X108565648Y-113260929D01*
X108510273Y-112744841D01*
X108355279Y-112249474D01*
X108263625Y-112078000D01*
X148175928Y-112078000D01*
X148179000Y-113092250D01*
X148337750Y-113251000D01*
X149987000Y-113251000D01*
X149987000Y-111601750D01*
X150241000Y-111601750D01*
X150241000Y-113251000D01*
X151890250Y-113251000D01*
X152049000Y-113092250D01*
X152052072Y-112078000D01*
X152039812Y-111953518D01*
X152003502Y-111833820D01*
X151944537Y-111723506D01*
X151865185Y-111626815D01*
X151768494Y-111547463D01*
X151658180Y-111488498D01*
X151538482Y-111452188D01*
X151414000Y-111439928D01*
X150399750Y-111443000D01*
X150241000Y-111601750D01*
X149987000Y-111601750D01*
X149828250Y-111443000D01*
X148814000Y-111439928D01*
X148689518Y-111452188D01*
X148569820Y-111488498D01*
X148459506Y-111547463D01*
X148362815Y-111626815D01*
X148283463Y-111723506D01*
X148224498Y-111833820D01*
X148188188Y-111953518D01*
X148175928Y-112078000D01*
X108263625Y-112078000D01*
X108132258Y-111832228D01*
X107765499Y-111616106D01*
X106097605Y-113284000D01*
X105738395Y-113284000D01*
X104070501Y-111616106D01*
X103703742Y-111832228D01*
X103463062Y-112292105D01*
X103316725Y-112790098D01*
X103270352Y-113307071D01*
X79400000Y-113307071D01*
X79400000Y-111436501D01*
X104250106Y-111436501D01*
X105918000Y-113104395D01*
X107585894Y-111436501D01*
X107369772Y-111069742D01*
X106909895Y-110829062D01*
X106411902Y-110682725D01*
X105894929Y-110636352D01*
X105378841Y-110691727D01*
X104883474Y-110846721D01*
X104466228Y-111069742D01*
X104250106Y-111436501D01*
X79400000Y-111436501D01*
X79400000Y-109727224D01*
X148944381Y-109727224D01*
X149076317Y-110022312D01*
X149417045Y-110193159D01*
X149784557Y-110294250D01*
X150164729Y-110321701D01*
X150542951Y-110274457D01*
X150904690Y-110154333D01*
X151151683Y-110022312D01*
X151283619Y-109727224D01*
X150114000Y-108557605D01*
X148944381Y-109727224D01*
X79400000Y-109727224D01*
X79400000Y-108428729D01*
X148170299Y-108428729D01*
X148217543Y-108806951D01*
X148337667Y-109168690D01*
X148469688Y-109415683D01*
X148764776Y-109547619D01*
X149934395Y-108378000D01*
X150293605Y-108378000D01*
X151463224Y-109547619D01*
X151758312Y-109415683D01*
X151929159Y-109074955D01*
X152030250Y-108707443D01*
X152057701Y-108327271D01*
X152010457Y-107949049D01*
X151890333Y-107587310D01*
X151758312Y-107340317D01*
X151463224Y-107208381D01*
X150293605Y-108378000D01*
X149934395Y-108378000D01*
X148764776Y-107208381D01*
X148469688Y-107340317D01*
X148298841Y-107681045D01*
X148197750Y-108048557D01*
X148170299Y-108428729D01*
X79400000Y-108428729D01*
X79400000Y-107028776D01*
X148944381Y-107028776D01*
X150114000Y-108198395D01*
X151283619Y-107028776D01*
X151151683Y-106733688D01*
X150810955Y-106562841D01*
X150443443Y-106461750D01*
X150063271Y-106434299D01*
X149685049Y-106481543D01*
X149323310Y-106601667D01*
X149076317Y-106733688D01*
X148944381Y-107028776D01*
X79400000Y-107028776D01*
X79400000Y-103281806D01*
X82793801Y-103281806D01*
X82908500Y-103622754D01*
X83087511Y-103934774D01*
X83323954Y-104205875D01*
X83608743Y-104425639D01*
X83930934Y-104585621D01*
X84170195Y-104658195D01*
X84455000Y-104541432D01*
X84455000Y-102997000D01*
X84709000Y-102997000D01*
X84709000Y-104541432D01*
X84993805Y-104658195D01*
X85233066Y-104585621D01*
X85555257Y-104425639D01*
X85840046Y-104205875D01*
X86076489Y-103934774D01*
X86255500Y-103622754D01*
X86370199Y-103281806D01*
X86253854Y-102997000D01*
X84709000Y-102997000D01*
X84455000Y-102997000D01*
X82910146Y-102997000D01*
X82793801Y-103281806D01*
X79400000Y-103281806D01*
X79400000Y-102458194D01*
X82793801Y-102458194D01*
X82910146Y-102743000D01*
X84455000Y-102743000D01*
X84455000Y-101198568D01*
X84709000Y-101198568D01*
X84709000Y-102743000D01*
X86253854Y-102743000D01*
X86370199Y-102458194D01*
X86255500Y-102117246D01*
X86076489Y-101805226D01*
X85840046Y-101534125D01*
X85555257Y-101314361D01*
X85494113Y-101284000D01*
X103279928Y-101284000D01*
X103279928Y-105284000D01*
X103292188Y-105408482D01*
X103328498Y-105528180D01*
X103387463Y-105638494D01*
X103466815Y-105735185D01*
X103563506Y-105814537D01*
X103673820Y-105873502D01*
X103793518Y-105909812D01*
X103918000Y-105922072D01*
X107918000Y-105922072D01*
X108042482Y-105909812D01*
X108162180Y-105873502D01*
X108272494Y-105814537D01*
X108369185Y-105735185D01*
X108448537Y-105638494D01*
X108507502Y-105528180D01*
X108543812Y-105408482D01*
X108556072Y-105284000D01*
X108556072Y-101284000D01*
X108543812Y-101159518D01*
X108507502Y-101039820D01*
X108448537Y-100929506D01*
X108369185Y-100832815D01*
X108272494Y-100753463D01*
X108162180Y-100694498D01*
X108042482Y-100658188D01*
X107918000Y-100645928D01*
X103918000Y-100645928D01*
X103793518Y-100658188D01*
X103673820Y-100694498D01*
X103563506Y-100753463D01*
X103466815Y-100832815D01*
X103387463Y-100929506D01*
X103328498Y-101039820D01*
X103292188Y-101159518D01*
X103279928Y-101284000D01*
X85494113Y-101284000D01*
X85233066Y-101154379D01*
X84993805Y-101081805D01*
X84709000Y-101198568D01*
X84455000Y-101198568D01*
X84170195Y-101081805D01*
X83930934Y-101154379D01*
X83608743Y-101314361D01*
X83323954Y-101534125D01*
X83087511Y-101805226D01*
X82908500Y-102117246D01*
X82793801Y-102458194D01*
X79400000Y-102458194D01*
X79400000Y-99153224D01*
X82650381Y-99153224D01*
X82782317Y-99448312D01*
X83123045Y-99619159D01*
X83490557Y-99720250D01*
X83870729Y-99747701D01*
X84248951Y-99700457D01*
X84610690Y-99580333D01*
X84857683Y-99448312D01*
X84989619Y-99153224D01*
X83820000Y-97983605D01*
X82650381Y-99153224D01*
X79400000Y-99153224D01*
X79400000Y-97854729D01*
X81876299Y-97854729D01*
X81923543Y-98232951D01*
X82043667Y-98594690D01*
X82175688Y-98841683D01*
X82470776Y-98973619D01*
X83640395Y-97804000D01*
X83999605Y-97804000D01*
X85169224Y-98973619D01*
X85464312Y-98841683D01*
X85635159Y-98500955D01*
X85736250Y-98133443D01*
X85763701Y-97753271D01*
X85716457Y-97375049D01*
X85596333Y-97013310D01*
X85464312Y-96766317D01*
X85169224Y-96634381D01*
X83999605Y-97804000D01*
X83640395Y-97804000D01*
X82470776Y-96634381D01*
X82175688Y-96766317D01*
X82004841Y-97107045D01*
X81903750Y-97474557D01*
X81876299Y-97854729D01*
X79400000Y-97854729D01*
X79400000Y-96454776D01*
X82650381Y-96454776D01*
X83820000Y-97624395D01*
X84989619Y-96454776D01*
X84857683Y-96159688D01*
X84516955Y-95988841D01*
X84149443Y-95887750D01*
X83769271Y-95860299D01*
X83391049Y-95907543D01*
X83029310Y-96027667D01*
X82782317Y-96159688D01*
X82650381Y-96454776D01*
X79400000Y-96454776D01*
X79400000Y-91308629D01*
X79425923Y-91246045D01*
X79485024Y-91169024D01*
X79562045Y-91109923D01*
X79651743Y-91072769D01*
X79756328Y-91059000D01*
X82976404Y-91059000D01*
X82903434Y-91089225D01*
G04 #@! TA.AperFunction,Conductor*
D26*
G36*
X82903434Y-91089225D02*
G01*
X82586509Y-91300987D01*
X82316987Y-91570509D01*
X82105225Y-91887434D01*
X81959361Y-92239581D01*
X81885000Y-92613419D01*
X81885000Y-92994581D01*
X81959361Y-93368419D01*
X82105225Y-93720566D01*
X82316987Y-94037491D01*
X82586509Y-94307013D01*
X82903434Y-94518775D01*
X83255581Y-94664639D01*
X83629419Y-94739000D01*
X84010581Y-94739000D01*
X84384419Y-94664639D01*
X84736566Y-94518775D01*
X85053491Y-94307013D01*
X85323013Y-94037491D01*
X85534775Y-93720566D01*
X85680639Y-93368419D01*
X85755000Y-92994581D01*
X85755000Y-92613419D01*
X85680639Y-92239581D01*
X85534775Y-91887434D01*
X85323013Y-91570509D01*
X85053491Y-91300987D01*
X84736566Y-91089225D01*
X84663596Y-91059000D01*
X117653439Y-91059000D01*
X117724377Y-91415628D01*
X118013467Y-92113554D01*
X118433161Y-92741670D01*
X118967330Y-93275839D01*
X119595446Y-93695533D01*
X120293372Y-93984623D01*
X121034285Y-94132000D01*
X121789715Y-94132000D01*
X122530628Y-93984623D01*
X123228554Y-93695533D01*
X123571000Y-93466718D01*
X123571000Y-105418000D01*
X123572086Y-105434577D01*
X123589123Y-105563987D01*
X123597704Y-105596011D01*
X123647654Y-105716601D01*
X123664232Y-105745313D01*
X123743692Y-105848866D01*
X123767134Y-105872308D01*
X123870687Y-105951768D01*
X123899399Y-105968346D01*
X124019989Y-106018296D01*
X124052013Y-106026877D01*
X124181423Y-106043914D01*
X124198000Y-106045000D01*
X154177672Y-106045000D01*
X154282257Y-106058769D01*
X154371955Y-106095923D01*
X154448976Y-106155024D01*
X154508077Y-106232045D01*
X154534001Y-106294631D01*
X154534001Y-119765369D01*
X154508077Y-119827955D01*
X154448976Y-119904976D01*
X154371955Y-119964077D01*
X154282257Y-120001231D01*
X154177672Y-120015000D01*
X148074000Y-120015000D01*
X148057423Y-120016086D01*
X147928013Y-120033123D01*
X147895989Y-120041704D01*
X147775399Y-120091654D01*
X147746687Y-120108232D01*
X147643134Y-120187692D01*
X147619692Y-120211134D01*
X147540232Y-120314687D01*
X147523654Y-120343399D01*
X147473704Y-120463989D01*
X147465123Y-120496013D01*
X147448086Y-120625423D01*
X147447000Y-120642000D01*
X147447000Y-126745672D01*
X147433231Y-126850257D01*
X147396077Y-126939955D01*
X147336976Y-127016976D01*
X147259955Y-127076077D01*
X147197371Y-127102000D01*
X86736629Y-127102000D01*
X86674045Y-127076077D01*
X86597024Y-127016976D01*
X86537923Y-126939955D01*
X86500769Y-126850257D01*
X86487000Y-126745672D01*
X86487000Y-120642000D01*
X86485914Y-120625423D01*
X86468877Y-120496013D01*
X86460296Y-120463989D01*
X86410346Y-120343399D01*
X86393768Y-120314687D01*
X86314308Y-120211134D01*
X86290866Y-120187692D01*
X86187313Y-120108232D01*
X86158601Y-120091654D01*
X86038011Y-120041704D01*
X86005987Y-120033123D01*
X85876577Y-120016086D01*
X85860000Y-120015000D01*
X79756328Y-120015000D01*
X79651743Y-120001231D01*
X79562045Y-119964077D01*
X79485024Y-119904976D01*
X79425923Y-119827955D01*
X79400000Y-119765371D01*
X79400000Y-117929268D01*
X82747000Y-117929268D01*
X82747000Y-118290732D01*
X82817518Y-118645250D01*
X82955844Y-118979199D01*
X83156662Y-119279744D01*
X83412256Y-119535338D01*
X83712801Y-119736156D01*
X84046750Y-119874482D01*
X84401268Y-119945000D01*
X84762732Y-119945000D01*
X85117250Y-119874482D01*
X85451199Y-119736156D01*
X85751744Y-119535338D01*
X86007338Y-119279744D01*
X86208156Y-118979199D01*
X86346482Y-118645250D01*
X86417000Y-118290732D01*
X86417000Y-117929268D01*
X86346482Y-117574750D01*
X86208156Y-117240801D01*
X86007338Y-116940256D01*
X85751744Y-116684662D01*
X85451199Y-116483844D01*
X85117250Y-116345518D01*
X84762732Y-116275000D01*
X84401268Y-116275000D01*
X84046750Y-116345518D01*
X83712801Y-116483844D01*
X83412256Y-116684662D01*
X83156662Y-116940256D01*
X82955844Y-117240801D01*
X82817518Y-117574750D01*
X82747000Y-117929268D01*
X79400000Y-117929268D01*
X79400000Y-115131499D01*
X104250106Y-115131499D01*
X104466228Y-115498258D01*
X104926105Y-115738938D01*
X105424098Y-115885275D01*
X105941071Y-115931648D01*
X106457159Y-115876273D01*
X106952526Y-115721279D01*
X107369772Y-115498258D01*
X107585894Y-115131499D01*
X105918000Y-113463605D01*
X104250106Y-115131499D01*
X79400000Y-115131499D01*
X79400000Y-113307071D01*
X103270352Y-113307071D01*
X103325727Y-113823159D01*
X103480721Y-114318526D01*
X103703742Y-114735772D01*
X104070501Y-114951894D01*
X105738395Y-113284000D01*
X106097605Y-113284000D01*
X107765499Y-114951894D01*
X108132258Y-114735772D01*
X108162493Y-114678000D01*
X148175928Y-114678000D01*
X148188188Y-114802482D01*
X148224498Y-114922180D01*
X148283463Y-115032494D01*
X148362815Y-115129185D01*
X148459506Y-115208537D01*
X148569820Y-115267502D01*
X148689518Y-115303812D01*
X148814000Y-115316072D01*
X149828250Y-115313000D01*
X149987000Y-115154250D01*
X149987000Y-113505000D01*
X150241000Y-113505000D01*
X150241000Y-115154250D01*
X150399750Y-115313000D01*
X151414000Y-115316072D01*
X151538482Y-115303812D01*
X151658180Y-115267502D01*
X151768494Y-115208537D01*
X151865185Y-115129185D01*
X151944537Y-115032494D01*
X152003502Y-114922180D01*
X152039812Y-114802482D01*
X152052072Y-114678000D01*
X152049000Y-113663750D01*
X151890250Y-113505000D01*
X150241000Y-113505000D01*
X149987000Y-113505000D01*
X148337750Y-113505000D01*
X148179000Y-113663750D01*
X148175928Y-114678000D01*
X108162493Y-114678000D01*
X108372938Y-114275895D01*
X108519275Y-113777902D01*
X108565648Y-113260929D01*
X108510273Y-112744841D01*
X108355279Y-112249474D01*
X108263625Y-112078000D01*
X148175928Y-112078000D01*
X148179000Y-113092250D01*
X148337750Y-113251000D01*
X149987000Y-113251000D01*
X149987000Y-111601750D01*
X150241000Y-111601750D01*
X150241000Y-113251000D01*
X151890250Y-113251000D01*
X152049000Y-113092250D01*
X152052072Y-112078000D01*
X152039812Y-111953518D01*
X152003502Y-111833820D01*
X151944537Y-111723506D01*
X151865185Y-111626815D01*
X151768494Y-111547463D01*
X151658180Y-111488498D01*
X151538482Y-111452188D01*
X151414000Y-111439928D01*
X150399750Y-111443000D01*
X150241000Y-111601750D01*
X149987000Y-111601750D01*
X149828250Y-111443000D01*
X148814000Y-111439928D01*
X148689518Y-111452188D01*
X148569820Y-111488498D01*
X148459506Y-111547463D01*
X148362815Y-111626815D01*
X148283463Y-111723506D01*
X148224498Y-111833820D01*
X148188188Y-111953518D01*
X148175928Y-112078000D01*
X108263625Y-112078000D01*
X108132258Y-111832228D01*
X107765499Y-111616106D01*
X106097605Y-113284000D01*
X105738395Y-113284000D01*
X104070501Y-111616106D01*
X103703742Y-111832228D01*
X103463062Y-112292105D01*
X103316725Y-112790098D01*
X103270352Y-113307071D01*
X79400000Y-113307071D01*
X79400000Y-111436501D01*
X104250106Y-111436501D01*
X105918000Y-113104395D01*
X107585894Y-111436501D01*
X107369772Y-111069742D01*
X106909895Y-110829062D01*
X106411902Y-110682725D01*
X105894929Y-110636352D01*
X105378841Y-110691727D01*
X104883474Y-110846721D01*
X104466228Y-111069742D01*
X104250106Y-111436501D01*
X79400000Y-111436501D01*
X79400000Y-109727224D01*
X148944381Y-109727224D01*
X149076317Y-110022312D01*
X149417045Y-110193159D01*
X149784557Y-110294250D01*
X150164729Y-110321701D01*
X150542951Y-110274457D01*
X150904690Y-110154333D01*
X151151683Y-110022312D01*
X151283619Y-109727224D01*
X150114000Y-108557605D01*
X148944381Y-109727224D01*
X79400000Y-109727224D01*
X79400000Y-108428729D01*
X148170299Y-108428729D01*
X148217543Y-108806951D01*
X148337667Y-109168690D01*
X148469688Y-109415683D01*
X148764776Y-109547619D01*
X149934395Y-108378000D01*
X150293605Y-108378000D01*
X151463224Y-109547619D01*
X151758312Y-109415683D01*
X151929159Y-109074955D01*
X152030250Y-108707443D01*
X152057701Y-108327271D01*
X152010457Y-107949049D01*
X151890333Y-107587310D01*
X151758312Y-107340317D01*
X151463224Y-107208381D01*
X150293605Y-108378000D01*
X149934395Y-108378000D01*
X148764776Y-107208381D01*
X148469688Y-107340317D01*
X148298841Y-107681045D01*
X148197750Y-108048557D01*
X148170299Y-108428729D01*
X79400000Y-108428729D01*
X79400000Y-107028776D01*
X148944381Y-107028776D01*
X150114000Y-108198395D01*
X151283619Y-107028776D01*
X151151683Y-106733688D01*
X150810955Y-106562841D01*
X150443443Y-106461750D01*
X150063271Y-106434299D01*
X149685049Y-106481543D01*
X149323310Y-106601667D01*
X149076317Y-106733688D01*
X148944381Y-107028776D01*
X79400000Y-107028776D01*
X79400000Y-103281806D01*
X82793801Y-103281806D01*
X82908500Y-103622754D01*
X83087511Y-103934774D01*
X83323954Y-104205875D01*
X83608743Y-104425639D01*
X83930934Y-104585621D01*
X84170195Y-104658195D01*
X84455000Y-104541432D01*
X84455000Y-102997000D01*
X84709000Y-102997000D01*
X84709000Y-104541432D01*
X84993805Y-104658195D01*
X85233066Y-104585621D01*
X85555257Y-104425639D01*
X85840046Y-104205875D01*
X86076489Y-103934774D01*
X86255500Y-103622754D01*
X86370199Y-103281806D01*
X86253854Y-102997000D01*
X84709000Y-102997000D01*
X84455000Y-102997000D01*
X82910146Y-102997000D01*
X82793801Y-103281806D01*
X79400000Y-103281806D01*
X79400000Y-102458194D01*
X82793801Y-102458194D01*
X82910146Y-102743000D01*
X84455000Y-102743000D01*
X84455000Y-101198568D01*
X84709000Y-101198568D01*
X84709000Y-102743000D01*
X86253854Y-102743000D01*
X86370199Y-102458194D01*
X86255500Y-102117246D01*
X86076489Y-101805226D01*
X85840046Y-101534125D01*
X85555257Y-101314361D01*
X85494113Y-101284000D01*
X103279928Y-101284000D01*
X103279928Y-105284000D01*
X103292188Y-105408482D01*
X103328498Y-105528180D01*
X103387463Y-105638494D01*
X103466815Y-105735185D01*
X103563506Y-105814537D01*
X103673820Y-105873502D01*
X103793518Y-105909812D01*
X103918000Y-105922072D01*
X107918000Y-105922072D01*
X108042482Y-105909812D01*
X108162180Y-105873502D01*
X108272494Y-105814537D01*
X108369185Y-105735185D01*
X108448537Y-105638494D01*
X108507502Y-105528180D01*
X108543812Y-105408482D01*
X108556072Y-105284000D01*
X108556072Y-101284000D01*
X108543812Y-101159518D01*
X108507502Y-101039820D01*
X108448537Y-100929506D01*
X108369185Y-100832815D01*
X108272494Y-100753463D01*
X108162180Y-100694498D01*
X108042482Y-100658188D01*
X107918000Y-100645928D01*
X103918000Y-100645928D01*
X103793518Y-100658188D01*
X103673820Y-100694498D01*
X103563506Y-100753463D01*
X103466815Y-100832815D01*
X103387463Y-100929506D01*
X103328498Y-101039820D01*
X103292188Y-101159518D01*
X103279928Y-101284000D01*
X85494113Y-101284000D01*
X85233066Y-101154379D01*
X84993805Y-101081805D01*
X84709000Y-101198568D01*
X84455000Y-101198568D01*
X84170195Y-101081805D01*
X83930934Y-101154379D01*
X83608743Y-101314361D01*
X83323954Y-101534125D01*
X83087511Y-101805226D01*
X82908500Y-102117246D01*
X82793801Y-102458194D01*
X79400000Y-102458194D01*
X79400000Y-99153224D01*
X82650381Y-99153224D01*
X82782317Y-99448312D01*
X83123045Y-99619159D01*
X83490557Y-99720250D01*
X83870729Y-99747701D01*
X84248951Y-99700457D01*
X84610690Y-99580333D01*
X84857683Y-99448312D01*
X84989619Y-99153224D01*
X83820000Y-97983605D01*
X82650381Y-99153224D01*
X79400000Y-99153224D01*
X79400000Y-97854729D01*
X81876299Y-97854729D01*
X81923543Y-98232951D01*
X82043667Y-98594690D01*
X82175688Y-98841683D01*
X82470776Y-98973619D01*
X83640395Y-97804000D01*
X83999605Y-97804000D01*
X85169224Y-98973619D01*
X85464312Y-98841683D01*
X85635159Y-98500955D01*
X85736250Y-98133443D01*
X85763701Y-97753271D01*
X85716457Y-97375049D01*
X85596333Y-97013310D01*
X85464312Y-96766317D01*
X85169224Y-96634381D01*
X83999605Y-97804000D01*
X83640395Y-97804000D01*
X82470776Y-96634381D01*
X82175688Y-96766317D01*
X82004841Y-97107045D01*
X81903750Y-97474557D01*
X81876299Y-97854729D01*
X79400000Y-97854729D01*
X79400000Y-96454776D01*
X82650381Y-96454776D01*
X83820000Y-97624395D01*
X84989619Y-96454776D01*
X84857683Y-96159688D01*
X84516955Y-95988841D01*
X84149443Y-95887750D01*
X83769271Y-95860299D01*
X83391049Y-95907543D01*
X83029310Y-96027667D01*
X82782317Y-96159688D01*
X82650381Y-96454776D01*
X79400000Y-96454776D01*
X79400000Y-91308629D01*
X79425923Y-91246045D01*
X79485024Y-91169024D01*
X79562045Y-91109923D01*
X79651743Y-91072769D01*
X79756328Y-91059000D01*
X82976404Y-91059000D01*
X82903434Y-91089225D01*
G37*
G04 #@! TD.AperFunction*
D25*
X148569820Y-75326498D02*
X148459506Y-75385463D01*
X148362815Y-75464815D01*
X148283463Y-75561506D01*
X148224498Y-75671820D01*
X148188188Y-75791518D01*
X148175928Y-75916000D01*
X148179000Y-76930250D01*
X148337750Y-77089000D01*
X149987000Y-77089000D01*
X149987000Y-77069000D01*
X150241000Y-77069000D01*
X150241000Y-77089000D01*
X151890250Y-77089000D01*
X152049000Y-76930250D01*
X152052072Y-75916000D01*
X152039812Y-75791518D01*
X152003502Y-75671820D01*
X151944537Y-75561506D01*
X151865185Y-75464815D01*
X151768494Y-75385463D01*
X151658180Y-75326498D01*
X151607090Y-75311000D01*
X154177672Y-75311000D01*
X154282257Y-75324769D01*
X154371955Y-75361923D01*
X154448976Y-75421024D01*
X154508077Y-75498045D01*
X154534000Y-75560630D01*
X154534001Y-105033369D01*
X154508077Y-105095955D01*
X154448976Y-105172976D01*
X154371955Y-105232077D01*
X154282257Y-105269231D01*
X154177672Y-105283000D01*
X150474558Y-105283000D01*
X150542951Y-105274457D01*
X150904690Y-105154333D01*
X151151683Y-105022312D01*
X151283619Y-104727224D01*
X150114000Y-103557605D01*
X148944381Y-104727224D01*
X149076317Y-105022312D01*
X149417045Y-105193159D01*
X149743658Y-105283000D01*
X124714328Y-105283000D01*
X124609743Y-105269231D01*
X124520045Y-105232077D01*
X124443024Y-105172976D01*
X124383923Y-105095955D01*
X124346769Y-105006257D01*
X124333000Y-104901672D01*
X124333000Y-103428729D01*
X148170299Y-103428729D01*
X148217543Y-103806951D01*
X148337667Y-104168690D01*
X148469688Y-104415683D01*
X148764776Y-104547619D01*
X149934395Y-103378000D01*
X150293605Y-103378000D01*
X151463224Y-104547619D01*
X151758312Y-104415683D01*
X151929159Y-104074955D01*
X152030250Y-103707443D01*
X152057701Y-103327271D01*
X152010457Y-102949049D01*
X151890333Y-102587310D01*
X151758312Y-102340317D01*
X151463224Y-102208381D01*
X150293605Y-103378000D01*
X149934395Y-103378000D01*
X148764776Y-102208381D01*
X148469688Y-102340317D01*
X148298841Y-102681045D01*
X148197750Y-103048557D01*
X148170299Y-103428729D01*
X124333000Y-103428729D01*
X124333000Y-102028776D01*
X148944381Y-102028776D01*
X150114000Y-103198395D01*
X151283619Y-102028776D01*
X151151683Y-101733688D01*
X150810955Y-101562841D01*
X150443443Y-101461750D01*
X150063271Y-101434299D01*
X149685049Y-101481543D01*
X149323310Y-101601667D01*
X149076317Y-101733688D01*
X148944381Y-102028776D01*
X124333000Y-102028776D01*
X124333000Y-99687000D01*
X128457428Y-99687000D01*
X128457428Y-101330000D01*
X128469688Y-101454482D01*
X128505998Y-101574180D01*
X128564963Y-101684494D01*
X128644315Y-101781185D01*
X128741006Y-101860537D01*
X128851320Y-101919502D01*
X128971018Y-101955812D01*
X129095500Y-101968072D01*
X131000500Y-101968072D01*
X131124982Y-101955812D01*
X131244680Y-101919502D01*
X131354994Y-101860537D01*
X131451685Y-101781185D01*
X131531037Y-101684494D01*
X131575905Y-101600553D01*
X131701766Y-101703845D01*
X131977552Y-101851255D01*
X132276797Y-101942030D01*
X132588000Y-101972681D01*
X132899204Y-101942030D01*
X133198449Y-101851255D01*
X133474235Y-101703845D01*
X133715963Y-101505463D01*
X133858000Y-101332391D01*
X134000037Y-101505463D01*
X134241766Y-101703845D01*
X134517552Y-101851255D01*
X134816797Y-101942030D01*
X135128000Y-101972681D01*
X135439204Y-101942030D01*
X135738449Y-101851255D01*
X136014235Y-101703845D01*
X136255963Y-101505463D01*
X136454345Y-101263734D01*
X136601755Y-100987948D01*
X136692530Y-100688703D01*
X136715500Y-100455485D01*
X136715500Y-100204514D01*
X136692530Y-99971296D01*
X136601755Y-99672051D01*
X136454345Y-99396265D01*
X136263000Y-99163112D01*
X136263000Y-97752131D01*
X138678132Y-95337000D01*
X142625716Y-95337000D01*
X142830273Y-95473680D01*
X143091426Y-95581853D01*
X143368665Y-95637000D01*
X143651335Y-95637000D01*
X143928574Y-95581853D01*
X144189727Y-95473680D01*
X144394284Y-95337000D01*
X146026249Y-95337000D01*
X146082000Y-95342491D01*
X146137751Y-95337000D01*
X146137752Y-95337000D01*
X146304499Y-95320577D01*
X146518447Y-95255676D01*
X146715623Y-95150284D01*
X146888449Y-95008449D01*
X146923996Y-94965135D01*
X147734132Y-94155000D01*
X149173447Y-94155000D01*
X149196662Y-94189744D01*
X149452256Y-94445338D01*
X149487000Y-94468554D01*
X149487000Y-94681928D01*
X149422000Y-94681928D01*
X149297518Y-94694188D01*
X149177820Y-94730498D01*
X149067506Y-94789463D01*
X148970815Y-94868815D01*
X148891463Y-94965506D01*
X148832498Y-95075820D01*
X148796188Y-95195518D01*
X148783928Y-95320000D01*
X148783928Y-97720000D01*
X148796188Y-97844482D01*
X148832498Y-97964180D01*
X148891463Y-98074494D01*
X148970815Y-98171185D01*
X149067506Y-98250537D01*
X149177820Y-98309502D01*
X149297518Y-98345812D01*
X149422000Y-98358072D01*
X151822000Y-98358072D01*
X151946482Y-98345812D01*
X152066180Y-98309502D01*
X152176494Y-98250537D01*
X152273185Y-98171185D01*
X152352537Y-98074494D01*
X152411502Y-97964180D01*
X152447812Y-97844482D01*
X152460072Y-97720000D01*
X152460072Y-95320000D01*
X152447812Y-95195518D01*
X152411502Y-95075820D01*
X152352537Y-94965506D01*
X152273185Y-94868815D01*
X152176494Y-94789463D01*
X152066180Y-94730498D01*
X151946482Y-94694188D01*
X151822000Y-94681928D01*
X151757000Y-94681928D01*
X151757000Y-94468553D01*
X151791744Y-94445338D01*
X152047338Y-94189744D01*
X152248156Y-93889199D01*
X152386482Y-93555250D01*
X152457000Y-93200732D01*
X152457000Y-92839268D01*
X152386482Y-92484750D01*
X152248156Y-92150801D01*
X152047338Y-91850256D01*
X151791744Y-91594662D01*
X151491199Y-91393844D01*
X151157250Y-91255518D01*
X150802732Y-91185000D01*
X150441268Y-91185000D01*
X150086750Y-91255518D01*
X149752801Y-91393844D01*
X149452256Y-91594662D01*
X149196662Y-91850256D01*
X149173447Y-91885000D01*
X147319741Y-91885000D01*
X147263999Y-91879510D01*
X147208257Y-91885000D01*
X147208248Y-91885000D01*
X147041501Y-91901423D01*
X146827553Y-91966324D01*
X146630377Y-92071716D01*
X146457551Y-92213551D01*
X146422008Y-92256860D01*
X145611869Y-93067000D01*
X144941670Y-93067000D01*
X144948072Y-93002000D01*
X144945000Y-92487750D01*
X144786250Y-92329000D01*
X143637000Y-92329000D01*
X143637000Y-92349000D01*
X143383000Y-92349000D01*
X143383000Y-92329000D01*
X142233750Y-92329000D01*
X142075000Y-92487750D01*
X142071928Y-93002000D01*
X142078330Y-93067000D01*
X138263752Y-93067000D01*
X138208000Y-93061509D01*
X138152248Y-93067000D01*
X137985501Y-93083423D01*
X137771553Y-93148324D01*
X137574377Y-93253716D01*
X137401551Y-93395551D01*
X137366011Y-93438857D01*
X134364860Y-96440009D01*
X134321552Y-96475551D01*
X134179717Y-96648377D01*
X134129408Y-96742499D01*
X134074324Y-96845554D01*
X134009423Y-97059502D01*
X133987509Y-97282000D01*
X133993001Y-97337761D01*
X133993000Y-99163111D01*
X133858000Y-99327609D01*
X133715963Y-99154537D01*
X133494062Y-98972427D01*
X133394449Y-98851049D01*
X133351140Y-98815506D01*
X132324498Y-97788864D01*
X132288951Y-97745551D01*
X132116125Y-97603716D01*
X131918949Y-97498324D01*
X131705001Y-97433423D01*
X131538254Y-97417000D01*
X131538253Y-97417000D01*
X131482502Y-97411509D01*
X131426751Y-97417000D01*
X124333000Y-97417000D01*
X124333000Y-92656361D01*
X124602548Y-92458088D01*
X124962849Y-91794118D01*
X125186694Y-91072615D01*
X125265480Y-90321305D01*
X125255042Y-90208000D01*
X128101928Y-90208000D01*
X128114188Y-90332482D01*
X128150498Y-90452180D01*
X128209463Y-90562494D01*
X128288815Y-90659185D01*
X128305393Y-90672790D01*
X128268320Y-90728273D01*
X128160147Y-90989426D01*
X128105000Y-91266665D01*
X128105000Y-91549335D01*
X128160147Y-91826574D01*
X128268320Y-92087727D01*
X128425363Y-92322759D01*
X128625241Y-92522637D01*
X128860273Y-92679680D01*
X129121426Y-92787853D01*
X129398665Y-92843000D01*
X129681335Y-92843000D01*
X129958574Y-92787853D01*
X130219727Y-92679680D01*
X130454759Y-92522637D01*
X130576694Y-92400702D01*
X134822903Y-92400702D01*
X134894486Y-92644671D01*
X135149996Y-92765571D01*
X135424184Y-92834300D01*
X135706512Y-92848217D01*
X135986130Y-92806787D01*
X136252292Y-92711603D01*
X136377514Y-92644671D01*
X136449097Y-92400702D01*
X135636000Y-91587605D01*
X134822903Y-92400702D01*
X130576694Y-92400702D01*
X130654637Y-92322759D01*
X130811680Y-92087727D01*
X130919853Y-91826574D01*
X130975000Y-91549335D01*
X130975000Y-91478512D01*
X134195783Y-91478512D01*
X134237213Y-91758130D01*
X134332397Y-92024292D01*
X134399329Y-92149514D01*
X134643298Y-92221097D01*
X135456395Y-91408000D01*
X135442253Y-91393858D01*
X135621858Y-91214253D01*
X135636000Y-91228395D01*
X135650143Y-91214253D01*
X135829748Y-91393858D01*
X135815605Y-91408000D01*
X136628702Y-92221097D01*
X136872671Y-92149514D01*
X136993571Y-91894004D01*
X137062300Y-91619816D01*
X137073036Y-91402000D01*
X142071928Y-91402000D01*
X142075000Y-91916250D01*
X142233750Y-92075000D01*
X143383000Y-92075000D01*
X143383000Y-90925750D01*
X143637000Y-90925750D01*
X143637000Y-92075000D01*
X144786250Y-92075000D01*
X144945000Y-91916250D01*
X144948072Y-91402000D01*
X144935812Y-91277518D01*
X144899502Y-91157820D01*
X144840537Y-91047506D01*
X144761185Y-90950815D01*
X144664494Y-90871463D01*
X144554180Y-90812498D01*
X144434482Y-90776188D01*
X144310000Y-90763928D01*
X143795750Y-90767000D01*
X143637000Y-90925750D01*
X143383000Y-90925750D01*
X143224250Y-90767000D01*
X142710000Y-90763928D01*
X142585518Y-90776188D01*
X142465820Y-90812498D01*
X142355506Y-90871463D01*
X142258815Y-90950815D01*
X142179463Y-91047506D01*
X142120498Y-91157820D01*
X142084188Y-91277518D01*
X142071928Y-91402000D01*
X137073036Y-91402000D01*
X137076217Y-91337488D01*
X137034787Y-91057870D01*
X136939603Y-90791708D01*
X136874384Y-90669691D01*
X136887185Y-90659185D01*
X136966537Y-90562494D01*
X137025502Y-90452180D01*
X137061812Y-90332482D01*
X137074072Y-90208000D01*
X137074072Y-89606702D01*
X142696903Y-89606702D01*
X142768486Y-89850671D01*
X143023996Y-89971571D01*
X143298184Y-90040300D01*
X143580512Y-90054217D01*
X143860130Y-90012787D01*
X144126292Y-89917603D01*
X144251514Y-89850671D01*
X144323097Y-89606702D01*
X143510000Y-88793605D01*
X142696903Y-89606702D01*
X137074072Y-89606702D01*
X137074072Y-88608000D01*
X137061812Y-88483518D01*
X137025502Y-88363820D01*
X136966537Y-88253506D01*
X136887185Y-88156815D01*
X136790494Y-88077463D01*
X136680180Y-88018498D01*
X136560482Y-87982188D01*
X136436000Y-87969928D01*
X134836000Y-87969928D01*
X134711518Y-87982188D01*
X134591820Y-88018498D01*
X134481506Y-88077463D01*
X134384815Y-88156815D01*
X134305463Y-88253506D01*
X134246498Y-88363820D01*
X134210188Y-88483518D01*
X134197928Y-88608000D01*
X134197928Y-90208000D01*
X134210188Y-90332482D01*
X134246498Y-90452180D01*
X134305463Y-90562494D01*
X134384815Y-90659185D01*
X134397758Y-90669807D01*
X134278429Y-90921996D01*
X134209700Y-91196184D01*
X134195783Y-91478512D01*
X130975000Y-91478512D01*
X130975000Y-91266665D01*
X130919853Y-90989426D01*
X130811680Y-90728273D01*
X130774607Y-90672790D01*
X130791185Y-90659185D01*
X130870537Y-90562494D01*
X130929502Y-90452180D01*
X130965812Y-90332482D01*
X130978072Y-90208000D01*
X130975000Y-89693750D01*
X130816250Y-89535000D01*
X129667000Y-89535000D01*
X129667000Y-89555000D01*
X129413000Y-89555000D01*
X129413000Y-89535000D01*
X128263750Y-89535000D01*
X128105000Y-89693750D01*
X128101928Y-90208000D01*
X125255042Y-90208000D01*
X125196178Y-89569062D01*
X124981452Y-88844792D01*
X124856799Y-88608000D01*
X128101928Y-88608000D01*
X128105000Y-89122250D01*
X128263750Y-89281000D01*
X129413000Y-89281000D01*
X129413000Y-88131750D01*
X129667000Y-88131750D01*
X129667000Y-89281000D01*
X130816250Y-89281000D01*
X130975000Y-89122250D01*
X130978072Y-88608000D01*
X130965812Y-88483518D01*
X130929502Y-88363820D01*
X130870537Y-88253506D01*
X130791185Y-88156815D01*
X130694494Y-88077463D01*
X130584180Y-88018498D01*
X130464482Y-87982188D01*
X130340000Y-87969928D01*
X129825750Y-87973000D01*
X129667000Y-88131750D01*
X129413000Y-88131750D01*
X129254250Y-87973000D01*
X128740000Y-87969928D01*
X128615518Y-87982188D01*
X128495820Y-88018498D01*
X128385506Y-88077463D01*
X128288815Y-88156815D01*
X128209463Y-88253506D01*
X128150498Y-88363820D01*
X128114188Y-88483518D01*
X128101928Y-88608000D01*
X124856799Y-88608000D01*
X124629555Y-88176330D01*
X124602548Y-88135912D01*
X124333000Y-87937639D01*
X124333000Y-81399000D01*
X128886830Y-81399000D01*
X128920037Y-81439463D01*
X129161765Y-81637845D01*
X129437551Y-81785255D01*
X129736796Y-81876030D01*
X130048000Y-81906681D01*
X130359203Y-81876030D01*
X130658448Y-81785255D01*
X130934234Y-81637845D01*
X131175963Y-81439463D01*
X131318000Y-81266391D01*
X131460037Y-81439463D01*
X131681943Y-81621577D01*
X131781552Y-81742951D01*
X131824860Y-81778493D01*
X137423511Y-87377146D01*
X137459049Y-87420449D01*
X137502352Y-87455987D01*
X137502354Y-87455989D01*
X137631875Y-87562284D01*
X137829051Y-87667676D01*
X138042999Y-87732577D01*
X138265498Y-87754491D01*
X138321250Y-87749000D01*
X142169043Y-87749000D01*
X142179463Y-87768494D01*
X142258815Y-87865185D01*
X142271758Y-87875807D01*
X142152429Y-88127996D01*
X142083700Y-88402184D01*
X142069783Y-88684512D01*
X142111213Y-88964130D01*
X142206397Y-89230292D01*
X142273329Y-89355514D01*
X142517298Y-89427097D01*
X143330395Y-88614000D01*
X143316253Y-88599858D01*
X143495858Y-88420253D01*
X143510000Y-88434395D01*
X143524143Y-88420253D01*
X143703748Y-88599858D01*
X143689605Y-88614000D01*
X144502702Y-89427097D01*
X144746671Y-89355514D01*
X144867571Y-89100004D01*
X144936300Y-88825816D01*
X144950217Y-88543488D01*
X144908787Y-88263870D01*
X144813603Y-87997708D01*
X144748384Y-87875691D01*
X144761185Y-87865185D01*
X144840537Y-87768494D01*
X144850957Y-87749000D01*
X145579869Y-87749000D01*
X146224008Y-88393140D01*
X146259551Y-88436449D01*
X146432377Y-88578284D01*
X146629553Y-88683676D01*
X146843501Y-88748577D01*
X147066000Y-88770491D01*
X147121751Y-88765000D01*
X148783928Y-88765000D01*
X148783928Y-88830000D01*
X148796188Y-88954482D01*
X148832498Y-89074180D01*
X148891463Y-89184494D01*
X148970815Y-89281185D01*
X149067506Y-89360537D01*
X149177820Y-89419502D01*
X149297518Y-89455812D01*
X149422000Y-89468072D01*
X151822000Y-89468072D01*
X151946482Y-89455812D01*
X152066180Y-89419502D01*
X152176494Y-89360537D01*
X152273185Y-89281185D01*
X152352537Y-89184494D01*
X152411502Y-89074180D01*
X152447812Y-88954482D01*
X152460072Y-88830000D01*
X152460072Y-86430000D01*
X152447812Y-86305518D01*
X152411502Y-86185820D01*
X152352537Y-86075506D01*
X152273185Y-85978815D01*
X152176494Y-85899463D01*
X152066180Y-85840498D01*
X151946482Y-85804188D01*
X151822000Y-85791928D01*
X151757000Y-85791928D01*
X151757000Y-85578553D01*
X151791744Y-85555338D01*
X152047338Y-85299744D01*
X152248156Y-84999199D01*
X152386482Y-84665250D01*
X152457000Y-84310732D01*
X152457000Y-83949268D01*
X152386482Y-83594750D01*
X152248156Y-83260801D01*
X152047338Y-82960256D01*
X151791744Y-82704662D01*
X151491199Y-82503844D01*
X151157250Y-82365518D01*
X150802732Y-82295000D01*
X150441268Y-82295000D01*
X150086750Y-82365518D01*
X149752801Y-82503844D01*
X149452256Y-82704662D01*
X149196662Y-82960256D01*
X148995844Y-83260801D01*
X148857518Y-83594750D01*
X148787000Y-83949268D01*
X148787000Y-84310732D01*
X148857518Y-84665250D01*
X148995844Y-84999199D01*
X149196662Y-85299744D01*
X149452256Y-85555338D01*
X149487001Y-85578554D01*
X149487001Y-85791928D01*
X149422000Y-85791928D01*
X149297518Y-85804188D01*
X149177820Y-85840498D01*
X149067506Y-85899463D01*
X148970815Y-85978815D01*
X148891463Y-86075506D01*
X148832498Y-86185820D01*
X148796188Y-86305518D01*
X148783928Y-86430000D01*
X148783928Y-86495000D01*
X147536132Y-86495000D01*
X146891996Y-85850864D01*
X146856449Y-85807551D01*
X146683623Y-85665716D01*
X146486447Y-85560324D01*
X146272499Y-85495423D01*
X146105752Y-85479000D01*
X146105751Y-85479000D01*
X146050000Y-85473509D01*
X145994249Y-85479000D01*
X144850957Y-85479000D01*
X144840537Y-85459506D01*
X144761185Y-85362815D01*
X144664494Y-85283463D01*
X144554180Y-85224498D01*
X144434482Y-85188188D01*
X144310000Y-85175928D01*
X142710000Y-85175928D01*
X142585518Y-85188188D01*
X142465820Y-85224498D01*
X142355506Y-85283463D01*
X142258815Y-85362815D01*
X142179463Y-85459506D01*
X142169043Y-85479000D01*
X138735631Y-85479000D01*
X135158702Y-81902072D01*
X136080500Y-81902072D01*
X136204982Y-81889812D01*
X136324680Y-81853502D01*
X136434994Y-81794537D01*
X136531685Y-81715185D01*
X136611037Y-81618494D01*
X136670002Y-81508180D01*
X136706312Y-81388482D01*
X136718572Y-81264000D01*
X136718572Y-79264000D01*
X136706312Y-79139518D01*
X136670002Y-79019820D01*
X136611037Y-78909506D01*
X136531685Y-78812815D01*
X136434994Y-78733463D01*
X136324680Y-78674498D01*
X136204982Y-78638188D01*
X136080500Y-78625928D01*
X134175500Y-78625928D01*
X134051018Y-78638188D01*
X133931320Y-78674498D01*
X133821006Y-78733463D01*
X133724315Y-78812815D01*
X133644963Y-78909506D01*
X133600095Y-78993446D01*
X133474235Y-78890155D01*
X133198449Y-78742745D01*
X132899204Y-78651970D01*
X132588000Y-78621319D01*
X132276797Y-78651970D01*
X131977552Y-78742745D01*
X131701766Y-78890155D01*
X131460037Y-79088537D01*
X131318000Y-79261609D01*
X131175963Y-79088537D01*
X130934235Y-78890155D01*
X130658449Y-78742745D01*
X130359204Y-78651970D01*
X130048000Y-78621319D01*
X129736797Y-78651970D01*
X129437552Y-78742745D01*
X129161766Y-78890155D01*
X128920037Y-79088537D01*
X128886830Y-79129000D01*
X124333000Y-79129000D01*
X124333000Y-78516000D01*
X148175928Y-78516000D01*
X148188188Y-78640482D01*
X148224498Y-78760180D01*
X148283463Y-78870494D01*
X148362815Y-78967185D01*
X148459506Y-79046537D01*
X148569820Y-79105502D01*
X148689518Y-79141812D01*
X148814000Y-79154072D01*
X149828250Y-79151000D01*
X149987000Y-78992250D01*
X149987000Y-77343000D01*
X150241000Y-77343000D01*
X150241000Y-78992250D01*
X150399750Y-79151000D01*
X151414000Y-79154072D01*
X151538482Y-79141812D01*
X151658180Y-79105502D01*
X151768494Y-79046537D01*
X151865185Y-78967185D01*
X151944537Y-78870494D01*
X152003502Y-78760180D01*
X152039812Y-78640482D01*
X152052072Y-78516000D01*
X152049000Y-77501750D01*
X151890250Y-77343000D01*
X150241000Y-77343000D01*
X149987000Y-77343000D01*
X148337750Y-77343000D01*
X148179000Y-77501750D01*
X148175928Y-78516000D01*
X124333000Y-78516000D01*
X124333000Y-75692328D01*
X124346769Y-75587743D01*
X124383923Y-75498045D01*
X124443024Y-75421024D01*
X124520045Y-75361923D01*
X124609743Y-75324769D01*
X124714328Y-75311000D01*
X148620910Y-75311000D01*
X148569820Y-75326498D01*
G04 #@! TA.AperFunction,Conductor*
D26*
G36*
X148569820Y-75326498D02*
G01*
X148459506Y-75385463D01*
X148362815Y-75464815D01*
X148283463Y-75561506D01*
X148224498Y-75671820D01*
X148188188Y-75791518D01*
X148175928Y-75916000D01*
X148179000Y-76930250D01*
X148337750Y-77089000D01*
X149987000Y-77089000D01*
X149987000Y-77069000D01*
X150241000Y-77069000D01*
X150241000Y-77089000D01*
X151890250Y-77089000D01*
X152049000Y-76930250D01*
X152052072Y-75916000D01*
X152039812Y-75791518D01*
X152003502Y-75671820D01*
X151944537Y-75561506D01*
X151865185Y-75464815D01*
X151768494Y-75385463D01*
X151658180Y-75326498D01*
X151607090Y-75311000D01*
X154177672Y-75311000D01*
X154282257Y-75324769D01*
X154371955Y-75361923D01*
X154448976Y-75421024D01*
X154508077Y-75498045D01*
X154534000Y-75560630D01*
X154534001Y-105033369D01*
X154508077Y-105095955D01*
X154448976Y-105172976D01*
X154371955Y-105232077D01*
X154282257Y-105269231D01*
X154177672Y-105283000D01*
X150474558Y-105283000D01*
X150542951Y-105274457D01*
X150904690Y-105154333D01*
X151151683Y-105022312D01*
X151283619Y-104727224D01*
X150114000Y-103557605D01*
X148944381Y-104727224D01*
X149076317Y-105022312D01*
X149417045Y-105193159D01*
X149743658Y-105283000D01*
X124714328Y-105283000D01*
X124609743Y-105269231D01*
X124520045Y-105232077D01*
X124443024Y-105172976D01*
X124383923Y-105095955D01*
X124346769Y-105006257D01*
X124333000Y-104901672D01*
X124333000Y-103428729D01*
X148170299Y-103428729D01*
X148217543Y-103806951D01*
X148337667Y-104168690D01*
X148469688Y-104415683D01*
X148764776Y-104547619D01*
X149934395Y-103378000D01*
X150293605Y-103378000D01*
X151463224Y-104547619D01*
X151758312Y-104415683D01*
X151929159Y-104074955D01*
X152030250Y-103707443D01*
X152057701Y-103327271D01*
X152010457Y-102949049D01*
X151890333Y-102587310D01*
X151758312Y-102340317D01*
X151463224Y-102208381D01*
X150293605Y-103378000D01*
X149934395Y-103378000D01*
X148764776Y-102208381D01*
X148469688Y-102340317D01*
X148298841Y-102681045D01*
X148197750Y-103048557D01*
X148170299Y-103428729D01*
X124333000Y-103428729D01*
X124333000Y-102028776D01*
X148944381Y-102028776D01*
X150114000Y-103198395D01*
X151283619Y-102028776D01*
X151151683Y-101733688D01*
X150810955Y-101562841D01*
X150443443Y-101461750D01*
X150063271Y-101434299D01*
X149685049Y-101481543D01*
X149323310Y-101601667D01*
X149076317Y-101733688D01*
X148944381Y-102028776D01*
X124333000Y-102028776D01*
X124333000Y-99687000D01*
X128457428Y-99687000D01*
X128457428Y-101330000D01*
X128469688Y-101454482D01*
X128505998Y-101574180D01*
X128564963Y-101684494D01*
X128644315Y-101781185D01*
X128741006Y-101860537D01*
X128851320Y-101919502D01*
X128971018Y-101955812D01*
X129095500Y-101968072D01*
X131000500Y-101968072D01*
X131124982Y-101955812D01*
X131244680Y-101919502D01*
X131354994Y-101860537D01*
X131451685Y-101781185D01*
X131531037Y-101684494D01*
X131575905Y-101600553D01*
X131701766Y-101703845D01*
X131977552Y-101851255D01*
X132276797Y-101942030D01*
X132588000Y-101972681D01*
X132899204Y-101942030D01*
X133198449Y-101851255D01*
X133474235Y-101703845D01*
X133715963Y-101505463D01*
X133858000Y-101332391D01*
X134000037Y-101505463D01*
X134241766Y-101703845D01*
X134517552Y-101851255D01*
X134816797Y-101942030D01*
X135128000Y-101972681D01*
X135439204Y-101942030D01*
X135738449Y-101851255D01*
X136014235Y-101703845D01*
X136255963Y-101505463D01*
X136454345Y-101263734D01*
X136601755Y-100987948D01*
X136692530Y-100688703D01*
X136715500Y-100455485D01*
X136715500Y-100204514D01*
X136692530Y-99971296D01*
X136601755Y-99672051D01*
X136454345Y-99396265D01*
X136263000Y-99163112D01*
X136263000Y-97752131D01*
X138678132Y-95337000D01*
X142625716Y-95337000D01*
X142830273Y-95473680D01*
X143091426Y-95581853D01*
X143368665Y-95637000D01*
X143651335Y-95637000D01*
X143928574Y-95581853D01*
X144189727Y-95473680D01*
X144394284Y-95337000D01*
X146026249Y-95337000D01*
X146082000Y-95342491D01*
X146137751Y-95337000D01*
X146137752Y-95337000D01*
X146304499Y-95320577D01*
X146518447Y-95255676D01*
X146715623Y-95150284D01*
X146888449Y-95008449D01*
X146923996Y-94965135D01*
X147734132Y-94155000D01*
X149173447Y-94155000D01*
X149196662Y-94189744D01*
X149452256Y-94445338D01*
X149487000Y-94468554D01*
X149487000Y-94681928D01*
X149422000Y-94681928D01*
X149297518Y-94694188D01*
X149177820Y-94730498D01*
X149067506Y-94789463D01*
X148970815Y-94868815D01*
X148891463Y-94965506D01*
X148832498Y-95075820D01*
X148796188Y-95195518D01*
X148783928Y-95320000D01*
X148783928Y-97720000D01*
X148796188Y-97844482D01*
X148832498Y-97964180D01*
X148891463Y-98074494D01*
X148970815Y-98171185D01*
X149067506Y-98250537D01*
X149177820Y-98309502D01*
X149297518Y-98345812D01*
X149422000Y-98358072D01*
X151822000Y-98358072D01*
X151946482Y-98345812D01*
X152066180Y-98309502D01*
X152176494Y-98250537D01*
X152273185Y-98171185D01*
X152352537Y-98074494D01*
X152411502Y-97964180D01*
X152447812Y-97844482D01*
X152460072Y-97720000D01*
X152460072Y-95320000D01*
X152447812Y-95195518D01*
X152411502Y-95075820D01*
X152352537Y-94965506D01*
X152273185Y-94868815D01*
X152176494Y-94789463D01*
X152066180Y-94730498D01*
X151946482Y-94694188D01*
X151822000Y-94681928D01*
X151757000Y-94681928D01*
X151757000Y-94468553D01*
X151791744Y-94445338D01*
X152047338Y-94189744D01*
X152248156Y-93889199D01*
X152386482Y-93555250D01*
X152457000Y-93200732D01*
X152457000Y-92839268D01*
X152386482Y-92484750D01*
X152248156Y-92150801D01*
X152047338Y-91850256D01*
X151791744Y-91594662D01*
X151491199Y-91393844D01*
X151157250Y-91255518D01*
X150802732Y-91185000D01*
X150441268Y-91185000D01*
X150086750Y-91255518D01*
X149752801Y-91393844D01*
X149452256Y-91594662D01*
X149196662Y-91850256D01*
X149173447Y-91885000D01*
X147319741Y-91885000D01*
X147263999Y-91879510D01*
X147208257Y-91885000D01*
X147208248Y-91885000D01*
X147041501Y-91901423D01*
X146827553Y-91966324D01*
X146630377Y-92071716D01*
X146457551Y-92213551D01*
X146422008Y-92256860D01*
X145611869Y-93067000D01*
X144941670Y-93067000D01*
X144948072Y-93002000D01*
X144945000Y-92487750D01*
X144786250Y-92329000D01*
X143637000Y-92329000D01*
X143637000Y-92349000D01*
X143383000Y-92349000D01*
X143383000Y-92329000D01*
X142233750Y-92329000D01*
X142075000Y-92487750D01*
X142071928Y-93002000D01*
X142078330Y-93067000D01*
X138263752Y-93067000D01*
X138208000Y-93061509D01*
X138152248Y-93067000D01*
X137985501Y-93083423D01*
X137771553Y-93148324D01*
X137574377Y-93253716D01*
X137401551Y-93395551D01*
X137366011Y-93438857D01*
X134364860Y-96440009D01*
X134321552Y-96475551D01*
X134179717Y-96648377D01*
X134129408Y-96742499D01*
X134074324Y-96845554D01*
X134009423Y-97059502D01*
X133987509Y-97282000D01*
X133993001Y-97337761D01*
X133993000Y-99163111D01*
X133858000Y-99327609D01*
X133715963Y-99154537D01*
X133494062Y-98972427D01*
X133394449Y-98851049D01*
X133351140Y-98815506D01*
X132324498Y-97788864D01*
X132288951Y-97745551D01*
X132116125Y-97603716D01*
X131918949Y-97498324D01*
X131705001Y-97433423D01*
X131538254Y-97417000D01*
X131538253Y-97417000D01*
X131482502Y-97411509D01*
X131426751Y-97417000D01*
X124333000Y-97417000D01*
X124333000Y-92656361D01*
X124602548Y-92458088D01*
X124962849Y-91794118D01*
X125186694Y-91072615D01*
X125265480Y-90321305D01*
X125255042Y-90208000D01*
X128101928Y-90208000D01*
X128114188Y-90332482D01*
X128150498Y-90452180D01*
X128209463Y-90562494D01*
X128288815Y-90659185D01*
X128305393Y-90672790D01*
X128268320Y-90728273D01*
X128160147Y-90989426D01*
X128105000Y-91266665D01*
X128105000Y-91549335D01*
X128160147Y-91826574D01*
X128268320Y-92087727D01*
X128425363Y-92322759D01*
X128625241Y-92522637D01*
X128860273Y-92679680D01*
X129121426Y-92787853D01*
X129398665Y-92843000D01*
X129681335Y-92843000D01*
X129958574Y-92787853D01*
X130219727Y-92679680D01*
X130454759Y-92522637D01*
X130576694Y-92400702D01*
X134822903Y-92400702D01*
X134894486Y-92644671D01*
X135149996Y-92765571D01*
X135424184Y-92834300D01*
X135706512Y-92848217D01*
X135986130Y-92806787D01*
X136252292Y-92711603D01*
X136377514Y-92644671D01*
X136449097Y-92400702D01*
X135636000Y-91587605D01*
X134822903Y-92400702D01*
X130576694Y-92400702D01*
X130654637Y-92322759D01*
X130811680Y-92087727D01*
X130919853Y-91826574D01*
X130975000Y-91549335D01*
X130975000Y-91478512D01*
X134195783Y-91478512D01*
X134237213Y-91758130D01*
X134332397Y-92024292D01*
X134399329Y-92149514D01*
X134643298Y-92221097D01*
X135456395Y-91408000D01*
X135442253Y-91393858D01*
X135621858Y-91214253D01*
X135636000Y-91228395D01*
X135650143Y-91214253D01*
X135829748Y-91393858D01*
X135815605Y-91408000D01*
X136628702Y-92221097D01*
X136872671Y-92149514D01*
X136993571Y-91894004D01*
X137062300Y-91619816D01*
X137073036Y-91402000D01*
X142071928Y-91402000D01*
X142075000Y-91916250D01*
X142233750Y-92075000D01*
X143383000Y-92075000D01*
X143383000Y-90925750D01*
X143637000Y-90925750D01*
X143637000Y-92075000D01*
X144786250Y-92075000D01*
X144945000Y-91916250D01*
X144948072Y-91402000D01*
X144935812Y-91277518D01*
X144899502Y-91157820D01*
X144840537Y-91047506D01*
X144761185Y-90950815D01*
X144664494Y-90871463D01*
X144554180Y-90812498D01*
X144434482Y-90776188D01*
X144310000Y-90763928D01*
X143795750Y-90767000D01*
X143637000Y-90925750D01*
X143383000Y-90925750D01*
X143224250Y-90767000D01*
X142710000Y-90763928D01*
X142585518Y-90776188D01*
X142465820Y-90812498D01*
X142355506Y-90871463D01*
X142258815Y-90950815D01*
X142179463Y-91047506D01*
X142120498Y-91157820D01*
X142084188Y-91277518D01*
X142071928Y-91402000D01*
X137073036Y-91402000D01*
X137076217Y-91337488D01*
X137034787Y-91057870D01*
X136939603Y-90791708D01*
X136874384Y-90669691D01*
X136887185Y-90659185D01*
X136966537Y-90562494D01*
X137025502Y-90452180D01*
X137061812Y-90332482D01*
X137074072Y-90208000D01*
X137074072Y-89606702D01*
X142696903Y-89606702D01*
X142768486Y-89850671D01*
X143023996Y-89971571D01*
X143298184Y-90040300D01*
X143580512Y-90054217D01*
X143860130Y-90012787D01*
X144126292Y-89917603D01*
X144251514Y-89850671D01*
X144323097Y-89606702D01*
X143510000Y-88793605D01*
X142696903Y-89606702D01*
X137074072Y-89606702D01*
X137074072Y-88608000D01*
X137061812Y-88483518D01*
X137025502Y-88363820D01*
X136966537Y-88253506D01*
X136887185Y-88156815D01*
X136790494Y-88077463D01*
X136680180Y-88018498D01*
X136560482Y-87982188D01*
X136436000Y-87969928D01*
X134836000Y-87969928D01*
X134711518Y-87982188D01*
X134591820Y-88018498D01*
X134481506Y-88077463D01*
X134384815Y-88156815D01*
X134305463Y-88253506D01*
X134246498Y-88363820D01*
X134210188Y-88483518D01*
X134197928Y-88608000D01*
X134197928Y-90208000D01*
X134210188Y-90332482D01*
X134246498Y-90452180D01*
X134305463Y-90562494D01*
X134384815Y-90659185D01*
X134397758Y-90669807D01*
X134278429Y-90921996D01*
X134209700Y-91196184D01*
X134195783Y-91478512D01*
X130975000Y-91478512D01*
X130975000Y-91266665D01*
X130919853Y-90989426D01*
X130811680Y-90728273D01*
X130774607Y-90672790D01*
X130791185Y-90659185D01*
X130870537Y-90562494D01*
X130929502Y-90452180D01*
X130965812Y-90332482D01*
X130978072Y-90208000D01*
X130975000Y-89693750D01*
X130816250Y-89535000D01*
X129667000Y-89535000D01*
X129667000Y-89555000D01*
X129413000Y-89555000D01*
X129413000Y-89535000D01*
X128263750Y-89535000D01*
X128105000Y-89693750D01*
X128101928Y-90208000D01*
X125255042Y-90208000D01*
X125196178Y-89569062D01*
X124981452Y-88844792D01*
X124856799Y-88608000D01*
X128101928Y-88608000D01*
X128105000Y-89122250D01*
X128263750Y-89281000D01*
X129413000Y-89281000D01*
X129413000Y-88131750D01*
X129667000Y-88131750D01*
X129667000Y-89281000D01*
X130816250Y-89281000D01*
X130975000Y-89122250D01*
X130978072Y-88608000D01*
X130965812Y-88483518D01*
X130929502Y-88363820D01*
X130870537Y-88253506D01*
X130791185Y-88156815D01*
X130694494Y-88077463D01*
X130584180Y-88018498D01*
X130464482Y-87982188D01*
X130340000Y-87969928D01*
X129825750Y-87973000D01*
X129667000Y-88131750D01*
X129413000Y-88131750D01*
X129254250Y-87973000D01*
X128740000Y-87969928D01*
X128615518Y-87982188D01*
X128495820Y-88018498D01*
X128385506Y-88077463D01*
X128288815Y-88156815D01*
X128209463Y-88253506D01*
X128150498Y-88363820D01*
X128114188Y-88483518D01*
X128101928Y-88608000D01*
X124856799Y-88608000D01*
X124629555Y-88176330D01*
X124602548Y-88135912D01*
X124333000Y-87937639D01*
X124333000Y-81399000D01*
X128886830Y-81399000D01*
X128920037Y-81439463D01*
X129161765Y-81637845D01*
X129437551Y-81785255D01*
X129736796Y-81876030D01*
X130048000Y-81906681D01*
X130359203Y-81876030D01*
X130658448Y-81785255D01*
X130934234Y-81637845D01*
X131175963Y-81439463D01*
X131318000Y-81266391D01*
X131460037Y-81439463D01*
X131681943Y-81621577D01*
X131781552Y-81742951D01*
X131824860Y-81778493D01*
X137423511Y-87377146D01*
X137459049Y-87420449D01*
X137502352Y-87455987D01*
X137502354Y-87455989D01*
X137631875Y-87562284D01*
X137829051Y-87667676D01*
X138042999Y-87732577D01*
X138265498Y-87754491D01*
X138321250Y-87749000D01*
X142169043Y-87749000D01*
X142179463Y-87768494D01*
X142258815Y-87865185D01*
X142271758Y-87875807D01*
X142152429Y-88127996D01*
X142083700Y-88402184D01*
X142069783Y-88684512D01*
X142111213Y-88964130D01*
X142206397Y-89230292D01*
X142273329Y-89355514D01*
X142517298Y-89427097D01*
X143330395Y-88614000D01*
X143316253Y-88599858D01*
X143495858Y-88420253D01*
X143510000Y-88434395D01*
X143524143Y-88420253D01*
X143703748Y-88599858D01*
X143689605Y-88614000D01*
X144502702Y-89427097D01*
X144746671Y-89355514D01*
X144867571Y-89100004D01*
X144936300Y-88825816D01*
X144950217Y-88543488D01*
X144908787Y-88263870D01*
X144813603Y-87997708D01*
X144748384Y-87875691D01*
X144761185Y-87865185D01*
X144840537Y-87768494D01*
X144850957Y-87749000D01*
X145579869Y-87749000D01*
X146224008Y-88393140D01*
X146259551Y-88436449D01*
X146432377Y-88578284D01*
X146629553Y-88683676D01*
X146843501Y-88748577D01*
X147066000Y-88770491D01*
X147121751Y-88765000D01*
X148783928Y-88765000D01*
X148783928Y-88830000D01*
X148796188Y-88954482D01*
X148832498Y-89074180D01*
X148891463Y-89184494D01*
X148970815Y-89281185D01*
X149067506Y-89360537D01*
X149177820Y-89419502D01*
X149297518Y-89455812D01*
X149422000Y-89468072D01*
X151822000Y-89468072D01*
X151946482Y-89455812D01*
X152066180Y-89419502D01*
X152176494Y-89360537D01*
X152273185Y-89281185D01*
X152352537Y-89184494D01*
X152411502Y-89074180D01*
X152447812Y-88954482D01*
X152460072Y-88830000D01*
X152460072Y-86430000D01*
X152447812Y-86305518D01*
X152411502Y-86185820D01*
X152352537Y-86075506D01*
X152273185Y-85978815D01*
X152176494Y-85899463D01*
X152066180Y-85840498D01*
X151946482Y-85804188D01*
X151822000Y-85791928D01*
X151757000Y-85791928D01*
X151757000Y-85578553D01*
X151791744Y-85555338D01*
X152047338Y-85299744D01*
X152248156Y-84999199D01*
X152386482Y-84665250D01*
X152457000Y-84310732D01*
X152457000Y-83949268D01*
X152386482Y-83594750D01*
X152248156Y-83260801D01*
X152047338Y-82960256D01*
X151791744Y-82704662D01*
X151491199Y-82503844D01*
X151157250Y-82365518D01*
X150802732Y-82295000D01*
X150441268Y-82295000D01*
X150086750Y-82365518D01*
X149752801Y-82503844D01*
X149452256Y-82704662D01*
X149196662Y-82960256D01*
X148995844Y-83260801D01*
X148857518Y-83594750D01*
X148787000Y-83949268D01*
X148787000Y-84310732D01*
X148857518Y-84665250D01*
X148995844Y-84999199D01*
X149196662Y-85299744D01*
X149452256Y-85555338D01*
X149487001Y-85578554D01*
X149487001Y-85791928D01*
X149422000Y-85791928D01*
X149297518Y-85804188D01*
X149177820Y-85840498D01*
X149067506Y-85899463D01*
X148970815Y-85978815D01*
X148891463Y-86075506D01*
X148832498Y-86185820D01*
X148796188Y-86305518D01*
X148783928Y-86430000D01*
X148783928Y-86495000D01*
X147536132Y-86495000D01*
X146891996Y-85850864D01*
X146856449Y-85807551D01*
X146683623Y-85665716D01*
X146486447Y-85560324D01*
X146272499Y-85495423D01*
X146105752Y-85479000D01*
X146105751Y-85479000D01*
X146050000Y-85473509D01*
X145994249Y-85479000D01*
X144850957Y-85479000D01*
X144840537Y-85459506D01*
X144761185Y-85362815D01*
X144664494Y-85283463D01*
X144554180Y-85224498D01*
X144434482Y-85188188D01*
X144310000Y-85175928D01*
X142710000Y-85175928D01*
X142585518Y-85188188D01*
X142465820Y-85224498D01*
X142355506Y-85283463D01*
X142258815Y-85362815D01*
X142179463Y-85459506D01*
X142169043Y-85479000D01*
X138735631Y-85479000D01*
X135158702Y-81902072D01*
X136080500Y-81902072D01*
X136204982Y-81889812D01*
X136324680Y-81853502D01*
X136434994Y-81794537D01*
X136531685Y-81715185D01*
X136611037Y-81618494D01*
X136670002Y-81508180D01*
X136706312Y-81388482D01*
X136718572Y-81264000D01*
X136718572Y-79264000D01*
X136706312Y-79139518D01*
X136670002Y-79019820D01*
X136611037Y-78909506D01*
X136531685Y-78812815D01*
X136434994Y-78733463D01*
X136324680Y-78674498D01*
X136204982Y-78638188D01*
X136080500Y-78625928D01*
X134175500Y-78625928D01*
X134051018Y-78638188D01*
X133931320Y-78674498D01*
X133821006Y-78733463D01*
X133724315Y-78812815D01*
X133644963Y-78909506D01*
X133600095Y-78993446D01*
X133474235Y-78890155D01*
X133198449Y-78742745D01*
X132899204Y-78651970D01*
X132588000Y-78621319D01*
X132276797Y-78651970D01*
X131977552Y-78742745D01*
X131701766Y-78890155D01*
X131460037Y-79088537D01*
X131318000Y-79261609D01*
X131175963Y-79088537D01*
X130934235Y-78890155D01*
X130658449Y-78742745D01*
X130359204Y-78651970D01*
X130048000Y-78621319D01*
X129736797Y-78651970D01*
X129437552Y-78742745D01*
X129161766Y-78890155D01*
X128920037Y-79088537D01*
X128886830Y-79129000D01*
X124333000Y-79129000D01*
X124333000Y-78516000D01*
X148175928Y-78516000D01*
X148188188Y-78640482D01*
X148224498Y-78760180D01*
X148283463Y-78870494D01*
X148362815Y-78967185D01*
X148459506Y-79046537D01*
X148569820Y-79105502D01*
X148689518Y-79141812D01*
X148814000Y-79154072D01*
X149828250Y-79151000D01*
X149987000Y-78992250D01*
X149987000Y-77343000D01*
X150241000Y-77343000D01*
X150241000Y-78992250D01*
X150399750Y-79151000D01*
X151414000Y-79154072D01*
X151538482Y-79141812D01*
X151658180Y-79105502D01*
X151768494Y-79046537D01*
X151865185Y-78967185D01*
X151944537Y-78870494D01*
X152003502Y-78760180D01*
X152039812Y-78640482D01*
X152052072Y-78516000D01*
X152049000Y-77501750D01*
X151890250Y-77343000D01*
X150241000Y-77343000D01*
X149987000Y-77343000D01*
X148337750Y-77343000D01*
X148179000Y-77501750D01*
X148175928Y-78516000D01*
X124333000Y-78516000D01*
X124333000Y-75692328D01*
X124346769Y-75587743D01*
X124383923Y-75498045D01*
X124443024Y-75421024D01*
X124520045Y-75361923D01*
X124609743Y-75324769D01*
X124714328Y-75311000D01*
X148620910Y-75311000D01*
X148569820Y-75326498D01*
G37*
G04 #@! TD.AperFunction*
M02*
