G04 #@! TF.GenerationSoftware,KiCad,Pcbnew,5.1.9*
G04 #@! TF.CreationDate,2021-04-19T04:00:47-04:00*
G04 #@! TF.ProjectId,lm3886_psu,6c6d3338-3836-45f7-9073-752e6b696361,rev?*
G04 #@! TF.SameCoordinates,Original*
G04 #@! TF.FileFunction,Legend,Top*
G04 #@! TF.FilePolarity,Positive*
%FSLAX46Y46*%
G04 Gerber Fmt 4.6, Leading zero omitted, Abs format (unit mm)*
G04 Created by KiCad (PCBNEW 5.1.9) date 2021-04-19 04:00:47*
%MOMM*%
%LPD*%
G01*
G04 APERTURE LIST*
%ADD10C,0.150000*%
%ADD11C,0.120000*%
G04 APERTURE END LIST*
D10*
X125508857Y-123071476D02*
X125413619Y-123023857D01*
X125223142Y-123023857D01*
X125127904Y-123071476D01*
X125032666Y-123166714D01*
X124985047Y-123261952D01*
X124985047Y-123452428D01*
X125032666Y-123547666D01*
X125127904Y-123642904D01*
X125223142Y-123690523D01*
X125413619Y-123690523D01*
X125508857Y-123642904D01*
X125318380Y-122690523D02*
X125080285Y-122738142D01*
X124842190Y-122881000D01*
X124699333Y-123119095D01*
X124651714Y-123357190D01*
X124699333Y-123595285D01*
X124842190Y-123833380D01*
X125080285Y-123976238D01*
X125318380Y-124023857D01*
X125556476Y-123976238D01*
X125794571Y-123833380D01*
X125937428Y-123595285D01*
X125985047Y-123357190D01*
X125937428Y-123119095D01*
X125794571Y-122881000D01*
X125556476Y-122738142D01*
X125318380Y-122690523D01*
X127175523Y-123833380D02*
X127175523Y-122833380D01*
X127508857Y-123547666D01*
X127842190Y-122833380D01*
X127842190Y-123833380D01*
X128318380Y-123833380D02*
X128318380Y-123166714D01*
X128318380Y-122833380D02*
X128270761Y-122881000D01*
X128318380Y-122928619D01*
X128366000Y-122881000D01*
X128318380Y-122833380D01*
X128318380Y-122928619D01*
X129223142Y-123785761D02*
X129127904Y-123833380D01*
X128937428Y-123833380D01*
X128842190Y-123785761D01*
X128794571Y-123738142D01*
X128746952Y-123642904D01*
X128746952Y-123357190D01*
X128794571Y-123261952D01*
X128842190Y-123214333D01*
X128937428Y-123166714D01*
X129127904Y-123166714D01*
X129223142Y-123214333D01*
X129651714Y-123833380D02*
X129651714Y-122833380D01*
X130080285Y-123833380D02*
X130080285Y-123309571D01*
X130032666Y-123214333D01*
X129937428Y-123166714D01*
X129794571Y-123166714D01*
X129699333Y-123214333D01*
X129651714Y-123261952D01*
X130985047Y-123833380D02*
X130985047Y-123309571D01*
X130937428Y-123214333D01*
X130842190Y-123166714D01*
X130651714Y-123166714D01*
X130556476Y-123214333D01*
X130985047Y-123785761D02*
X130889809Y-123833380D01*
X130651714Y-123833380D01*
X130556476Y-123785761D01*
X130508857Y-123690523D01*
X130508857Y-123595285D01*
X130556476Y-123500047D01*
X130651714Y-123452428D01*
X130889809Y-123452428D01*
X130985047Y-123404809D01*
X131842190Y-123785761D02*
X131746952Y-123833380D01*
X131556476Y-123833380D01*
X131461238Y-123785761D01*
X131413619Y-123690523D01*
X131413619Y-123309571D01*
X131461238Y-123214333D01*
X131556476Y-123166714D01*
X131746952Y-123166714D01*
X131842190Y-123214333D01*
X131889809Y-123309571D01*
X131889809Y-123404809D01*
X131413619Y-123500047D01*
X132461238Y-123833380D02*
X132366000Y-123785761D01*
X132318380Y-123690523D01*
X132318380Y-122833380D01*
X133937428Y-123309571D02*
X134080285Y-123357190D01*
X134127904Y-123404809D01*
X134175523Y-123500047D01*
X134175523Y-123642904D01*
X134127904Y-123738142D01*
X134080285Y-123785761D01*
X133985047Y-123833380D01*
X133604095Y-123833380D01*
X133604095Y-122833380D01*
X133937428Y-122833380D01*
X134032666Y-122881000D01*
X134080285Y-122928619D01*
X134127904Y-123023857D01*
X134127904Y-123119095D01*
X134080285Y-123214333D01*
X134032666Y-123261952D01*
X133937428Y-123309571D01*
X133604095Y-123309571D01*
X135032666Y-123833380D02*
X135032666Y-123309571D01*
X134985047Y-123214333D01*
X134889809Y-123166714D01*
X134699333Y-123166714D01*
X134604095Y-123214333D01*
X135032666Y-123785761D02*
X134937428Y-123833380D01*
X134699333Y-123833380D01*
X134604095Y-123785761D01*
X134556476Y-123690523D01*
X134556476Y-123595285D01*
X134604095Y-123500047D01*
X134699333Y-123452428D01*
X134937428Y-123452428D01*
X135032666Y-123404809D01*
X135508857Y-123833380D02*
X135508857Y-123166714D01*
X135508857Y-123357190D02*
X135556476Y-123261952D01*
X135604095Y-123214333D01*
X135699333Y-123166714D01*
X135794571Y-123166714D01*
X136127904Y-123833380D02*
X136127904Y-122833380D01*
X136127904Y-123214333D02*
X136223142Y-123166714D01*
X136413619Y-123166714D01*
X136508857Y-123214333D01*
X136556476Y-123261952D01*
X136604095Y-123357190D01*
X136604095Y-123642904D01*
X136556476Y-123738142D01*
X136508857Y-123785761D01*
X136413619Y-123833380D01*
X136223142Y-123833380D01*
X136127904Y-123785761D01*
X137175523Y-123833380D02*
X137080285Y-123785761D01*
X137032666Y-123738142D01*
X136985047Y-123642904D01*
X136985047Y-123357190D01*
X137032666Y-123261952D01*
X137080285Y-123214333D01*
X137175523Y-123166714D01*
X137318380Y-123166714D01*
X137413619Y-123214333D01*
X137461238Y-123261952D01*
X137508857Y-123357190D01*
X137508857Y-123642904D01*
X137461238Y-123738142D01*
X137413619Y-123785761D01*
X137318380Y-123833380D01*
X137175523Y-123833380D01*
X138366000Y-123166714D02*
X138366000Y-123833380D01*
X137937428Y-123166714D02*
X137937428Y-123690523D01*
X137985047Y-123785761D01*
X138080285Y-123833380D01*
X138223142Y-123833380D01*
X138318380Y-123785761D01*
X138366000Y-123738142D01*
X138842190Y-123833380D02*
X138842190Y-123166714D01*
X138842190Y-123357190D02*
X138889809Y-123261952D01*
X138937428Y-123214333D01*
X139032666Y-123166714D01*
X139127904Y-123166714D01*
X139508857Y-123785761D02*
X139508857Y-123833380D01*
X139461238Y-123928619D01*
X139413619Y-123976238D01*
X140651714Y-122928619D02*
X140699333Y-122881000D01*
X140794571Y-122833380D01*
X141032666Y-122833380D01*
X141127904Y-122881000D01*
X141175523Y-122928619D01*
X141223142Y-123023857D01*
X141223142Y-123119095D01*
X141175523Y-123261952D01*
X140604095Y-123833380D01*
X141223142Y-123833380D01*
X141842190Y-122833380D02*
X141937428Y-122833380D01*
X142032666Y-122881000D01*
X142080285Y-122928619D01*
X142127904Y-123023857D01*
X142175523Y-123214333D01*
X142175523Y-123452428D01*
X142127904Y-123642904D01*
X142080285Y-123738142D01*
X142032666Y-123785761D01*
X141937428Y-123833380D01*
X141842190Y-123833380D01*
X141746952Y-123785761D01*
X141699333Y-123738142D01*
X141651714Y-123642904D01*
X141604095Y-123452428D01*
X141604095Y-123214333D01*
X141651714Y-123023857D01*
X141699333Y-122928619D01*
X141746952Y-122881000D01*
X141842190Y-122833380D01*
X142556476Y-122928619D02*
X142604095Y-122881000D01*
X142699333Y-122833380D01*
X142937428Y-122833380D01*
X143032666Y-122881000D01*
X143080285Y-122928619D01*
X143127904Y-123023857D01*
X143127904Y-123119095D01*
X143080285Y-123261952D01*
X142508857Y-123833380D01*
X143127904Y-123833380D01*
X143746952Y-122833380D02*
X143842190Y-122833380D01*
X143937428Y-122881000D01*
X143985047Y-122928619D01*
X144032666Y-123023857D01*
X144080285Y-123214333D01*
X144080285Y-123452428D01*
X144032666Y-123642904D01*
X143985047Y-123738142D01*
X143937428Y-123785761D01*
X143842190Y-123833380D01*
X143746952Y-123833380D01*
X143651714Y-123785761D01*
X143604095Y-123738142D01*
X143556476Y-123642904D01*
X143508857Y-123452428D01*
X143508857Y-123214333D01*
X143556476Y-123023857D01*
X143604095Y-122928619D01*
X143651714Y-122881000D01*
X143746952Y-122833380D01*
X129770761Y-125388142D02*
X129723142Y-125435761D01*
X129580285Y-125483380D01*
X129485047Y-125483380D01*
X129342190Y-125435761D01*
X129246952Y-125340523D01*
X129199333Y-125245285D01*
X129151714Y-125054809D01*
X129151714Y-124911952D01*
X129199333Y-124721476D01*
X129246952Y-124626238D01*
X129342190Y-124531000D01*
X129485047Y-124483380D01*
X129580285Y-124483380D01*
X129723142Y-124531000D01*
X129770761Y-124578619D01*
X130770761Y-125388142D02*
X130723142Y-125435761D01*
X130580285Y-125483380D01*
X130485047Y-125483380D01*
X130342190Y-125435761D01*
X130246952Y-125340523D01*
X130199333Y-125245285D01*
X130151714Y-125054809D01*
X130151714Y-124911952D01*
X130199333Y-124721476D01*
X130246952Y-124626238D01*
X130342190Y-124531000D01*
X130485047Y-124483380D01*
X130580285Y-124483380D01*
X130723142Y-124531000D01*
X130770761Y-124578619D01*
X132294571Y-124959571D02*
X132437428Y-125007190D01*
X132485047Y-125054809D01*
X132532666Y-125150047D01*
X132532666Y-125292904D01*
X132485047Y-125388142D01*
X132437428Y-125435761D01*
X132342190Y-125483380D01*
X131961238Y-125483380D01*
X131961238Y-124483380D01*
X132294571Y-124483380D01*
X132389809Y-124531000D01*
X132437428Y-124578619D01*
X132485047Y-124673857D01*
X132485047Y-124769095D01*
X132437428Y-124864333D01*
X132389809Y-124911952D01*
X132294571Y-124959571D01*
X131961238Y-124959571D01*
X133151714Y-125007190D02*
X133151714Y-125483380D01*
X132818380Y-124483380D02*
X133151714Y-125007190D01*
X133485047Y-124483380D01*
X133818380Y-125102428D02*
X134580285Y-125102428D01*
X135008857Y-125435761D02*
X135151714Y-125483380D01*
X135389809Y-125483380D01*
X135485047Y-125435761D01*
X135532666Y-125388142D01*
X135580285Y-125292904D01*
X135580285Y-125197666D01*
X135532666Y-125102428D01*
X135485047Y-125054809D01*
X135389809Y-125007190D01*
X135199333Y-124959571D01*
X135104095Y-124911952D01*
X135056476Y-124864333D01*
X135008857Y-124769095D01*
X135008857Y-124673857D01*
X135056476Y-124578619D01*
X135104095Y-124531000D01*
X135199333Y-124483380D01*
X135437428Y-124483380D01*
X135580285Y-124531000D01*
X135961238Y-125197666D02*
X136437428Y-125197666D01*
X135866000Y-125483380D02*
X136199333Y-124483380D01*
X136532666Y-125483380D01*
X138056476Y-124816714D02*
X138056476Y-125483380D01*
X137818380Y-124435761D02*
X137580285Y-125150047D01*
X138199333Y-125150047D01*
X138580285Y-125388142D02*
X138627904Y-125435761D01*
X138580285Y-125483380D01*
X138532666Y-125435761D01*
X138580285Y-125388142D01*
X138580285Y-125483380D01*
X139246952Y-124483380D02*
X139342190Y-124483380D01*
X139437428Y-124531000D01*
X139485047Y-124578619D01*
X139532666Y-124673857D01*
X139580285Y-124864333D01*
X139580285Y-125102428D01*
X139532666Y-125292904D01*
X139485047Y-125388142D01*
X139437428Y-125435761D01*
X139342190Y-125483380D01*
X139246952Y-125483380D01*
X139151714Y-125435761D01*
X139104095Y-125388142D01*
X139056476Y-125292904D01*
X139008857Y-125102428D01*
X139008857Y-124864333D01*
X139056476Y-124673857D01*
X139104095Y-124578619D01*
X139151714Y-124531000D01*
X139246952Y-124483380D01*
X119364380Y-85907571D02*
X119697714Y-85907571D01*
X119840571Y-86431380D02*
X119364380Y-86431380D01*
X119364380Y-85431380D01*
X119840571Y-85431380D01*
X120221523Y-86145666D02*
X120697714Y-86145666D01*
X120126285Y-86431380D02*
X120459619Y-85431380D01*
X120792952Y-86431380D01*
X121697714Y-86431380D02*
X121364380Y-85955190D01*
X121126285Y-86431380D02*
X121126285Y-85431380D01*
X121507238Y-85431380D01*
X121602476Y-85479000D01*
X121650095Y-85526619D01*
X121697714Y-85621857D01*
X121697714Y-85764714D01*
X121650095Y-85859952D01*
X121602476Y-85907571D01*
X121507238Y-85955190D01*
X121126285Y-85955190D01*
X121983428Y-85431380D02*
X122554857Y-85431380D01*
X122269142Y-86431380D02*
X122269142Y-85431380D01*
X122888190Y-86431380D02*
X122888190Y-85431380D01*
X122888190Y-85907571D02*
X123459619Y-85907571D01*
X123459619Y-86431380D02*
X123459619Y-85431380D01*
X145756380Y-99535904D02*
X146756380Y-99202571D01*
X145756380Y-98869238D01*
X146851619Y-98774000D02*
X146851619Y-98012095D01*
X146470666Y-97821619D02*
X146470666Y-97345428D01*
X146756380Y-97916857D02*
X145756380Y-97583523D01*
X146756380Y-97250190D01*
X145756380Y-96916857D02*
X146565904Y-96916857D01*
X146661142Y-96869238D01*
X146708761Y-96821619D01*
X146756380Y-96726380D01*
X146756380Y-96535904D01*
X146708761Y-96440666D01*
X146661142Y-96393047D01*
X146565904Y-96345428D01*
X145756380Y-96345428D01*
X145756380Y-95964476D02*
X146756380Y-95297809D01*
X145756380Y-95297809D02*
X146756380Y-95964476D01*
X146375428Y-94916857D02*
X146375428Y-94154952D01*
X145756380Y-86073904D02*
X146756380Y-85740571D01*
X145756380Y-85407238D01*
X146851619Y-85312000D02*
X146851619Y-84550095D01*
X146470666Y-84359619D02*
X146470666Y-83883428D01*
X146756380Y-84454857D02*
X145756380Y-84121523D01*
X146756380Y-83788190D01*
X145756380Y-83454857D02*
X146565904Y-83454857D01*
X146661142Y-83407238D01*
X146708761Y-83359619D01*
X146756380Y-83264380D01*
X146756380Y-83073904D01*
X146708761Y-82978666D01*
X146661142Y-82931047D01*
X146565904Y-82883428D01*
X145756380Y-82883428D01*
X145756380Y-82502476D02*
X146756380Y-81835809D01*
X145756380Y-81835809D02*
X146756380Y-82502476D01*
X146375428Y-81454857D02*
X146375428Y-80692952D01*
X146756380Y-81073904D02*
X145994476Y-81073904D01*
X144280000Y-104139904D02*
X144232380Y-104235142D01*
X144232380Y-104378000D01*
X144280000Y-104520857D01*
X144375238Y-104616095D01*
X144470476Y-104663714D01*
X144660952Y-104711333D01*
X144803809Y-104711333D01*
X144994285Y-104663714D01*
X145089523Y-104616095D01*
X145184761Y-104520857D01*
X145232380Y-104378000D01*
X145232380Y-104282761D01*
X145184761Y-104139904D01*
X145137142Y-104092285D01*
X144803809Y-104092285D01*
X144803809Y-104282761D01*
X145232380Y-103663714D02*
X144232380Y-103663714D01*
X145232380Y-103092285D01*
X144232380Y-103092285D01*
X145232380Y-102616095D02*
X144232380Y-102616095D01*
X144232380Y-102378000D01*
X144280000Y-102235142D01*
X144375238Y-102139904D01*
X144470476Y-102092285D01*
X144660952Y-102044666D01*
X144803809Y-102044666D01*
X144994285Y-102092285D01*
X145089523Y-102139904D01*
X145184761Y-102235142D01*
X145232380Y-102378000D01*
X145232380Y-102616095D01*
X145232380Y-114617333D02*
X144232380Y-114617333D01*
X144708571Y-114617333D02*
X144708571Y-114045904D01*
X145232380Y-114045904D02*
X144232380Y-114045904D01*
X144232380Y-113712571D02*
X145232380Y-113379238D01*
X144232380Y-113045904D01*
X144851428Y-112712571D02*
X144851428Y-111950666D01*
X145232380Y-109537333D02*
X144232380Y-109537333D01*
X144708571Y-109537333D02*
X144708571Y-108965904D01*
X145232380Y-108965904D02*
X144232380Y-108965904D01*
X144232380Y-108632571D02*
X145232380Y-108299238D01*
X144232380Y-107965904D01*
X144851428Y-107632571D02*
X144851428Y-106870666D01*
X144280000Y-77977904D02*
X144232380Y-78073142D01*
X144232380Y-78216000D01*
X144280000Y-78358857D01*
X144375238Y-78454095D01*
X144470476Y-78501714D01*
X144660952Y-78549333D01*
X144803809Y-78549333D01*
X144994285Y-78501714D01*
X145089523Y-78454095D01*
X145184761Y-78358857D01*
X145232380Y-78216000D01*
X145232380Y-78120761D01*
X145184761Y-77977904D01*
X145137142Y-77930285D01*
X144803809Y-77930285D01*
X144803809Y-78120761D01*
X145232380Y-77501714D02*
X144232380Y-77501714D01*
X145232380Y-76930285D01*
X144232380Y-76930285D01*
X145232380Y-76454095D02*
X144232380Y-76454095D01*
X144232380Y-76216000D01*
X144280000Y-76073142D01*
X144375238Y-75977904D01*
X144470476Y-75930285D01*
X144660952Y-75882666D01*
X144803809Y-75882666D01*
X144994285Y-75930285D01*
X145089523Y-75977904D01*
X145184761Y-76073142D01*
X145232380Y-76216000D01*
X145232380Y-76454095D01*
X145232380Y-73469333D02*
X144232380Y-73469333D01*
X144708571Y-73469333D02*
X144708571Y-72897904D01*
X145232380Y-72897904D02*
X144232380Y-72897904D01*
X144232380Y-72564571D02*
X145232380Y-72231238D01*
X144232380Y-71897904D01*
X144851428Y-71564571D02*
X144851428Y-70802666D01*
X145232380Y-71183619D02*
X144470476Y-71183619D01*
X145232380Y-68389333D02*
X144232380Y-68389333D01*
X144708571Y-68389333D02*
X144708571Y-67817904D01*
X145232380Y-67817904D02*
X144232380Y-67817904D01*
X144232380Y-67484571D02*
X145232380Y-67151238D01*
X144232380Y-66817904D01*
X144851428Y-66484571D02*
X144851428Y-65722666D01*
X145232380Y-66103619D02*
X144470476Y-66103619D01*
X89701619Y-92662380D02*
X89701619Y-92757619D01*
X89654000Y-92852857D01*
X89606380Y-92900476D01*
X89511142Y-92948095D01*
X89320666Y-92995714D01*
X89082571Y-92995714D01*
X88892095Y-92948095D01*
X88796857Y-92900476D01*
X88749238Y-92852857D01*
X88701619Y-92757619D01*
X88701619Y-92662380D01*
X88749238Y-92567142D01*
X88796857Y-92519523D01*
X88892095Y-92471904D01*
X89082571Y-92424285D01*
X89320666Y-92424285D01*
X89511142Y-92471904D01*
X89606380Y-92519523D01*
X89654000Y-92567142D01*
X89701619Y-92662380D01*
X89701619Y-87836380D02*
X89701619Y-87931619D01*
X89654000Y-88026857D01*
X89606380Y-88074476D01*
X89511142Y-88122095D01*
X89320666Y-88169714D01*
X89082571Y-88169714D01*
X88892095Y-88122095D01*
X88796857Y-88074476D01*
X88749238Y-88026857D01*
X88701619Y-87931619D01*
X88701619Y-87836380D01*
X88749238Y-87741142D01*
X88796857Y-87693523D01*
X88892095Y-87645904D01*
X89082571Y-87598285D01*
X89320666Y-87598285D01*
X89511142Y-87645904D01*
X89606380Y-87693523D01*
X89654000Y-87741142D01*
X89701619Y-87836380D01*
X88701619Y-96647142D02*
X89701619Y-96647142D01*
X88701619Y-97123333D02*
X89701619Y-97123333D01*
X88701619Y-97694761D01*
X89701619Y-97694761D01*
X89082571Y-98170952D02*
X89082571Y-98932857D01*
X88701619Y-81661142D02*
X89701619Y-81661142D01*
X88701619Y-82137333D02*
X89701619Y-82137333D01*
X88701619Y-82708761D01*
X89701619Y-82708761D01*
X89082571Y-83184952D02*
X89082571Y-83946857D01*
X88701619Y-83565904D02*
X89463523Y-83565904D01*
D11*
X146130000Y-93202000D02*
G75*
G03*
X146130000Y-93202000I-2620000J0D01*
G01*
X142470000Y-93202000D02*
X140930000Y-93202000D01*
X146090000Y-93202000D02*
X144550000Y-93202000D01*
X142470000Y-93242000D02*
X140930000Y-93242000D01*
X146090000Y-93242000D02*
X144550000Y-93242000D01*
X146089000Y-93282000D02*
X144550000Y-93282000D01*
X142470000Y-93282000D02*
X140931000Y-93282000D01*
X146088000Y-93322000D02*
X144550000Y-93322000D01*
X142470000Y-93322000D02*
X140932000Y-93322000D01*
X146086000Y-93362000D02*
X144550000Y-93362000D01*
X142470000Y-93362000D02*
X140934000Y-93362000D01*
X146083000Y-93402000D02*
X144550000Y-93402000D01*
X142470000Y-93402000D02*
X140937000Y-93402000D01*
X146079000Y-93442000D02*
X144550000Y-93442000D01*
X142470000Y-93442000D02*
X140941000Y-93442000D01*
X146075000Y-93482000D02*
X144550000Y-93482000D01*
X142470000Y-93482000D02*
X140945000Y-93482000D01*
X146071000Y-93522000D02*
X144550000Y-93522000D01*
X142470000Y-93522000D02*
X140949000Y-93522000D01*
X146066000Y-93562000D02*
X144550000Y-93562000D01*
X142470000Y-93562000D02*
X140954000Y-93562000D01*
X146060000Y-93602000D02*
X144550000Y-93602000D01*
X142470000Y-93602000D02*
X140960000Y-93602000D01*
X146053000Y-93642000D02*
X144550000Y-93642000D01*
X142470000Y-93642000D02*
X140967000Y-93642000D01*
X146046000Y-93682000D02*
X144550000Y-93682000D01*
X142470000Y-93682000D02*
X140974000Y-93682000D01*
X146038000Y-93722000D02*
X144550000Y-93722000D01*
X142470000Y-93722000D02*
X140982000Y-93722000D01*
X146030000Y-93762000D02*
X144550000Y-93762000D01*
X142470000Y-93762000D02*
X140990000Y-93762000D01*
X146021000Y-93802000D02*
X144550000Y-93802000D01*
X142470000Y-93802000D02*
X140999000Y-93802000D01*
X146011000Y-93842000D02*
X144550000Y-93842000D01*
X142470000Y-93842000D02*
X141009000Y-93842000D01*
X146001000Y-93882000D02*
X144550000Y-93882000D01*
X142470000Y-93882000D02*
X141019000Y-93882000D01*
X145990000Y-93923000D02*
X144550000Y-93923000D01*
X142470000Y-93923000D02*
X141030000Y-93923000D01*
X145978000Y-93963000D02*
X144550000Y-93963000D01*
X142470000Y-93963000D02*
X141042000Y-93963000D01*
X145965000Y-94003000D02*
X144550000Y-94003000D01*
X142470000Y-94003000D02*
X141055000Y-94003000D01*
X145952000Y-94043000D02*
X144550000Y-94043000D01*
X142470000Y-94043000D02*
X141068000Y-94043000D01*
X145938000Y-94083000D02*
X144550000Y-94083000D01*
X142470000Y-94083000D02*
X141082000Y-94083000D01*
X145924000Y-94123000D02*
X144550000Y-94123000D01*
X142470000Y-94123000D02*
X141096000Y-94123000D01*
X145908000Y-94163000D02*
X144550000Y-94163000D01*
X142470000Y-94163000D02*
X141112000Y-94163000D01*
X145892000Y-94203000D02*
X144550000Y-94203000D01*
X142470000Y-94203000D02*
X141128000Y-94203000D01*
X145875000Y-94243000D02*
X144550000Y-94243000D01*
X142470000Y-94243000D02*
X141145000Y-94243000D01*
X145858000Y-94283000D02*
X144550000Y-94283000D01*
X142470000Y-94283000D02*
X141162000Y-94283000D01*
X145839000Y-94323000D02*
X144550000Y-94323000D01*
X142470000Y-94323000D02*
X141181000Y-94323000D01*
X145820000Y-94363000D02*
X144550000Y-94363000D01*
X142470000Y-94363000D02*
X141200000Y-94363000D01*
X145800000Y-94403000D02*
X144550000Y-94403000D01*
X142470000Y-94403000D02*
X141220000Y-94403000D01*
X145778000Y-94443000D02*
X144550000Y-94443000D01*
X142470000Y-94443000D02*
X141242000Y-94443000D01*
X145757000Y-94483000D02*
X144550000Y-94483000D01*
X142470000Y-94483000D02*
X141263000Y-94483000D01*
X145734000Y-94523000D02*
X144550000Y-94523000D01*
X142470000Y-94523000D02*
X141286000Y-94523000D01*
X145710000Y-94563000D02*
X144550000Y-94563000D01*
X142470000Y-94563000D02*
X141310000Y-94563000D01*
X145685000Y-94603000D02*
X144550000Y-94603000D01*
X142470000Y-94603000D02*
X141335000Y-94603000D01*
X145659000Y-94643000D02*
X144550000Y-94643000D01*
X142470000Y-94643000D02*
X141361000Y-94643000D01*
X145632000Y-94683000D02*
X144550000Y-94683000D01*
X142470000Y-94683000D02*
X141388000Y-94683000D01*
X145605000Y-94723000D02*
X144550000Y-94723000D01*
X142470000Y-94723000D02*
X141415000Y-94723000D01*
X145575000Y-94763000D02*
X144550000Y-94763000D01*
X142470000Y-94763000D02*
X141445000Y-94763000D01*
X145545000Y-94803000D02*
X144550000Y-94803000D01*
X142470000Y-94803000D02*
X141475000Y-94803000D01*
X145514000Y-94843000D02*
X144550000Y-94843000D01*
X142470000Y-94843000D02*
X141506000Y-94843000D01*
X145481000Y-94883000D02*
X144550000Y-94883000D01*
X142470000Y-94883000D02*
X141539000Y-94883000D01*
X145447000Y-94923000D02*
X144550000Y-94923000D01*
X142470000Y-94923000D02*
X141573000Y-94923000D01*
X145411000Y-94963000D02*
X144550000Y-94963000D01*
X142470000Y-94963000D02*
X141609000Y-94963000D01*
X145374000Y-95003000D02*
X144550000Y-95003000D01*
X142470000Y-95003000D02*
X141646000Y-95003000D01*
X145336000Y-95043000D02*
X144550000Y-95043000D01*
X142470000Y-95043000D02*
X141684000Y-95043000D01*
X145295000Y-95083000D02*
X144550000Y-95083000D01*
X142470000Y-95083000D02*
X141725000Y-95083000D01*
X145253000Y-95123000D02*
X144550000Y-95123000D01*
X142470000Y-95123000D02*
X141767000Y-95123000D01*
X145209000Y-95163000D02*
X144550000Y-95163000D01*
X142470000Y-95163000D02*
X141811000Y-95163000D01*
X145163000Y-95203000D02*
X144550000Y-95203000D01*
X142470000Y-95203000D02*
X141857000Y-95203000D01*
X145115000Y-95243000D02*
X141905000Y-95243000D01*
X145064000Y-95283000D02*
X141956000Y-95283000D01*
X145010000Y-95323000D02*
X142010000Y-95323000D01*
X144953000Y-95363000D02*
X142067000Y-95363000D01*
X144893000Y-95403000D02*
X142127000Y-95403000D01*
X144829000Y-95443000D02*
X142191000Y-95443000D01*
X144761000Y-95483000D02*
X142259000Y-95483000D01*
X144688000Y-95523000D02*
X142332000Y-95523000D01*
X144608000Y-95563000D02*
X142412000Y-95563000D01*
X144521000Y-95603000D02*
X142499000Y-95603000D01*
X144425000Y-95643000D02*
X142595000Y-95643000D01*
X144315000Y-95683000D02*
X142705000Y-95683000D01*
X144187000Y-95723000D02*
X142833000Y-95723000D01*
X144028000Y-95763000D02*
X142992000Y-95763000D01*
X143794000Y-95803000D02*
X143226000Y-95803000D01*
X144985000Y-90397225D02*
X144985000Y-90897225D01*
X145235000Y-90647225D02*
X144735000Y-90647225D01*
X146130000Y-87614000D02*
G75*
G03*
X146130000Y-87614000I-2620000J0D01*
G01*
X142470000Y-87614000D02*
X140930000Y-87614000D01*
X146090000Y-87614000D02*
X144550000Y-87614000D01*
X142470000Y-87654000D02*
X140930000Y-87654000D01*
X146090000Y-87654000D02*
X144550000Y-87654000D01*
X146089000Y-87694000D02*
X144550000Y-87694000D01*
X142470000Y-87694000D02*
X140931000Y-87694000D01*
X146088000Y-87734000D02*
X144550000Y-87734000D01*
X142470000Y-87734000D02*
X140932000Y-87734000D01*
X146086000Y-87774000D02*
X144550000Y-87774000D01*
X142470000Y-87774000D02*
X140934000Y-87774000D01*
X146083000Y-87814000D02*
X144550000Y-87814000D01*
X142470000Y-87814000D02*
X140937000Y-87814000D01*
X146079000Y-87854000D02*
X144550000Y-87854000D01*
X142470000Y-87854000D02*
X140941000Y-87854000D01*
X146075000Y-87894000D02*
X144550000Y-87894000D01*
X142470000Y-87894000D02*
X140945000Y-87894000D01*
X146071000Y-87934000D02*
X144550000Y-87934000D01*
X142470000Y-87934000D02*
X140949000Y-87934000D01*
X146066000Y-87974000D02*
X144550000Y-87974000D01*
X142470000Y-87974000D02*
X140954000Y-87974000D01*
X146060000Y-88014000D02*
X144550000Y-88014000D01*
X142470000Y-88014000D02*
X140960000Y-88014000D01*
X146053000Y-88054000D02*
X144550000Y-88054000D01*
X142470000Y-88054000D02*
X140967000Y-88054000D01*
X146046000Y-88094000D02*
X144550000Y-88094000D01*
X142470000Y-88094000D02*
X140974000Y-88094000D01*
X146038000Y-88134000D02*
X144550000Y-88134000D01*
X142470000Y-88134000D02*
X140982000Y-88134000D01*
X146030000Y-88174000D02*
X144550000Y-88174000D01*
X142470000Y-88174000D02*
X140990000Y-88174000D01*
X146021000Y-88214000D02*
X144550000Y-88214000D01*
X142470000Y-88214000D02*
X140999000Y-88214000D01*
X146011000Y-88254000D02*
X144550000Y-88254000D01*
X142470000Y-88254000D02*
X141009000Y-88254000D01*
X146001000Y-88294000D02*
X144550000Y-88294000D01*
X142470000Y-88294000D02*
X141019000Y-88294000D01*
X145990000Y-88335000D02*
X144550000Y-88335000D01*
X142470000Y-88335000D02*
X141030000Y-88335000D01*
X145978000Y-88375000D02*
X144550000Y-88375000D01*
X142470000Y-88375000D02*
X141042000Y-88375000D01*
X145965000Y-88415000D02*
X144550000Y-88415000D01*
X142470000Y-88415000D02*
X141055000Y-88415000D01*
X145952000Y-88455000D02*
X144550000Y-88455000D01*
X142470000Y-88455000D02*
X141068000Y-88455000D01*
X145938000Y-88495000D02*
X144550000Y-88495000D01*
X142470000Y-88495000D02*
X141082000Y-88495000D01*
X145924000Y-88535000D02*
X144550000Y-88535000D01*
X142470000Y-88535000D02*
X141096000Y-88535000D01*
X145908000Y-88575000D02*
X144550000Y-88575000D01*
X142470000Y-88575000D02*
X141112000Y-88575000D01*
X145892000Y-88615000D02*
X144550000Y-88615000D01*
X142470000Y-88615000D02*
X141128000Y-88615000D01*
X145875000Y-88655000D02*
X144550000Y-88655000D01*
X142470000Y-88655000D02*
X141145000Y-88655000D01*
X145858000Y-88695000D02*
X144550000Y-88695000D01*
X142470000Y-88695000D02*
X141162000Y-88695000D01*
X145839000Y-88735000D02*
X144550000Y-88735000D01*
X142470000Y-88735000D02*
X141181000Y-88735000D01*
X145820000Y-88775000D02*
X144550000Y-88775000D01*
X142470000Y-88775000D02*
X141200000Y-88775000D01*
X145800000Y-88815000D02*
X144550000Y-88815000D01*
X142470000Y-88815000D02*
X141220000Y-88815000D01*
X145778000Y-88855000D02*
X144550000Y-88855000D01*
X142470000Y-88855000D02*
X141242000Y-88855000D01*
X145757000Y-88895000D02*
X144550000Y-88895000D01*
X142470000Y-88895000D02*
X141263000Y-88895000D01*
X145734000Y-88935000D02*
X144550000Y-88935000D01*
X142470000Y-88935000D02*
X141286000Y-88935000D01*
X145710000Y-88975000D02*
X144550000Y-88975000D01*
X142470000Y-88975000D02*
X141310000Y-88975000D01*
X145685000Y-89015000D02*
X144550000Y-89015000D01*
X142470000Y-89015000D02*
X141335000Y-89015000D01*
X145659000Y-89055000D02*
X144550000Y-89055000D01*
X142470000Y-89055000D02*
X141361000Y-89055000D01*
X145632000Y-89095000D02*
X144550000Y-89095000D01*
X142470000Y-89095000D02*
X141388000Y-89095000D01*
X145605000Y-89135000D02*
X144550000Y-89135000D01*
X142470000Y-89135000D02*
X141415000Y-89135000D01*
X145575000Y-89175000D02*
X144550000Y-89175000D01*
X142470000Y-89175000D02*
X141445000Y-89175000D01*
X145545000Y-89215000D02*
X144550000Y-89215000D01*
X142470000Y-89215000D02*
X141475000Y-89215000D01*
X145514000Y-89255000D02*
X144550000Y-89255000D01*
X142470000Y-89255000D02*
X141506000Y-89255000D01*
X145481000Y-89295000D02*
X144550000Y-89295000D01*
X142470000Y-89295000D02*
X141539000Y-89295000D01*
X145447000Y-89335000D02*
X144550000Y-89335000D01*
X142470000Y-89335000D02*
X141573000Y-89335000D01*
X145411000Y-89375000D02*
X144550000Y-89375000D01*
X142470000Y-89375000D02*
X141609000Y-89375000D01*
X145374000Y-89415000D02*
X144550000Y-89415000D01*
X142470000Y-89415000D02*
X141646000Y-89415000D01*
X145336000Y-89455000D02*
X144550000Y-89455000D01*
X142470000Y-89455000D02*
X141684000Y-89455000D01*
X145295000Y-89495000D02*
X144550000Y-89495000D01*
X142470000Y-89495000D02*
X141725000Y-89495000D01*
X145253000Y-89535000D02*
X144550000Y-89535000D01*
X142470000Y-89535000D02*
X141767000Y-89535000D01*
X145209000Y-89575000D02*
X144550000Y-89575000D01*
X142470000Y-89575000D02*
X141811000Y-89575000D01*
X145163000Y-89615000D02*
X144550000Y-89615000D01*
X142470000Y-89615000D02*
X141857000Y-89615000D01*
X145115000Y-89655000D02*
X141905000Y-89655000D01*
X145064000Y-89695000D02*
X141956000Y-89695000D01*
X145010000Y-89735000D02*
X142010000Y-89735000D01*
X144953000Y-89775000D02*
X142067000Y-89775000D01*
X144893000Y-89815000D02*
X142127000Y-89815000D01*
X144829000Y-89855000D02*
X142191000Y-89855000D01*
X144761000Y-89895000D02*
X142259000Y-89895000D01*
X144688000Y-89935000D02*
X142332000Y-89935000D01*
X144608000Y-89975000D02*
X142412000Y-89975000D01*
X144521000Y-90015000D02*
X142499000Y-90015000D01*
X144425000Y-90055000D02*
X142595000Y-90055000D01*
X144315000Y-90095000D02*
X142705000Y-90095000D01*
X144187000Y-90135000D02*
X142833000Y-90135000D01*
X144028000Y-90175000D02*
X142992000Y-90175000D01*
X143794000Y-90215000D02*
X143226000Y-90215000D01*
X144985000Y-84809225D02*
X144985000Y-85309225D01*
X145235000Y-85059225D02*
X144735000Y-85059225D01*
X132160000Y-90408000D02*
G75*
G03*
X132160000Y-90408000I-2620000J0D01*
G01*
X128500000Y-90408000D02*
X126960000Y-90408000D01*
X132120000Y-90408000D02*
X130580000Y-90408000D01*
X128500000Y-90448000D02*
X126960000Y-90448000D01*
X132120000Y-90448000D02*
X130580000Y-90448000D01*
X132119000Y-90488000D02*
X130580000Y-90488000D01*
X128500000Y-90488000D02*
X126961000Y-90488000D01*
X132118000Y-90528000D02*
X130580000Y-90528000D01*
X128500000Y-90528000D02*
X126962000Y-90528000D01*
X132116000Y-90568000D02*
X130580000Y-90568000D01*
X128500000Y-90568000D02*
X126964000Y-90568000D01*
X132113000Y-90608000D02*
X130580000Y-90608000D01*
X128500000Y-90608000D02*
X126967000Y-90608000D01*
X132109000Y-90648000D02*
X130580000Y-90648000D01*
X128500000Y-90648000D02*
X126971000Y-90648000D01*
X132105000Y-90688000D02*
X130580000Y-90688000D01*
X128500000Y-90688000D02*
X126975000Y-90688000D01*
X132101000Y-90728000D02*
X130580000Y-90728000D01*
X128500000Y-90728000D02*
X126979000Y-90728000D01*
X132096000Y-90768000D02*
X130580000Y-90768000D01*
X128500000Y-90768000D02*
X126984000Y-90768000D01*
X132090000Y-90808000D02*
X130580000Y-90808000D01*
X128500000Y-90808000D02*
X126990000Y-90808000D01*
X132083000Y-90848000D02*
X130580000Y-90848000D01*
X128500000Y-90848000D02*
X126997000Y-90848000D01*
X132076000Y-90888000D02*
X130580000Y-90888000D01*
X128500000Y-90888000D02*
X127004000Y-90888000D01*
X132068000Y-90928000D02*
X130580000Y-90928000D01*
X128500000Y-90928000D02*
X127012000Y-90928000D01*
X132060000Y-90968000D02*
X130580000Y-90968000D01*
X128500000Y-90968000D02*
X127020000Y-90968000D01*
X132051000Y-91008000D02*
X130580000Y-91008000D01*
X128500000Y-91008000D02*
X127029000Y-91008000D01*
X132041000Y-91048000D02*
X130580000Y-91048000D01*
X128500000Y-91048000D02*
X127039000Y-91048000D01*
X132031000Y-91088000D02*
X130580000Y-91088000D01*
X128500000Y-91088000D02*
X127049000Y-91088000D01*
X132020000Y-91129000D02*
X130580000Y-91129000D01*
X128500000Y-91129000D02*
X127060000Y-91129000D01*
X132008000Y-91169000D02*
X130580000Y-91169000D01*
X128500000Y-91169000D02*
X127072000Y-91169000D01*
X131995000Y-91209000D02*
X130580000Y-91209000D01*
X128500000Y-91209000D02*
X127085000Y-91209000D01*
X131982000Y-91249000D02*
X130580000Y-91249000D01*
X128500000Y-91249000D02*
X127098000Y-91249000D01*
X131968000Y-91289000D02*
X130580000Y-91289000D01*
X128500000Y-91289000D02*
X127112000Y-91289000D01*
X131954000Y-91329000D02*
X130580000Y-91329000D01*
X128500000Y-91329000D02*
X127126000Y-91329000D01*
X131938000Y-91369000D02*
X130580000Y-91369000D01*
X128500000Y-91369000D02*
X127142000Y-91369000D01*
X131922000Y-91409000D02*
X130580000Y-91409000D01*
X128500000Y-91409000D02*
X127158000Y-91409000D01*
X131905000Y-91449000D02*
X130580000Y-91449000D01*
X128500000Y-91449000D02*
X127175000Y-91449000D01*
X131888000Y-91489000D02*
X130580000Y-91489000D01*
X128500000Y-91489000D02*
X127192000Y-91489000D01*
X131869000Y-91529000D02*
X130580000Y-91529000D01*
X128500000Y-91529000D02*
X127211000Y-91529000D01*
X131850000Y-91569000D02*
X130580000Y-91569000D01*
X128500000Y-91569000D02*
X127230000Y-91569000D01*
X131830000Y-91609000D02*
X130580000Y-91609000D01*
X128500000Y-91609000D02*
X127250000Y-91609000D01*
X131808000Y-91649000D02*
X130580000Y-91649000D01*
X128500000Y-91649000D02*
X127272000Y-91649000D01*
X131787000Y-91689000D02*
X130580000Y-91689000D01*
X128500000Y-91689000D02*
X127293000Y-91689000D01*
X131764000Y-91729000D02*
X130580000Y-91729000D01*
X128500000Y-91729000D02*
X127316000Y-91729000D01*
X131740000Y-91769000D02*
X130580000Y-91769000D01*
X128500000Y-91769000D02*
X127340000Y-91769000D01*
X131715000Y-91809000D02*
X130580000Y-91809000D01*
X128500000Y-91809000D02*
X127365000Y-91809000D01*
X131689000Y-91849000D02*
X130580000Y-91849000D01*
X128500000Y-91849000D02*
X127391000Y-91849000D01*
X131662000Y-91889000D02*
X130580000Y-91889000D01*
X128500000Y-91889000D02*
X127418000Y-91889000D01*
X131635000Y-91929000D02*
X130580000Y-91929000D01*
X128500000Y-91929000D02*
X127445000Y-91929000D01*
X131605000Y-91969000D02*
X130580000Y-91969000D01*
X128500000Y-91969000D02*
X127475000Y-91969000D01*
X131575000Y-92009000D02*
X130580000Y-92009000D01*
X128500000Y-92009000D02*
X127505000Y-92009000D01*
X131544000Y-92049000D02*
X130580000Y-92049000D01*
X128500000Y-92049000D02*
X127536000Y-92049000D01*
X131511000Y-92089000D02*
X130580000Y-92089000D01*
X128500000Y-92089000D02*
X127569000Y-92089000D01*
X131477000Y-92129000D02*
X130580000Y-92129000D01*
X128500000Y-92129000D02*
X127603000Y-92129000D01*
X131441000Y-92169000D02*
X130580000Y-92169000D01*
X128500000Y-92169000D02*
X127639000Y-92169000D01*
X131404000Y-92209000D02*
X130580000Y-92209000D01*
X128500000Y-92209000D02*
X127676000Y-92209000D01*
X131366000Y-92249000D02*
X130580000Y-92249000D01*
X128500000Y-92249000D02*
X127714000Y-92249000D01*
X131325000Y-92289000D02*
X130580000Y-92289000D01*
X128500000Y-92289000D02*
X127755000Y-92289000D01*
X131283000Y-92329000D02*
X130580000Y-92329000D01*
X128500000Y-92329000D02*
X127797000Y-92329000D01*
X131239000Y-92369000D02*
X130580000Y-92369000D01*
X128500000Y-92369000D02*
X127841000Y-92369000D01*
X131193000Y-92409000D02*
X130580000Y-92409000D01*
X128500000Y-92409000D02*
X127887000Y-92409000D01*
X131145000Y-92449000D02*
X127935000Y-92449000D01*
X131094000Y-92489000D02*
X127986000Y-92489000D01*
X131040000Y-92529000D02*
X128040000Y-92529000D01*
X130983000Y-92569000D02*
X128097000Y-92569000D01*
X130923000Y-92609000D02*
X128157000Y-92609000D01*
X130859000Y-92649000D02*
X128221000Y-92649000D01*
X130791000Y-92689000D02*
X128289000Y-92689000D01*
X130718000Y-92729000D02*
X128362000Y-92729000D01*
X130638000Y-92769000D02*
X128442000Y-92769000D01*
X130551000Y-92809000D02*
X128529000Y-92809000D01*
X130455000Y-92849000D02*
X128625000Y-92849000D01*
X130345000Y-92889000D02*
X128735000Y-92889000D01*
X130217000Y-92929000D02*
X128863000Y-92929000D01*
X130058000Y-92969000D02*
X129022000Y-92969000D01*
X129824000Y-93009000D02*
X129256000Y-93009000D01*
X131015000Y-87603225D02*
X131015000Y-88103225D01*
X131265000Y-87853225D02*
X130765000Y-87853225D01*
X138256000Y-90408000D02*
G75*
G03*
X138256000Y-90408000I-2620000J0D01*
G01*
X134596000Y-90408000D02*
X133056000Y-90408000D01*
X138216000Y-90408000D02*
X136676000Y-90408000D01*
X134596000Y-90448000D02*
X133056000Y-90448000D01*
X138216000Y-90448000D02*
X136676000Y-90448000D01*
X138215000Y-90488000D02*
X136676000Y-90488000D01*
X134596000Y-90488000D02*
X133057000Y-90488000D01*
X138214000Y-90528000D02*
X136676000Y-90528000D01*
X134596000Y-90528000D02*
X133058000Y-90528000D01*
X138212000Y-90568000D02*
X136676000Y-90568000D01*
X134596000Y-90568000D02*
X133060000Y-90568000D01*
X138209000Y-90608000D02*
X136676000Y-90608000D01*
X134596000Y-90608000D02*
X133063000Y-90608000D01*
X138205000Y-90648000D02*
X136676000Y-90648000D01*
X134596000Y-90648000D02*
X133067000Y-90648000D01*
X138201000Y-90688000D02*
X136676000Y-90688000D01*
X134596000Y-90688000D02*
X133071000Y-90688000D01*
X138197000Y-90728000D02*
X136676000Y-90728000D01*
X134596000Y-90728000D02*
X133075000Y-90728000D01*
X138192000Y-90768000D02*
X136676000Y-90768000D01*
X134596000Y-90768000D02*
X133080000Y-90768000D01*
X138186000Y-90808000D02*
X136676000Y-90808000D01*
X134596000Y-90808000D02*
X133086000Y-90808000D01*
X138179000Y-90848000D02*
X136676000Y-90848000D01*
X134596000Y-90848000D02*
X133093000Y-90848000D01*
X138172000Y-90888000D02*
X136676000Y-90888000D01*
X134596000Y-90888000D02*
X133100000Y-90888000D01*
X138164000Y-90928000D02*
X136676000Y-90928000D01*
X134596000Y-90928000D02*
X133108000Y-90928000D01*
X138156000Y-90968000D02*
X136676000Y-90968000D01*
X134596000Y-90968000D02*
X133116000Y-90968000D01*
X138147000Y-91008000D02*
X136676000Y-91008000D01*
X134596000Y-91008000D02*
X133125000Y-91008000D01*
X138137000Y-91048000D02*
X136676000Y-91048000D01*
X134596000Y-91048000D02*
X133135000Y-91048000D01*
X138127000Y-91088000D02*
X136676000Y-91088000D01*
X134596000Y-91088000D02*
X133145000Y-91088000D01*
X138116000Y-91129000D02*
X136676000Y-91129000D01*
X134596000Y-91129000D02*
X133156000Y-91129000D01*
X138104000Y-91169000D02*
X136676000Y-91169000D01*
X134596000Y-91169000D02*
X133168000Y-91169000D01*
X138091000Y-91209000D02*
X136676000Y-91209000D01*
X134596000Y-91209000D02*
X133181000Y-91209000D01*
X138078000Y-91249000D02*
X136676000Y-91249000D01*
X134596000Y-91249000D02*
X133194000Y-91249000D01*
X138064000Y-91289000D02*
X136676000Y-91289000D01*
X134596000Y-91289000D02*
X133208000Y-91289000D01*
X138050000Y-91329000D02*
X136676000Y-91329000D01*
X134596000Y-91329000D02*
X133222000Y-91329000D01*
X138034000Y-91369000D02*
X136676000Y-91369000D01*
X134596000Y-91369000D02*
X133238000Y-91369000D01*
X138018000Y-91409000D02*
X136676000Y-91409000D01*
X134596000Y-91409000D02*
X133254000Y-91409000D01*
X138001000Y-91449000D02*
X136676000Y-91449000D01*
X134596000Y-91449000D02*
X133271000Y-91449000D01*
X137984000Y-91489000D02*
X136676000Y-91489000D01*
X134596000Y-91489000D02*
X133288000Y-91489000D01*
X137965000Y-91529000D02*
X136676000Y-91529000D01*
X134596000Y-91529000D02*
X133307000Y-91529000D01*
X137946000Y-91569000D02*
X136676000Y-91569000D01*
X134596000Y-91569000D02*
X133326000Y-91569000D01*
X137926000Y-91609000D02*
X136676000Y-91609000D01*
X134596000Y-91609000D02*
X133346000Y-91609000D01*
X137904000Y-91649000D02*
X136676000Y-91649000D01*
X134596000Y-91649000D02*
X133368000Y-91649000D01*
X137883000Y-91689000D02*
X136676000Y-91689000D01*
X134596000Y-91689000D02*
X133389000Y-91689000D01*
X137860000Y-91729000D02*
X136676000Y-91729000D01*
X134596000Y-91729000D02*
X133412000Y-91729000D01*
X137836000Y-91769000D02*
X136676000Y-91769000D01*
X134596000Y-91769000D02*
X133436000Y-91769000D01*
X137811000Y-91809000D02*
X136676000Y-91809000D01*
X134596000Y-91809000D02*
X133461000Y-91809000D01*
X137785000Y-91849000D02*
X136676000Y-91849000D01*
X134596000Y-91849000D02*
X133487000Y-91849000D01*
X137758000Y-91889000D02*
X136676000Y-91889000D01*
X134596000Y-91889000D02*
X133514000Y-91889000D01*
X137731000Y-91929000D02*
X136676000Y-91929000D01*
X134596000Y-91929000D02*
X133541000Y-91929000D01*
X137701000Y-91969000D02*
X136676000Y-91969000D01*
X134596000Y-91969000D02*
X133571000Y-91969000D01*
X137671000Y-92009000D02*
X136676000Y-92009000D01*
X134596000Y-92009000D02*
X133601000Y-92009000D01*
X137640000Y-92049000D02*
X136676000Y-92049000D01*
X134596000Y-92049000D02*
X133632000Y-92049000D01*
X137607000Y-92089000D02*
X136676000Y-92089000D01*
X134596000Y-92089000D02*
X133665000Y-92089000D01*
X137573000Y-92129000D02*
X136676000Y-92129000D01*
X134596000Y-92129000D02*
X133699000Y-92129000D01*
X137537000Y-92169000D02*
X136676000Y-92169000D01*
X134596000Y-92169000D02*
X133735000Y-92169000D01*
X137500000Y-92209000D02*
X136676000Y-92209000D01*
X134596000Y-92209000D02*
X133772000Y-92209000D01*
X137462000Y-92249000D02*
X136676000Y-92249000D01*
X134596000Y-92249000D02*
X133810000Y-92249000D01*
X137421000Y-92289000D02*
X136676000Y-92289000D01*
X134596000Y-92289000D02*
X133851000Y-92289000D01*
X137379000Y-92329000D02*
X136676000Y-92329000D01*
X134596000Y-92329000D02*
X133893000Y-92329000D01*
X137335000Y-92369000D02*
X136676000Y-92369000D01*
X134596000Y-92369000D02*
X133937000Y-92369000D01*
X137289000Y-92409000D02*
X136676000Y-92409000D01*
X134596000Y-92409000D02*
X133983000Y-92409000D01*
X137241000Y-92449000D02*
X134031000Y-92449000D01*
X137190000Y-92489000D02*
X134082000Y-92489000D01*
X137136000Y-92529000D02*
X134136000Y-92529000D01*
X137079000Y-92569000D02*
X134193000Y-92569000D01*
X137019000Y-92609000D02*
X134253000Y-92609000D01*
X136955000Y-92649000D02*
X134317000Y-92649000D01*
X136887000Y-92689000D02*
X134385000Y-92689000D01*
X136814000Y-92729000D02*
X134458000Y-92729000D01*
X136734000Y-92769000D02*
X134538000Y-92769000D01*
X136647000Y-92809000D02*
X134625000Y-92809000D01*
X136551000Y-92849000D02*
X134721000Y-92849000D01*
X136441000Y-92889000D02*
X134831000Y-92889000D01*
X136313000Y-92929000D02*
X134959000Y-92929000D01*
X136154000Y-92969000D02*
X135118000Y-92969000D01*
X135920000Y-93009000D02*
X135352000Y-93009000D01*
X137111000Y-87603225D02*
X137111000Y-88103225D01*
X137361000Y-87853225D02*
X136861000Y-87853225D01*
X84582000Y-104310000D02*
X84582000Y-105420000D01*
X84582000Y-116670000D02*
X84582000Y-115560000D01*
X82662000Y-105420000D02*
X82662000Y-115560000D01*
X86502000Y-105420000D02*
X82662000Y-105420000D01*
X86502000Y-115560000D02*
X86502000Y-105420000D01*
X82662000Y-115560000D02*
X86502000Y-115560000D01*
X84582000Y-63924000D02*
X84582000Y-65034000D01*
X84582000Y-76284000D02*
X84582000Y-75174000D01*
X82662000Y-65034000D02*
X82662000Y-75174000D01*
X86502000Y-65034000D02*
X82662000Y-65034000D01*
X86502000Y-75174000D02*
X86502000Y-65034000D01*
X82662000Y-75174000D02*
X86502000Y-75174000D01*
X134439000Y-97060000D02*
X134439000Y-98570000D01*
X130738000Y-97060000D02*
X130738000Y-98570000D01*
X127468000Y-98570000D02*
X137708000Y-98570000D01*
X137708000Y-97060000D02*
X137708000Y-101701000D01*
X127468000Y-97060000D02*
X127468000Y-101701000D01*
X127468000Y-101701000D02*
X137708000Y-101701000D01*
X127468000Y-97060000D02*
X137708000Y-97060000D01*
X130737000Y-83534000D02*
X130737000Y-82024000D01*
X134438000Y-83534000D02*
X134438000Y-82024000D01*
X137708000Y-82024000D02*
X127468000Y-82024000D01*
X127468000Y-83534000D02*
X127468000Y-78893000D01*
X137708000Y-83534000D02*
X137708000Y-78893000D01*
X137708000Y-78893000D02*
X127468000Y-78893000D01*
X137708000Y-83534000D02*
X127468000Y-83534000D01*
X155422000Y-98570000D02*
X155422000Y-98170000D01*
X154782000Y-98570000D02*
X155422000Y-98570000D01*
X151563000Y-94165000D02*
X151691000Y-94294000D01*
X149347000Y-91950000D02*
X149441000Y-92044000D01*
X151803000Y-93995000D02*
X151896000Y-94089000D01*
X149553000Y-91745000D02*
X149681000Y-91874000D01*
X147462000Y-91210000D02*
X155182000Y-91210000D01*
X147462000Y-98330000D02*
X155182000Y-98330000D01*
X155182000Y-98330000D02*
X155182000Y-91210000D01*
X147462000Y-98330000D02*
X147462000Y-91210000D01*
X153622000Y-98330000D02*
X153622000Y-91210000D01*
X154722000Y-98330000D02*
X154722000Y-91210000D01*
X152302000Y-93020000D02*
G75*
G03*
X152302000Y-93020000I-1680000J0D01*
G01*
X152302099Y-96491326D02*
G75*
G02*
X152062000Y-97386000I-1680099J-28674D01*
G01*
X151511894Y-97945358D02*
G75*
G02*
X149756000Y-97960000I-889894J1425358D01*
G01*
X149196642Y-97409894D02*
G75*
G02*
X149182000Y-95654000I1425358J889894D01*
G01*
X149731807Y-95094495D02*
G75*
G02*
X151513000Y-95095000I890193J-1425505D01*
G01*
X152046721Y-95629736D02*
G75*
G02*
X152302000Y-96520000I-1424721J-890264D01*
G01*
X155422000Y-89680000D02*
X155422000Y-89280000D01*
X154782000Y-89680000D02*
X155422000Y-89680000D01*
X151563000Y-85275000D02*
X151691000Y-85404000D01*
X149347000Y-83060000D02*
X149441000Y-83154000D01*
X151803000Y-85105000D02*
X151896000Y-85199000D01*
X149553000Y-82855000D02*
X149681000Y-82984000D01*
X147462000Y-82320000D02*
X155182000Y-82320000D01*
X147462000Y-89440000D02*
X155182000Y-89440000D01*
X155182000Y-89440000D02*
X155182000Y-82320000D01*
X147462000Y-89440000D02*
X147462000Y-82320000D01*
X153622000Y-89440000D02*
X153622000Y-82320000D01*
X154722000Y-89440000D02*
X154722000Y-82320000D01*
X152302000Y-84130000D02*
G75*
G03*
X152302000Y-84130000I-1680000J0D01*
G01*
X152302099Y-87601326D02*
G75*
G02*
X152062000Y-88496000I-1680099J-28674D01*
G01*
X151511894Y-89055358D02*
G75*
G02*
X149756000Y-89070000I-889894J1425358D01*
G01*
X149196642Y-88519894D02*
G75*
G02*
X149182000Y-86764000I1425358J889894D01*
G01*
X149731807Y-86204495D02*
G75*
G02*
X151513000Y-86205000I890193J-1425505D01*
G01*
X152046721Y-86739736D02*
G75*
G02*
X152302000Y-87630000I-1424721J-890264D01*
G01*
X155414000Y-116178000D02*
X155414000Y-115778000D01*
X154774000Y-116178000D02*
X155414000Y-116178000D01*
X151106000Y-104636000D02*
X151502000Y-105031000D01*
X148460000Y-101990000D02*
X148840000Y-102370000D01*
X151388000Y-104385000D02*
X151768000Y-104765000D01*
X148726000Y-101724000D02*
X149122000Y-102119000D01*
X151106000Y-109636000D02*
X151502000Y-110031000D01*
X148460000Y-106990000D02*
X148840000Y-107370000D01*
X151388000Y-109385000D02*
X151768000Y-109765000D01*
X148726000Y-106724000D02*
X149122000Y-107119000D01*
X151395000Y-114926000D02*
X151502000Y-115032000D01*
X148460000Y-111990000D02*
X148567000Y-112097000D01*
X151661000Y-114660000D02*
X151768000Y-114766000D01*
X148726000Y-111724000D02*
X148833000Y-111831000D01*
X146054000Y-100818000D02*
X155174000Y-100818000D01*
X146054000Y-115938000D02*
X155174000Y-115938000D01*
X155174000Y-115938000D02*
X155174000Y-100818000D01*
X146054000Y-115938000D02*
X146054000Y-100818000D01*
X153614000Y-115938000D02*
X153614000Y-100818000D01*
X154714000Y-115938000D02*
X154714000Y-100818000D01*
X152294000Y-103378000D02*
G75*
G03*
X152294000Y-103378000I-2180000J0D01*
G01*
X152294000Y-108378000D02*
G75*
G03*
X152294000Y-108378000I-2180000J0D01*
G01*
X152294000Y-113378000D02*
G75*
G03*
X152294000Y-113378000I-2180000J0D01*
G01*
X155414000Y-80016000D02*
X155414000Y-79616000D01*
X154774000Y-80016000D02*
X155414000Y-80016000D01*
X151106000Y-68474000D02*
X151502000Y-68869000D01*
X148460000Y-65828000D02*
X148840000Y-66208000D01*
X151388000Y-68223000D02*
X151768000Y-68603000D01*
X148726000Y-65562000D02*
X149122000Y-65957000D01*
X151106000Y-73474000D02*
X151502000Y-73869000D01*
X148460000Y-70828000D02*
X148840000Y-71208000D01*
X151388000Y-73223000D02*
X151768000Y-73603000D01*
X148726000Y-70562000D02*
X149122000Y-70957000D01*
X151395000Y-78764000D02*
X151502000Y-78870000D01*
X148460000Y-75828000D02*
X148567000Y-75935000D01*
X151661000Y-78498000D02*
X151768000Y-78604000D01*
X148726000Y-75562000D02*
X148833000Y-75669000D01*
X146054000Y-64656000D02*
X155174000Y-64656000D01*
X146054000Y-79776000D02*
X155174000Y-79776000D01*
X155174000Y-79776000D02*
X155174000Y-64656000D01*
X146054000Y-79776000D02*
X146054000Y-64656000D01*
X153614000Y-79776000D02*
X153614000Y-64656000D01*
X154714000Y-79776000D02*
X154714000Y-64656000D01*
X152294000Y-67216000D02*
G75*
G03*
X152294000Y-67216000I-2180000J0D01*
G01*
X152294000Y-72216000D02*
G75*
G03*
X152294000Y-72216000I-2180000J0D01*
G01*
X152294000Y-77216000D02*
G75*
G03*
X152294000Y-77216000I-2180000J0D01*
G01*
X78520000Y-80004000D02*
X78520000Y-80404000D01*
X79160000Y-80004000D02*
X78520000Y-80004000D01*
X82828000Y-96546000D02*
X82432000Y-96151000D01*
X85474000Y-99192000D02*
X85094000Y-98812000D01*
X82546000Y-96797000D02*
X82166000Y-96417000D01*
X85208000Y-99458000D02*
X84812000Y-99063000D01*
X82828000Y-91546000D02*
X82432000Y-91151000D01*
X85474000Y-94192000D02*
X85094000Y-93812000D01*
X82546000Y-91797000D02*
X82166000Y-91417000D01*
X85208000Y-94458000D02*
X84812000Y-94063000D01*
X82828000Y-86546000D02*
X82432000Y-86151000D01*
X85474000Y-89192000D02*
X85094000Y-88812000D01*
X82546000Y-86797000D02*
X82166000Y-86417000D01*
X85208000Y-89458000D02*
X84812000Y-89063000D01*
X82539000Y-81256000D02*
X82432000Y-81150000D01*
X85474000Y-84192000D02*
X85367000Y-84085000D01*
X82273000Y-81522000D02*
X82166000Y-81416000D01*
X85208000Y-84458000D02*
X85101000Y-84351000D01*
X87880000Y-100365000D02*
X78760000Y-100365000D01*
X87880000Y-80244000D02*
X78760000Y-80244000D01*
X78760000Y-80244000D02*
X78760000Y-100365000D01*
X87880000Y-80244000D02*
X87880000Y-100365000D01*
X80320000Y-80244000D02*
X80320000Y-100365000D01*
X79220000Y-80244000D02*
X79220000Y-100365000D01*
X86000000Y-97804000D02*
G75*
G03*
X86000000Y-97804000I-2180000J0D01*
G01*
X86000000Y-92804000D02*
G75*
G03*
X86000000Y-92804000I-2180000J0D01*
G01*
X86000000Y-87804000D02*
G75*
G03*
X86000000Y-87804000I-2180000J0D01*
G01*
X86000000Y-82804000D02*
G75*
G03*
X86000000Y-82804000I-2180000J0D01*
G01*
X117543000Y-91179998D02*
X114043000Y-91179998D01*
X115793000Y-89429998D02*
X115793000Y-92929998D01*
X106718000Y-125884000D02*
X105118000Y-125884000D01*
X107331000Y-125844000D02*
X104505000Y-125844000D01*
X107753000Y-125804000D02*
X104083000Y-125804000D01*
X108095000Y-125764000D02*
X103741000Y-125764000D01*
X108391000Y-125724000D02*
X103445000Y-125724000D01*
X108654000Y-125684000D02*
X103182000Y-125684000D01*
X108894000Y-125644000D02*
X102942000Y-125644000D01*
X109116000Y-125604000D02*
X102720000Y-125604000D01*
X109323000Y-125564000D02*
X102513000Y-125564000D01*
X109518000Y-125524000D02*
X102318000Y-125524000D01*
X109703000Y-125484000D02*
X102133000Y-125484000D01*
X109878000Y-125444000D02*
X101958000Y-125444000D01*
X110046000Y-125404000D02*
X101790000Y-125404000D01*
X110207000Y-125364000D02*
X101629000Y-125364000D01*
X110362000Y-125324000D02*
X101474000Y-125324000D01*
X110511000Y-125284000D02*
X101325000Y-125284000D01*
X110656000Y-125244000D02*
X101180000Y-125244000D01*
X110796000Y-125204000D02*
X101040000Y-125204000D01*
X110931000Y-125164000D02*
X100905000Y-125164000D01*
X111063000Y-125124000D02*
X100773000Y-125124000D01*
X111191000Y-125084000D02*
X100645000Y-125084000D01*
X111316000Y-125044000D02*
X100520000Y-125044000D01*
X111438000Y-125004000D02*
X100398000Y-125004000D01*
X111557000Y-124964000D02*
X100279000Y-124964000D01*
X111673000Y-124924000D02*
X100163000Y-124924000D01*
X111786000Y-124884000D02*
X100050000Y-124884000D01*
X111898000Y-124844000D02*
X99938000Y-124844000D01*
X112007000Y-124804000D02*
X99829000Y-124804000D01*
X112113000Y-124764000D02*
X99723000Y-124764000D01*
X112218000Y-124724000D02*
X99618000Y-124724000D01*
X112321000Y-124684000D02*
X99515000Y-124684000D01*
X112422000Y-124644000D02*
X99414000Y-124644000D01*
X112521000Y-124604000D02*
X99315000Y-124604000D01*
X112618000Y-124564000D02*
X99218000Y-124564000D01*
X112714000Y-124524000D02*
X99122000Y-124524000D01*
X112808000Y-124484000D02*
X99028000Y-124484000D01*
X112901000Y-124444000D02*
X98935000Y-124444000D01*
X112993000Y-124404000D02*
X98843000Y-124404000D01*
X113083000Y-124364000D02*
X98753000Y-124364000D01*
X113171000Y-124324000D02*
X98665000Y-124324000D01*
X113259000Y-124284000D02*
X98577000Y-124284000D01*
X113345000Y-124244000D02*
X98491000Y-124244000D01*
X113430000Y-124204000D02*
X98406000Y-124204000D01*
X113513000Y-124164000D02*
X98323000Y-124164000D01*
X113596000Y-124124000D02*
X98240000Y-124124000D01*
X113677000Y-124084000D02*
X98159000Y-124084000D01*
X113758000Y-124044000D02*
X98078000Y-124044000D01*
X113838000Y-124004000D02*
X97998000Y-124004000D01*
X113916000Y-123964000D02*
X97920000Y-123964000D01*
X113994000Y-123924000D02*
X97842000Y-123924000D01*
X114070000Y-123884000D02*
X97766000Y-123884000D01*
X114146000Y-123844000D02*
X97690000Y-123844000D01*
X114221000Y-123804000D02*
X97615000Y-123804000D01*
X114295000Y-123764000D02*
X97541000Y-123764000D01*
X114368000Y-123724000D02*
X97468000Y-123724000D01*
X114440000Y-123684000D02*
X97396000Y-123684000D01*
X114512000Y-123644000D02*
X97324000Y-123644000D01*
X114583000Y-123604000D02*
X97253000Y-123604000D01*
X114653000Y-123564000D02*
X97183000Y-123564000D01*
X114722000Y-123524000D02*
X97114000Y-123524000D01*
X114791000Y-123484000D02*
X97045000Y-123484000D01*
X114858000Y-123444000D02*
X96978000Y-123444000D01*
X114926000Y-123404000D02*
X96910000Y-123404000D01*
X114992000Y-123364000D02*
X96844000Y-123364000D01*
X115058000Y-123324000D02*
X96778000Y-123324000D01*
X115123000Y-123284000D02*
X96713000Y-123284000D01*
X115188000Y-123244000D02*
X96648000Y-123244000D01*
X115252000Y-123204000D02*
X96584000Y-123204000D01*
X115315000Y-123164000D02*
X96521000Y-123164000D01*
X115378000Y-123124000D02*
X96458000Y-123124000D01*
X115440000Y-123084000D02*
X96396000Y-123084000D01*
X115502000Y-123044000D02*
X96334000Y-123044000D01*
X115563000Y-123004000D02*
X96273000Y-123004000D01*
X115623000Y-122964000D02*
X96213000Y-122964000D01*
X115683000Y-122924000D02*
X96153000Y-122924000D01*
X115743000Y-122884000D02*
X96093000Y-122884000D01*
X115802000Y-122844000D02*
X96034000Y-122844000D01*
X115860000Y-122804000D02*
X95976000Y-122804000D01*
X115918000Y-122764000D02*
X95918000Y-122764000D01*
X115976000Y-122724000D02*
X95860000Y-122724000D01*
X116033000Y-122684000D02*
X95803000Y-122684000D01*
X116089000Y-122644000D02*
X95747000Y-122644000D01*
X116145000Y-122604000D02*
X95691000Y-122604000D01*
X116201000Y-122564000D02*
X95635000Y-122564000D01*
X116256000Y-122524000D02*
X95580000Y-122524000D01*
X116310000Y-122484000D02*
X95526000Y-122484000D01*
X116365000Y-122444000D02*
X95471000Y-122444000D01*
X116418000Y-122404000D02*
X95418000Y-122404000D01*
X116472000Y-122364000D02*
X95364000Y-122364000D01*
X116525000Y-122324000D02*
X95311000Y-122324000D01*
X116577000Y-122284000D02*
X95259000Y-122284000D01*
X116629000Y-122244000D02*
X95207000Y-122244000D01*
X116681000Y-122204000D02*
X95155000Y-122204000D01*
X116733000Y-122164000D02*
X95103000Y-122164000D01*
X116783000Y-122124000D02*
X95053000Y-122124000D01*
X116834000Y-122084000D02*
X95002000Y-122084000D01*
X116884000Y-122044000D02*
X94952000Y-122044000D01*
X116934000Y-122004000D02*
X94902000Y-122004000D01*
X116984000Y-121964000D02*
X94852000Y-121964000D01*
X117033000Y-121924000D02*
X94803000Y-121924000D01*
X117081000Y-121884000D02*
X94755000Y-121884000D01*
X117130000Y-121844000D02*
X94706000Y-121844000D01*
X117178000Y-121804000D02*
X94658000Y-121804000D01*
X117225000Y-121764000D02*
X94611000Y-121764000D01*
X117273000Y-121724000D02*
X94563000Y-121724000D01*
X117320000Y-121684000D02*
X94516000Y-121684000D01*
X117367000Y-121644000D02*
X94469000Y-121644000D01*
X117413000Y-121604000D02*
X94423000Y-121604000D01*
X117459000Y-121564000D02*
X94377000Y-121564000D01*
X117505000Y-121524000D02*
X94331000Y-121524000D01*
X117550000Y-121484000D02*
X94286000Y-121484000D01*
X117595000Y-121444000D02*
X94241000Y-121444000D01*
X117640000Y-121404000D02*
X94196000Y-121404000D01*
X117684000Y-121364000D02*
X94152000Y-121364000D01*
X117729000Y-121324000D02*
X94107000Y-121324000D01*
X117772000Y-121284000D02*
X94064000Y-121284000D01*
X117816000Y-121244000D02*
X94020000Y-121244000D01*
X117859000Y-121204000D02*
X93977000Y-121204000D01*
X117902000Y-121164000D02*
X93934000Y-121164000D01*
X117945000Y-121124000D02*
X93891000Y-121124000D01*
X117987000Y-121084000D02*
X93849000Y-121084000D01*
X118029000Y-121044000D02*
X93807000Y-121044000D01*
X118071000Y-121004000D02*
X93765000Y-121004000D01*
X118113000Y-120964000D02*
X93723000Y-120964000D01*
X118154000Y-120924000D02*
X93682000Y-120924000D01*
X118195000Y-120884000D02*
X93641000Y-120884000D01*
X118236000Y-120844000D02*
X93600000Y-120844000D01*
X118277000Y-120804000D02*
X93559000Y-120804000D01*
X118317000Y-120764000D02*
X93519000Y-120764000D01*
X118357000Y-120724000D02*
X93479000Y-120724000D01*
X118397000Y-120684000D02*
X93439000Y-120684000D01*
X118436000Y-120644000D02*
X93400000Y-120644000D01*
X118475000Y-120604000D02*
X93361000Y-120604000D01*
X118514000Y-120564000D02*
X93322000Y-120564000D01*
X118553000Y-120524000D02*
X93283000Y-120524000D01*
X118592000Y-120484000D02*
X93244000Y-120484000D01*
X118630000Y-120444000D02*
X93206000Y-120444000D01*
X118668000Y-120404000D02*
X93168000Y-120404000D01*
X118706000Y-120364000D02*
X93130000Y-120364000D01*
X118743000Y-120324000D02*
X93093000Y-120324000D01*
X118781000Y-120284000D02*
X93055000Y-120284000D01*
X118818000Y-120244000D02*
X93018000Y-120244000D01*
X118855000Y-120204000D02*
X92981000Y-120204000D01*
X118891000Y-120164000D02*
X92945000Y-120164000D01*
X118928000Y-120124000D02*
X92908000Y-120124000D01*
X118964000Y-120084000D02*
X92872000Y-120084000D01*
X119000000Y-120044000D02*
X92836000Y-120044000D01*
X119035000Y-120004000D02*
X92801000Y-120004000D01*
X119071000Y-119964000D02*
X92765000Y-119964000D01*
X119106000Y-119924000D02*
X92730000Y-119924000D01*
X119141000Y-119884000D02*
X92695000Y-119884000D01*
X119176000Y-119844000D02*
X92660000Y-119844000D01*
X119211000Y-119804000D02*
X92625000Y-119804000D01*
X119245000Y-119764000D02*
X92591000Y-119764000D01*
X119280000Y-119724000D02*
X92556000Y-119724000D01*
X119314000Y-119684000D02*
X92522000Y-119684000D01*
X119348000Y-119644000D02*
X92488000Y-119644000D01*
X119381000Y-119604000D02*
X92455000Y-119604000D01*
X119415000Y-119564000D02*
X92421000Y-119564000D01*
X119448000Y-119524000D02*
X92388000Y-119524000D01*
X119481000Y-119484000D02*
X92355000Y-119484000D01*
X119514000Y-119444000D02*
X92322000Y-119444000D01*
X119546000Y-119404000D02*
X92290000Y-119404000D01*
X119579000Y-119364000D02*
X92257000Y-119364000D01*
X119611000Y-119324000D02*
X92225000Y-119324000D01*
X119643000Y-119284000D02*
X92193000Y-119284000D01*
X119675000Y-119244000D02*
X92161000Y-119244000D01*
X119707000Y-119204000D02*
X92129000Y-119204000D01*
X119738000Y-119164000D02*
X92098000Y-119164000D01*
X119769000Y-119124000D02*
X92067000Y-119124000D01*
X119801000Y-119084000D02*
X92035000Y-119084000D01*
X119832000Y-119044000D02*
X92004000Y-119044000D01*
X119862000Y-119004000D02*
X91974000Y-119004000D01*
X119893000Y-118964000D02*
X91943000Y-118964000D01*
X119923000Y-118924000D02*
X91913000Y-118924000D01*
X119953000Y-118884000D02*
X91883000Y-118884000D01*
X119983000Y-118844000D02*
X91853000Y-118844000D01*
X120013000Y-118804000D02*
X91823000Y-118804000D01*
X120043000Y-118764000D02*
X91793000Y-118764000D01*
X120073000Y-118724000D02*
X91763000Y-118724000D01*
X120102000Y-118684000D02*
X91734000Y-118684000D01*
X120131000Y-118644000D02*
X91705000Y-118644000D01*
X120160000Y-118604000D02*
X91676000Y-118604000D01*
X120189000Y-118564000D02*
X91647000Y-118564000D01*
X120217000Y-118524000D02*
X91619000Y-118524000D01*
X120246000Y-118484000D02*
X91590000Y-118484000D01*
X120274000Y-118444000D02*
X91562000Y-118444000D01*
X120302000Y-118404000D02*
X91534000Y-118404000D01*
X120330000Y-118364000D02*
X91506000Y-118364000D01*
X120358000Y-118324000D02*
X91478000Y-118324000D01*
X120386000Y-118284000D02*
X91450000Y-118284000D01*
X120413000Y-118244000D02*
X91423000Y-118244000D01*
X120441000Y-118204000D02*
X91395000Y-118204000D01*
X120468000Y-118164000D02*
X91368000Y-118164000D01*
X120495000Y-118124000D02*
X91341000Y-118124000D01*
X120522000Y-118084000D02*
X91314000Y-118084000D01*
X120548000Y-118044000D02*
X91288000Y-118044000D01*
X120575000Y-118004000D02*
X91261000Y-118004000D01*
X120601000Y-117964000D02*
X91235000Y-117964000D01*
X120628000Y-117924000D02*
X91208000Y-117924000D01*
X120654000Y-117884000D02*
X91182000Y-117884000D01*
X120680000Y-117844000D02*
X91156000Y-117844000D01*
X120705000Y-117804000D02*
X91131000Y-117804000D01*
X120731000Y-117764000D02*
X91105000Y-117764000D01*
X120756000Y-117724000D02*
X91080000Y-117724000D01*
X120782000Y-117684000D02*
X91054000Y-117684000D01*
X120807000Y-117644000D02*
X91029000Y-117644000D01*
X120832000Y-117604000D02*
X91004000Y-117604000D01*
X120857000Y-117564000D02*
X90979000Y-117564000D01*
X120881000Y-117524000D02*
X90955000Y-117524000D01*
X120906000Y-117484000D02*
X90930000Y-117484000D01*
X120930000Y-117444000D02*
X90906000Y-117444000D01*
X120955000Y-117404000D02*
X90881000Y-117404000D01*
X120979000Y-117364000D02*
X90857000Y-117364000D01*
X121003000Y-117324000D02*
X90833000Y-117324000D01*
X121027000Y-117284000D02*
X90809000Y-117284000D01*
X121050000Y-117244000D02*
X90786000Y-117244000D01*
X121074000Y-117204000D02*
X90762000Y-117204000D01*
X121097000Y-117164000D02*
X90739000Y-117164000D01*
X121121000Y-117124000D02*
X90715000Y-117124000D01*
X121144000Y-117084000D02*
X90692000Y-117084000D01*
X121167000Y-117044000D02*
X90669000Y-117044000D01*
X121189000Y-117004000D02*
X90647000Y-117004000D01*
X121212000Y-116964000D02*
X90624000Y-116964000D01*
X121235000Y-116924000D02*
X90601000Y-116924000D01*
X121257000Y-116884000D02*
X90579000Y-116884000D01*
X121279000Y-116844000D02*
X90557000Y-116844000D01*
X121302000Y-116804000D02*
X90534000Y-116804000D01*
X121324000Y-116764000D02*
X90512000Y-116764000D01*
X121346000Y-116724000D02*
X90490000Y-116724000D01*
X121367000Y-116684000D02*
X90469000Y-116684000D01*
X121389000Y-116644000D02*
X90447000Y-116644000D01*
X121410000Y-116604000D02*
X90426000Y-116604000D01*
X121432000Y-116564000D02*
X90404000Y-116564000D01*
X121453000Y-116524000D02*
X90383000Y-116524000D01*
X121474000Y-116484000D02*
X90362000Y-116484000D01*
X121495000Y-116445000D02*
X90341000Y-116445000D01*
X121516000Y-116405000D02*
X90320000Y-116405000D01*
X121537000Y-116365000D02*
X90299000Y-116365000D01*
X121557000Y-116325000D02*
X90279000Y-116325000D01*
X121578000Y-116285000D02*
X90258000Y-116285000D01*
X121598000Y-116245000D02*
X90238000Y-116245000D01*
X121618000Y-116205000D02*
X90218000Y-116205000D01*
X121638000Y-116165000D02*
X90198000Y-116165000D01*
X121658000Y-116125000D02*
X90178000Y-116125000D01*
X121678000Y-116085000D02*
X90158000Y-116085000D01*
X121698000Y-116045000D02*
X90138000Y-116045000D01*
X121717000Y-116005000D02*
X90119000Y-116005000D01*
X121737000Y-115965000D02*
X90099000Y-115965000D01*
X121756000Y-115925000D02*
X90080000Y-115925000D01*
X121775000Y-115885000D02*
X90061000Y-115885000D01*
X121794000Y-115845000D02*
X90042000Y-115845000D01*
X121813000Y-115805000D02*
X90023000Y-115805000D01*
X121832000Y-115765000D02*
X90004000Y-115765000D01*
X121851000Y-115725000D02*
X89985000Y-115725000D01*
X121869000Y-115685000D02*
X89967000Y-115685000D01*
X121888000Y-115645000D02*
X89948000Y-115645000D01*
X121906000Y-115605000D02*
X89930000Y-115605000D01*
X121924000Y-115565000D02*
X89912000Y-115565000D01*
X121942000Y-115525000D02*
X89894000Y-115525000D01*
X103678000Y-115485000D02*
X89876000Y-115485000D01*
X121960000Y-115485000D02*
X108158000Y-115485000D01*
X103678000Y-115445000D02*
X89858000Y-115445000D01*
X121978000Y-115445000D02*
X108158000Y-115445000D01*
X103678000Y-115405000D02*
X89840000Y-115405000D01*
X121996000Y-115405000D02*
X108158000Y-115405000D01*
X103678000Y-115365000D02*
X89823000Y-115365000D01*
X122013000Y-115365000D02*
X108158000Y-115365000D01*
X103678000Y-115325000D02*
X89805000Y-115325000D01*
X122031000Y-115325000D02*
X108158000Y-115325000D01*
X103678000Y-115285000D02*
X89788000Y-115285000D01*
X122048000Y-115285000D02*
X108158000Y-115285000D01*
X103678000Y-115245000D02*
X89770000Y-115245000D01*
X122066000Y-115245000D02*
X108158000Y-115245000D01*
X103678000Y-115205000D02*
X89753000Y-115205000D01*
X122083000Y-115205000D02*
X108158000Y-115205000D01*
X103678000Y-115165000D02*
X89736000Y-115165000D01*
X122100000Y-115165000D02*
X108158000Y-115165000D01*
X103678000Y-115125000D02*
X89719000Y-115125000D01*
X122117000Y-115125000D02*
X108158000Y-115125000D01*
X103678000Y-115085000D02*
X89703000Y-115085000D01*
X122133000Y-115085000D02*
X108158000Y-115085000D01*
X103678000Y-115045000D02*
X89686000Y-115045000D01*
X122150000Y-115045000D02*
X108158000Y-115045000D01*
X103678000Y-115005000D02*
X89669000Y-115005000D01*
X122167000Y-115005000D02*
X108158000Y-115005000D01*
X103678000Y-114965000D02*
X89653000Y-114965000D01*
X122183000Y-114965000D02*
X108158000Y-114965000D01*
X103678000Y-114925000D02*
X89637000Y-114925000D01*
X122199000Y-114925000D02*
X108158000Y-114925000D01*
X103678000Y-114885000D02*
X89620000Y-114885000D01*
X122216000Y-114885000D02*
X108158000Y-114885000D01*
X103678000Y-114845000D02*
X89604000Y-114845000D01*
X122232000Y-114845000D02*
X108158000Y-114845000D01*
X103678000Y-114805000D02*
X89588000Y-114805000D01*
X122248000Y-114805000D02*
X108158000Y-114805000D01*
X103678000Y-114765000D02*
X89572000Y-114765000D01*
X122264000Y-114765000D02*
X108158000Y-114765000D01*
X103678000Y-114725000D02*
X89557000Y-114725000D01*
X122279000Y-114725000D02*
X108158000Y-114725000D01*
X103678000Y-114685000D02*
X89541000Y-114685000D01*
X122295000Y-114685000D02*
X108158000Y-114685000D01*
X103678000Y-114645000D02*
X89525000Y-114645000D01*
X122311000Y-114645000D02*
X108158000Y-114645000D01*
X103678000Y-114605000D02*
X89510000Y-114605000D01*
X122326000Y-114605000D02*
X108158000Y-114605000D01*
X103678000Y-114565000D02*
X89495000Y-114565000D01*
X122341000Y-114565000D02*
X108158000Y-114565000D01*
X103678000Y-114525000D02*
X89479000Y-114525000D01*
X122357000Y-114525000D02*
X108158000Y-114525000D01*
X103678000Y-114485000D02*
X89464000Y-114485000D01*
X122372000Y-114485000D02*
X108158000Y-114485000D01*
X103678000Y-114445000D02*
X89449000Y-114445000D01*
X122387000Y-114445000D02*
X108158000Y-114445000D01*
X103678000Y-114405000D02*
X89434000Y-114405000D01*
X122402000Y-114405000D02*
X108158000Y-114405000D01*
X103678000Y-114365000D02*
X89420000Y-114365000D01*
X122416000Y-114365000D02*
X108158000Y-114365000D01*
X103678000Y-114325000D02*
X89405000Y-114325000D01*
X122431000Y-114325000D02*
X108158000Y-114325000D01*
X103678000Y-114285000D02*
X89391000Y-114285000D01*
X122445000Y-114285000D02*
X108158000Y-114285000D01*
X103678000Y-114245000D02*
X89376000Y-114245000D01*
X122460000Y-114245000D02*
X108158000Y-114245000D01*
X103678000Y-114205000D02*
X89362000Y-114205000D01*
X122474000Y-114205000D02*
X108158000Y-114205000D01*
X103678000Y-114165000D02*
X89348000Y-114165000D01*
X122488000Y-114165000D02*
X108158000Y-114165000D01*
X103678000Y-114125000D02*
X89333000Y-114125000D01*
X122503000Y-114125000D02*
X108158000Y-114125000D01*
X103678000Y-114085000D02*
X89319000Y-114085000D01*
X122517000Y-114085000D02*
X108158000Y-114085000D01*
X103678000Y-114045000D02*
X89306000Y-114045000D01*
X122530000Y-114045000D02*
X108158000Y-114045000D01*
X103678000Y-114005000D02*
X89292000Y-114005000D01*
X122544000Y-114005000D02*
X108158000Y-114005000D01*
X103678000Y-113965000D02*
X89278000Y-113965000D01*
X122558000Y-113965000D02*
X108158000Y-113965000D01*
X103678000Y-113925000D02*
X89265000Y-113925000D01*
X122571000Y-113925000D02*
X108158000Y-113925000D01*
X103678000Y-113885000D02*
X89251000Y-113885000D01*
X122585000Y-113885000D02*
X108158000Y-113885000D01*
X103678000Y-113845000D02*
X89238000Y-113845000D01*
X122598000Y-113845000D02*
X108158000Y-113845000D01*
X103678000Y-113805000D02*
X89224000Y-113805000D01*
X122612000Y-113805000D02*
X108158000Y-113805000D01*
X103678000Y-113765000D02*
X89211000Y-113765000D01*
X122625000Y-113765000D02*
X108158000Y-113765000D01*
X103678000Y-113725000D02*
X89198000Y-113725000D01*
X122638000Y-113725000D02*
X108158000Y-113725000D01*
X103678000Y-113685000D02*
X89185000Y-113685000D01*
X122651000Y-113685000D02*
X108158000Y-113685000D01*
X103678000Y-113645000D02*
X89173000Y-113645000D01*
X122663000Y-113645000D02*
X108158000Y-113645000D01*
X103678000Y-113605000D02*
X89160000Y-113605000D01*
X122676000Y-113605000D02*
X108158000Y-113605000D01*
X103678000Y-113565000D02*
X89147000Y-113565000D01*
X122689000Y-113565000D02*
X108158000Y-113565000D01*
X103678000Y-113525000D02*
X89135000Y-113525000D01*
X122701000Y-113525000D02*
X108158000Y-113525000D01*
X103678000Y-113485000D02*
X89122000Y-113485000D01*
X122714000Y-113485000D02*
X108158000Y-113485000D01*
X103678000Y-113445000D02*
X89110000Y-113445000D01*
X122726000Y-113445000D02*
X108158000Y-113445000D01*
X103678000Y-113405000D02*
X89098000Y-113405000D01*
X122738000Y-113405000D02*
X108158000Y-113405000D01*
X103678000Y-113365000D02*
X89086000Y-113365000D01*
X122750000Y-113365000D02*
X108158000Y-113365000D01*
X103678000Y-113325000D02*
X89074000Y-113325000D01*
X122762000Y-113325000D02*
X108158000Y-113325000D01*
X103678000Y-113285000D02*
X89062000Y-113285000D01*
X122774000Y-113285000D02*
X108158000Y-113285000D01*
X103678000Y-113245000D02*
X89050000Y-113245000D01*
X122786000Y-113245000D02*
X108158000Y-113245000D01*
X103678000Y-113205000D02*
X89038000Y-113205000D01*
X122798000Y-113205000D02*
X108158000Y-113205000D01*
X103678000Y-113165000D02*
X89027000Y-113165000D01*
X122809000Y-113165000D02*
X108158000Y-113165000D01*
X103678000Y-113125000D02*
X89015000Y-113125000D01*
X122821000Y-113125000D02*
X108158000Y-113125000D01*
X103678000Y-113085000D02*
X89004000Y-113085000D01*
X122832000Y-113085000D02*
X108158000Y-113085000D01*
X103678000Y-113045000D02*
X88993000Y-113045000D01*
X122843000Y-113045000D02*
X108158000Y-113045000D01*
X103678000Y-113005000D02*
X88981000Y-113005000D01*
X122855000Y-113005000D02*
X108158000Y-113005000D01*
X103678000Y-112965000D02*
X88970000Y-112965000D01*
X122866000Y-112965000D02*
X108158000Y-112965000D01*
X103678000Y-112925000D02*
X88959000Y-112925000D01*
X122877000Y-112925000D02*
X108158000Y-112925000D01*
X103678000Y-112885000D02*
X88949000Y-112885000D01*
X122887000Y-112885000D02*
X108158000Y-112885000D01*
X103678000Y-112845000D02*
X88938000Y-112845000D01*
X122898000Y-112845000D02*
X108158000Y-112845000D01*
X103678000Y-112805000D02*
X88927000Y-112805000D01*
X122909000Y-112805000D02*
X108158000Y-112805000D01*
X103678000Y-112765000D02*
X88917000Y-112765000D01*
X122919000Y-112765000D02*
X108158000Y-112765000D01*
X103678000Y-112725000D02*
X88906000Y-112725000D01*
X122930000Y-112725000D02*
X108158000Y-112725000D01*
X103678000Y-112685000D02*
X88896000Y-112685000D01*
X122940000Y-112685000D02*
X108158000Y-112685000D01*
X103678000Y-112645000D02*
X88885000Y-112645000D01*
X122951000Y-112645000D02*
X108158000Y-112645000D01*
X103678000Y-112605000D02*
X88875000Y-112605000D01*
X122961000Y-112605000D02*
X108158000Y-112605000D01*
X103678000Y-112565000D02*
X88865000Y-112565000D01*
X122971000Y-112565000D02*
X108158000Y-112565000D01*
X103678000Y-112525000D02*
X88855000Y-112525000D01*
X122981000Y-112525000D02*
X108158000Y-112525000D01*
X103678000Y-112485000D02*
X88845000Y-112485000D01*
X122991000Y-112485000D02*
X108158000Y-112485000D01*
X103678000Y-112445000D02*
X88836000Y-112445000D01*
X123000000Y-112445000D02*
X108158000Y-112445000D01*
X103678000Y-112405000D02*
X88826000Y-112405000D01*
X123010000Y-112405000D02*
X108158000Y-112405000D01*
X103678000Y-112365000D02*
X88816000Y-112365000D01*
X123020000Y-112365000D02*
X108158000Y-112365000D01*
X103678000Y-112325000D02*
X88807000Y-112325000D01*
X123029000Y-112325000D02*
X108158000Y-112325000D01*
X103678000Y-112285000D02*
X88798000Y-112285000D01*
X123038000Y-112285000D02*
X108158000Y-112285000D01*
X103678000Y-112245000D02*
X88788000Y-112245000D01*
X123048000Y-112245000D02*
X108158000Y-112245000D01*
X103678000Y-112205000D02*
X88779000Y-112205000D01*
X123057000Y-112205000D02*
X108158000Y-112205000D01*
X103678000Y-112165000D02*
X88770000Y-112165000D01*
X123066000Y-112165000D02*
X108158000Y-112165000D01*
X103678000Y-112125000D02*
X88761000Y-112125000D01*
X123075000Y-112125000D02*
X108158000Y-112125000D01*
X103678000Y-112085000D02*
X88752000Y-112085000D01*
X123084000Y-112085000D02*
X108158000Y-112085000D01*
X103678000Y-112045000D02*
X88743000Y-112045000D01*
X123093000Y-112045000D02*
X108158000Y-112045000D01*
X103678000Y-112005000D02*
X88735000Y-112005000D01*
X123101000Y-112005000D02*
X108158000Y-112005000D01*
X103678000Y-111965000D02*
X88726000Y-111965000D01*
X123110000Y-111965000D02*
X108158000Y-111965000D01*
X103678000Y-111925000D02*
X88718000Y-111925000D01*
X123118000Y-111925000D02*
X108158000Y-111925000D01*
X103678000Y-111885000D02*
X88709000Y-111885000D01*
X123127000Y-111885000D02*
X108158000Y-111885000D01*
X103678000Y-111845000D02*
X88701000Y-111845000D01*
X123135000Y-111845000D02*
X108158000Y-111845000D01*
X103678000Y-111805000D02*
X88693000Y-111805000D01*
X123143000Y-111805000D02*
X108158000Y-111805000D01*
X103678000Y-111765000D02*
X88685000Y-111765000D01*
X123151000Y-111765000D02*
X108158000Y-111765000D01*
X103678000Y-111725000D02*
X88677000Y-111725000D01*
X123159000Y-111725000D02*
X108158000Y-111725000D01*
X103678000Y-111685000D02*
X88669000Y-111685000D01*
X123167000Y-111685000D02*
X108158000Y-111685000D01*
X103678000Y-111645000D02*
X88661000Y-111645000D01*
X123175000Y-111645000D02*
X108158000Y-111645000D01*
X103678000Y-111605000D02*
X88653000Y-111605000D01*
X123183000Y-111605000D02*
X108158000Y-111605000D01*
X103678000Y-111565000D02*
X88645000Y-111565000D01*
X123191000Y-111565000D02*
X108158000Y-111565000D01*
X103678000Y-111525000D02*
X88638000Y-111525000D01*
X123198000Y-111525000D02*
X108158000Y-111525000D01*
X103678000Y-111485000D02*
X88631000Y-111485000D01*
X123205000Y-111485000D02*
X108158000Y-111485000D01*
X103678000Y-111445000D02*
X88623000Y-111445000D01*
X123213000Y-111445000D02*
X108158000Y-111445000D01*
X103678000Y-111405000D02*
X88616000Y-111405000D01*
X123220000Y-111405000D02*
X108158000Y-111405000D01*
X103678000Y-111365000D02*
X88609000Y-111365000D01*
X123227000Y-111365000D02*
X108158000Y-111365000D01*
X103678000Y-111325000D02*
X88602000Y-111325000D01*
X123234000Y-111325000D02*
X108158000Y-111325000D01*
X103678000Y-111285000D02*
X88595000Y-111285000D01*
X123241000Y-111285000D02*
X108158000Y-111285000D01*
X103678000Y-111245000D02*
X88588000Y-111245000D01*
X123248000Y-111245000D02*
X108158000Y-111245000D01*
X103678000Y-111205000D02*
X88581000Y-111205000D01*
X123255000Y-111205000D02*
X108158000Y-111205000D01*
X103678000Y-111165000D02*
X88574000Y-111165000D01*
X123262000Y-111165000D02*
X108158000Y-111165000D01*
X103678000Y-111125000D02*
X88568000Y-111125000D01*
X123268000Y-111125000D02*
X108158000Y-111125000D01*
X103678000Y-111085000D02*
X88561000Y-111085000D01*
X123275000Y-111085000D02*
X108158000Y-111085000D01*
X103678000Y-111045000D02*
X88555000Y-111045000D01*
X123281000Y-111045000D02*
X108158000Y-111045000D01*
X123287000Y-111005000D02*
X88549000Y-111005000D01*
X123293000Y-110965000D02*
X88543000Y-110965000D01*
X123300000Y-110925000D02*
X88536000Y-110925000D01*
X123306000Y-110885000D02*
X88530000Y-110885000D01*
X123312000Y-110845000D02*
X88524000Y-110845000D01*
X123317000Y-110805000D02*
X88519000Y-110805000D01*
X123323000Y-110765000D02*
X88513000Y-110765000D01*
X123329000Y-110725000D02*
X88507000Y-110725000D01*
X123334000Y-110685000D02*
X88502000Y-110685000D01*
X123340000Y-110645000D02*
X88496000Y-110645000D01*
X123345000Y-110605000D02*
X88491000Y-110605000D01*
X123350000Y-110565000D02*
X88486000Y-110565000D01*
X123356000Y-110525000D02*
X88480000Y-110525000D01*
X123361000Y-110485000D02*
X88475000Y-110485000D01*
X123366000Y-110445000D02*
X88470000Y-110445000D01*
X123370000Y-110405000D02*
X88466000Y-110405000D01*
X123375000Y-110365000D02*
X88461000Y-110365000D01*
X123380000Y-110325000D02*
X88456000Y-110325000D01*
X123385000Y-110285000D02*
X88451000Y-110285000D01*
X123389000Y-110245000D02*
X88447000Y-110245000D01*
X123394000Y-110205000D02*
X88442000Y-110205000D01*
X123398000Y-110165000D02*
X88438000Y-110165000D01*
X123402000Y-110125000D02*
X88434000Y-110125000D01*
X123406000Y-110085000D02*
X88430000Y-110085000D01*
X123410000Y-110045000D02*
X88426000Y-110045000D01*
X123414000Y-110005000D02*
X88422000Y-110005000D01*
X123418000Y-109965000D02*
X88418000Y-109965000D01*
X123422000Y-109925000D02*
X88414000Y-109925000D01*
X123426000Y-109885000D02*
X88410000Y-109885000D01*
X123429000Y-109845000D02*
X88407000Y-109845000D01*
X123433000Y-109805000D02*
X88403000Y-109805000D01*
X123436000Y-109765000D02*
X88400000Y-109765000D01*
X123440000Y-109725000D02*
X88396000Y-109725000D01*
X123443000Y-109685000D02*
X88393000Y-109685000D01*
X123446000Y-109645000D02*
X88390000Y-109645000D01*
X123449000Y-109605000D02*
X88387000Y-109605000D01*
X123452000Y-109565000D02*
X88384000Y-109565000D01*
X123455000Y-109525000D02*
X88381000Y-109525000D01*
X123458000Y-109485000D02*
X88378000Y-109485000D01*
X123460000Y-109445000D02*
X88376000Y-109445000D01*
X123463000Y-109405000D02*
X88373000Y-109405000D01*
X123465000Y-109365000D02*
X88371000Y-109365000D01*
X123468000Y-109325000D02*
X88368000Y-109325000D01*
X123470000Y-109285000D02*
X88366000Y-109285000D01*
X123472000Y-109245000D02*
X88364000Y-109245000D01*
X123474000Y-109205000D02*
X88362000Y-109205000D01*
X123477000Y-109165000D02*
X88359000Y-109165000D01*
X123478000Y-109125000D02*
X88358000Y-109125000D01*
X123480000Y-109085000D02*
X88356000Y-109085000D01*
X123482000Y-109045000D02*
X88354000Y-109045000D01*
X123484000Y-109005000D02*
X88352000Y-109005000D01*
X123485000Y-108964000D02*
X88351000Y-108964000D01*
X123487000Y-108924000D02*
X88349000Y-108924000D01*
X123488000Y-108884000D02*
X88348000Y-108884000D01*
X123490000Y-108844000D02*
X88346000Y-108844000D01*
X123491000Y-108804000D02*
X88345000Y-108804000D01*
X123492000Y-108764000D02*
X88344000Y-108764000D01*
X123493000Y-108724000D02*
X88343000Y-108724000D01*
X123494000Y-108684000D02*
X88342000Y-108684000D01*
X123495000Y-108644000D02*
X88341000Y-108644000D01*
X123496000Y-108604000D02*
X88340000Y-108604000D01*
X123496000Y-108564000D02*
X88340000Y-108564000D01*
X123497000Y-108524000D02*
X88339000Y-108524000D01*
X123497000Y-108484000D02*
X88339000Y-108484000D01*
X123498000Y-108444000D02*
X88338000Y-108444000D01*
X123498000Y-108404000D02*
X88338000Y-108404000D01*
X123498000Y-108364000D02*
X88338000Y-108364000D01*
X123498000Y-108324000D02*
X88338000Y-108324000D01*
X123498000Y-108284000D02*
X88338000Y-108284000D01*
X123538000Y-108284000D02*
G75*
G03*
X123538000Y-108284000I-17620000J0D01*
G01*
X117543000Y-55205998D02*
X114043000Y-55205998D01*
X115793000Y-53455998D02*
X115793000Y-56955998D01*
X106718000Y-89910000D02*
X105118000Y-89910000D01*
X107331000Y-89870000D02*
X104505000Y-89870000D01*
X107753000Y-89830000D02*
X104083000Y-89830000D01*
X108095000Y-89790000D02*
X103741000Y-89790000D01*
X108391000Y-89750000D02*
X103445000Y-89750000D01*
X108654000Y-89710000D02*
X103182000Y-89710000D01*
X108894000Y-89670000D02*
X102942000Y-89670000D01*
X109116000Y-89630000D02*
X102720000Y-89630000D01*
X109323000Y-89590000D02*
X102513000Y-89590000D01*
X109518000Y-89550000D02*
X102318000Y-89550000D01*
X109703000Y-89510000D02*
X102133000Y-89510000D01*
X109878000Y-89470000D02*
X101958000Y-89470000D01*
X110046000Y-89430000D02*
X101790000Y-89430000D01*
X110207000Y-89390000D02*
X101629000Y-89390000D01*
X110362000Y-89350000D02*
X101474000Y-89350000D01*
X110511000Y-89310000D02*
X101325000Y-89310000D01*
X110656000Y-89270000D02*
X101180000Y-89270000D01*
X110796000Y-89230000D02*
X101040000Y-89230000D01*
X110931000Y-89190000D02*
X100905000Y-89190000D01*
X111063000Y-89150000D02*
X100773000Y-89150000D01*
X111191000Y-89110000D02*
X100645000Y-89110000D01*
X111316000Y-89070000D02*
X100520000Y-89070000D01*
X111438000Y-89030000D02*
X100398000Y-89030000D01*
X111557000Y-88990000D02*
X100279000Y-88990000D01*
X111673000Y-88950000D02*
X100163000Y-88950000D01*
X111786000Y-88910000D02*
X100050000Y-88910000D01*
X111898000Y-88870000D02*
X99938000Y-88870000D01*
X112007000Y-88830000D02*
X99829000Y-88830000D01*
X112113000Y-88790000D02*
X99723000Y-88790000D01*
X112218000Y-88750000D02*
X99618000Y-88750000D01*
X112321000Y-88710000D02*
X99515000Y-88710000D01*
X112422000Y-88670000D02*
X99414000Y-88670000D01*
X112521000Y-88630000D02*
X99315000Y-88630000D01*
X112618000Y-88590000D02*
X99218000Y-88590000D01*
X112714000Y-88550000D02*
X99122000Y-88550000D01*
X112808000Y-88510000D02*
X99028000Y-88510000D01*
X112901000Y-88470000D02*
X98935000Y-88470000D01*
X112993000Y-88430000D02*
X98843000Y-88430000D01*
X113083000Y-88390000D02*
X98753000Y-88390000D01*
X113171000Y-88350000D02*
X98665000Y-88350000D01*
X113259000Y-88310000D02*
X98577000Y-88310000D01*
X113345000Y-88270000D02*
X98491000Y-88270000D01*
X113430000Y-88230000D02*
X98406000Y-88230000D01*
X113513000Y-88190000D02*
X98323000Y-88190000D01*
X113596000Y-88150000D02*
X98240000Y-88150000D01*
X113677000Y-88110000D02*
X98159000Y-88110000D01*
X113758000Y-88070000D02*
X98078000Y-88070000D01*
X113838000Y-88030000D02*
X97998000Y-88030000D01*
X113916000Y-87990000D02*
X97920000Y-87990000D01*
X113994000Y-87950000D02*
X97842000Y-87950000D01*
X114070000Y-87910000D02*
X97766000Y-87910000D01*
X114146000Y-87870000D02*
X97690000Y-87870000D01*
X114221000Y-87830000D02*
X97615000Y-87830000D01*
X114295000Y-87790000D02*
X97541000Y-87790000D01*
X114368000Y-87750000D02*
X97468000Y-87750000D01*
X114440000Y-87710000D02*
X97396000Y-87710000D01*
X114512000Y-87670000D02*
X97324000Y-87670000D01*
X114583000Y-87630000D02*
X97253000Y-87630000D01*
X114653000Y-87590000D02*
X97183000Y-87590000D01*
X114722000Y-87550000D02*
X97114000Y-87550000D01*
X114791000Y-87510000D02*
X97045000Y-87510000D01*
X114858000Y-87470000D02*
X96978000Y-87470000D01*
X114926000Y-87430000D02*
X96910000Y-87430000D01*
X114992000Y-87390000D02*
X96844000Y-87390000D01*
X115058000Y-87350000D02*
X96778000Y-87350000D01*
X115123000Y-87310000D02*
X96713000Y-87310000D01*
X115188000Y-87270000D02*
X96648000Y-87270000D01*
X115252000Y-87230000D02*
X96584000Y-87230000D01*
X115315000Y-87190000D02*
X96521000Y-87190000D01*
X115378000Y-87150000D02*
X96458000Y-87150000D01*
X115440000Y-87110000D02*
X96396000Y-87110000D01*
X115502000Y-87070000D02*
X96334000Y-87070000D01*
X115563000Y-87030000D02*
X96273000Y-87030000D01*
X115623000Y-86990000D02*
X96213000Y-86990000D01*
X115683000Y-86950000D02*
X96153000Y-86950000D01*
X115743000Y-86910000D02*
X96093000Y-86910000D01*
X115802000Y-86870000D02*
X96034000Y-86870000D01*
X115860000Y-86830000D02*
X95976000Y-86830000D01*
X115918000Y-86790000D02*
X95918000Y-86790000D01*
X115976000Y-86750000D02*
X95860000Y-86750000D01*
X116033000Y-86710000D02*
X95803000Y-86710000D01*
X116089000Y-86670000D02*
X95747000Y-86670000D01*
X116145000Y-86630000D02*
X95691000Y-86630000D01*
X116201000Y-86590000D02*
X95635000Y-86590000D01*
X116256000Y-86550000D02*
X95580000Y-86550000D01*
X116310000Y-86510000D02*
X95526000Y-86510000D01*
X116365000Y-86470000D02*
X95471000Y-86470000D01*
X116418000Y-86430000D02*
X95418000Y-86430000D01*
X116472000Y-86390000D02*
X95364000Y-86390000D01*
X116525000Y-86350000D02*
X95311000Y-86350000D01*
X116577000Y-86310000D02*
X95259000Y-86310000D01*
X116629000Y-86270000D02*
X95207000Y-86270000D01*
X116681000Y-86230000D02*
X95155000Y-86230000D01*
X116733000Y-86190000D02*
X95103000Y-86190000D01*
X116783000Y-86150000D02*
X95053000Y-86150000D01*
X116834000Y-86110000D02*
X95002000Y-86110000D01*
X116884000Y-86070000D02*
X94952000Y-86070000D01*
X116934000Y-86030000D02*
X94902000Y-86030000D01*
X116984000Y-85990000D02*
X94852000Y-85990000D01*
X117033000Y-85950000D02*
X94803000Y-85950000D01*
X117081000Y-85910000D02*
X94755000Y-85910000D01*
X117130000Y-85870000D02*
X94706000Y-85870000D01*
X117178000Y-85830000D02*
X94658000Y-85830000D01*
X117225000Y-85790000D02*
X94611000Y-85790000D01*
X117273000Y-85750000D02*
X94563000Y-85750000D01*
X117320000Y-85710000D02*
X94516000Y-85710000D01*
X117367000Y-85670000D02*
X94469000Y-85670000D01*
X117413000Y-85630000D02*
X94423000Y-85630000D01*
X117459000Y-85590000D02*
X94377000Y-85590000D01*
X117505000Y-85550000D02*
X94331000Y-85550000D01*
X117550000Y-85510000D02*
X94286000Y-85510000D01*
X117595000Y-85470000D02*
X94241000Y-85470000D01*
X117640000Y-85430000D02*
X94196000Y-85430000D01*
X117684000Y-85390000D02*
X94152000Y-85390000D01*
X117729000Y-85350000D02*
X94107000Y-85350000D01*
X117772000Y-85310000D02*
X94064000Y-85310000D01*
X117816000Y-85270000D02*
X94020000Y-85270000D01*
X117859000Y-85230000D02*
X93977000Y-85230000D01*
X117902000Y-85190000D02*
X93934000Y-85190000D01*
X117945000Y-85150000D02*
X93891000Y-85150000D01*
X117987000Y-85110000D02*
X93849000Y-85110000D01*
X118029000Y-85070000D02*
X93807000Y-85070000D01*
X118071000Y-85030000D02*
X93765000Y-85030000D01*
X118113000Y-84990000D02*
X93723000Y-84990000D01*
X118154000Y-84950000D02*
X93682000Y-84950000D01*
X118195000Y-84910000D02*
X93641000Y-84910000D01*
X118236000Y-84870000D02*
X93600000Y-84870000D01*
X118277000Y-84830000D02*
X93559000Y-84830000D01*
X118317000Y-84790000D02*
X93519000Y-84790000D01*
X118357000Y-84750000D02*
X93479000Y-84750000D01*
X118397000Y-84710000D02*
X93439000Y-84710000D01*
X118436000Y-84670000D02*
X93400000Y-84670000D01*
X118475000Y-84630000D02*
X93361000Y-84630000D01*
X118514000Y-84590000D02*
X93322000Y-84590000D01*
X118553000Y-84550000D02*
X93283000Y-84550000D01*
X118592000Y-84510000D02*
X93244000Y-84510000D01*
X118630000Y-84470000D02*
X93206000Y-84470000D01*
X118668000Y-84430000D02*
X93168000Y-84430000D01*
X118706000Y-84390000D02*
X93130000Y-84390000D01*
X118743000Y-84350000D02*
X93093000Y-84350000D01*
X118781000Y-84310000D02*
X93055000Y-84310000D01*
X118818000Y-84270000D02*
X93018000Y-84270000D01*
X118855000Y-84230000D02*
X92981000Y-84230000D01*
X118891000Y-84190000D02*
X92945000Y-84190000D01*
X118928000Y-84150000D02*
X92908000Y-84150000D01*
X118964000Y-84110000D02*
X92872000Y-84110000D01*
X119000000Y-84070000D02*
X92836000Y-84070000D01*
X119035000Y-84030000D02*
X92801000Y-84030000D01*
X119071000Y-83990000D02*
X92765000Y-83990000D01*
X119106000Y-83950000D02*
X92730000Y-83950000D01*
X119141000Y-83910000D02*
X92695000Y-83910000D01*
X119176000Y-83870000D02*
X92660000Y-83870000D01*
X119211000Y-83830000D02*
X92625000Y-83830000D01*
X119245000Y-83790000D02*
X92591000Y-83790000D01*
X119280000Y-83750000D02*
X92556000Y-83750000D01*
X119314000Y-83710000D02*
X92522000Y-83710000D01*
X119348000Y-83670000D02*
X92488000Y-83670000D01*
X119381000Y-83630000D02*
X92455000Y-83630000D01*
X119415000Y-83590000D02*
X92421000Y-83590000D01*
X119448000Y-83550000D02*
X92388000Y-83550000D01*
X119481000Y-83510000D02*
X92355000Y-83510000D01*
X119514000Y-83470000D02*
X92322000Y-83470000D01*
X119546000Y-83430000D02*
X92290000Y-83430000D01*
X119579000Y-83390000D02*
X92257000Y-83390000D01*
X119611000Y-83350000D02*
X92225000Y-83350000D01*
X119643000Y-83310000D02*
X92193000Y-83310000D01*
X119675000Y-83270000D02*
X92161000Y-83270000D01*
X119707000Y-83230000D02*
X92129000Y-83230000D01*
X119738000Y-83190000D02*
X92098000Y-83190000D01*
X119769000Y-83150000D02*
X92067000Y-83150000D01*
X119801000Y-83110000D02*
X92035000Y-83110000D01*
X119832000Y-83070000D02*
X92004000Y-83070000D01*
X119862000Y-83030000D02*
X91974000Y-83030000D01*
X119893000Y-82990000D02*
X91943000Y-82990000D01*
X119923000Y-82950000D02*
X91913000Y-82950000D01*
X119953000Y-82910000D02*
X91883000Y-82910000D01*
X119983000Y-82870000D02*
X91853000Y-82870000D01*
X120013000Y-82830000D02*
X91823000Y-82830000D01*
X120043000Y-82790000D02*
X91793000Y-82790000D01*
X120073000Y-82750000D02*
X91763000Y-82750000D01*
X120102000Y-82710000D02*
X91734000Y-82710000D01*
X120131000Y-82670000D02*
X91705000Y-82670000D01*
X120160000Y-82630000D02*
X91676000Y-82630000D01*
X120189000Y-82590000D02*
X91647000Y-82590000D01*
X120217000Y-82550000D02*
X91619000Y-82550000D01*
X120246000Y-82510000D02*
X91590000Y-82510000D01*
X120274000Y-82470000D02*
X91562000Y-82470000D01*
X120302000Y-82430000D02*
X91534000Y-82430000D01*
X120330000Y-82390000D02*
X91506000Y-82390000D01*
X120358000Y-82350000D02*
X91478000Y-82350000D01*
X120386000Y-82310000D02*
X91450000Y-82310000D01*
X120413000Y-82270000D02*
X91423000Y-82270000D01*
X120441000Y-82230000D02*
X91395000Y-82230000D01*
X120468000Y-82190000D02*
X91368000Y-82190000D01*
X120495000Y-82150000D02*
X91341000Y-82150000D01*
X120522000Y-82110000D02*
X91314000Y-82110000D01*
X120548000Y-82070000D02*
X91288000Y-82070000D01*
X120575000Y-82030000D02*
X91261000Y-82030000D01*
X120601000Y-81990000D02*
X91235000Y-81990000D01*
X120628000Y-81950000D02*
X91208000Y-81950000D01*
X120654000Y-81910000D02*
X91182000Y-81910000D01*
X120680000Y-81870000D02*
X91156000Y-81870000D01*
X120705000Y-81830000D02*
X91131000Y-81830000D01*
X120731000Y-81790000D02*
X91105000Y-81790000D01*
X120756000Y-81750000D02*
X91080000Y-81750000D01*
X120782000Y-81710000D02*
X91054000Y-81710000D01*
X120807000Y-81670000D02*
X91029000Y-81670000D01*
X120832000Y-81630000D02*
X91004000Y-81630000D01*
X120857000Y-81590000D02*
X90979000Y-81590000D01*
X120881000Y-81550000D02*
X90955000Y-81550000D01*
X120906000Y-81510000D02*
X90930000Y-81510000D01*
X120930000Y-81470000D02*
X90906000Y-81470000D01*
X120955000Y-81430000D02*
X90881000Y-81430000D01*
X120979000Y-81390000D02*
X90857000Y-81390000D01*
X121003000Y-81350000D02*
X90833000Y-81350000D01*
X121027000Y-81310000D02*
X90809000Y-81310000D01*
X121050000Y-81270000D02*
X90786000Y-81270000D01*
X121074000Y-81230000D02*
X90762000Y-81230000D01*
X121097000Y-81190000D02*
X90739000Y-81190000D01*
X121121000Y-81150000D02*
X90715000Y-81150000D01*
X121144000Y-81110000D02*
X90692000Y-81110000D01*
X121167000Y-81070000D02*
X90669000Y-81070000D01*
X121189000Y-81030000D02*
X90647000Y-81030000D01*
X121212000Y-80990000D02*
X90624000Y-80990000D01*
X121235000Y-80950000D02*
X90601000Y-80950000D01*
X121257000Y-80910000D02*
X90579000Y-80910000D01*
X121279000Y-80870000D02*
X90557000Y-80870000D01*
X121302000Y-80830000D02*
X90534000Y-80830000D01*
X121324000Y-80790000D02*
X90512000Y-80790000D01*
X121346000Y-80750000D02*
X90490000Y-80750000D01*
X121367000Y-80710000D02*
X90469000Y-80710000D01*
X121389000Y-80670000D02*
X90447000Y-80670000D01*
X121410000Y-80630000D02*
X90426000Y-80630000D01*
X121432000Y-80590000D02*
X90404000Y-80590000D01*
X121453000Y-80550000D02*
X90383000Y-80550000D01*
X121474000Y-80510000D02*
X90362000Y-80510000D01*
X121495000Y-80471000D02*
X90341000Y-80471000D01*
X121516000Y-80431000D02*
X90320000Y-80431000D01*
X121537000Y-80391000D02*
X90299000Y-80391000D01*
X121557000Y-80351000D02*
X90279000Y-80351000D01*
X121578000Y-80311000D02*
X90258000Y-80311000D01*
X121598000Y-80271000D02*
X90238000Y-80271000D01*
X121618000Y-80231000D02*
X90218000Y-80231000D01*
X121638000Y-80191000D02*
X90198000Y-80191000D01*
X121658000Y-80151000D02*
X90178000Y-80151000D01*
X121678000Y-80111000D02*
X90158000Y-80111000D01*
X121698000Y-80071000D02*
X90138000Y-80071000D01*
X121717000Y-80031000D02*
X90119000Y-80031000D01*
X121737000Y-79991000D02*
X90099000Y-79991000D01*
X121756000Y-79951000D02*
X90080000Y-79951000D01*
X121775000Y-79911000D02*
X90061000Y-79911000D01*
X121794000Y-79871000D02*
X90042000Y-79871000D01*
X121813000Y-79831000D02*
X90023000Y-79831000D01*
X121832000Y-79791000D02*
X90004000Y-79791000D01*
X121851000Y-79751000D02*
X89985000Y-79751000D01*
X121869000Y-79711000D02*
X89967000Y-79711000D01*
X121888000Y-79671000D02*
X89948000Y-79671000D01*
X121906000Y-79631000D02*
X89930000Y-79631000D01*
X121924000Y-79591000D02*
X89912000Y-79591000D01*
X121942000Y-79551000D02*
X89894000Y-79551000D01*
X103678000Y-79511000D02*
X89876000Y-79511000D01*
X121960000Y-79511000D02*
X108158000Y-79511000D01*
X103678000Y-79471000D02*
X89858000Y-79471000D01*
X121978000Y-79471000D02*
X108158000Y-79471000D01*
X103678000Y-79431000D02*
X89840000Y-79431000D01*
X121996000Y-79431000D02*
X108158000Y-79431000D01*
X103678000Y-79391000D02*
X89823000Y-79391000D01*
X122013000Y-79391000D02*
X108158000Y-79391000D01*
X103678000Y-79351000D02*
X89805000Y-79351000D01*
X122031000Y-79351000D02*
X108158000Y-79351000D01*
X103678000Y-79311000D02*
X89788000Y-79311000D01*
X122048000Y-79311000D02*
X108158000Y-79311000D01*
X103678000Y-79271000D02*
X89770000Y-79271000D01*
X122066000Y-79271000D02*
X108158000Y-79271000D01*
X103678000Y-79231000D02*
X89753000Y-79231000D01*
X122083000Y-79231000D02*
X108158000Y-79231000D01*
X103678000Y-79191000D02*
X89736000Y-79191000D01*
X122100000Y-79191000D02*
X108158000Y-79191000D01*
X103678000Y-79151000D02*
X89719000Y-79151000D01*
X122117000Y-79151000D02*
X108158000Y-79151000D01*
X103678000Y-79111000D02*
X89703000Y-79111000D01*
X122133000Y-79111000D02*
X108158000Y-79111000D01*
X103678000Y-79071000D02*
X89686000Y-79071000D01*
X122150000Y-79071000D02*
X108158000Y-79071000D01*
X103678000Y-79031000D02*
X89669000Y-79031000D01*
X122167000Y-79031000D02*
X108158000Y-79031000D01*
X103678000Y-78991000D02*
X89653000Y-78991000D01*
X122183000Y-78991000D02*
X108158000Y-78991000D01*
X103678000Y-78951000D02*
X89637000Y-78951000D01*
X122199000Y-78951000D02*
X108158000Y-78951000D01*
X103678000Y-78911000D02*
X89620000Y-78911000D01*
X122216000Y-78911000D02*
X108158000Y-78911000D01*
X103678000Y-78871000D02*
X89604000Y-78871000D01*
X122232000Y-78871000D02*
X108158000Y-78871000D01*
X103678000Y-78831000D02*
X89588000Y-78831000D01*
X122248000Y-78831000D02*
X108158000Y-78831000D01*
X103678000Y-78791000D02*
X89572000Y-78791000D01*
X122264000Y-78791000D02*
X108158000Y-78791000D01*
X103678000Y-78751000D02*
X89557000Y-78751000D01*
X122279000Y-78751000D02*
X108158000Y-78751000D01*
X103678000Y-78711000D02*
X89541000Y-78711000D01*
X122295000Y-78711000D02*
X108158000Y-78711000D01*
X103678000Y-78671000D02*
X89525000Y-78671000D01*
X122311000Y-78671000D02*
X108158000Y-78671000D01*
X103678000Y-78631000D02*
X89510000Y-78631000D01*
X122326000Y-78631000D02*
X108158000Y-78631000D01*
X103678000Y-78591000D02*
X89495000Y-78591000D01*
X122341000Y-78591000D02*
X108158000Y-78591000D01*
X103678000Y-78551000D02*
X89479000Y-78551000D01*
X122357000Y-78551000D02*
X108158000Y-78551000D01*
X103678000Y-78511000D02*
X89464000Y-78511000D01*
X122372000Y-78511000D02*
X108158000Y-78511000D01*
X103678000Y-78471000D02*
X89449000Y-78471000D01*
X122387000Y-78471000D02*
X108158000Y-78471000D01*
X103678000Y-78431000D02*
X89434000Y-78431000D01*
X122402000Y-78431000D02*
X108158000Y-78431000D01*
X103678000Y-78391000D02*
X89420000Y-78391000D01*
X122416000Y-78391000D02*
X108158000Y-78391000D01*
X103678000Y-78351000D02*
X89405000Y-78351000D01*
X122431000Y-78351000D02*
X108158000Y-78351000D01*
X103678000Y-78311000D02*
X89391000Y-78311000D01*
X122445000Y-78311000D02*
X108158000Y-78311000D01*
X103678000Y-78271000D02*
X89376000Y-78271000D01*
X122460000Y-78271000D02*
X108158000Y-78271000D01*
X103678000Y-78231000D02*
X89362000Y-78231000D01*
X122474000Y-78231000D02*
X108158000Y-78231000D01*
X103678000Y-78191000D02*
X89348000Y-78191000D01*
X122488000Y-78191000D02*
X108158000Y-78191000D01*
X103678000Y-78151000D02*
X89333000Y-78151000D01*
X122503000Y-78151000D02*
X108158000Y-78151000D01*
X103678000Y-78111000D02*
X89319000Y-78111000D01*
X122517000Y-78111000D02*
X108158000Y-78111000D01*
X103678000Y-78071000D02*
X89306000Y-78071000D01*
X122530000Y-78071000D02*
X108158000Y-78071000D01*
X103678000Y-78031000D02*
X89292000Y-78031000D01*
X122544000Y-78031000D02*
X108158000Y-78031000D01*
X103678000Y-77991000D02*
X89278000Y-77991000D01*
X122558000Y-77991000D02*
X108158000Y-77991000D01*
X103678000Y-77951000D02*
X89265000Y-77951000D01*
X122571000Y-77951000D02*
X108158000Y-77951000D01*
X103678000Y-77911000D02*
X89251000Y-77911000D01*
X122585000Y-77911000D02*
X108158000Y-77911000D01*
X103678000Y-77871000D02*
X89238000Y-77871000D01*
X122598000Y-77871000D02*
X108158000Y-77871000D01*
X103678000Y-77831000D02*
X89224000Y-77831000D01*
X122612000Y-77831000D02*
X108158000Y-77831000D01*
X103678000Y-77791000D02*
X89211000Y-77791000D01*
X122625000Y-77791000D02*
X108158000Y-77791000D01*
X103678000Y-77751000D02*
X89198000Y-77751000D01*
X122638000Y-77751000D02*
X108158000Y-77751000D01*
X103678000Y-77711000D02*
X89185000Y-77711000D01*
X122651000Y-77711000D02*
X108158000Y-77711000D01*
X103678000Y-77671000D02*
X89173000Y-77671000D01*
X122663000Y-77671000D02*
X108158000Y-77671000D01*
X103678000Y-77631000D02*
X89160000Y-77631000D01*
X122676000Y-77631000D02*
X108158000Y-77631000D01*
X103678000Y-77591000D02*
X89147000Y-77591000D01*
X122689000Y-77591000D02*
X108158000Y-77591000D01*
X103678000Y-77551000D02*
X89135000Y-77551000D01*
X122701000Y-77551000D02*
X108158000Y-77551000D01*
X103678000Y-77511000D02*
X89122000Y-77511000D01*
X122714000Y-77511000D02*
X108158000Y-77511000D01*
X103678000Y-77471000D02*
X89110000Y-77471000D01*
X122726000Y-77471000D02*
X108158000Y-77471000D01*
X103678000Y-77431000D02*
X89098000Y-77431000D01*
X122738000Y-77431000D02*
X108158000Y-77431000D01*
X103678000Y-77391000D02*
X89086000Y-77391000D01*
X122750000Y-77391000D02*
X108158000Y-77391000D01*
X103678000Y-77351000D02*
X89074000Y-77351000D01*
X122762000Y-77351000D02*
X108158000Y-77351000D01*
X103678000Y-77311000D02*
X89062000Y-77311000D01*
X122774000Y-77311000D02*
X108158000Y-77311000D01*
X103678000Y-77271000D02*
X89050000Y-77271000D01*
X122786000Y-77271000D02*
X108158000Y-77271000D01*
X103678000Y-77231000D02*
X89038000Y-77231000D01*
X122798000Y-77231000D02*
X108158000Y-77231000D01*
X103678000Y-77191000D02*
X89027000Y-77191000D01*
X122809000Y-77191000D02*
X108158000Y-77191000D01*
X103678000Y-77151000D02*
X89015000Y-77151000D01*
X122821000Y-77151000D02*
X108158000Y-77151000D01*
X103678000Y-77111000D02*
X89004000Y-77111000D01*
X122832000Y-77111000D02*
X108158000Y-77111000D01*
X103678000Y-77071000D02*
X88993000Y-77071000D01*
X122843000Y-77071000D02*
X108158000Y-77071000D01*
X103678000Y-77031000D02*
X88981000Y-77031000D01*
X122855000Y-77031000D02*
X108158000Y-77031000D01*
X103678000Y-76991000D02*
X88970000Y-76991000D01*
X122866000Y-76991000D02*
X108158000Y-76991000D01*
X103678000Y-76951000D02*
X88959000Y-76951000D01*
X122877000Y-76951000D02*
X108158000Y-76951000D01*
X103678000Y-76911000D02*
X88949000Y-76911000D01*
X122887000Y-76911000D02*
X108158000Y-76911000D01*
X103678000Y-76871000D02*
X88938000Y-76871000D01*
X122898000Y-76871000D02*
X108158000Y-76871000D01*
X103678000Y-76831000D02*
X88927000Y-76831000D01*
X122909000Y-76831000D02*
X108158000Y-76831000D01*
X103678000Y-76791000D02*
X88917000Y-76791000D01*
X122919000Y-76791000D02*
X108158000Y-76791000D01*
X103678000Y-76751000D02*
X88906000Y-76751000D01*
X122930000Y-76751000D02*
X108158000Y-76751000D01*
X103678000Y-76711000D02*
X88896000Y-76711000D01*
X122940000Y-76711000D02*
X108158000Y-76711000D01*
X103678000Y-76671000D02*
X88885000Y-76671000D01*
X122951000Y-76671000D02*
X108158000Y-76671000D01*
X103678000Y-76631000D02*
X88875000Y-76631000D01*
X122961000Y-76631000D02*
X108158000Y-76631000D01*
X103678000Y-76591000D02*
X88865000Y-76591000D01*
X122971000Y-76591000D02*
X108158000Y-76591000D01*
X103678000Y-76551000D02*
X88855000Y-76551000D01*
X122981000Y-76551000D02*
X108158000Y-76551000D01*
X103678000Y-76511000D02*
X88845000Y-76511000D01*
X122991000Y-76511000D02*
X108158000Y-76511000D01*
X103678000Y-76471000D02*
X88836000Y-76471000D01*
X123000000Y-76471000D02*
X108158000Y-76471000D01*
X103678000Y-76431000D02*
X88826000Y-76431000D01*
X123010000Y-76431000D02*
X108158000Y-76431000D01*
X103678000Y-76391000D02*
X88816000Y-76391000D01*
X123020000Y-76391000D02*
X108158000Y-76391000D01*
X103678000Y-76351000D02*
X88807000Y-76351000D01*
X123029000Y-76351000D02*
X108158000Y-76351000D01*
X103678000Y-76311000D02*
X88798000Y-76311000D01*
X123038000Y-76311000D02*
X108158000Y-76311000D01*
X103678000Y-76271000D02*
X88788000Y-76271000D01*
X123048000Y-76271000D02*
X108158000Y-76271000D01*
X103678000Y-76231000D02*
X88779000Y-76231000D01*
X123057000Y-76231000D02*
X108158000Y-76231000D01*
X103678000Y-76191000D02*
X88770000Y-76191000D01*
X123066000Y-76191000D02*
X108158000Y-76191000D01*
X103678000Y-76151000D02*
X88761000Y-76151000D01*
X123075000Y-76151000D02*
X108158000Y-76151000D01*
X103678000Y-76111000D02*
X88752000Y-76111000D01*
X123084000Y-76111000D02*
X108158000Y-76111000D01*
X103678000Y-76071000D02*
X88743000Y-76071000D01*
X123093000Y-76071000D02*
X108158000Y-76071000D01*
X103678000Y-76031000D02*
X88735000Y-76031000D01*
X123101000Y-76031000D02*
X108158000Y-76031000D01*
X103678000Y-75991000D02*
X88726000Y-75991000D01*
X123110000Y-75991000D02*
X108158000Y-75991000D01*
X103678000Y-75951000D02*
X88718000Y-75951000D01*
X123118000Y-75951000D02*
X108158000Y-75951000D01*
X103678000Y-75911000D02*
X88709000Y-75911000D01*
X123127000Y-75911000D02*
X108158000Y-75911000D01*
X103678000Y-75871000D02*
X88701000Y-75871000D01*
X123135000Y-75871000D02*
X108158000Y-75871000D01*
X103678000Y-75831000D02*
X88693000Y-75831000D01*
X123143000Y-75831000D02*
X108158000Y-75831000D01*
X103678000Y-75791000D02*
X88685000Y-75791000D01*
X123151000Y-75791000D02*
X108158000Y-75791000D01*
X103678000Y-75751000D02*
X88677000Y-75751000D01*
X123159000Y-75751000D02*
X108158000Y-75751000D01*
X103678000Y-75711000D02*
X88669000Y-75711000D01*
X123167000Y-75711000D02*
X108158000Y-75711000D01*
X103678000Y-75671000D02*
X88661000Y-75671000D01*
X123175000Y-75671000D02*
X108158000Y-75671000D01*
X103678000Y-75631000D02*
X88653000Y-75631000D01*
X123183000Y-75631000D02*
X108158000Y-75631000D01*
X103678000Y-75591000D02*
X88645000Y-75591000D01*
X123191000Y-75591000D02*
X108158000Y-75591000D01*
X103678000Y-75551000D02*
X88638000Y-75551000D01*
X123198000Y-75551000D02*
X108158000Y-75551000D01*
X103678000Y-75511000D02*
X88631000Y-75511000D01*
X123205000Y-75511000D02*
X108158000Y-75511000D01*
X103678000Y-75471000D02*
X88623000Y-75471000D01*
X123213000Y-75471000D02*
X108158000Y-75471000D01*
X103678000Y-75431000D02*
X88616000Y-75431000D01*
X123220000Y-75431000D02*
X108158000Y-75431000D01*
X103678000Y-75391000D02*
X88609000Y-75391000D01*
X123227000Y-75391000D02*
X108158000Y-75391000D01*
X103678000Y-75351000D02*
X88602000Y-75351000D01*
X123234000Y-75351000D02*
X108158000Y-75351000D01*
X103678000Y-75311000D02*
X88595000Y-75311000D01*
X123241000Y-75311000D02*
X108158000Y-75311000D01*
X103678000Y-75271000D02*
X88588000Y-75271000D01*
X123248000Y-75271000D02*
X108158000Y-75271000D01*
X103678000Y-75231000D02*
X88581000Y-75231000D01*
X123255000Y-75231000D02*
X108158000Y-75231000D01*
X103678000Y-75191000D02*
X88574000Y-75191000D01*
X123262000Y-75191000D02*
X108158000Y-75191000D01*
X103678000Y-75151000D02*
X88568000Y-75151000D01*
X123268000Y-75151000D02*
X108158000Y-75151000D01*
X103678000Y-75111000D02*
X88561000Y-75111000D01*
X123275000Y-75111000D02*
X108158000Y-75111000D01*
X103678000Y-75071000D02*
X88555000Y-75071000D01*
X123281000Y-75071000D02*
X108158000Y-75071000D01*
X123287000Y-75031000D02*
X88549000Y-75031000D01*
X123293000Y-74991000D02*
X88543000Y-74991000D01*
X123300000Y-74951000D02*
X88536000Y-74951000D01*
X123306000Y-74911000D02*
X88530000Y-74911000D01*
X123312000Y-74871000D02*
X88524000Y-74871000D01*
X123317000Y-74831000D02*
X88519000Y-74831000D01*
X123323000Y-74791000D02*
X88513000Y-74791000D01*
X123329000Y-74751000D02*
X88507000Y-74751000D01*
X123334000Y-74711000D02*
X88502000Y-74711000D01*
X123340000Y-74671000D02*
X88496000Y-74671000D01*
X123345000Y-74631000D02*
X88491000Y-74631000D01*
X123350000Y-74591000D02*
X88486000Y-74591000D01*
X123356000Y-74551000D02*
X88480000Y-74551000D01*
X123361000Y-74511000D02*
X88475000Y-74511000D01*
X123366000Y-74471000D02*
X88470000Y-74471000D01*
X123370000Y-74431000D02*
X88466000Y-74431000D01*
X123375000Y-74391000D02*
X88461000Y-74391000D01*
X123380000Y-74351000D02*
X88456000Y-74351000D01*
X123385000Y-74311000D02*
X88451000Y-74311000D01*
X123389000Y-74271000D02*
X88447000Y-74271000D01*
X123394000Y-74231000D02*
X88442000Y-74231000D01*
X123398000Y-74191000D02*
X88438000Y-74191000D01*
X123402000Y-74151000D02*
X88434000Y-74151000D01*
X123406000Y-74111000D02*
X88430000Y-74111000D01*
X123410000Y-74071000D02*
X88426000Y-74071000D01*
X123414000Y-74031000D02*
X88422000Y-74031000D01*
X123418000Y-73991000D02*
X88418000Y-73991000D01*
X123422000Y-73951000D02*
X88414000Y-73951000D01*
X123426000Y-73911000D02*
X88410000Y-73911000D01*
X123429000Y-73871000D02*
X88407000Y-73871000D01*
X123433000Y-73831000D02*
X88403000Y-73831000D01*
X123436000Y-73791000D02*
X88400000Y-73791000D01*
X123440000Y-73751000D02*
X88396000Y-73751000D01*
X123443000Y-73711000D02*
X88393000Y-73711000D01*
X123446000Y-73671000D02*
X88390000Y-73671000D01*
X123449000Y-73631000D02*
X88387000Y-73631000D01*
X123452000Y-73591000D02*
X88384000Y-73591000D01*
X123455000Y-73551000D02*
X88381000Y-73551000D01*
X123458000Y-73511000D02*
X88378000Y-73511000D01*
X123460000Y-73471000D02*
X88376000Y-73471000D01*
X123463000Y-73431000D02*
X88373000Y-73431000D01*
X123465000Y-73391000D02*
X88371000Y-73391000D01*
X123468000Y-73351000D02*
X88368000Y-73351000D01*
X123470000Y-73311000D02*
X88366000Y-73311000D01*
X123472000Y-73271000D02*
X88364000Y-73271000D01*
X123474000Y-73231000D02*
X88362000Y-73231000D01*
X123477000Y-73191000D02*
X88359000Y-73191000D01*
X123478000Y-73151000D02*
X88358000Y-73151000D01*
X123480000Y-73111000D02*
X88356000Y-73111000D01*
X123482000Y-73071000D02*
X88354000Y-73071000D01*
X123484000Y-73031000D02*
X88352000Y-73031000D01*
X123485000Y-72990000D02*
X88351000Y-72990000D01*
X123487000Y-72950000D02*
X88349000Y-72950000D01*
X123488000Y-72910000D02*
X88348000Y-72910000D01*
X123490000Y-72870000D02*
X88346000Y-72870000D01*
X123491000Y-72830000D02*
X88345000Y-72830000D01*
X123492000Y-72790000D02*
X88344000Y-72790000D01*
X123493000Y-72750000D02*
X88343000Y-72750000D01*
X123494000Y-72710000D02*
X88342000Y-72710000D01*
X123495000Y-72670000D02*
X88341000Y-72670000D01*
X123496000Y-72630000D02*
X88340000Y-72630000D01*
X123496000Y-72590000D02*
X88340000Y-72590000D01*
X123497000Y-72550000D02*
X88339000Y-72550000D01*
X123497000Y-72510000D02*
X88339000Y-72510000D01*
X123498000Y-72470000D02*
X88338000Y-72470000D01*
X123498000Y-72430000D02*
X88338000Y-72430000D01*
X123498000Y-72390000D02*
X88338000Y-72390000D01*
X123498000Y-72350000D02*
X88338000Y-72350000D01*
X123498000Y-72310000D02*
X88338000Y-72310000D01*
X123538000Y-72310000D02*
G75*
G03*
X123538000Y-72310000I-17620000J0D01*
G01*
D10*
X143867142Y-97194666D02*
X143914761Y-97242285D01*
X143962380Y-97385142D01*
X143962380Y-97480380D01*
X143914761Y-97623238D01*
X143819523Y-97718476D01*
X143724285Y-97766095D01*
X143533809Y-97813714D01*
X143390952Y-97813714D01*
X143200476Y-97766095D01*
X143105238Y-97718476D01*
X143010000Y-97623238D01*
X142962380Y-97480380D01*
X142962380Y-97385142D01*
X143010000Y-97242285D01*
X143057619Y-97194666D01*
X143390952Y-96623238D02*
X143343333Y-96718476D01*
X143295714Y-96766095D01*
X143200476Y-96813714D01*
X143152857Y-96813714D01*
X143057619Y-96766095D01*
X143010000Y-96718476D01*
X142962380Y-96623238D01*
X142962380Y-96432761D01*
X143010000Y-96337523D01*
X143057619Y-96289904D01*
X143152857Y-96242285D01*
X143200476Y-96242285D01*
X143295714Y-96289904D01*
X143343333Y-96337523D01*
X143390952Y-96432761D01*
X143390952Y-96623238D01*
X143438571Y-96718476D01*
X143486190Y-96766095D01*
X143581428Y-96813714D01*
X143771904Y-96813714D01*
X143867142Y-96766095D01*
X143914761Y-96718476D01*
X143962380Y-96623238D01*
X143962380Y-96432761D01*
X143914761Y-96337523D01*
X143867142Y-96289904D01*
X143771904Y-96242285D01*
X143581428Y-96242285D01*
X143486190Y-96289904D01*
X143438571Y-96337523D01*
X143390952Y-96432761D01*
X143867142Y-83986666D02*
X143914761Y-84034285D01*
X143962380Y-84177142D01*
X143962380Y-84272380D01*
X143914761Y-84415238D01*
X143819523Y-84510476D01*
X143724285Y-84558095D01*
X143533809Y-84605714D01*
X143390952Y-84605714D01*
X143200476Y-84558095D01*
X143105238Y-84510476D01*
X143010000Y-84415238D01*
X142962380Y-84272380D01*
X142962380Y-84177142D01*
X143010000Y-84034285D01*
X143057619Y-83986666D01*
X142962380Y-83653333D02*
X142962380Y-82986666D01*
X143962380Y-83415238D01*
X126341142Y-90590666D02*
X126388761Y-90638285D01*
X126436380Y-90781142D01*
X126436380Y-90876380D01*
X126388761Y-91019238D01*
X126293523Y-91114476D01*
X126198285Y-91162095D01*
X126007809Y-91209714D01*
X125864952Y-91209714D01*
X125674476Y-91162095D01*
X125579238Y-91114476D01*
X125484000Y-91019238D01*
X125436380Y-90876380D01*
X125436380Y-90781142D01*
X125484000Y-90638285D01*
X125531619Y-90590666D01*
X125436380Y-89733523D02*
X125436380Y-89924000D01*
X125484000Y-90019238D01*
X125531619Y-90066857D01*
X125674476Y-90162095D01*
X125864952Y-90209714D01*
X126245904Y-90209714D01*
X126341142Y-90162095D01*
X126388761Y-90114476D01*
X126436380Y-90019238D01*
X126436380Y-89828761D01*
X126388761Y-89733523D01*
X126341142Y-89685904D01*
X126245904Y-89638285D01*
X126007809Y-89638285D01*
X125912571Y-89685904D01*
X125864952Y-89733523D01*
X125817333Y-89828761D01*
X125817333Y-90019238D01*
X125864952Y-90114476D01*
X125912571Y-90162095D01*
X126007809Y-90209714D01*
X139549142Y-90574666D02*
X139596761Y-90622285D01*
X139644380Y-90765142D01*
X139644380Y-90860380D01*
X139596761Y-91003238D01*
X139501523Y-91098476D01*
X139406285Y-91146095D01*
X139215809Y-91193714D01*
X139072952Y-91193714D01*
X138882476Y-91146095D01*
X138787238Y-91098476D01*
X138692000Y-91003238D01*
X138644380Y-90860380D01*
X138644380Y-90765142D01*
X138692000Y-90622285D01*
X138739619Y-90574666D01*
X138644380Y-89669904D02*
X138644380Y-90146095D01*
X139120571Y-90193714D01*
X139072952Y-90146095D01*
X139025333Y-90050857D01*
X139025333Y-89812761D01*
X139072952Y-89717523D01*
X139120571Y-89669904D01*
X139215809Y-89622285D01*
X139453904Y-89622285D01*
X139549142Y-89669904D01*
X139596761Y-89717523D01*
X139644380Y-89812761D01*
X139644380Y-90050857D01*
X139596761Y-90146095D01*
X139549142Y-90193714D01*
X81986380Y-110656666D02*
X81510190Y-110990000D01*
X81986380Y-111228095D02*
X80986380Y-111228095D01*
X80986380Y-110847142D01*
X81034000Y-110751904D01*
X81081619Y-110704285D01*
X81176857Y-110656666D01*
X81319714Y-110656666D01*
X81414952Y-110704285D01*
X81462571Y-110751904D01*
X81510190Y-110847142D01*
X81510190Y-111228095D01*
X81081619Y-110275714D02*
X81034000Y-110228095D01*
X80986380Y-110132857D01*
X80986380Y-109894761D01*
X81034000Y-109799523D01*
X81081619Y-109751904D01*
X81176857Y-109704285D01*
X81272095Y-109704285D01*
X81414952Y-109751904D01*
X81986380Y-110323333D01*
X81986380Y-109704285D01*
X81986380Y-70270666D02*
X81510190Y-70604000D01*
X81986380Y-70842095D02*
X80986380Y-70842095D01*
X80986380Y-70461142D01*
X81034000Y-70365904D01*
X81081619Y-70318285D01*
X81176857Y-70270666D01*
X81319714Y-70270666D01*
X81414952Y-70318285D01*
X81462571Y-70365904D01*
X81510190Y-70461142D01*
X81510190Y-70842095D01*
X81986380Y-69318285D02*
X81986380Y-69889714D01*
X81986380Y-69604000D02*
X80986380Y-69604000D01*
X81129238Y-69699238D01*
X81224476Y-69794476D01*
X81272095Y-69889714D01*
X131826095Y-95512380D02*
X131826095Y-96321904D01*
X131873714Y-96417142D01*
X131921333Y-96464761D01*
X132016571Y-96512380D01*
X132207047Y-96512380D01*
X132302285Y-96464761D01*
X132349904Y-96417142D01*
X132397523Y-96321904D01*
X132397523Y-95512380D01*
X132826095Y-95607619D02*
X132873714Y-95560000D01*
X132968952Y-95512380D01*
X133207047Y-95512380D01*
X133302285Y-95560000D01*
X133349904Y-95607619D01*
X133397523Y-95702857D01*
X133397523Y-95798095D01*
X133349904Y-95940952D01*
X132778476Y-96512380D01*
X133397523Y-96512380D01*
X131826095Y-83986380D02*
X131826095Y-84795904D01*
X131873714Y-84891142D01*
X131921333Y-84938761D01*
X132016571Y-84986380D01*
X132207047Y-84986380D01*
X132302285Y-84938761D01*
X132349904Y-84891142D01*
X132397523Y-84795904D01*
X132397523Y-83986380D01*
X133397523Y-84986380D02*
X132826095Y-84986380D01*
X133111809Y-84986380D02*
X133111809Y-83986380D01*
X133016571Y-84129238D01*
X132921333Y-84224476D01*
X132826095Y-84272095D01*
X146010380Y-91773333D02*
X146724666Y-91773333D01*
X146867523Y-91820952D01*
X146962761Y-91916190D01*
X147010380Y-92059047D01*
X147010380Y-92154285D01*
X146010380Y-90820952D02*
X146010380Y-91297142D01*
X146486571Y-91344761D01*
X146438952Y-91297142D01*
X146391333Y-91201904D01*
X146391333Y-90963809D01*
X146438952Y-90868571D01*
X146486571Y-90820952D01*
X146581809Y-90773333D01*
X146819904Y-90773333D01*
X146915142Y-90820952D01*
X146962761Y-90868571D01*
X147010380Y-90963809D01*
X147010380Y-91201904D01*
X146962761Y-91297142D01*
X146915142Y-91344761D01*
X146010380Y-89487333D02*
X146724666Y-89487333D01*
X146867523Y-89534952D01*
X146962761Y-89630190D01*
X147010380Y-89773047D01*
X147010380Y-89868285D01*
X146343714Y-88582571D02*
X147010380Y-88582571D01*
X145962761Y-88820666D02*
X146677047Y-89058761D01*
X146677047Y-88439714D01*
X153122380Y-117681333D02*
X153836666Y-117681333D01*
X153979523Y-117728952D01*
X154074761Y-117824190D01*
X154122380Y-117967047D01*
X154122380Y-118062285D01*
X153122380Y-117300380D02*
X153122380Y-116681333D01*
X153503333Y-117014666D01*
X153503333Y-116871809D01*
X153550952Y-116776571D01*
X153598571Y-116728952D01*
X153693809Y-116681333D01*
X153931904Y-116681333D01*
X154027142Y-116728952D01*
X154074761Y-116776571D01*
X154122380Y-116871809D01*
X154122380Y-117157523D01*
X154074761Y-117252761D01*
X154027142Y-117300380D01*
X153122380Y-63325333D02*
X153836666Y-63325333D01*
X153979523Y-63372952D01*
X154074761Y-63468190D01*
X154122380Y-63611047D01*
X154122380Y-63706285D01*
X153217619Y-62896761D02*
X153170000Y-62849142D01*
X153122380Y-62753904D01*
X153122380Y-62515809D01*
X153170000Y-62420571D01*
X153217619Y-62372952D01*
X153312857Y-62325333D01*
X153408095Y-62325333D01*
X153550952Y-62372952D01*
X154122380Y-62944380D01*
X154122380Y-62325333D01*
X79930666Y-78192380D02*
X79930666Y-78906666D01*
X79883047Y-79049523D01*
X79787809Y-79144761D01*
X79644952Y-79192380D01*
X79549714Y-79192380D01*
X80930666Y-79192380D02*
X80359238Y-79192380D01*
X80644952Y-79192380D02*
X80644952Y-78192380D01*
X80549714Y-78335238D01*
X80454476Y-78430476D01*
X80359238Y-78478095D01*
X125025142Y-108450666D02*
X125072761Y-108498285D01*
X125120380Y-108641142D01*
X125120380Y-108736380D01*
X125072761Y-108879238D01*
X124977523Y-108974476D01*
X124882285Y-109022095D01*
X124691809Y-109069714D01*
X124548952Y-109069714D01*
X124358476Y-109022095D01*
X124263238Y-108974476D01*
X124168000Y-108879238D01*
X124120380Y-108736380D01*
X124120380Y-108641142D01*
X124168000Y-108498285D01*
X124215619Y-108450666D01*
X124215619Y-108069714D02*
X124168000Y-108022095D01*
X124120380Y-107926857D01*
X124120380Y-107688761D01*
X124168000Y-107593523D01*
X124215619Y-107545904D01*
X124310857Y-107498285D01*
X124406095Y-107498285D01*
X124548952Y-107545904D01*
X125120380Y-108117333D01*
X125120380Y-107498285D01*
X125025142Y-72476666D02*
X125072761Y-72524285D01*
X125120380Y-72667142D01*
X125120380Y-72762380D01*
X125072761Y-72905238D01*
X124977523Y-73000476D01*
X124882285Y-73048095D01*
X124691809Y-73095714D01*
X124548952Y-73095714D01*
X124358476Y-73048095D01*
X124263238Y-73000476D01*
X124168000Y-72905238D01*
X124120380Y-72762380D01*
X124120380Y-72667142D01*
X124168000Y-72524285D01*
X124215619Y-72476666D01*
X125120380Y-71524285D02*
X125120380Y-72095714D01*
X125120380Y-71810000D02*
X124120380Y-71810000D01*
X124263238Y-71905238D01*
X124358476Y-72000476D01*
X124406095Y-72095714D01*
M02*
