G04 #@! TF.GenerationSoftware,KiCad,Pcbnew,5.1.9*
G04 #@! TF.CreationDate,2021-04-19T04:03:33-04:00*
G04 #@! TF.ProjectId,lm3886_psu_4ch,6c6d3338-3836-45f7-9073-755f3463682e,rev?*
G04 #@! TF.SameCoordinates,Original*
G04 #@! TF.FileFunction,Legend,Bot*
G04 #@! TF.FilePolarity,Positive*
%FSLAX46Y46*%
G04 Gerber Fmt 4.6, Leading zero omitted, Abs format (unit mm)*
G04 Created by KiCad (PCBNEW 5.1.9) date 2021-04-19 04:03:33*
%MOMM*%
%LPD*%
G01*
G04 APERTURE LIST*
%ADD10C,0.150000*%
%ADD11C,0.120000*%
G04 APERTURE END LIST*
D10*
X125237619Y-90352571D02*
X124904285Y-90352571D01*
X124761428Y-90876380D02*
X125237619Y-90876380D01*
X125237619Y-89876380D01*
X124761428Y-89876380D01*
X124380476Y-90590666D02*
X123904285Y-90590666D01*
X124475714Y-90876380D02*
X124142380Y-89876380D01*
X123809047Y-90876380D01*
X122904285Y-90876380D02*
X123237619Y-90400190D01*
X123475714Y-90876380D02*
X123475714Y-89876380D01*
X123094761Y-89876380D01*
X122999523Y-89924000D01*
X122951904Y-89971619D01*
X122904285Y-90066857D01*
X122904285Y-90209714D01*
X122951904Y-90304952D01*
X122999523Y-90352571D01*
X123094761Y-90400190D01*
X123475714Y-90400190D01*
X122618571Y-89876380D02*
X122047142Y-89876380D01*
X122332857Y-90876380D02*
X122332857Y-89876380D01*
X121713809Y-90876380D02*
X121713809Y-89876380D01*
X121713809Y-90352571D02*
X121142380Y-90352571D01*
X121142380Y-90876380D02*
X121142380Y-89876380D01*
D11*
X166529936Y-102468000D02*
X167734064Y-102468000D01*
X166529936Y-104288000D02*
X167734064Y-104288000D01*
X167734064Y-76560000D02*
X166529936Y-76560000D01*
X167734064Y-78380000D02*
X166529936Y-78380000D01*
X167799936Y-96626000D02*
X169004064Y-96626000D01*
X167799936Y-98446000D02*
X169004064Y-98446000D01*
X167799936Y-82402000D02*
X169004064Y-82402000D01*
X167799936Y-84222000D02*
X169004064Y-84222000D01*
X169004064Y-95906000D02*
X167799936Y-95906000D01*
X169004064Y-94086000D02*
X167799936Y-94086000D01*
X169004064Y-86762000D02*
X167799936Y-86762000D01*
X169004064Y-84942000D02*
X167799936Y-84942000D01*
X165002000Y-111886000D02*
X165002000Y-108586000D01*
X165002000Y-108586000D02*
X170402000Y-108586000D01*
X165002000Y-111886000D02*
X170402000Y-111886000D01*
X165002000Y-72262000D02*
X170402000Y-72262000D01*
X165002000Y-68962000D02*
X170402000Y-68962000D01*
X165002000Y-72262000D02*
X165002000Y-68962000D01*
X165002000Y-108076000D02*
X170402000Y-108076000D01*
X165002000Y-104776000D02*
X170402000Y-104776000D01*
X165002000Y-108076000D02*
X165002000Y-104776000D01*
X165002000Y-76072000D02*
X170402000Y-76072000D01*
X165002000Y-72772000D02*
X170402000Y-72772000D01*
X165002000Y-76072000D02*
X165002000Y-72772000D01*
D10*
X170854666Y-103735142D02*
X170902285Y-103782761D01*
X171045142Y-103830380D01*
X171140380Y-103830380D01*
X171283238Y-103782761D01*
X171378476Y-103687523D01*
X171426095Y-103592285D01*
X171473714Y-103401809D01*
X171473714Y-103258952D01*
X171426095Y-103068476D01*
X171378476Y-102973238D01*
X171283238Y-102878000D01*
X171140380Y-102830380D01*
X171045142Y-102830380D01*
X170902285Y-102878000D01*
X170854666Y-102925619D01*
X169997523Y-102830380D02*
X170188000Y-102830380D01*
X170283238Y-102878000D01*
X170330857Y-102925619D01*
X170426095Y-103068476D01*
X170473714Y-103258952D01*
X170473714Y-103639904D01*
X170426095Y-103735142D01*
X170378476Y-103782761D01*
X170283238Y-103830380D01*
X170092761Y-103830380D01*
X169997523Y-103782761D01*
X169949904Y-103735142D01*
X169902285Y-103639904D01*
X169902285Y-103401809D01*
X169949904Y-103306571D01*
X169997523Y-103258952D01*
X170092761Y-103211333D01*
X170283238Y-103211333D01*
X170378476Y-103258952D01*
X170426095Y-103306571D01*
X170473714Y-103401809D01*
X170854666Y-77827142D02*
X170902285Y-77874761D01*
X171045142Y-77922380D01*
X171140380Y-77922380D01*
X171283238Y-77874761D01*
X171378476Y-77779523D01*
X171426095Y-77684285D01*
X171473714Y-77493809D01*
X171473714Y-77350952D01*
X171426095Y-77160476D01*
X171378476Y-77065238D01*
X171283238Y-76970000D01*
X171140380Y-76922380D01*
X171045142Y-76922380D01*
X170902285Y-76970000D01*
X170854666Y-77017619D01*
X169949904Y-76922380D02*
X170426095Y-76922380D01*
X170473714Y-77398571D01*
X170426095Y-77350952D01*
X170330857Y-77303333D01*
X170092761Y-77303333D01*
X169997523Y-77350952D01*
X169949904Y-77398571D01*
X169902285Y-77493809D01*
X169902285Y-77731904D01*
X169949904Y-77827142D01*
X169997523Y-77874761D01*
X170092761Y-77922380D01*
X170330857Y-77922380D01*
X170426095Y-77874761D01*
X170473714Y-77827142D01*
X172124666Y-97988380D02*
X172458000Y-97512190D01*
X172696095Y-97988380D02*
X172696095Y-96988380D01*
X172315142Y-96988380D01*
X172219904Y-97036000D01*
X172172285Y-97083619D01*
X172124666Y-97178857D01*
X172124666Y-97321714D01*
X172172285Y-97416952D01*
X172219904Y-97464571D01*
X172315142Y-97512190D01*
X172696095Y-97512190D01*
X171267523Y-96988380D02*
X171458000Y-96988380D01*
X171553238Y-97036000D01*
X171600857Y-97083619D01*
X171696095Y-97226476D01*
X171743714Y-97416952D01*
X171743714Y-97797904D01*
X171696095Y-97893142D01*
X171648476Y-97940761D01*
X171553238Y-97988380D01*
X171362761Y-97988380D01*
X171267523Y-97940761D01*
X171219904Y-97893142D01*
X171172285Y-97797904D01*
X171172285Y-97559809D01*
X171219904Y-97464571D01*
X171267523Y-97416952D01*
X171362761Y-97369333D01*
X171553238Y-97369333D01*
X171648476Y-97416952D01*
X171696095Y-97464571D01*
X171743714Y-97559809D01*
X172124666Y-83764380D02*
X172458000Y-83288190D01*
X172696095Y-83764380D02*
X172696095Y-82764380D01*
X172315142Y-82764380D01*
X172219904Y-82812000D01*
X172172285Y-82859619D01*
X172124666Y-82954857D01*
X172124666Y-83097714D01*
X172172285Y-83192952D01*
X172219904Y-83240571D01*
X172315142Y-83288190D01*
X172696095Y-83288190D01*
X171219904Y-82764380D02*
X171696095Y-82764380D01*
X171743714Y-83240571D01*
X171696095Y-83192952D01*
X171600857Y-83145333D01*
X171362761Y-83145333D01*
X171267523Y-83192952D01*
X171219904Y-83240571D01*
X171172285Y-83335809D01*
X171172285Y-83573904D01*
X171219904Y-83669142D01*
X171267523Y-83716761D01*
X171362761Y-83764380D01*
X171600857Y-83764380D01*
X171696095Y-83716761D01*
X171743714Y-83669142D01*
X172124666Y-95448380D02*
X172458000Y-94972190D01*
X172696095Y-95448380D02*
X172696095Y-94448380D01*
X172315142Y-94448380D01*
X172219904Y-94496000D01*
X172172285Y-94543619D01*
X172124666Y-94638857D01*
X172124666Y-94781714D01*
X172172285Y-94876952D01*
X172219904Y-94924571D01*
X172315142Y-94972190D01*
X172696095Y-94972190D01*
X171267523Y-94781714D02*
X171267523Y-95448380D01*
X171505619Y-94400761D02*
X171743714Y-95115047D01*
X171124666Y-95115047D01*
X172124666Y-86304380D02*
X172458000Y-85828190D01*
X172696095Y-86304380D02*
X172696095Y-85304380D01*
X172315142Y-85304380D01*
X172219904Y-85352000D01*
X172172285Y-85399619D01*
X172124666Y-85494857D01*
X172124666Y-85637714D01*
X172172285Y-85732952D01*
X172219904Y-85780571D01*
X172315142Y-85828190D01*
X172696095Y-85828190D01*
X171791333Y-85304380D02*
X171172285Y-85304380D01*
X171505619Y-85685333D01*
X171362761Y-85685333D01*
X171267523Y-85732952D01*
X171219904Y-85780571D01*
X171172285Y-85875809D01*
X171172285Y-86113904D01*
X171219904Y-86209142D01*
X171267523Y-86256761D01*
X171362761Y-86304380D01*
X171648476Y-86304380D01*
X171743714Y-86256761D01*
X171791333Y-86209142D01*
X173966095Y-110688380D02*
X173966095Y-109688380D01*
X173728000Y-109688380D01*
X173585142Y-109736000D01*
X173489904Y-109831238D01*
X173442285Y-109926476D01*
X173394666Y-110116952D01*
X173394666Y-110259809D01*
X173442285Y-110450285D01*
X173489904Y-110545523D01*
X173585142Y-110640761D01*
X173728000Y-110688380D01*
X173966095Y-110688380D01*
X172537523Y-110021714D02*
X172537523Y-110688380D01*
X172775619Y-109640761D02*
X173013714Y-110355047D01*
X172394666Y-110355047D01*
X173966095Y-71064380D02*
X173966095Y-70064380D01*
X173728000Y-70064380D01*
X173585142Y-70112000D01*
X173489904Y-70207238D01*
X173442285Y-70302476D01*
X173394666Y-70492952D01*
X173394666Y-70635809D01*
X173442285Y-70826285D01*
X173489904Y-70921523D01*
X173585142Y-71016761D01*
X173728000Y-71064380D01*
X173966095Y-71064380D01*
X173061333Y-70064380D02*
X172442285Y-70064380D01*
X172775619Y-70445333D01*
X172632761Y-70445333D01*
X172537523Y-70492952D01*
X172489904Y-70540571D01*
X172442285Y-70635809D01*
X172442285Y-70873904D01*
X172489904Y-70969142D01*
X172537523Y-71016761D01*
X172632761Y-71064380D01*
X172918476Y-71064380D01*
X173013714Y-71016761D01*
X173061333Y-70969142D01*
X173966095Y-106878380D02*
X173966095Y-105878380D01*
X173728000Y-105878380D01*
X173585142Y-105926000D01*
X173489904Y-106021238D01*
X173442285Y-106116476D01*
X173394666Y-106306952D01*
X173394666Y-106449809D01*
X173442285Y-106640285D01*
X173489904Y-106735523D01*
X173585142Y-106830761D01*
X173728000Y-106878380D01*
X173966095Y-106878380D01*
X173013714Y-105973619D02*
X172966095Y-105926000D01*
X172870857Y-105878380D01*
X172632761Y-105878380D01*
X172537523Y-105926000D01*
X172489904Y-105973619D01*
X172442285Y-106068857D01*
X172442285Y-106164095D01*
X172489904Y-106306952D01*
X173061333Y-106878380D01*
X172442285Y-106878380D01*
X173966095Y-74874380D02*
X173966095Y-73874380D01*
X173728000Y-73874380D01*
X173585142Y-73922000D01*
X173489904Y-74017238D01*
X173442285Y-74112476D01*
X173394666Y-74302952D01*
X173394666Y-74445809D01*
X173442285Y-74636285D01*
X173489904Y-74731523D01*
X173585142Y-74826761D01*
X173728000Y-74874380D01*
X173966095Y-74874380D01*
X172442285Y-74874380D02*
X173013714Y-74874380D01*
X172728000Y-74874380D02*
X172728000Y-73874380D01*
X172823238Y-74017238D01*
X172918476Y-74112476D01*
X173013714Y-74160095D01*
M02*
