G04 #@! TF.GenerationSoftware,KiCad,Pcbnew,5.1.9*
G04 #@! TF.CreationDate,2021-04-19T04:03:33-04:00*
G04 #@! TF.ProjectId,lm3886_psu_4ch,6c6d3338-3836-45f7-9073-755f3463682e,rev?*
G04 #@! TF.SameCoordinates,Original*
G04 #@! TF.FileFunction,Copper,L2,Bot*
G04 #@! TF.FilePolarity,Positive*
%FSLAX46Y46*%
G04 Gerber Fmt 4.6, Leading zero omitted, Abs format (unit mm)*
G04 Created by KiCad (PCBNEW 5.1.9) date 2021-04-19 04:03:33*
%MOMM*%
%LPD*%
G01*
G04 APERTURE LIST*
G04 #@! TA.AperFunction,ComponentPad*
%ADD10C,0.800000*%
G04 #@! TD*
G04 #@! TA.AperFunction,ComponentPad*
%ADD11C,6.400000*%
G04 #@! TD*
G04 #@! TA.AperFunction,ComponentPad*
%ADD12C,2.600000*%
G04 #@! TD*
G04 #@! TA.AperFunction,ComponentPad*
%ADD13R,2.600000X2.600000*%
G04 #@! TD*
G04 #@! TA.AperFunction,ComponentPad*
%ADD14C,2.400000*%
G04 #@! TD*
G04 #@! TA.AperFunction,ComponentPad*
%ADD15R,2.400000X2.400000*%
G04 #@! TD*
G04 #@! TA.AperFunction,ComponentPad*
%ADD16C,4.000000*%
G04 #@! TD*
G04 #@! TA.AperFunction,ComponentPad*
%ADD17R,4.000000X4.000000*%
G04 #@! TD*
G04 #@! TA.AperFunction,ComponentPad*
%ADD18C,1.600000*%
G04 #@! TD*
G04 #@! TA.AperFunction,ComponentPad*
%ADD19R,1.600000X1.600000*%
G04 #@! TD*
G04 #@! TA.AperFunction,ComponentPad*
%ADD20O,2.400000X2.400000*%
G04 #@! TD*
G04 #@! TA.AperFunction,ComponentPad*
%ADD21O,1.905000X2.000000*%
G04 #@! TD*
G04 #@! TA.AperFunction,ComponentPad*
%ADD22R,1.905000X2.000000*%
G04 #@! TD*
G04 #@! TA.AperFunction,SMDPad,CuDef*
%ADD23R,2.500000X1.800000*%
G04 #@! TD*
G04 #@! TA.AperFunction,ViaPad*
%ADD24C,0.800000*%
G04 #@! TD*
G04 #@! TA.AperFunction,Conductor*
%ADD25C,1.000000*%
G04 #@! TD*
G04 #@! TA.AperFunction,Conductor*
%ADD26C,0.250000*%
G04 #@! TD*
G04 #@! TA.AperFunction,Conductor*
%ADD27C,0.254000*%
G04 #@! TD*
G04 #@! TA.AperFunction,Conductor*
%ADD28C,0.100000*%
G04 #@! TD*
G04 APERTURE END LIST*
D10*
X130983056Y-88726944D03*
X129286000Y-88024000D03*
X127588944Y-88726944D03*
X126886000Y-90424000D03*
X127588944Y-92121056D03*
X129286000Y-92824000D03*
X130983056Y-92121056D03*
X131686000Y-90424000D03*
D11*
X129286000Y-90424000D03*
D12*
X185928000Y-110697000D03*
D13*
X185928000Y-115697000D03*
D12*
X185928000Y-65358000D03*
D13*
X185928000Y-70358000D03*
D12*
X177306000Y-122682000D03*
X172306000Y-122682000D03*
X167306000Y-122682000D03*
D13*
X162306000Y-122682000D03*
D12*
X162292000Y-58166000D03*
X167292000Y-58166000D03*
X172292000Y-58166000D03*
D13*
X177292000Y-58166000D03*
D14*
X186436000Y-93005000D03*
X186436000Y-96505000D03*
X186436000Y-100005000D03*
D15*
X186436000Y-103505000D03*
D14*
X186436000Y-77384000D03*
X186436000Y-80884000D03*
X186436000Y-84384000D03*
D15*
X186436000Y-87884000D03*
D12*
X83820000Y-97931000D03*
X83820000Y-92931000D03*
X83820000Y-87931000D03*
D13*
X83820000Y-82931000D03*
D16*
X141732000Y-113378000D03*
D17*
X141732000Y-103378000D03*
D16*
X141732000Y-77310000D03*
D17*
X141732000Y-67310000D03*
D18*
X179324000Y-94202000D03*
D19*
X179324000Y-92202000D03*
D18*
X179324000Y-88614000D03*
D19*
X179324000Y-86614000D03*
D18*
X165354000Y-91408000D03*
D19*
X165354000Y-89408000D03*
D18*
X171450000Y-91408000D03*
D19*
X171450000Y-89408000D03*
G04 #@! TA.AperFunction,SMDPad,CuDef*
G36*
G01*
X165107000Y-104003000D02*
X165107000Y-102753000D01*
G75*
G02*
X165357000Y-102503000I250000J0D01*
G01*
X166107000Y-102503000D01*
G75*
G02*
X166357000Y-102753000I0J-250000D01*
G01*
X166357000Y-104003000D01*
G75*
G02*
X166107000Y-104253000I-250000J0D01*
G01*
X165357000Y-104253000D01*
G75*
G02*
X165107000Y-104003000I0J250000D01*
G01*
G37*
G04 #@! TD.AperFunction*
G04 #@! TA.AperFunction,SMDPad,CuDef*
G36*
G01*
X167907000Y-104003000D02*
X167907000Y-102753000D01*
G75*
G02*
X168157000Y-102503000I250000J0D01*
G01*
X168907000Y-102503000D01*
G75*
G02*
X169157000Y-102753000I0J-250000D01*
G01*
X169157000Y-104003000D01*
G75*
G02*
X168907000Y-104253000I-250000J0D01*
G01*
X168157000Y-104253000D01*
G75*
G02*
X167907000Y-104003000I0J250000D01*
G01*
G37*
G04 #@! TD.AperFunction*
G04 #@! TA.AperFunction,SMDPad,CuDef*
G36*
G01*
X166357000Y-76845000D02*
X166357000Y-78095000D01*
G75*
G02*
X166107000Y-78345000I-250000J0D01*
G01*
X165357000Y-78345000D01*
G75*
G02*
X165107000Y-78095000I0J250000D01*
G01*
X165107000Y-76845000D01*
G75*
G02*
X165357000Y-76595000I250000J0D01*
G01*
X166107000Y-76595000D01*
G75*
G02*
X166357000Y-76845000I0J-250000D01*
G01*
G37*
G04 #@! TD.AperFunction*
G04 #@! TA.AperFunction,SMDPad,CuDef*
G36*
G01*
X169157000Y-76845000D02*
X169157000Y-78095000D01*
G75*
G02*
X168907000Y-78345000I-250000J0D01*
G01*
X168157000Y-78345000D01*
G75*
G02*
X167907000Y-78095000I0J250000D01*
G01*
X167907000Y-76845000D01*
G75*
G02*
X168157000Y-76595000I250000J0D01*
G01*
X168907000Y-76595000D01*
G75*
G02*
X169157000Y-76845000I0J-250000D01*
G01*
G37*
G04 #@! TD.AperFunction*
D20*
X84582000Y-102870000D03*
D14*
X84582000Y-118110000D03*
D20*
X84582000Y-62738000D03*
D14*
X84582000Y-77978000D03*
D21*
X170942000Y-100584000D03*
X168402000Y-100584000D03*
D22*
X165862000Y-100584000D03*
D21*
X165862000Y-80264000D03*
X168402000Y-80264000D03*
D22*
X170942000Y-80264000D03*
G04 #@! TA.AperFunction,SMDPad,CuDef*
G36*
G01*
X169177000Y-98161000D02*
X169177000Y-96911000D01*
G75*
G02*
X169427000Y-96661000I250000J0D01*
G01*
X170177000Y-96661000D01*
G75*
G02*
X170427000Y-96911000I0J-250000D01*
G01*
X170427000Y-98161000D01*
G75*
G02*
X170177000Y-98411000I-250000J0D01*
G01*
X169427000Y-98411000D01*
G75*
G02*
X169177000Y-98161000I0J250000D01*
G01*
G37*
G04 #@! TD.AperFunction*
G04 #@! TA.AperFunction,SMDPad,CuDef*
G36*
G01*
X166377000Y-98161000D02*
X166377000Y-96911000D01*
G75*
G02*
X166627000Y-96661000I250000J0D01*
G01*
X167377000Y-96661000D01*
G75*
G02*
X167627000Y-96911000I0J-250000D01*
G01*
X167627000Y-98161000D01*
G75*
G02*
X167377000Y-98411000I-250000J0D01*
G01*
X166627000Y-98411000D01*
G75*
G02*
X166377000Y-98161000I0J250000D01*
G01*
G37*
G04 #@! TD.AperFunction*
G04 #@! TA.AperFunction,SMDPad,CuDef*
G36*
G01*
X169177000Y-83937000D02*
X169177000Y-82687000D01*
G75*
G02*
X169427000Y-82437000I250000J0D01*
G01*
X170177000Y-82437000D01*
G75*
G02*
X170427000Y-82687000I0J-250000D01*
G01*
X170427000Y-83937000D01*
G75*
G02*
X170177000Y-84187000I-250000J0D01*
G01*
X169427000Y-84187000D01*
G75*
G02*
X169177000Y-83937000I0J250000D01*
G01*
G37*
G04 #@! TD.AperFunction*
G04 #@! TA.AperFunction,SMDPad,CuDef*
G36*
G01*
X166377000Y-83937000D02*
X166377000Y-82687000D01*
G75*
G02*
X166627000Y-82437000I250000J0D01*
G01*
X167377000Y-82437000D01*
G75*
G02*
X167627000Y-82687000I0J-250000D01*
G01*
X167627000Y-83937000D01*
G75*
G02*
X167377000Y-84187000I-250000J0D01*
G01*
X166627000Y-84187000D01*
G75*
G02*
X166377000Y-83937000I0J250000D01*
G01*
G37*
G04 #@! TD.AperFunction*
G04 #@! TA.AperFunction,SMDPad,CuDef*
G36*
G01*
X167627000Y-94371000D02*
X167627000Y-95621000D01*
G75*
G02*
X167377000Y-95871000I-250000J0D01*
G01*
X166627000Y-95871000D01*
G75*
G02*
X166377000Y-95621000I0J250000D01*
G01*
X166377000Y-94371000D01*
G75*
G02*
X166627000Y-94121000I250000J0D01*
G01*
X167377000Y-94121000D01*
G75*
G02*
X167627000Y-94371000I0J-250000D01*
G01*
G37*
G04 #@! TD.AperFunction*
G04 #@! TA.AperFunction,SMDPad,CuDef*
G36*
G01*
X170427000Y-94371000D02*
X170427000Y-95621000D01*
G75*
G02*
X170177000Y-95871000I-250000J0D01*
G01*
X169427000Y-95871000D01*
G75*
G02*
X169177000Y-95621000I0J250000D01*
G01*
X169177000Y-94371000D01*
G75*
G02*
X169427000Y-94121000I250000J0D01*
G01*
X170177000Y-94121000D01*
G75*
G02*
X170427000Y-94371000I0J-250000D01*
G01*
G37*
G04 #@! TD.AperFunction*
G04 #@! TA.AperFunction,SMDPad,CuDef*
G36*
G01*
X167627000Y-85227000D02*
X167627000Y-86477000D01*
G75*
G02*
X167377000Y-86727000I-250000J0D01*
G01*
X166627000Y-86727000D01*
G75*
G02*
X166377000Y-86477000I0J250000D01*
G01*
X166377000Y-85227000D01*
G75*
G02*
X166627000Y-84977000I250000J0D01*
G01*
X167377000Y-84977000D01*
G75*
G02*
X167627000Y-85227000I0J-250000D01*
G01*
G37*
G04 #@! TD.AperFunction*
G04 #@! TA.AperFunction,SMDPad,CuDef*
G36*
G01*
X170427000Y-85227000D02*
X170427000Y-86477000D01*
G75*
G02*
X170177000Y-86727000I-250000J0D01*
G01*
X169427000Y-86727000D01*
G75*
G02*
X169177000Y-86477000I0J250000D01*
G01*
X169177000Y-85227000D01*
G75*
G02*
X169427000Y-84977000I250000J0D01*
G01*
X170177000Y-84977000D01*
G75*
G02*
X170427000Y-85227000I0J-250000D01*
G01*
G37*
G04 #@! TD.AperFunction*
D23*
X166402000Y-110236000D03*
X170402000Y-110236000D03*
X170402000Y-70612000D03*
X166402000Y-70612000D03*
X170402000Y-106426000D03*
X166402000Y-106426000D03*
X170402000Y-74422000D03*
X166402000Y-74422000D03*
D16*
X105918000Y-113378000D03*
D17*
X105918000Y-103378000D03*
D16*
X105918000Y-77310000D03*
D17*
X105918000Y-67310000D03*
D24*
X175768000Y-75946000D03*
X175768000Y-76708000D03*
X175768000Y-77470000D03*
X175006000Y-75946000D03*
X175006000Y-76708000D03*
X175006000Y-77470000D03*
X174244000Y-75946000D03*
X174244000Y-76708000D03*
X174244000Y-77470000D03*
X161798000Y-76708000D03*
X162560000Y-77470000D03*
X161798000Y-77470000D03*
X161798000Y-75946000D03*
X161036000Y-77470000D03*
X161036000Y-75946000D03*
X162560000Y-76708000D03*
X161036000Y-76708000D03*
X162560000Y-75946000D03*
X161798000Y-104902000D03*
X161036000Y-104902000D03*
X162560000Y-104140000D03*
X162560000Y-104902000D03*
X161798000Y-104140000D03*
X161036000Y-104140000D03*
X162560000Y-103378000D03*
X161798000Y-103378000D03*
X161036000Y-103378000D03*
X175768000Y-104902000D03*
X174244000Y-103378000D03*
X175006000Y-104140000D03*
X175768000Y-104140000D03*
X175006000Y-104902000D03*
X175768000Y-103378000D03*
X175006000Y-103378000D03*
X174244000Y-104902000D03*
X174244000Y-104140000D03*
X163322000Y-76708000D03*
X163322000Y-77470000D03*
X163322000Y-75946000D03*
X173482000Y-75946000D03*
X173482000Y-76708000D03*
X173482000Y-77470000D03*
X163322000Y-104902000D03*
X163322000Y-104140000D03*
X163322000Y-103378000D03*
X173482000Y-104902000D03*
X173482000Y-104140000D03*
X173482000Y-103378000D03*
X161290000Y-81788000D03*
X162560000Y-81788000D03*
X161290000Y-97282000D03*
X162560000Y-97282000D03*
D25*
X168532000Y-77594000D02*
X165862000Y-80264000D01*
X168532000Y-77470000D02*
X168532000Y-77594000D01*
D26*
X168532000Y-77470000D02*
X168532000Y-77346000D01*
X168532000Y-77346000D02*
X167386000Y-76200000D01*
X167386000Y-76200000D02*
X166878000Y-76200000D01*
X166402000Y-75724000D02*
X166402000Y-74422000D01*
X166878000Y-76200000D02*
X166402000Y-75724000D01*
D25*
X168532000Y-100714000D02*
X168402000Y-100584000D01*
X168532000Y-103378000D02*
X168532000Y-100714000D01*
D26*
X168532000Y-103378000D02*
X168532000Y-104778000D01*
X170180000Y-106426000D02*
X170402000Y-106426000D01*
X168532000Y-104778000D02*
X170180000Y-106426000D01*
X170402000Y-70612000D02*
X170688000Y-70612000D01*
X171977001Y-79228999D02*
X170942000Y-80264000D01*
X171977001Y-71901001D02*
X171977001Y-79228999D01*
X170688000Y-70612000D02*
X171977001Y-71901001D01*
X169802000Y-83312000D02*
X169802000Y-83182000D01*
X170942000Y-82042000D02*
X170942000Y-80264000D01*
X169802000Y-83182000D02*
X170942000Y-82042000D01*
X169802000Y-83312000D02*
X169802000Y-85852000D01*
X169802000Y-87760000D02*
X171450000Y-89408000D01*
X169802000Y-85852000D02*
X169802000Y-87760000D01*
X167002000Y-94996000D02*
X167002000Y-97536000D01*
X167002000Y-99444000D02*
X165862000Y-100584000D01*
X167002000Y-97536000D02*
X167002000Y-99444000D01*
X165862000Y-100584000D02*
X165862000Y-100838000D01*
X165862000Y-100838000D02*
X167132000Y-102108000D01*
X167132000Y-102108000D02*
X167132000Y-104648000D01*
X167132000Y-104648000D02*
X166878000Y-104902000D01*
X164826999Y-105265999D02*
X164826999Y-108946999D01*
X165190998Y-104902000D02*
X164826999Y-105265999D01*
X166878000Y-104902000D02*
X165190998Y-104902000D01*
X166116000Y-110236000D02*
X166402000Y-110236000D01*
X164826999Y-108946999D02*
X166116000Y-110236000D01*
X167002000Y-93056000D02*
X165354000Y-91408000D01*
X167002000Y-94996000D02*
X167002000Y-93056000D01*
X168402000Y-80264000D02*
X168402000Y-80010000D01*
X170402000Y-78010000D02*
X170402000Y-74422000D01*
X168402000Y-80010000D02*
X170402000Y-78010000D01*
X167002000Y-83312000D02*
X167002000Y-83188000D01*
X168402000Y-81788000D02*
X168402000Y-80264000D01*
X167002000Y-83188000D02*
X168402000Y-81788000D01*
X166402000Y-70612000D02*
X166624000Y-70612000D01*
X166624000Y-70612000D02*
X168402000Y-72390000D01*
X168402000Y-72390000D02*
X168402000Y-72644000D01*
X170180000Y-74422000D02*
X170402000Y-74422000D01*
X168402000Y-72644000D02*
X170180000Y-74422000D01*
X169802000Y-99444000D02*
X170942000Y-100584000D01*
X169802000Y-97536000D02*
X169802000Y-99444000D01*
X166402000Y-106426000D02*
X166624000Y-106426000D01*
X166624000Y-106426000D02*
X168402000Y-108204000D01*
X168402000Y-108204000D02*
X168402000Y-108458000D01*
X170180000Y-110236000D02*
X170402000Y-110236000D01*
X168402000Y-108458000D02*
X170180000Y-110236000D01*
X170942000Y-100584000D02*
X170942000Y-103886000D01*
X171977001Y-104921001D02*
X171977001Y-108946999D01*
X170942000Y-103886000D02*
X171977001Y-104921001D01*
X170688000Y-110236000D02*
X170402000Y-110236000D01*
X171977001Y-108946999D02*
X170688000Y-110236000D01*
D27*
X190348001Y-127102000D02*
X79400000Y-127102000D01*
X79400000Y-123985872D01*
X80061000Y-123985872D01*
X80061000Y-124426128D01*
X80146890Y-124857925D01*
X80315369Y-125264669D01*
X80559962Y-125630729D01*
X80871271Y-125942038D01*
X81237331Y-126186631D01*
X81644075Y-126355110D01*
X82075872Y-126441000D01*
X82516128Y-126441000D01*
X82947925Y-126355110D01*
X83354669Y-126186631D01*
X83720729Y-125942038D01*
X84032038Y-125630729D01*
X84276631Y-125264669D01*
X84445110Y-124857925D01*
X84531000Y-124426128D01*
X84531000Y-123985872D01*
X84445110Y-123554075D01*
X84276631Y-123147331D01*
X84032038Y-122781271D01*
X83720729Y-122469962D01*
X83354669Y-122225369D01*
X82947925Y-122056890D01*
X82516128Y-121971000D01*
X82075872Y-121971000D01*
X81644075Y-122056890D01*
X81237331Y-122225369D01*
X80871271Y-122469962D01*
X80559962Y-122781271D01*
X80315369Y-123147331D01*
X80146890Y-123554075D01*
X80061000Y-123985872D01*
X79400000Y-123985872D01*
X79400000Y-121382000D01*
X160367928Y-121382000D01*
X160367928Y-123982000D01*
X160380188Y-124106482D01*
X160416498Y-124226180D01*
X160475463Y-124336494D01*
X160554815Y-124433185D01*
X160651506Y-124512537D01*
X160761820Y-124571502D01*
X160881518Y-124607812D01*
X161006000Y-124620072D01*
X163606000Y-124620072D01*
X163730482Y-124607812D01*
X163850180Y-124571502D01*
X163960494Y-124512537D01*
X164057185Y-124433185D01*
X164136537Y-124336494D01*
X164195502Y-124226180D01*
X164231812Y-124106482D01*
X164244072Y-123982000D01*
X164244072Y-122491419D01*
X165371000Y-122491419D01*
X165371000Y-122872581D01*
X165445361Y-123246419D01*
X165591225Y-123598566D01*
X165802987Y-123915491D01*
X166072509Y-124185013D01*
X166389434Y-124396775D01*
X166741581Y-124542639D01*
X167115419Y-124617000D01*
X167496581Y-124617000D01*
X167870419Y-124542639D01*
X168222566Y-124396775D01*
X168539491Y-124185013D01*
X168809013Y-123915491D01*
X169020775Y-123598566D01*
X169166639Y-123246419D01*
X169241000Y-122872581D01*
X169241000Y-122491419D01*
X170371000Y-122491419D01*
X170371000Y-122872581D01*
X170445361Y-123246419D01*
X170591225Y-123598566D01*
X170802987Y-123915491D01*
X171072509Y-124185013D01*
X171389434Y-124396775D01*
X171741581Y-124542639D01*
X172115419Y-124617000D01*
X172496581Y-124617000D01*
X172870419Y-124542639D01*
X173222566Y-124396775D01*
X173539491Y-124185013D01*
X173809013Y-123915491D01*
X174020775Y-123598566D01*
X174166639Y-123246419D01*
X174241000Y-122872581D01*
X174241000Y-122491419D01*
X175371000Y-122491419D01*
X175371000Y-122872581D01*
X175445361Y-123246419D01*
X175591225Y-123598566D01*
X175802987Y-123915491D01*
X176072509Y-124185013D01*
X176389434Y-124396775D01*
X176741581Y-124542639D01*
X177115419Y-124617000D01*
X177496581Y-124617000D01*
X177870419Y-124542639D01*
X178222566Y-124396775D01*
X178539491Y-124185013D01*
X178738632Y-123985872D01*
X185217000Y-123985872D01*
X185217000Y-124426128D01*
X185302890Y-124857925D01*
X185471369Y-125264669D01*
X185715962Y-125630729D01*
X186027271Y-125942038D01*
X186393331Y-126186631D01*
X186800075Y-126355110D01*
X187231872Y-126441000D01*
X187672128Y-126441000D01*
X188103925Y-126355110D01*
X188510669Y-126186631D01*
X188876729Y-125942038D01*
X189188038Y-125630729D01*
X189432631Y-125264669D01*
X189601110Y-124857925D01*
X189687000Y-124426128D01*
X189687000Y-123985872D01*
X189601110Y-123554075D01*
X189432631Y-123147331D01*
X189188038Y-122781271D01*
X188876729Y-122469962D01*
X188510669Y-122225369D01*
X188103925Y-122056890D01*
X187672128Y-121971000D01*
X187231872Y-121971000D01*
X186800075Y-122056890D01*
X186393331Y-122225369D01*
X186027271Y-122469962D01*
X185715962Y-122781271D01*
X185471369Y-123147331D01*
X185302890Y-123554075D01*
X185217000Y-123985872D01*
X178738632Y-123985872D01*
X178809013Y-123915491D01*
X179020775Y-123598566D01*
X179166639Y-123246419D01*
X179241000Y-122872581D01*
X179241000Y-122491419D01*
X179166639Y-122117581D01*
X179020775Y-121765434D01*
X178809013Y-121448509D01*
X178539491Y-121178987D01*
X178222566Y-120967225D01*
X177870419Y-120821361D01*
X177496581Y-120747000D01*
X177115419Y-120747000D01*
X176741581Y-120821361D01*
X176389434Y-120967225D01*
X176072509Y-121178987D01*
X175802987Y-121448509D01*
X175591225Y-121765434D01*
X175445361Y-122117581D01*
X175371000Y-122491419D01*
X174241000Y-122491419D01*
X174166639Y-122117581D01*
X174020775Y-121765434D01*
X173809013Y-121448509D01*
X173539491Y-121178987D01*
X173222566Y-120967225D01*
X172870419Y-120821361D01*
X172496581Y-120747000D01*
X172115419Y-120747000D01*
X171741581Y-120821361D01*
X171389434Y-120967225D01*
X171072509Y-121178987D01*
X170802987Y-121448509D01*
X170591225Y-121765434D01*
X170445361Y-122117581D01*
X170371000Y-122491419D01*
X169241000Y-122491419D01*
X169166639Y-122117581D01*
X169020775Y-121765434D01*
X168809013Y-121448509D01*
X168539491Y-121178987D01*
X168222566Y-120967225D01*
X167870419Y-120821361D01*
X167496581Y-120747000D01*
X167115419Y-120747000D01*
X166741581Y-120821361D01*
X166389434Y-120967225D01*
X166072509Y-121178987D01*
X165802987Y-121448509D01*
X165591225Y-121765434D01*
X165445361Y-122117581D01*
X165371000Y-122491419D01*
X164244072Y-122491419D01*
X164244072Y-121382000D01*
X164231812Y-121257518D01*
X164195502Y-121137820D01*
X164136537Y-121027506D01*
X164057185Y-120930815D01*
X163960494Y-120851463D01*
X163850180Y-120792498D01*
X163730482Y-120756188D01*
X163606000Y-120743928D01*
X161006000Y-120743928D01*
X160881518Y-120756188D01*
X160761820Y-120792498D01*
X160651506Y-120851463D01*
X160554815Y-120930815D01*
X160475463Y-121027506D01*
X160416498Y-121137820D01*
X160380188Y-121257518D01*
X160367928Y-121382000D01*
X79400000Y-121382000D01*
X79400000Y-119387980D01*
X83483626Y-119387980D01*
X83603514Y-119672836D01*
X83927210Y-119833699D01*
X84276069Y-119928322D01*
X84636684Y-119953067D01*
X84995198Y-119906985D01*
X85337833Y-119791846D01*
X85560486Y-119672836D01*
X85680374Y-119387980D01*
X84582000Y-118289605D01*
X83483626Y-119387980D01*
X79400000Y-119387980D01*
X79400000Y-118164684D01*
X82738933Y-118164684D01*
X82785015Y-118523198D01*
X82900154Y-118865833D01*
X83019164Y-119088486D01*
X83304020Y-119208374D01*
X84402395Y-118110000D01*
X84761605Y-118110000D01*
X85859980Y-119208374D01*
X86144836Y-119088486D01*
X86305699Y-118764790D01*
X86400322Y-118415931D01*
X86425067Y-118055316D01*
X86378985Y-117696802D01*
X86263846Y-117354167D01*
X86144836Y-117131514D01*
X85859980Y-117011626D01*
X84761605Y-118110000D01*
X84402395Y-118110000D01*
X83304020Y-117011626D01*
X83019164Y-117131514D01*
X82858301Y-117455210D01*
X82763678Y-117804069D01*
X82738933Y-118164684D01*
X79400000Y-118164684D01*
X79400000Y-116832020D01*
X83483626Y-116832020D01*
X84582000Y-117930395D01*
X85515394Y-116997000D01*
X183989928Y-116997000D01*
X184002188Y-117121482D01*
X184038498Y-117241180D01*
X184097463Y-117351494D01*
X184176815Y-117448185D01*
X184273506Y-117527537D01*
X184383820Y-117586502D01*
X184503518Y-117622812D01*
X184628000Y-117635072D01*
X185642250Y-117632000D01*
X185801000Y-117473250D01*
X185801000Y-115824000D01*
X186055000Y-115824000D01*
X186055000Y-117473250D01*
X186213750Y-117632000D01*
X187228000Y-117635072D01*
X187352482Y-117622812D01*
X187472180Y-117586502D01*
X187582494Y-117527537D01*
X187679185Y-117448185D01*
X187758537Y-117351494D01*
X187817502Y-117241180D01*
X187853812Y-117121482D01*
X187866072Y-116997000D01*
X187863000Y-115982750D01*
X187704250Y-115824000D01*
X186055000Y-115824000D01*
X185801000Y-115824000D01*
X184151750Y-115824000D01*
X183993000Y-115982750D01*
X183989928Y-116997000D01*
X85515394Y-116997000D01*
X85680374Y-116832020D01*
X85560486Y-116547164D01*
X85236790Y-116386301D01*
X84887931Y-116291678D01*
X84527316Y-116266933D01*
X84168802Y-116313015D01*
X83826167Y-116428154D01*
X83603514Y-116547164D01*
X83483626Y-116832020D01*
X79400000Y-116832020D01*
X79400000Y-113118475D01*
X103283000Y-113118475D01*
X103283000Y-113637525D01*
X103384261Y-114146601D01*
X103582893Y-114626141D01*
X103871262Y-115057715D01*
X104238285Y-115424738D01*
X104669859Y-115713107D01*
X105149399Y-115911739D01*
X105658475Y-116013000D01*
X106177525Y-116013000D01*
X106686601Y-115911739D01*
X107166141Y-115713107D01*
X107597715Y-115424738D01*
X107964738Y-115057715D01*
X108253107Y-114626141D01*
X108451739Y-114146601D01*
X108553000Y-113637525D01*
X108553000Y-113118475D01*
X139097000Y-113118475D01*
X139097000Y-113637525D01*
X139198261Y-114146601D01*
X139396893Y-114626141D01*
X139685262Y-115057715D01*
X140052285Y-115424738D01*
X140483859Y-115713107D01*
X140963399Y-115911739D01*
X141472475Y-116013000D01*
X141991525Y-116013000D01*
X142500601Y-115911739D01*
X142980141Y-115713107D01*
X143411715Y-115424738D01*
X143778738Y-115057715D01*
X144067107Y-114626141D01*
X144162020Y-114397000D01*
X183989928Y-114397000D01*
X183993000Y-115411250D01*
X184151750Y-115570000D01*
X185801000Y-115570000D01*
X185801000Y-113920750D01*
X186055000Y-113920750D01*
X186055000Y-115570000D01*
X187704250Y-115570000D01*
X187863000Y-115411250D01*
X187866072Y-114397000D01*
X187853812Y-114272518D01*
X187817502Y-114152820D01*
X187758537Y-114042506D01*
X187679185Y-113945815D01*
X187582494Y-113866463D01*
X187472180Y-113807498D01*
X187352482Y-113771188D01*
X187228000Y-113758928D01*
X186213750Y-113762000D01*
X186055000Y-113920750D01*
X185801000Y-113920750D01*
X185642250Y-113762000D01*
X184628000Y-113758928D01*
X184503518Y-113771188D01*
X184383820Y-113807498D01*
X184273506Y-113866463D01*
X184176815Y-113945815D01*
X184097463Y-114042506D01*
X184038498Y-114152820D01*
X184002188Y-114272518D01*
X183989928Y-114397000D01*
X144162020Y-114397000D01*
X144265739Y-114146601D01*
X144367000Y-113637525D01*
X144367000Y-113118475D01*
X144265739Y-112609399D01*
X144067107Y-112129859D01*
X144011224Y-112046224D01*
X184758381Y-112046224D01*
X184890317Y-112341312D01*
X185231045Y-112512159D01*
X185598557Y-112613250D01*
X185978729Y-112640701D01*
X186356951Y-112593457D01*
X186718690Y-112473333D01*
X186965683Y-112341312D01*
X187097619Y-112046224D01*
X185928000Y-110876605D01*
X184758381Y-112046224D01*
X144011224Y-112046224D01*
X143778738Y-111698285D01*
X143411715Y-111331262D01*
X142980141Y-111042893D01*
X142500601Y-110844261D01*
X141991525Y-110743000D01*
X141472475Y-110743000D01*
X140963399Y-110844261D01*
X140483859Y-111042893D01*
X140052285Y-111331262D01*
X139685262Y-111698285D01*
X139396893Y-112129859D01*
X139198261Y-112609399D01*
X139097000Y-113118475D01*
X108553000Y-113118475D01*
X108451739Y-112609399D01*
X108253107Y-112129859D01*
X107964738Y-111698285D01*
X107597715Y-111331262D01*
X107166141Y-111042893D01*
X106686601Y-110844261D01*
X106177525Y-110743000D01*
X105658475Y-110743000D01*
X105149399Y-110844261D01*
X104669859Y-111042893D01*
X104238285Y-111331262D01*
X103871262Y-111698285D01*
X103582893Y-112129859D01*
X103384261Y-112609399D01*
X103283000Y-113118475D01*
X79400000Y-113118475D01*
X79400000Y-105378000D01*
X103279928Y-105378000D01*
X103292188Y-105502482D01*
X103328498Y-105622180D01*
X103387463Y-105732494D01*
X103466815Y-105829185D01*
X103563506Y-105908537D01*
X103673820Y-105967502D01*
X103793518Y-106003812D01*
X103918000Y-106016072D01*
X105632250Y-106013000D01*
X105791000Y-105854250D01*
X105791000Y-103505000D01*
X106045000Y-103505000D01*
X106045000Y-105854250D01*
X106203750Y-106013000D01*
X107918000Y-106016072D01*
X108042482Y-106003812D01*
X108162180Y-105967502D01*
X108272494Y-105908537D01*
X108369185Y-105829185D01*
X108448537Y-105732494D01*
X108507502Y-105622180D01*
X108543812Y-105502482D01*
X108556072Y-105378000D01*
X139093928Y-105378000D01*
X139106188Y-105502482D01*
X139142498Y-105622180D01*
X139201463Y-105732494D01*
X139280815Y-105829185D01*
X139377506Y-105908537D01*
X139487820Y-105967502D01*
X139607518Y-106003812D01*
X139732000Y-106016072D01*
X141446250Y-106013000D01*
X141605000Y-105854250D01*
X141605000Y-103505000D01*
X141859000Y-103505000D01*
X141859000Y-105854250D01*
X142017750Y-106013000D01*
X143732000Y-106016072D01*
X143856482Y-106003812D01*
X143976180Y-105967502D01*
X144086494Y-105908537D01*
X144183185Y-105829185D01*
X144262537Y-105732494D01*
X144321502Y-105622180D01*
X144357812Y-105502482D01*
X144370072Y-105378000D01*
X144367000Y-103663750D01*
X144208250Y-103505000D01*
X141859000Y-103505000D01*
X141605000Y-103505000D01*
X139255750Y-103505000D01*
X139097000Y-103663750D01*
X139093928Y-105378000D01*
X108556072Y-105378000D01*
X108553000Y-103663750D01*
X108394250Y-103505000D01*
X106045000Y-103505000D01*
X105791000Y-103505000D01*
X103441750Y-103505000D01*
X103283000Y-103663750D01*
X103279928Y-105378000D01*
X79400000Y-105378000D01*
X79400000Y-102689268D01*
X82747000Y-102689268D01*
X82747000Y-103050732D01*
X82817518Y-103405250D01*
X82955844Y-103739199D01*
X83156662Y-104039744D01*
X83412256Y-104295338D01*
X83712801Y-104496156D01*
X84046750Y-104634482D01*
X84401268Y-104705000D01*
X84762732Y-104705000D01*
X85117250Y-104634482D01*
X85451199Y-104496156D01*
X85751744Y-104295338D01*
X86007338Y-104039744D01*
X86208156Y-103739199D01*
X86346482Y-103405250D01*
X86417000Y-103050732D01*
X86417000Y-102689268D01*
X86346482Y-102334750D01*
X86208156Y-102000801D01*
X86007338Y-101700256D01*
X85751744Y-101444662D01*
X85651978Y-101378000D01*
X103279928Y-101378000D01*
X103283000Y-103092250D01*
X103441750Y-103251000D01*
X105791000Y-103251000D01*
X105791000Y-100901750D01*
X106045000Y-100901750D01*
X106045000Y-103251000D01*
X108394250Y-103251000D01*
X108553000Y-103092250D01*
X108556072Y-101378000D01*
X139093928Y-101378000D01*
X139097000Y-103092250D01*
X139255750Y-103251000D01*
X141605000Y-103251000D01*
X141605000Y-100901750D01*
X141859000Y-100901750D01*
X141859000Y-103251000D01*
X144208250Y-103251000D01*
X144367000Y-103092250D01*
X144370072Y-101378000D01*
X144357812Y-101253518D01*
X144321502Y-101133820D01*
X144262537Y-101023506D01*
X144183185Y-100926815D01*
X144086494Y-100847463D01*
X143976180Y-100788498D01*
X143856482Y-100752188D01*
X143732000Y-100739928D01*
X142017750Y-100743000D01*
X141859000Y-100901750D01*
X141605000Y-100901750D01*
X141446250Y-100743000D01*
X139732000Y-100739928D01*
X139607518Y-100752188D01*
X139487820Y-100788498D01*
X139377506Y-100847463D01*
X139280815Y-100926815D01*
X139201463Y-101023506D01*
X139142498Y-101133820D01*
X139106188Y-101253518D01*
X139093928Y-101378000D01*
X108556072Y-101378000D01*
X108543812Y-101253518D01*
X108507502Y-101133820D01*
X108448537Y-101023506D01*
X108369185Y-100926815D01*
X108272494Y-100847463D01*
X108162180Y-100788498D01*
X108042482Y-100752188D01*
X107918000Y-100739928D01*
X106203750Y-100743000D01*
X106045000Y-100901750D01*
X105791000Y-100901750D01*
X105632250Y-100743000D01*
X103918000Y-100739928D01*
X103793518Y-100752188D01*
X103673820Y-100788498D01*
X103563506Y-100847463D01*
X103466815Y-100926815D01*
X103387463Y-101023506D01*
X103328498Y-101133820D01*
X103292188Y-101253518D01*
X103279928Y-101378000D01*
X85651978Y-101378000D01*
X85451199Y-101243844D01*
X85117250Y-101105518D01*
X84762732Y-101035000D01*
X84401268Y-101035000D01*
X84046750Y-101105518D01*
X83712801Y-101243844D01*
X83412256Y-101444662D01*
X83156662Y-101700256D01*
X82955844Y-102000801D01*
X82817518Y-102334750D01*
X82747000Y-102689268D01*
X79400000Y-102689268D01*
X79400000Y-97740419D01*
X81885000Y-97740419D01*
X81885000Y-98121581D01*
X81959361Y-98495419D01*
X82105225Y-98847566D01*
X82316987Y-99164491D01*
X82586509Y-99434013D01*
X82903434Y-99645775D01*
X83255581Y-99791639D01*
X83629419Y-99866000D01*
X84010581Y-99866000D01*
X84384419Y-99791639D01*
X84736566Y-99645775D01*
X85053491Y-99434013D01*
X85323013Y-99164491D01*
X85534775Y-98847566D01*
X85680639Y-98495419D01*
X85755000Y-98121581D01*
X85755000Y-97740419D01*
X85680639Y-97366581D01*
X85534775Y-97014434D01*
X85323013Y-96697509D01*
X85053491Y-96427987D01*
X84736566Y-96216225D01*
X84384419Y-96070361D01*
X84010581Y-95996000D01*
X83629419Y-95996000D01*
X83255581Y-96070361D01*
X82903434Y-96216225D01*
X82586509Y-96427987D01*
X82316987Y-96697509D01*
X82105225Y-97014434D01*
X81959361Y-97366581D01*
X81885000Y-97740419D01*
X79400000Y-97740419D01*
X79400000Y-94280224D01*
X82650381Y-94280224D01*
X82782317Y-94575312D01*
X83123045Y-94746159D01*
X83490557Y-94847250D01*
X83870729Y-94874701D01*
X84248951Y-94827457D01*
X84610690Y-94707333D01*
X84857683Y-94575312D01*
X84989619Y-94280224D01*
X83820000Y-93110605D01*
X82650381Y-94280224D01*
X79400000Y-94280224D01*
X79400000Y-92981729D01*
X81876299Y-92981729D01*
X81923543Y-93359951D01*
X82043667Y-93721690D01*
X82175688Y-93968683D01*
X82470776Y-94100619D01*
X83640395Y-92931000D01*
X83999605Y-92931000D01*
X85169224Y-94100619D01*
X85464312Y-93968683D01*
X85635159Y-93627955D01*
X85736250Y-93260443D01*
X85746038Y-93124881D01*
X126764724Y-93124881D01*
X127124912Y-93614548D01*
X127788882Y-93974849D01*
X128510385Y-94198694D01*
X129261695Y-94277480D01*
X130013938Y-94208178D01*
X130738208Y-93993452D01*
X131406670Y-93641555D01*
X131447088Y-93614548D01*
X131807276Y-93124881D01*
X129286000Y-90603605D01*
X126764724Y-93124881D01*
X85746038Y-93124881D01*
X85763701Y-92880271D01*
X85716457Y-92502049D01*
X85596333Y-92140310D01*
X85464312Y-91893317D01*
X85169224Y-91761381D01*
X83999605Y-92931000D01*
X83640395Y-92931000D01*
X82470776Y-91761381D01*
X82175688Y-91893317D01*
X82004841Y-92234045D01*
X81903750Y-92601557D01*
X81876299Y-92981729D01*
X79400000Y-92981729D01*
X79400000Y-91581776D01*
X82650381Y-91581776D01*
X83820000Y-92751395D01*
X84989619Y-91581776D01*
X84857683Y-91286688D01*
X84516955Y-91115841D01*
X84149443Y-91014750D01*
X83769271Y-90987299D01*
X83391049Y-91034543D01*
X83029310Y-91154667D01*
X82782317Y-91286688D01*
X82650381Y-91581776D01*
X79400000Y-91581776D01*
X79400000Y-90399695D01*
X125432520Y-90399695D01*
X125501822Y-91151938D01*
X125716548Y-91876208D01*
X126068445Y-92544670D01*
X126095452Y-92585088D01*
X126585119Y-92945276D01*
X129106395Y-90424000D01*
X129465605Y-90424000D01*
X131986881Y-92945276D01*
X132476548Y-92585088D01*
X132836849Y-91921118D01*
X133060694Y-91199615D01*
X133139480Y-90448305D01*
X133117342Y-90208000D01*
X163915928Y-90208000D01*
X163928188Y-90332482D01*
X163964498Y-90452180D01*
X164023463Y-90562494D01*
X164102815Y-90659185D01*
X164119393Y-90672790D01*
X164082320Y-90728273D01*
X163974147Y-90989426D01*
X163919000Y-91266665D01*
X163919000Y-91549335D01*
X163974147Y-91826574D01*
X164082320Y-92087727D01*
X164239363Y-92322759D01*
X164439241Y-92522637D01*
X164674273Y-92679680D01*
X164935426Y-92787853D01*
X165212665Y-92843000D01*
X165495335Y-92843000D01*
X165677886Y-92806688D01*
X166242001Y-93370803D01*
X166242001Y-93574661D01*
X166133614Y-93632595D01*
X165999038Y-93743038D01*
X165888595Y-93877614D01*
X165806528Y-94031150D01*
X165755992Y-94197746D01*
X165738928Y-94371000D01*
X165738928Y-95621000D01*
X165755992Y-95794254D01*
X165806528Y-95960850D01*
X165888595Y-96114386D01*
X165999038Y-96248962D01*
X166019799Y-96266000D01*
X165999038Y-96283038D01*
X165888595Y-96417614D01*
X165806528Y-96571150D01*
X165755992Y-96737746D01*
X165738928Y-96911000D01*
X165738928Y-98161000D01*
X165755992Y-98334254D01*
X165806528Y-98500850D01*
X165888595Y-98654386D01*
X165999038Y-98788962D01*
X166133614Y-98899405D01*
X166220652Y-98945928D01*
X164909500Y-98945928D01*
X164785018Y-98958188D01*
X164665320Y-98994498D01*
X164555006Y-99053463D01*
X164458315Y-99132815D01*
X164378963Y-99229506D01*
X164319998Y-99339820D01*
X164283688Y-99459518D01*
X164271428Y-99584000D01*
X164271428Y-101584000D01*
X164283688Y-101708482D01*
X164319998Y-101828180D01*
X164378963Y-101938494D01*
X164458315Y-102035185D01*
X164555006Y-102114537D01*
X164589298Y-102132867D01*
X164576463Y-102148506D01*
X164517498Y-102258820D01*
X164481188Y-102378518D01*
X164468928Y-102503000D01*
X164472000Y-103092250D01*
X164630750Y-103251000D01*
X165605000Y-103251000D01*
X165605000Y-103231000D01*
X165859000Y-103231000D01*
X165859000Y-103251000D01*
X165879000Y-103251000D01*
X165879000Y-103505000D01*
X165859000Y-103505000D01*
X165859000Y-103525000D01*
X165605000Y-103525000D01*
X165605000Y-103505000D01*
X164630750Y-103505000D01*
X164472000Y-103663750D01*
X164468928Y-104253000D01*
X164481188Y-104377482D01*
X164517498Y-104497180D01*
X164518724Y-104499473D01*
X164316002Y-104702195D01*
X164286998Y-104725998D01*
X164231870Y-104793173D01*
X164192025Y-104841723D01*
X164134588Y-104949180D01*
X164121453Y-104973753D01*
X164077996Y-105117014D01*
X164066999Y-105228667D01*
X164066999Y-105228677D01*
X164063323Y-105265999D01*
X164066999Y-105303322D01*
X164067000Y-108909667D01*
X164063323Y-108946999D01*
X164067000Y-108984332D01*
X164077701Y-109092974D01*
X164077997Y-109095984D01*
X164121453Y-109239245D01*
X164192025Y-109371275D01*
X164263200Y-109458001D01*
X164286999Y-109487000D01*
X164315997Y-109510798D01*
X164513928Y-109708729D01*
X164513928Y-111136000D01*
X164526188Y-111260482D01*
X164562498Y-111380180D01*
X164621463Y-111490494D01*
X164700815Y-111587185D01*
X164797506Y-111666537D01*
X164907820Y-111725502D01*
X165027518Y-111761812D01*
X165152000Y-111774072D01*
X167652000Y-111774072D01*
X167776482Y-111761812D01*
X167896180Y-111725502D01*
X168006494Y-111666537D01*
X168103185Y-111587185D01*
X168182537Y-111490494D01*
X168241502Y-111380180D01*
X168277812Y-111260482D01*
X168290072Y-111136000D01*
X168290072Y-109420873D01*
X168513928Y-109644729D01*
X168513928Y-111136000D01*
X168526188Y-111260482D01*
X168562498Y-111380180D01*
X168621463Y-111490494D01*
X168700815Y-111587185D01*
X168797506Y-111666537D01*
X168907820Y-111725502D01*
X169027518Y-111761812D01*
X169152000Y-111774072D01*
X171652000Y-111774072D01*
X171776482Y-111761812D01*
X171896180Y-111725502D01*
X172006494Y-111666537D01*
X172103185Y-111587185D01*
X172182537Y-111490494D01*
X172241502Y-111380180D01*
X172277812Y-111260482D01*
X172290072Y-111136000D01*
X172290072Y-110747729D01*
X183984299Y-110747729D01*
X184031543Y-111125951D01*
X184151667Y-111487690D01*
X184283688Y-111734683D01*
X184578776Y-111866619D01*
X185748395Y-110697000D01*
X186107605Y-110697000D01*
X187277224Y-111866619D01*
X187572312Y-111734683D01*
X187743159Y-111393955D01*
X187844250Y-111026443D01*
X187871701Y-110646271D01*
X187824457Y-110268049D01*
X187704333Y-109906310D01*
X187572312Y-109659317D01*
X187277224Y-109527381D01*
X186107605Y-110697000D01*
X185748395Y-110697000D01*
X184578776Y-109527381D01*
X184283688Y-109659317D01*
X184112841Y-110000045D01*
X184011750Y-110367557D01*
X183984299Y-110747729D01*
X172290072Y-110747729D01*
X172290072Y-109708730D01*
X172488004Y-109510798D01*
X172517002Y-109487000D01*
X172611975Y-109371275D01*
X172624535Y-109347776D01*
X184758381Y-109347776D01*
X185928000Y-110517395D01*
X187097619Y-109347776D01*
X186965683Y-109052688D01*
X186624955Y-108881841D01*
X186257443Y-108780750D01*
X185877271Y-108753299D01*
X185499049Y-108800543D01*
X185137310Y-108920667D01*
X184890317Y-109052688D01*
X184758381Y-109347776D01*
X172624535Y-109347776D01*
X172682547Y-109239246D01*
X172726004Y-109095985D01*
X172737001Y-108984332D01*
X172737001Y-108984324D01*
X172740677Y-108946999D01*
X172737001Y-108909674D01*
X172737001Y-104958323D01*
X172740677Y-104921000D01*
X172737001Y-104883677D01*
X172737001Y-104883668D01*
X172726004Y-104772015D01*
X172682547Y-104628754D01*
X172611975Y-104496725D01*
X172558591Y-104431676D01*
X172540800Y-104409997D01*
X172540796Y-104409993D01*
X172517002Y-104381000D01*
X172488010Y-104357207D01*
X171702000Y-103571199D01*
X171702000Y-102305000D01*
X184597928Y-102305000D01*
X184597928Y-104705000D01*
X184610188Y-104829482D01*
X184646498Y-104949180D01*
X184705463Y-105059494D01*
X184784815Y-105156185D01*
X184881506Y-105235537D01*
X184991820Y-105294502D01*
X185111518Y-105330812D01*
X185236000Y-105343072D01*
X187636000Y-105343072D01*
X187760482Y-105330812D01*
X187880180Y-105294502D01*
X187990494Y-105235537D01*
X188087185Y-105156185D01*
X188166537Y-105059494D01*
X188225502Y-104949180D01*
X188261812Y-104829482D01*
X188274072Y-104705000D01*
X188274072Y-102305000D01*
X188261812Y-102180518D01*
X188225502Y-102060820D01*
X188166537Y-101950506D01*
X188087185Y-101853815D01*
X187990494Y-101774463D01*
X187880180Y-101715498D01*
X187760482Y-101679188D01*
X187636000Y-101666928D01*
X187218838Y-101666928D01*
X187305199Y-101631156D01*
X187605744Y-101430338D01*
X187861338Y-101174744D01*
X188062156Y-100874199D01*
X188200482Y-100540250D01*
X188271000Y-100185732D01*
X188271000Y-99824268D01*
X188200482Y-99469750D01*
X188062156Y-99135801D01*
X187861338Y-98835256D01*
X187605744Y-98579662D01*
X187305199Y-98378844D01*
X187006213Y-98255000D01*
X187305199Y-98131156D01*
X187605744Y-97930338D01*
X187861338Y-97674744D01*
X188062156Y-97374199D01*
X188200482Y-97040250D01*
X188271000Y-96685732D01*
X188271000Y-96324268D01*
X188200482Y-95969750D01*
X188062156Y-95635801D01*
X187861338Y-95335256D01*
X187605744Y-95079662D01*
X187305199Y-94878844D01*
X187006213Y-94755000D01*
X187305199Y-94631156D01*
X187605744Y-94430338D01*
X187861338Y-94174744D01*
X188062156Y-93874199D01*
X188200482Y-93540250D01*
X188271000Y-93185732D01*
X188271000Y-92824268D01*
X188200482Y-92469750D01*
X188062156Y-92135801D01*
X187861338Y-91835256D01*
X187605744Y-91579662D01*
X187305199Y-91378844D01*
X186971250Y-91240518D01*
X186616732Y-91170000D01*
X186255268Y-91170000D01*
X185900750Y-91240518D01*
X185566801Y-91378844D01*
X185266256Y-91579662D01*
X185010662Y-91835256D01*
X184809844Y-92135801D01*
X184671518Y-92469750D01*
X184601000Y-92824268D01*
X184601000Y-93185732D01*
X184671518Y-93540250D01*
X184809844Y-93874199D01*
X185010662Y-94174744D01*
X185266256Y-94430338D01*
X185566801Y-94631156D01*
X185865787Y-94755000D01*
X185566801Y-94878844D01*
X185266256Y-95079662D01*
X185010662Y-95335256D01*
X184809844Y-95635801D01*
X184671518Y-95969750D01*
X184601000Y-96324268D01*
X184601000Y-96685732D01*
X184671518Y-97040250D01*
X184809844Y-97374199D01*
X185010662Y-97674744D01*
X185266256Y-97930338D01*
X185566801Y-98131156D01*
X185865787Y-98255000D01*
X185566801Y-98378844D01*
X185266256Y-98579662D01*
X185010662Y-98835256D01*
X184809844Y-99135801D01*
X184671518Y-99469750D01*
X184601000Y-99824268D01*
X184601000Y-100185732D01*
X184671518Y-100540250D01*
X184809844Y-100874199D01*
X185010662Y-101174744D01*
X185266256Y-101430338D01*
X185566801Y-101631156D01*
X185653162Y-101666928D01*
X185236000Y-101666928D01*
X185111518Y-101679188D01*
X184991820Y-101715498D01*
X184881506Y-101774463D01*
X184784815Y-101853815D01*
X184705463Y-101950506D01*
X184646498Y-102060820D01*
X184610188Y-102180518D01*
X184597928Y-102305000D01*
X171702000Y-102305000D01*
X171702000Y-102025319D01*
X171828235Y-101957845D01*
X172069963Y-101759463D01*
X172268345Y-101517734D01*
X172415755Y-101241948D01*
X172506530Y-100942703D01*
X172529500Y-100709485D01*
X172529500Y-100458514D01*
X172506530Y-100225296D01*
X172415755Y-99926051D01*
X172268345Y-99650265D01*
X172069963Y-99408537D01*
X171828234Y-99210155D01*
X171552448Y-99062745D01*
X171253203Y-98971970D01*
X170942000Y-98941319D01*
X170630796Y-98971970D01*
X170562000Y-98992839D01*
X170562000Y-98957339D01*
X170670386Y-98899405D01*
X170804962Y-98788962D01*
X170915405Y-98654386D01*
X170997472Y-98500850D01*
X171048008Y-98334254D01*
X171065072Y-98161000D01*
X171065072Y-96911000D01*
X171048008Y-96737746D01*
X170997472Y-96571150D01*
X170915405Y-96417614D01*
X170853628Y-96342338D01*
X170878185Y-96322185D01*
X170957537Y-96225494D01*
X171016502Y-96115180D01*
X171052812Y-95995482D01*
X171065072Y-95871000D01*
X171062000Y-95281750D01*
X170903250Y-95123000D01*
X169929000Y-95123000D01*
X169929000Y-95143000D01*
X169675000Y-95143000D01*
X169675000Y-95123000D01*
X168700750Y-95123000D01*
X168542000Y-95281750D01*
X168538928Y-95871000D01*
X168551188Y-95995482D01*
X168587498Y-96115180D01*
X168646463Y-96225494D01*
X168725815Y-96322185D01*
X168750372Y-96342338D01*
X168688595Y-96417614D01*
X168606528Y-96571150D01*
X168555992Y-96737746D01*
X168538928Y-96911000D01*
X168538928Y-98161000D01*
X168555992Y-98334254D01*
X168606528Y-98500850D01*
X168688595Y-98654386D01*
X168799038Y-98788962D01*
X168933614Y-98899405D01*
X169042001Y-98957339D01*
X169042001Y-99078541D01*
X169012448Y-99062745D01*
X168713203Y-98971970D01*
X168402000Y-98941319D01*
X168090796Y-98971970D01*
X167791551Y-99062745D01*
X167762000Y-99078540D01*
X167762000Y-98957339D01*
X167870386Y-98899405D01*
X168004962Y-98788962D01*
X168115405Y-98654386D01*
X168197472Y-98500850D01*
X168248008Y-98334254D01*
X168265072Y-98161000D01*
X168265072Y-96911000D01*
X168248008Y-96737746D01*
X168197472Y-96571150D01*
X168115405Y-96417614D01*
X168004962Y-96283038D01*
X167984201Y-96266000D01*
X168004962Y-96248962D01*
X168115405Y-96114386D01*
X168197472Y-95960850D01*
X168248008Y-95794254D01*
X168265072Y-95621000D01*
X168265072Y-94371000D01*
X168248008Y-94197746D01*
X168224728Y-94121000D01*
X168538928Y-94121000D01*
X168542000Y-94710250D01*
X168700750Y-94869000D01*
X169675000Y-94869000D01*
X169675000Y-93644750D01*
X169929000Y-93644750D01*
X169929000Y-94869000D01*
X170903250Y-94869000D01*
X171062000Y-94710250D01*
X171065072Y-94121000D01*
X171052812Y-93996518D01*
X171016502Y-93876820D01*
X170957537Y-93766506D01*
X170878185Y-93669815D01*
X170781494Y-93590463D01*
X170671180Y-93531498D01*
X170551482Y-93495188D01*
X170427000Y-93482928D01*
X170087750Y-93486000D01*
X169929000Y-93644750D01*
X169675000Y-93644750D01*
X169516250Y-93486000D01*
X169177000Y-93482928D01*
X169052518Y-93495188D01*
X168932820Y-93531498D01*
X168822506Y-93590463D01*
X168725815Y-93669815D01*
X168646463Y-93766506D01*
X168587498Y-93876820D01*
X168551188Y-93996518D01*
X168538928Y-94121000D01*
X168224728Y-94121000D01*
X168197472Y-94031150D01*
X168115405Y-93877614D01*
X168004962Y-93743038D01*
X167870386Y-93632595D01*
X167762000Y-93574661D01*
X167762000Y-93093323D01*
X167765676Y-93056000D01*
X167762000Y-93018677D01*
X167762000Y-93018667D01*
X167760359Y-93002000D01*
X177885928Y-93002000D01*
X177898188Y-93126482D01*
X177934498Y-93246180D01*
X177993463Y-93356494D01*
X178072815Y-93453185D01*
X178089393Y-93466790D01*
X178052320Y-93522273D01*
X177944147Y-93783426D01*
X177889000Y-94060665D01*
X177889000Y-94343335D01*
X177944147Y-94620574D01*
X178052320Y-94881727D01*
X178209363Y-95116759D01*
X178409241Y-95316637D01*
X178644273Y-95473680D01*
X178905426Y-95581853D01*
X179182665Y-95637000D01*
X179465335Y-95637000D01*
X179742574Y-95581853D01*
X180003727Y-95473680D01*
X180238759Y-95316637D01*
X180438637Y-95116759D01*
X180595680Y-94881727D01*
X180703853Y-94620574D01*
X180759000Y-94343335D01*
X180759000Y-94060665D01*
X180703853Y-93783426D01*
X180595680Y-93522273D01*
X180558607Y-93466790D01*
X180575185Y-93453185D01*
X180654537Y-93356494D01*
X180713502Y-93246180D01*
X180749812Y-93126482D01*
X180762072Y-93002000D01*
X180759000Y-92487750D01*
X180600250Y-92329000D01*
X179451000Y-92329000D01*
X179451000Y-92349000D01*
X179197000Y-92349000D01*
X179197000Y-92329000D01*
X178047750Y-92329000D01*
X177889000Y-92487750D01*
X177885928Y-93002000D01*
X167760359Y-93002000D01*
X167751003Y-92907014D01*
X167707546Y-92763753D01*
X167679671Y-92711603D01*
X167636974Y-92631723D01*
X167565799Y-92544997D01*
X167542001Y-92515999D01*
X167513003Y-92492201D01*
X167421504Y-92400702D01*
X170636903Y-92400702D01*
X170708486Y-92644671D01*
X170963996Y-92765571D01*
X171238184Y-92834300D01*
X171520512Y-92848217D01*
X171800130Y-92806787D01*
X172066292Y-92711603D01*
X172191514Y-92644671D01*
X172263097Y-92400702D01*
X171450000Y-91587605D01*
X170636903Y-92400702D01*
X167421504Y-92400702D01*
X166752688Y-91731886D01*
X166789000Y-91549335D01*
X166789000Y-91266665D01*
X166733853Y-90989426D01*
X166625680Y-90728273D01*
X166588607Y-90672790D01*
X166605185Y-90659185D01*
X166684537Y-90562494D01*
X166743502Y-90452180D01*
X166779812Y-90332482D01*
X166792072Y-90208000D01*
X166789000Y-89693750D01*
X166630250Y-89535000D01*
X165481000Y-89535000D01*
X165481000Y-89555000D01*
X165227000Y-89555000D01*
X165227000Y-89535000D01*
X164077750Y-89535000D01*
X163919000Y-89693750D01*
X163915928Y-90208000D01*
X133117342Y-90208000D01*
X133070178Y-89696062D01*
X132855452Y-88971792D01*
X132663942Y-88608000D01*
X163915928Y-88608000D01*
X163919000Y-89122250D01*
X164077750Y-89281000D01*
X165227000Y-89281000D01*
X165227000Y-88131750D01*
X165481000Y-88131750D01*
X165481000Y-89281000D01*
X166630250Y-89281000D01*
X166789000Y-89122250D01*
X166792072Y-88608000D01*
X166779812Y-88483518D01*
X166743502Y-88363820D01*
X166684537Y-88253506D01*
X166605185Y-88156815D01*
X166508494Y-88077463D01*
X166398180Y-88018498D01*
X166278482Y-87982188D01*
X166154000Y-87969928D01*
X165639750Y-87973000D01*
X165481000Y-88131750D01*
X165227000Y-88131750D01*
X165068250Y-87973000D01*
X164554000Y-87969928D01*
X164429518Y-87982188D01*
X164309820Y-88018498D01*
X164199506Y-88077463D01*
X164102815Y-88156815D01*
X164023463Y-88253506D01*
X163964498Y-88363820D01*
X163928188Y-88483518D01*
X163915928Y-88608000D01*
X132663942Y-88608000D01*
X132503555Y-88303330D01*
X132476548Y-88262912D01*
X131986881Y-87902724D01*
X129465605Y-90424000D01*
X129106395Y-90424000D01*
X126585119Y-87902724D01*
X126095452Y-88262912D01*
X125735151Y-88926882D01*
X125511306Y-89648385D01*
X125432520Y-90399695D01*
X79400000Y-90399695D01*
X79400000Y-89280224D01*
X82650381Y-89280224D01*
X82782317Y-89575312D01*
X83123045Y-89746159D01*
X83490557Y-89847250D01*
X83870729Y-89874701D01*
X84248951Y-89827457D01*
X84610690Y-89707333D01*
X84857683Y-89575312D01*
X84989619Y-89280224D01*
X83820000Y-88110605D01*
X82650381Y-89280224D01*
X79400000Y-89280224D01*
X79400000Y-87981729D01*
X81876299Y-87981729D01*
X81923543Y-88359951D01*
X82043667Y-88721690D01*
X82175688Y-88968683D01*
X82470776Y-89100619D01*
X83640395Y-87931000D01*
X83999605Y-87931000D01*
X85169224Y-89100619D01*
X85464312Y-88968683D01*
X85635159Y-88627955D01*
X85736250Y-88260443D01*
X85763701Y-87880271D01*
X85744072Y-87723119D01*
X126764724Y-87723119D01*
X129286000Y-90244395D01*
X131807276Y-87723119D01*
X131447088Y-87233452D01*
X130783118Y-86873151D01*
X130312041Y-86727000D01*
X165738928Y-86727000D01*
X165751188Y-86851482D01*
X165787498Y-86971180D01*
X165846463Y-87081494D01*
X165925815Y-87178185D01*
X166022506Y-87257537D01*
X166132820Y-87316502D01*
X166252518Y-87352812D01*
X166377000Y-87365072D01*
X166716250Y-87362000D01*
X166875000Y-87203250D01*
X166875000Y-85979000D01*
X167129000Y-85979000D01*
X167129000Y-87203250D01*
X167287750Y-87362000D01*
X167627000Y-87365072D01*
X167751482Y-87352812D01*
X167871180Y-87316502D01*
X167981494Y-87257537D01*
X168078185Y-87178185D01*
X168157537Y-87081494D01*
X168216502Y-86971180D01*
X168252812Y-86851482D01*
X168265072Y-86727000D01*
X168262000Y-86137750D01*
X168103250Y-85979000D01*
X167129000Y-85979000D01*
X166875000Y-85979000D01*
X165900750Y-85979000D01*
X165742000Y-86137750D01*
X165738928Y-86727000D01*
X130312041Y-86727000D01*
X130061615Y-86649306D01*
X129310305Y-86570520D01*
X128558062Y-86639822D01*
X127833792Y-86854548D01*
X127165330Y-87206445D01*
X127124912Y-87233452D01*
X126764724Y-87723119D01*
X85744072Y-87723119D01*
X85716457Y-87502049D01*
X85596333Y-87140310D01*
X85464312Y-86893317D01*
X85169224Y-86761381D01*
X83999605Y-87931000D01*
X83640395Y-87931000D01*
X82470776Y-86761381D01*
X82175688Y-86893317D01*
X82004841Y-87234045D01*
X81903750Y-87601557D01*
X81876299Y-87981729D01*
X79400000Y-87981729D01*
X79400000Y-86581776D01*
X82650381Y-86581776D01*
X83820000Y-87751395D01*
X84989619Y-86581776D01*
X84857683Y-86286688D01*
X84516955Y-86115841D01*
X84149443Y-86014750D01*
X83769271Y-85987299D01*
X83391049Y-86034543D01*
X83029310Y-86154667D01*
X82782317Y-86286688D01*
X82650381Y-86581776D01*
X79400000Y-86581776D01*
X79400000Y-81631000D01*
X81881928Y-81631000D01*
X81881928Y-84231000D01*
X81894188Y-84355482D01*
X81930498Y-84475180D01*
X81989463Y-84585494D01*
X82068815Y-84682185D01*
X82165506Y-84761537D01*
X82275820Y-84820502D01*
X82395518Y-84856812D01*
X82520000Y-84869072D01*
X85120000Y-84869072D01*
X85244482Y-84856812D01*
X85364180Y-84820502D01*
X85474494Y-84761537D01*
X85571185Y-84682185D01*
X85650537Y-84585494D01*
X85709502Y-84475180D01*
X85745812Y-84355482D01*
X85758072Y-84231000D01*
X85758072Y-81631000D01*
X85745812Y-81506518D01*
X85709502Y-81386820D01*
X85650537Y-81276506D01*
X85571185Y-81179815D01*
X85474494Y-81100463D01*
X85364180Y-81041498D01*
X85244482Y-81005188D01*
X85120000Y-80992928D01*
X82520000Y-80992928D01*
X82395518Y-81005188D01*
X82275820Y-81041498D01*
X82165506Y-81100463D01*
X82068815Y-81179815D01*
X81989463Y-81276506D01*
X81930498Y-81386820D01*
X81894188Y-81506518D01*
X81881928Y-81631000D01*
X79400000Y-81631000D01*
X79400000Y-80138514D01*
X164274500Y-80138514D01*
X164274500Y-80389485D01*
X164297470Y-80622703D01*
X164388245Y-80921948D01*
X164535655Y-81197734D01*
X164734037Y-81439463D01*
X164975765Y-81637845D01*
X165251551Y-81785255D01*
X165550796Y-81876030D01*
X165862000Y-81906681D01*
X166173203Y-81876030D01*
X166472448Y-81785255D01*
X166748234Y-81637845D01*
X166989963Y-81439463D01*
X167132000Y-81266391D01*
X167274037Y-81439463D01*
X167494668Y-81620531D01*
X167316270Y-81798928D01*
X166627000Y-81798928D01*
X166453746Y-81815992D01*
X166287150Y-81866528D01*
X166133614Y-81948595D01*
X165999038Y-82059038D01*
X165888595Y-82193614D01*
X165806528Y-82347150D01*
X165755992Y-82513746D01*
X165738928Y-82687000D01*
X165738928Y-83937000D01*
X165755992Y-84110254D01*
X165806528Y-84276850D01*
X165888595Y-84430386D01*
X165950372Y-84505662D01*
X165925815Y-84525815D01*
X165846463Y-84622506D01*
X165787498Y-84732820D01*
X165751188Y-84852518D01*
X165738928Y-84977000D01*
X165742000Y-85566250D01*
X165900750Y-85725000D01*
X166875000Y-85725000D01*
X166875000Y-85705000D01*
X167129000Y-85705000D01*
X167129000Y-85725000D01*
X168103250Y-85725000D01*
X168262000Y-85566250D01*
X168265072Y-84977000D01*
X168252812Y-84852518D01*
X168216502Y-84732820D01*
X168157537Y-84622506D01*
X168078185Y-84525815D01*
X168053628Y-84505662D01*
X168115405Y-84430386D01*
X168197472Y-84276850D01*
X168248008Y-84110254D01*
X168265072Y-83937000D01*
X168265072Y-82999730D01*
X168538928Y-82725874D01*
X168538928Y-83937000D01*
X168555992Y-84110254D01*
X168606528Y-84276850D01*
X168688595Y-84430386D01*
X168799038Y-84564962D01*
X168819799Y-84582000D01*
X168799038Y-84599038D01*
X168688595Y-84733614D01*
X168606528Y-84887150D01*
X168555992Y-85053746D01*
X168538928Y-85227000D01*
X168538928Y-86477000D01*
X168555992Y-86650254D01*
X168606528Y-86816850D01*
X168688595Y-86970386D01*
X168799038Y-87104962D01*
X168933614Y-87215405D01*
X169042001Y-87273339D01*
X169042001Y-87722668D01*
X169038324Y-87760000D01*
X169042001Y-87797333D01*
X169052756Y-87906523D01*
X169052998Y-87908985D01*
X169096454Y-88052246D01*
X169167026Y-88184276D01*
X169231562Y-88262912D01*
X169262000Y-88300001D01*
X169290998Y-88323799D01*
X170011928Y-89044729D01*
X170011928Y-90208000D01*
X170024188Y-90332482D01*
X170060498Y-90452180D01*
X170119463Y-90562494D01*
X170198815Y-90659185D01*
X170211758Y-90669807D01*
X170092429Y-90921996D01*
X170023700Y-91196184D01*
X170009783Y-91478512D01*
X170051213Y-91758130D01*
X170146397Y-92024292D01*
X170213329Y-92149514D01*
X170457298Y-92221097D01*
X171270395Y-91408000D01*
X171256253Y-91393858D01*
X171435858Y-91214253D01*
X171450000Y-91228395D01*
X171464143Y-91214253D01*
X171643748Y-91393858D01*
X171629605Y-91408000D01*
X172442702Y-92221097D01*
X172686671Y-92149514D01*
X172807571Y-91894004D01*
X172876300Y-91619816D01*
X172887036Y-91402000D01*
X177885928Y-91402000D01*
X177889000Y-91916250D01*
X178047750Y-92075000D01*
X179197000Y-92075000D01*
X179197000Y-90925750D01*
X179451000Y-90925750D01*
X179451000Y-92075000D01*
X180600250Y-92075000D01*
X180759000Y-91916250D01*
X180762072Y-91402000D01*
X180749812Y-91277518D01*
X180713502Y-91157820D01*
X180654537Y-91047506D01*
X180575185Y-90950815D01*
X180478494Y-90871463D01*
X180368180Y-90812498D01*
X180248482Y-90776188D01*
X180124000Y-90763928D01*
X179609750Y-90767000D01*
X179451000Y-90925750D01*
X179197000Y-90925750D01*
X179038250Y-90767000D01*
X178524000Y-90763928D01*
X178399518Y-90776188D01*
X178279820Y-90812498D01*
X178169506Y-90871463D01*
X178072815Y-90950815D01*
X177993463Y-91047506D01*
X177934498Y-91157820D01*
X177898188Y-91277518D01*
X177885928Y-91402000D01*
X172887036Y-91402000D01*
X172890217Y-91337488D01*
X172848787Y-91057870D01*
X172753603Y-90791708D01*
X172688384Y-90669691D01*
X172701185Y-90659185D01*
X172780537Y-90562494D01*
X172839502Y-90452180D01*
X172875812Y-90332482D01*
X172888072Y-90208000D01*
X172888072Y-89606702D01*
X178510903Y-89606702D01*
X178582486Y-89850671D01*
X178837996Y-89971571D01*
X179112184Y-90040300D01*
X179394512Y-90054217D01*
X179674130Y-90012787D01*
X179940292Y-89917603D01*
X180065514Y-89850671D01*
X180137097Y-89606702D01*
X179324000Y-88793605D01*
X178510903Y-89606702D01*
X172888072Y-89606702D01*
X172888072Y-88684512D01*
X177883783Y-88684512D01*
X177925213Y-88964130D01*
X178020397Y-89230292D01*
X178087329Y-89355514D01*
X178331298Y-89427097D01*
X179144395Y-88614000D01*
X179130253Y-88599858D01*
X179309858Y-88420253D01*
X179324000Y-88434395D01*
X179338143Y-88420253D01*
X179517748Y-88599858D01*
X179503605Y-88614000D01*
X180316702Y-89427097D01*
X180560671Y-89355514D01*
X180681571Y-89100004D01*
X180750300Y-88825816D01*
X180764217Y-88543488D01*
X180722787Y-88263870D01*
X180627603Y-87997708D01*
X180562384Y-87875691D01*
X180575185Y-87865185D01*
X180654537Y-87768494D01*
X180713502Y-87658180D01*
X180749812Y-87538482D01*
X180762072Y-87414000D01*
X180762072Y-86684000D01*
X184597928Y-86684000D01*
X184597928Y-89084000D01*
X184610188Y-89208482D01*
X184646498Y-89328180D01*
X184705463Y-89438494D01*
X184784815Y-89535185D01*
X184881506Y-89614537D01*
X184991820Y-89673502D01*
X185111518Y-89709812D01*
X185236000Y-89722072D01*
X187636000Y-89722072D01*
X187760482Y-89709812D01*
X187880180Y-89673502D01*
X187990494Y-89614537D01*
X188087185Y-89535185D01*
X188166537Y-89438494D01*
X188225502Y-89328180D01*
X188261812Y-89208482D01*
X188274072Y-89084000D01*
X188274072Y-86684000D01*
X188261812Y-86559518D01*
X188225502Y-86439820D01*
X188166537Y-86329506D01*
X188087185Y-86232815D01*
X187990494Y-86153463D01*
X187880180Y-86094498D01*
X187760482Y-86058188D01*
X187636000Y-86045928D01*
X187218838Y-86045928D01*
X187305199Y-86010156D01*
X187605744Y-85809338D01*
X187861338Y-85553744D01*
X188062156Y-85253199D01*
X188200482Y-84919250D01*
X188271000Y-84564732D01*
X188271000Y-84203268D01*
X188200482Y-83848750D01*
X188062156Y-83514801D01*
X187861338Y-83214256D01*
X187605744Y-82958662D01*
X187305199Y-82757844D01*
X187006213Y-82634000D01*
X187305199Y-82510156D01*
X187605744Y-82309338D01*
X187861338Y-82053744D01*
X188062156Y-81753199D01*
X188200482Y-81419250D01*
X188271000Y-81064732D01*
X188271000Y-80703268D01*
X188200482Y-80348750D01*
X188062156Y-80014801D01*
X187861338Y-79714256D01*
X187605744Y-79458662D01*
X187305199Y-79257844D01*
X187006213Y-79134000D01*
X187305199Y-79010156D01*
X187605744Y-78809338D01*
X187861338Y-78553744D01*
X188062156Y-78253199D01*
X188200482Y-77919250D01*
X188271000Y-77564732D01*
X188271000Y-77203268D01*
X188200482Y-76848750D01*
X188062156Y-76514801D01*
X187861338Y-76214256D01*
X187605744Y-75958662D01*
X187305199Y-75757844D01*
X186971250Y-75619518D01*
X186616732Y-75549000D01*
X186255268Y-75549000D01*
X185900750Y-75619518D01*
X185566801Y-75757844D01*
X185266256Y-75958662D01*
X185010662Y-76214256D01*
X184809844Y-76514801D01*
X184671518Y-76848750D01*
X184601000Y-77203268D01*
X184601000Y-77564732D01*
X184671518Y-77919250D01*
X184809844Y-78253199D01*
X185010662Y-78553744D01*
X185266256Y-78809338D01*
X185566801Y-79010156D01*
X185865787Y-79134000D01*
X185566801Y-79257844D01*
X185266256Y-79458662D01*
X185010662Y-79714256D01*
X184809844Y-80014801D01*
X184671518Y-80348750D01*
X184601000Y-80703268D01*
X184601000Y-81064732D01*
X184671518Y-81419250D01*
X184809844Y-81753199D01*
X185010662Y-82053744D01*
X185266256Y-82309338D01*
X185566801Y-82510156D01*
X185865787Y-82634000D01*
X185566801Y-82757844D01*
X185266256Y-82958662D01*
X185010662Y-83214256D01*
X184809844Y-83514801D01*
X184671518Y-83848750D01*
X184601000Y-84203268D01*
X184601000Y-84564732D01*
X184671518Y-84919250D01*
X184809844Y-85253199D01*
X185010662Y-85553744D01*
X185266256Y-85809338D01*
X185566801Y-86010156D01*
X185653162Y-86045928D01*
X185236000Y-86045928D01*
X185111518Y-86058188D01*
X184991820Y-86094498D01*
X184881506Y-86153463D01*
X184784815Y-86232815D01*
X184705463Y-86329506D01*
X184646498Y-86439820D01*
X184610188Y-86559518D01*
X184597928Y-86684000D01*
X180762072Y-86684000D01*
X180762072Y-85814000D01*
X180749812Y-85689518D01*
X180713502Y-85569820D01*
X180654537Y-85459506D01*
X180575185Y-85362815D01*
X180478494Y-85283463D01*
X180368180Y-85224498D01*
X180248482Y-85188188D01*
X180124000Y-85175928D01*
X178524000Y-85175928D01*
X178399518Y-85188188D01*
X178279820Y-85224498D01*
X178169506Y-85283463D01*
X178072815Y-85362815D01*
X177993463Y-85459506D01*
X177934498Y-85569820D01*
X177898188Y-85689518D01*
X177885928Y-85814000D01*
X177885928Y-87414000D01*
X177898188Y-87538482D01*
X177934498Y-87658180D01*
X177993463Y-87768494D01*
X178072815Y-87865185D01*
X178085758Y-87875807D01*
X177966429Y-88127996D01*
X177897700Y-88402184D01*
X177883783Y-88684512D01*
X172888072Y-88684512D01*
X172888072Y-88608000D01*
X172875812Y-88483518D01*
X172839502Y-88363820D01*
X172780537Y-88253506D01*
X172701185Y-88156815D01*
X172604494Y-88077463D01*
X172494180Y-88018498D01*
X172374482Y-87982188D01*
X172250000Y-87969928D01*
X171086729Y-87969928D01*
X170562000Y-87445199D01*
X170562000Y-87273339D01*
X170670386Y-87215405D01*
X170804962Y-87104962D01*
X170915405Y-86970386D01*
X170997472Y-86816850D01*
X171048008Y-86650254D01*
X171065072Y-86477000D01*
X171065072Y-85227000D01*
X171048008Y-85053746D01*
X170997472Y-84887150D01*
X170915405Y-84733614D01*
X170804962Y-84599038D01*
X170784201Y-84582000D01*
X170804962Y-84564962D01*
X170915405Y-84430386D01*
X170997472Y-84276850D01*
X171048008Y-84110254D01*
X171065072Y-83937000D01*
X171065072Y-82993730D01*
X171453009Y-82605794D01*
X171482001Y-82582001D01*
X171505795Y-82553008D01*
X171505799Y-82553004D01*
X171576973Y-82466277D01*
X171576974Y-82466276D01*
X171647546Y-82334247D01*
X171691003Y-82190986D01*
X171702000Y-82079333D01*
X171702000Y-82079324D01*
X171705676Y-82042001D01*
X171702000Y-82004678D01*
X171702000Y-81902072D01*
X171894500Y-81902072D01*
X172018982Y-81889812D01*
X172138680Y-81853502D01*
X172248994Y-81794537D01*
X172345685Y-81715185D01*
X172425037Y-81618494D01*
X172484002Y-81508180D01*
X172520312Y-81388482D01*
X172532572Y-81264000D01*
X172532572Y-79750028D01*
X172540796Y-79740007D01*
X172540800Y-79740003D01*
X172611974Y-79653276D01*
X172611975Y-79653275D01*
X172682547Y-79521246D01*
X172726004Y-79377985D01*
X172737001Y-79266332D01*
X172737001Y-79266323D01*
X172740677Y-79229000D01*
X172737001Y-79191677D01*
X172737001Y-71938326D01*
X172740677Y-71901001D01*
X172737001Y-71863676D01*
X172737001Y-71863668D01*
X172726004Y-71752015D01*
X172697486Y-71658000D01*
X183989928Y-71658000D01*
X184002188Y-71782482D01*
X184038498Y-71902180D01*
X184097463Y-72012494D01*
X184176815Y-72109185D01*
X184273506Y-72188537D01*
X184383820Y-72247502D01*
X184503518Y-72283812D01*
X184628000Y-72296072D01*
X185642250Y-72293000D01*
X185801000Y-72134250D01*
X185801000Y-70485000D01*
X186055000Y-70485000D01*
X186055000Y-72134250D01*
X186213750Y-72293000D01*
X187228000Y-72296072D01*
X187352482Y-72283812D01*
X187472180Y-72247502D01*
X187582494Y-72188537D01*
X187679185Y-72109185D01*
X187758537Y-72012494D01*
X187817502Y-71902180D01*
X187853812Y-71782482D01*
X187866072Y-71658000D01*
X187863000Y-70643750D01*
X187704250Y-70485000D01*
X186055000Y-70485000D01*
X185801000Y-70485000D01*
X184151750Y-70485000D01*
X183993000Y-70643750D01*
X183989928Y-71658000D01*
X172697486Y-71658000D01*
X172682547Y-71608754D01*
X172611975Y-71476725D01*
X172517002Y-71361000D01*
X172488005Y-71337203D01*
X172290072Y-71139270D01*
X172290072Y-69712000D01*
X172277812Y-69587518D01*
X172241502Y-69467820D01*
X172182537Y-69357506D01*
X172103185Y-69260815D01*
X172006494Y-69181463D01*
X171896180Y-69122498D01*
X171776482Y-69086188D01*
X171652000Y-69073928D01*
X169152000Y-69073928D01*
X169027518Y-69086188D01*
X168907820Y-69122498D01*
X168797506Y-69181463D01*
X168700815Y-69260815D01*
X168621463Y-69357506D01*
X168562498Y-69467820D01*
X168526188Y-69587518D01*
X168513928Y-69712000D01*
X168513928Y-71427126D01*
X168290072Y-71203270D01*
X168290072Y-69712000D01*
X168277812Y-69587518D01*
X168241502Y-69467820D01*
X168182537Y-69357506D01*
X168103185Y-69260815D01*
X168006494Y-69181463D01*
X167896180Y-69122498D01*
X167776482Y-69086188D01*
X167652000Y-69073928D01*
X165152000Y-69073928D01*
X165027518Y-69086188D01*
X164907820Y-69122498D01*
X164797506Y-69181463D01*
X164700815Y-69260815D01*
X164621463Y-69357506D01*
X164562498Y-69467820D01*
X164526188Y-69587518D01*
X164513928Y-69712000D01*
X164513928Y-71512000D01*
X164526188Y-71636482D01*
X164562498Y-71756180D01*
X164621463Y-71866494D01*
X164700815Y-71963185D01*
X164797506Y-72042537D01*
X164907820Y-72101502D01*
X165027518Y-72137812D01*
X165152000Y-72150072D01*
X167087270Y-72150072D01*
X167644564Y-72707366D01*
X167652997Y-72792986D01*
X167681464Y-72886830D01*
X167652000Y-72883928D01*
X165152000Y-72883928D01*
X165027518Y-72896188D01*
X164907820Y-72932498D01*
X164797506Y-72991463D01*
X164700815Y-73070815D01*
X164621463Y-73167506D01*
X164562498Y-73277820D01*
X164526188Y-73397518D01*
X164513928Y-73522000D01*
X164513928Y-75322000D01*
X164526188Y-75446482D01*
X164562498Y-75566180D01*
X164621463Y-75676494D01*
X164700815Y-75773185D01*
X164797506Y-75852537D01*
X164907820Y-75911502D01*
X165027518Y-75947812D01*
X165121401Y-75957058D01*
X165107000Y-75956928D01*
X164982518Y-75969188D01*
X164862820Y-76005498D01*
X164752506Y-76064463D01*
X164655815Y-76143815D01*
X164576463Y-76240506D01*
X164517498Y-76350820D01*
X164481188Y-76470518D01*
X164468928Y-76595000D01*
X164472000Y-77184250D01*
X164630750Y-77343000D01*
X165605000Y-77343000D01*
X165605000Y-77323000D01*
X165859000Y-77323000D01*
X165859000Y-77343000D01*
X166833250Y-77343000D01*
X166992000Y-77184250D01*
X166993169Y-76960000D01*
X167071199Y-76960000D01*
X167268928Y-77157729D01*
X167268928Y-77251940D01*
X166878559Y-77642309D01*
X166833250Y-77597000D01*
X165859000Y-77597000D01*
X165859000Y-77617000D01*
X165605000Y-77617000D01*
X165605000Y-77597000D01*
X164630750Y-77597000D01*
X164472000Y-77755750D01*
X164468928Y-78345000D01*
X164481188Y-78469482D01*
X164517498Y-78589180D01*
X164576463Y-78699494D01*
X164655815Y-78796185D01*
X164752506Y-78875537D01*
X164862820Y-78934502D01*
X164905831Y-78947549D01*
X164734037Y-79088537D01*
X164535655Y-79330265D01*
X164388245Y-79606051D01*
X164297470Y-79905296D01*
X164274500Y-80138514D01*
X79400000Y-80138514D01*
X79400000Y-77797268D01*
X82747000Y-77797268D01*
X82747000Y-78158732D01*
X82817518Y-78513250D01*
X82955844Y-78847199D01*
X83156662Y-79147744D01*
X83412256Y-79403338D01*
X83712801Y-79604156D01*
X84046750Y-79742482D01*
X84401268Y-79813000D01*
X84762732Y-79813000D01*
X85117250Y-79742482D01*
X85451199Y-79604156D01*
X85751744Y-79403338D01*
X85997583Y-79157499D01*
X104250106Y-79157499D01*
X104466228Y-79524258D01*
X104926105Y-79764938D01*
X105424098Y-79911275D01*
X105941071Y-79957648D01*
X106457159Y-79902273D01*
X106952526Y-79747279D01*
X107369772Y-79524258D01*
X107585894Y-79157499D01*
X140064106Y-79157499D01*
X140280228Y-79524258D01*
X140740105Y-79764938D01*
X141238098Y-79911275D01*
X141755071Y-79957648D01*
X142271159Y-79902273D01*
X142766526Y-79747279D01*
X143183772Y-79524258D01*
X143399894Y-79157499D01*
X141732000Y-77489605D01*
X140064106Y-79157499D01*
X107585894Y-79157499D01*
X105918000Y-77489605D01*
X104250106Y-79157499D01*
X85997583Y-79157499D01*
X86007338Y-79147744D01*
X86208156Y-78847199D01*
X86346482Y-78513250D01*
X86417000Y-78158732D01*
X86417000Y-77797268D01*
X86346482Y-77442750D01*
X86301052Y-77333071D01*
X103270352Y-77333071D01*
X103325727Y-77849159D01*
X103480721Y-78344526D01*
X103703742Y-78761772D01*
X104070501Y-78977894D01*
X105738395Y-77310000D01*
X106097605Y-77310000D01*
X107765499Y-78977894D01*
X108132258Y-78761772D01*
X108372938Y-78301895D01*
X108519275Y-77803902D01*
X108561509Y-77333071D01*
X139084352Y-77333071D01*
X139139727Y-77849159D01*
X139294721Y-78344526D01*
X139517742Y-78761772D01*
X139884501Y-78977894D01*
X141552395Y-77310000D01*
X141911605Y-77310000D01*
X143579499Y-78977894D01*
X143946258Y-78761772D01*
X144186938Y-78301895D01*
X144333275Y-77803902D01*
X144379648Y-77286929D01*
X144324273Y-76770841D01*
X144169279Y-76275474D01*
X143946258Y-75858228D01*
X143579499Y-75642106D01*
X141911605Y-77310000D01*
X141552395Y-77310000D01*
X139884501Y-75642106D01*
X139517742Y-75858228D01*
X139277062Y-76318105D01*
X139130725Y-76816098D01*
X139084352Y-77333071D01*
X108561509Y-77333071D01*
X108565648Y-77286929D01*
X108510273Y-76770841D01*
X108355279Y-76275474D01*
X108132258Y-75858228D01*
X107765499Y-75642106D01*
X106097605Y-77310000D01*
X105738395Y-77310000D01*
X104070501Y-75642106D01*
X103703742Y-75858228D01*
X103463062Y-76318105D01*
X103316725Y-76816098D01*
X103270352Y-77333071D01*
X86301052Y-77333071D01*
X86208156Y-77108801D01*
X86007338Y-76808256D01*
X85751744Y-76552662D01*
X85451199Y-76351844D01*
X85117250Y-76213518D01*
X84762732Y-76143000D01*
X84401268Y-76143000D01*
X84046750Y-76213518D01*
X83712801Y-76351844D01*
X83412256Y-76552662D01*
X83156662Y-76808256D01*
X82955844Y-77108801D01*
X82817518Y-77442750D01*
X82747000Y-77797268D01*
X79400000Y-77797268D01*
X79400000Y-75462501D01*
X104250106Y-75462501D01*
X105918000Y-77130395D01*
X107585894Y-75462501D01*
X140064106Y-75462501D01*
X141732000Y-77130395D01*
X143399894Y-75462501D01*
X143183772Y-75095742D01*
X142723895Y-74855062D01*
X142225902Y-74708725D01*
X141708929Y-74662352D01*
X141192841Y-74717727D01*
X140697474Y-74872721D01*
X140280228Y-75095742D01*
X140064106Y-75462501D01*
X107585894Y-75462501D01*
X107369772Y-75095742D01*
X106909895Y-74855062D01*
X106411902Y-74708725D01*
X105894929Y-74662352D01*
X105378841Y-74717727D01*
X104883474Y-74872721D01*
X104466228Y-75095742D01*
X104250106Y-75462501D01*
X79400000Y-75462501D01*
X79400000Y-65310000D01*
X103279928Y-65310000D01*
X103279928Y-69310000D01*
X103292188Y-69434482D01*
X103328498Y-69554180D01*
X103387463Y-69664494D01*
X103466815Y-69761185D01*
X103563506Y-69840537D01*
X103673820Y-69899502D01*
X103793518Y-69935812D01*
X103918000Y-69948072D01*
X107918000Y-69948072D01*
X108042482Y-69935812D01*
X108162180Y-69899502D01*
X108272494Y-69840537D01*
X108369185Y-69761185D01*
X108448537Y-69664494D01*
X108507502Y-69554180D01*
X108543812Y-69434482D01*
X108556072Y-69310000D01*
X108556072Y-65310000D01*
X139093928Y-65310000D01*
X139093928Y-69310000D01*
X139106188Y-69434482D01*
X139142498Y-69554180D01*
X139201463Y-69664494D01*
X139280815Y-69761185D01*
X139377506Y-69840537D01*
X139487820Y-69899502D01*
X139607518Y-69935812D01*
X139732000Y-69948072D01*
X143732000Y-69948072D01*
X143856482Y-69935812D01*
X143976180Y-69899502D01*
X144086494Y-69840537D01*
X144183185Y-69761185D01*
X144262537Y-69664494D01*
X144321502Y-69554180D01*
X144357812Y-69434482D01*
X144370072Y-69310000D01*
X144370072Y-69058000D01*
X183989928Y-69058000D01*
X183993000Y-70072250D01*
X184151750Y-70231000D01*
X185801000Y-70231000D01*
X185801000Y-68581750D01*
X186055000Y-68581750D01*
X186055000Y-70231000D01*
X187704250Y-70231000D01*
X187863000Y-70072250D01*
X187866072Y-69058000D01*
X187853812Y-68933518D01*
X187817502Y-68813820D01*
X187758537Y-68703506D01*
X187679185Y-68606815D01*
X187582494Y-68527463D01*
X187472180Y-68468498D01*
X187352482Y-68432188D01*
X187228000Y-68419928D01*
X186213750Y-68423000D01*
X186055000Y-68581750D01*
X185801000Y-68581750D01*
X185642250Y-68423000D01*
X184628000Y-68419928D01*
X184503518Y-68432188D01*
X184383820Y-68468498D01*
X184273506Y-68527463D01*
X184176815Y-68606815D01*
X184097463Y-68703506D01*
X184038498Y-68813820D01*
X184002188Y-68933518D01*
X183989928Y-69058000D01*
X144370072Y-69058000D01*
X144370072Y-66707224D01*
X184758381Y-66707224D01*
X184890317Y-67002312D01*
X185231045Y-67173159D01*
X185598557Y-67274250D01*
X185978729Y-67301701D01*
X186356951Y-67254457D01*
X186718690Y-67134333D01*
X186965683Y-67002312D01*
X187097619Y-66707224D01*
X185928000Y-65537605D01*
X184758381Y-66707224D01*
X144370072Y-66707224D01*
X144370072Y-65408729D01*
X183984299Y-65408729D01*
X184031543Y-65786951D01*
X184151667Y-66148690D01*
X184283688Y-66395683D01*
X184578776Y-66527619D01*
X185748395Y-65358000D01*
X186107605Y-65358000D01*
X187277224Y-66527619D01*
X187572312Y-66395683D01*
X187743159Y-66054955D01*
X187844250Y-65687443D01*
X187871701Y-65307271D01*
X187824457Y-64929049D01*
X187704333Y-64567310D01*
X187572312Y-64320317D01*
X187277224Y-64188381D01*
X186107605Y-65358000D01*
X185748395Y-65358000D01*
X184578776Y-64188381D01*
X184283688Y-64320317D01*
X184112841Y-64661045D01*
X184011750Y-65028557D01*
X183984299Y-65408729D01*
X144370072Y-65408729D01*
X144370072Y-65310000D01*
X144357812Y-65185518D01*
X144321502Y-65065820D01*
X144262537Y-64955506D01*
X144183185Y-64858815D01*
X144086494Y-64779463D01*
X143976180Y-64720498D01*
X143856482Y-64684188D01*
X143732000Y-64671928D01*
X139732000Y-64671928D01*
X139607518Y-64684188D01*
X139487820Y-64720498D01*
X139377506Y-64779463D01*
X139280815Y-64858815D01*
X139201463Y-64955506D01*
X139142498Y-65065820D01*
X139106188Y-65185518D01*
X139093928Y-65310000D01*
X108556072Y-65310000D01*
X108543812Y-65185518D01*
X108507502Y-65065820D01*
X108448537Y-64955506D01*
X108369185Y-64858815D01*
X108272494Y-64779463D01*
X108162180Y-64720498D01*
X108042482Y-64684188D01*
X107918000Y-64671928D01*
X103918000Y-64671928D01*
X103793518Y-64684188D01*
X103673820Y-64720498D01*
X103563506Y-64779463D01*
X103466815Y-64858815D01*
X103387463Y-64955506D01*
X103328498Y-65065820D01*
X103292188Y-65185518D01*
X103279928Y-65310000D01*
X79400000Y-65310000D01*
X79400000Y-63149806D01*
X82793801Y-63149806D01*
X82908500Y-63490754D01*
X83087511Y-63802774D01*
X83323954Y-64073875D01*
X83608743Y-64293639D01*
X83930934Y-64453621D01*
X84170195Y-64526195D01*
X84455000Y-64409432D01*
X84455000Y-62865000D01*
X84709000Y-62865000D01*
X84709000Y-64409432D01*
X84993805Y-64526195D01*
X85233066Y-64453621D01*
X85555257Y-64293639D01*
X85840046Y-64073875D01*
X85896822Y-64008776D01*
X184758381Y-64008776D01*
X185928000Y-65178395D01*
X187097619Y-64008776D01*
X186965683Y-63713688D01*
X186624955Y-63542841D01*
X186257443Y-63441750D01*
X185877271Y-63414299D01*
X185499049Y-63461543D01*
X185137310Y-63581667D01*
X184890317Y-63713688D01*
X184758381Y-64008776D01*
X85896822Y-64008776D01*
X86076489Y-63802774D01*
X86255500Y-63490754D01*
X86370199Y-63149806D01*
X86253854Y-62865000D01*
X84709000Y-62865000D01*
X84455000Y-62865000D01*
X82910146Y-62865000D01*
X82793801Y-63149806D01*
X79400000Y-63149806D01*
X79400000Y-62326194D01*
X82793801Y-62326194D01*
X82910146Y-62611000D01*
X84455000Y-62611000D01*
X84455000Y-61066568D01*
X84709000Y-61066568D01*
X84709000Y-62611000D01*
X86253854Y-62611000D01*
X86370199Y-62326194D01*
X86255500Y-61985246D01*
X86076489Y-61673226D01*
X85840046Y-61402125D01*
X85555257Y-61182361D01*
X85233066Y-61022379D01*
X84993805Y-60949805D01*
X84709000Y-61066568D01*
X84455000Y-61066568D01*
X84170195Y-60949805D01*
X83930934Y-61022379D01*
X83608743Y-61182361D01*
X83323954Y-61402125D01*
X83087511Y-61673226D01*
X82908500Y-61985246D01*
X82793801Y-62326194D01*
X79400000Y-62326194D01*
X79400000Y-56421872D01*
X80061000Y-56421872D01*
X80061000Y-56862128D01*
X80146890Y-57293925D01*
X80315369Y-57700669D01*
X80559962Y-58066729D01*
X80871271Y-58378038D01*
X81237331Y-58622631D01*
X81644075Y-58791110D01*
X82075872Y-58877000D01*
X82516128Y-58877000D01*
X82947925Y-58791110D01*
X83354669Y-58622631D01*
X83720729Y-58378038D01*
X84032038Y-58066729D01*
X84093049Y-57975419D01*
X160357000Y-57975419D01*
X160357000Y-58356581D01*
X160431361Y-58730419D01*
X160577225Y-59082566D01*
X160788987Y-59399491D01*
X161058509Y-59669013D01*
X161375434Y-59880775D01*
X161727581Y-60026639D01*
X162101419Y-60101000D01*
X162482581Y-60101000D01*
X162856419Y-60026639D01*
X163208566Y-59880775D01*
X163525491Y-59669013D01*
X163795013Y-59399491D01*
X164006775Y-59082566D01*
X164152639Y-58730419D01*
X164227000Y-58356581D01*
X164227000Y-57975419D01*
X165357000Y-57975419D01*
X165357000Y-58356581D01*
X165431361Y-58730419D01*
X165577225Y-59082566D01*
X165788987Y-59399491D01*
X166058509Y-59669013D01*
X166375434Y-59880775D01*
X166727581Y-60026639D01*
X167101419Y-60101000D01*
X167482581Y-60101000D01*
X167856419Y-60026639D01*
X168208566Y-59880775D01*
X168525491Y-59669013D01*
X168795013Y-59399491D01*
X169006775Y-59082566D01*
X169152639Y-58730419D01*
X169227000Y-58356581D01*
X169227000Y-57975419D01*
X170357000Y-57975419D01*
X170357000Y-58356581D01*
X170431361Y-58730419D01*
X170577225Y-59082566D01*
X170788987Y-59399491D01*
X171058509Y-59669013D01*
X171375434Y-59880775D01*
X171727581Y-60026639D01*
X172101419Y-60101000D01*
X172482581Y-60101000D01*
X172856419Y-60026639D01*
X173208566Y-59880775D01*
X173525491Y-59669013D01*
X173795013Y-59399491D01*
X174006775Y-59082566D01*
X174152639Y-58730419D01*
X174227000Y-58356581D01*
X174227000Y-57975419D01*
X174152639Y-57601581D01*
X174006775Y-57249434D01*
X173795013Y-56932509D01*
X173728504Y-56866000D01*
X175353928Y-56866000D01*
X175353928Y-59466000D01*
X175366188Y-59590482D01*
X175402498Y-59710180D01*
X175461463Y-59820494D01*
X175540815Y-59917185D01*
X175637506Y-59996537D01*
X175747820Y-60055502D01*
X175867518Y-60091812D01*
X175992000Y-60104072D01*
X178592000Y-60104072D01*
X178716482Y-60091812D01*
X178836180Y-60055502D01*
X178946494Y-59996537D01*
X179043185Y-59917185D01*
X179122537Y-59820494D01*
X179181502Y-59710180D01*
X179217812Y-59590482D01*
X179230072Y-59466000D01*
X179230072Y-56866000D01*
X179217812Y-56741518D01*
X179181502Y-56621820D01*
X179122537Y-56511506D01*
X179048977Y-56421872D01*
X185217000Y-56421872D01*
X185217000Y-56862128D01*
X185302890Y-57293925D01*
X185471369Y-57700669D01*
X185715962Y-58066729D01*
X186027271Y-58378038D01*
X186393331Y-58622631D01*
X186800075Y-58791110D01*
X187231872Y-58877000D01*
X187672128Y-58877000D01*
X188103925Y-58791110D01*
X188510669Y-58622631D01*
X188876729Y-58378038D01*
X189188038Y-58066729D01*
X189432631Y-57700669D01*
X189601110Y-57293925D01*
X189687000Y-56862128D01*
X189687000Y-56421872D01*
X189601110Y-55990075D01*
X189432631Y-55583331D01*
X189188038Y-55217271D01*
X188876729Y-54905962D01*
X188510669Y-54661369D01*
X188103925Y-54492890D01*
X187672128Y-54407000D01*
X187231872Y-54407000D01*
X186800075Y-54492890D01*
X186393331Y-54661369D01*
X186027271Y-54905962D01*
X185715962Y-55217271D01*
X185471369Y-55583331D01*
X185302890Y-55990075D01*
X185217000Y-56421872D01*
X179048977Y-56421872D01*
X179043185Y-56414815D01*
X178946494Y-56335463D01*
X178836180Y-56276498D01*
X178716482Y-56240188D01*
X178592000Y-56227928D01*
X175992000Y-56227928D01*
X175867518Y-56240188D01*
X175747820Y-56276498D01*
X175637506Y-56335463D01*
X175540815Y-56414815D01*
X175461463Y-56511506D01*
X175402498Y-56621820D01*
X175366188Y-56741518D01*
X175353928Y-56866000D01*
X173728504Y-56866000D01*
X173525491Y-56662987D01*
X173208566Y-56451225D01*
X172856419Y-56305361D01*
X172482581Y-56231000D01*
X172101419Y-56231000D01*
X171727581Y-56305361D01*
X171375434Y-56451225D01*
X171058509Y-56662987D01*
X170788987Y-56932509D01*
X170577225Y-57249434D01*
X170431361Y-57601581D01*
X170357000Y-57975419D01*
X169227000Y-57975419D01*
X169152639Y-57601581D01*
X169006775Y-57249434D01*
X168795013Y-56932509D01*
X168525491Y-56662987D01*
X168208566Y-56451225D01*
X167856419Y-56305361D01*
X167482581Y-56231000D01*
X167101419Y-56231000D01*
X166727581Y-56305361D01*
X166375434Y-56451225D01*
X166058509Y-56662987D01*
X165788987Y-56932509D01*
X165577225Y-57249434D01*
X165431361Y-57601581D01*
X165357000Y-57975419D01*
X164227000Y-57975419D01*
X164152639Y-57601581D01*
X164006775Y-57249434D01*
X163795013Y-56932509D01*
X163525491Y-56662987D01*
X163208566Y-56451225D01*
X162856419Y-56305361D01*
X162482581Y-56231000D01*
X162101419Y-56231000D01*
X161727581Y-56305361D01*
X161375434Y-56451225D01*
X161058509Y-56662987D01*
X160788987Y-56932509D01*
X160577225Y-57249434D01*
X160431361Y-57601581D01*
X160357000Y-57975419D01*
X84093049Y-57975419D01*
X84276631Y-57700669D01*
X84445110Y-57293925D01*
X84531000Y-56862128D01*
X84531000Y-56421872D01*
X84445110Y-55990075D01*
X84276631Y-55583331D01*
X84032038Y-55217271D01*
X83720729Y-54905962D01*
X83354669Y-54661369D01*
X82947925Y-54492890D01*
X82516128Y-54407000D01*
X82075872Y-54407000D01*
X81644075Y-54492890D01*
X81237331Y-54661369D01*
X80871271Y-54905962D01*
X80559962Y-55217271D01*
X80315369Y-55583331D01*
X80146890Y-55990075D01*
X80061000Y-56421872D01*
X79400000Y-56421872D01*
X79400000Y-53746000D01*
X190348000Y-53746000D01*
X190348001Y-127102000D01*
G04 #@! TA.AperFunction,Conductor*
D28*
G36*
X190348001Y-127102000D02*
G01*
X79400000Y-127102000D01*
X79400000Y-123985872D01*
X80061000Y-123985872D01*
X80061000Y-124426128D01*
X80146890Y-124857925D01*
X80315369Y-125264669D01*
X80559962Y-125630729D01*
X80871271Y-125942038D01*
X81237331Y-126186631D01*
X81644075Y-126355110D01*
X82075872Y-126441000D01*
X82516128Y-126441000D01*
X82947925Y-126355110D01*
X83354669Y-126186631D01*
X83720729Y-125942038D01*
X84032038Y-125630729D01*
X84276631Y-125264669D01*
X84445110Y-124857925D01*
X84531000Y-124426128D01*
X84531000Y-123985872D01*
X84445110Y-123554075D01*
X84276631Y-123147331D01*
X84032038Y-122781271D01*
X83720729Y-122469962D01*
X83354669Y-122225369D01*
X82947925Y-122056890D01*
X82516128Y-121971000D01*
X82075872Y-121971000D01*
X81644075Y-122056890D01*
X81237331Y-122225369D01*
X80871271Y-122469962D01*
X80559962Y-122781271D01*
X80315369Y-123147331D01*
X80146890Y-123554075D01*
X80061000Y-123985872D01*
X79400000Y-123985872D01*
X79400000Y-121382000D01*
X160367928Y-121382000D01*
X160367928Y-123982000D01*
X160380188Y-124106482D01*
X160416498Y-124226180D01*
X160475463Y-124336494D01*
X160554815Y-124433185D01*
X160651506Y-124512537D01*
X160761820Y-124571502D01*
X160881518Y-124607812D01*
X161006000Y-124620072D01*
X163606000Y-124620072D01*
X163730482Y-124607812D01*
X163850180Y-124571502D01*
X163960494Y-124512537D01*
X164057185Y-124433185D01*
X164136537Y-124336494D01*
X164195502Y-124226180D01*
X164231812Y-124106482D01*
X164244072Y-123982000D01*
X164244072Y-122491419D01*
X165371000Y-122491419D01*
X165371000Y-122872581D01*
X165445361Y-123246419D01*
X165591225Y-123598566D01*
X165802987Y-123915491D01*
X166072509Y-124185013D01*
X166389434Y-124396775D01*
X166741581Y-124542639D01*
X167115419Y-124617000D01*
X167496581Y-124617000D01*
X167870419Y-124542639D01*
X168222566Y-124396775D01*
X168539491Y-124185013D01*
X168809013Y-123915491D01*
X169020775Y-123598566D01*
X169166639Y-123246419D01*
X169241000Y-122872581D01*
X169241000Y-122491419D01*
X170371000Y-122491419D01*
X170371000Y-122872581D01*
X170445361Y-123246419D01*
X170591225Y-123598566D01*
X170802987Y-123915491D01*
X171072509Y-124185013D01*
X171389434Y-124396775D01*
X171741581Y-124542639D01*
X172115419Y-124617000D01*
X172496581Y-124617000D01*
X172870419Y-124542639D01*
X173222566Y-124396775D01*
X173539491Y-124185013D01*
X173809013Y-123915491D01*
X174020775Y-123598566D01*
X174166639Y-123246419D01*
X174241000Y-122872581D01*
X174241000Y-122491419D01*
X175371000Y-122491419D01*
X175371000Y-122872581D01*
X175445361Y-123246419D01*
X175591225Y-123598566D01*
X175802987Y-123915491D01*
X176072509Y-124185013D01*
X176389434Y-124396775D01*
X176741581Y-124542639D01*
X177115419Y-124617000D01*
X177496581Y-124617000D01*
X177870419Y-124542639D01*
X178222566Y-124396775D01*
X178539491Y-124185013D01*
X178738632Y-123985872D01*
X185217000Y-123985872D01*
X185217000Y-124426128D01*
X185302890Y-124857925D01*
X185471369Y-125264669D01*
X185715962Y-125630729D01*
X186027271Y-125942038D01*
X186393331Y-126186631D01*
X186800075Y-126355110D01*
X187231872Y-126441000D01*
X187672128Y-126441000D01*
X188103925Y-126355110D01*
X188510669Y-126186631D01*
X188876729Y-125942038D01*
X189188038Y-125630729D01*
X189432631Y-125264669D01*
X189601110Y-124857925D01*
X189687000Y-124426128D01*
X189687000Y-123985872D01*
X189601110Y-123554075D01*
X189432631Y-123147331D01*
X189188038Y-122781271D01*
X188876729Y-122469962D01*
X188510669Y-122225369D01*
X188103925Y-122056890D01*
X187672128Y-121971000D01*
X187231872Y-121971000D01*
X186800075Y-122056890D01*
X186393331Y-122225369D01*
X186027271Y-122469962D01*
X185715962Y-122781271D01*
X185471369Y-123147331D01*
X185302890Y-123554075D01*
X185217000Y-123985872D01*
X178738632Y-123985872D01*
X178809013Y-123915491D01*
X179020775Y-123598566D01*
X179166639Y-123246419D01*
X179241000Y-122872581D01*
X179241000Y-122491419D01*
X179166639Y-122117581D01*
X179020775Y-121765434D01*
X178809013Y-121448509D01*
X178539491Y-121178987D01*
X178222566Y-120967225D01*
X177870419Y-120821361D01*
X177496581Y-120747000D01*
X177115419Y-120747000D01*
X176741581Y-120821361D01*
X176389434Y-120967225D01*
X176072509Y-121178987D01*
X175802987Y-121448509D01*
X175591225Y-121765434D01*
X175445361Y-122117581D01*
X175371000Y-122491419D01*
X174241000Y-122491419D01*
X174166639Y-122117581D01*
X174020775Y-121765434D01*
X173809013Y-121448509D01*
X173539491Y-121178987D01*
X173222566Y-120967225D01*
X172870419Y-120821361D01*
X172496581Y-120747000D01*
X172115419Y-120747000D01*
X171741581Y-120821361D01*
X171389434Y-120967225D01*
X171072509Y-121178987D01*
X170802987Y-121448509D01*
X170591225Y-121765434D01*
X170445361Y-122117581D01*
X170371000Y-122491419D01*
X169241000Y-122491419D01*
X169166639Y-122117581D01*
X169020775Y-121765434D01*
X168809013Y-121448509D01*
X168539491Y-121178987D01*
X168222566Y-120967225D01*
X167870419Y-120821361D01*
X167496581Y-120747000D01*
X167115419Y-120747000D01*
X166741581Y-120821361D01*
X166389434Y-120967225D01*
X166072509Y-121178987D01*
X165802987Y-121448509D01*
X165591225Y-121765434D01*
X165445361Y-122117581D01*
X165371000Y-122491419D01*
X164244072Y-122491419D01*
X164244072Y-121382000D01*
X164231812Y-121257518D01*
X164195502Y-121137820D01*
X164136537Y-121027506D01*
X164057185Y-120930815D01*
X163960494Y-120851463D01*
X163850180Y-120792498D01*
X163730482Y-120756188D01*
X163606000Y-120743928D01*
X161006000Y-120743928D01*
X160881518Y-120756188D01*
X160761820Y-120792498D01*
X160651506Y-120851463D01*
X160554815Y-120930815D01*
X160475463Y-121027506D01*
X160416498Y-121137820D01*
X160380188Y-121257518D01*
X160367928Y-121382000D01*
X79400000Y-121382000D01*
X79400000Y-119387980D01*
X83483626Y-119387980D01*
X83603514Y-119672836D01*
X83927210Y-119833699D01*
X84276069Y-119928322D01*
X84636684Y-119953067D01*
X84995198Y-119906985D01*
X85337833Y-119791846D01*
X85560486Y-119672836D01*
X85680374Y-119387980D01*
X84582000Y-118289605D01*
X83483626Y-119387980D01*
X79400000Y-119387980D01*
X79400000Y-118164684D01*
X82738933Y-118164684D01*
X82785015Y-118523198D01*
X82900154Y-118865833D01*
X83019164Y-119088486D01*
X83304020Y-119208374D01*
X84402395Y-118110000D01*
X84761605Y-118110000D01*
X85859980Y-119208374D01*
X86144836Y-119088486D01*
X86305699Y-118764790D01*
X86400322Y-118415931D01*
X86425067Y-118055316D01*
X86378985Y-117696802D01*
X86263846Y-117354167D01*
X86144836Y-117131514D01*
X85859980Y-117011626D01*
X84761605Y-118110000D01*
X84402395Y-118110000D01*
X83304020Y-117011626D01*
X83019164Y-117131514D01*
X82858301Y-117455210D01*
X82763678Y-117804069D01*
X82738933Y-118164684D01*
X79400000Y-118164684D01*
X79400000Y-116832020D01*
X83483626Y-116832020D01*
X84582000Y-117930395D01*
X85515394Y-116997000D01*
X183989928Y-116997000D01*
X184002188Y-117121482D01*
X184038498Y-117241180D01*
X184097463Y-117351494D01*
X184176815Y-117448185D01*
X184273506Y-117527537D01*
X184383820Y-117586502D01*
X184503518Y-117622812D01*
X184628000Y-117635072D01*
X185642250Y-117632000D01*
X185801000Y-117473250D01*
X185801000Y-115824000D01*
X186055000Y-115824000D01*
X186055000Y-117473250D01*
X186213750Y-117632000D01*
X187228000Y-117635072D01*
X187352482Y-117622812D01*
X187472180Y-117586502D01*
X187582494Y-117527537D01*
X187679185Y-117448185D01*
X187758537Y-117351494D01*
X187817502Y-117241180D01*
X187853812Y-117121482D01*
X187866072Y-116997000D01*
X187863000Y-115982750D01*
X187704250Y-115824000D01*
X186055000Y-115824000D01*
X185801000Y-115824000D01*
X184151750Y-115824000D01*
X183993000Y-115982750D01*
X183989928Y-116997000D01*
X85515394Y-116997000D01*
X85680374Y-116832020D01*
X85560486Y-116547164D01*
X85236790Y-116386301D01*
X84887931Y-116291678D01*
X84527316Y-116266933D01*
X84168802Y-116313015D01*
X83826167Y-116428154D01*
X83603514Y-116547164D01*
X83483626Y-116832020D01*
X79400000Y-116832020D01*
X79400000Y-113118475D01*
X103283000Y-113118475D01*
X103283000Y-113637525D01*
X103384261Y-114146601D01*
X103582893Y-114626141D01*
X103871262Y-115057715D01*
X104238285Y-115424738D01*
X104669859Y-115713107D01*
X105149399Y-115911739D01*
X105658475Y-116013000D01*
X106177525Y-116013000D01*
X106686601Y-115911739D01*
X107166141Y-115713107D01*
X107597715Y-115424738D01*
X107964738Y-115057715D01*
X108253107Y-114626141D01*
X108451739Y-114146601D01*
X108553000Y-113637525D01*
X108553000Y-113118475D01*
X139097000Y-113118475D01*
X139097000Y-113637525D01*
X139198261Y-114146601D01*
X139396893Y-114626141D01*
X139685262Y-115057715D01*
X140052285Y-115424738D01*
X140483859Y-115713107D01*
X140963399Y-115911739D01*
X141472475Y-116013000D01*
X141991525Y-116013000D01*
X142500601Y-115911739D01*
X142980141Y-115713107D01*
X143411715Y-115424738D01*
X143778738Y-115057715D01*
X144067107Y-114626141D01*
X144162020Y-114397000D01*
X183989928Y-114397000D01*
X183993000Y-115411250D01*
X184151750Y-115570000D01*
X185801000Y-115570000D01*
X185801000Y-113920750D01*
X186055000Y-113920750D01*
X186055000Y-115570000D01*
X187704250Y-115570000D01*
X187863000Y-115411250D01*
X187866072Y-114397000D01*
X187853812Y-114272518D01*
X187817502Y-114152820D01*
X187758537Y-114042506D01*
X187679185Y-113945815D01*
X187582494Y-113866463D01*
X187472180Y-113807498D01*
X187352482Y-113771188D01*
X187228000Y-113758928D01*
X186213750Y-113762000D01*
X186055000Y-113920750D01*
X185801000Y-113920750D01*
X185642250Y-113762000D01*
X184628000Y-113758928D01*
X184503518Y-113771188D01*
X184383820Y-113807498D01*
X184273506Y-113866463D01*
X184176815Y-113945815D01*
X184097463Y-114042506D01*
X184038498Y-114152820D01*
X184002188Y-114272518D01*
X183989928Y-114397000D01*
X144162020Y-114397000D01*
X144265739Y-114146601D01*
X144367000Y-113637525D01*
X144367000Y-113118475D01*
X144265739Y-112609399D01*
X144067107Y-112129859D01*
X144011224Y-112046224D01*
X184758381Y-112046224D01*
X184890317Y-112341312D01*
X185231045Y-112512159D01*
X185598557Y-112613250D01*
X185978729Y-112640701D01*
X186356951Y-112593457D01*
X186718690Y-112473333D01*
X186965683Y-112341312D01*
X187097619Y-112046224D01*
X185928000Y-110876605D01*
X184758381Y-112046224D01*
X144011224Y-112046224D01*
X143778738Y-111698285D01*
X143411715Y-111331262D01*
X142980141Y-111042893D01*
X142500601Y-110844261D01*
X141991525Y-110743000D01*
X141472475Y-110743000D01*
X140963399Y-110844261D01*
X140483859Y-111042893D01*
X140052285Y-111331262D01*
X139685262Y-111698285D01*
X139396893Y-112129859D01*
X139198261Y-112609399D01*
X139097000Y-113118475D01*
X108553000Y-113118475D01*
X108451739Y-112609399D01*
X108253107Y-112129859D01*
X107964738Y-111698285D01*
X107597715Y-111331262D01*
X107166141Y-111042893D01*
X106686601Y-110844261D01*
X106177525Y-110743000D01*
X105658475Y-110743000D01*
X105149399Y-110844261D01*
X104669859Y-111042893D01*
X104238285Y-111331262D01*
X103871262Y-111698285D01*
X103582893Y-112129859D01*
X103384261Y-112609399D01*
X103283000Y-113118475D01*
X79400000Y-113118475D01*
X79400000Y-105378000D01*
X103279928Y-105378000D01*
X103292188Y-105502482D01*
X103328498Y-105622180D01*
X103387463Y-105732494D01*
X103466815Y-105829185D01*
X103563506Y-105908537D01*
X103673820Y-105967502D01*
X103793518Y-106003812D01*
X103918000Y-106016072D01*
X105632250Y-106013000D01*
X105791000Y-105854250D01*
X105791000Y-103505000D01*
X106045000Y-103505000D01*
X106045000Y-105854250D01*
X106203750Y-106013000D01*
X107918000Y-106016072D01*
X108042482Y-106003812D01*
X108162180Y-105967502D01*
X108272494Y-105908537D01*
X108369185Y-105829185D01*
X108448537Y-105732494D01*
X108507502Y-105622180D01*
X108543812Y-105502482D01*
X108556072Y-105378000D01*
X139093928Y-105378000D01*
X139106188Y-105502482D01*
X139142498Y-105622180D01*
X139201463Y-105732494D01*
X139280815Y-105829185D01*
X139377506Y-105908537D01*
X139487820Y-105967502D01*
X139607518Y-106003812D01*
X139732000Y-106016072D01*
X141446250Y-106013000D01*
X141605000Y-105854250D01*
X141605000Y-103505000D01*
X141859000Y-103505000D01*
X141859000Y-105854250D01*
X142017750Y-106013000D01*
X143732000Y-106016072D01*
X143856482Y-106003812D01*
X143976180Y-105967502D01*
X144086494Y-105908537D01*
X144183185Y-105829185D01*
X144262537Y-105732494D01*
X144321502Y-105622180D01*
X144357812Y-105502482D01*
X144370072Y-105378000D01*
X144367000Y-103663750D01*
X144208250Y-103505000D01*
X141859000Y-103505000D01*
X141605000Y-103505000D01*
X139255750Y-103505000D01*
X139097000Y-103663750D01*
X139093928Y-105378000D01*
X108556072Y-105378000D01*
X108553000Y-103663750D01*
X108394250Y-103505000D01*
X106045000Y-103505000D01*
X105791000Y-103505000D01*
X103441750Y-103505000D01*
X103283000Y-103663750D01*
X103279928Y-105378000D01*
X79400000Y-105378000D01*
X79400000Y-102689268D01*
X82747000Y-102689268D01*
X82747000Y-103050732D01*
X82817518Y-103405250D01*
X82955844Y-103739199D01*
X83156662Y-104039744D01*
X83412256Y-104295338D01*
X83712801Y-104496156D01*
X84046750Y-104634482D01*
X84401268Y-104705000D01*
X84762732Y-104705000D01*
X85117250Y-104634482D01*
X85451199Y-104496156D01*
X85751744Y-104295338D01*
X86007338Y-104039744D01*
X86208156Y-103739199D01*
X86346482Y-103405250D01*
X86417000Y-103050732D01*
X86417000Y-102689268D01*
X86346482Y-102334750D01*
X86208156Y-102000801D01*
X86007338Y-101700256D01*
X85751744Y-101444662D01*
X85651978Y-101378000D01*
X103279928Y-101378000D01*
X103283000Y-103092250D01*
X103441750Y-103251000D01*
X105791000Y-103251000D01*
X105791000Y-100901750D01*
X106045000Y-100901750D01*
X106045000Y-103251000D01*
X108394250Y-103251000D01*
X108553000Y-103092250D01*
X108556072Y-101378000D01*
X139093928Y-101378000D01*
X139097000Y-103092250D01*
X139255750Y-103251000D01*
X141605000Y-103251000D01*
X141605000Y-100901750D01*
X141859000Y-100901750D01*
X141859000Y-103251000D01*
X144208250Y-103251000D01*
X144367000Y-103092250D01*
X144370072Y-101378000D01*
X144357812Y-101253518D01*
X144321502Y-101133820D01*
X144262537Y-101023506D01*
X144183185Y-100926815D01*
X144086494Y-100847463D01*
X143976180Y-100788498D01*
X143856482Y-100752188D01*
X143732000Y-100739928D01*
X142017750Y-100743000D01*
X141859000Y-100901750D01*
X141605000Y-100901750D01*
X141446250Y-100743000D01*
X139732000Y-100739928D01*
X139607518Y-100752188D01*
X139487820Y-100788498D01*
X139377506Y-100847463D01*
X139280815Y-100926815D01*
X139201463Y-101023506D01*
X139142498Y-101133820D01*
X139106188Y-101253518D01*
X139093928Y-101378000D01*
X108556072Y-101378000D01*
X108543812Y-101253518D01*
X108507502Y-101133820D01*
X108448537Y-101023506D01*
X108369185Y-100926815D01*
X108272494Y-100847463D01*
X108162180Y-100788498D01*
X108042482Y-100752188D01*
X107918000Y-100739928D01*
X106203750Y-100743000D01*
X106045000Y-100901750D01*
X105791000Y-100901750D01*
X105632250Y-100743000D01*
X103918000Y-100739928D01*
X103793518Y-100752188D01*
X103673820Y-100788498D01*
X103563506Y-100847463D01*
X103466815Y-100926815D01*
X103387463Y-101023506D01*
X103328498Y-101133820D01*
X103292188Y-101253518D01*
X103279928Y-101378000D01*
X85651978Y-101378000D01*
X85451199Y-101243844D01*
X85117250Y-101105518D01*
X84762732Y-101035000D01*
X84401268Y-101035000D01*
X84046750Y-101105518D01*
X83712801Y-101243844D01*
X83412256Y-101444662D01*
X83156662Y-101700256D01*
X82955844Y-102000801D01*
X82817518Y-102334750D01*
X82747000Y-102689268D01*
X79400000Y-102689268D01*
X79400000Y-97740419D01*
X81885000Y-97740419D01*
X81885000Y-98121581D01*
X81959361Y-98495419D01*
X82105225Y-98847566D01*
X82316987Y-99164491D01*
X82586509Y-99434013D01*
X82903434Y-99645775D01*
X83255581Y-99791639D01*
X83629419Y-99866000D01*
X84010581Y-99866000D01*
X84384419Y-99791639D01*
X84736566Y-99645775D01*
X85053491Y-99434013D01*
X85323013Y-99164491D01*
X85534775Y-98847566D01*
X85680639Y-98495419D01*
X85755000Y-98121581D01*
X85755000Y-97740419D01*
X85680639Y-97366581D01*
X85534775Y-97014434D01*
X85323013Y-96697509D01*
X85053491Y-96427987D01*
X84736566Y-96216225D01*
X84384419Y-96070361D01*
X84010581Y-95996000D01*
X83629419Y-95996000D01*
X83255581Y-96070361D01*
X82903434Y-96216225D01*
X82586509Y-96427987D01*
X82316987Y-96697509D01*
X82105225Y-97014434D01*
X81959361Y-97366581D01*
X81885000Y-97740419D01*
X79400000Y-97740419D01*
X79400000Y-94280224D01*
X82650381Y-94280224D01*
X82782317Y-94575312D01*
X83123045Y-94746159D01*
X83490557Y-94847250D01*
X83870729Y-94874701D01*
X84248951Y-94827457D01*
X84610690Y-94707333D01*
X84857683Y-94575312D01*
X84989619Y-94280224D01*
X83820000Y-93110605D01*
X82650381Y-94280224D01*
X79400000Y-94280224D01*
X79400000Y-92981729D01*
X81876299Y-92981729D01*
X81923543Y-93359951D01*
X82043667Y-93721690D01*
X82175688Y-93968683D01*
X82470776Y-94100619D01*
X83640395Y-92931000D01*
X83999605Y-92931000D01*
X85169224Y-94100619D01*
X85464312Y-93968683D01*
X85635159Y-93627955D01*
X85736250Y-93260443D01*
X85746038Y-93124881D01*
X126764724Y-93124881D01*
X127124912Y-93614548D01*
X127788882Y-93974849D01*
X128510385Y-94198694D01*
X129261695Y-94277480D01*
X130013938Y-94208178D01*
X130738208Y-93993452D01*
X131406670Y-93641555D01*
X131447088Y-93614548D01*
X131807276Y-93124881D01*
X129286000Y-90603605D01*
X126764724Y-93124881D01*
X85746038Y-93124881D01*
X85763701Y-92880271D01*
X85716457Y-92502049D01*
X85596333Y-92140310D01*
X85464312Y-91893317D01*
X85169224Y-91761381D01*
X83999605Y-92931000D01*
X83640395Y-92931000D01*
X82470776Y-91761381D01*
X82175688Y-91893317D01*
X82004841Y-92234045D01*
X81903750Y-92601557D01*
X81876299Y-92981729D01*
X79400000Y-92981729D01*
X79400000Y-91581776D01*
X82650381Y-91581776D01*
X83820000Y-92751395D01*
X84989619Y-91581776D01*
X84857683Y-91286688D01*
X84516955Y-91115841D01*
X84149443Y-91014750D01*
X83769271Y-90987299D01*
X83391049Y-91034543D01*
X83029310Y-91154667D01*
X82782317Y-91286688D01*
X82650381Y-91581776D01*
X79400000Y-91581776D01*
X79400000Y-90399695D01*
X125432520Y-90399695D01*
X125501822Y-91151938D01*
X125716548Y-91876208D01*
X126068445Y-92544670D01*
X126095452Y-92585088D01*
X126585119Y-92945276D01*
X129106395Y-90424000D01*
X129465605Y-90424000D01*
X131986881Y-92945276D01*
X132476548Y-92585088D01*
X132836849Y-91921118D01*
X133060694Y-91199615D01*
X133139480Y-90448305D01*
X133117342Y-90208000D01*
X163915928Y-90208000D01*
X163928188Y-90332482D01*
X163964498Y-90452180D01*
X164023463Y-90562494D01*
X164102815Y-90659185D01*
X164119393Y-90672790D01*
X164082320Y-90728273D01*
X163974147Y-90989426D01*
X163919000Y-91266665D01*
X163919000Y-91549335D01*
X163974147Y-91826574D01*
X164082320Y-92087727D01*
X164239363Y-92322759D01*
X164439241Y-92522637D01*
X164674273Y-92679680D01*
X164935426Y-92787853D01*
X165212665Y-92843000D01*
X165495335Y-92843000D01*
X165677886Y-92806688D01*
X166242001Y-93370803D01*
X166242001Y-93574661D01*
X166133614Y-93632595D01*
X165999038Y-93743038D01*
X165888595Y-93877614D01*
X165806528Y-94031150D01*
X165755992Y-94197746D01*
X165738928Y-94371000D01*
X165738928Y-95621000D01*
X165755992Y-95794254D01*
X165806528Y-95960850D01*
X165888595Y-96114386D01*
X165999038Y-96248962D01*
X166019799Y-96266000D01*
X165999038Y-96283038D01*
X165888595Y-96417614D01*
X165806528Y-96571150D01*
X165755992Y-96737746D01*
X165738928Y-96911000D01*
X165738928Y-98161000D01*
X165755992Y-98334254D01*
X165806528Y-98500850D01*
X165888595Y-98654386D01*
X165999038Y-98788962D01*
X166133614Y-98899405D01*
X166220652Y-98945928D01*
X164909500Y-98945928D01*
X164785018Y-98958188D01*
X164665320Y-98994498D01*
X164555006Y-99053463D01*
X164458315Y-99132815D01*
X164378963Y-99229506D01*
X164319998Y-99339820D01*
X164283688Y-99459518D01*
X164271428Y-99584000D01*
X164271428Y-101584000D01*
X164283688Y-101708482D01*
X164319998Y-101828180D01*
X164378963Y-101938494D01*
X164458315Y-102035185D01*
X164555006Y-102114537D01*
X164589298Y-102132867D01*
X164576463Y-102148506D01*
X164517498Y-102258820D01*
X164481188Y-102378518D01*
X164468928Y-102503000D01*
X164472000Y-103092250D01*
X164630750Y-103251000D01*
X165605000Y-103251000D01*
X165605000Y-103231000D01*
X165859000Y-103231000D01*
X165859000Y-103251000D01*
X165879000Y-103251000D01*
X165879000Y-103505000D01*
X165859000Y-103505000D01*
X165859000Y-103525000D01*
X165605000Y-103525000D01*
X165605000Y-103505000D01*
X164630750Y-103505000D01*
X164472000Y-103663750D01*
X164468928Y-104253000D01*
X164481188Y-104377482D01*
X164517498Y-104497180D01*
X164518724Y-104499473D01*
X164316002Y-104702195D01*
X164286998Y-104725998D01*
X164231870Y-104793173D01*
X164192025Y-104841723D01*
X164134588Y-104949180D01*
X164121453Y-104973753D01*
X164077996Y-105117014D01*
X164066999Y-105228667D01*
X164066999Y-105228677D01*
X164063323Y-105265999D01*
X164066999Y-105303322D01*
X164067000Y-108909667D01*
X164063323Y-108946999D01*
X164067000Y-108984332D01*
X164077701Y-109092974D01*
X164077997Y-109095984D01*
X164121453Y-109239245D01*
X164192025Y-109371275D01*
X164263200Y-109458001D01*
X164286999Y-109487000D01*
X164315997Y-109510798D01*
X164513928Y-109708729D01*
X164513928Y-111136000D01*
X164526188Y-111260482D01*
X164562498Y-111380180D01*
X164621463Y-111490494D01*
X164700815Y-111587185D01*
X164797506Y-111666537D01*
X164907820Y-111725502D01*
X165027518Y-111761812D01*
X165152000Y-111774072D01*
X167652000Y-111774072D01*
X167776482Y-111761812D01*
X167896180Y-111725502D01*
X168006494Y-111666537D01*
X168103185Y-111587185D01*
X168182537Y-111490494D01*
X168241502Y-111380180D01*
X168277812Y-111260482D01*
X168290072Y-111136000D01*
X168290072Y-109420873D01*
X168513928Y-109644729D01*
X168513928Y-111136000D01*
X168526188Y-111260482D01*
X168562498Y-111380180D01*
X168621463Y-111490494D01*
X168700815Y-111587185D01*
X168797506Y-111666537D01*
X168907820Y-111725502D01*
X169027518Y-111761812D01*
X169152000Y-111774072D01*
X171652000Y-111774072D01*
X171776482Y-111761812D01*
X171896180Y-111725502D01*
X172006494Y-111666537D01*
X172103185Y-111587185D01*
X172182537Y-111490494D01*
X172241502Y-111380180D01*
X172277812Y-111260482D01*
X172290072Y-111136000D01*
X172290072Y-110747729D01*
X183984299Y-110747729D01*
X184031543Y-111125951D01*
X184151667Y-111487690D01*
X184283688Y-111734683D01*
X184578776Y-111866619D01*
X185748395Y-110697000D01*
X186107605Y-110697000D01*
X187277224Y-111866619D01*
X187572312Y-111734683D01*
X187743159Y-111393955D01*
X187844250Y-111026443D01*
X187871701Y-110646271D01*
X187824457Y-110268049D01*
X187704333Y-109906310D01*
X187572312Y-109659317D01*
X187277224Y-109527381D01*
X186107605Y-110697000D01*
X185748395Y-110697000D01*
X184578776Y-109527381D01*
X184283688Y-109659317D01*
X184112841Y-110000045D01*
X184011750Y-110367557D01*
X183984299Y-110747729D01*
X172290072Y-110747729D01*
X172290072Y-109708730D01*
X172488004Y-109510798D01*
X172517002Y-109487000D01*
X172611975Y-109371275D01*
X172624535Y-109347776D01*
X184758381Y-109347776D01*
X185928000Y-110517395D01*
X187097619Y-109347776D01*
X186965683Y-109052688D01*
X186624955Y-108881841D01*
X186257443Y-108780750D01*
X185877271Y-108753299D01*
X185499049Y-108800543D01*
X185137310Y-108920667D01*
X184890317Y-109052688D01*
X184758381Y-109347776D01*
X172624535Y-109347776D01*
X172682547Y-109239246D01*
X172726004Y-109095985D01*
X172737001Y-108984332D01*
X172737001Y-108984324D01*
X172740677Y-108946999D01*
X172737001Y-108909674D01*
X172737001Y-104958323D01*
X172740677Y-104921000D01*
X172737001Y-104883677D01*
X172737001Y-104883668D01*
X172726004Y-104772015D01*
X172682547Y-104628754D01*
X172611975Y-104496725D01*
X172558591Y-104431676D01*
X172540800Y-104409997D01*
X172540796Y-104409993D01*
X172517002Y-104381000D01*
X172488010Y-104357207D01*
X171702000Y-103571199D01*
X171702000Y-102305000D01*
X184597928Y-102305000D01*
X184597928Y-104705000D01*
X184610188Y-104829482D01*
X184646498Y-104949180D01*
X184705463Y-105059494D01*
X184784815Y-105156185D01*
X184881506Y-105235537D01*
X184991820Y-105294502D01*
X185111518Y-105330812D01*
X185236000Y-105343072D01*
X187636000Y-105343072D01*
X187760482Y-105330812D01*
X187880180Y-105294502D01*
X187990494Y-105235537D01*
X188087185Y-105156185D01*
X188166537Y-105059494D01*
X188225502Y-104949180D01*
X188261812Y-104829482D01*
X188274072Y-104705000D01*
X188274072Y-102305000D01*
X188261812Y-102180518D01*
X188225502Y-102060820D01*
X188166537Y-101950506D01*
X188087185Y-101853815D01*
X187990494Y-101774463D01*
X187880180Y-101715498D01*
X187760482Y-101679188D01*
X187636000Y-101666928D01*
X187218838Y-101666928D01*
X187305199Y-101631156D01*
X187605744Y-101430338D01*
X187861338Y-101174744D01*
X188062156Y-100874199D01*
X188200482Y-100540250D01*
X188271000Y-100185732D01*
X188271000Y-99824268D01*
X188200482Y-99469750D01*
X188062156Y-99135801D01*
X187861338Y-98835256D01*
X187605744Y-98579662D01*
X187305199Y-98378844D01*
X187006213Y-98255000D01*
X187305199Y-98131156D01*
X187605744Y-97930338D01*
X187861338Y-97674744D01*
X188062156Y-97374199D01*
X188200482Y-97040250D01*
X188271000Y-96685732D01*
X188271000Y-96324268D01*
X188200482Y-95969750D01*
X188062156Y-95635801D01*
X187861338Y-95335256D01*
X187605744Y-95079662D01*
X187305199Y-94878844D01*
X187006213Y-94755000D01*
X187305199Y-94631156D01*
X187605744Y-94430338D01*
X187861338Y-94174744D01*
X188062156Y-93874199D01*
X188200482Y-93540250D01*
X188271000Y-93185732D01*
X188271000Y-92824268D01*
X188200482Y-92469750D01*
X188062156Y-92135801D01*
X187861338Y-91835256D01*
X187605744Y-91579662D01*
X187305199Y-91378844D01*
X186971250Y-91240518D01*
X186616732Y-91170000D01*
X186255268Y-91170000D01*
X185900750Y-91240518D01*
X185566801Y-91378844D01*
X185266256Y-91579662D01*
X185010662Y-91835256D01*
X184809844Y-92135801D01*
X184671518Y-92469750D01*
X184601000Y-92824268D01*
X184601000Y-93185732D01*
X184671518Y-93540250D01*
X184809844Y-93874199D01*
X185010662Y-94174744D01*
X185266256Y-94430338D01*
X185566801Y-94631156D01*
X185865787Y-94755000D01*
X185566801Y-94878844D01*
X185266256Y-95079662D01*
X185010662Y-95335256D01*
X184809844Y-95635801D01*
X184671518Y-95969750D01*
X184601000Y-96324268D01*
X184601000Y-96685732D01*
X184671518Y-97040250D01*
X184809844Y-97374199D01*
X185010662Y-97674744D01*
X185266256Y-97930338D01*
X185566801Y-98131156D01*
X185865787Y-98255000D01*
X185566801Y-98378844D01*
X185266256Y-98579662D01*
X185010662Y-98835256D01*
X184809844Y-99135801D01*
X184671518Y-99469750D01*
X184601000Y-99824268D01*
X184601000Y-100185732D01*
X184671518Y-100540250D01*
X184809844Y-100874199D01*
X185010662Y-101174744D01*
X185266256Y-101430338D01*
X185566801Y-101631156D01*
X185653162Y-101666928D01*
X185236000Y-101666928D01*
X185111518Y-101679188D01*
X184991820Y-101715498D01*
X184881506Y-101774463D01*
X184784815Y-101853815D01*
X184705463Y-101950506D01*
X184646498Y-102060820D01*
X184610188Y-102180518D01*
X184597928Y-102305000D01*
X171702000Y-102305000D01*
X171702000Y-102025319D01*
X171828235Y-101957845D01*
X172069963Y-101759463D01*
X172268345Y-101517734D01*
X172415755Y-101241948D01*
X172506530Y-100942703D01*
X172529500Y-100709485D01*
X172529500Y-100458514D01*
X172506530Y-100225296D01*
X172415755Y-99926051D01*
X172268345Y-99650265D01*
X172069963Y-99408537D01*
X171828234Y-99210155D01*
X171552448Y-99062745D01*
X171253203Y-98971970D01*
X170942000Y-98941319D01*
X170630796Y-98971970D01*
X170562000Y-98992839D01*
X170562000Y-98957339D01*
X170670386Y-98899405D01*
X170804962Y-98788962D01*
X170915405Y-98654386D01*
X170997472Y-98500850D01*
X171048008Y-98334254D01*
X171065072Y-98161000D01*
X171065072Y-96911000D01*
X171048008Y-96737746D01*
X170997472Y-96571150D01*
X170915405Y-96417614D01*
X170853628Y-96342338D01*
X170878185Y-96322185D01*
X170957537Y-96225494D01*
X171016502Y-96115180D01*
X171052812Y-95995482D01*
X171065072Y-95871000D01*
X171062000Y-95281750D01*
X170903250Y-95123000D01*
X169929000Y-95123000D01*
X169929000Y-95143000D01*
X169675000Y-95143000D01*
X169675000Y-95123000D01*
X168700750Y-95123000D01*
X168542000Y-95281750D01*
X168538928Y-95871000D01*
X168551188Y-95995482D01*
X168587498Y-96115180D01*
X168646463Y-96225494D01*
X168725815Y-96322185D01*
X168750372Y-96342338D01*
X168688595Y-96417614D01*
X168606528Y-96571150D01*
X168555992Y-96737746D01*
X168538928Y-96911000D01*
X168538928Y-98161000D01*
X168555992Y-98334254D01*
X168606528Y-98500850D01*
X168688595Y-98654386D01*
X168799038Y-98788962D01*
X168933614Y-98899405D01*
X169042001Y-98957339D01*
X169042001Y-99078541D01*
X169012448Y-99062745D01*
X168713203Y-98971970D01*
X168402000Y-98941319D01*
X168090796Y-98971970D01*
X167791551Y-99062745D01*
X167762000Y-99078540D01*
X167762000Y-98957339D01*
X167870386Y-98899405D01*
X168004962Y-98788962D01*
X168115405Y-98654386D01*
X168197472Y-98500850D01*
X168248008Y-98334254D01*
X168265072Y-98161000D01*
X168265072Y-96911000D01*
X168248008Y-96737746D01*
X168197472Y-96571150D01*
X168115405Y-96417614D01*
X168004962Y-96283038D01*
X167984201Y-96266000D01*
X168004962Y-96248962D01*
X168115405Y-96114386D01*
X168197472Y-95960850D01*
X168248008Y-95794254D01*
X168265072Y-95621000D01*
X168265072Y-94371000D01*
X168248008Y-94197746D01*
X168224728Y-94121000D01*
X168538928Y-94121000D01*
X168542000Y-94710250D01*
X168700750Y-94869000D01*
X169675000Y-94869000D01*
X169675000Y-93644750D01*
X169929000Y-93644750D01*
X169929000Y-94869000D01*
X170903250Y-94869000D01*
X171062000Y-94710250D01*
X171065072Y-94121000D01*
X171052812Y-93996518D01*
X171016502Y-93876820D01*
X170957537Y-93766506D01*
X170878185Y-93669815D01*
X170781494Y-93590463D01*
X170671180Y-93531498D01*
X170551482Y-93495188D01*
X170427000Y-93482928D01*
X170087750Y-93486000D01*
X169929000Y-93644750D01*
X169675000Y-93644750D01*
X169516250Y-93486000D01*
X169177000Y-93482928D01*
X169052518Y-93495188D01*
X168932820Y-93531498D01*
X168822506Y-93590463D01*
X168725815Y-93669815D01*
X168646463Y-93766506D01*
X168587498Y-93876820D01*
X168551188Y-93996518D01*
X168538928Y-94121000D01*
X168224728Y-94121000D01*
X168197472Y-94031150D01*
X168115405Y-93877614D01*
X168004962Y-93743038D01*
X167870386Y-93632595D01*
X167762000Y-93574661D01*
X167762000Y-93093323D01*
X167765676Y-93056000D01*
X167762000Y-93018677D01*
X167762000Y-93018667D01*
X167760359Y-93002000D01*
X177885928Y-93002000D01*
X177898188Y-93126482D01*
X177934498Y-93246180D01*
X177993463Y-93356494D01*
X178072815Y-93453185D01*
X178089393Y-93466790D01*
X178052320Y-93522273D01*
X177944147Y-93783426D01*
X177889000Y-94060665D01*
X177889000Y-94343335D01*
X177944147Y-94620574D01*
X178052320Y-94881727D01*
X178209363Y-95116759D01*
X178409241Y-95316637D01*
X178644273Y-95473680D01*
X178905426Y-95581853D01*
X179182665Y-95637000D01*
X179465335Y-95637000D01*
X179742574Y-95581853D01*
X180003727Y-95473680D01*
X180238759Y-95316637D01*
X180438637Y-95116759D01*
X180595680Y-94881727D01*
X180703853Y-94620574D01*
X180759000Y-94343335D01*
X180759000Y-94060665D01*
X180703853Y-93783426D01*
X180595680Y-93522273D01*
X180558607Y-93466790D01*
X180575185Y-93453185D01*
X180654537Y-93356494D01*
X180713502Y-93246180D01*
X180749812Y-93126482D01*
X180762072Y-93002000D01*
X180759000Y-92487750D01*
X180600250Y-92329000D01*
X179451000Y-92329000D01*
X179451000Y-92349000D01*
X179197000Y-92349000D01*
X179197000Y-92329000D01*
X178047750Y-92329000D01*
X177889000Y-92487750D01*
X177885928Y-93002000D01*
X167760359Y-93002000D01*
X167751003Y-92907014D01*
X167707546Y-92763753D01*
X167679671Y-92711603D01*
X167636974Y-92631723D01*
X167565799Y-92544997D01*
X167542001Y-92515999D01*
X167513003Y-92492201D01*
X167421504Y-92400702D01*
X170636903Y-92400702D01*
X170708486Y-92644671D01*
X170963996Y-92765571D01*
X171238184Y-92834300D01*
X171520512Y-92848217D01*
X171800130Y-92806787D01*
X172066292Y-92711603D01*
X172191514Y-92644671D01*
X172263097Y-92400702D01*
X171450000Y-91587605D01*
X170636903Y-92400702D01*
X167421504Y-92400702D01*
X166752688Y-91731886D01*
X166789000Y-91549335D01*
X166789000Y-91266665D01*
X166733853Y-90989426D01*
X166625680Y-90728273D01*
X166588607Y-90672790D01*
X166605185Y-90659185D01*
X166684537Y-90562494D01*
X166743502Y-90452180D01*
X166779812Y-90332482D01*
X166792072Y-90208000D01*
X166789000Y-89693750D01*
X166630250Y-89535000D01*
X165481000Y-89535000D01*
X165481000Y-89555000D01*
X165227000Y-89555000D01*
X165227000Y-89535000D01*
X164077750Y-89535000D01*
X163919000Y-89693750D01*
X163915928Y-90208000D01*
X133117342Y-90208000D01*
X133070178Y-89696062D01*
X132855452Y-88971792D01*
X132663942Y-88608000D01*
X163915928Y-88608000D01*
X163919000Y-89122250D01*
X164077750Y-89281000D01*
X165227000Y-89281000D01*
X165227000Y-88131750D01*
X165481000Y-88131750D01*
X165481000Y-89281000D01*
X166630250Y-89281000D01*
X166789000Y-89122250D01*
X166792072Y-88608000D01*
X166779812Y-88483518D01*
X166743502Y-88363820D01*
X166684537Y-88253506D01*
X166605185Y-88156815D01*
X166508494Y-88077463D01*
X166398180Y-88018498D01*
X166278482Y-87982188D01*
X166154000Y-87969928D01*
X165639750Y-87973000D01*
X165481000Y-88131750D01*
X165227000Y-88131750D01*
X165068250Y-87973000D01*
X164554000Y-87969928D01*
X164429518Y-87982188D01*
X164309820Y-88018498D01*
X164199506Y-88077463D01*
X164102815Y-88156815D01*
X164023463Y-88253506D01*
X163964498Y-88363820D01*
X163928188Y-88483518D01*
X163915928Y-88608000D01*
X132663942Y-88608000D01*
X132503555Y-88303330D01*
X132476548Y-88262912D01*
X131986881Y-87902724D01*
X129465605Y-90424000D01*
X129106395Y-90424000D01*
X126585119Y-87902724D01*
X126095452Y-88262912D01*
X125735151Y-88926882D01*
X125511306Y-89648385D01*
X125432520Y-90399695D01*
X79400000Y-90399695D01*
X79400000Y-89280224D01*
X82650381Y-89280224D01*
X82782317Y-89575312D01*
X83123045Y-89746159D01*
X83490557Y-89847250D01*
X83870729Y-89874701D01*
X84248951Y-89827457D01*
X84610690Y-89707333D01*
X84857683Y-89575312D01*
X84989619Y-89280224D01*
X83820000Y-88110605D01*
X82650381Y-89280224D01*
X79400000Y-89280224D01*
X79400000Y-87981729D01*
X81876299Y-87981729D01*
X81923543Y-88359951D01*
X82043667Y-88721690D01*
X82175688Y-88968683D01*
X82470776Y-89100619D01*
X83640395Y-87931000D01*
X83999605Y-87931000D01*
X85169224Y-89100619D01*
X85464312Y-88968683D01*
X85635159Y-88627955D01*
X85736250Y-88260443D01*
X85763701Y-87880271D01*
X85744072Y-87723119D01*
X126764724Y-87723119D01*
X129286000Y-90244395D01*
X131807276Y-87723119D01*
X131447088Y-87233452D01*
X130783118Y-86873151D01*
X130312041Y-86727000D01*
X165738928Y-86727000D01*
X165751188Y-86851482D01*
X165787498Y-86971180D01*
X165846463Y-87081494D01*
X165925815Y-87178185D01*
X166022506Y-87257537D01*
X166132820Y-87316502D01*
X166252518Y-87352812D01*
X166377000Y-87365072D01*
X166716250Y-87362000D01*
X166875000Y-87203250D01*
X166875000Y-85979000D01*
X167129000Y-85979000D01*
X167129000Y-87203250D01*
X167287750Y-87362000D01*
X167627000Y-87365072D01*
X167751482Y-87352812D01*
X167871180Y-87316502D01*
X167981494Y-87257537D01*
X168078185Y-87178185D01*
X168157537Y-87081494D01*
X168216502Y-86971180D01*
X168252812Y-86851482D01*
X168265072Y-86727000D01*
X168262000Y-86137750D01*
X168103250Y-85979000D01*
X167129000Y-85979000D01*
X166875000Y-85979000D01*
X165900750Y-85979000D01*
X165742000Y-86137750D01*
X165738928Y-86727000D01*
X130312041Y-86727000D01*
X130061615Y-86649306D01*
X129310305Y-86570520D01*
X128558062Y-86639822D01*
X127833792Y-86854548D01*
X127165330Y-87206445D01*
X127124912Y-87233452D01*
X126764724Y-87723119D01*
X85744072Y-87723119D01*
X85716457Y-87502049D01*
X85596333Y-87140310D01*
X85464312Y-86893317D01*
X85169224Y-86761381D01*
X83999605Y-87931000D01*
X83640395Y-87931000D01*
X82470776Y-86761381D01*
X82175688Y-86893317D01*
X82004841Y-87234045D01*
X81903750Y-87601557D01*
X81876299Y-87981729D01*
X79400000Y-87981729D01*
X79400000Y-86581776D01*
X82650381Y-86581776D01*
X83820000Y-87751395D01*
X84989619Y-86581776D01*
X84857683Y-86286688D01*
X84516955Y-86115841D01*
X84149443Y-86014750D01*
X83769271Y-85987299D01*
X83391049Y-86034543D01*
X83029310Y-86154667D01*
X82782317Y-86286688D01*
X82650381Y-86581776D01*
X79400000Y-86581776D01*
X79400000Y-81631000D01*
X81881928Y-81631000D01*
X81881928Y-84231000D01*
X81894188Y-84355482D01*
X81930498Y-84475180D01*
X81989463Y-84585494D01*
X82068815Y-84682185D01*
X82165506Y-84761537D01*
X82275820Y-84820502D01*
X82395518Y-84856812D01*
X82520000Y-84869072D01*
X85120000Y-84869072D01*
X85244482Y-84856812D01*
X85364180Y-84820502D01*
X85474494Y-84761537D01*
X85571185Y-84682185D01*
X85650537Y-84585494D01*
X85709502Y-84475180D01*
X85745812Y-84355482D01*
X85758072Y-84231000D01*
X85758072Y-81631000D01*
X85745812Y-81506518D01*
X85709502Y-81386820D01*
X85650537Y-81276506D01*
X85571185Y-81179815D01*
X85474494Y-81100463D01*
X85364180Y-81041498D01*
X85244482Y-81005188D01*
X85120000Y-80992928D01*
X82520000Y-80992928D01*
X82395518Y-81005188D01*
X82275820Y-81041498D01*
X82165506Y-81100463D01*
X82068815Y-81179815D01*
X81989463Y-81276506D01*
X81930498Y-81386820D01*
X81894188Y-81506518D01*
X81881928Y-81631000D01*
X79400000Y-81631000D01*
X79400000Y-80138514D01*
X164274500Y-80138514D01*
X164274500Y-80389485D01*
X164297470Y-80622703D01*
X164388245Y-80921948D01*
X164535655Y-81197734D01*
X164734037Y-81439463D01*
X164975765Y-81637845D01*
X165251551Y-81785255D01*
X165550796Y-81876030D01*
X165862000Y-81906681D01*
X166173203Y-81876030D01*
X166472448Y-81785255D01*
X166748234Y-81637845D01*
X166989963Y-81439463D01*
X167132000Y-81266391D01*
X167274037Y-81439463D01*
X167494668Y-81620531D01*
X167316270Y-81798928D01*
X166627000Y-81798928D01*
X166453746Y-81815992D01*
X166287150Y-81866528D01*
X166133614Y-81948595D01*
X165999038Y-82059038D01*
X165888595Y-82193614D01*
X165806528Y-82347150D01*
X165755992Y-82513746D01*
X165738928Y-82687000D01*
X165738928Y-83937000D01*
X165755992Y-84110254D01*
X165806528Y-84276850D01*
X165888595Y-84430386D01*
X165950372Y-84505662D01*
X165925815Y-84525815D01*
X165846463Y-84622506D01*
X165787498Y-84732820D01*
X165751188Y-84852518D01*
X165738928Y-84977000D01*
X165742000Y-85566250D01*
X165900750Y-85725000D01*
X166875000Y-85725000D01*
X166875000Y-85705000D01*
X167129000Y-85705000D01*
X167129000Y-85725000D01*
X168103250Y-85725000D01*
X168262000Y-85566250D01*
X168265072Y-84977000D01*
X168252812Y-84852518D01*
X168216502Y-84732820D01*
X168157537Y-84622506D01*
X168078185Y-84525815D01*
X168053628Y-84505662D01*
X168115405Y-84430386D01*
X168197472Y-84276850D01*
X168248008Y-84110254D01*
X168265072Y-83937000D01*
X168265072Y-82999730D01*
X168538928Y-82725874D01*
X168538928Y-83937000D01*
X168555992Y-84110254D01*
X168606528Y-84276850D01*
X168688595Y-84430386D01*
X168799038Y-84564962D01*
X168819799Y-84582000D01*
X168799038Y-84599038D01*
X168688595Y-84733614D01*
X168606528Y-84887150D01*
X168555992Y-85053746D01*
X168538928Y-85227000D01*
X168538928Y-86477000D01*
X168555992Y-86650254D01*
X168606528Y-86816850D01*
X168688595Y-86970386D01*
X168799038Y-87104962D01*
X168933614Y-87215405D01*
X169042001Y-87273339D01*
X169042001Y-87722668D01*
X169038324Y-87760000D01*
X169042001Y-87797333D01*
X169052756Y-87906523D01*
X169052998Y-87908985D01*
X169096454Y-88052246D01*
X169167026Y-88184276D01*
X169231562Y-88262912D01*
X169262000Y-88300001D01*
X169290998Y-88323799D01*
X170011928Y-89044729D01*
X170011928Y-90208000D01*
X170024188Y-90332482D01*
X170060498Y-90452180D01*
X170119463Y-90562494D01*
X170198815Y-90659185D01*
X170211758Y-90669807D01*
X170092429Y-90921996D01*
X170023700Y-91196184D01*
X170009783Y-91478512D01*
X170051213Y-91758130D01*
X170146397Y-92024292D01*
X170213329Y-92149514D01*
X170457298Y-92221097D01*
X171270395Y-91408000D01*
X171256253Y-91393858D01*
X171435858Y-91214253D01*
X171450000Y-91228395D01*
X171464143Y-91214253D01*
X171643748Y-91393858D01*
X171629605Y-91408000D01*
X172442702Y-92221097D01*
X172686671Y-92149514D01*
X172807571Y-91894004D01*
X172876300Y-91619816D01*
X172887036Y-91402000D01*
X177885928Y-91402000D01*
X177889000Y-91916250D01*
X178047750Y-92075000D01*
X179197000Y-92075000D01*
X179197000Y-90925750D01*
X179451000Y-90925750D01*
X179451000Y-92075000D01*
X180600250Y-92075000D01*
X180759000Y-91916250D01*
X180762072Y-91402000D01*
X180749812Y-91277518D01*
X180713502Y-91157820D01*
X180654537Y-91047506D01*
X180575185Y-90950815D01*
X180478494Y-90871463D01*
X180368180Y-90812498D01*
X180248482Y-90776188D01*
X180124000Y-90763928D01*
X179609750Y-90767000D01*
X179451000Y-90925750D01*
X179197000Y-90925750D01*
X179038250Y-90767000D01*
X178524000Y-90763928D01*
X178399518Y-90776188D01*
X178279820Y-90812498D01*
X178169506Y-90871463D01*
X178072815Y-90950815D01*
X177993463Y-91047506D01*
X177934498Y-91157820D01*
X177898188Y-91277518D01*
X177885928Y-91402000D01*
X172887036Y-91402000D01*
X172890217Y-91337488D01*
X172848787Y-91057870D01*
X172753603Y-90791708D01*
X172688384Y-90669691D01*
X172701185Y-90659185D01*
X172780537Y-90562494D01*
X172839502Y-90452180D01*
X172875812Y-90332482D01*
X172888072Y-90208000D01*
X172888072Y-89606702D01*
X178510903Y-89606702D01*
X178582486Y-89850671D01*
X178837996Y-89971571D01*
X179112184Y-90040300D01*
X179394512Y-90054217D01*
X179674130Y-90012787D01*
X179940292Y-89917603D01*
X180065514Y-89850671D01*
X180137097Y-89606702D01*
X179324000Y-88793605D01*
X178510903Y-89606702D01*
X172888072Y-89606702D01*
X172888072Y-88684512D01*
X177883783Y-88684512D01*
X177925213Y-88964130D01*
X178020397Y-89230292D01*
X178087329Y-89355514D01*
X178331298Y-89427097D01*
X179144395Y-88614000D01*
X179130253Y-88599858D01*
X179309858Y-88420253D01*
X179324000Y-88434395D01*
X179338143Y-88420253D01*
X179517748Y-88599858D01*
X179503605Y-88614000D01*
X180316702Y-89427097D01*
X180560671Y-89355514D01*
X180681571Y-89100004D01*
X180750300Y-88825816D01*
X180764217Y-88543488D01*
X180722787Y-88263870D01*
X180627603Y-87997708D01*
X180562384Y-87875691D01*
X180575185Y-87865185D01*
X180654537Y-87768494D01*
X180713502Y-87658180D01*
X180749812Y-87538482D01*
X180762072Y-87414000D01*
X180762072Y-86684000D01*
X184597928Y-86684000D01*
X184597928Y-89084000D01*
X184610188Y-89208482D01*
X184646498Y-89328180D01*
X184705463Y-89438494D01*
X184784815Y-89535185D01*
X184881506Y-89614537D01*
X184991820Y-89673502D01*
X185111518Y-89709812D01*
X185236000Y-89722072D01*
X187636000Y-89722072D01*
X187760482Y-89709812D01*
X187880180Y-89673502D01*
X187990494Y-89614537D01*
X188087185Y-89535185D01*
X188166537Y-89438494D01*
X188225502Y-89328180D01*
X188261812Y-89208482D01*
X188274072Y-89084000D01*
X188274072Y-86684000D01*
X188261812Y-86559518D01*
X188225502Y-86439820D01*
X188166537Y-86329506D01*
X188087185Y-86232815D01*
X187990494Y-86153463D01*
X187880180Y-86094498D01*
X187760482Y-86058188D01*
X187636000Y-86045928D01*
X187218838Y-86045928D01*
X187305199Y-86010156D01*
X187605744Y-85809338D01*
X187861338Y-85553744D01*
X188062156Y-85253199D01*
X188200482Y-84919250D01*
X188271000Y-84564732D01*
X188271000Y-84203268D01*
X188200482Y-83848750D01*
X188062156Y-83514801D01*
X187861338Y-83214256D01*
X187605744Y-82958662D01*
X187305199Y-82757844D01*
X187006213Y-82634000D01*
X187305199Y-82510156D01*
X187605744Y-82309338D01*
X187861338Y-82053744D01*
X188062156Y-81753199D01*
X188200482Y-81419250D01*
X188271000Y-81064732D01*
X188271000Y-80703268D01*
X188200482Y-80348750D01*
X188062156Y-80014801D01*
X187861338Y-79714256D01*
X187605744Y-79458662D01*
X187305199Y-79257844D01*
X187006213Y-79134000D01*
X187305199Y-79010156D01*
X187605744Y-78809338D01*
X187861338Y-78553744D01*
X188062156Y-78253199D01*
X188200482Y-77919250D01*
X188271000Y-77564732D01*
X188271000Y-77203268D01*
X188200482Y-76848750D01*
X188062156Y-76514801D01*
X187861338Y-76214256D01*
X187605744Y-75958662D01*
X187305199Y-75757844D01*
X186971250Y-75619518D01*
X186616732Y-75549000D01*
X186255268Y-75549000D01*
X185900750Y-75619518D01*
X185566801Y-75757844D01*
X185266256Y-75958662D01*
X185010662Y-76214256D01*
X184809844Y-76514801D01*
X184671518Y-76848750D01*
X184601000Y-77203268D01*
X184601000Y-77564732D01*
X184671518Y-77919250D01*
X184809844Y-78253199D01*
X185010662Y-78553744D01*
X185266256Y-78809338D01*
X185566801Y-79010156D01*
X185865787Y-79134000D01*
X185566801Y-79257844D01*
X185266256Y-79458662D01*
X185010662Y-79714256D01*
X184809844Y-80014801D01*
X184671518Y-80348750D01*
X184601000Y-80703268D01*
X184601000Y-81064732D01*
X184671518Y-81419250D01*
X184809844Y-81753199D01*
X185010662Y-82053744D01*
X185266256Y-82309338D01*
X185566801Y-82510156D01*
X185865787Y-82634000D01*
X185566801Y-82757844D01*
X185266256Y-82958662D01*
X185010662Y-83214256D01*
X184809844Y-83514801D01*
X184671518Y-83848750D01*
X184601000Y-84203268D01*
X184601000Y-84564732D01*
X184671518Y-84919250D01*
X184809844Y-85253199D01*
X185010662Y-85553744D01*
X185266256Y-85809338D01*
X185566801Y-86010156D01*
X185653162Y-86045928D01*
X185236000Y-86045928D01*
X185111518Y-86058188D01*
X184991820Y-86094498D01*
X184881506Y-86153463D01*
X184784815Y-86232815D01*
X184705463Y-86329506D01*
X184646498Y-86439820D01*
X184610188Y-86559518D01*
X184597928Y-86684000D01*
X180762072Y-86684000D01*
X180762072Y-85814000D01*
X180749812Y-85689518D01*
X180713502Y-85569820D01*
X180654537Y-85459506D01*
X180575185Y-85362815D01*
X180478494Y-85283463D01*
X180368180Y-85224498D01*
X180248482Y-85188188D01*
X180124000Y-85175928D01*
X178524000Y-85175928D01*
X178399518Y-85188188D01*
X178279820Y-85224498D01*
X178169506Y-85283463D01*
X178072815Y-85362815D01*
X177993463Y-85459506D01*
X177934498Y-85569820D01*
X177898188Y-85689518D01*
X177885928Y-85814000D01*
X177885928Y-87414000D01*
X177898188Y-87538482D01*
X177934498Y-87658180D01*
X177993463Y-87768494D01*
X178072815Y-87865185D01*
X178085758Y-87875807D01*
X177966429Y-88127996D01*
X177897700Y-88402184D01*
X177883783Y-88684512D01*
X172888072Y-88684512D01*
X172888072Y-88608000D01*
X172875812Y-88483518D01*
X172839502Y-88363820D01*
X172780537Y-88253506D01*
X172701185Y-88156815D01*
X172604494Y-88077463D01*
X172494180Y-88018498D01*
X172374482Y-87982188D01*
X172250000Y-87969928D01*
X171086729Y-87969928D01*
X170562000Y-87445199D01*
X170562000Y-87273339D01*
X170670386Y-87215405D01*
X170804962Y-87104962D01*
X170915405Y-86970386D01*
X170997472Y-86816850D01*
X171048008Y-86650254D01*
X171065072Y-86477000D01*
X171065072Y-85227000D01*
X171048008Y-85053746D01*
X170997472Y-84887150D01*
X170915405Y-84733614D01*
X170804962Y-84599038D01*
X170784201Y-84582000D01*
X170804962Y-84564962D01*
X170915405Y-84430386D01*
X170997472Y-84276850D01*
X171048008Y-84110254D01*
X171065072Y-83937000D01*
X171065072Y-82993730D01*
X171453009Y-82605794D01*
X171482001Y-82582001D01*
X171505795Y-82553008D01*
X171505799Y-82553004D01*
X171576973Y-82466277D01*
X171576974Y-82466276D01*
X171647546Y-82334247D01*
X171691003Y-82190986D01*
X171702000Y-82079333D01*
X171702000Y-82079324D01*
X171705676Y-82042001D01*
X171702000Y-82004678D01*
X171702000Y-81902072D01*
X171894500Y-81902072D01*
X172018982Y-81889812D01*
X172138680Y-81853502D01*
X172248994Y-81794537D01*
X172345685Y-81715185D01*
X172425037Y-81618494D01*
X172484002Y-81508180D01*
X172520312Y-81388482D01*
X172532572Y-81264000D01*
X172532572Y-79750028D01*
X172540796Y-79740007D01*
X172540800Y-79740003D01*
X172611974Y-79653276D01*
X172611975Y-79653275D01*
X172682547Y-79521246D01*
X172726004Y-79377985D01*
X172737001Y-79266332D01*
X172737001Y-79266323D01*
X172740677Y-79229000D01*
X172737001Y-79191677D01*
X172737001Y-71938326D01*
X172740677Y-71901001D01*
X172737001Y-71863676D01*
X172737001Y-71863668D01*
X172726004Y-71752015D01*
X172697486Y-71658000D01*
X183989928Y-71658000D01*
X184002188Y-71782482D01*
X184038498Y-71902180D01*
X184097463Y-72012494D01*
X184176815Y-72109185D01*
X184273506Y-72188537D01*
X184383820Y-72247502D01*
X184503518Y-72283812D01*
X184628000Y-72296072D01*
X185642250Y-72293000D01*
X185801000Y-72134250D01*
X185801000Y-70485000D01*
X186055000Y-70485000D01*
X186055000Y-72134250D01*
X186213750Y-72293000D01*
X187228000Y-72296072D01*
X187352482Y-72283812D01*
X187472180Y-72247502D01*
X187582494Y-72188537D01*
X187679185Y-72109185D01*
X187758537Y-72012494D01*
X187817502Y-71902180D01*
X187853812Y-71782482D01*
X187866072Y-71658000D01*
X187863000Y-70643750D01*
X187704250Y-70485000D01*
X186055000Y-70485000D01*
X185801000Y-70485000D01*
X184151750Y-70485000D01*
X183993000Y-70643750D01*
X183989928Y-71658000D01*
X172697486Y-71658000D01*
X172682547Y-71608754D01*
X172611975Y-71476725D01*
X172517002Y-71361000D01*
X172488005Y-71337203D01*
X172290072Y-71139270D01*
X172290072Y-69712000D01*
X172277812Y-69587518D01*
X172241502Y-69467820D01*
X172182537Y-69357506D01*
X172103185Y-69260815D01*
X172006494Y-69181463D01*
X171896180Y-69122498D01*
X171776482Y-69086188D01*
X171652000Y-69073928D01*
X169152000Y-69073928D01*
X169027518Y-69086188D01*
X168907820Y-69122498D01*
X168797506Y-69181463D01*
X168700815Y-69260815D01*
X168621463Y-69357506D01*
X168562498Y-69467820D01*
X168526188Y-69587518D01*
X168513928Y-69712000D01*
X168513928Y-71427126D01*
X168290072Y-71203270D01*
X168290072Y-69712000D01*
X168277812Y-69587518D01*
X168241502Y-69467820D01*
X168182537Y-69357506D01*
X168103185Y-69260815D01*
X168006494Y-69181463D01*
X167896180Y-69122498D01*
X167776482Y-69086188D01*
X167652000Y-69073928D01*
X165152000Y-69073928D01*
X165027518Y-69086188D01*
X164907820Y-69122498D01*
X164797506Y-69181463D01*
X164700815Y-69260815D01*
X164621463Y-69357506D01*
X164562498Y-69467820D01*
X164526188Y-69587518D01*
X164513928Y-69712000D01*
X164513928Y-71512000D01*
X164526188Y-71636482D01*
X164562498Y-71756180D01*
X164621463Y-71866494D01*
X164700815Y-71963185D01*
X164797506Y-72042537D01*
X164907820Y-72101502D01*
X165027518Y-72137812D01*
X165152000Y-72150072D01*
X167087270Y-72150072D01*
X167644564Y-72707366D01*
X167652997Y-72792986D01*
X167681464Y-72886830D01*
X167652000Y-72883928D01*
X165152000Y-72883928D01*
X165027518Y-72896188D01*
X164907820Y-72932498D01*
X164797506Y-72991463D01*
X164700815Y-73070815D01*
X164621463Y-73167506D01*
X164562498Y-73277820D01*
X164526188Y-73397518D01*
X164513928Y-73522000D01*
X164513928Y-75322000D01*
X164526188Y-75446482D01*
X164562498Y-75566180D01*
X164621463Y-75676494D01*
X164700815Y-75773185D01*
X164797506Y-75852537D01*
X164907820Y-75911502D01*
X165027518Y-75947812D01*
X165121401Y-75957058D01*
X165107000Y-75956928D01*
X164982518Y-75969188D01*
X164862820Y-76005498D01*
X164752506Y-76064463D01*
X164655815Y-76143815D01*
X164576463Y-76240506D01*
X164517498Y-76350820D01*
X164481188Y-76470518D01*
X164468928Y-76595000D01*
X164472000Y-77184250D01*
X164630750Y-77343000D01*
X165605000Y-77343000D01*
X165605000Y-77323000D01*
X165859000Y-77323000D01*
X165859000Y-77343000D01*
X166833250Y-77343000D01*
X166992000Y-77184250D01*
X166993169Y-76960000D01*
X167071199Y-76960000D01*
X167268928Y-77157729D01*
X167268928Y-77251940D01*
X166878559Y-77642309D01*
X166833250Y-77597000D01*
X165859000Y-77597000D01*
X165859000Y-77617000D01*
X165605000Y-77617000D01*
X165605000Y-77597000D01*
X164630750Y-77597000D01*
X164472000Y-77755750D01*
X164468928Y-78345000D01*
X164481188Y-78469482D01*
X164517498Y-78589180D01*
X164576463Y-78699494D01*
X164655815Y-78796185D01*
X164752506Y-78875537D01*
X164862820Y-78934502D01*
X164905831Y-78947549D01*
X164734037Y-79088537D01*
X164535655Y-79330265D01*
X164388245Y-79606051D01*
X164297470Y-79905296D01*
X164274500Y-80138514D01*
X79400000Y-80138514D01*
X79400000Y-77797268D01*
X82747000Y-77797268D01*
X82747000Y-78158732D01*
X82817518Y-78513250D01*
X82955844Y-78847199D01*
X83156662Y-79147744D01*
X83412256Y-79403338D01*
X83712801Y-79604156D01*
X84046750Y-79742482D01*
X84401268Y-79813000D01*
X84762732Y-79813000D01*
X85117250Y-79742482D01*
X85451199Y-79604156D01*
X85751744Y-79403338D01*
X85997583Y-79157499D01*
X104250106Y-79157499D01*
X104466228Y-79524258D01*
X104926105Y-79764938D01*
X105424098Y-79911275D01*
X105941071Y-79957648D01*
X106457159Y-79902273D01*
X106952526Y-79747279D01*
X107369772Y-79524258D01*
X107585894Y-79157499D01*
X140064106Y-79157499D01*
X140280228Y-79524258D01*
X140740105Y-79764938D01*
X141238098Y-79911275D01*
X141755071Y-79957648D01*
X142271159Y-79902273D01*
X142766526Y-79747279D01*
X143183772Y-79524258D01*
X143399894Y-79157499D01*
X141732000Y-77489605D01*
X140064106Y-79157499D01*
X107585894Y-79157499D01*
X105918000Y-77489605D01*
X104250106Y-79157499D01*
X85997583Y-79157499D01*
X86007338Y-79147744D01*
X86208156Y-78847199D01*
X86346482Y-78513250D01*
X86417000Y-78158732D01*
X86417000Y-77797268D01*
X86346482Y-77442750D01*
X86301052Y-77333071D01*
X103270352Y-77333071D01*
X103325727Y-77849159D01*
X103480721Y-78344526D01*
X103703742Y-78761772D01*
X104070501Y-78977894D01*
X105738395Y-77310000D01*
X106097605Y-77310000D01*
X107765499Y-78977894D01*
X108132258Y-78761772D01*
X108372938Y-78301895D01*
X108519275Y-77803902D01*
X108561509Y-77333071D01*
X139084352Y-77333071D01*
X139139727Y-77849159D01*
X139294721Y-78344526D01*
X139517742Y-78761772D01*
X139884501Y-78977894D01*
X141552395Y-77310000D01*
X141911605Y-77310000D01*
X143579499Y-78977894D01*
X143946258Y-78761772D01*
X144186938Y-78301895D01*
X144333275Y-77803902D01*
X144379648Y-77286929D01*
X144324273Y-76770841D01*
X144169279Y-76275474D01*
X143946258Y-75858228D01*
X143579499Y-75642106D01*
X141911605Y-77310000D01*
X141552395Y-77310000D01*
X139884501Y-75642106D01*
X139517742Y-75858228D01*
X139277062Y-76318105D01*
X139130725Y-76816098D01*
X139084352Y-77333071D01*
X108561509Y-77333071D01*
X108565648Y-77286929D01*
X108510273Y-76770841D01*
X108355279Y-76275474D01*
X108132258Y-75858228D01*
X107765499Y-75642106D01*
X106097605Y-77310000D01*
X105738395Y-77310000D01*
X104070501Y-75642106D01*
X103703742Y-75858228D01*
X103463062Y-76318105D01*
X103316725Y-76816098D01*
X103270352Y-77333071D01*
X86301052Y-77333071D01*
X86208156Y-77108801D01*
X86007338Y-76808256D01*
X85751744Y-76552662D01*
X85451199Y-76351844D01*
X85117250Y-76213518D01*
X84762732Y-76143000D01*
X84401268Y-76143000D01*
X84046750Y-76213518D01*
X83712801Y-76351844D01*
X83412256Y-76552662D01*
X83156662Y-76808256D01*
X82955844Y-77108801D01*
X82817518Y-77442750D01*
X82747000Y-77797268D01*
X79400000Y-77797268D01*
X79400000Y-75462501D01*
X104250106Y-75462501D01*
X105918000Y-77130395D01*
X107585894Y-75462501D01*
X140064106Y-75462501D01*
X141732000Y-77130395D01*
X143399894Y-75462501D01*
X143183772Y-75095742D01*
X142723895Y-74855062D01*
X142225902Y-74708725D01*
X141708929Y-74662352D01*
X141192841Y-74717727D01*
X140697474Y-74872721D01*
X140280228Y-75095742D01*
X140064106Y-75462501D01*
X107585894Y-75462501D01*
X107369772Y-75095742D01*
X106909895Y-74855062D01*
X106411902Y-74708725D01*
X105894929Y-74662352D01*
X105378841Y-74717727D01*
X104883474Y-74872721D01*
X104466228Y-75095742D01*
X104250106Y-75462501D01*
X79400000Y-75462501D01*
X79400000Y-65310000D01*
X103279928Y-65310000D01*
X103279928Y-69310000D01*
X103292188Y-69434482D01*
X103328498Y-69554180D01*
X103387463Y-69664494D01*
X103466815Y-69761185D01*
X103563506Y-69840537D01*
X103673820Y-69899502D01*
X103793518Y-69935812D01*
X103918000Y-69948072D01*
X107918000Y-69948072D01*
X108042482Y-69935812D01*
X108162180Y-69899502D01*
X108272494Y-69840537D01*
X108369185Y-69761185D01*
X108448537Y-69664494D01*
X108507502Y-69554180D01*
X108543812Y-69434482D01*
X108556072Y-69310000D01*
X108556072Y-65310000D01*
X139093928Y-65310000D01*
X139093928Y-69310000D01*
X139106188Y-69434482D01*
X139142498Y-69554180D01*
X139201463Y-69664494D01*
X139280815Y-69761185D01*
X139377506Y-69840537D01*
X139487820Y-69899502D01*
X139607518Y-69935812D01*
X139732000Y-69948072D01*
X143732000Y-69948072D01*
X143856482Y-69935812D01*
X143976180Y-69899502D01*
X144086494Y-69840537D01*
X144183185Y-69761185D01*
X144262537Y-69664494D01*
X144321502Y-69554180D01*
X144357812Y-69434482D01*
X144370072Y-69310000D01*
X144370072Y-69058000D01*
X183989928Y-69058000D01*
X183993000Y-70072250D01*
X184151750Y-70231000D01*
X185801000Y-70231000D01*
X185801000Y-68581750D01*
X186055000Y-68581750D01*
X186055000Y-70231000D01*
X187704250Y-70231000D01*
X187863000Y-70072250D01*
X187866072Y-69058000D01*
X187853812Y-68933518D01*
X187817502Y-68813820D01*
X187758537Y-68703506D01*
X187679185Y-68606815D01*
X187582494Y-68527463D01*
X187472180Y-68468498D01*
X187352482Y-68432188D01*
X187228000Y-68419928D01*
X186213750Y-68423000D01*
X186055000Y-68581750D01*
X185801000Y-68581750D01*
X185642250Y-68423000D01*
X184628000Y-68419928D01*
X184503518Y-68432188D01*
X184383820Y-68468498D01*
X184273506Y-68527463D01*
X184176815Y-68606815D01*
X184097463Y-68703506D01*
X184038498Y-68813820D01*
X184002188Y-68933518D01*
X183989928Y-69058000D01*
X144370072Y-69058000D01*
X144370072Y-66707224D01*
X184758381Y-66707224D01*
X184890317Y-67002312D01*
X185231045Y-67173159D01*
X185598557Y-67274250D01*
X185978729Y-67301701D01*
X186356951Y-67254457D01*
X186718690Y-67134333D01*
X186965683Y-67002312D01*
X187097619Y-66707224D01*
X185928000Y-65537605D01*
X184758381Y-66707224D01*
X144370072Y-66707224D01*
X144370072Y-65408729D01*
X183984299Y-65408729D01*
X184031543Y-65786951D01*
X184151667Y-66148690D01*
X184283688Y-66395683D01*
X184578776Y-66527619D01*
X185748395Y-65358000D01*
X186107605Y-65358000D01*
X187277224Y-66527619D01*
X187572312Y-66395683D01*
X187743159Y-66054955D01*
X187844250Y-65687443D01*
X187871701Y-65307271D01*
X187824457Y-64929049D01*
X187704333Y-64567310D01*
X187572312Y-64320317D01*
X187277224Y-64188381D01*
X186107605Y-65358000D01*
X185748395Y-65358000D01*
X184578776Y-64188381D01*
X184283688Y-64320317D01*
X184112841Y-64661045D01*
X184011750Y-65028557D01*
X183984299Y-65408729D01*
X144370072Y-65408729D01*
X144370072Y-65310000D01*
X144357812Y-65185518D01*
X144321502Y-65065820D01*
X144262537Y-64955506D01*
X144183185Y-64858815D01*
X144086494Y-64779463D01*
X143976180Y-64720498D01*
X143856482Y-64684188D01*
X143732000Y-64671928D01*
X139732000Y-64671928D01*
X139607518Y-64684188D01*
X139487820Y-64720498D01*
X139377506Y-64779463D01*
X139280815Y-64858815D01*
X139201463Y-64955506D01*
X139142498Y-65065820D01*
X139106188Y-65185518D01*
X139093928Y-65310000D01*
X108556072Y-65310000D01*
X108543812Y-65185518D01*
X108507502Y-65065820D01*
X108448537Y-64955506D01*
X108369185Y-64858815D01*
X108272494Y-64779463D01*
X108162180Y-64720498D01*
X108042482Y-64684188D01*
X107918000Y-64671928D01*
X103918000Y-64671928D01*
X103793518Y-64684188D01*
X103673820Y-64720498D01*
X103563506Y-64779463D01*
X103466815Y-64858815D01*
X103387463Y-64955506D01*
X103328498Y-65065820D01*
X103292188Y-65185518D01*
X103279928Y-65310000D01*
X79400000Y-65310000D01*
X79400000Y-63149806D01*
X82793801Y-63149806D01*
X82908500Y-63490754D01*
X83087511Y-63802774D01*
X83323954Y-64073875D01*
X83608743Y-64293639D01*
X83930934Y-64453621D01*
X84170195Y-64526195D01*
X84455000Y-64409432D01*
X84455000Y-62865000D01*
X84709000Y-62865000D01*
X84709000Y-64409432D01*
X84993805Y-64526195D01*
X85233066Y-64453621D01*
X85555257Y-64293639D01*
X85840046Y-64073875D01*
X85896822Y-64008776D01*
X184758381Y-64008776D01*
X185928000Y-65178395D01*
X187097619Y-64008776D01*
X186965683Y-63713688D01*
X186624955Y-63542841D01*
X186257443Y-63441750D01*
X185877271Y-63414299D01*
X185499049Y-63461543D01*
X185137310Y-63581667D01*
X184890317Y-63713688D01*
X184758381Y-64008776D01*
X85896822Y-64008776D01*
X86076489Y-63802774D01*
X86255500Y-63490754D01*
X86370199Y-63149806D01*
X86253854Y-62865000D01*
X84709000Y-62865000D01*
X84455000Y-62865000D01*
X82910146Y-62865000D01*
X82793801Y-63149806D01*
X79400000Y-63149806D01*
X79400000Y-62326194D01*
X82793801Y-62326194D01*
X82910146Y-62611000D01*
X84455000Y-62611000D01*
X84455000Y-61066568D01*
X84709000Y-61066568D01*
X84709000Y-62611000D01*
X86253854Y-62611000D01*
X86370199Y-62326194D01*
X86255500Y-61985246D01*
X86076489Y-61673226D01*
X85840046Y-61402125D01*
X85555257Y-61182361D01*
X85233066Y-61022379D01*
X84993805Y-60949805D01*
X84709000Y-61066568D01*
X84455000Y-61066568D01*
X84170195Y-60949805D01*
X83930934Y-61022379D01*
X83608743Y-61182361D01*
X83323954Y-61402125D01*
X83087511Y-61673226D01*
X82908500Y-61985246D01*
X82793801Y-62326194D01*
X79400000Y-62326194D01*
X79400000Y-56421872D01*
X80061000Y-56421872D01*
X80061000Y-56862128D01*
X80146890Y-57293925D01*
X80315369Y-57700669D01*
X80559962Y-58066729D01*
X80871271Y-58378038D01*
X81237331Y-58622631D01*
X81644075Y-58791110D01*
X82075872Y-58877000D01*
X82516128Y-58877000D01*
X82947925Y-58791110D01*
X83354669Y-58622631D01*
X83720729Y-58378038D01*
X84032038Y-58066729D01*
X84093049Y-57975419D01*
X160357000Y-57975419D01*
X160357000Y-58356581D01*
X160431361Y-58730419D01*
X160577225Y-59082566D01*
X160788987Y-59399491D01*
X161058509Y-59669013D01*
X161375434Y-59880775D01*
X161727581Y-60026639D01*
X162101419Y-60101000D01*
X162482581Y-60101000D01*
X162856419Y-60026639D01*
X163208566Y-59880775D01*
X163525491Y-59669013D01*
X163795013Y-59399491D01*
X164006775Y-59082566D01*
X164152639Y-58730419D01*
X164227000Y-58356581D01*
X164227000Y-57975419D01*
X165357000Y-57975419D01*
X165357000Y-58356581D01*
X165431361Y-58730419D01*
X165577225Y-59082566D01*
X165788987Y-59399491D01*
X166058509Y-59669013D01*
X166375434Y-59880775D01*
X166727581Y-60026639D01*
X167101419Y-60101000D01*
X167482581Y-60101000D01*
X167856419Y-60026639D01*
X168208566Y-59880775D01*
X168525491Y-59669013D01*
X168795013Y-59399491D01*
X169006775Y-59082566D01*
X169152639Y-58730419D01*
X169227000Y-58356581D01*
X169227000Y-57975419D01*
X170357000Y-57975419D01*
X170357000Y-58356581D01*
X170431361Y-58730419D01*
X170577225Y-59082566D01*
X170788987Y-59399491D01*
X171058509Y-59669013D01*
X171375434Y-59880775D01*
X171727581Y-60026639D01*
X172101419Y-60101000D01*
X172482581Y-60101000D01*
X172856419Y-60026639D01*
X173208566Y-59880775D01*
X173525491Y-59669013D01*
X173795013Y-59399491D01*
X174006775Y-59082566D01*
X174152639Y-58730419D01*
X174227000Y-58356581D01*
X174227000Y-57975419D01*
X174152639Y-57601581D01*
X174006775Y-57249434D01*
X173795013Y-56932509D01*
X173728504Y-56866000D01*
X175353928Y-56866000D01*
X175353928Y-59466000D01*
X175366188Y-59590482D01*
X175402498Y-59710180D01*
X175461463Y-59820494D01*
X175540815Y-59917185D01*
X175637506Y-59996537D01*
X175747820Y-60055502D01*
X175867518Y-60091812D01*
X175992000Y-60104072D01*
X178592000Y-60104072D01*
X178716482Y-60091812D01*
X178836180Y-60055502D01*
X178946494Y-59996537D01*
X179043185Y-59917185D01*
X179122537Y-59820494D01*
X179181502Y-59710180D01*
X179217812Y-59590482D01*
X179230072Y-59466000D01*
X179230072Y-56866000D01*
X179217812Y-56741518D01*
X179181502Y-56621820D01*
X179122537Y-56511506D01*
X179048977Y-56421872D01*
X185217000Y-56421872D01*
X185217000Y-56862128D01*
X185302890Y-57293925D01*
X185471369Y-57700669D01*
X185715962Y-58066729D01*
X186027271Y-58378038D01*
X186393331Y-58622631D01*
X186800075Y-58791110D01*
X187231872Y-58877000D01*
X187672128Y-58877000D01*
X188103925Y-58791110D01*
X188510669Y-58622631D01*
X188876729Y-58378038D01*
X189188038Y-58066729D01*
X189432631Y-57700669D01*
X189601110Y-57293925D01*
X189687000Y-56862128D01*
X189687000Y-56421872D01*
X189601110Y-55990075D01*
X189432631Y-55583331D01*
X189188038Y-55217271D01*
X188876729Y-54905962D01*
X188510669Y-54661369D01*
X188103925Y-54492890D01*
X187672128Y-54407000D01*
X187231872Y-54407000D01*
X186800075Y-54492890D01*
X186393331Y-54661369D01*
X186027271Y-54905962D01*
X185715962Y-55217271D01*
X185471369Y-55583331D01*
X185302890Y-55990075D01*
X185217000Y-56421872D01*
X179048977Y-56421872D01*
X179043185Y-56414815D01*
X178946494Y-56335463D01*
X178836180Y-56276498D01*
X178716482Y-56240188D01*
X178592000Y-56227928D01*
X175992000Y-56227928D01*
X175867518Y-56240188D01*
X175747820Y-56276498D01*
X175637506Y-56335463D01*
X175540815Y-56414815D01*
X175461463Y-56511506D01*
X175402498Y-56621820D01*
X175366188Y-56741518D01*
X175353928Y-56866000D01*
X173728504Y-56866000D01*
X173525491Y-56662987D01*
X173208566Y-56451225D01*
X172856419Y-56305361D01*
X172482581Y-56231000D01*
X172101419Y-56231000D01*
X171727581Y-56305361D01*
X171375434Y-56451225D01*
X171058509Y-56662987D01*
X170788987Y-56932509D01*
X170577225Y-57249434D01*
X170431361Y-57601581D01*
X170357000Y-57975419D01*
X169227000Y-57975419D01*
X169152639Y-57601581D01*
X169006775Y-57249434D01*
X168795013Y-56932509D01*
X168525491Y-56662987D01*
X168208566Y-56451225D01*
X167856419Y-56305361D01*
X167482581Y-56231000D01*
X167101419Y-56231000D01*
X166727581Y-56305361D01*
X166375434Y-56451225D01*
X166058509Y-56662987D01*
X165788987Y-56932509D01*
X165577225Y-57249434D01*
X165431361Y-57601581D01*
X165357000Y-57975419D01*
X164227000Y-57975419D01*
X164152639Y-57601581D01*
X164006775Y-57249434D01*
X163795013Y-56932509D01*
X163525491Y-56662987D01*
X163208566Y-56451225D01*
X162856419Y-56305361D01*
X162482581Y-56231000D01*
X162101419Y-56231000D01*
X161727581Y-56305361D01*
X161375434Y-56451225D01*
X161058509Y-56662987D01*
X160788987Y-56932509D01*
X160577225Y-57249434D01*
X160431361Y-57601581D01*
X160357000Y-57975419D01*
X84093049Y-57975419D01*
X84276631Y-57700669D01*
X84445110Y-57293925D01*
X84531000Y-56862128D01*
X84531000Y-56421872D01*
X84445110Y-55990075D01*
X84276631Y-55583331D01*
X84032038Y-55217271D01*
X83720729Y-54905962D01*
X83354669Y-54661369D01*
X82947925Y-54492890D01*
X82516128Y-54407000D01*
X82075872Y-54407000D01*
X81644075Y-54492890D01*
X81237331Y-54661369D01*
X80871271Y-54905962D01*
X80559962Y-55217271D01*
X80315369Y-55583331D01*
X80146890Y-55990075D01*
X80061000Y-56421872D01*
X79400000Y-56421872D01*
X79400000Y-53746000D01*
X190348000Y-53746000D01*
X190348001Y-127102000D01*
G37*
G04 #@! TD.AperFunction*
D27*
X133477000Y-94615000D02*
X125095000Y-94615000D01*
X125095000Y-86233000D01*
X133477000Y-86233000D01*
X133477000Y-94615000D01*
G04 #@! TA.AperFunction,Conductor*
D28*
G36*
X133477000Y-94615000D02*
G01*
X125095000Y-94615000D01*
X125095000Y-86233000D01*
X133477000Y-86233000D01*
X133477000Y-94615000D01*
G37*
G04 #@! TD.AperFunction*
M02*
