G04 #@! TF.GenerationSoftware,KiCad,Pcbnew,5.1.9*
G04 #@! TF.CreationDate,2021-04-19T04:03:33-04:00*
G04 #@! TF.ProjectId,lm3886_psu_4ch,6c6d3338-3836-45f7-9073-755f3463682e,rev?*
G04 #@! TF.SameCoordinates,Original*
G04 #@! TF.FileFunction,Soldermask,Top*
G04 #@! TF.FilePolarity,Negative*
%FSLAX46Y46*%
G04 Gerber Fmt 4.6, Leading zero omitted, Abs format (unit mm)*
G04 Created by KiCad (PCBNEW 5.1.9) date 2021-04-19 04:03:33*
%MOMM*%
%LPD*%
G01*
G04 APERTURE LIST*
%ADD10C,0.800000*%
%ADD11C,6.400000*%
%ADD12C,3.200000*%
%ADD13C,2.600000*%
%ADD14R,2.600000X2.600000*%
%ADD15C,2.400000*%
%ADD16R,2.400000X2.400000*%
%ADD17C,4.000000*%
%ADD18R,4.000000X4.000000*%
%ADD19C,1.600000*%
%ADD20R,1.600000X1.600000*%
%ADD21O,2.400000X2.400000*%
%ADD22O,1.905000X2.000000*%
%ADD23R,1.905000X2.000000*%
G04 APERTURE END LIST*
D10*
X130983056Y-88726944D03*
X129286000Y-88024000D03*
X127588944Y-88726944D03*
X126886000Y-90424000D03*
X127588944Y-92121056D03*
X129286000Y-92824000D03*
X130983056Y-92121056D03*
X131686000Y-90424000D03*
D11*
X129286000Y-90424000D03*
D12*
X82296000Y-56642000D03*
X82296000Y-124206000D03*
X187452000Y-124206000D03*
X187452000Y-56642000D03*
D13*
X185928000Y-110697000D03*
D14*
X185928000Y-115697000D03*
D13*
X185928000Y-65358000D03*
D14*
X185928000Y-70358000D03*
D13*
X177306000Y-122682000D03*
X172306000Y-122682000D03*
X167306000Y-122682000D03*
D14*
X162306000Y-122682000D03*
D13*
X162292000Y-58166000D03*
X167292000Y-58166000D03*
X172292000Y-58166000D03*
D14*
X177292000Y-58166000D03*
D15*
X186436000Y-93005000D03*
X186436000Y-96505000D03*
X186436000Y-100005000D03*
D16*
X186436000Y-103505000D03*
D15*
X186436000Y-77384000D03*
X186436000Y-80884000D03*
X186436000Y-84384000D03*
D16*
X186436000Y-87884000D03*
D13*
X83820000Y-97931000D03*
X83820000Y-92931000D03*
X83820000Y-87931000D03*
D14*
X83820000Y-82931000D03*
D17*
X141732000Y-113378000D03*
D18*
X141732000Y-103378000D03*
D17*
X141732000Y-77310000D03*
D18*
X141732000Y-67310000D03*
D19*
X179324000Y-94202000D03*
D20*
X179324000Y-92202000D03*
D19*
X179324000Y-88614000D03*
D20*
X179324000Y-86614000D03*
D19*
X165354000Y-91408000D03*
D20*
X165354000Y-89408000D03*
D19*
X171450000Y-91408000D03*
D20*
X171450000Y-89408000D03*
D21*
X84582000Y-102870000D03*
D15*
X84582000Y-118110000D03*
D21*
X84582000Y-62738000D03*
D15*
X84582000Y-77978000D03*
D22*
X170942000Y-100584000D03*
X168402000Y-100584000D03*
D23*
X165862000Y-100584000D03*
D22*
X165862000Y-80264000D03*
X168402000Y-80264000D03*
D23*
X170942000Y-80264000D03*
D17*
X105918000Y-113378000D03*
D18*
X105918000Y-103378000D03*
D17*
X105918000Y-77310000D03*
D18*
X105918000Y-67310000D03*
M02*
