G04 #@! TF.GenerationSoftware,KiCad,Pcbnew,5.1.9*
G04 #@! TF.CreationDate,2021-04-19T04:03:33-04:00*
G04 #@! TF.ProjectId,lm3886_psu_4ch,6c6d3338-3836-45f7-9073-755f3463682e,rev?*
G04 #@! TF.SameCoordinates,Original*
G04 #@! TF.FileFunction,Soldermask,Bot*
G04 #@! TF.FilePolarity,Negative*
%FSLAX46Y46*%
G04 Gerber Fmt 4.6, Leading zero omitted, Abs format (unit mm)*
G04 Created by KiCad (PCBNEW 5.1.9) date 2021-04-19 04:03:33*
%MOMM*%
%LPD*%
G01*
G04 APERTURE LIST*
%ADD10C,0.800000*%
%ADD11C,6.400000*%
%ADD12C,3.200000*%
%ADD13C,2.600000*%
%ADD14R,2.600000X2.600000*%
%ADD15C,2.400000*%
%ADD16R,2.400000X2.400000*%
%ADD17C,4.000000*%
%ADD18R,4.000000X4.000000*%
%ADD19C,1.600000*%
%ADD20R,1.600000X1.600000*%
%ADD21O,2.400000X2.400000*%
%ADD22O,1.905000X2.000000*%
%ADD23R,1.905000X2.000000*%
%ADD24R,2.500000X1.800000*%
G04 APERTURE END LIST*
D10*
X130983056Y-88726944D03*
X129286000Y-88024000D03*
X127588944Y-88726944D03*
X126886000Y-90424000D03*
X127588944Y-92121056D03*
X129286000Y-92824000D03*
X130983056Y-92121056D03*
X131686000Y-90424000D03*
D11*
X129286000Y-90424000D03*
D12*
X82296000Y-56642000D03*
X82296000Y-124206000D03*
X187452000Y-124206000D03*
X187452000Y-56642000D03*
D13*
X185928000Y-110697000D03*
D14*
X185928000Y-115697000D03*
D13*
X185928000Y-65358000D03*
D14*
X185928000Y-70358000D03*
D13*
X177306000Y-122682000D03*
X172306000Y-122682000D03*
X167306000Y-122682000D03*
D14*
X162306000Y-122682000D03*
D13*
X162292000Y-58166000D03*
X167292000Y-58166000D03*
X172292000Y-58166000D03*
D14*
X177292000Y-58166000D03*
D15*
X186436000Y-93005000D03*
X186436000Y-96505000D03*
X186436000Y-100005000D03*
D16*
X186436000Y-103505000D03*
D15*
X186436000Y-77384000D03*
X186436000Y-80884000D03*
X186436000Y-84384000D03*
D16*
X186436000Y-87884000D03*
D13*
X83820000Y-97931000D03*
X83820000Y-92931000D03*
X83820000Y-87931000D03*
D14*
X83820000Y-82931000D03*
D17*
X141732000Y-113378000D03*
D18*
X141732000Y-103378000D03*
D17*
X141732000Y-77310000D03*
D18*
X141732000Y-67310000D03*
D19*
X179324000Y-94202000D03*
D20*
X179324000Y-92202000D03*
D19*
X179324000Y-88614000D03*
D20*
X179324000Y-86614000D03*
D19*
X165354000Y-91408000D03*
D20*
X165354000Y-89408000D03*
D19*
X171450000Y-91408000D03*
D20*
X171450000Y-89408000D03*
G36*
G01*
X165107000Y-104003000D02*
X165107000Y-102753000D01*
G75*
G02*
X165357000Y-102503000I250000J0D01*
G01*
X166107000Y-102503000D01*
G75*
G02*
X166357000Y-102753000I0J-250000D01*
G01*
X166357000Y-104003000D01*
G75*
G02*
X166107000Y-104253000I-250000J0D01*
G01*
X165357000Y-104253000D01*
G75*
G02*
X165107000Y-104003000I0J250000D01*
G01*
G37*
G36*
G01*
X167907000Y-104003000D02*
X167907000Y-102753000D01*
G75*
G02*
X168157000Y-102503000I250000J0D01*
G01*
X168907000Y-102503000D01*
G75*
G02*
X169157000Y-102753000I0J-250000D01*
G01*
X169157000Y-104003000D01*
G75*
G02*
X168907000Y-104253000I-250000J0D01*
G01*
X168157000Y-104253000D01*
G75*
G02*
X167907000Y-104003000I0J250000D01*
G01*
G37*
G36*
G01*
X166357000Y-76845000D02*
X166357000Y-78095000D01*
G75*
G02*
X166107000Y-78345000I-250000J0D01*
G01*
X165357000Y-78345000D01*
G75*
G02*
X165107000Y-78095000I0J250000D01*
G01*
X165107000Y-76845000D01*
G75*
G02*
X165357000Y-76595000I250000J0D01*
G01*
X166107000Y-76595000D01*
G75*
G02*
X166357000Y-76845000I0J-250000D01*
G01*
G37*
G36*
G01*
X169157000Y-76845000D02*
X169157000Y-78095000D01*
G75*
G02*
X168907000Y-78345000I-250000J0D01*
G01*
X168157000Y-78345000D01*
G75*
G02*
X167907000Y-78095000I0J250000D01*
G01*
X167907000Y-76845000D01*
G75*
G02*
X168157000Y-76595000I250000J0D01*
G01*
X168907000Y-76595000D01*
G75*
G02*
X169157000Y-76845000I0J-250000D01*
G01*
G37*
D21*
X84582000Y-102870000D03*
D15*
X84582000Y-118110000D03*
D21*
X84582000Y-62738000D03*
D15*
X84582000Y-77978000D03*
D22*
X170942000Y-100584000D03*
X168402000Y-100584000D03*
D23*
X165862000Y-100584000D03*
D22*
X165862000Y-80264000D03*
X168402000Y-80264000D03*
D23*
X170942000Y-80264000D03*
G36*
G01*
X169177000Y-98161000D02*
X169177000Y-96911000D01*
G75*
G02*
X169427000Y-96661000I250000J0D01*
G01*
X170177000Y-96661000D01*
G75*
G02*
X170427000Y-96911000I0J-250000D01*
G01*
X170427000Y-98161000D01*
G75*
G02*
X170177000Y-98411000I-250000J0D01*
G01*
X169427000Y-98411000D01*
G75*
G02*
X169177000Y-98161000I0J250000D01*
G01*
G37*
G36*
G01*
X166377000Y-98161000D02*
X166377000Y-96911000D01*
G75*
G02*
X166627000Y-96661000I250000J0D01*
G01*
X167377000Y-96661000D01*
G75*
G02*
X167627000Y-96911000I0J-250000D01*
G01*
X167627000Y-98161000D01*
G75*
G02*
X167377000Y-98411000I-250000J0D01*
G01*
X166627000Y-98411000D01*
G75*
G02*
X166377000Y-98161000I0J250000D01*
G01*
G37*
G36*
G01*
X169177000Y-83937000D02*
X169177000Y-82687000D01*
G75*
G02*
X169427000Y-82437000I250000J0D01*
G01*
X170177000Y-82437000D01*
G75*
G02*
X170427000Y-82687000I0J-250000D01*
G01*
X170427000Y-83937000D01*
G75*
G02*
X170177000Y-84187000I-250000J0D01*
G01*
X169427000Y-84187000D01*
G75*
G02*
X169177000Y-83937000I0J250000D01*
G01*
G37*
G36*
G01*
X166377000Y-83937000D02*
X166377000Y-82687000D01*
G75*
G02*
X166627000Y-82437000I250000J0D01*
G01*
X167377000Y-82437000D01*
G75*
G02*
X167627000Y-82687000I0J-250000D01*
G01*
X167627000Y-83937000D01*
G75*
G02*
X167377000Y-84187000I-250000J0D01*
G01*
X166627000Y-84187000D01*
G75*
G02*
X166377000Y-83937000I0J250000D01*
G01*
G37*
G36*
G01*
X167627000Y-94371000D02*
X167627000Y-95621000D01*
G75*
G02*
X167377000Y-95871000I-250000J0D01*
G01*
X166627000Y-95871000D01*
G75*
G02*
X166377000Y-95621000I0J250000D01*
G01*
X166377000Y-94371000D01*
G75*
G02*
X166627000Y-94121000I250000J0D01*
G01*
X167377000Y-94121000D01*
G75*
G02*
X167627000Y-94371000I0J-250000D01*
G01*
G37*
G36*
G01*
X170427000Y-94371000D02*
X170427000Y-95621000D01*
G75*
G02*
X170177000Y-95871000I-250000J0D01*
G01*
X169427000Y-95871000D01*
G75*
G02*
X169177000Y-95621000I0J250000D01*
G01*
X169177000Y-94371000D01*
G75*
G02*
X169427000Y-94121000I250000J0D01*
G01*
X170177000Y-94121000D01*
G75*
G02*
X170427000Y-94371000I0J-250000D01*
G01*
G37*
G36*
G01*
X167627000Y-85227000D02*
X167627000Y-86477000D01*
G75*
G02*
X167377000Y-86727000I-250000J0D01*
G01*
X166627000Y-86727000D01*
G75*
G02*
X166377000Y-86477000I0J250000D01*
G01*
X166377000Y-85227000D01*
G75*
G02*
X166627000Y-84977000I250000J0D01*
G01*
X167377000Y-84977000D01*
G75*
G02*
X167627000Y-85227000I0J-250000D01*
G01*
G37*
G36*
G01*
X170427000Y-85227000D02*
X170427000Y-86477000D01*
G75*
G02*
X170177000Y-86727000I-250000J0D01*
G01*
X169427000Y-86727000D01*
G75*
G02*
X169177000Y-86477000I0J250000D01*
G01*
X169177000Y-85227000D01*
G75*
G02*
X169427000Y-84977000I250000J0D01*
G01*
X170177000Y-84977000D01*
G75*
G02*
X170427000Y-85227000I0J-250000D01*
G01*
G37*
D24*
X166402000Y-110236000D03*
X170402000Y-110236000D03*
X170402000Y-70612000D03*
X166402000Y-70612000D03*
X170402000Y-106426000D03*
X166402000Y-106426000D03*
X170402000Y-74422000D03*
X166402000Y-74422000D03*
D17*
X105918000Y-113378000D03*
D18*
X105918000Y-103378000D03*
D17*
X105918000Y-77310000D03*
D18*
X105918000Y-67310000D03*
M02*
