G04 #@! TF.GenerationSoftware,KiCad,Pcbnew,5.1.9*
G04 #@! TF.CreationDate,2021-04-19T04:03:33-04:00*
G04 #@! TF.ProjectId,lm3886_psu_4ch,6c6d3338-3836-45f7-9073-755f3463682e,rev?*
G04 #@! TF.SameCoordinates,Original*
G04 #@! TF.FileFunction,Legend,Top*
G04 #@! TF.FilePolarity,Positive*
%FSLAX46Y46*%
G04 Gerber Fmt 4.6, Leading zero omitted, Abs format (unit mm)*
G04 Created by KiCad (PCBNEW 5.1.9) date 2021-04-19 04:03:33*
%MOMM*%
%LPD*%
G01*
G04 APERTURE LIST*
%ADD10C,0.150000*%
%ADD11C,0.120000*%
G04 APERTURE END LIST*
D10*
X114840857Y-124595476D02*
X114745619Y-124547857D01*
X114555142Y-124547857D01*
X114459904Y-124595476D01*
X114364666Y-124690714D01*
X114317047Y-124785952D01*
X114317047Y-124976428D01*
X114364666Y-125071666D01*
X114459904Y-125166904D01*
X114555142Y-125214523D01*
X114745619Y-125214523D01*
X114840857Y-125166904D01*
X114650380Y-124214523D02*
X114412285Y-124262142D01*
X114174190Y-124405000D01*
X114031333Y-124643095D01*
X113983714Y-124881190D01*
X114031333Y-125119285D01*
X114174190Y-125357380D01*
X114412285Y-125500238D01*
X114650380Y-125547857D01*
X114888476Y-125500238D01*
X115126571Y-125357380D01*
X115269428Y-125119285D01*
X115317047Y-124881190D01*
X115269428Y-124643095D01*
X115126571Y-124405000D01*
X114888476Y-124262142D01*
X114650380Y-124214523D01*
X116507523Y-125357380D02*
X116507523Y-124357380D01*
X116840857Y-125071666D01*
X117174190Y-124357380D01*
X117174190Y-125357380D01*
X117650380Y-125357380D02*
X117650380Y-124690714D01*
X117650380Y-124357380D02*
X117602761Y-124405000D01*
X117650380Y-124452619D01*
X117698000Y-124405000D01*
X117650380Y-124357380D01*
X117650380Y-124452619D01*
X118555142Y-125309761D02*
X118459904Y-125357380D01*
X118269428Y-125357380D01*
X118174190Y-125309761D01*
X118126571Y-125262142D01*
X118078952Y-125166904D01*
X118078952Y-124881190D01*
X118126571Y-124785952D01*
X118174190Y-124738333D01*
X118269428Y-124690714D01*
X118459904Y-124690714D01*
X118555142Y-124738333D01*
X118983714Y-125357380D02*
X118983714Y-124357380D01*
X119412285Y-125357380D02*
X119412285Y-124833571D01*
X119364666Y-124738333D01*
X119269428Y-124690714D01*
X119126571Y-124690714D01*
X119031333Y-124738333D01*
X118983714Y-124785952D01*
X120317047Y-125357380D02*
X120317047Y-124833571D01*
X120269428Y-124738333D01*
X120174190Y-124690714D01*
X119983714Y-124690714D01*
X119888476Y-124738333D01*
X120317047Y-125309761D02*
X120221809Y-125357380D01*
X119983714Y-125357380D01*
X119888476Y-125309761D01*
X119840857Y-125214523D01*
X119840857Y-125119285D01*
X119888476Y-125024047D01*
X119983714Y-124976428D01*
X120221809Y-124976428D01*
X120317047Y-124928809D01*
X121174190Y-125309761D02*
X121078952Y-125357380D01*
X120888476Y-125357380D01*
X120793238Y-125309761D01*
X120745619Y-125214523D01*
X120745619Y-124833571D01*
X120793238Y-124738333D01*
X120888476Y-124690714D01*
X121078952Y-124690714D01*
X121174190Y-124738333D01*
X121221809Y-124833571D01*
X121221809Y-124928809D01*
X120745619Y-125024047D01*
X121793238Y-125357380D02*
X121698000Y-125309761D01*
X121650380Y-125214523D01*
X121650380Y-124357380D01*
X123269428Y-124833571D02*
X123412285Y-124881190D01*
X123459904Y-124928809D01*
X123507523Y-125024047D01*
X123507523Y-125166904D01*
X123459904Y-125262142D01*
X123412285Y-125309761D01*
X123317047Y-125357380D01*
X122936095Y-125357380D01*
X122936095Y-124357380D01*
X123269428Y-124357380D01*
X123364666Y-124405000D01*
X123412285Y-124452619D01*
X123459904Y-124547857D01*
X123459904Y-124643095D01*
X123412285Y-124738333D01*
X123364666Y-124785952D01*
X123269428Y-124833571D01*
X122936095Y-124833571D01*
X124364666Y-125357380D02*
X124364666Y-124833571D01*
X124317047Y-124738333D01*
X124221809Y-124690714D01*
X124031333Y-124690714D01*
X123936095Y-124738333D01*
X124364666Y-125309761D02*
X124269428Y-125357380D01*
X124031333Y-125357380D01*
X123936095Y-125309761D01*
X123888476Y-125214523D01*
X123888476Y-125119285D01*
X123936095Y-125024047D01*
X124031333Y-124976428D01*
X124269428Y-124976428D01*
X124364666Y-124928809D01*
X124840857Y-125357380D02*
X124840857Y-124690714D01*
X124840857Y-124881190D02*
X124888476Y-124785952D01*
X124936095Y-124738333D01*
X125031333Y-124690714D01*
X125126571Y-124690714D01*
X125459904Y-125357380D02*
X125459904Y-124357380D01*
X125459904Y-124738333D02*
X125555142Y-124690714D01*
X125745619Y-124690714D01*
X125840857Y-124738333D01*
X125888476Y-124785952D01*
X125936095Y-124881190D01*
X125936095Y-125166904D01*
X125888476Y-125262142D01*
X125840857Y-125309761D01*
X125745619Y-125357380D01*
X125555142Y-125357380D01*
X125459904Y-125309761D01*
X126507523Y-125357380D02*
X126412285Y-125309761D01*
X126364666Y-125262142D01*
X126317047Y-125166904D01*
X126317047Y-124881190D01*
X126364666Y-124785952D01*
X126412285Y-124738333D01*
X126507523Y-124690714D01*
X126650380Y-124690714D01*
X126745619Y-124738333D01*
X126793238Y-124785952D01*
X126840857Y-124881190D01*
X126840857Y-125166904D01*
X126793238Y-125262142D01*
X126745619Y-125309761D01*
X126650380Y-125357380D01*
X126507523Y-125357380D01*
X127698000Y-124690714D02*
X127698000Y-125357380D01*
X127269428Y-124690714D02*
X127269428Y-125214523D01*
X127317047Y-125309761D01*
X127412285Y-125357380D01*
X127555142Y-125357380D01*
X127650380Y-125309761D01*
X127698000Y-125262142D01*
X128174190Y-125357380D02*
X128174190Y-124690714D01*
X128174190Y-124881190D02*
X128221809Y-124785952D01*
X128269428Y-124738333D01*
X128364666Y-124690714D01*
X128459904Y-124690714D01*
X128840857Y-125309761D02*
X128840857Y-125357380D01*
X128793238Y-125452619D01*
X128745619Y-125500238D01*
X129983714Y-124452619D02*
X130031333Y-124405000D01*
X130126571Y-124357380D01*
X130364666Y-124357380D01*
X130459904Y-124405000D01*
X130507523Y-124452619D01*
X130555142Y-124547857D01*
X130555142Y-124643095D01*
X130507523Y-124785952D01*
X129936095Y-125357380D01*
X130555142Y-125357380D01*
X131174190Y-124357380D02*
X131269428Y-124357380D01*
X131364666Y-124405000D01*
X131412285Y-124452619D01*
X131459904Y-124547857D01*
X131507523Y-124738333D01*
X131507523Y-124976428D01*
X131459904Y-125166904D01*
X131412285Y-125262142D01*
X131364666Y-125309761D01*
X131269428Y-125357380D01*
X131174190Y-125357380D01*
X131078952Y-125309761D01*
X131031333Y-125262142D01*
X130983714Y-125166904D01*
X130936095Y-124976428D01*
X130936095Y-124738333D01*
X130983714Y-124547857D01*
X131031333Y-124452619D01*
X131078952Y-124405000D01*
X131174190Y-124357380D01*
X131888476Y-124452619D02*
X131936095Y-124405000D01*
X132031333Y-124357380D01*
X132269428Y-124357380D01*
X132364666Y-124405000D01*
X132412285Y-124452619D01*
X132459904Y-124547857D01*
X132459904Y-124643095D01*
X132412285Y-124785952D01*
X131840857Y-125357380D01*
X132459904Y-125357380D01*
X133078952Y-124357380D02*
X133174190Y-124357380D01*
X133269428Y-124405000D01*
X133317047Y-124452619D01*
X133364666Y-124547857D01*
X133412285Y-124738333D01*
X133412285Y-124976428D01*
X133364666Y-125166904D01*
X133317047Y-125262142D01*
X133269428Y-125309761D01*
X133174190Y-125357380D01*
X133078952Y-125357380D01*
X132983714Y-125309761D01*
X132936095Y-125262142D01*
X132888476Y-125166904D01*
X132840857Y-124976428D01*
X132840857Y-124738333D01*
X132888476Y-124547857D01*
X132936095Y-124452619D01*
X132983714Y-124405000D01*
X133078952Y-124357380D01*
X119102761Y-126912142D02*
X119055142Y-126959761D01*
X118912285Y-127007380D01*
X118817047Y-127007380D01*
X118674190Y-126959761D01*
X118578952Y-126864523D01*
X118531333Y-126769285D01*
X118483714Y-126578809D01*
X118483714Y-126435952D01*
X118531333Y-126245476D01*
X118578952Y-126150238D01*
X118674190Y-126055000D01*
X118817047Y-126007380D01*
X118912285Y-126007380D01*
X119055142Y-126055000D01*
X119102761Y-126102619D01*
X120102761Y-126912142D02*
X120055142Y-126959761D01*
X119912285Y-127007380D01*
X119817047Y-127007380D01*
X119674190Y-126959761D01*
X119578952Y-126864523D01*
X119531333Y-126769285D01*
X119483714Y-126578809D01*
X119483714Y-126435952D01*
X119531333Y-126245476D01*
X119578952Y-126150238D01*
X119674190Y-126055000D01*
X119817047Y-126007380D01*
X119912285Y-126007380D01*
X120055142Y-126055000D01*
X120102761Y-126102619D01*
X121626571Y-126483571D02*
X121769428Y-126531190D01*
X121817047Y-126578809D01*
X121864666Y-126674047D01*
X121864666Y-126816904D01*
X121817047Y-126912142D01*
X121769428Y-126959761D01*
X121674190Y-127007380D01*
X121293238Y-127007380D01*
X121293238Y-126007380D01*
X121626571Y-126007380D01*
X121721809Y-126055000D01*
X121769428Y-126102619D01*
X121817047Y-126197857D01*
X121817047Y-126293095D01*
X121769428Y-126388333D01*
X121721809Y-126435952D01*
X121626571Y-126483571D01*
X121293238Y-126483571D01*
X122483714Y-126531190D02*
X122483714Y-127007380D01*
X122150380Y-126007380D02*
X122483714Y-126531190D01*
X122817047Y-126007380D01*
X123150380Y-126626428D02*
X123912285Y-126626428D01*
X124340857Y-126959761D02*
X124483714Y-127007380D01*
X124721809Y-127007380D01*
X124817047Y-126959761D01*
X124864666Y-126912142D01*
X124912285Y-126816904D01*
X124912285Y-126721666D01*
X124864666Y-126626428D01*
X124817047Y-126578809D01*
X124721809Y-126531190D01*
X124531333Y-126483571D01*
X124436095Y-126435952D01*
X124388476Y-126388333D01*
X124340857Y-126293095D01*
X124340857Y-126197857D01*
X124388476Y-126102619D01*
X124436095Y-126055000D01*
X124531333Y-126007380D01*
X124769428Y-126007380D01*
X124912285Y-126055000D01*
X125293238Y-126721666D02*
X125769428Y-126721666D01*
X125198000Y-127007380D02*
X125531333Y-126007380D01*
X125864666Y-127007380D01*
X127388476Y-126340714D02*
X127388476Y-127007380D01*
X127150380Y-125959761D02*
X126912285Y-126674047D01*
X127531333Y-126674047D01*
X127912285Y-126912142D02*
X127959904Y-126959761D01*
X127912285Y-127007380D01*
X127864666Y-126959761D01*
X127912285Y-126912142D01*
X127912285Y-127007380D01*
X128578952Y-126007380D02*
X128674190Y-126007380D01*
X128769428Y-126055000D01*
X128817047Y-126102619D01*
X128864666Y-126197857D01*
X128912285Y-126388333D01*
X128912285Y-126626428D01*
X128864666Y-126816904D01*
X128817047Y-126912142D01*
X128769428Y-126959761D01*
X128674190Y-127007380D01*
X128578952Y-127007380D01*
X128483714Y-126959761D01*
X128436095Y-126912142D01*
X128388476Y-126816904D01*
X128340857Y-126626428D01*
X128340857Y-126388333D01*
X128388476Y-126197857D01*
X128436095Y-126102619D01*
X128483714Y-126055000D01*
X128578952Y-126007380D01*
X121142380Y-90352571D02*
X121475714Y-90352571D01*
X121618571Y-90876380D02*
X121142380Y-90876380D01*
X121142380Y-89876380D01*
X121618571Y-89876380D01*
X121999523Y-90590666D02*
X122475714Y-90590666D01*
X121904285Y-90876380D02*
X122237619Y-89876380D01*
X122570952Y-90876380D01*
X123475714Y-90876380D02*
X123142380Y-90400190D01*
X122904285Y-90876380D02*
X122904285Y-89876380D01*
X123285238Y-89876380D01*
X123380476Y-89924000D01*
X123428095Y-89971619D01*
X123475714Y-90066857D01*
X123475714Y-90209714D01*
X123428095Y-90304952D01*
X123380476Y-90352571D01*
X123285238Y-90400190D01*
X122904285Y-90400190D01*
X123761428Y-89876380D02*
X124332857Y-89876380D01*
X124047142Y-90876380D02*
X124047142Y-89876380D01*
X124666190Y-90876380D02*
X124666190Y-89876380D01*
X124666190Y-90352571D02*
X125237619Y-90352571D01*
X125237619Y-90876380D02*
X125237619Y-89876380D01*
X181443380Y-101059904D02*
X182443380Y-100726571D01*
X181443380Y-100393238D01*
X182538619Y-100298000D02*
X182538619Y-99536095D01*
X182157666Y-99345619D02*
X182157666Y-98869428D01*
X182443380Y-99440857D02*
X181443380Y-99107523D01*
X182443380Y-98774190D01*
X181443380Y-98440857D02*
X182252904Y-98440857D01*
X182348142Y-98393238D01*
X182395761Y-98345619D01*
X182443380Y-98250380D01*
X182443380Y-98059904D01*
X182395761Y-97964666D01*
X182348142Y-97917047D01*
X182252904Y-97869428D01*
X181443380Y-97869428D01*
X181443380Y-97488476D02*
X182443380Y-96821809D01*
X181443380Y-96821809D02*
X182443380Y-97488476D01*
X182062428Y-96440857D02*
X182062428Y-95678952D01*
X181443380Y-85311904D02*
X182443380Y-84978571D01*
X181443380Y-84645238D01*
X182538619Y-84550000D02*
X182538619Y-83788095D01*
X182157666Y-83597619D02*
X182157666Y-83121428D01*
X182443380Y-83692857D02*
X181443380Y-83359523D01*
X182443380Y-83026190D01*
X181443380Y-82692857D02*
X182252904Y-82692857D01*
X182348142Y-82645238D01*
X182395761Y-82597619D01*
X182443380Y-82502380D01*
X182443380Y-82311904D01*
X182395761Y-82216666D01*
X182348142Y-82169047D01*
X182252904Y-82121428D01*
X181443380Y-82121428D01*
X181443380Y-81740476D02*
X182443380Y-81073809D01*
X181443380Y-81073809D02*
X182443380Y-81740476D01*
X182062428Y-80692857D02*
X182062428Y-79930952D01*
X182443380Y-80311904D02*
X181681476Y-80311904D01*
X180094000Y-113918904D02*
X180046380Y-114014142D01*
X180046380Y-114157000D01*
X180094000Y-114299857D01*
X180189238Y-114395095D01*
X180284476Y-114442714D01*
X180474952Y-114490333D01*
X180617809Y-114490333D01*
X180808285Y-114442714D01*
X180903523Y-114395095D01*
X180998761Y-114299857D01*
X181046380Y-114157000D01*
X181046380Y-114061761D01*
X180998761Y-113918904D01*
X180951142Y-113871285D01*
X180617809Y-113871285D01*
X180617809Y-114061761D01*
X181046380Y-113442714D02*
X180046380Y-113442714D01*
X181046380Y-112871285D01*
X180046380Y-112871285D01*
X181046380Y-112395095D02*
X180046380Y-112395095D01*
X180046380Y-112157000D01*
X180094000Y-112014142D01*
X180189238Y-111918904D01*
X180284476Y-111871285D01*
X180474952Y-111823666D01*
X180617809Y-111823666D01*
X180808285Y-111871285D01*
X180903523Y-111918904D01*
X180998761Y-112014142D01*
X181046380Y-112157000D01*
X181046380Y-112395095D01*
X168465666Y-117800380D02*
X168465666Y-116800380D01*
X168465666Y-117276571D02*
X169037095Y-117276571D01*
X169037095Y-117800380D02*
X169037095Y-116800380D01*
X169370428Y-116800380D02*
X169703761Y-117800380D01*
X170037095Y-116800380D01*
X170370428Y-117419428D02*
X171132333Y-117419428D01*
X180094000Y-68579904D02*
X180046380Y-68675142D01*
X180046380Y-68818000D01*
X180094000Y-68960857D01*
X180189238Y-69056095D01*
X180284476Y-69103714D01*
X180474952Y-69151333D01*
X180617809Y-69151333D01*
X180808285Y-69103714D01*
X180903523Y-69056095D01*
X180998761Y-68960857D01*
X181046380Y-68818000D01*
X181046380Y-68722761D01*
X180998761Y-68579904D01*
X180951142Y-68532285D01*
X180617809Y-68532285D01*
X180617809Y-68722761D01*
X181046380Y-68103714D02*
X180046380Y-68103714D01*
X181046380Y-67532285D01*
X180046380Y-67532285D01*
X181046380Y-67056095D02*
X180046380Y-67056095D01*
X180046380Y-66818000D01*
X180094000Y-66675142D01*
X180189238Y-66579904D01*
X180284476Y-66532285D01*
X180474952Y-66484666D01*
X180617809Y-66484666D01*
X180808285Y-66532285D01*
X180903523Y-66579904D01*
X180998761Y-66675142D01*
X181046380Y-66818000D01*
X181046380Y-67056095D01*
X171132333Y-63047619D02*
X171132333Y-64047619D01*
X171132333Y-63571428D02*
X170560904Y-63571428D01*
X170560904Y-63047619D02*
X170560904Y-64047619D01*
X170227571Y-64047619D02*
X169894238Y-63047619D01*
X169560904Y-64047619D01*
X169227571Y-63428571D02*
X168465666Y-63428571D01*
X168846619Y-63047619D02*
X168846619Y-63809523D01*
X89701619Y-92662380D02*
X89701619Y-92757619D01*
X89654000Y-92852857D01*
X89606380Y-92900476D01*
X89511142Y-92948095D01*
X89320666Y-92995714D01*
X89082571Y-92995714D01*
X88892095Y-92948095D01*
X88796857Y-92900476D01*
X88749238Y-92852857D01*
X88701619Y-92757619D01*
X88701619Y-92662380D01*
X88749238Y-92567142D01*
X88796857Y-92519523D01*
X88892095Y-92471904D01*
X89082571Y-92424285D01*
X89320666Y-92424285D01*
X89511142Y-92471904D01*
X89606380Y-92519523D01*
X89654000Y-92567142D01*
X89701619Y-92662380D01*
X89701619Y-87836380D02*
X89701619Y-87931619D01*
X89654000Y-88026857D01*
X89606380Y-88074476D01*
X89511142Y-88122095D01*
X89320666Y-88169714D01*
X89082571Y-88169714D01*
X88892095Y-88122095D01*
X88796857Y-88074476D01*
X88749238Y-88026857D01*
X88701619Y-87931619D01*
X88701619Y-87836380D01*
X88749238Y-87741142D01*
X88796857Y-87693523D01*
X88892095Y-87645904D01*
X89082571Y-87598285D01*
X89320666Y-87598285D01*
X89511142Y-87645904D01*
X89606380Y-87693523D01*
X89654000Y-87741142D01*
X89701619Y-87836380D01*
X88701619Y-96647142D02*
X89701619Y-96647142D01*
X88701619Y-97123333D02*
X89701619Y-97123333D01*
X88701619Y-97694761D01*
X89701619Y-97694761D01*
X89082571Y-98170952D02*
X89082571Y-98932857D01*
X88701619Y-81661142D02*
X89701619Y-81661142D01*
X88701619Y-82137333D02*
X89701619Y-82137333D01*
X88701619Y-82708761D01*
X89701619Y-82708761D01*
X89082571Y-83184952D02*
X89082571Y-83946857D01*
X88701619Y-83565904D02*
X89463523Y-83565904D01*
D11*
X191228000Y-118497000D02*
X191228000Y-118097000D01*
X190588000Y-118497000D02*
X191228000Y-118497000D01*
X186920000Y-111955000D02*
X187316000Y-112350000D01*
X184274000Y-109309000D02*
X184654000Y-109689000D01*
X187202000Y-111704000D02*
X187582000Y-112084000D01*
X184540000Y-109043000D02*
X184936000Y-109438000D01*
X187209000Y-117245000D02*
X187316000Y-117351000D01*
X184274000Y-114309000D02*
X184381000Y-114416000D01*
X187475000Y-116979000D02*
X187582000Y-117085000D01*
X184540000Y-114043000D02*
X184647000Y-114150000D01*
X181868000Y-108137000D02*
X190988000Y-108137000D01*
X181868000Y-118257000D02*
X190988000Y-118257000D01*
X190988000Y-118257000D02*
X190988000Y-108137000D01*
X181868000Y-118257000D02*
X181868000Y-108137000D01*
X189428000Y-118257000D02*
X189428000Y-108137000D01*
X190528000Y-118257000D02*
X190528000Y-108137000D01*
X188108000Y-110697000D02*
G75*
G03*
X188108000Y-110697000I-2180000J0D01*
G01*
X188108000Y-115697000D02*
G75*
G03*
X188108000Y-115697000I-2180000J0D01*
G01*
X191228000Y-73158000D02*
X191228000Y-72758000D01*
X190588000Y-73158000D02*
X191228000Y-73158000D01*
X186920000Y-66616000D02*
X187316000Y-67011000D01*
X184274000Y-63970000D02*
X184654000Y-64350000D01*
X187202000Y-66365000D02*
X187582000Y-66745000D01*
X184540000Y-63704000D02*
X184936000Y-64099000D01*
X187209000Y-71906000D02*
X187316000Y-72012000D01*
X184274000Y-68970000D02*
X184381000Y-69077000D01*
X187475000Y-71640000D02*
X187582000Y-71746000D01*
X184540000Y-68704000D02*
X184647000Y-68811000D01*
X181868000Y-62798000D02*
X190988000Y-62798000D01*
X181868000Y-72918000D02*
X190988000Y-72918000D01*
X190988000Y-72918000D02*
X190988000Y-62798000D01*
X181868000Y-72918000D02*
X181868000Y-62798000D01*
X189428000Y-72918000D02*
X189428000Y-62798000D01*
X190528000Y-72918000D02*
X190528000Y-62798000D01*
X188108000Y-65358000D02*
G75*
G03*
X188108000Y-65358000I-2180000J0D01*
G01*
X188108000Y-70358000D02*
G75*
G03*
X188108000Y-70358000I-2180000J0D01*
G01*
X159506000Y-127982000D02*
X159906000Y-127982000D01*
X159506000Y-127342000D02*
X159506000Y-127982000D01*
X176048000Y-123674000D02*
X175653000Y-124070000D01*
X178694000Y-121028000D02*
X178314000Y-121408000D01*
X176299000Y-123956000D02*
X175919000Y-124336000D01*
X178960000Y-121294000D02*
X178565000Y-121690000D01*
X171048000Y-123674000D02*
X170653000Y-124070000D01*
X173694000Y-121028000D02*
X173314000Y-121408000D01*
X171299000Y-123956000D02*
X170919000Y-124336000D01*
X173960000Y-121294000D02*
X173565000Y-121690000D01*
X166048000Y-123674000D02*
X165653000Y-124070000D01*
X168694000Y-121028000D02*
X168314000Y-121408000D01*
X166299000Y-123956000D02*
X165919000Y-124336000D01*
X168960000Y-121294000D02*
X168565000Y-121690000D01*
X160758000Y-123963000D02*
X160652000Y-124070000D01*
X163694000Y-121028000D02*
X163587000Y-121135000D01*
X161024000Y-124229000D02*
X160918000Y-124336000D01*
X163960000Y-121294000D02*
X163853000Y-121401000D01*
X179867000Y-118622000D02*
X179867000Y-127742000D01*
X159746000Y-118622000D02*
X159746000Y-127742000D01*
X159746000Y-127742000D02*
X179867000Y-127742000D01*
X159746000Y-118622000D02*
X179867000Y-118622000D01*
X159746000Y-126182000D02*
X179867000Y-126182000D01*
X159746000Y-127282000D02*
X179867000Y-127282000D01*
X179486000Y-122682000D02*
G75*
G03*
X179486000Y-122682000I-2180000J0D01*
G01*
X174486000Y-122682000D02*
G75*
G03*
X174486000Y-122682000I-2180000J0D01*
G01*
X169486000Y-122682000D02*
G75*
G03*
X169486000Y-122682000I-2180000J0D01*
G01*
X164486000Y-122682000D02*
G75*
G03*
X164486000Y-122682000I-2180000J0D01*
G01*
X180092000Y-52866000D02*
X179692000Y-52866000D01*
X180092000Y-53506000D02*
X180092000Y-52866000D01*
X163550000Y-57174000D02*
X163945000Y-56778000D01*
X160904000Y-59820000D02*
X161284000Y-59440000D01*
X163299000Y-56892000D02*
X163679000Y-56512000D01*
X160638000Y-59554000D02*
X161033000Y-59158000D01*
X168550000Y-57174000D02*
X168945000Y-56778000D01*
X165904000Y-59820000D02*
X166284000Y-59440000D01*
X168299000Y-56892000D02*
X168679000Y-56512000D01*
X165638000Y-59554000D02*
X166033000Y-59158000D01*
X173550000Y-57174000D02*
X173945000Y-56778000D01*
X170904000Y-59820000D02*
X171284000Y-59440000D01*
X173299000Y-56892000D02*
X173679000Y-56512000D01*
X170638000Y-59554000D02*
X171033000Y-59158000D01*
X178840000Y-56885000D02*
X178946000Y-56778000D01*
X175904000Y-59820000D02*
X176011000Y-59713000D01*
X178574000Y-56619000D02*
X178680000Y-56512000D01*
X175638000Y-59554000D02*
X175745000Y-59447000D01*
X159731000Y-62226000D02*
X159731000Y-53106000D01*
X179852000Y-62226000D02*
X179852000Y-53106000D01*
X179852000Y-53106000D02*
X159731000Y-53106000D01*
X179852000Y-62226000D02*
X159731000Y-62226000D01*
X179852000Y-54666000D02*
X159731000Y-54666000D01*
X179852000Y-53566000D02*
X159731000Y-53566000D01*
X164472000Y-58166000D02*
G75*
G03*
X164472000Y-58166000I-2180000J0D01*
G01*
X169472000Y-58166000D02*
G75*
G03*
X169472000Y-58166000I-2180000J0D01*
G01*
X174472000Y-58166000D02*
G75*
G03*
X174472000Y-58166000I-2180000J0D01*
G01*
X179472000Y-58166000D02*
G75*
G03*
X179472000Y-58166000I-2180000J0D01*
G01*
X188116000Y-100005000D02*
G75*
G03*
X188116000Y-100005000I-1680000J0D01*
G01*
X188116000Y-96505000D02*
G75*
G03*
X188116000Y-96505000I-1680000J0D01*
G01*
X188116000Y-93005000D02*
G75*
G03*
X188116000Y-93005000I-1680000J0D01*
G01*
X190536000Y-105315000D02*
X190536000Y-91195000D01*
X189436000Y-105315000D02*
X189436000Y-91195000D01*
X183276000Y-105315000D02*
X183276000Y-91195000D01*
X190996000Y-105315000D02*
X190996000Y-91195000D01*
X183276000Y-105315000D02*
X190996000Y-105315000D01*
X183276000Y-91195000D02*
X190996000Y-91195000D01*
X185367000Y-98730000D02*
X185495000Y-98859000D01*
X187617000Y-100980000D02*
X187710000Y-101074000D01*
X185161000Y-98935000D02*
X185255000Y-99029000D01*
X187377000Y-101150000D02*
X187505000Y-101279000D01*
X185367000Y-95230000D02*
X185495000Y-95359000D01*
X187617000Y-97480000D02*
X187710000Y-97574000D01*
X185161000Y-95435000D02*
X185255000Y-95529000D01*
X187377000Y-97650000D02*
X187505000Y-97779000D01*
X185367000Y-91730000D02*
X185495000Y-91859000D01*
X187617000Y-93980000D02*
X187710000Y-94074000D01*
X185161000Y-91935000D02*
X185255000Y-92029000D01*
X187377000Y-94150000D02*
X187505000Y-94279000D01*
X190596000Y-105555000D02*
X191236000Y-105555000D01*
X191236000Y-105555000D02*
X191236000Y-105155000D01*
X188116099Y-103476326D02*
G75*
G02*
X187876000Y-104371000I-1680099J-28674D01*
G01*
X187325894Y-104930358D02*
G75*
G02*
X185570000Y-104945000I-889894J1425358D01*
G01*
X185010642Y-104394894D02*
G75*
G02*
X184996000Y-102639000I1425358J889894D01*
G01*
X185545807Y-102079495D02*
G75*
G02*
X187327000Y-102080000I890193J-1425505D01*
G01*
X187860721Y-102614736D02*
G75*
G02*
X188116000Y-103505000I-1424721J-890264D01*
G01*
X188116000Y-84384000D02*
G75*
G03*
X188116000Y-84384000I-1680000J0D01*
G01*
X188116000Y-80884000D02*
G75*
G03*
X188116000Y-80884000I-1680000J0D01*
G01*
X188116000Y-77384000D02*
G75*
G03*
X188116000Y-77384000I-1680000J0D01*
G01*
X190536000Y-89694000D02*
X190536000Y-75574000D01*
X189436000Y-89694000D02*
X189436000Y-75574000D01*
X183276000Y-89694000D02*
X183276000Y-75574000D01*
X190996000Y-89694000D02*
X190996000Y-75574000D01*
X183276000Y-89694000D02*
X190996000Y-89694000D01*
X183276000Y-75574000D02*
X190996000Y-75574000D01*
X185367000Y-83109000D02*
X185495000Y-83238000D01*
X187617000Y-85359000D02*
X187710000Y-85453000D01*
X185161000Y-83314000D02*
X185255000Y-83408000D01*
X187377000Y-85529000D02*
X187505000Y-85658000D01*
X185367000Y-79609000D02*
X185495000Y-79738000D01*
X187617000Y-81859000D02*
X187710000Y-81953000D01*
X185161000Y-79814000D02*
X185255000Y-79908000D01*
X187377000Y-82029000D02*
X187505000Y-82158000D01*
X185367000Y-76109000D02*
X185495000Y-76238000D01*
X187617000Y-78359000D02*
X187710000Y-78453000D01*
X185161000Y-76314000D02*
X185255000Y-76408000D01*
X187377000Y-78529000D02*
X187505000Y-78658000D01*
X190596000Y-89934000D02*
X191236000Y-89934000D01*
X191236000Y-89934000D02*
X191236000Y-89534000D01*
X188116099Y-87855326D02*
G75*
G02*
X187876000Y-88750000I-1680099J-28674D01*
G01*
X187325894Y-89309358D02*
G75*
G02*
X185570000Y-89324000I-889894J1425358D01*
G01*
X185010642Y-88773894D02*
G75*
G02*
X184996000Y-87018000I1425358J889894D01*
G01*
X185545807Y-86458495D02*
G75*
G02*
X187327000Y-86459000I890193J-1425505D01*
G01*
X187860721Y-86993736D02*
G75*
G02*
X188116000Y-87884000I-1424721J-890264D01*
G01*
X86000000Y-82931000D02*
G75*
G03*
X86000000Y-82931000I-2180000J0D01*
G01*
X86000000Y-87931000D02*
G75*
G03*
X86000000Y-87931000I-2180000J0D01*
G01*
X86000000Y-92931000D02*
G75*
G03*
X86000000Y-92931000I-2180000J0D01*
G01*
X86000000Y-97931000D02*
G75*
G03*
X86000000Y-97931000I-2180000J0D01*
G01*
X79220000Y-80371000D02*
X79220000Y-100492000D01*
X80320000Y-80371000D02*
X80320000Y-100492000D01*
X87880000Y-80371000D02*
X87880000Y-100492000D01*
X78760000Y-80371000D02*
X78760000Y-100492000D01*
X87880000Y-80371000D02*
X78760000Y-80371000D01*
X87880000Y-100492000D02*
X78760000Y-100492000D01*
X85208000Y-84585000D02*
X85101000Y-84478000D01*
X82273000Y-81649000D02*
X82166000Y-81543000D01*
X85474000Y-84319000D02*
X85367000Y-84212000D01*
X82539000Y-81383000D02*
X82432000Y-81277000D01*
X85208000Y-89585000D02*
X84812000Y-89190000D01*
X82546000Y-86924000D02*
X82166000Y-86544000D01*
X85474000Y-89319000D02*
X85094000Y-88939000D01*
X82828000Y-86673000D02*
X82432000Y-86278000D01*
X85208000Y-94585000D02*
X84812000Y-94190000D01*
X82546000Y-91924000D02*
X82166000Y-91544000D01*
X85474000Y-94319000D02*
X85094000Y-93939000D01*
X82828000Y-91673000D02*
X82432000Y-91278000D01*
X85208000Y-99585000D02*
X84812000Y-99190000D01*
X82546000Y-96924000D02*
X82166000Y-96544000D01*
X85474000Y-99319000D02*
X85094000Y-98939000D01*
X82828000Y-96673000D02*
X82432000Y-96278000D01*
X79160000Y-80131000D02*
X78520000Y-80131000D01*
X78520000Y-80131000D02*
X78520000Y-80531000D01*
X159352000Y-108378000D02*
G75*
G03*
X159352000Y-108378000I-17620000J0D01*
G01*
X159312000Y-108378000D02*
X124152000Y-108378000D01*
X159312000Y-108418000D02*
X124152000Y-108418000D01*
X159312000Y-108458000D02*
X124152000Y-108458000D01*
X159312000Y-108498000D02*
X124152000Y-108498000D01*
X159312000Y-108538000D02*
X124152000Y-108538000D01*
X159311000Y-108578000D02*
X124153000Y-108578000D01*
X159311000Y-108618000D02*
X124153000Y-108618000D01*
X159310000Y-108658000D02*
X124154000Y-108658000D01*
X159310000Y-108698000D02*
X124154000Y-108698000D01*
X159309000Y-108738000D02*
X124155000Y-108738000D01*
X159308000Y-108778000D02*
X124156000Y-108778000D01*
X159307000Y-108818000D02*
X124157000Y-108818000D01*
X159306000Y-108858000D02*
X124158000Y-108858000D01*
X159305000Y-108898000D02*
X124159000Y-108898000D01*
X159304000Y-108938000D02*
X124160000Y-108938000D01*
X159302000Y-108978000D02*
X124162000Y-108978000D01*
X159301000Y-109018000D02*
X124163000Y-109018000D01*
X159299000Y-109058000D02*
X124165000Y-109058000D01*
X159298000Y-109099000D02*
X124166000Y-109099000D01*
X159296000Y-109139000D02*
X124168000Y-109139000D01*
X159294000Y-109179000D02*
X124170000Y-109179000D01*
X159292000Y-109219000D02*
X124172000Y-109219000D01*
X159291000Y-109259000D02*
X124173000Y-109259000D01*
X159288000Y-109299000D02*
X124176000Y-109299000D01*
X159286000Y-109339000D02*
X124178000Y-109339000D01*
X159284000Y-109379000D02*
X124180000Y-109379000D01*
X159282000Y-109419000D02*
X124182000Y-109419000D01*
X159279000Y-109459000D02*
X124185000Y-109459000D01*
X159277000Y-109499000D02*
X124187000Y-109499000D01*
X159274000Y-109539000D02*
X124190000Y-109539000D01*
X159272000Y-109579000D02*
X124192000Y-109579000D01*
X159269000Y-109619000D02*
X124195000Y-109619000D01*
X159266000Y-109659000D02*
X124198000Y-109659000D01*
X159263000Y-109699000D02*
X124201000Y-109699000D01*
X159260000Y-109739000D02*
X124204000Y-109739000D01*
X159257000Y-109779000D02*
X124207000Y-109779000D01*
X159254000Y-109819000D02*
X124210000Y-109819000D01*
X159250000Y-109859000D02*
X124214000Y-109859000D01*
X159247000Y-109899000D02*
X124217000Y-109899000D01*
X159243000Y-109939000D02*
X124221000Y-109939000D01*
X159240000Y-109979000D02*
X124224000Y-109979000D01*
X159236000Y-110019000D02*
X124228000Y-110019000D01*
X159232000Y-110059000D02*
X124232000Y-110059000D01*
X159228000Y-110099000D02*
X124236000Y-110099000D01*
X159224000Y-110139000D02*
X124240000Y-110139000D01*
X159220000Y-110179000D02*
X124244000Y-110179000D01*
X159216000Y-110219000D02*
X124248000Y-110219000D01*
X159212000Y-110259000D02*
X124252000Y-110259000D01*
X159208000Y-110299000D02*
X124256000Y-110299000D01*
X159203000Y-110339000D02*
X124261000Y-110339000D01*
X159199000Y-110379000D02*
X124265000Y-110379000D01*
X159194000Y-110419000D02*
X124270000Y-110419000D01*
X159189000Y-110459000D02*
X124275000Y-110459000D01*
X159184000Y-110499000D02*
X124280000Y-110499000D01*
X159180000Y-110539000D02*
X124284000Y-110539000D01*
X159175000Y-110579000D02*
X124289000Y-110579000D01*
X159170000Y-110619000D02*
X124294000Y-110619000D01*
X159164000Y-110659000D02*
X124300000Y-110659000D01*
X159159000Y-110699000D02*
X124305000Y-110699000D01*
X159154000Y-110739000D02*
X124310000Y-110739000D01*
X159148000Y-110779000D02*
X124316000Y-110779000D01*
X159143000Y-110819000D02*
X124321000Y-110819000D01*
X159137000Y-110859000D02*
X124327000Y-110859000D01*
X159131000Y-110899000D02*
X124333000Y-110899000D01*
X159126000Y-110939000D02*
X124338000Y-110939000D01*
X159120000Y-110979000D02*
X124344000Y-110979000D01*
X159114000Y-111019000D02*
X124350000Y-111019000D01*
X159107000Y-111059000D02*
X124357000Y-111059000D01*
X159101000Y-111099000D02*
X124363000Y-111099000D01*
X159095000Y-111139000D02*
X143972000Y-111139000D01*
X139492000Y-111139000D02*
X124369000Y-111139000D01*
X159089000Y-111179000D02*
X143972000Y-111179000D01*
X139492000Y-111179000D02*
X124375000Y-111179000D01*
X159082000Y-111219000D02*
X143972000Y-111219000D01*
X139492000Y-111219000D02*
X124382000Y-111219000D01*
X159076000Y-111259000D02*
X143972000Y-111259000D01*
X139492000Y-111259000D02*
X124388000Y-111259000D01*
X159069000Y-111299000D02*
X143972000Y-111299000D01*
X139492000Y-111299000D02*
X124395000Y-111299000D01*
X159062000Y-111339000D02*
X143972000Y-111339000D01*
X139492000Y-111339000D02*
X124402000Y-111339000D01*
X159055000Y-111379000D02*
X143972000Y-111379000D01*
X139492000Y-111379000D02*
X124409000Y-111379000D01*
X159048000Y-111419000D02*
X143972000Y-111419000D01*
X139492000Y-111419000D02*
X124416000Y-111419000D01*
X159041000Y-111459000D02*
X143972000Y-111459000D01*
X139492000Y-111459000D02*
X124423000Y-111459000D01*
X159034000Y-111499000D02*
X143972000Y-111499000D01*
X139492000Y-111499000D02*
X124430000Y-111499000D01*
X159027000Y-111539000D02*
X143972000Y-111539000D01*
X139492000Y-111539000D02*
X124437000Y-111539000D01*
X159019000Y-111579000D02*
X143972000Y-111579000D01*
X139492000Y-111579000D02*
X124445000Y-111579000D01*
X159012000Y-111619000D02*
X143972000Y-111619000D01*
X139492000Y-111619000D02*
X124452000Y-111619000D01*
X159005000Y-111659000D02*
X143972000Y-111659000D01*
X139492000Y-111659000D02*
X124459000Y-111659000D01*
X158997000Y-111699000D02*
X143972000Y-111699000D01*
X139492000Y-111699000D02*
X124467000Y-111699000D01*
X158989000Y-111739000D02*
X143972000Y-111739000D01*
X139492000Y-111739000D02*
X124475000Y-111739000D01*
X158981000Y-111779000D02*
X143972000Y-111779000D01*
X139492000Y-111779000D02*
X124483000Y-111779000D01*
X158973000Y-111819000D02*
X143972000Y-111819000D01*
X139492000Y-111819000D02*
X124491000Y-111819000D01*
X158965000Y-111859000D02*
X143972000Y-111859000D01*
X139492000Y-111859000D02*
X124499000Y-111859000D01*
X158957000Y-111899000D02*
X143972000Y-111899000D01*
X139492000Y-111899000D02*
X124507000Y-111899000D01*
X158949000Y-111939000D02*
X143972000Y-111939000D01*
X139492000Y-111939000D02*
X124515000Y-111939000D01*
X158941000Y-111979000D02*
X143972000Y-111979000D01*
X139492000Y-111979000D02*
X124523000Y-111979000D01*
X158932000Y-112019000D02*
X143972000Y-112019000D01*
X139492000Y-112019000D02*
X124532000Y-112019000D01*
X158924000Y-112059000D02*
X143972000Y-112059000D01*
X139492000Y-112059000D02*
X124540000Y-112059000D01*
X158915000Y-112099000D02*
X143972000Y-112099000D01*
X139492000Y-112099000D02*
X124549000Y-112099000D01*
X158907000Y-112139000D02*
X143972000Y-112139000D01*
X139492000Y-112139000D02*
X124557000Y-112139000D01*
X158898000Y-112179000D02*
X143972000Y-112179000D01*
X139492000Y-112179000D02*
X124566000Y-112179000D01*
X158889000Y-112219000D02*
X143972000Y-112219000D01*
X139492000Y-112219000D02*
X124575000Y-112219000D01*
X158880000Y-112259000D02*
X143972000Y-112259000D01*
X139492000Y-112259000D02*
X124584000Y-112259000D01*
X158871000Y-112299000D02*
X143972000Y-112299000D01*
X139492000Y-112299000D02*
X124593000Y-112299000D01*
X158862000Y-112339000D02*
X143972000Y-112339000D01*
X139492000Y-112339000D02*
X124602000Y-112339000D01*
X158852000Y-112379000D02*
X143972000Y-112379000D01*
X139492000Y-112379000D02*
X124612000Y-112379000D01*
X158843000Y-112419000D02*
X143972000Y-112419000D01*
X139492000Y-112419000D02*
X124621000Y-112419000D01*
X158834000Y-112459000D02*
X143972000Y-112459000D01*
X139492000Y-112459000D02*
X124630000Y-112459000D01*
X158824000Y-112499000D02*
X143972000Y-112499000D01*
X139492000Y-112499000D02*
X124640000Y-112499000D01*
X158814000Y-112539000D02*
X143972000Y-112539000D01*
X139492000Y-112539000D02*
X124650000Y-112539000D01*
X158805000Y-112579000D02*
X143972000Y-112579000D01*
X139492000Y-112579000D02*
X124659000Y-112579000D01*
X158795000Y-112619000D02*
X143972000Y-112619000D01*
X139492000Y-112619000D02*
X124669000Y-112619000D01*
X158785000Y-112659000D02*
X143972000Y-112659000D01*
X139492000Y-112659000D02*
X124679000Y-112659000D01*
X158775000Y-112699000D02*
X143972000Y-112699000D01*
X139492000Y-112699000D02*
X124689000Y-112699000D01*
X158765000Y-112739000D02*
X143972000Y-112739000D01*
X139492000Y-112739000D02*
X124699000Y-112739000D01*
X158754000Y-112779000D02*
X143972000Y-112779000D01*
X139492000Y-112779000D02*
X124710000Y-112779000D01*
X158744000Y-112819000D02*
X143972000Y-112819000D01*
X139492000Y-112819000D02*
X124720000Y-112819000D01*
X158733000Y-112859000D02*
X143972000Y-112859000D01*
X139492000Y-112859000D02*
X124731000Y-112859000D01*
X158723000Y-112899000D02*
X143972000Y-112899000D01*
X139492000Y-112899000D02*
X124741000Y-112899000D01*
X158712000Y-112939000D02*
X143972000Y-112939000D01*
X139492000Y-112939000D02*
X124752000Y-112939000D01*
X158701000Y-112979000D02*
X143972000Y-112979000D01*
X139492000Y-112979000D02*
X124763000Y-112979000D01*
X158691000Y-113019000D02*
X143972000Y-113019000D01*
X139492000Y-113019000D02*
X124773000Y-113019000D01*
X158680000Y-113059000D02*
X143972000Y-113059000D01*
X139492000Y-113059000D02*
X124784000Y-113059000D01*
X158669000Y-113099000D02*
X143972000Y-113099000D01*
X139492000Y-113099000D02*
X124795000Y-113099000D01*
X158657000Y-113139000D02*
X143972000Y-113139000D01*
X139492000Y-113139000D02*
X124807000Y-113139000D01*
X158646000Y-113179000D02*
X143972000Y-113179000D01*
X139492000Y-113179000D02*
X124818000Y-113179000D01*
X158635000Y-113219000D02*
X143972000Y-113219000D01*
X139492000Y-113219000D02*
X124829000Y-113219000D01*
X158623000Y-113259000D02*
X143972000Y-113259000D01*
X139492000Y-113259000D02*
X124841000Y-113259000D01*
X158612000Y-113299000D02*
X143972000Y-113299000D01*
X139492000Y-113299000D02*
X124852000Y-113299000D01*
X158600000Y-113339000D02*
X143972000Y-113339000D01*
X139492000Y-113339000D02*
X124864000Y-113339000D01*
X158588000Y-113379000D02*
X143972000Y-113379000D01*
X139492000Y-113379000D02*
X124876000Y-113379000D01*
X158576000Y-113419000D02*
X143972000Y-113419000D01*
X139492000Y-113419000D02*
X124888000Y-113419000D01*
X158564000Y-113459000D02*
X143972000Y-113459000D01*
X139492000Y-113459000D02*
X124900000Y-113459000D01*
X158552000Y-113499000D02*
X143972000Y-113499000D01*
X139492000Y-113499000D02*
X124912000Y-113499000D01*
X158540000Y-113539000D02*
X143972000Y-113539000D01*
X139492000Y-113539000D02*
X124924000Y-113539000D01*
X158528000Y-113579000D02*
X143972000Y-113579000D01*
X139492000Y-113579000D02*
X124936000Y-113579000D01*
X158515000Y-113619000D02*
X143972000Y-113619000D01*
X139492000Y-113619000D02*
X124949000Y-113619000D01*
X158503000Y-113659000D02*
X143972000Y-113659000D01*
X139492000Y-113659000D02*
X124961000Y-113659000D01*
X158490000Y-113699000D02*
X143972000Y-113699000D01*
X139492000Y-113699000D02*
X124974000Y-113699000D01*
X158477000Y-113739000D02*
X143972000Y-113739000D01*
X139492000Y-113739000D02*
X124987000Y-113739000D01*
X158465000Y-113779000D02*
X143972000Y-113779000D01*
X139492000Y-113779000D02*
X124999000Y-113779000D01*
X158452000Y-113819000D02*
X143972000Y-113819000D01*
X139492000Y-113819000D02*
X125012000Y-113819000D01*
X158439000Y-113859000D02*
X143972000Y-113859000D01*
X139492000Y-113859000D02*
X125025000Y-113859000D01*
X158426000Y-113899000D02*
X143972000Y-113899000D01*
X139492000Y-113899000D02*
X125038000Y-113899000D01*
X158412000Y-113939000D02*
X143972000Y-113939000D01*
X139492000Y-113939000D02*
X125052000Y-113939000D01*
X158399000Y-113979000D02*
X143972000Y-113979000D01*
X139492000Y-113979000D02*
X125065000Y-113979000D01*
X158385000Y-114019000D02*
X143972000Y-114019000D01*
X139492000Y-114019000D02*
X125079000Y-114019000D01*
X158372000Y-114059000D02*
X143972000Y-114059000D01*
X139492000Y-114059000D02*
X125092000Y-114059000D01*
X158358000Y-114099000D02*
X143972000Y-114099000D01*
X139492000Y-114099000D02*
X125106000Y-114099000D01*
X158344000Y-114139000D02*
X143972000Y-114139000D01*
X139492000Y-114139000D02*
X125120000Y-114139000D01*
X158331000Y-114179000D02*
X143972000Y-114179000D01*
X139492000Y-114179000D02*
X125133000Y-114179000D01*
X158317000Y-114219000D02*
X143972000Y-114219000D01*
X139492000Y-114219000D02*
X125147000Y-114219000D01*
X158302000Y-114259000D02*
X143972000Y-114259000D01*
X139492000Y-114259000D02*
X125162000Y-114259000D01*
X158288000Y-114299000D02*
X143972000Y-114299000D01*
X139492000Y-114299000D02*
X125176000Y-114299000D01*
X158274000Y-114339000D02*
X143972000Y-114339000D01*
X139492000Y-114339000D02*
X125190000Y-114339000D01*
X158259000Y-114379000D02*
X143972000Y-114379000D01*
X139492000Y-114379000D02*
X125205000Y-114379000D01*
X158245000Y-114419000D02*
X143972000Y-114419000D01*
X139492000Y-114419000D02*
X125219000Y-114419000D01*
X158230000Y-114459000D02*
X143972000Y-114459000D01*
X139492000Y-114459000D02*
X125234000Y-114459000D01*
X158216000Y-114499000D02*
X143972000Y-114499000D01*
X139492000Y-114499000D02*
X125248000Y-114499000D01*
X158201000Y-114539000D02*
X143972000Y-114539000D01*
X139492000Y-114539000D02*
X125263000Y-114539000D01*
X158186000Y-114579000D02*
X143972000Y-114579000D01*
X139492000Y-114579000D02*
X125278000Y-114579000D01*
X158171000Y-114619000D02*
X143972000Y-114619000D01*
X139492000Y-114619000D02*
X125293000Y-114619000D01*
X158155000Y-114659000D02*
X143972000Y-114659000D01*
X139492000Y-114659000D02*
X125309000Y-114659000D01*
X158140000Y-114699000D02*
X143972000Y-114699000D01*
X139492000Y-114699000D02*
X125324000Y-114699000D01*
X158125000Y-114739000D02*
X143972000Y-114739000D01*
X139492000Y-114739000D02*
X125339000Y-114739000D01*
X158109000Y-114779000D02*
X143972000Y-114779000D01*
X139492000Y-114779000D02*
X125355000Y-114779000D01*
X158093000Y-114819000D02*
X143972000Y-114819000D01*
X139492000Y-114819000D02*
X125371000Y-114819000D01*
X158078000Y-114859000D02*
X143972000Y-114859000D01*
X139492000Y-114859000D02*
X125386000Y-114859000D01*
X158062000Y-114899000D02*
X143972000Y-114899000D01*
X139492000Y-114899000D02*
X125402000Y-114899000D01*
X158046000Y-114939000D02*
X143972000Y-114939000D01*
X139492000Y-114939000D02*
X125418000Y-114939000D01*
X158030000Y-114979000D02*
X143972000Y-114979000D01*
X139492000Y-114979000D02*
X125434000Y-114979000D01*
X158013000Y-115019000D02*
X143972000Y-115019000D01*
X139492000Y-115019000D02*
X125451000Y-115019000D01*
X157997000Y-115059000D02*
X143972000Y-115059000D01*
X139492000Y-115059000D02*
X125467000Y-115059000D01*
X157981000Y-115099000D02*
X143972000Y-115099000D01*
X139492000Y-115099000D02*
X125483000Y-115099000D01*
X157964000Y-115139000D02*
X143972000Y-115139000D01*
X139492000Y-115139000D02*
X125500000Y-115139000D01*
X157947000Y-115179000D02*
X143972000Y-115179000D01*
X139492000Y-115179000D02*
X125517000Y-115179000D01*
X157931000Y-115219000D02*
X143972000Y-115219000D01*
X139492000Y-115219000D02*
X125533000Y-115219000D01*
X157914000Y-115259000D02*
X143972000Y-115259000D01*
X139492000Y-115259000D02*
X125550000Y-115259000D01*
X157897000Y-115299000D02*
X143972000Y-115299000D01*
X139492000Y-115299000D02*
X125567000Y-115299000D01*
X157880000Y-115339000D02*
X143972000Y-115339000D01*
X139492000Y-115339000D02*
X125584000Y-115339000D01*
X157862000Y-115379000D02*
X143972000Y-115379000D01*
X139492000Y-115379000D02*
X125602000Y-115379000D01*
X157845000Y-115419000D02*
X143972000Y-115419000D01*
X139492000Y-115419000D02*
X125619000Y-115419000D01*
X157827000Y-115459000D02*
X143972000Y-115459000D01*
X139492000Y-115459000D02*
X125637000Y-115459000D01*
X157810000Y-115499000D02*
X143972000Y-115499000D01*
X139492000Y-115499000D02*
X125654000Y-115499000D01*
X157792000Y-115539000D02*
X143972000Y-115539000D01*
X139492000Y-115539000D02*
X125672000Y-115539000D01*
X157774000Y-115579000D02*
X143972000Y-115579000D01*
X139492000Y-115579000D02*
X125690000Y-115579000D01*
X157756000Y-115619000D02*
X125708000Y-115619000D01*
X157738000Y-115659000D02*
X125726000Y-115659000D01*
X157720000Y-115699000D02*
X125744000Y-115699000D01*
X157702000Y-115739000D02*
X125762000Y-115739000D01*
X157683000Y-115779000D02*
X125781000Y-115779000D01*
X157665000Y-115819000D02*
X125799000Y-115819000D01*
X157646000Y-115859000D02*
X125818000Y-115859000D01*
X157627000Y-115899000D02*
X125837000Y-115899000D01*
X157608000Y-115939000D02*
X125856000Y-115939000D01*
X157589000Y-115979000D02*
X125875000Y-115979000D01*
X157570000Y-116019000D02*
X125894000Y-116019000D01*
X157551000Y-116059000D02*
X125913000Y-116059000D01*
X157531000Y-116099000D02*
X125933000Y-116099000D01*
X157512000Y-116139000D02*
X125952000Y-116139000D01*
X157492000Y-116179000D02*
X125972000Y-116179000D01*
X157472000Y-116219000D02*
X125992000Y-116219000D01*
X157452000Y-116259000D02*
X126012000Y-116259000D01*
X157432000Y-116299000D02*
X126032000Y-116299000D01*
X157412000Y-116339000D02*
X126052000Y-116339000D01*
X157392000Y-116379000D02*
X126072000Y-116379000D01*
X157371000Y-116419000D02*
X126093000Y-116419000D01*
X157351000Y-116459000D02*
X126113000Y-116459000D01*
X157330000Y-116499000D02*
X126134000Y-116499000D01*
X157309000Y-116539000D02*
X126155000Y-116539000D01*
X157288000Y-116578000D02*
X126176000Y-116578000D01*
X157267000Y-116618000D02*
X126197000Y-116618000D01*
X157246000Y-116658000D02*
X126218000Y-116658000D01*
X157224000Y-116698000D02*
X126240000Y-116698000D01*
X157203000Y-116738000D02*
X126261000Y-116738000D01*
X157181000Y-116778000D02*
X126283000Y-116778000D01*
X157160000Y-116818000D02*
X126304000Y-116818000D01*
X157138000Y-116858000D02*
X126326000Y-116858000D01*
X157116000Y-116898000D02*
X126348000Y-116898000D01*
X157093000Y-116938000D02*
X126371000Y-116938000D01*
X157071000Y-116978000D02*
X126393000Y-116978000D01*
X157049000Y-117018000D02*
X126415000Y-117018000D01*
X157026000Y-117058000D02*
X126438000Y-117058000D01*
X157003000Y-117098000D02*
X126461000Y-117098000D01*
X156981000Y-117138000D02*
X126483000Y-117138000D01*
X156958000Y-117178000D02*
X126506000Y-117178000D01*
X156935000Y-117218000D02*
X126529000Y-117218000D01*
X156911000Y-117258000D02*
X126553000Y-117258000D01*
X156888000Y-117298000D02*
X126576000Y-117298000D01*
X156864000Y-117338000D02*
X126600000Y-117338000D01*
X156841000Y-117378000D02*
X126623000Y-117378000D01*
X156817000Y-117418000D02*
X126647000Y-117418000D01*
X156793000Y-117458000D02*
X126671000Y-117458000D01*
X156769000Y-117498000D02*
X126695000Y-117498000D01*
X156744000Y-117538000D02*
X126720000Y-117538000D01*
X156720000Y-117578000D02*
X126744000Y-117578000D01*
X156695000Y-117618000D02*
X126769000Y-117618000D01*
X156671000Y-117658000D02*
X126793000Y-117658000D01*
X156646000Y-117698000D02*
X126818000Y-117698000D01*
X156621000Y-117738000D02*
X126843000Y-117738000D01*
X156596000Y-117778000D02*
X126868000Y-117778000D01*
X156570000Y-117818000D02*
X126894000Y-117818000D01*
X156545000Y-117858000D02*
X126919000Y-117858000D01*
X156519000Y-117898000D02*
X126945000Y-117898000D01*
X156494000Y-117938000D02*
X126970000Y-117938000D01*
X156468000Y-117978000D02*
X126996000Y-117978000D01*
X156442000Y-118018000D02*
X127022000Y-118018000D01*
X156415000Y-118058000D02*
X127049000Y-118058000D01*
X156389000Y-118098000D02*
X127075000Y-118098000D01*
X156362000Y-118138000D02*
X127102000Y-118138000D01*
X156336000Y-118178000D02*
X127128000Y-118178000D01*
X156309000Y-118218000D02*
X127155000Y-118218000D01*
X156282000Y-118258000D02*
X127182000Y-118258000D01*
X156255000Y-118298000D02*
X127209000Y-118298000D01*
X156227000Y-118338000D02*
X127237000Y-118338000D01*
X156200000Y-118378000D02*
X127264000Y-118378000D01*
X156172000Y-118418000D02*
X127292000Y-118418000D01*
X156144000Y-118458000D02*
X127320000Y-118458000D01*
X156116000Y-118498000D02*
X127348000Y-118498000D01*
X156088000Y-118538000D02*
X127376000Y-118538000D01*
X156060000Y-118578000D02*
X127404000Y-118578000D01*
X156031000Y-118618000D02*
X127433000Y-118618000D01*
X156003000Y-118658000D02*
X127461000Y-118658000D01*
X155974000Y-118698000D02*
X127490000Y-118698000D01*
X155945000Y-118738000D02*
X127519000Y-118738000D01*
X155916000Y-118778000D02*
X127548000Y-118778000D01*
X155887000Y-118818000D02*
X127577000Y-118818000D01*
X155857000Y-118858000D02*
X127607000Y-118858000D01*
X155827000Y-118898000D02*
X127637000Y-118898000D01*
X155797000Y-118938000D02*
X127667000Y-118938000D01*
X155767000Y-118978000D02*
X127697000Y-118978000D01*
X155737000Y-119018000D02*
X127727000Y-119018000D01*
X155707000Y-119058000D02*
X127757000Y-119058000D01*
X155676000Y-119098000D02*
X127788000Y-119098000D01*
X155646000Y-119138000D02*
X127818000Y-119138000D01*
X155615000Y-119178000D02*
X127849000Y-119178000D01*
X155583000Y-119218000D02*
X127881000Y-119218000D01*
X155552000Y-119258000D02*
X127912000Y-119258000D01*
X155521000Y-119298000D02*
X127943000Y-119298000D01*
X155489000Y-119338000D02*
X127975000Y-119338000D01*
X155457000Y-119378000D02*
X128007000Y-119378000D01*
X155425000Y-119418000D02*
X128039000Y-119418000D01*
X155393000Y-119458000D02*
X128071000Y-119458000D01*
X155360000Y-119498000D02*
X128104000Y-119498000D01*
X155328000Y-119538000D02*
X128136000Y-119538000D01*
X155295000Y-119578000D02*
X128169000Y-119578000D01*
X155262000Y-119618000D02*
X128202000Y-119618000D01*
X155229000Y-119658000D02*
X128235000Y-119658000D01*
X155195000Y-119698000D02*
X128269000Y-119698000D01*
X155162000Y-119738000D02*
X128302000Y-119738000D01*
X155128000Y-119778000D02*
X128336000Y-119778000D01*
X155094000Y-119818000D02*
X128370000Y-119818000D01*
X155059000Y-119858000D02*
X128405000Y-119858000D01*
X155025000Y-119898000D02*
X128439000Y-119898000D01*
X154990000Y-119938000D02*
X128474000Y-119938000D01*
X154955000Y-119978000D02*
X128509000Y-119978000D01*
X154920000Y-120018000D02*
X128544000Y-120018000D01*
X154885000Y-120058000D02*
X128579000Y-120058000D01*
X154849000Y-120098000D02*
X128615000Y-120098000D01*
X154814000Y-120138000D02*
X128650000Y-120138000D01*
X154778000Y-120178000D02*
X128686000Y-120178000D01*
X154742000Y-120218000D02*
X128722000Y-120218000D01*
X154705000Y-120258000D02*
X128759000Y-120258000D01*
X154669000Y-120298000D02*
X128795000Y-120298000D01*
X154632000Y-120338000D02*
X128832000Y-120338000D01*
X154595000Y-120378000D02*
X128869000Y-120378000D01*
X154557000Y-120418000D02*
X128907000Y-120418000D01*
X154520000Y-120458000D02*
X128944000Y-120458000D01*
X154482000Y-120498000D02*
X128982000Y-120498000D01*
X154444000Y-120538000D02*
X129020000Y-120538000D01*
X154406000Y-120578000D02*
X129058000Y-120578000D01*
X154367000Y-120618000D02*
X129097000Y-120618000D01*
X154328000Y-120658000D02*
X129136000Y-120658000D01*
X154289000Y-120698000D02*
X129175000Y-120698000D01*
X154250000Y-120738000D02*
X129214000Y-120738000D01*
X154211000Y-120778000D02*
X129253000Y-120778000D01*
X154171000Y-120818000D02*
X129293000Y-120818000D01*
X154131000Y-120858000D02*
X129333000Y-120858000D01*
X154091000Y-120898000D02*
X129373000Y-120898000D01*
X154050000Y-120938000D02*
X129414000Y-120938000D01*
X154009000Y-120978000D02*
X129455000Y-120978000D01*
X153968000Y-121018000D02*
X129496000Y-121018000D01*
X153927000Y-121058000D02*
X129537000Y-121058000D01*
X153885000Y-121098000D02*
X129579000Y-121098000D01*
X153843000Y-121138000D02*
X129621000Y-121138000D01*
X153801000Y-121178000D02*
X129663000Y-121178000D01*
X153759000Y-121218000D02*
X129705000Y-121218000D01*
X153716000Y-121258000D02*
X129748000Y-121258000D01*
X153673000Y-121298000D02*
X129791000Y-121298000D01*
X153630000Y-121338000D02*
X129834000Y-121338000D01*
X153586000Y-121378000D02*
X129878000Y-121378000D01*
X153543000Y-121418000D02*
X129921000Y-121418000D01*
X153498000Y-121458000D02*
X129966000Y-121458000D01*
X153454000Y-121498000D02*
X130010000Y-121498000D01*
X153409000Y-121538000D02*
X130055000Y-121538000D01*
X153364000Y-121578000D02*
X130100000Y-121578000D01*
X153319000Y-121618000D02*
X130145000Y-121618000D01*
X153273000Y-121658000D02*
X130191000Y-121658000D01*
X153227000Y-121698000D02*
X130237000Y-121698000D01*
X153181000Y-121738000D02*
X130283000Y-121738000D01*
X153134000Y-121778000D02*
X130330000Y-121778000D01*
X153087000Y-121818000D02*
X130377000Y-121818000D01*
X153039000Y-121858000D02*
X130425000Y-121858000D01*
X152992000Y-121898000D02*
X130472000Y-121898000D01*
X152944000Y-121938000D02*
X130520000Y-121938000D01*
X152895000Y-121978000D02*
X130569000Y-121978000D01*
X152847000Y-122018000D02*
X130617000Y-122018000D01*
X152798000Y-122058000D02*
X130666000Y-122058000D01*
X152748000Y-122098000D02*
X130716000Y-122098000D01*
X152698000Y-122138000D02*
X130766000Y-122138000D01*
X152648000Y-122178000D02*
X130816000Y-122178000D01*
X152597000Y-122218000D02*
X130867000Y-122218000D01*
X152547000Y-122258000D02*
X130917000Y-122258000D01*
X152495000Y-122298000D02*
X130969000Y-122298000D01*
X152443000Y-122338000D02*
X131021000Y-122338000D01*
X152391000Y-122378000D02*
X131073000Y-122378000D01*
X152339000Y-122418000D02*
X131125000Y-122418000D01*
X152286000Y-122458000D02*
X131178000Y-122458000D01*
X152232000Y-122498000D02*
X131232000Y-122498000D01*
X152179000Y-122538000D02*
X131285000Y-122538000D01*
X152124000Y-122578000D02*
X131340000Y-122578000D01*
X152070000Y-122618000D02*
X131394000Y-122618000D01*
X152015000Y-122658000D02*
X131449000Y-122658000D01*
X151959000Y-122698000D02*
X131505000Y-122698000D01*
X151903000Y-122738000D02*
X131561000Y-122738000D01*
X151847000Y-122778000D02*
X131617000Y-122778000D01*
X151790000Y-122818000D02*
X131674000Y-122818000D01*
X151732000Y-122858000D02*
X131732000Y-122858000D01*
X151674000Y-122898000D02*
X131790000Y-122898000D01*
X151616000Y-122938000D02*
X131848000Y-122938000D01*
X151557000Y-122978000D02*
X131907000Y-122978000D01*
X151497000Y-123018000D02*
X131967000Y-123018000D01*
X151437000Y-123058000D02*
X132027000Y-123058000D01*
X151377000Y-123098000D02*
X132087000Y-123098000D01*
X151316000Y-123138000D02*
X132148000Y-123138000D01*
X151254000Y-123178000D02*
X132210000Y-123178000D01*
X151192000Y-123218000D02*
X132272000Y-123218000D01*
X151129000Y-123258000D02*
X132335000Y-123258000D01*
X151066000Y-123298000D02*
X132398000Y-123298000D01*
X151002000Y-123338000D02*
X132462000Y-123338000D01*
X150937000Y-123378000D02*
X132527000Y-123378000D01*
X150872000Y-123418000D02*
X132592000Y-123418000D01*
X150806000Y-123458000D02*
X132658000Y-123458000D01*
X150740000Y-123498000D02*
X132724000Y-123498000D01*
X150672000Y-123538000D02*
X132792000Y-123538000D01*
X150605000Y-123578000D02*
X132859000Y-123578000D01*
X150536000Y-123618000D02*
X132928000Y-123618000D01*
X150467000Y-123658000D02*
X132997000Y-123658000D01*
X150397000Y-123698000D02*
X133067000Y-123698000D01*
X150326000Y-123738000D02*
X133138000Y-123738000D01*
X150254000Y-123778000D02*
X133210000Y-123778000D01*
X150182000Y-123818000D02*
X133282000Y-123818000D01*
X150109000Y-123858000D02*
X133355000Y-123858000D01*
X150035000Y-123898000D02*
X133429000Y-123898000D01*
X149960000Y-123938000D02*
X133504000Y-123938000D01*
X149884000Y-123978000D02*
X133580000Y-123978000D01*
X149808000Y-124018000D02*
X133656000Y-124018000D01*
X149730000Y-124058000D02*
X133734000Y-124058000D01*
X149652000Y-124098000D02*
X133812000Y-124098000D01*
X149572000Y-124138000D02*
X133892000Y-124138000D01*
X149491000Y-124178000D02*
X133973000Y-124178000D01*
X149410000Y-124218000D02*
X134054000Y-124218000D01*
X149327000Y-124258000D02*
X134137000Y-124258000D01*
X149244000Y-124298000D02*
X134220000Y-124298000D01*
X149159000Y-124338000D02*
X134305000Y-124338000D01*
X149073000Y-124378000D02*
X134391000Y-124378000D01*
X148985000Y-124418000D02*
X134479000Y-124418000D01*
X148897000Y-124458000D02*
X134567000Y-124458000D01*
X148807000Y-124498000D02*
X134657000Y-124498000D01*
X148715000Y-124538000D02*
X134749000Y-124538000D01*
X148622000Y-124578000D02*
X134842000Y-124578000D01*
X148528000Y-124618000D02*
X134936000Y-124618000D01*
X148432000Y-124658000D02*
X135032000Y-124658000D01*
X148335000Y-124698000D02*
X135129000Y-124698000D01*
X148236000Y-124738000D02*
X135228000Y-124738000D01*
X148135000Y-124778000D02*
X135329000Y-124778000D01*
X148032000Y-124818000D02*
X135432000Y-124818000D01*
X147927000Y-124858000D02*
X135537000Y-124858000D01*
X147821000Y-124898000D02*
X135643000Y-124898000D01*
X147712000Y-124938000D02*
X135752000Y-124938000D01*
X147600000Y-124978000D02*
X135864000Y-124978000D01*
X147487000Y-125018000D02*
X135977000Y-125018000D01*
X147371000Y-125058000D02*
X136093000Y-125058000D01*
X147252000Y-125098000D02*
X136212000Y-125098000D01*
X147130000Y-125138000D02*
X136334000Y-125138000D01*
X147005000Y-125178000D02*
X136459000Y-125178000D01*
X146877000Y-125218000D02*
X136587000Y-125218000D01*
X146745000Y-125258000D02*
X136719000Y-125258000D01*
X146610000Y-125298000D02*
X136854000Y-125298000D01*
X146470000Y-125338000D02*
X136994000Y-125338000D01*
X146325000Y-125378000D02*
X137139000Y-125378000D01*
X146176000Y-125418000D02*
X137288000Y-125418000D01*
X146021000Y-125458000D02*
X137443000Y-125458000D01*
X145860000Y-125498000D02*
X137604000Y-125498000D01*
X145692000Y-125538000D02*
X137772000Y-125538000D01*
X145517000Y-125578000D02*
X137947000Y-125578000D01*
X145332000Y-125618000D02*
X138132000Y-125618000D01*
X145137000Y-125658000D02*
X138327000Y-125658000D01*
X144930000Y-125698000D02*
X138534000Y-125698000D01*
X144708000Y-125738000D02*
X138756000Y-125738000D01*
X144468000Y-125778000D02*
X138996000Y-125778000D01*
X144205000Y-125818000D02*
X139259000Y-125818000D01*
X143909000Y-125858000D02*
X139555000Y-125858000D01*
X143567000Y-125898000D02*
X139897000Y-125898000D01*
X143145000Y-125938000D02*
X140319000Y-125938000D01*
X142532000Y-125978000D02*
X140932000Y-125978000D01*
X151607000Y-89523998D02*
X151607000Y-93023998D01*
X153357000Y-91273998D02*
X149857000Y-91273998D01*
X159352000Y-72310000D02*
G75*
G03*
X159352000Y-72310000I-17620000J0D01*
G01*
X159312000Y-72310000D02*
X124152000Y-72310000D01*
X159312000Y-72350000D02*
X124152000Y-72350000D01*
X159312000Y-72390000D02*
X124152000Y-72390000D01*
X159312000Y-72430000D02*
X124152000Y-72430000D01*
X159312000Y-72470000D02*
X124152000Y-72470000D01*
X159311000Y-72510000D02*
X124153000Y-72510000D01*
X159311000Y-72550000D02*
X124153000Y-72550000D01*
X159310000Y-72590000D02*
X124154000Y-72590000D01*
X159310000Y-72630000D02*
X124154000Y-72630000D01*
X159309000Y-72670000D02*
X124155000Y-72670000D01*
X159308000Y-72710000D02*
X124156000Y-72710000D01*
X159307000Y-72750000D02*
X124157000Y-72750000D01*
X159306000Y-72790000D02*
X124158000Y-72790000D01*
X159305000Y-72830000D02*
X124159000Y-72830000D01*
X159304000Y-72870000D02*
X124160000Y-72870000D01*
X159302000Y-72910000D02*
X124162000Y-72910000D01*
X159301000Y-72950000D02*
X124163000Y-72950000D01*
X159299000Y-72990000D02*
X124165000Y-72990000D01*
X159298000Y-73031000D02*
X124166000Y-73031000D01*
X159296000Y-73071000D02*
X124168000Y-73071000D01*
X159294000Y-73111000D02*
X124170000Y-73111000D01*
X159292000Y-73151000D02*
X124172000Y-73151000D01*
X159291000Y-73191000D02*
X124173000Y-73191000D01*
X159288000Y-73231000D02*
X124176000Y-73231000D01*
X159286000Y-73271000D02*
X124178000Y-73271000D01*
X159284000Y-73311000D02*
X124180000Y-73311000D01*
X159282000Y-73351000D02*
X124182000Y-73351000D01*
X159279000Y-73391000D02*
X124185000Y-73391000D01*
X159277000Y-73431000D02*
X124187000Y-73431000D01*
X159274000Y-73471000D02*
X124190000Y-73471000D01*
X159272000Y-73511000D02*
X124192000Y-73511000D01*
X159269000Y-73551000D02*
X124195000Y-73551000D01*
X159266000Y-73591000D02*
X124198000Y-73591000D01*
X159263000Y-73631000D02*
X124201000Y-73631000D01*
X159260000Y-73671000D02*
X124204000Y-73671000D01*
X159257000Y-73711000D02*
X124207000Y-73711000D01*
X159254000Y-73751000D02*
X124210000Y-73751000D01*
X159250000Y-73791000D02*
X124214000Y-73791000D01*
X159247000Y-73831000D02*
X124217000Y-73831000D01*
X159243000Y-73871000D02*
X124221000Y-73871000D01*
X159240000Y-73911000D02*
X124224000Y-73911000D01*
X159236000Y-73951000D02*
X124228000Y-73951000D01*
X159232000Y-73991000D02*
X124232000Y-73991000D01*
X159228000Y-74031000D02*
X124236000Y-74031000D01*
X159224000Y-74071000D02*
X124240000Y-74071000D01*
X159220000Y-74111000D02*
X124244000Y-74111000D01*
X159216000Y-74151000D02*
X124248000Y-74151000D01*
X159212000Y-74191000D02*
X124252000Y-74191000D01*
X159208000Y-74231000D02*
X124256000Y-74231000D01*
X159203000Y-74271000D02*
X124261000Y-74271000D01*
X159199000Y-74311000D02*
X124265000Y-74311000D01*
X159194000Y-74351000D02*
X124270000Y-74351000D01*
X159189000Y-74391000D02*
X124275000Y-74391000D01*
X159184000Y-74431000D02*
X124280000Y-74431000D01*
X159180000Y-74471000D02*
X124284000Y-74471000D01*
X159175000Y-74511000D02*
X124289000Y-74511000D01*
X159170000Y-74551000D02*
X124294000Y-74551000D01*
X159164000Y-74591000D02*
X124300000Y-74591000D01*
X159159000Y-74631000D02*
X124305000Y-74631000D01*
X159154000Y-74671000D02*
X124310000Y-74671000D01*
X159148000Y-74711000D02*
X124316000Y-74711000D01*
X159143000Y-74751000D02*
X124321000Y-74751000D01*
X159137000Y-74791000D02*
X124327000Y-74791000D01*
X159131000Y-74831000D02*
X124333000Y-74831000D01*
X159126000Y-74871000D02*
X124338000Y-74871000D01*
X159120000Y-74911000D02*
X124344000Y-74911000D01*
X159114000Y-74951000D02*
X124350000Y-74951000D01*
X159107000Y-74991000D02*
X124357000Y-74991000D01*
X159101000Y-75031000D02*
X124363000Y-75031000D01*
X159095000Y-75071000D02*
X143972000Y-75071000D01*
X139492000Y-75071000D02*
X124369000Y-75071000D01*
X159089000Y-75111000D02*
X143972000Y-75111000D01*
X139492000Y-75111000D02*
X124375000Y-75111000D01*
X159082000Y-75151000D02*
X143972000Y-75151000D01*
X139492000Y-75151000D02*
X124382000Y-75151000D01*
X159076000Y-75191000D02*
X143972000Y-75191000D01*
X139492000Y-75191000D02*
X124388000Y-75191000D01*
X159069000Y-75231000D02*
X143972000Y-75231000D01*
X139492000Y-75231000D02*
X124395000Y-75231000D01*
X159062000Y-75271000D02*
X143972000Y-75271000D01*
X139492000Y-75271000D02*
X124402000Y-75271000D01*
X159055000Y-75311000D02*
X143972000Y-75311000D01*
X139492000Y-75311000D02*
X124409000Y-75311000D01*
X159048000Y-75351000D02*
X143972000Y-75351000D01*
X139492000Y-75351000D02*
X124416000Y-75351000D01*
X159041000Y-75391000D02*
X143972000Y-75391000D01*
X139492000Y-75391000D02*
X124423000Y-75391000D01*
X159034000Y-75431000D02*
X143972000Y-75431000D01*
X139492000Y-75431000D02*
X124430000Y-75431000D01*
X159027000Y-75471000D02*
X143972000Y-75471000D01*
X139492000Y-75471000D02*
X124437000Y-75471000D01*
X159019000Y-75511000D02*
X143972000Y-75511000D01*
X139492000Y-75511000D02*
X124445000Y-75511000D01*
X159012000Y-75551000D02*
X143972000Y-75551000D01*
X139492000Y-75551000D02*
X124452000Y-75551000D01*
X159005000Y-75591000D02*
X143972000Y-75591000D01*
X139492000Y-75591000D02*
X124459000Y-75591000D01*
X158997000Y-75631000D02*
X143972000Y-75631000D01*
X139492000Y-75631000D02*
X124467000Y-75631000D01*
X158989000Y-75671000D02*
X143972000Y-75671000D01*
X139492000Y-75671000D02*
X124475000Y-75671000D01*
X158981000Y-75711000D02*
X143972000Y-75711000D01*
X139492000Y-75711000D02*
X124483000Y-75711000D01*
X158973000Y-75751000D02*
X143972000Y-75751000D01*
X139492000Y-75751000D02*
X124491000Y-75751000D01*
X158965000Y-75791000D02*
X143972000Y-75791000D01*
X139492000Y-75791000D02*
X124499000Y-75791000D01*
X158957000Y-75831000D02*
X143972000Y-75831000D01*
X139492000Y-75831000D02*
X124507000Y-75831000D01*
X158949000Y-75871000D02*
X143972000Y-75871000D01*
X139492000Y-75871000D02*
X124515000Y-75871000D01*
X158941000Y-75911000D02*
X143972000Y-75911000D01*
X139492000Y-75911000D02*
X124523000Y-75911000D01*
X158932000Y-75951000D02*
X143972000Y-75951000D01*
X139492000Y-75951000D02*
X124532000Y-75951000D01*
X158924000Y-75991000D02*
X143972000Y-75991000D01*
X139492000Y-75991000D02*
X124540000Y-75991000D01*
X158915000Y-76031000D02*
X143972000Y-76031000D01*
X139492000Y-76031000D02*
X124549000Y-76031000D01*
X158907000Y-76071000D02*
X143972000Y-76071000D01*
X139492000Y-76071000D02*
X124557000Y-76071000D01*
X158898000Y-76111000D02*
X143972000Y-76111000D01*
X139492000Y-76111000D02*
X124566000Y-76111000D01*
X158889000Y-76151000D02*
X143972000Y-76151000D01*
X139492000Y-76151000D02*
X124575000Y-76151000D01*
X158880000Y-76191000D02*
X143972000Y-76191000D01*
X139492000Y-76191000D02*
X124584000Y-76191000D01*
X158871000Y-76231000D02*
X143972000Y-76231000D01*
X139492000Y-76231000D02*
X124593000Y-76231000D01*
X158862000Y-76271000D02*
X143972000Y-76271000D01*
X139492000Y-76271000D02*
X124602000Y-76271000D01*
X158852000Y-76311000D02*
X143972000Y-76311000D01*
X139492000Y-76311000D02*
X124612000Y-76311000D01*
X158843000Y-76351000D02*
X143972000Y-76351000D01*
X139492000Y-76351000D02*
X124621000Y-76351000D01*
X158834000Y-76391000D02*
X143972000Y-76391000D01*
X139492000Y-76391000D02*
X124630000Y-76391000D01*
X158824000Y-76431000D02*
X143972000Y-76431000D01*
X139492000Y-76431000D02*
X124640000Y-76431000D01*
X158814000Y-76471000D02*
X143972000Y-76471000D01*
X139492000Y-76471000D02*
X124650000Y-76471000D01*
X158805000Y-76511000D02*
X143972000Y-76511000D01*
X139492000Y-76511000D02*
X124659000Y-76511000D01*
X158795000Y-76551000D02*
X143972000Y-76551000D01*
X139492000Y-76551000D02*
X124669000Y-76551000D01*
X158785000Y-76591000D02*
X143972000Y-76591000D01*
X139492000Y-76591000D02*
X124679000Y-76591000D01*
X158775000Y-76631000D02*
X143972000Y-76631000D01*
X139492000Y-76631000D02*
X124689000Y-76631000D01*
X158765000Y-76671000D02*
X143972000Y-76671000D01*
X139492000Y-76671000D02*
X124699000Y-76671000D01*
X158754000Y-76711000D02*
X143972000Y-76711000D01*
X139492000Y-76711000D02*
X124710000Y-76711000D01*
X158744000Y-76751000D02*
X143972000Y-76751000D01*
X139492000Y-76751000D02*
X124720000Y-76751000D01*
X158733000Y-76791000D02*
X143972000Y-76791000D01*
X139492000Y-76791000D02*
X124731000Y-76791000D01*
X158723000Y-76831000D02*
X143972000Y-76831000D01*
X139492000Y-76831000D02*
X124741000Y-76831000D01*
X158712000Y-76871000D02*
X143972000Y-76871000D01*
X139492000Y-76871000D02*
X124752000Y-76871000D01*
X158701000Y-76911000D02*
X143972000Y-76911000D01*
X139492000Y-76911000D02*
X124763000Y-76911000D01*
X158691000Y-76951000D02*
X143972000Y-76951000D01*
X139492000Y-76951000D02*
X124773000Y-76951000D01*
X158680000Y-76991000D02*
X143972000Y-76991000D01*
X139492000Y-76991000D02*
X124784000Y-76991000D01*
X158669000Y-77031000D02*
X143972000Y-77031000D01*
X139492000Y-77031000D02*
X124795000Y-77031000D01*
X158657000Y-77071000D02*
X143972000Y-77071000D01*
X139492000Y-77071000D02*
X124807000Y-77071000D01*
X158646000Y-77111000D02*
X143972000Y-77111000D01*
X139492000Y-77111000D02*
X124818000Y-77111000D01*
X158635000Y-77151000D02*
X143972000Y-77151000D01*
X139492000Y-77151000D02*
X124829000Y-77151000D01*
X158623000Y-77191000D02*
X143972000Y-77191000D01*
X139492000Y-77191000D02*
X124841000Y-77191000D01*
X158612000Y-77231000D02*
X143972000Y-77231000D01*
X139492000Y-77231000D02*
X124852000Y-77231000D01*
X158600000Y-77271000D02*
X143972000Y-77271000D01*
X139492000Y-77271000D02*
X124864000Y-77271000D01*
X158588000Y-77311000D02*
X143972000Y-77311000D01*
X139492000Y-77311000D02*
X124876000Y-77311000D01*
X158576000Y-77351000D02*
X143972000Y-77351000D01*
X139492000Y-77351000D02*
X124888000Y-77351000D01*
X158564000Y-77391000D02*
X143972000Y-77391000D01*
X139492000Y-77391000D02*
X124900000Y-77391000D01*
X158552000Y-77431000D02*
X143972000Y-77431000D01*
X139492000Y-77431000D02*
X124912000Y-77431000D01*
X158540000Y-77471000D02*
X143972000Y-77471000D01*
X139492000Y-77471000D02*
X124924000Y-77471000D01*
X158528000Y-77511000D02*
X143972000Y-77511000D01*
X139492000Y-77511000D02*
X124936000Y-77511000D01*
X158515000Y-77551000D02*
X143972000Y-77551000D01*
X139492000Y-77551000D02*
X124949000Y-77551000D01*
X158503000Y-77591000D02*
X143972000Y-77591000D01*
X139492000Y-77591000D02*
X124961000Y-77591000D01*
X158490000Y-77631000D02*
X143972000Y-77631000D01*
X139492000Y-77631000D02*
X124974000Y-77631000D01*
X158477000Y-77671000D02*
X143972000Y-77671000D01*
X139492000Y-77671000D02*
X124987000Y-77671000D01*
X158465000Y-77711000D02*
X143972000Y-77711000D01*
X139492000Y-77711000D02*
X124999000Y-77711000D01*
X158452000Y-77751000D02*
X143972000Y-77751000D01*
X139492000Y-77751000D02*
X125012000Y-77751000D01*
X158439000Y-77791000D02*
X143972000Y-77791000D01*
X139492000Y-77791000D02*
X125025000Y-77791000D01*
X158426000Y-77831000D02*
X143972000Y-77831000D01*
X139492000Y-77831000D02*
X125038000Y-77831000D01*
X158412000Y-77871000D02*
X143972000Y-77871000D01*
X139492000Y-77871000D02*
X125052000Y-77871000D01*
X158399000Y-77911000D02*
X143972000Y-77911000D01*
X139492000Y-77911000D02*
X125065000Y-77911000D01*
X158385000Y-77951000D02*
X143972000Y-77951000D01*
X139492000Y-77951000D02*
X125079000Y-77951000D01*
X158372000Y-77991000D02*
X143972000Y-77991000D01*
X139492000Y-77991000D02*
X125092000Y-77991000D01*
X158358000Y-78031000D02*
X143972000Y-78031000D01*
X139492000Y-78031000D02*
X125106000Y-78031000D01*
X158344000Y-78071000D02*
X143972000Y-78071000D01*
X139492000Y-78071000D02*
X125120000Y-78071000D01*
X158331000Y-78111000D02*
X143972000Y-78111000D01*
X139492000Y-78111000D02*
X125133000Y-78111000D01*
X158317000Y-78151000D02*
X143972000Y-78151000D01*
X139492000Y-78151000D02*
X125147000Y-78151000D01*
X158302000Y-78191000D02*
X143972000Y-78191000D01*
X139492000Y-78191000D02*
X125162000Y-78191000D01*
X158288000Y-78231000D02*
X143972000Y-78231000D01*
X139492000Y-78231000D02*
X125176000Y-78231000D01*
X158274000Y-78271000D02*
X143972000Y-78271000D01*
X139492000Y-78271000D02*
X125190000Y-78271000D01*
X158259000Y-78311000D02*
X143972000Y-78311000D01*
X139492000Y-78311000D02*
X125205000Y-78311000D01*
X158245000Y-78351000D02*
X143972000Y-78351000D01*
X139492000Y-78351000D02*
X125219000Y-78351000D01*
X158230000Y-78391000D02*
X143972000Y-78391000D01*
X139492000Y-78391000D02*
X125234000Y-78391000D01*
X158216000Y-78431000D02*
X143972000Y-78431000D01*
X139492000Y-78431000D02*
X125248000Y-78431000D01*
X158201000Y-78471000D02*
X143972000Y-78471000D01*
X139492000Y-78471000D02*
X125263000Y-78471000D01*
X158186000Y-78511000D02*
X143972000Y-78511000D01*
X139492000Y-78511000D02*
X125278000Y-78511000D01*
X158171000Y-78551000D02*
X143972000Y-78551000D01*
X139492000Y-78551000D02*
X125293000Y-78551000D01*
X158155000Y-78591000D02*
X143972000Y-78591000D01*
X139492000Y-78591000D02*
X125309000Y-78591000D01*
X158140000Y-78631000D02*
X143972000Y-78631000D01*
X139492000Y-78631000D02*
X125324000Y-78631000D01*
X158125000Y-78671000D02*
X143972000Y-78671000D01*
X139492000Y-78671000D02*
X125339000Y-78671000D01*
X158109000Y-78711000D02*
X143972000Y-78711000D01*
X139492000Y-78711000D02*
X125355000Y-78711000D01*
X158093000Y-78751000D02*
X143972000Y-78751000D01*
X139492000Y-78751000D02*
X125371000Y-78751000D01*
X158078000Y-78791000D02*
X143972000Y-78791000D01*
X139492000Y-78791000D02*
X125386000Y-78791000D01*
X158062000Y-78831000D02*
X143972000Y-78831000D01*
X139492000Y-78831000D02*
X125402000Y-78831000D01*
X158046000Y-78871000D02*
X143972000Y-78871000D01*
X139492000Y-78871000D02*
X125418000Y-78871000D01*
X158030000Y-78911000D02*
X143972000Y-78911000D01*
X139492000Y-78911000D02*
X125434000Y-78911000D01*
X158013000Y-78951000D02*
X143972000Y-78951000D01*
X139492000Y-78951000D02*
X125451000Y-78951000D01*
X157997000Y-78991000D02*
X143972000Y-78991000D01*
X139492000Y-78991000D02*
X125467000Y-78991000D01*
X157981000Y-79031000D02*
X143972000Y-79031000D01*
X139492000Y-79031000D02*
X125483000Y-79031000D01*
X157964000Y-79071000D02*
X143972000Y-79071000D01*
X139492000Y-79071000D02*
X125500000Y-79071000D01*
X157947000Y-79111000D02*
X143972000Y-79111000D01*
X139492000Y-79111000D02*
X125517000Y-79111000D01*
X157931000Y-79151000D02*
X143972000Y-79151000D01*
X139492000Y-79151000D02*
X125533000Y-79151000D01*
X157914000Y-79191000D02*
X143972000Y-79191000D01*
X139492000Y-79191000D02*
X125550000Y-79191000D01*
X157897000Y-79231000D02*
X143972000Y-79231000D01*
X139492000Y-79231000D02*
X125567000Y-79231000D01*
X157880000Y-79271000D02*
X143972000Y-79271000D01*
X139492000Y-79271000D02*
X125584000Y-79271000D01*
X157862000Y-79311000D02*
X143972000Y-79311000D01*
X139492000Y-79311000D02*
X125602000Y-79311000D01*
X157845000Y-79351000D02*
X143972000Y-79351000D01*
X139492000Y-79351000D02*
X125619000Y-79351000D01*
X157827000Y-79391000D02*
X143972000Y-79391000D01*
X139492000Y-79391000D02*
X125637000Y-79391000D01*
X157810000Y-79431000D02*
X143972000Y-79431000D01*
X139492000Y-79431000D02*
X125654000Y-79431000D01*
X157792000Y-79471000D02*
X143972000Y-79471000D01*
X139492000Y-79471000D02*
X125672000Y-79471000D01*
X157774000Y-79511000D02*
X143972000Y-79511000D01*
X139492000Y-79511000D02*
X125690000Y-79511000D01*
X157756000Y-79551000D02*
X125708000Y-79551000D01*
X157738000Y-79591000D02*
X125726000Y-79591000D01*
X157720000Y-79631000D02*
X125744000Y-79631000D01*
X157702000Y-79671000D02*
X125762000Y-79671000D01*
X157683000Y-79711000D02*
X125781000Y-79711000D01*
X157665000Y-79751000D02*
X125799000Y-79751000D01*
X157646000Y-79791000D02*
X125818000Y-79791000D01*
X157627000Y-79831000D02*
X125837000Y-79831000D01*
X157608000Y-79871000D02*
X125856000Y-79871000D01*
X157589000Y-79911000D02*
X125875000Y-79911000D01*
X157570000Y-79951000D02*
X125894000Y-79951000D01*
X157551000Y-79991000D02*
X125913000Y-79991000D01*
X157531000Y-80031000D02*
X125933000Y-80031000D01*
X157512000Y-80071000D02*
X125952000Y-80071000D01*
X157492000Y-80111000D02*
X125972000Y-80111000D01*
X157472000Y-80151000D02*
X125992000Y-80151000D01*
X157452000Y-80191000D02*
X126012000Y-80191000D01*
X157432000Y-80231000D02*
X126032000Y-80231000D01*
X157412000Y-80271000D02*
X126052000Y-80271000D01*
X157392000Y-80311000D02*
X126072000Y-80311000D01*
X157371000Y-80351000D02*
X126093000Y-80351000D01*
X157351000Y-80391000D02*
X126113000Y-80391000D01*
X157330000Y-80431000D02*
X126134000Y-80431000D01*
X157309000Y-80471000D02*
X126155000Y-80471000D01*
X157288000Y-80510000D02*
X126176000Y-80510000D01*
X157267000Y-80550000D02*
X126197000Y-80550000D01*
X157246000Y-80590000D02*
X126218000Y-80590000D01*
X157224000Y-80630000D02*
X126240000Y-80630000D01*
X157203000Y-80670000D02*
X126261000Y-80670000D01*
X157181000Y-80710000D02*
X126283000Y-80710000D01*
X157160000Y-80750000D02*
X126304000Y-80750000D01*
X157138000Y-80790000D02*
X126326000Y-80790000D01*
X157116000Y-80830000D02*
X126348000Y-80830000D01*
X157093000Y-80870000D02*
X126371000Y-80870000D01*
X157071000Y-80910000D02*
X126393000Y-80910000D01*
X157049000Y-80950000D02*
X126415000Y-80950000D01*
X157026000Y-80990000D02*
X126438000Y-80990000D01*
X157003000Y-81030000D02*
X126461000Y-81030000D01*
X156981000Y-81070000D02*
X126483000Y-81070000D01*
X156958000Y-81110000D02*
X126506000Y-81110000D01*
X156935000Y-81150000D02*
X126529000Y-81150000D01*
X156911000Y-81190000D02*
X126553000Y-81190000D01*
X156888000Y-81230000D02*
X126576000Y-81230000D01*
X156864000Y-81270000D02*
X126600000Y-81270000D01*
X156841000Y-81310000D02*
X126623000Y-81310000D01*
X156817000Y-81350000D02*
X126647000Y-81350000D01*
X156793000Y-81390000D02*
X126671000Y-81390000D01*
X156769000Y-81430000D02*
X126695000Y-81430000D01*
X156744000Y-81470000D02*
X126720000Y-81470000D01*
X156720000Y-81510000D02*
X126744000Y-81510000D01*
X156695000Y-81550000D02*
X126769000Y-81550000D01*
X156671000Y-81590000D02*
X126793000Y-81590000D01*
X156646000Y-81630000D02*
X126818000Y-81630000D01*
X156621000Y-81670000D02*
X126843000Y-81670000D01*
X156596000Y-81710000D02*
X126868000Y-81710000D01*
X156570000Y-81750000D02*
X126894000Y-81750000D01*
X156545000Y-81790000D02*
X126919000Y-81790000D01*
X156519000Y-81830000D02*
X126945000Y-81830000D01*
X156494000Y-81870000D02*
X126970000Y-81870000D01*
X156468000Y-81910000D02*
X126996000Y-81910000D01*
X156442000Y-81950000D02*
X127022000Y-81950000D01*
X156415000Y-81990000D02*
X127049000Y-81990000D01*
X156389000Y-82030000D02*
X127075000Y-82030000D01*
X156362000Y-82070000D02*
X127102000Y-82070000D01*
X156336000Y-82110000D02*
X127128000Y-82110000D01*
X156309000Y-82150000D02*
X127155000Y-82150000D01*
X156282000Y-82190000D02*
X127182000Y-82190000D01*
X156255000Y-82230000D02*
X127209000Y-82230000D01*
X156227000Y-82270000D02*
X127237000Y-82270000D01*
X156200000Y-82310000D02*
X127264000Y-82310000D01*
X156172000Y-82350000D02*
X127292000Y-82350000D01*
X156144000Y-82390000D02*
X127320000Y-82390000D01*
X156116000Y-82430000D02*
X127348000Y-82430000D01*
X156088000Y-82470000D02*
X127376000Y-82470000D01*
X156060000Y-82510000D02*
X127404000Y-82510000D01*
X156031000Y-82550000D02*
X127433000Y-82550000D01*
X156003000Y-82590000D02*
X127461000Y-82590000D01*
X155974000Y-82630000D02*
X127490000Y-82630000D01*
X155945000Y-82670000D02*
X127519000Y-82670000D01*
X155916000Y-82710000D02*
X127548000Y-82710000D01*
X155887000Y-82750000D02*
X127577000Y-82750000D01*
X155857000Y-82790000D02*
X127607000Y-82790000D01*
X155827000Y-82830000D02*
X127637000Y-82830000D01*
X155797000Y-82870000D02*
X127667000Y-82870000D01*
X155767000Y-82910000D02*
X127697000Y-82910000D01*
X155737000Y-82950000D02*
X127727000Y-82950000D01*
X155707000Y-82990000D02*
X127757000Y-82990000D01*
X155676000Y-83030000D02*
X127788000Y-83030000D01*
X155646000Y-83070000D02*
X127818000Y-83070000D01*
X155615000Y-83110000D02*
X127849000Y-83110000D01*
X155583000Y-83150000D02*
X127881000Y-83150000D01*
X155552000Y-83190000D02*
X127912000Y-83190000D01*
X155521000Y-83230000D02*
X127943000Y-83230000D01*
X155489000Y-83270000D02*
X127975000Y-83270000D01*
X155457000Y-83310000D02*
X128007000Y-83310000D01*
X155425000Y-83350000D02*
X128039000Y-83350000D01*
X155393000Y-83390000D02*
X128071000Y-83390000D01*
X155360000Y-83430000D02*
X128104000Y-83430000D01*
X155328000Y-83470000D02*
X128136000Y-83470000D01*
X155295000Y-83510000D02*
X128169000Y-83510000D01*
X155262000Y-83550000D02*
X128202000Y-83550000D01*
X155229000Y-83590000D02*
X128235000Y-83590000D01*
X155195000Y-83630000D02*
X128269000Y-83630000D01*
X155162000Y-83670000D02*
X128302000Y-83670000D01*
X155128000Y-83710000D02*
X128336000Y-83710000D01*
X155094000Y-83750000D02*
X128370000Y-83750000D01*
X155059000Y-83790000D02*
X128405000Y-83790000D01*
X155025000Y-83830000D02*
X128439000Y-83830000D01*
X154990000Y-83870000D02*
X128474000Y-83870000D01*
X154955000Y-83910000D02*
X128509000Y-83910000D01*
X154920000Y-83950000D02*
X128544000Y-83950000D01*
X154885000Y-83990000D02*
X128579000Y-83990000D01*
X154849000Y-84030000D02*
X128615000Y-84030000D01*
X154814000Y-84070000D02*
X128650000Y-84070000D01*
X154778000Y-84110000D02*
X128686000Y-84110000D01*
X154742000Y-84150000D02*
X128722000Y-84150000D01*
X154705000Y-84190000D02*
X128759000Y-84190000D01*
X154669000Y-84230000D02*
X128795000Y-84230000D01*
X154632000Y-84270000D02*
X128832000Y-84270000D01*
X154595000Y-84310000D02*
X128869000Y-84310000D01*
X154557000Y-84350000D02*
X128907000Y-84350000D01*
X154520000Y-84390000D02*
X128944000Y-84390000D01*
X154482000Y-84430000D02*
X128982000Y-84430000D01*
X154444000Y-84470000D02*
X129020000Y-84470000D01*
X154406000Y-84510000D02*
X129058000Y-84510000D01*
X154367000Y-84550000D02*
X129097000Y-84550000D01*
X154328000Y-84590000D02*
X129136000Y-84590000D01*
X154289000Y-84630000D02*
X129175000Y-84630000D01*
X154250000Y-84670000D02*
X129214000Y-84670000D01*
X154211000Y-84710000D02*
X129253000Y-84710000D01*
X154171000Y-84750000D02*
X129293000Y-84750000D01*
X154131000Y-84790000D02*
X129333000Y-84790000D01*
X154091000Y-84830000D02*
X129373000Y-84830000D01*
X154050000Y-84870000D02*
X129414000Y-84870000D01*
X154009000Y-84910000D02*
X129455000Y-84910000D01*
X153968000Y-84950000D02*
X129496000Y-84950000D01*
X153927000Y-84990000D02*
X129537000Y-84990000D01*
X153885000Y-85030000D02*
X129579000Y-85030000D01*
X153843000Y-85070000D02*
X129621000Y-85070000D01*
X153801000Y-85110000D02*
X129663000Y-85110000D01*
X153759000Y-85150000D02*
X129705000Y-85150000D01*
X153716000Y-85190000D02*
X129748000Y-85190000D01*
X153673000Y-85230000D02*
X129791000Y-85230000D01*
X153630000Y-85270000D02*
X129834000Y-85270000D01*
X153586000Y-85310000D02*
X129878000Y-85310000D01*
X153543000Y-85350000D02*
X129921000Y-85350000D01*
X153498000Y-85390000D02*
X129966000Y-85390000D01*
X153454000Y-85430000D02*
X130010000Y-85430000D01*
X153409000Y-85470000D02*
X130055000Y-85470000D01*
X153364000Y-85510000D02*
X130100000Y-85510000D01*
X153319000Y-85550000D02*
X130145000Y-85550000D01*
X153273000Y-85590000D02*
X130191000Y-85590000D01*
X153227000Y-85630000D02*
X130237000Y-85630000D01*
X153181000Y-85670000D02*
X130283000Y-85670000D01*
X153134000Y-85710000D02*
X130330000Y-85710000D01*
X153087000Y-85750000D02*
X130377000Y-85750000D01*
X153039000Y-85790000D02*
X130425000Y-85790000D01*
X152992000Y-85830000D02*
X130472000Y-85830000D01*
X152944000Y-85870000D02*
X130520000Y-85870000D01*
X152895000Y-85910000D02*
X130569000Y-85910000D01*
X152847000Y-85950000D02*
X130617000Y-85950000D01*
X152798000Y-85990000D02*
X130666000Y-85990000D01*
X152748000Y-86030000D02*
X130716000Y-86030000D01*
X152698000Y-86070000D02*
X130766000Y-86070000D01*
X152648000Y-86110000D02*
X130816000Y-86110000D01*
X152597000Y-86150000D02*
X130867000Y-86150000D01*
X152547000Y-86190000D02*
X130917000Y-86190000D01*
X152495000Y-86230000D02*
X130969000Y-86230000D01*
X152443000Y-86270000D02*
X131021000Y-86270000D01*
X152391000Y-86310000D02*
X131073000Y-86310000D01*
X152339000Y-86350000D02*
X131125000Y-86350000D01*
X152286000Y-86390000D02*
X131178000Y-86390000D01*
X152232000Y-86430000D02*
X131232000Y-86430000D01*
X152179000Y-86470000D02*
X131285000Y-86470000D01*
X152124000Y-86510000D02*
X131340000Y-86510000D01*
X152070000Y-86550000D02*
X131394000Y-86550000D01*
X152015000Y-86590000D02*
X131449000Y-86590000D01*
X151959000Y-86630000D02*
X131505000Y-86630000D01*
X151903000Y-86670000D02*
X131561000Y-86670000D01*
X151847000Y-86710000D02*
X131617000Y-86710000D01*
X151790000Y-86750000D02*
X131674000Y-86750000D01*
X151732000Y-86790000D02*
X131732000Y-86790000D01*
X151674000Y-86830000D02*
X131790000Y-86830000D01*
X151616000Y-86870000D02*
X131848000Y-86870000D01*
X151557000Y-86910000D02*
X131907000Y-86910000D01*
X151497000Y-86950000D02*
X131967000Y-86950000D01*
X151437000Y-86990000D02*
X132027000Y-86990000D01*
X151377000Y-87030000D02*
X132087000Y-87030000D01*
X151316000Y-87070000D02*
X132148000Y-87070000D01*
X151254000Y-87110000D02*
X132210000Y-87110000D01*
X151192000Y-87150000D02*
X132272000Y-87150000D01*
X151129000Y-87190000D02*
X132335000Y-87190000D01*
X151066000Y-87230000D02*
X132398000Y-87230000D01*
X151002000Y-87270000D02*
X132462000Y-87270000D01*
X150937000Y-87310000D02*
X132527000Y-87310000D01*
X150872000Y-87350000D02*
X132592000Y-87350000D01*
X150806000Y-87390000D02*
X132658000Y-87390000D01*
X150740000Y-87430000D02*
X132724000Y-87430000D01*
X150672000Y-87470000D02*
X132792000Y-87470000D01*
X150605000Y-87510000D02*
X132859000Y-87510000D01*
X150536000Y-87550000D02*
X132928000Y-87550000D01*
X150467000Y-87590000D02*
X132997000Y-87590000D01*
X150397000Y-87630000D02*
X133067000Y-87630000D01*
X150326000Y-87670000D02*
X133138000Y-87670000D01*
X150254000Y-87710000D02*
X133210000Y-87710000D01*
X150182000Y-87750000D02*
X133282000Y-87750000D01*
X150109000Y-87790000D02*
X133355000Y-87790000D01*
X150035000Y-87830000D02*
X133429000Y-87830000D01*
X149960000Y-87870000D02*
X133504000Y-87870000D01*
X149884000Y-87910000D02*
X133580000Y-87910000D01*
X149808000Y-87950000D02*
X133656000Y-87950000D01*
X149730000Y-87990000D02*
X133734000Y-87990000D01*
X149652000Y-88030000D02*
X133812000Y-88030000D01*
X149572000Y-88070000D02*
X133892000Y-88070000D01*
X149491000Y-88110000D02*
X133973000Y-88110000D01*
X149410000Y-88150000D02*
X134054000Y-88150000D01*
X149327000Y-88190000D02*
X134137000Y-88190000D01*
X149244000Y-88230000D02*
X134220000Y-88230000D01*
X149159000Y-88270000D02*
X134305000Y-88270000D01*
X149073000Y-88310000D02*
X134391000Y-88310000D01*
X148985000Y-88350000D02*
X134479000Y-88350000D01*
X148897000Y-88390000D02*
X134567000Y-88390000D01*
X148807000Y-88430000D02*
X134657000Y-88430000D01*
X148715000Y-88470000D02*
X134749000Y-88470000D01*
X148622000Y-88510000D02*
X134842000Y-88510000D01*
X148528000Y-88550000D02*
X134936000Y-88550000D01*
X148432000Y-88590000D02*
X135032000Y-88590000D01*
X148335000Y-88630000D02*
X135129000Y-88630000D01*
X148236000Y-88670000D02*
X135228000Y-88670000D01*
X148135000Y-88710000D02*
X135329000Y-88710000D01*
X148032000Y-88750000D02*
X135432000Y-88750000D01*
X147927000Y-88790000D02*
X135537000Y-88790000D01*
X147821000Y-88830000D02*
X135643000Y-88830000D01*
X147712000Y-88870000D02*
X135752000Y-88870000D01*
X147600000Y-88910000D02*
X135864000Y-88910000D01*
X147487000Y-88950000D02*
X135977000Y-88950000D01*
X147371000Y-88990000D02*
X136093000Y-88990000D01*
X147252000Y-89030000D02*
X136212000Y-89030000D01*
X147130000Y-89070000D02*
X136334000Y-89070000D01*
X147005000Y-89110000D02*
X136459000Y-89110000D01*
X146877000Y-89150000D02*
X136587000Y-89150000D01*
X146745000Y-89190000D02*
X136719000Y-89190000D01*
X146610000Y-89230000D02*
X136854000Y-89230000D01*
X146470000Y-89270000D02*
X136994000Y-89270000D01*
X146325000Y-89310000D02*
X137139000Y-89310000D01*
X146176000Y-89350000D02*
X137288000Y-89350000D01*
X146021000Y-89390000D02*
X137443000Y-89390000D01*
X145860000Y-89430000D02*
X137604000Y-89430000D01*
X145692000Y-89470000D02*
X137772000Y-89470000D01*
X145517000Y-89510000D02*
X137947000Y-89510000D01*
X145332000Y-89550000D02*
X138132000Y-89550000D01*
X145137000Y-89590000D02*
X138327000Y-89590000D01*
X144930000Y-89630000D02*
X138534000Y-89630000D01*
X144708000Y-89670000D02*
X138756000Y-89670000D01*
X144468000Y-89710000D02*
X138996000Y-89710000D01*
X144205000Y-89750000D02*
X139259000Y-89750000D01*
X143909000Y-89790000D02*
X139555000Y-89790000D01*
X143567000Y-89830000D02*
X139897000Y-89830000D01*
X143145000Y-89870000D02*
X140319000Y-89870000D01*
X142532000Y-89910000D02*
X140932000Y-89910000D01*
X151607000Y-53455998D02*
X151607000Y-56955998D01*
X153357000Y-55205998D02*
X149857000Y-55205998D01*
X181944000Y-93202000D02*
G75*
G03*
X181944000Y-93202000I-2620000J0D01*
G01*
X178284000Y-93202000D02*
X176744000Y-93202000D01*
X181904000Y-93202000D02*
X180364000Y-93202000D01*
X178284000Y-93242000D02*
X176744000Y-93242000D01*
X181904000Y-93242000D02*
X180364000Y-93242000D01*
X181903000Y-93282000D02*
X180364000Y-93282000D01*
X178284000Y-93282000D02*
X176745000Y-93282000D01*
X181902000Y-93322000D02*
X180364000Y-93322000D01*
X178284000Y-93322000D02*
X176746000Y-93322000D01*
X181900000Y-93362000D02*
X180364000Y-93362000D01*
X178284000Y-93362000D02*
X176748000Y-93362000D01*
X181897000Y-93402000D02*
X180364000Y-93402000D01*
X178284000Y-93402000D02*
X176751000Y-93402000D01*
X181893000Y-93442000D02*
X180364000Y-93442000D01*
X178284000Y-93442000D02*
X176755000Y-93442000D01*
X181889000Y-93482000D02*
X180364000Y-93482000D01*
X178284000Y-93482000D02*
X176759000Y-93482000D01*
X181885000Y-93522000D02*
X180364000Y-93522000D01*
X178284000Y-93522000D02*
X176763000Y-93522000D01*
X181880000Y-93562000D02*
X180364000Y-93562000D01*
X178284000Y-93562000D02*
X176768000Y-93562000D01*
X181874000Y-93602000D02*
X180364000Y-93602000D01*
X178284000Y-93602000D02*
X176774000Y-93602000D01*
X181867000Y-93642000D02*
X180364000Y-93642000D01*
X178284000Y-93642000D02*
X176781000Y-93642000D01*
X181860000Y-93682000D02*
X180364000Y-93682000D01*
X178284000Y-93682000D02*
X176788000Y-93682000D01*
X181852000Y-93722000D02*
X180364000Y-93722000D01*
X178284000Y-93722000D02*
X176796000Y-93722000D01*
X181844000Y-93762000D02*
X180364000Y-93762000D01*
X178284000Y-93762000D02*
X176804000Y-93762000D01*
X181835000Y-93802000D02*
X180364000Y-93802000D01*
X178284000Y-93802000D02*
X176813000Y-93802000D01*
X181825000Y-93842000D02*
X180364000Y-93842000D01*
X178284000Y-93842000D02*
X176823000Y-93842000D01*
X181815000Y-93882000D02*
X180364000Y-93882000D01*
X178284000Y-93882000D02*
X176833000Y-93882000D01*
X181804000Y-93923000D02*
X180364000Y-93923000D01*
X178284000Y-93923000D02*
X176844000Y-93923000D01*
X181792000Y-93963000D02*
X180364000Y-93963000D01*
X178284000Y-93963000D02*
X176856000Y-93963000D01*
X181779000Y-94003000D02*
X180364000Y-94003000D01*
X178284000Y-94003000D02*
X176869000Y-94003000D01*
X181766000Y-94043000D02*
X180364000Y-94043000D01*
X178284000Y-94043000D02*
X176882000Y-94043000D01*
X181752000Y-94083000D02*
X180364000Y-94083000D01*
X178284000Y-94083000D02*
X176896000Y-94083000D01*
X181738000Y-94123000D02*
X180364000Y-94123000D01*
X178284000Y-94123000D02*
X176910000Y-94123000D01*
X181722000Y-94163000D02*
X180364000Y-94163000D01*
X178284000Y-94163000D02*
X176926000Y-94163000D01*
X181706000Y-94203000D02*
X180364000Y-94203000D01*
X178284000Y-94203000D02*
X176942000Y-94203000D01*
X181689000Y-94243000D02*
X180364000Y-94243000D01*
X178284000Y-94243000D02*
X176959000Y-94243000D01*
X181672000Y-94283000D02*
X180364000Y-94283000D01*
X178284000Y-94283000D02*
X176976000Y-94283000D01*
X181653000Y-94323000D02*
X180364000Y-94323000D01*
X178284000Y-94323000D02*
X176995000Y-94323000D01*
X181634000Y-94363000D02*
X180364000Y-94363000D01*
X178284000Y-94363000D02*
X177014000Y-94363000D01*
X181614000Y-94403000D02*
X180364000Y-94403000D01*
X178284000Y-94403000D02*
X177034000Y-94403000D01*
X181592000Y-94443000D02*
X180364000Y-94443000D01*
X178284000Y-94443000D02*
X177056000Y-94443000D01*
X181571000Y-94483000D02*
X180364000Y-94483000D01*
X178284000Y-94483000D02*
X177077000Y-94483000D01*
X181548000Y-94523000D02*
X180364000Y-94523000D01*
X178284000Y-94523000D02*
X177100000Y-94523000D01*
X181524000Y-94563000D02*
X180364000Y-94563000D01*
X178284000Y-94563000D02*
X177124000Y-94563000D01*
X181499000Y-94603000D02*
X180364000Y-94603000D01*
X178284000Y-94603000D02*
X177149000Y-94603000D01*
X181473000Y-94643000D02*
X180364000Y-94643000D01*
X178284000Y-94643000D02*
X177175000Y-94643000D01*
X181446000Y-94683000D02*
X180364000Y-94683000D01*
X178284000Y-94683000D02*
X177202000Y-94683000D01*
X181419000Y-94723000D02*
X180364000Y-94723000D01*
X178284000Y-94723000D02*
X177229000Y-94723000D01*
X181389000Y-94763000D02*
X180364000Y-94763000D01*
X178284000Y-94763000D02*
X177259000Y-94763000D01*
X181359000Y-94803000D02*
X180364000Y-94803000D01*
X178284000Y-94803000D02*
X177289000Y-94803000D01*
X181328000Y-94843000D02*
X180364000Y-94843000D01*
X178284000Y-94843000D02*
X177320000Y-94843000D01*
X181295000Y-94883000D02*
X180364000Y-94883000D01*
X178284000Y-94883000D02*
X177353000Y-94883000D01*
X181261000Y-94923000D02*
X180364000Y-94923000D01*
X178284000Y-94923000D02*
X177387000Y-94923000D01*
X181225000Y-94963000D02*
X180364000Y-94963000D01*
X178284000Y-94963000D02*
X177423000Y-94963000D01*
X181188000Y-95003000D02*
X180364000Y-95003000D01*
X178284000Y-95003000D02*
X177460000Y-95003000D01*
X181150000Y-95043000D02*
X180364000Y-95043000D01*
X178284000Y-95043000D02*
X177498000Y-95043000D01*
X181109000Y-95083000D02*
X180364000Y-95083000D01*
X178284000Y-95083000D02*
X177539000Y-95083000D01*
X181067000Y-95123000D02*
X180364000Y-95123000D01*
X178284000Y-95123000D02*
X177581000Y-95123000D01*
X181023000Y-95163000D02*
X180364000Y-95163000D01*
X178284000Y-95163000D02*
X177625000Y-95163000D01*
X180977000Y-95203000D02*
X180364000Y-95203000D01*
X178284000Y-95203000D02*
X177671000Y-95203000D01*
X180929000Y-95243000D02*
X177719000Y-95243000D01*
X180878000Y-95283000D02*
X177770000Y-95283000D01*
X180824000Y-95323000D02*
X177824000Y-95323000D01*
X180767000Y-95363000D02*
X177881000Y-95363000D01*
X180707000Y-95403000D02*
X177941000Y-95403000D01*
X180643000Y-95443000D02*
X178005000Y-95443000D01*
X180575000Y-95483000D02*
X178073000Y-95483000D01*
X180502000Y-95523000D02*
X178146000Y-95523000D01*
X180422000Y-95563000D02*
X178226000Y-95563000D01*
X180335000Y-95603000D02*
X178313000Y-95603000D01*
X180239000Y-95643000D02*
X178409000Y-95643000D01*
X180129000Y-95683000D02*
X178519000Y-95683000D01*
X180001000Y-95723000D02*
X178647000Y-95723000D01*
X179842000Y-95763000D02*
X178806000Y-95763000D01*
X179608000Y-95803000D02*
X179040000Y-95803000D01*
X180799000Y-90397225D02*
X180799000Y-90897225D01*
X181049000Y-90647225D02*
X180549000Y-90647225D01*
X181944000Y-87614000D02*
G75*
G03*
X181944000Y-87614000I-2620000J0D01*
G01*
X178284000Y-87614000D02*
X176744000Y-87614000D01*
X181904000Y-87614000D02*
X180364000Y-87614000D01*
X178284000Y-87654000D02*
X176744000Y-87654000D01*
X181904000Y-87654000D02*
X180364000Y-87654000D01*
X181903000Y-87694000D02*
X180364000Y-87694000D01*
X178284000Y-87694000D02*
X176745000Y-87694000D01*
X181902000Y-87734000D02*
X180364000Y-87734000D01*
X178284000Y-87734000D02*
X176746000Y-87734000D01*
X181900000Y-87774000D02*
X180364000Y-87774000D01*
X178284000Y-87774000D02*
X176748000Y-87774000D01*
X181897000Y-87814000D02*
X180364000Y-87814000D01*
X178284000Y-87814000D02*
X176751000Y-87814000D01*
X181893000Y-87854000D02*
X180364000Y-87854000D01*
X178284000Y-87854000D02*
X176755000Y-87854000D01*
X181889000Y-87894000D02*
X180364000Y-87894000D01*
X178284000Y-87894000D02*
X176759000Y-87894000D01*
X181885000Y-87934000D02*
X180364000Y-87934000D01*
X178284000Y-87934000D02*
X176763000Y-87934000D01*
X181880000Y-87974000D02*
X180364000Y-87974000D01*
X178284000Y-87974000D02*
X176768000Y-87974000D01*
X181874000Y-88014000D02*
X180364000Y-88014000D01*
X178284000Y-88014000D02*
X176774000Y-88014000D01*
X181867000Y-88054000D02*
X180364000Y-88054000D01*
X178284000Y-88054000D02*
X176781000Y-88054000D01*
X181860000Y-88094000D02*
X180364000Y-88094000D01*
X178284000Y-88094000D02*
X176788000Y-88094000D01*
X181852000Y-88134000D02*
X180364000Y-88134000D01*
X178284000Y-88134000D02*
X176796000Y-88134000D01*
X181844000Y-88174000D02*
X180364000Y-88174000D01*
X178284000Y-88174000D02*
X176804000Y-88174000D01*
X181835000Y-88214000D02*
X180364000Y-88214000D01*
X178284000Y-88214000D02*
X176813000Y-88214000D01*
X181825000Y-88254000D02*
X180364000Y-88254000D01*
X178284000Y-88254000D02*
X176823000Y-88254000D01*
X181815000Y-88294000D02*
X180364000Y-88294000D01*
X178284000Y-88294000D02*
X176833000Y-88294000D01*
X181804000Y-88335000D02*
X180364000Y-88335000D01*
X178284000Y-88335000D02*
X176844000Y-88335000D01*
X181792000Y-88375000D02*
X180364000Y-88375000D01*
X178284000Y-88375000D02*
X176856000Y-88375000D01*
X181779000Y-88415000D02*
X180364000Y-88415000D01*
X178284000Y-88415000D02*
X176869000Y-88415000D01*
X181766000Y-88455000D02*
X180364000Y-88455000D01*
X178284000Y-88455000D02*
X176882000Y-88455000D01*
X181752000Y-88495000D02*
X180364000Y-88495000D01*
X178284000Y-88495000D02*
X176896000Y-88495000D01*
X181738000Y-88535000D02*
X180364000Y-88535000D01*
X178284000Y-88535000D02*
X176910000Y-88535000D01*
X181722000Y-88575000D02*
X180364000Y-88575000D01*
X178284000Y-88575000D02*
X176926000Y-88575000D01*
X181706000Y-88615000D02*
X180364000Y-88615000D01*
X178284000Y-88615000D02*
X176942000Y-88615000D01*
X181689000Y-88655000D02*
X180364000Y-88655000D01*
X178284000Y-88655000D02*
X176959000Y-88655000D01*
X181672000Y-88695000D02*
X180364000Y-88695000D01*
X178284000Y-88695000D02*
X176976000Y-88695000D01*
X181653000Y-88735000D02*
X180364000Y-88735000D01*
X178284000Y-88735000D02*
X176995000Y-88735000D01*
X181634000Y-88775000D02*
X180364000Y-88775000D01*
X178284000Y-88775000D02*
X177014000Y-88775000D01*
X181614000Y-88815000D02*
X180364000Y-88815000D01*
X178284000Y-88815000D02*
X177034000Y-88815000D01*
X181592000Y-88855000D02*
X180364000Y-88855000D01*
X178284000Y-88855000D02*
X177056000Y-88855000D01*
X181571000Y-88895000D02*
X180364000Y-88895000D01*
X178284000Y-88895000D02*
X177077000Y-88895000D01*
X181548000Y-88935000D02*
X180364000Y-88935000D01*
X178284000Y-88935000D02*
X177100000Y-88935000D01*
X181524000Y-88975000D02*
X180364000Y-88975000D01*
X178284000Y-88975000D02*
X177124000Y-88975000D01*
X181499000Y-89015000D02*
X180364000Y-89015000D01*
X178284000Y-89015000D02*
X177149000Y-89015000D01*
X181473000Y-89055000D02*
X180364000Y-89055000D01*
X178284000Y-89055000D02*
X177175000Y-89055000D01*
X181446000Y-89095000D02*
X180364000Y-89095000D01*
X178284000Y-89095000D02*
X177202000Y-89095000D01*
X181419000Y-89135000D02*
X180364000Y-89135000D01*
X178284000Y-89135000D02*
X177229000Y-89135000D01*
X181389000Y-89175000D02*
X180364000Y-89175000D01*
X178284000Y-89175000D02*
X177259000Y-89175000D01*
X181359000Y-89215000D02*
X180364000Y-89215000D01*
X178284000Y-89215000D02*
X177289000Y-89215000D01*
X181328000Y-89255000D02*
X180364000Y-89255000D01*
X178284000Y-89255000D02*
X177320000Y-89255000D01*
X181295000Y-89295000D02*
X180364000Y-89295000D01*
X178284000Y-89295000D02*
X177353000Y-89295000D01*
X181261000Y-89335000D02*
X180364000Y-89335000D01*
X178284000Y-89335000D02*
X177387000Y-89335000D01*
X181225000Y-89375000D02*
X180364000Y-89375000D01*
X178284000Y-89375000D02*
X177423000Y-89375000D01*
X181188000Y-89415000D02*
X180364000Y-89415000D01*
X178284000Y-89415000D02*
X177460000Y-89415000D01*
X181150000Y-89455000D02*
X180364000Y-89455000D01*
X178284000Y-89455000D02*
X177498000Y-89455000D01*
X181109000Y-89495000D02*
X180364000Y-89495000D01*
X178284000Y-89495000D02*
X177539000Y-89495000D01*
X181067000Y-89535000D02*
X180364000Y-89535000D01*
X178284000Y-89535000D02*
X177581000Y-89535000D01*
X181023000Y-89575000D02*
X180364000Y-89575000D01*
X178284000Y-89575000D02*
X177625000Y-89575000D01*
X180977000Y-89615000D02*
X180364000Y-89615000D01*
X178284000Y-89615000D02*
X177671000Y-89615000D01*
X180929000Y-89655000D02*
X177719000Y-89655000D01*
X180878000Y-89695000D02*
X177770000Y-89695000D01*
X180824000Y-89735000D02*
X177824000Y-89735000D01*
X180767000Y-89775000D02*
X177881000Y-89775000D01*
X180707000Y-89815000D02*
X177941000Y-89815000D01*
X180643000Y-89855000D02*
X178005000Y-89855000D01*
X180575000Y-89895000D02*
X178073000Y-89895000D01*
X180502000Y-89935000D02*
X178146000Y-89935000D01*
X180422000Y-89975000D02*
X178226000Y-89975000D01*
X180335000Y-90015000D02*
X178313000Y-90015000D01*
X180239000Y-90055000D02*
X178409000Y-90055000D01*
X180129000Y-90095000D02*
X178519000Y-90095000D01*
X180001000Y-90135000D02*
X178647000Y-90135000D01*
X179842000Y-90175000D02*
X178806000Y-90175000D01*
X179608000Y-90215000D02*
X179040000Y-90215000D01*
X180799000Y-84809225D02*
X180799000Y-85309225D01*
X181049000Y-85059225D02*
X180549000Y-85059225D01*
X167974000Y-90408000D02*
G75*
G03*
X167974000Y-90408000I-2620000J0D01*
G01*
X164314000Y-90408000D02*
X162774000Y-90408000D01*
X167934000Y-90408000D02*
X166394000Y-90408000D01*
X164314000Y-90448000D02*
X162774000Y-90448000D01*
X167934000Y-90448000D02*
X166394000Y-90448000D01*
X167933000Y-90488000D02*
X166394000Y-90488000D01*
X164314000Y-90488000D02*
X162775000Y-90488000D01*
X167932000Y-90528000D02*
X166394000Y-90528000D01*
X164314000Y-90528000D02*
X162776000Y-90528000D01*
X167930000Y-90568000D02*
X166394000Y-90568000D01*
X164314000Y-90568000D02*
X162778000Y-90568000D01*
X167927000Y-90608000D02*
X166394000Y-90608000D01*
X164314000Y-90608000D02*
X162781000Y-90608000D01*
X167923000Y-90648000D02*
X166394000Y-90648000D01*
X164314000Y-90648000D02*
X162785000Y-90648000D01*
X167919000Y-90688000D02*
X166394000Y-90688000D01*
X164314000Y-90688000D02*
X162789000Y-90688000D01*
X167915000Y-90728000D02*
X166394000Y-90728000D01*
X164314000Y-90728000D02*
X162793000Y-90728000D01*
X167910000Y-90768000D02*
X166394000Y-90768000D01*
X164314000Y-90768000D02*
X162798000Y-90768000D01*
X167904000Y-90808000D02*
X166394000Y-90808000D01*
X164314000Y-90808000D02*
X162804000Y-90808000D01*
X167897000Y-90848000D02*
X166394000Y-90848000D01*
X164314000Y-90848000D02*
X162811000Y-90848000D01*
X167890000Y-90888000D02*
X166394000Y-90888000D01*
X164314000Y-90888000D02*
X162818000Y-90888000D01*
X167882000Y-90928000D02*
X166394000Y-90928000D01*
X164314000Y-90928000D02*
X162826000Y-90928000D01*
X167874000Y-90968000D02*
X166394000Y-90968000D01*
X164314000Y-90968000D02*
X162834000Y-90968000D01*
X167865000Y-91008000D02*
X166394000Y-91008000D01*
X164314000Y-91008000D02*
X162843000Y-91008000D01*
X167855000Y-91048000D02*
X166394000Y-91048000D01*
X164314000Y-91048000D02*
X162853000Y-91048000D01*
X167845000Y-91088000D02*
X166394000Y-91088000D01*
X164314000Y-91088000D02*
X162863000Y-91088000D01*
X167834000Y-91129000D02*
X166394000Y-91129000D01*
X164314000Y-91129000D02*
X162874000Y-91129000D01*
X167822000Y-91169000D02*
X166394000Y-91169000D01*
X164314000Y-91169000D02*
X162886000Y-91169000D01*
X167809000Y-91209000D02*
X166394000Y-91209000D01*
X164314000Y-91209000D02*
X162899000Y-91209000D01*
X167796000Y-91249000D02*
X166394000Y-91249000D01*
X164314000Y-91249000D02*
X162912000Y-91249000D01*
X167782000Y-91289000D02*
X166394000Y-91289000D01*
X164314000Y-91289000D02*
X162926000Y-91289000D01*
X167768000Y-91329000D02*
X166394000Y-91329000D01*
X164314000Y-91329000D02*
X162940000Y-91329000D01*
X167752000Y-91369000D02*
X166394000Y-91369000D01*
X164314000Y-91369000D02*
X162956000Y-91369000D01*
X167736000Y-91409000D02*
X166394000Y-91409000D01*
X164314000Y-91409000D02*
X162972000Y-91409000D01*
X167719000Y-91449000D02*
X166394000Y-91449000D01*
X164314000Y-91449000D02*
X162989000Y-91449000D01*
X167702000Y-91489000D02*
X166394000Y-91489000D01*
X164314000Y-91489000D02*
X163006000Y-91489000D01*
X167683000Y-91529000D02*
X166394000Y-91529000D01*
X164314000Y-91529000D02*
X163025000Y-91529000D01*
X167664000Y-91569000D02*
X166394000Y-91569000D01*
X164314000Y-91569000D02*
X163044000Y-91569000D01*
X167644000Y-91609000D02*
X166394000Y-91609000D01*
X164314000Y-91609000D02*
X163064000Y-91609000D01*
X167622000Y-91649000D02*
X166394000Y-91649000D01*
X164314000Y-91649000D02*
X163086000Y-91649000D01*
X167601000Y-91689000D02*
X166394000Y-91689000D01*
X164314000Y-91689000D02*
X163107000Y-91689000D01*
X167578000Y-91729000D02*
X166394000Y-91729000D01*
X164314000Y-91729000D02*
X163130000Y-91729000D01*
X167554000Y-91769000D02*
X166394000Y-91769000D01*
X164314000Y-91769000D02*
X163154000Y-91769000D01*
X167529000Y-91809000D02*
X166394000Y-91809000D01*
X164314000Y-91809000D02*
X163179000Y-91809000D01*
X167503000Y-91849000D02*
X166394000Y-91849000D01*
X164314000Y-91849000D02*
X163205000Y-91849000D01*
X167476000Y-91889000D02*
X166394000Y-91889000D01*
X164314000Y-91889000D02*
X163232000Y-91889000D01*
X167449000Y-91929000D02*
X166394000Y-91929000D01*
X164314000Y-91929000D02*
X163259000Y-91929000D01*
X167419000Y-91969000D02*
X166394000Y-91969000D01*
X164314000Y-91969000D02*
X163289000Y-91969000D01*
X167389000Y-92009000D02*
X166394000Y-92009000D01*
X164314000Y-92009000D02*
X163319000Y-92009000D01*
X167358000Y-92049000D02*
X166394000Y-92049000D01*
X164314000Y-92049000D02*
X163350000Y-92049000D01*
X167325000Y-92089000D02*
X166394000Y-92089000D01*
X164314000Y-92089000D02*
X163383000Y-92089000D01*
X167291000Y-92129000D02*
X166394000Y-92129000D01*
X164314000Y-92129000D02*
X163417000Y-92129000D01*
X167255000Y-92169000D02*
X166394000Y-92169000D01*
X164314000Y-92169000D02*
X163453000Y-92169000D01*
X167218000Y-92209000D02*
X166394000Y-92209000D01*
X164314000Y-92209000D02*
X163490000Y-92209000D01*
X167180000Y-92249000D02*
X166394000Y-92249000D01*
X164314000Y-92249000D02*
X163528000Y-92249000D01*
X167139000Y-92289000D02*
X166394000Y-92289000D01*
X164314000Y-92289000D02*
X163569000Y-92289000D01*
X167097000Y-92329000D02*
X166394000Y-92329000D01*
X164314000Y-92329000D02*
X163611000Y-92329000D01*
X167053000Y-92369000D02*
X166394000Y-92369000D01*
X164314000Y-92369000D02*
X163655000Y-92369000D01*
X167007000Y-92409000D02*
X166394000Y-92409000D01*
X164314000Y-92409000D02*
X163701000Y-92409000D01*
X166959000Y-92449000D02*
X163749000Y-92449000D01*
X166908000Y-92489000D02*
X163800000Y-92489000D01*
X166854000Y-92529000D02*
X163854000Y-92529000D01*
X166797000Y-92569000D02*
X163911000Y-92569000D01*
X166737000Y-92609000D02*
X163971000Y-92609000D01*
X166673000Y-92649000D02*
X164035000Y-92649000D01*
X166605000Y-92689000D02*
X164103000Y-92689000D01*
X166532000Y-92729000D02*
X164176000Y-92729000D01*
X166452000Y-92769000D02*
X164256000Y-92769000D01*
X166365000Y-92809000D02*
X164343000Y-92809000D01*
X166269000Y-92849000D02*
X164439000Y-92849000D01*
X166159000Y-92889000D02*
X164549000Y-92889000D01*
X166031000Y-92929000D02*
X164677000Y-92929000D01*
X165872000Y-92969000D02*
X164836000Y-92969000D01*
X165638000Y-93009000D02*
X165070000Y-93009000D01*
X166829000Y-87603225D02*
X166829000Y-88103225D01*
X167079000Y-87853225D02*
X166579000Y-87853225D01*
X174070000Y-90408000D02*
G75*
G03*
X174070000Y-90408000I-2620000J0D01*
G01*
X170410000Y-90408000D02*
X168870000Y-90408000D01*
X174030000Y-90408000D02*
X172490000Y-90408000D01*
X170410000Y-90448000D02*
X168870000Y-90448000D01*
X174030000Y-90448000D02*
X172490000Y-90448000D01*
X174029000Y-90488000D02*
X172490000Y-90488000D01*
X170410000Y-90488000D02*
X168871000Y-90488000D01*
X174028000Y-90528000D02*
X172490000Y-90528000D01*
X170410000Y-90528000D02*
X168872000Y-90528000D01*
X174026000Y-90568000D02*
X172490000Y-90568000D01*
X170410000Y-90568000D02*
X168874000Y-90568000D01*
X174023000Y-90608000D02*
X172490000Y-90608000D01*
X170410000Y-90608000D02*
X168877000Y-90608000D01*
X174019000Y-90648000D02*
X172490000Y-90648000D01*
X170410000Y-90648000D02*
X168881000Y-90648000D01*
X174015000Y-90688000D02*
X172490000Y-90688000D01*
X170410000Y-90688000D02*
X168885000Y-90688000D01*
X174011000Y-90728000D02*
X172490000Y-90728000D01*
X170410000Y-90728000D02*
X168889000Y-90728000D01*
X174006000Y-90768000D02*
X172490000Y-90768000D01*
X170410000Y-90768000D02*
X168894000Y-90768000D01*
X174000000Y-90808000D02*
X172490000Y-90808000D01*
X170410000Y-90808000D02*
X168900000Y-90808000D01*
X173993000Y-90848000D02*
X172490000Y-90848000D01*
X170410000Y-90848000D02*
X168907000Y-90848000D01*
X173986000Y-90888000D02*
X172490000Y-90888000D01*
X170410000Y-90888000D02*
X168914000Y-90888000D01*
X173978000Y-90928000D02*
X172490000Y-90928000D01*
X170410000Y-90928000D02*
X168922000Y-90928000D01*
X173970000Y-90968000D02*
X172490000Y-90968000D01*
X170410000Y-90968000D02*
X168930000Y-90968000D01*
X173961000Y-91008000D02*
X172490000Y-91008000D01*
X170410000Y-91008000D02*
X168939000Y-91008000D01*
X173951000Y-91048000D02*
X172490000Y-91048000D01*
X170410000Y-91048000D02*
X168949000Y-91048000D01*
X173941000Y-91088000D02*
X172490000Y-91088000D01*
X170410000Y-91088000D02*
X168959000Y-91088000D01*
X173930000Y-91129000D02*
X172490000Y-91129000D01*
X170410000Y-91129000D02*
X168970000Y-91129000D01*
X173918000Y-91169000D02*
X172490000Y-91169000D01*
X170410000Y-91169000D02*
X168982000Y-91169000D01*
X173905000Y-91209000D02*
X172490000Y-91209000D01*
X170410000Y-91209000D02*
X168995000Y-91209000D01*
X173892000Y-91249000D02*
X172490000Y-91249000D01*
X170410000Y-91249000D02*
X169008000Y-91249000D01*
X173878000Y-91289000D02*
X172490000Y-91289000D01*
X170410000Y-91289000D02*
X169022000Y-91289000D01*
X173864000Y-91329000D02*
X172490000Y-91329000D01*
X170410000Y-91329000D02*
X169036000Y-91329000D01*
X173848000Y-91369000D02*
X172490000Y-91369000D01*
X170410000Y-91369000D02*
X169052000Y-91369000D01*
X173832000Y-91409000D02*
X172490000Y-91409000D01*
X170410000Y-91409000D02*
X169068000Y-91409000D01*
X173815000Y-91449000D02*
X172490000Y-91449000D01*
X170410000Y-91449000D02*
X169085000Y-91449000D01*
X173798000Y-91489000D02*
X172490000Y-91489000D01*
X170410000Y-91489000D02*
X169102000Y-91489000D01*
X173779000Y-91529000D02*
X172490000Y-91529000D01*
X170410000Y-91529000D02*
X169121000Y-91529000D01*
X173760000Y-91569000D02*
X172490000Y-91569000D01*
X170410000Y-91569000D02*
X169140000Y-91569000D01*
X173740000Y-91609000D02*
X172490000Y-91609000D01*
X170410000Y-91609000D02*
X169160000Y-91609000D01*
X173718000Y-91649000D02*
X172490000Y-91649000D01*
X170410000Y-91649000D02*
X169182000Y-91649000D01*
X173697000Y-91689000D02*
X172490000Y-91689000D01*
X170410000Y-91689000D02*
X169203000Y-91689000D01*
X173674000Y-91729000D02*
X172490000Y-91729000D01*
X170410000Y-91729000D02*
X169226000Y-91729000D01*
X173650000Y-91769000D02*
X172490000Y-91769000D01*
X170410000Y-91769000D02*
X169250000Y-91769000D01*
X173625000Y-91809000D02*
X172490000Y-91809000D01*
X170410000Y-91809000D02*
X169275000Y-91809000D01*
X173599000Y-91849000D02*
X172490000Y-91849000D01*
X170410000Y-91849000D02*
X169301000Y-91849000D01*
X173572000Y-91889000D02*
X172490000Y-91889000D01*
X170410000Y-91889000D02*
X169328000Y-91889000D01*
X173545000Y-91929000D02*
X172490000Y-91929000D01*
X170410000Y-91929000D02*
X169355000Y-91929000D01*
X173515000Y-91969000D02*
X172490000Y-91969000D01*
X170410000Y-91969000D02*
X169385000Y-91969000D01*
X173485000Y-92009000D02*
X172490000Y-92009000D01*
X170410000Y-92009000D02*
X169415000Y-92009000D01*
X173454000Y-92049000D02*
X172490000Y-92049000D01*
X170410000Y-92049000D02*
X169446000Y-92049000D01*
X173421000Y-92089000D02*
X172490000Y-92089000D01*
X170410000Y-92089000D02*
X169479000Y-92089000D01*
X173387000Y-92129000D02*
X172490000Y-92129000D01*
X170410000Y-92129000D02*
X169513000Y-92129000D01*
X173351000Y-92169000D02*
X172490000Y-92169000D01*
X170410000Y-92169000D02*
X169549000Y-92169000D01*
X173314000Y-92209000D02*
X172490000Y-92209000D01*
X170410000Y-92209000D02*
X169586000Y-92209000D01*
X173276000Y-92249000D02*
X172490000Y-92249000D01*
X170410000Y-92249000D02*
X169624000Y-92249000D01*
X173235000Y-92289000D02*
X172490000Y-92289000D01*
X170410000Y-92289000D02*
X169665000Y-92289000D01*
X173193000Y-92329000D02*
X172490000Y-92329000D01*
X170410000Y-92329000D02*
X169707000Y-92329000D01*
X173149000Y-92369000D02*
X172490000Y-92369000D01*
X170410000Y-92369000D02*
X169751000Y-92369000D01*
X173103000Y-92409000D02*
X172490000Y-92409000D01*
X170410000Y-92409000D02*
X169797000Y-92409000D01*
X173055000Y-92449000D02*
X169845000Y-92449000D01*
X173004000Y-92489000D02*
X169896000Y-92489000D01*
X172950000Y-92529000D02*
X169950000Y-92529000D01*
X172893000Y-92569000D02*
X170007000Y-92569000D01*
X172833000Y-92609000D02*
X170067000Y-92609000D01*
X172769000Y-92649000D02*
X170131000Y-92649000D01*
X172701000Y-92689000D02*
X170199000Y-92689000D01*
X172628000Y-92729000D02*
X170272000Y-92729000D01*
X172548000Y-92769000D02*
X170352000Y-92769000D01*
X172461000Y-92809000D02*
X170439000Y-92809000D01*
X172365000Y-92849000D02*
X170535000Y-92849000D01*
X172255000Y-92889000D02*
X170645000Y-92889000D01*
X172127000Y-92929000D02*
X170773000Y-92929000D01*
X171968000Y-92969000D02*
X170932000Y-92969000D01*
X171734000Y-93009000D02*
X171166000Y-93009000D01*
X172925000Y-87603225D02*
X172925000Y-88103225D01*
X173175000Y-87853225D02*
X172675000Y-87853225D01*
X84582000Y-104310000D02*
X84582000Y-105420000D01*
X84582000Y-116670000D02*
X84582000Y-115560000D01*
X82662000Y-105420000D02*
X82662000Y-115560000D01*
X86502000Y-105420000D02*
X82662000Y-105420000D01*
X86502000Y-115560000D02*
X86502000Y-105420000D01*
X82662000Y-115560000D02*
X86502000Y-115560000D01*
X84582000Y-64178000D02*
X84582000Y-65288000D01*
X84582000Y-76538000D02*
X84582000Y-75428000D01*
X82662000Y-65288000D02*
X82662000Y-75428000D01*
X86502000Y-65288000D02*
X82662000Y-65288000D01*
X86502000Y-75428000D02*
X86502000Y-65288000D01*
X82662000Y-75428000D02*
X86502000Y-75428000D01*
X170253000Y-97314000D02*
X170253000Y-98824000D01*
X166552000Y-97314000D02*
X166552000Y-98824000D01*
X163282000Y-98824000D02*
X173522000Y-98824000D01*
X173522000Y-97314000D02*
X173522000Y-101955000D01*
X163282000Y-97314000D02*
X163282000Y-101955000D01*
X163282000Y-101955000D02*
X173522000Y-101955000D01*
X163282000Y-97314000D02*
X173522000Y-97314000D01*
X166551000Y-83534000D02*
X166551000Y-82024000D01*
X170252000Y-83534000D02*
X170252000Y-82024000D01*
X173522000Y-82024000D02*
X163282000Y-82024000D01*
X163282000Y-83534000D02*
X163282000Y-78893000D01*
X173522000Y-83534000D02*
X173522000Y-78893000D01*
X173522000Y-78893000D02*
X163282000Y-78893000D01*
X173522000Y-83534000D02*
X163282000Y-83534000D01*
X117543000Y-91273998D02*
X114043000Y-91273998D01*
X115793000Y-89523998D02*
X115793000Y-93023998D01*
X106718000Y-125978000D02*
X105118000Y-125978000D01*
X107331000Y-125938000D02*
X104505000Y-125938000D01*
X107753000Y-125898000D02*
X104083000Y-125898000D01*
X108095000Y-125858000D02*
X103741000Y-125858000D01*
X108391000Y-125818000D02*
X103445000Y-125818000D01*
X108654000Y-125778000D02*
X103182000Y-125778000D01*
X108894000Y-125738000D02*
X102942000Y-125738000D01*
X109116000Y-125698000D02*
X102720000Y-125698000D01*
X109323000Y-125658000D02*
X102513000Y-125658000D01*
X109518000Y-125618000D02*
X102318000Y-125618000D01*
X109703000Y-125578000D02*
X102133000Y-125578000D01*
X109878000Y-125538000D02*
X101958000Y-125538000D01*
X110046000Y-125498000D02*
X101790000Y-125498000D01*
X110207000Y-125458000D02*
X101629000Y-125458000D01*
X110362000Y-125418000D02*
X101474000Y-125418000D01*
X110511000Y-125378000D02*
X101325000Y-125378000D01*
X110656000Y-125338000D02*
X101180000Y-125338000D01*
X110796000Y-125298000D02*
X101040000Y-125298000D01*
X110931000Y-125258000D02*
X100905000Y-125258000D01*
X111063000Y-125218000D02*
X100773000Y-125218000D01*
X111191000Y-125178000D02*
X100645000Y-125178000D01*
X111316000Y-125138000D02*
X100520000Y-125138000D01*
X111438000Y-125098000D02*
X100398000Y-125098000D01*
X111557000Y-125058000D02*
X100279000Y-125058000D01*
X111673000Y-125018000D02*
X100163000Y-125018000D01*
X111786000Y-124978000D02*
X100050000Y-124978000D01*
X111898000Y-124938000D02*
X99938000Y-124938000D01*
X112007000Y-124898000D02*
X99829000Y-124898000D01*
X112113000Y-124858000D02*
X99723000Y-124858000D01*
X112218000Y-124818000D02*
X99618000Y-124818000D01*
X112321000Y-124778000D02*
X99515000Y-124778000D01*
X112422000Y-124738000D02*
X99414000Y-124738000D01*
X112521000Y-124698000D02*
X99315000Y-124698000D01*
X112618000Y-124658000D02*
X99218000Y-124658000D01*
X112714000Y-124618000D02*
X99122000Y-124618000D01*
X112808000Y-124578000D02*
X99028000Y-124578000D01*
X112901000Y-124538000D02*
X98935000Y-124538000D01*
X112993000Y-124498000D02*
X98843000Y-124498000D01*
X113083000Y-124458000D02*
X98753000Y-124458000D01*
X113171000Y-124418000D02*
X98665000Y-124418000D01*
X113259000Y-124378000D02*
X98577000Y-124378000D01*
X113345000Y-124338000D02*
X98491000Y-124338000D01*
X113430000Y-124298000D02*
X98406000Y-124298000D01*
X113513000Y-124258000D02*
X98323000Y-124258000D01*
X113596000Y-124218000D02*
X98240000Y-124218000D01*
X113677000Y-124178000D02*
X98159000Y-124178000D01*
X113758000Y-124138000D02*
X98078000Y-124138000D01*
X113838000Y-124098000D02*
X97998000Y-124098000D01*
X113916000Y-124058000D02*
X97920000Y-124058000D01*
X113994000Y-124018000D02*
X97842000Y-124018000D01*
X114070000Y-123978000D02*
X97766000Y-123978000D01*
X114146000Y-123938000D02*
X97690000Y-123938000D01*
X114221000Y-123898000D02*
X97615000Y-123898000D01*
X114295000Y-123858000D02*
X97541000Y-123858000D01*
X114368000Y-123818000D02*
X97468000Y-123818000D01*
X114440000Y-123778000D02*
X97396000Y-123778000D01*
X114512000Y-123738000D02*
X97324000Y-123738000D01*
X114583000Y-123698000D02*
X97253000Y-123698000D01*
X114653000Y-123658000D02*
X97183000Y-123658000D01*
X114722000Y-123618000D02*
X97114000Y-123618000D01*
X114791000Y-123578000D02*
X97045000Y-123578000D01*
X114858000Y-123538000D02*
X96978000Y-123538000D01*
X114926000Y-123498000D02*
X96910000Y-123498000D01*
X114992000Y-123458000D02*
X96844000Y-123458000D01*
X115058000Y-123418000D02*
X96778000Y-123418000D01*
X115123000Y-123378000D02*
X96713000Y-123378000D01*
X115188000Y-123338000D02*
X96648000Y-123338000D01*
X115252000Y-123298000D02*
X96584000Y-123298000D01*
X115315000Y-123258000D02*
X96521000Y-123258000D01*
X115378000Y-123218000D02*
X96458000Y-123218000D01*
X115440000Y-123178000D02*
X96396000Y-123178000D01*
X115502000Y-123138000D02*
X96334000Y-123138000D01*
X115563000Y-123098000D02*
X96273000Y-123098000D01*
X115623000Y-123058000D02*
X96213000Y-123058000D01*
X115683000Y-123018000D02*
X96153000Y-123018000D01*
X115743000Y-122978000D02*
X96093000Y-122978000D01*
X115802000Y-122938000D02*
X96034000Y-122938000D01*
X115860000Y-122898000D02*
X95976000Y-122898000D01*
X115918000Y-122858000D02*
X95918000Y-122858000D01*
X115976000Y-122818000D02*
X95860000Y-122818000D01*
X116033000Y-122778000D02*
X95803000Y-122778000D01*
X116089000Y-122738000D02*
X95747000Y-122738000D01*
X116145000Y-122698000D02*
X95691000Y-122698000D01*
X116201000Y-122658000D02*
X95635000Y-122658000D01*
X116256000Y-122618000D02*
X95580000Y-122618000D01*
X116310000Y-122578000D02*
X95526000Y-122578000D01*
X116365000Y-122538000D02*
X95471000Y-122538000D01*
X116418000Y-122498000D02*
X95418000Y-122498000D01*
X116472000Y-122458000D02*
X95364000Y-122458000D01*
X116525000Y-122418000D02*
X95311000Y-122418000D01*
X116577000Y-122378000D02*
X95259000Y-122378000D01*
X116629000Y-122338000D02*
X95207000Y-122338000D01*
X116681000Y-122298000D02*
X95155000Y-122298000D01*
X116733000Y-122258000D02*
X95103000Y-122258000D01*
X116783000Y-122218000D02*
X95053000Y-122218000D01*
X116834000Y-122178000D02*
X95002000Y-122178000D01*
X116884000Y-122138000D02*
X94952000Y-122138000D01*
X116934000Y-122098000D02*
X94902000Y-122098000D01*
X116984000Y-122058000D02*
X94852000Y-122058000D01*
X117033000Y-122018000D02*
X94803000Y-122018000D01*
X117081000Y-121978000D02*
X94755000Y-121978000D01*
X117130000Y-121938000D02*
X94706000Y-121938000D01*
X117178000Y-121898000D02*
X94658000Y-121898000D01*
X117225000Y-121858000D02*
X94611000Y-121858000D01*
X117273000Y-121818000D02*
X94563000Y-121818000D01*
X117320000Y-121778000D02*
X94516000Y-121778000D01*
X117367000Y-121738000D02*
X94469000Y-121738000D01*
X117413000Y-121698000D02*
X94423000Y-121698000D01*
X117459000Y-121658000D02*
X94377000Y-121658000D01*
X117505000Y-121618000D02*
X94331000Y-121618000D01*
X117550000Y-121578000D02*
X94286000Y-121578000D01*
X117595000Y-121538000D02*
X94241000Y-121538000D01*
X117640000Y-121498000D02*
X94196000Y-121498000D01*
X117684000Y-121458000D02*
X94152000Y-121458000D01*
X117729000Y-121418000D02*
X94107000Y-121418000D01*
X117772000Y-121378000D02*
X94064000Y-121378000D01*
X117816000Y-121338000D02*
X94020000Y-121338000D01*
X117859000Y-121298000D02*
X93977000Y-121298000D01*
X117902000Y-121258000D02*
X93934000Y-121258000D01*
X117945000Y-121218000D02*
X93891000Y-121218000D01*
X117987000Y-121178000D02*
X93849000Y-121178000D01*
X118029000Y-121138000D02*
X93807000Y-121138000D01*
X118071000Y-121098000D02*
X93765000Y-121098000D01*
X118113000Y-121058000D02*
X93723000Y-121058000D01*
X118154000Y-121018000D02*
X93682000Y-121018000D01*
X118195000Y-120978000D02*
X93641000Y-120978000D01*
X118236000Y-120938000D02*
X93600000Y-120938000D01*
X118277000Y-120898000D02*
X93559000Y-120898000D01*
X118317000Y-120858000D02*
X93519000Y-120858000D01*
X118357000Y-120818000D02*
X93479000Y-120818000D01*
X118397000Y-120778000D02*
X93439000Y-120778000D01*
X118436000Y-120738000D02*
X93400000Y-120738000D01*
X118475000Y-120698000D02*
X93361000Y-120698000D01*
X118514000Y-120658000D02*
X93322000Y-120658000D01*
X118553000Y-120618000D02*
X93283000Y-120618000D01*
X118592000Y-120578000D02*
X93244000Y-120578000D01*
X118630000Y-120538000D02*
X93206000Y-120538000D01*
X118668000Y-120498000D02*
X93168000Y-120498000D01*
X118706000Y-120458000D02*
X93130000Y-120458000D01*
X118743000Y-120418000D02*
X93093000Y-120418000D01*
X118781000Y-120378000D02*
X93055000Y-120378000D01*
X118818000Y-120338000D02*
X93018000Y-120338000D01*
X118855000Y-120298000D02*
X92981000Y-120298000D01*
X118891000Y-120258000D02*
X92945000Y-120258000D01*
X118928000Y-120218000D02*
X92908000Y-120218000D01*
X118964000Y-120178000D02*
X92872000Y-120178000D01*
X119000000Y-120138000D02*
X92836000Y-120138000D01*
X119035000Y-120098000D02*
X92801000Y-120098000D01*
X119071000Y-120058000D02*
X92765000Y-120058000D01*
X119106000Y-120018000D02*
X92730000Y-120018000D01*
X119141000Y-119978000D02*
X92695000Y-119978000D01*
X119176000Y-119938000D02*
X92660000Y-119938000D01*
X119211000Y-119898000D02*
X92625000Y-119898000D01*
X119245000Y-119858000D02*
X92591000Y-119858000D01*
X119280000Y-119818000D02*
X92556000Y-119818000D01*
X119314000Y-119778000D02*
X92522000Y-119778000D01*
X119348000Y-119738000D02*
X92488000Y-119738000D01*
X119381000Y-119698000D02*
X92455000Y-119698000D01*
X119415000Y-119658000D02*
X92421000Y-119658000D01*
X119448000Y-119618000D02*
X92388000Y-119618000D01*
X119481000Y-119578000D02*
X92355000Y-119578000D01*
X119514000Y-119538000D02*
X92322000Y-119538000D01*
X119546000Y-119498000D02*
X92290000Y-119498000D01*
X119579000Y-119458000D02*
X92257000Y-119458000D01*
X119611000Y-119418000D02*
X92225000Y-119418000D01*
X119643000Y-119378000D02*
X92193000Y-119378000D01*
X119675000Y-119338000D02*
X92161000Y-119338000D01*
X119707000Y-119298000D02*
X92129000Y-119298000D01*
X119738000Y-119258000D02*
X92098000Y-119258000D01*
X119769000Y-119218000D02*
X92067000Y-119218000D01*
X119801000Y-119178000D02*
X92035000Y-119178000D01*
X119832000Y-119138000D02*
X92004000Y-119138000D01*
X119862000Y-119098000D02*
X91974000Y-119098000D01*
X119893000Y-119058000D02*
X91943000Y-119058000D01*
X119923000Y-119018000D02*
X91913000Y-119018000D01*
X119953000Y-118978000D02*
X91883000Y-118978000D01*
X119983000Y-118938000D02*
X91853000Y-118938000D01*
X120013000Y-118898000D02*
X91823000Y-118898000D01*
X120043000Y-118858000D02*
X91793000Y-118858000D01*
X120073000Y-118818000D02*
X91763000Y-118818000D01*
X120102000Y-118778000D02*
X91734000Y-118778000D01*
X120131000Y-118738000D02*
X91705000Y-118738000D01*
X120160000Y-118698000D02*
X91676000Y-118698000D01*
X120189000Y-118658000D02*
X91647000Y-118658000D01*
X120217000Y-118618000D02*
X91619000Y-118618000D01*
X120246000Y-118578000D02*
X91590000Y-118578000D01*
X120274000Y-118538000D02*
X91562000Y-118538000D01*
X120302000Y-118498000D02*
X91534000Y-118498000D01*
X120330000Y-118458000D02*
X91506000Y-118458000D01*
X120358000Y-118418000D02*
X91478000Y-118418000D01*
X120386000Y-118378000D02*
X91450000Y-118378000D01*
X120413000Y-118338000D02*
X91423000Y-118338000D01*
X120441000Y-118298000D02*
X91395000Y-118298000D01*
X120468000Y-118258000D02*
X91368000Y-118258000D01*
X120495000Y-118218000D02*
X91341000Y-118218000D01*
X120522000Y-118178000D02*
X91314000Y-118178000D01*
X120548000Y-118138000D02*
X91288000Y-118138000D01*
X120575000Y-118098000D02*
X91261000Y-118098000D01*
X120601000Y-118058000D02*
X91235000Y-118058000D01*
X120628000Y-118018000D02*
X91208000Y-118018000D01*
X120654000Y-117978000D02*
X91182000Y-117978000D01*
X120680000Y-117938000D02*
X91156000Y-117938000D01*
X120705000Y-117898000D02*
X91131000Y-117898000D01*
X120731000Y-117858000D02*
X91105000Y-117858000D01*
X120756000Y-117818000D02*
X91080000Y-117818000D01*
X120782000Y-117778000D02*
X91054000Y-117778000D01*
X120807000Y-117738000D02*
X91029000Y-117738000D01*
X120832000Y-117698000D02*
X91004000Y-117698000D01*
X120857000Y-117658000D02*
X90979000Y-117658000D01*
X120881000Y-117618000D02*
X90955000Y-117618000D01*
X120906000Y-117578000D02*
X90930000Y-117578000D01*
X120930000Y-117538000D02*
X90906000Y-117538000D01*
X120955000Y-117498000D02*
X90881000Y-117498000D01*
X120979000Y-117458000D02*
X90857000Y-117458000D01*
X121003000Y-117418000D02*
X90833000Y-117418000D01*
X121027000Y-117378000D02*
X90809000Y-117378000D01*
X121050000Y-117338000D02*
X90786000Y-117338000D01*
X121074000Y-117298000D02*
X90762000Y-117298000D01*
X121097000Y-117258000D02*
X90739000Y-117258000D01*
X121121000Y-117218000D02*
X90715000Y-117218000D01*
X121144000Y-117178000D02*
X90692000Y-117178000D01*
X121167000Y-117138000D02*
X90669000Y-117138000D01*
X121189000Y-117098000D02*
X90647000Y-117098000D01*
X121212000Y-117058000D02*
X90624000Y-117058000D01*
X121235000Y-117018000D02*
X90601000Y-117018000D01*
X121257000Y-116978000D02*
X90579000Y-116978000D01*
X121279000Y-116938000D02*
X90557000Y-116938000D01*
X121302000Y-116898000D02*
X90534000Y-116898000D01*
X121324000Y-116858000D02*
X90512000Y-116858000D01*
X121346000Y-116818000D02*
X90490000Y-116818000D01*
X121367000Y-116778000D02*
X90469000Y-116778000D01*
X121389000Y-116738000D02*
X90447000Y-116738000D01*
X121410000Y-116698000D02*
X90426000Y-116698000D01*
X121432000Y-116658000D02*
X90404000Y-116658000D01*
X121453000Y-116618000D02*
X90383000Y-116618000D01*
X121474000Y-116578000D02*
X90362000Y-116578000D01*
X121495000Y-116539000D02*
X90341000Y-116539000D01*
X121516000Y-116499000D02*
X90320000Y-116499000D01*
X121537000Y-116459000D02*
X90299000Y-116459000D01*
X121557000Y-116419000D02*
X90279000Y-116419000D01*
X121578000Y-116379000D02*
X90258000Y-116379000D01*
X121598000Y-116339000D02*
X90238000Y-116339000D01*
X121618000Y-116299000D02*
X90218000Y-116299000D01*
X121638000Y-116259000D02*
X90198000Y-116259000D01*
X121658000Y-116219000D02*
X90178000Y-116219000D01*
X121678000Y-116179000D02*
X90158000Y-116179000D01*
X121698000Y-116139000D02*
X90138000Y-116139000D01*
X121717000Y-116099000D02*
X90119000Y-116099000D01*
X121737000Y-116059000D02*
X90099000Y-116059000D01*
X121756000Y-116019000D02*
X90080000Y-116019000D01*
X121775000Y-115979000D02*
X90061000Y-115979000D01*
X121794000Y-115939000D02*
X90042000Y-115939000D01*
X121813000Y-115899000D02*
X90023000Y-115899000D01*
X121832000Y-115859000D02*
X90004000Y-115859000D01*
X121851000Y-115819000D02*
X89985000Y-115819000D01*
X121869000Y-115779000D02*
X89967000Y-115779000D01*
X121888000Y-115739000D02*
X89948000Y-115739000D01*
X121906000Y-115699000D02*
X89930000Y-115699000D01*
X121924000Y-115659000D02*
X89912000Y-115659000D01*
X121942000Y-115619000D02*
X89894000Y-115619000D01*
X103678000Y-115579000D02*
X89876000Y-115579000D01*
X121960000Y-115579000D02*
X108158000Y-115579000D01*
X103678000Y-115539000D02*
X89858000Y-115539000D01*
X121978000Y-115539000D02*
X108158000Y-115539000D01*
X103678000Y-115499000D02*
X89840000Y-115499000D01*
X121996000Y-115499000D02*
X108158000Y-115499000D01*
X103678000Y-115459000D02*
X89823000Y-115459000D01*
X122013000Y-115459000D02*
X108158000Y-115459000D01*
X103678000Y-115419000D02*
X89805000Y-115419000D01*
X122031000Y-115419000D02*
X108158000Y-115419000D01*
X103678000Y-115379000D02*
X89788000Y-115379000D01*
X122048000Y-115379000D02*
X108158000Y-115379000D01*
X103678000Y-115339000D02*
X89770000Y-115339000D01*
X122066000Y-115339000D02*
X108158000Y-115339000D01*
X103678000Y-115299000D02*
X89753000Y-115299000D01*
X122083000Y-115299000D02*
X108158000Y-115299000D01*
X103678000Y-115259000D02*
X89736000Y-115259000D01*
X122100000Y-115259000D02*
X108158000Y-115259000D01*
X103678000Y-115219000D02*
X89719000Y-115219000D01*
X122117000Y-115219000D02*
X108158000Y-115219000D01*
X103678000Y-115179000D02*
X89703000Y-115179000D01*
X122133000Y-115179000D02*
X108158000Y-115179000D01*
X103678000Y-115139000D02*
X89686000Y-115139000D01*
X122150000Y-115139000D02*
X108158000Y-115139000D01*
X103678000Y-115099000D02*
X89669000Y-115099000D01*
X122167000Y-115099000D02*
X108158000Y-115099000D01*
X103678000Y-115059000D02*
X89653000Y-115059000D01*
X122183000Y-115059000D02*
X108158000Y-115059000D01*
X103678000Y-115019000D02*
X89637000Y-115019000D01*
X122199000Y-115019000D02*
X108158000Y-115019000D01*
X103678000Y-114979000D02*
X89620000Y-114979000D01*
X122216000Y-114979000D02*
X108158000Y-114979000D01*
X103678000Y-114939000D02*
X89604000Y-114939000D01*
X122232000Y-114939000D02*
X108158000Y-114939000D01*
X103678000Y-114899000D02*
X89588000Y-114899000D01*
X122248000Y-114899000D02*
X108158000Y-114899000D01*
X103678000Y-114859000D02*
X89572000Y-114859000D01*
X122264000Y-114859000D02*
X108158000Y-114859000D01*
X103678000Y-114819000D02*
X89557000Y-114819000D01*
X122279000Y-114819000D02*
X108158000Y-114819000D01*
X103678000Y-114779000D02*
X89541000Y-114779000D01*
X122295000Y-114779000D02*
X108158000Y-114779000D01*
X103678000Y-114739000D02*
X89525000Y-114739000D01*
X122311000Y-114739000D02*
X108158000Y-114739000D01*
X103678000Y-114699000D02*
X89510000Y-114699000D01*
X122326000Y-114699000D02*
X108158000Y-114699000D01*
X103678000Y-114659000D02*
X89495000Y-114659000D01*
X122341000Y-114659000D02*
X108158000Y-114659000D01*
X103678000Y-114619000D02*
X89479000Y-114619000D01*
X122357000Y-114619000D02*
X108158000Y-114619000D01*
X103678000Y-114579000D02*
X89464000Y-114579000D01*
X122372000Y-114579000D02*
X108158000Y-114579000D01*
X103678000Y-114539000D02*
X89449000Y-114539000D01*
X122387000Y-114539000D02*
X108158000Y-114539000D01*
X103678000Y-114499000D02*
X89434000Y-114499000D01*
X122402000Y-114499000D02*
X108158000Y-114499000D01*
X103678000Y-114459000D02*
X89420000Y-114459000D01*
X122416000Y-114459000D02*
X108158000Y-114459000D01*
X103678000Y-114419000D02*
X89405000Y-114419000D01*
X122431000Y-114419000D02*
X108158000Y-114419000D01*
X103678000Y-114379000D02*
X89391000Y-114379000D01*
X122445000Y-114379000D02*
X108158000Y-114379000D01*
X103678000Y-114339000D02*
X89376000Y-114339000D01*
X122460000Y-114339000D02*
X108158000Y-114339000D01*
X103678000Y-114299000D02*
X89362000Y-114299000D01*
X122474000Y-114299000D02*
X108158000Y-114299000D01*
X103678000Y-114259000D02*
X89348000Y-114259000D01*
X122488000Y-114259000D02*
X108158000Y-114259000D01*
X103678000Y-114219000D02*
X89333000Y-114219000D01*
X122503000Y-114219000D02*
X108158000Y-114219000D01*
X103678000Y-114179000D02*
X89319000Y-114179000D01*
X122517000Y-114179000D02*
X108158000Y-114179000D01*
X103678000Y-114139000D02*
X89306000Y-114139000D01*
X122530000Y-114139000D02*
X108158000Y-114139000D01*
X103678000Y-114099000D02*
X89292000Y-114099000D01*
X122544000Y-114099000D02*
X108158000Y-114099000D01*
X103678000Y-114059000D02*
X89278000Y-114059000D01*
X122558000Y-114059000D02*
X108158000Y-114059000D01*
X103678000Y-114019000D02*
X89265000Y-114019000D01*
X122571000Y-114019000D02*
X108158000Y-114019000D01*
X103678000Y-113979000D02*
X89251000Y-113979000D01*
X122585000Y-113979000D02*
X108158000Y-113979000D01*
X103678000Y-113939000D02*
X89238000Y-113939000D01*
X122598000Y-113939000D02*
X108158000Y-113939000D01*
X103678000Y-113899000D02*
X89224000Y-113899000D01*
X122612000Y-113899000D02*
X108158000Y-113899000D01*
X103678000Y-113859000D02*
X89211000Y-113859000D01*
X122625000Y-113859000D02*
X108158000Y-113859000D01*
X103678000Y-113819000D02*
X89198000Y-113819000D01*
X122638000Y-113819000D02*
X108158000Y-113819000D01*
X103678000Y-113779000D02*
X89185000Y-113779000D01*
X122651000Y-113779000D02*
X108158000Y-113779000D01*
X103678000Y-113739000D02*
X89173000Y-113739000D01*
X122663000Y-113739000D02*
X108158000Y-113739000D01*
X103678000Y-113699000D02*
X89160000Y-113699000D01*
X122676000Y-113699000D02*
X108158000Y-113699000D01*
X103678000Y-113659000D02*
X89147000Y-113659000D01*
X122689000Y-113659000D02*
X108158000Y-113659000D01*
X103678000Y-113619000D02*
X89135000Y-113619000D01*
X122701000Y-113619000D02*
X108158000Y-113619000D01*
X103678000Y-113579000D02*
X89122000Y-113579000D01*
X122714000Y-113579000D02*
X108158000Y-113579000D01*
X103678000Y-113539000D02*
X89110000Y-113539000D01*
X122726000Y-113539000D02*
X108158000Y-113539000D01*
X103678000Y-113499000D02*
X89098000Y-113499000D01*
X122738000Y-113499000D02*
X108158000Y-113499000D01*
X103678000Y-113459000D02*
X89086000Y-113459000D01*
X122750000Y-113459000D02*
X108158000Y-113459000D01*
X103678000Y-113419000D02*
X89074000Y-113419000D01*
X122762000Y-113419000D02*
X108158000Y-113419000D01*
X103678000Y-113379000D02*
X89062000Y-113379000D01*
X122774000Y-113379000D02*
X108158000Y-113379000D01*
X103678000Y-113339000D02*
X89050000Y-113339000D01*
X122786000Y-113339000D02*
X108158000Y-113339000D01*
X103678000Y-113299000D02*
X89038000Y-113299000D01*
X122798000Y-113299000D02*
X108158000Y-113299000D01*
X103678000Y-113259000D02*
X89027000Y-113259000D01*
X122809000Y-113259000D02*
X108158000Y-113259000D01*
X103678000Y-113219000D02*
X89015000Y-113219000D01*
X122821000Y-113219000D02*
X108158000Y-113219000D01*
X103678000Y-113179000D02*
X89004000Y-113179000D01*
X122832000Y-113179000D02*
X108158000Y-113179000D01*
X103678000Y-113139000D02*
X88993000Y-113139000D01*
X122843000Y-113139000D02*
X108158000Y-113139000D01*
X103678000Y-113099000D02*
X88981000Y-113099000D01*
X122855000Y-113099000D02*
X108158000Y-113099000D01*
X103678000Y-113059000D02*
X88970000Y-113059000D01*
X122866000Y-113059000D02*
X108158000Y-113059000D01*
X103678000Y-113019000D02*
X88959000Y-113019000D01*
X122877000Y-113019000D02*
X108158000Y-113019000D01*
X103678000Y-112979000D02*
X88949000Y-112979000D01*
X122887000Y-112979000D02*
X108158000Y-112979000D01*
X103678000Y-112939000D02*
X88938000Y-112939000D01*
X122898000Y-112939000D02*
X108158000Y-112939000D01*
X103678000Y-112899000D02*
X88927000Y-112899000D01*
X122909000Y-112899000D02*
X108158000Y-112899000D01*
X103678000Y-112859000D02*
X88917000Y-112859000D01*
X122919000Y-112859000D02*
X108158000Y-112859000D01*
X103678000Y-112819000D02*
X88906000Y-112819000D01*
X122930000Y-112819000D02*
X108158000Y-112819000D01*
X103678000Y-112779000D02*
X88896000Y-112779000D01*
X122940000Y-112779000D02*
X108158000Y-112779000D01*
X103678000Y-112739000D02*
X88885000Y-112739000D01*
X122951000Y-112739000D02*
X108158000Y-112739000D01*
X103678000Y-112699000D02*
X88875000Y-112699000D01*
X122961000Y-112699000D02*
X108158000Y-112699000D01*
X103678000Y-112659000D02*
X88865000Y-112659000D01*
X122971000Y-112659000D02*
X108158000Y-112659000D01*
X103678000Y-112619000D02*
X88855000Y-112619000D01*
X122981000Y-112619000D02*
X108158000Y-112619000D01*
X103678000Y-112579000D02*
X88845000Y-112579000D01*
X122991000Y-112579000D02*
X108158000Y-112579000D01*
X103678000Y-112539000D02*
X88836000Y-112539000D01*
X123000000Y-112539000D02*
X108158000Y-112539000D01*
X103678000Y-112499000D02*
X88826000Y-112499000D01*
X123010000Y-112499000D02*
X108158000Y-112499000D01*
X103678000Y-112459000D02*
X88816000Y-112459000D01*
X123020000Y-112459000D02*
X108158000Y-112459000D01*
X103678000Y-112419000D02*
X88807000Y-112419000D01*
X123029000Y-112419000D02*
X108158000Y-112419000D01*
X103678000Y-112379000D02*
X88798000Y-112379000D01*
X123038000Y-112379000D02*
X108158000Y-112379000D01*
X103678000Y-112339000D02*
X88788000Y-112339000D01*
X123048000Y-112339000D02*
X108158000Y-112339000D01*
X103678000Y-112299000D02*
X88779000Y-112299000D01*
X123057000Y-112299000D02*
X108158000Y-112299000D01*
X103678000Y-112259000D02*
X88770000Y-112259000D01*
X123066000Y-112259000D02*
X108158000Y-112259000D01*
X103678000Y-112219000D02*
X88761000Y-112219000D01*
X123075000Y-112219000D02*
X108158000Y-112219000D01*
X103678000Y-112179000D02*
X88752000Y-112179000D01*
X123084000Y-112179000D02*
X108158000Y-112179000D01*
X103678000Y-112139000D02*
X88743000Y-112139000D01*
X123093000Y-112139000D02*
X108158000Y-112139000D01*
X103678000Y-112099000D02*
X88735000Y-112099000D01*
X123101000Y-112099000D02*
X108158000Y-112099000D01*
X103678000Y-112059000D02*
X88726000Y-112059000D01*
X123110000Y-112059000D02*
X108158000Y-112059000D01*
X103678000Y-112019000D02*
X88718000Y-112019000D01*
X123118000Y-112019000D02*
X108158000Y-112019000D01*
X103678000Y-111979000D02*
X88709000Y-111979000D01*
X123127000Y-111979000D02*
X108158000Y-111979000D01*
X103678000Y-111939000D02*
X88701000Y-111939000D01*
X123135000Y-111939000D02*
X108158000Y-111939000D01*
X103678000Y-111899000D02*
X88693000Y-111899000D01*
X123143000Y-111899000D02*
X108158000Y-111899000D01*
X103678000Y-111859000D02*
X88685000Y-111859000D01*
X123151000Y-111859000D02*
X108158000Y-111859000D01*
X103678000Y-111819000D02*
X88677000Y-111819000D01*
X123159000Y-111819000D02*
X108158000Y-111819000D01*
X103678000Y-111779000D02*
X88669000Y-111779000D01*
X123167000Y-111779000D02*
X108158000Y-111779000D01*
X103678000Y-111739000D02*
X88661000Y-111739000D01*
X123175000Y-111739000D02*
X108158000Y-111739000D01*
X103678000Y-111699000D02*
X88653000Y-111699000D01*
X123183000Y-111699000D02*
X108158000Y-111699000D01*
X103678000Y-111659000D02*
X88645000Y-111659000D01*
X123191000Y-111659000D02*
X108158000Y-111659000D01*
X103678000Y-111619000D02*
X88638000Y-111619000D01*
X123198000Y-111619000D02*
X108158000Y-111619000D01*
X103678000Y-111579000D02*
X88631000Y-111579000D01*
X123205000Y-111579000D02*
X108158000Y-111579000D01*
X103678000Y-111539000D02*
X88623000Y-111539000D01*
X123213000Y-111539000D02*
X108158000Y-111539000D01*
X103678000Y-111499000D02*
X88616000Y-111499000D01*
X123220000Y-111499000D02*
X108158000Y-111499000D01*
X103678000Y-111459000D02*
X88609000Y-111459000D01*
X123227000Y-111459000D02*
X108158000Y-111459000D01*
X103678000Y-111419000D02*
X88602000Y-111419000D01*
X123234000Y-111419000D02*
X108158000Y-111419000D01*
X103678000Y-111379000D02*
X88595000Y-111379000D01*
X123241000Y-111379000D02*
X108158000Y-111379000D01*
X103678000Y-111339000D02*
X88588000Y-111339000D01*
X123248000Y-111339000D02*
X108158000Y-111339000D01*
X103678000Y-111299000D02*
X88581000Y-111299000D01*
X123255000Y-111299000D02*
X108158000Y-111299000D01*
X103678000Y-111259000D02*
X88574000Y-111259000D01*
X123262000Y-111259000D02*
X108158000Y-111259000D01*
X103678000Y-111219000D02*
X88568000Y-111219000D01*
X123268000Y-111219000D02*
X108158000Y-111219000D01*
X103678000Y-111179000D02*
X88561000Y-111179000D01*
X123275000Y-111179000D02*
X108158000Y-111179000D01*
X103678000Y-111139000D02*
X88555000Y-111139000D01*
X123281000Y-111139000D02*
X108158000Y-111139000D01*
X123287000Y-111099000D02*
X88549000Y-111099000D01*
X123293000Y-111059000D02*
X88543000Y-111059000D01*
X123300000Y-111019000D02*
X88536000Y-111019000D01*
X123306000Y-110979000D02*
X88530000Y-110979000D01*
X123312000Y-110939000D02*
X88524000Y-110939000D01*
X123317000Y-110899000D02*
X88519000Y-110899000D01*
X123323000Y-110859000D02*
X88513000Y-110859000D01*
X123329000Y-110819000D02*
X88507000Y-110819000D01*
X123334000Y-110779000D02*
X88502000Y-110779000D01*
X123340000Y-110739000D02*
X88496000Y-110739000D01*
X123345000Y-110699000D02*
X88491000Y-110699000D01*
X123350000Y-110659000D02*
X88486000Y-110659000D01*
X123356000Y-110619000D02*
X88480000Y-110619000D01*
X123361000Y-110579000D02*
X88475000Y-110579000D01*
X123366000Y-110539000D02*
X88470000Y-110539000D01*
X123370000Y-110499000D02*
X88466000Y-110499000D01*
X123375000Y-110459000D02*
X88461000Y-110459000D01*
X123380000Y-110419000D02*
X88456000Y-110419000D01*
X123385000Y-110379000D02*
X88451000Y-110379000D01*
X123389000Y-110339000D02*
X88447000Y-110339000D01*
X123394000Y-110299000D02*
X88442000Y-110299000D01*
X123398000Y-110259000D02*
X88438000Y-110259000D01*
X123402000Y-110219000D02*
X88434000Y-110219000D01*
X123406000Y-110179000D02*
X88430000Y-110179000D01*
X123410000Y-110139000D02*
X88426000Y-110139000D01*
X123414000Y-110099000D02*
X88422000Y-110099000D01*
X123418000Y-110059000D02*
X88418000Y-110059000D01*
X123422000Y-110019000D02*
X88414000Y-110019000D01*
X123426000Y-109979000D02*
X88410000Y-109979000D01*
X123429000Y-109939000D02*
X88407000Y-109939000D01*
X123433000Y-109899000D02*
X88403000Y-109899000D01*
X123436000Y-109859000D02*
X88400000Y-109859000D01*
X123440000Y-109819000D02*
X88396000Y-109819000D01*
X123443000Y-109779000D02*
X88393000Y-109779000D01*
X123446000Y-109739000D02*
X88390000Y-109739000D01*
X123449000Y-109699000D02*
X88387000Y-109699000D01*
X123452000Y-109659000D02*
X88384000Y-109659000D01*
X123455000Y-109619000D02*
X88381000Y-109619000D01*
X123458000Y-109579000D02*
X88378000Y-109579000D01*
X123460000Y-109539000D02*
X88376000Y-109539000D01*
X123463000Y-109499000D02*
X88373000Y-109499000D01*
X123465000Y-109459000D02*
X88371000Y-109459000D01*
X123468000Y-109419000D02*
X88368000Y-109419000D01*
X123470000Y-109379000D02*
X88366000Y-109379000D01*
X123472000Y-109339000D02*
X88364000Y-109339000D01*
X123474000Y-109299000D02*
X88362000Y-109299000D01*
X123477000Y-109259000D02*
X88359000Y-109259000D01*
X123478000Y-109219000D02*
X88358000Y-109219000D01*
X123480000Y-109179000D02*
X88356000Y-109179000D01*
X123482000Y-109139000D02*
X88354000Y-109139000D01*
X123484000Y-109099000D02*
X88352000Y-109099000D01*
X123485000Y-109058000D02*
X88351000Y-109058000D01*
X123487000Y-109018000D02*
X88349000Y-109018000D01*
X123488000Y-108978000D02*
X88348000Y-108978000D01*
X123490000Y-108938000D02*
X88346000Y-108938000D01*
X123491000Y-108898000D02*
X88345000Y-108898000D01*
X123492000Y-108858000D02*
X88344000Y-108858000D01*
X123493000Y-108818000D02*
X88343000Y-108818000D01*
X123494000Y-108778000D02*
X88342000Y-108778000D01*
X123495000Y-108738000D02*
X88341000Y-108738000D01*
X123496000Y-108698000D02*
X88340000Y-108698000D01*
X123496000Y-108658000D02*
X88340000Y-108658000D01*
X123497000Y-108618000D02*
X88339000Y-108618000D01*
X123497000Y-108578000D02*
X88339000Y-108578000D01*
X123498000Y-108538000D02*
X88338000Y-108538000D01*
X123498000Y-108498000D02*
X88338000Y-108498000D01*
X123498000Y-108458000D02*
X88338000Y-108458000D01*
X123498000Y-108418000D02*
X88338000Y-108418000D01*
X123498000Y-108378000D02*
X88338000Y-108378000D01*
X123538000Y-108378000D02*
G75*
G03*
X123538000Y-108378000I-17620000J0D01*
G01*
X117543000Y-55205998D02*
X114043000Y-55205998D01*
X115793000Y-53455998D02*
X115793000Y-56955998D01*
X106718000Y-89910000D02*
X105118000Y-89910000D01*
X107331000Y-89870000D02*
X104505000Y-89870000D01*
X107753000Y-89830000D02*
X104083000Y-89830000D01*
X108095000Y-89790000D02*
X103741000Y-89790000D01*
X108391000Y-89750000D02*
X103445000Y-89750000D01*
X108654000Y-89710000D02*
X103182000Y-89710000D01*
X108894000Y-89670000D02*
X102942000Y-89670000D01*
X109116000Y-89630000D02*
X102720000Y-89630000D01*
X109323000Y-89590000D02*
X102513000Y-89590000D01*
X109518000Y-89550000D02*
X102318000Y-89550000D01*
X109703000Y-89510000D02*
X102133000Y-89510000D01*
X109878000Y-89470000D02*
X101958000Y-89470000D01*
X110046000Y-89430000D02*
X101790000Y-89430000D01*
X110207000Y-89390000D02*
X101629000Y-89390000D01*
X110362000Y-89350000D02*
X101474000Y-89350000D01*
X110511000Y-89310000D02*
X101325000Y-89310000D01*
X110656000Y-89270000D02*
X101180000Y-89270000D01*
X110796000Y-89230000D02*
X101040000Y-89230000D01*
X110931000Y-89190000D02*
X100905000Y-89190000D01*
X111063000Y-89150000D02*
X100773000Y-89150000D01*
X111191000Y-89110000D02*
X100645000Y-89110000D01*
X111316000Y-89070000D02*
X100520000Y-89070000D01*
X111438000Y-89030000D02*
X100398000Y-89030000D01*
X111557000Y-88990000D02*
X100279000Y-88990000D01*
X111673000Y-88950000D02*
X100163000Y-88950000D01*
X111786000Y-88910000D02*
X100050000Y-88910000D01*
X111898000Y-88870000D02*
X99938000Y-88870000D01*
X112007000Y-88830000D02*
X99829000Y-88830000D01*
X112113000Y-88790000D02*
X99723000Y-88790000D01*
X112218000Y-88750000D02*
X99618000Y-88750000D01*
X112321000Y-88710000D02*
X99515000Y-88710000D01*
X112422000Y-88670000D02*
X99414000Y-88670000D01*
X112521000Y-88630000D02*
X99315000Y-88630000D01*
X112618000Y-88590000D02*
X99218000Y-88590000D01*
X112714000Y-88550000D02*
X99122000Y-88550000D01*
X112808000Y-88510000D02*
X99028000Y-88510000D01*
X112901000Y-88470000D02*
X98935000Y-88470000D01*
X112993000Y-88430000D02*
X98843000Y-88430000D01*
X113083000Y-88390000D02*
X98753000Y-88390000D01*
X113171000Y-88350000D02*
X98665000Y-88350000D01*
X113259000Y-88310000D02*
X98577000Y-88310000D01*
X113345000Y-88270000D02*
X98491000Y-88270000D01*
X113430000Y-88230000D02*
X98406000Y-88230000D01*
X113513000Y-88190000D02*
X98323000Y-88190000D01*
X113596000Y-88150000D02*
X98240000Y-88150000D01*
X113677000Y-88110000D02*
X98159000Y-88110000D01*
X113758000Y-88070000D02*
X98078000Y-88070000D01*
X113838000Y-88030000D02*
X97998000Y-88030000D01*
X113916000Y-87990000D02*
X97920000Y-87990000D01*
X113994000Y-87950000D02*
X97842000Y-87950000D01*
X114070000Y-87910000D02*
X97766000Y-87910000D01*
X114146000Y-87870000D02*
X97690000Y-87870000D01*
X114221000Y-87830000D02*
X97615000Y-87830000D01*
X114295000Y-87790000D02*
X97541000Y-87790000D01*
X114368000Y-87750000D02*
X97468000Y-87750000D01*
X114440000Y-87710000D02*
X97396000Y-87710000D01*
X114512000Y-87670000D02*
X97324000Y-87670000D01*
X114583000Y-87630000D02*
X97253000Y-87630000D01*
X114653000Y-87590000D02*
X97183000Y-87590000D01*
X114722000Y-87550000D02*
X97114000Y-87550000D01*
X114791000Y-87510000D02*
X97045000Y-87510000D01*
X114858000Y-87470000D02*
X96978000Y-87470000D01*
X114926000Y-87430000D02*
X96910000Y-87430000D01*
X114992000Y-87390000D02*
X96844000Y-87390000D01*
X115058000Y-87350000D02*
X96778000Y-87350000D01*
X115123000Y-87310000D02*
X96713000Y-87310000D01*
X115188000Y-87270000D02*
X96648000Y-87270000D01*
X115252000Y-87230000D02*
X96584000Y-87230000D01*
X115315000Y-87190000D02*
X96521000Y-87190000D01*
X115378000Y-87150000D02*
X96458000Y-87150000D01*
X115440000Y-87110000D02*
X96396000Y-87110000D01*
X115502000Y-87070000D02*
X96334000Y-87070000D01*
X115563000Y-87030000D02*
X96273000Y-87030000D01*
X115623000Y-86990000D02*
X96213000Y-86990000D01*
X115683000Y-86950000D02*
X96153000Y-86950000D01*
X115743000Y-86910000D02*
X96093000Y-86910000D01*
X115802000Y-86870000D02*
X96034000Y-86870000D01*
X115860000Y-86830000D02*
X95976000Y-86830000D01*
X115918000Y-86790000D02*
X95918000Y-86790000D01*
X115976000Y-86750000D02*
X95860000Y-86750000D01*
X116033000Y-86710000D02*
X95803000Y-86710000D01*
X116089000Y-86670000D02*
X95747000Y-86670000D01*
X116145000Y-86630000D02*
X95691000Y-86630000D01*
X116201000Y-86590000D02*
X95635000Y-86590000D01*
X116256000Y-86550000D02*
X95580000Y-86550000D01*
X116310000Y-86510000D02*
X95526000Y-86510000D01*
X116365000Y-86470000D02*
X95471000Y-86470000D01*
X116418000Y-86430000D02*
X95418000Y-86430000D01*
X116472000Y-86390000D02*
X95364000Y-86390000D01*
X116525000Y-86350000D02*
X95311000Y-86350000D01*
X116577000Y-86310000D02*
X95259000Y-86310000D01*
X116629000Y-86270000D02*
X95207000Y-86270000D01*
X116681000Y-86230000D02*
X95155000Y-86230000D01*
X116733000Y-86190000D02*
X95103000Y-86190000D01*
X116783000Y-86150000D02*
X95053000Y-86150000D01*
X116834000Y-86110000D02*
X95002000Y-86110000D01*
X116884000Y-86070000D02*
X94952000Y-86070000D01*
X116934000Y-86030000D02*
X94902000Y-86030000D01*
X116984000Y-85990000D02*
X94852000Y-85990000D01*
X117033000Y-85950000D02*
X94803000Y-85950000D01*
X117081000Y-85910000D02*
X94755000Y-85910000D01*
X117130000Y-85870000D02*
X94706000Y-85870000D01*
X117178000Y-85830000D02*
X94658000Y-85830000D01*
X117225000Y-85790000D02*
X94611000Y-85790000D01*
X117273000Y-85750000D02*
X94563000Y-85750000D01*
X117320000Y-85710000D02*
X94516000Y-85710000D01*
X117367000Y-85670000D02*
X94469000Y-85670000D01*
X117413000Y-85630000D02*
X94423000Y-85630000D01*
X117459000Y-85590000D02*
X94377000Y-85590000D01*
X117505000Y-85550000D02*
X94331000Y-85550000D01*
X117550000Y-85510000D02*
X94286000Y-85510000D01*
X117595000Y-85470000D02*
X94241000Y-85470000D01*
X117640000Y-85430000D02*
X94196000Y-85430000D01*
X117684000Y-85390000D02*
X94152000Y-85390000D01*
X117729000Y-85350000D02*
X94107000Y-85350000D01*
X117772000Y-85310000D02*
X94064000Y-85310000D01*
X117816000Y-85270000D02*
X94020000Y-85270000D01*
X117859000Y-85230000D02*
X93977000Y-85230000D01*
X117902000Y-85190000D02*
X93934000Y-85190000D01*
X117945000Y-85150000D02*
X93891000Y-85150000D01*
X117987000Y-85110000D02*
X93849000Y-85110000D01*
X118029000Y-85070000D02*
X93807000Y-85070000D01*
X118071000Y-85030000D02*
X93765000Y-85030000D01*
X118113000Y-84990000D02*
X93723000Y-84990000D01*
X118154000Y-84950000D02*
X93682000Y-84950000D01*
X118195000Y-84910000D02*
X93641000Y-84910000D01*
X118236000Y-84870000D02*
X93600000Y-84870000D01*
X118277000Y-84830000D02*
X93559000Y-84830000D01*
X118317000Y-84790000D02*
X93519000Y-84790000D01*
X118357000Y-84750000D02*
X93479000Y-84750000D01*
X118397000Y-84710000D02*
X93439000Y-84710000D01*
X118436000Y-84670000D02*
X93400000Y-84670000D01*
X118475000Y-84630000D02*
X93361000Y-84630000D01*
X118514000Y-84590000D02*
X93322000Y-84590000D01*
X118553000Y-84550000D02*
X93283000Y-84550000D01*
X118592000Y-84510000D02*
X93244000Y-84510000D01*
X118630000Y-84470000D02*
X93206000Y-84470000D01*
X118668000Y-84430000D02*
X93168000Y-84430000D01*
X118706000Y-84390000D02*
X93130000Y-84390000D01*
X118743000Y-84350000D02*
X93093000Y-84350000D01*
X118781000Y-84310000D02*
X93055000Y-84310000D01*
X118818000Y-84270000D02*
X93018000Y-84270000D01*
X118855000Y-84230000D02*
X92981000Y-84230000D01*
X118891000Y-84190000D02*
X92945000Y-84190000D01*
X118928000Y-84150000D02*
X92908000Y-84150000D01*
X118964000Y-84110000D02*
X92872000Y-84110000D01*
X119000000Y-84070000D02*
X92836000Y-84070000D01*
X119035000Y-84030000D02*
X92801000Y-84030000D01*
X119071000Y-83990000D02*
X92765000Y-83990000D01*
X119106000Y-83950000D02*
X92730000Y-83950000D01*
X119141000Y-83910000D02*
X92695000Y-83910000D01*
X119176000Y-83870000D02*
X92660000Y-83870000D01*
X119211000Y-83830000D02*
X92625000Y-83830000D01*
X119245000Y-83790000D02*
X92591000Y-83790000D01*
X119280000Y-83750000D02*
X92556000Y-83750000D01*
X119314000Y-83710000D02*
X92522000Y-83710000D01*
X119348000Y-83670000D02*
X92488000Y-83670000D01*
X119381000Y-83630000D02*
X92455000Y-83630000D01*
X119415000Y-83590000D02*
X92421000Y-83590000D01*
X119448000Y-83550000D02*
X92388000Y-83550000D01*
X119481000Y-83510000D02*
X92355000Y-83510000D01*
X119514000Y-83470000D02*
X92322000Y-83470000D01*
X119546000Y-83430000D02*
X92290000Y-83430000D01*
X119579000Y-83390000D02*
X92257000Y-83390000D01*
X119611000Y-83350000D02*
X92225000Y-83350000D01*
X119643000Y-83310000D02*
X92193000Y-83310000D01*
X119675000Y-83270000D02*
X92161000Y-83270000D01*
X119707000Y-83230000D02*
X92129000Y-83230000D01*
X119738000Y-83190000D02*
X92098000Y-83190000D01*
X119769000Y-83150000D02*
X92067000Y-83150000D01*
X119801000Y-83110000D02*
X92035000Y-83110000D01*
X119832000Y-83070000D02*
X92004000Y-83070000D01*
X119862000Y-83030000D02*
X91974000Y-83030000D01*
X119893000Y-82990000D02*
X91943000Y-82990000D01*
X119923000Y-82950000D02*
X91913000Y-82950000D01*
X119953000Y-82910000D02*
X91883000Y-82910000D01*
X119983000Y-82870000D02*
X91853000Y-82870000D01*
X120013000Y-82830000D02*
X91823000Y-82830000D01*
X120043000Y-82790000D02*
X91793000Y-82790000D01*
X120073000Y-82750000D02*
X91763000Y-82750000D01*
X120102000Y-82710000D02*
X91734000Y-82710000D01*
X120131000Y-82670000D02*
X91705000Y-82670000D01*
X120160000Y-82630000D02*
X91676000Y-82630000D01*
X120189000Y-82590000D02*
X91647000Y-82590000D01*
X120217000Y-82550000D02*
X91619000Y-82550000D01*
X120246000Y-82510000D02*
X91590000Y-82510000D01*
X120274000Y-82470000D02*
X91562000Y-82470000D01*
X120302000Y-82430000D02*
X91534000Y-82430000D01*
X120330000Y-82390000D02*
X91506000Y-82390000D01*
X120358000Y-82350000D02*
X91478000Y-82350000D01*
X120386000Y-82310000D02*
X91450000Y-82310000D01*
X120413000Y-82270000D02*
X91423000Y-82270000D01*
X120441000Y-82230000D02*
X91395000Y-82230000D01*
X120468000Y-82190000D02*
X91368000Y-82190000D01*
X120495000Y-82150000D02*
X91341000Y-82150000D01*
X120522000Y-82110000D02*
X91314000Y-82110000D01*
X120548000Y-82070000D02*
X91288000Y-82070000D01*
X120575000Y-82030000D02*
X91261000Y-82030000D01*
X120601000Y-81990000D02*
X91235000Y-81990000D01*
X120628000Y-81950000D02*
X91208000Y-81950000D01*
X120654000Y-81910000D02*
X91182000Y-81910000D01*
X120680000Y-81870000D02*
X91156000Y-81870000D01*
X120705000Y-81830000D02*
X91131000Y-81830000D01*
X120731000Y-81790000D02*
X91105000Y-81790000D01*
X120756000Y-81750000D02*
X91080000Y-81750000D01*
X120782000Y-81710000D02*
X91054000Y-81710000D01*
X120807000Y-81670000D02*
X91029000Y-81670000D01*
X120832000Y-81630000D02*
X91004000Y-81630000D01*
X120857000Y-81590000D02*
X90979000Y-81590000D01*
X120881000Y-81550000D02*
X90955000Y-81550000D01*
X120906000Y-81510000D02*
X90930000Y-81510000D01*
X120930000Y-81470000D02*
X90906000Y-81470000D01*
X120955000Y-81430000D02*
X90881000Y-81430000D01*
X120979000Y-81390000D02*
X90857000Y-81390000D01*
X121003000Y-81350000D02*
X90833000Y-81350000D01*
X121027000Y-81310000D02*
X90809000Y-81310000D01*
X121050000Y-81270000D02*
X90786000Y-81270000D01*
X121074000Y-81230000D02*
X90762000Y-81230000D01*
X121097000Y-81190000D02*
X90739000Y-81190000D01*
X121121000Y-81150000D02*
X90715000Y-81150000D01*
X121144000Y-81110000D02*
X90692000Y-81110000D01*
X121167000Y-81070000D02*
X90669000Y-81070000D01*
X121189000Y-81030000D02*
X90647000Y-81030000D01*
X121212000Y-80990000D02*
X90624000Y-80990000D01*
X121235000Y-80950000D02*
X90601000Y-80950000D01*
X121257000Y-80910000D02*
X90579000Y-80910000D01*
X121279000Y-80870000D02*
X90557000Y-80870000D01*
X121302000Y-80830000D02*
X90534000Y-80830000D01*
X121324000Y-80790000D02*
X90512000Y-80790000D01*
X121346000Y-80750000D02*
X90490000Y-80750000D01*
X121367000Y-80710000D02*
X90469000Y-80710000D01*
X121389000Y-80670000D02*
X90447000Y-80670000D01*
X121410000Y-80630000D02*
X90426000Y-80630000D01*
X121432000Y-80590000D02*
X90404000Y-80590000D01*
X121453000Y-80550000D02*
X90383000Y-80550000D01*
X121474000Y-80510000D02*
X90362000Y-80510000D01*
X121495000Y-80471000D02*
X90341000Y-80471000D01*
X121516000Y-80431000D02*
X90320000Y-80431000D01*
X121537000Y-80391000D02*
X90299000Y-80391000D01*
X121557000Y-80351000D02*
X90279000Y-80351000D01*
X121578000Y-80311000D02*
X90258000Y-80311000D01*
X121598000Y-80271000D02*
X90238000Y-80271000D01*
X121618000Y-80231000D02*
X90218000Y-80231000D01*
X121638000Y-80191000D02*
X90198000Y-80191000D01*
X121658000Y-80151000D02*
X90178000Y-80151000D01*
X121678000Y-80111000D02*
X90158000Y-80111000D01*
X121698000Y-80071000D02*
X90138000Y-80071000D01*
X121717000Y-80031000D02*
X90119000Y-80031000D01*
X121737000Y-79991000D02*
X90099000Y-79991000D01*
X121756000Y-79951000D02*
X90080000Y-79951000D01*
X121775000Y-79911000D02*
X90061000Y-79911000D01*
X121794000Y-79871000D02*
X90042000Y-79871000D01*
X121813000Y-79831000D02*
X90023000Y-79831000D01*
X121832000Y-79791000D02*
X90004000Y-79791000D01*
X121851000Y-79751000D02*
X89985000Y-79751000D01*
X121869000Y-79711000D02*
X89967000Y-79711000D01*
X121888000Y-79671000D02*
X89948000Y-79671000D01*
X121906000Y-79631000D02*
X89930000Y-79631000D01*
X121924000Y-79591000D02*
X89912000Y-79591000D01*
X121942000Y-79551000D02*
X89894000Y-79551000D01*
X103678000Y-79511000D02*
X89876000Y-79511000D01*
X121960000Y-79511000D02*
X108158000Y-79511000D01*
X103678000Y-79471000D02*
X89858000Y-79471000D01*
X121978000Y-79471000D02*
X108158000Y-79471000D01*
X103678000Y-79431000D02*
X89840000Y-79431000D01*
X121996000Y-79431000D02*
X108158000Y-79431000D01*
X103678000Y-79391000D02*
X89823000Y-79391000D01*
X122013000Y-79391000D02*
X108158000Y-79391000D01*
X103678000Y-79351000D02*
X89805000Y-79351000D01*
X122031000Y-79351000D02*
X108158000Y-79351000D01*
X103678000Y-79311000D02*
X89788000Y-79311000D01*
X122048000Y-79311000D02*
X108158000Y-79311000D01*
X103678000Y-79271000D02*
X89770000Y-79271000D01*
X122066000Y-79271000D02*
X108158000Y-79271000D01*
X103678000Y-79231000D02*
X89753000Y-79231000D01*
X122083000Y-79231000D02*
X108158000Y-79231000D01*
X103678000Y-79191000D02*
X89736000Y-79191000D01*
X122100000Y-79191000D02*
X108158000Y-79191000D01*
X103678000Y-79151000D02*
X89719000Y-79151000D01*
X122117000Y-79151000D02*
X108158000Y-79151000D01*
X103678000Y-79111000D02*
X89703000Y-79111000D01*
X122133000Y-79111000D02*
X108158000Y-79111000D01*
X103678000Y-79071000D02*
X89686000Y-79071000D01*
X122150000Y-79071000D02*
X108158000Y-79071000D01*
X103678000Y-79031000D02*
X89669000Y-79031000D01*
X122167000Y-79031000D02*
X108158000Y-79031000D01*
X103678000Y-78991000D02*
X89653000Y-78991000D01*
X122183000Y-78991000D02*
X108158000Y-78991000D01*
X103678000Y-78951000D02*
X89637000Y-78951000D01*
X122199000Y-78951000D02*
X108158000Y-78951000D01*
X103678000Y-78911000D02*
X89620000Y-78911000D01*
X122216000Y-78911000D02*
X108158000Y-78911000D01*
X103678000Y-78871000D02*
X89604000Y-78871000D01*
X122232000Y-78871000D02*
X108158000Y-78871000D01*
X103678000Y-78831000D02*
X89588000Y-78831000D01*
X122248000Y-78831000D02*
X108158000Y-78831000D01*
X103678000Y-78791000D02*
X89572000Y-78791000D01*
X122264000Y-78791000D02*
X108158000Y-78791000D01*
X103678000Y-78751000D02*
X89557000Y-78751000D01*
X122279000Y-78751000D02*
X108158000Y-78751000D01*
X103678000Y-78711000D02*
X89541000Y-78711000D01*
X122295000Y-78711000D02*
X108158000Y-78711000D01*
X103678000Y-78671000D02*
X89525000Y-78671000D01*
X122311000Y-78671000D02*
X108158000Y-78671000D01*
X103678000Y-78631000D02*
X89510000Y-78631000D01*
X122326000Y-78631000D02*
X108158000Y-78631000D01*
X103678000Y-78591000D02*
X89495000Y-78591000D01*
X122341000Y-78591000D02*
X108158000Y-78591000D01*
X103678000Y-78551000D02*
X89479000Y-78551000D01*
X122357000Y-78551000D02*
X108158000Y-78551000D01*
X103678000Y-78511000D02*
X89464000Y-78511000D01*
X122372000Y-78511000D02*
X108158000Y-78511000D01*
X103678000Y-78471000D02*
X89449000Y-78471000D01*
X122387000Y-78471000D02*
X108158000Y-78471000D01*
X103678000Y-78431000D02*
X89434000Y-78431000D01*
X122402000Y-78431000D02*
X108158000Y-78431000D01*
X103678000Y-78391000D02*
X89420000Y-78391000D01*
X122416000Y-78391000D02*
X108158000Y-78391000D01*
X103678000Y-78351000D02*
X89405000Y-78351000D01*
X122431000Y-78351000D02*
X108158000Y-78351000D01*
X103678000Y-78311000D02*
X89391000Y-78311000D01*
X122445000Y-78311000D02*
X108158000Y-78311000D01*
X103678000Y-78271000D02*
X89376000Y-78271000D01*
X122460000Y-78271000D02*
X108158000Y-78271000D01*
X103678000Y-78231000D02*
X89362000Y-78231000D01*
X122474000Y-78231000D02*
X108158000Y-78231000D01*
X103678000Y-78191000D02*
X89348000Y-78191000D01*
X122488000Y-78191000D02*
X108158000Y-78191000D01*
X103678000Y-78151000D02*
X89333000Y-78151000D01*
X122503000Y-78151000D02*
X108158000Y-78151000D01*
X103678000Y-78111000D02*
X89319000Y-78111000D01*
X122517000Y-78111000D02*
X108158000Y-78111000D01*
X103678000Y-78071000D02*
X89306000Y-78071000D01*
X122530000Y-78071000D02*
X108158000Y-78071000D01*
X103678000Y-78031000D02*
X89292000Y-78031000D01*
X122544000Y-78031000D02*
X108158000Y-78031000D01*
X103678000Y-77991000D02*
X89278000Y-77991000D01*
X122558000Y-77991000D02*
X108158000Y-77991000D01*
X103678000Y-77951000D02*
X89265000Y-77951000D01*
X122571000Y-77951000D02*
X108158000Y-77951000D01*
X103678000Y-77911000D02*
X89251000Y-77911000D01*
X122585000Y-77911000D02*
X108158000Y-77911000D01*
X103678000Y-77871000D02*
X89238000Y-77871000D01*
X122598000Y-77871000D02*
X108158000Y-77871000D01*
X103678000Y-77831000D02*
X89224000Y-77831000D01*
X122612000Y-77831000D02*
X108158000Y-77831000D01*
X103678000Y-77791000D02*
X89211000Y-77791000D01*
X122625000Y-77791000D02*
X108158000Y-77791000D01*
X103678000Y-77751000D02*
X89198000Y-77751000D01*
X122638000Y-77751000D02*
X108158000Y-77751000D01*
X103678000Y-77711000D02*
X89185000Y-77711000D01*
X122651000Y-77711000D02*
X108158000Y-77711000D01*
X103678000Y-77671000D02*
X89173000Y-77671000D01*
X122663000Y-77671000D02*
X108158000Y-77671000D01*
X103678000Y-77631000D02*
X89160000Y-77631000D01*
X122676000Y-77631000D02*
X108158000Y-77631000D01*
X103678000Y-77591000D02*
X89147000Y-77591000D01*
X122689000Y-77591000D02*
X108158000Y-77591000D01*
X103678000Y-77551000D02*
X89135000Y-77551000D01*
X122701000Y-77551000D02*
X108158000Y-77551000D01*
X103678000Y-77511000D02*
X89122000Y-77511000D01*
X122714000Y-77511000D02*
X108158000Y-77511000D01*
X103678000Y-77471000D02*
X89110000Y-77471000D01*
X122726000Y-77471000D02*
X108158000Y-77471000D01*
X103678000Y-77431000D02*
X89098000Y-77431000D01*
X122738000Y-77431000D02*
X108158000Y-77431000D01*
X103678000Y-77391000D02*
X89086000Y-77391000D01*
X122750000Y-77391000D02*
X108158000Y-77391000D01*
X103678000Y-77351000D02*
X89074000Y-77351000D01*
X122762000Y-77351000D02*
X108158000Y-77351000D01*
X103678000Y-77311000D02*
X89062000Y-77311000D01*
X122774000Y-77311000D02*
X108158000Y-77311000D01*
X103678000Y-77271000D02*
X89050000Y-77271000D01*
X122786000Y-77271000D02*
X108158000Y-77271000D01*
X103678000Y-77231000D02*
X89038000Y-77231000D01*
X122798000Y-77231000D02*
X108158000Y-77231000D01*
X103678000Y-77191000D02*
X89027000Y-77191000D01*
X122809000Y-77191000D02*
X108158000Y-77191000D01*
X103678000Y-77151000D02*
X89015000Y-77151000D01*
X122821000Y-77151000D02*
X108158000Y-77151000D01*
X103678000Y-77111000D02*
X89004000Y-77111000D01*
X122832000Y-77111000D02*
X108158000Y-77111000D01*
X103678000Y-77071000D02*
X88993000Y-77071000D01*
X122843000Y-77071000D02*
X108158000Y-77071000D01*
X103678000Y-77031000D02*
X88981000Y-77031000D01*
X122855000Y-77031000D02*
X108158000Y-77031000D01*
X103678000Y-76991000D02*
X88970000Y-76991000D01*
X122866000Y-76991000D02*
X108158000Y-76991000D01*
X103678000Y-76951000D02*
X88959000Y-76951000D01*
X122877000Y-76951000D02*
X108158000Y-76951000D01*
X103678000Y-76911000D02*
X88949000Y-76911000D01*
X122887000Y-76911000D02*
X108158000Y-76911000D01*
X103678000Y-76871000D02*
X88938000Y-76871000D01*
X122898000Y-76871000D02*
X108158000Y-76871000D01*
X103678000Y-76831000D02*
X88927000Y-76831000D01*
X122909000Y-76831000D02*
X108158000Y-76831000D01*
X103678000Y-76791000D02*
X88917000Y-76791000D01*
X122919000Y-76791000D02*
X108158000Y-76791000D01*
X103678000Y-76751000D02*
X88906000Y-76751000D01*
X122930000Y-76751000D02*
X108158000Y-76751000D01*
X103678000Y-76711000D02*
X88896000Y-76711000D01*
X122940000Y-76711000D02*
X108158000Y-76711000D01*
X103678000Y-76671000D02*
X88885000Y-76671000D01*
X122951000Y-76671000D02*
X108158000Y-76671000D01*
X103678000Y-76631000D02*
X88875000Y-76631000D01*
X122961000Y-76631000D02*
X108158000Y-76631000D01*
X103678000Y-76591000D02*
X88865000Y-76591000D01*
X122971000Y-76591000D02*
X108158000Y-76591000D01*
X103678000Y-76551000D02*
X88855000Y-76551000D01*
X122981000Y-76551000D02*
X108158000Y-76551000D01*
X103678000Y-76511000D02*
X88845000Y-76511000D01*
X122991000Y-76511000D02*
X108158000Y-76511000D01*
X103678000Y-76471000D02*
X88836000Y-76471000D01*
X123000000Y-76471000D02*
X108158000Y-76471000D01*
X103678000Y-76431000D02*
X88826000Y-76431000D01*
X123010000Y-76431000D02*
X108158000Y-76431000D01*
X103678000Y-76391000D02*
X88816000Y-76391000D01*
X123020000Y-76391000D02*
X108158000Y-76391000D01*
X103678000Y-76351000D02*
X88807000Y-76351000D01*
X123029000Y-76351000D02*
X108158000Y-76351000D01*
X103678000Y-76311000D02*
X88798000Y-76311000D01*
X123038000Y-76311000D02*
X108158000Y-76311000D01*
X103678000Y-76271000D02*
X88788000Y-76271000D01*
X123048000Y-76271000D02*
X108158000Y-76271000D01*
X103678000Y-76231000D02*
X88779000Y-76231000D01*
X123057000Y-76231000D02*
X108158000Y-76231000D01*
X103678000Y-76191000D02*
X88770000Y-76191000D01*
X123066000Y-76191000D02*
X108158000Y-76191000D01*
X103678000Y-76151000D02*
X88761000Y-76151000D01*
X123075000Y-76151000D02*
X108158000Y-76151000D01*
X103678000Y-76111000D02*
X88752000Y-76111000D01*
X123084000Y-76111000D02*
X108158000Y-76111000D01*
X103678000Y-76071000D02*
X88743000Y-76071000D01*
X123093000Y-76071000D02*
X108158000Y-76071000D01*
X103678000Y-76031000D02*
X88735000Y-76031000D01*
X123101000Y-76031000D02*
X108158000Y-76031000D01*
X103678000Y-75991000D02*
X88726000Y-75991000D01*
X123110000Y-75991000D02*
X108158000Y-75991000D01*
X103678000Y-75951000D02*
X88718000Y-75951000D01*
X123118000Y-75951000D02*
X108158000Y-75951000D01*
X103678000Y-75911000D02*
X88709000Y-75911000D01*
X123127000Y-75911000D02*
X108158000Y-75911000D01*
X103678000Y-75871000D02*
X88701000Y-75871000D01*
X123135000Y-75871000D02*
X108158000Y-75871000D01*
X103678000Y-75831000D02*
X88693000Y-75831000D01*
X123143000Y-75831000D02*
X108158000Y-75831000D01*
X103678000Y-75791000D02*
X88685000Y-75791000D01*
X123151000Y-75791000D02*
X108158000Y-75791000D01*
X103678000Y-75751000D02*
X88677000Y-75751000D01*
X123159000Y-75751000D02*
X108158000Y-75751000D01*
X103678000Y-75711000D02*
X88669000Y-75711000D01*
X123167000Y-75711000D02*
X108158000Y-75711000D01*
X103678000Y-75671000D02*
X88661000Y-75671000D01*
X123175000Y-75671000D02*
X108158000Y-75671000D01*
X103678000Y-75631000D02*
X88653000Y-75631000D01*
X123183000Y-75631000D02*
X108158000Y-75631000D01*
X103678000Y-75591000D02*
X88645000Y-75591000D01*
X123191000Y-75591000D02*
X108158000Y-75591000D01*
X103678000Y-75551000D02*
X88638000Y-75551000D01*
X123198000Y-75551000D02*
X108158000Y-75551000D01*
X103678000Y-75511000D02*
X88631000Y-75511000D01*
X123205000Y-75511000D02*
X108158000Y-75511000D01*
X103678000Y-75471000D02*
X88623000Y-75471000D01*
X123213000Y-75471000D02*
X108158000Y-75471000D01*
X103678000Y-75431000D02*
X88616000Y-75431000D01*
X123220000Y-75431000D02*
X108158000Y-75431000D01*
X103678000Y-75391000D02*
X88609000Y-75391000D01*
X123227000Y-75391000D02*
X108158000Y-75391000D01*
X103678000Y-75351000D02*
X88602000Y-75351000D01*
X123234000Y-75351000D02*
X108158000Y-75351000D01*
X103678000Y-75311000D02*
X88595000Y-75311000D01*
X123241000Y-75311000D02*
X108158000Y-75311000D01*
X103678000Y-75271000D02*
X88588000Y-75271000D01*
X123248000Y-75271000D02*
X108158000Y-75271000D01*
X103678000Y-75231000D02*
X88581000Y-75231000D01*
X123255000Y-75231000D02*
X108158000Y-75231000D01*
X103678000Y-75191000D02*
X88574000Y-75191000D01*
X123262000Y-75191000D02*
X108158000Y-75191000D01*
X103678000Y-75151000D02*
X88568000Y-75151000D01*
X123268000Y-75151000D02*
X108158000Y-75151000D01*
X103678000Y-75111000D02*
X88561000Y-75111000D01*
X123275000Y-75111000D02*
X108158000Y-75111000D01*
X103678000Y-75071000D02*
X88555000Y-75071000D01*
X123281000Y-75071000D02*
X108158000Y-75071000D01*
X123287000Y-75031000D02*
X88549000Y-75031000D01*
X123293000Y-74991000D02*
X88543000Y-74991000D01*
X123300000Y-74951000D02*
X88536000Y-74951000D01*
X123306000Y-74911000D02*
X88530000Y-74911000D01*
X123312000Y-74871000D02*
X88524000Y-74871000D01*
X123317000Y-74831000D02*
X88519000Y-74831000D01*
X123323000Y-74791000D02*
X88513000Y-74791000D01*
X123329000Y-74751000D02*
X88507000Y-74751000D01*
X123334000Y-74711000D02*
X88502000Y-74711000D01*
X123340000Y-74671000D02*
X88496000Y-74671000D01*
X123345000Y-74631000D02*
X88491000Y-74631000D01*
X123350000Y-74591000D02*
X88486000Y-74591000D01*
X123356000Y-74551000D02*
X88480000Y-74551000D01*
X123361000Y-74511000D02*
X88475000Y-74511000D01*
X123366000Y-74471000D02*
X88470000Y-74471000D01*
X123370000Y-74431000D02*
X88466000Y-74431000D01*
X123375000Y-74391000D02*
X88461000Y-74391000D01*
X123380000Y-74351000D02*
X88456000Y-74351000D01*
X123385000Y-74311000D02*
X88451000Y-74311000D01*
X123389000Y-74271000D02*
X88447000Y-74271000D01*
X123394000Y-74231000D02*
X88442000Y-74231000D01*
X123398000Y-74191000D02*
X88438000Y-74191000D01*
X123402000Y-74151000D02*
X88434000Y-74151000D01*
X123406000Y-74111000D02*
X88430000Y-74111000D01*
X123410000Y-74071000D02*
X88426000Y-74071000D01*
X123414000Y-74031000D02*
X88422000Y-74031000D01*
X123418000Y-73991000D02*
X88418000Y-73991000D01*
X123422000Y-73951000D02*
X88414000Y-73951000D01*
X123426000Y-73911000D02*
X88410000Y-73911000D01*
X123429000Y-73871000D02*
X88407000Y-73871000D01*
X123433000Y-73831000D02*
X88403000Y-73831000D01*
X123436000Y-73791000D02*
X88400000Y-73791000D01*
X123440000Y-73751000D02*
X88396000Y-73751000D01*
X123443000Y-73711000D02*
X88393000Y-73711000D01*
X123446000Y-73671000D02*
X88390000Y-73671000D01*
X123449000Y-73631000D02*
X88387000Y-73631000D01*
X123452000Y-73591000D02*
X88384000Y-73591000D01*
X123455000Y-73551000D02*
X88381000Y-73551000D01*
X123458000Y-73511000D02*
X88378000Y-73511000D01*
X123460000Y-73471000D02*
X88376000Y-73471000D01*
X123463000Y-73431000D02*
X88373000Y-73431000D01*
X123465000Y-73391000D02*
X88371000Y-73391000D01*
X123468000Y-73351000D02*
X88368000Y-73351000D01*
X123470000Y-73311000D02*
X88366000Y-73311000D01*
X123472000Y-73271000D02*
X88364000Y-73271000D01*
X123474000Y-73231000D02*
X88362000Y-73231000D01*
X123477000Y-73191000D02*
X88359000Y-73191000D01*
X123478000Y-73151000D02*
X88358000Y-73151000D01*
X123480000Y-73111000D02*
X88356000Y-73111000D01*
X123482000Y-73071000D02*
X88354000Y-73071000D01*
X123484000Y-73031000D02*
X88352000Y-73031000D01*
X123485000Y-72990000D02*
X88351000Y-72990000D01*
X123487000Y-72950000D02*
X88349000Y-72950000D01*
X123488000Y-72910000D02*
X88348000Y-72910000D01*
X123490000Y-72870000D02*
X88346000Y-72870000D01*
X123491000Y-72830000D02*
X88345000Y-72830000D01*
X123492000Y-72790000D02*
X88344000Y-72790000D01*
X123493000Y-72750000D02*
X88343000Y-72750000D01*
X123494000Y-72710000D02*
X88342000Y-72710000D01*
X123495000Y-72670000D02*
X88341000Y-72670000D01*
X123496000Y-72630000D02*
X88340000Y-72630000D01*
X123496000Y-72590000D02*
X88340000Y-72590000D01*
X123497000Y-72550000D02*
X88339000Y-72550000D01*
X123497000Y-72510000D02*
X88339000Y-72510000D01*
X123498000Y-72470000D02*
X88338000Y-72470000D01*
X123498000Y-72430000D02*
X88338000Y-72430000D01*
X123498000Y-72390000D02*
X88338000Y-72390000D01*
X123498000Y-72350000D02*
X88338000Y-72350000D01*
X123498000Y-72310000D02*
X88338000Y-72310000D01*
X123538000Y-72310000D02*
G75*
G03*
X123538000Y-72310000I-17620000J0D01*
G01*
D10*
X189444380Y-120221333D02*
X190158666Y-120221333D01*
X190301523Y-120268952D01*
X190396761Y-120364190D01*
X190444380Y-120507047D01*
X190444380Y-120602285D01*
X189444380Y-119268952D02*
X189444380Y-119745142D01*
X189920571Y-119792761D01*
X189872952Y-119745142D01*
X189825333Y-119649904D01*
X189825333Y-119411809D01*
X189872952Y-119316571D01*
X189920571Y-119268952D01*
X190015809Y-119221333D01*
X190253904Y-119221333D01*
X190349142Y-119268952D01*
X190396761Y-119316571D01*
X190444380Y-119411809D01*
X190444380Y-119649904D01*
X190396761Y-119745142D01*
X190349142Y-119792761D01*
X189444380Y-61547333D02*
X190158666Y-61547333D01*
X190301523Y-61594952D01*
X190396761Y-61690190D01*
X190444380Y-61833047D01*
X190444380Y-61928285D01*
X189777714Y-60642571D02*
X190444380Y-60642571D01*
X189396761Y-60880666D02*
X190111047Y-61118761D01*
X190111047Y-60499714D01*
X181276666Y-126198380D02*
X181276666Y-126912666D01*
X181229047Y-127055523D01*
X181133809Y-127150761D01*
X180990952Y-127198380D01*
X180895714Y-127198380D01*
X181657619Y-126198380D02*
X182276666Y-126198380D01*
X181943333Y-126579333D01*
X182086190Y-126579333D01*
X182181428Y-126626952D01*
X182229047Y-126674571D01*
X182276666Y-126769809D01*
X182276666Y-127007904D01*
X182229047Y-127103142D01*
X182181428Y-127150761D01*
X182086190Y-127198380D01*
X181800476Y-127198380D01*
X181705238Y-127150761D01*
X181657619Y-127103142D01*
X181022666Y-53554380D02*
X181022666Y-54268666D01*
X180975047Y-54411523D01*
X180879809Y-54506761D01*
X180736952Y-54554380D01*
X180641714Y-54554380D01*
X181451238Y-53649619D02*
X181498857Y-53602000D01*
X181594095Y-53554380D01*
X181832190Y-53554380D01*
X181927428Y-53602000D01*
X181975047Y-53649619D01*
X182022666Y-53744857D01*
X182022666Y-53840095D01*
X181975047Y-53982952D01*
X181403619Y-54554380D01*
X182022666Y-54554380D01*
X181570380Y-104727333D02*
X182284666Y-104727333D01*
X182427523Y-104774952D01*
X182522761Y-104870190D01*
X182570380Y-105013047D01*
X182570380Y-105108285D01*
X181570380Y-104346380D02*
X181570380Y-103679714D01*
X182570380Y-104108285D01*
X181570380Y-76533333D02*
X182284666Y-76533333D01*
X182427523Y-76580952D01*
X182522761Y-76676190D01*
X182570380Y-76819047D01*
X182570380Y-76914285D01*
X181570380Y-75628571D02*
X181570380Y-75819047D01*
X181618000Y-75914285D01*
X181665619Y-75961904D01*
X181808476Y-76057142D01*
X181998952Y-76104761D01*
X182379904Y-76104761D01*
X182475142Y-76057142D01*
X182522761Y-76009523D01*
X182570380Y-75914285D01*
X182570380Y-75723809D01*
X182522761Y-75628571D01*
X182475142Y-75580952D01*
X182379904Y-75533333D01*
X182141809Y-75533333D01*
X182046571Y-75580952D01*
X181998952Y-75628571D01*
X181951333Y-75723809D01*
X181951333Y-75914285D01*
X181998952Y-76009523D01*
X182046571Y-76057142D01*
X182141809Y-76104761D01*
X79676666Y-78446380D02*
X79676666Y-79160666D01*
X79629047Y-79303523D01*
X79533809Y-79398761D01*
X79390952Y-79446380D01*
X79295714Y-79446380D01*
X80676666Y-79446380D02*
X80105238Y-79446380D01*
X80390952Y-79446380D02*
X80390952Y-78446380D01*
X80295714Y-78589238D01*
X80200476Y-78684476D01*
X80105238Y-78732095D01*
X154265333Y-123039142D02*
X154217714Y-123086761D01*
X154074857Y-123134380D01*
X153979619Y-123134380D01*
X153836761Y-123086761D01*
X153741523Y-122991523D01*
X153693904Y-122896285D01*
X153646285Y-122705809D01*
X153646285Y-122562952D01*
X153693904Y-122372476D01*
X153741523Y-122277238D01*
X153836761Y-122182000D01*
X153979619Y-122134380D01*
X154074857Y-122134380D01*
X154217714Y-122182000D01*
X154265333Y-122229619D01*
X155122476Y-122467714D02*
X155122476Y-123134380D01*
X154884380Y-122086761D02*
X154646285Y-122801047D01*
X155265333Y-122801047D01*
X154265333Y-58269142D02*
X154217714Y-58316761D01*
X154074857Y-58364380D01*
X153979619Y-58364380D01*
X153836761Y-58316761D01*
X153741523Y-58221523D01*
X153693904Y-58126285D01*
X153646285Y-57935809D01*
X153646285Y-57792952D01*
X153693904Y-57602476D01*
X153741523Y-57507238D01*
X153836761Y-57412000D01*
X153979619Y-57364380D01*
X154074857Y-57364380D01*
X154217714Y-57412000D01*
X154265333Y-57459619D01*
X154598666Y-57364380D02*
X155217714Y-57364380D01*
X154884380Y-57745333D01*
X155027238Y-57745333D01*
X155122476Y-57792952D01*
X155170095Y-57840571D01*
X155217714Y-57935809D01*
X155217714Y-58173904D01*
X155170095Y-58269142D01*
X155122476Y-58316761D01*
X155027238Y-58364380D01*
X154741523Y-58364380D01*
X154646285Y-58316761D01*
X154598666Y-58269142D01*
X179681142Y-98178857D02*
X179728761Y-98226476D01*
X179776380Y-98369333D01*
X179776380Y-98464571D01*
X179728761Y-98607428D01*
X179633523Y-98702666D01*
X179538285Y-98750285D01*
X179347809Y-98797904D01*
X179204952Y-98797904D01*
X179014476Y-98750285D01*
X178919238Y-98702666D01*
X178824000Y-98607428D01*
X178776380Y-98464571D01*
X178776380Y-98369333D01*
X178824000Y-98226476D01*
X178871619Y-98178857D01*
X179776380Y-97226476D02*
X179776380Y-97797904D01*
X179776380Y-97512190D02*
X178776380Y-97512190D01*
X178919238Y-97607428D01*
X179014476Y-97702666D01*
X179062095Y-97797904D01*
X178776380Y-96607428D02*
X178776380Y-96512190D01*
X178824000Y-96416952D01*
X178871619Y-96369333D01*
X178966857Y-96321714D01*
X179157333Y-96274095D01*
X179395428Y-96274095D01*
X179585904Y-96321714D01*
X179681142Y-96369333D01*
X179728761Y-96416952D01*
X179776380Y-96512190D01*
X179776380Y-96607428D01*
X179728761Y-96702666D01*
X179681142Y-96750285D01*
X179585904Y-96797904D01*
X179395428Y-96845523D01*
X179157333Y-96845523D01*
X178966857Y-96797904D01*
X178871619Y-96750285D01*
X178824000Y-96702666D01*
X178776380Y-96607428D01*
X179681142Y-83986666D02*
X179728761Y-84034285D01*
X179776380Y-84177142D01*
X179776380Y-84272380D01*
X179728761Y-84415238D01*
X179633523Y-84510476D01*
X179538285Y-84558095D01*
X179347809Y-84605714D01*
X179204952Y-84605714D01*
X179014476Y-84558095D01*
X178919238Y-84510476D01*
X178824000Y-84415238D01*
X178776380Y-84272380D01*
X178776380Y-84177142D01*
X178824000Y-84034285D01*
X178871619Y-83986666D01*
X179776380Y-83510476D02*
X179776380Y-83320000D01*
X179728761Y-83224761D01*
X179681142Y-83177142D01*
X179538285Y-83081904D01*
X179347809Y-83034285D01*
X178966857Y-83034285D01*
X178871619Y-83081904D01*
X178824000Y-83129523D01*
X178776380Y-83224761D01*
X178776380Y-83415238D01*
X178824000Y-83510476D01*
X178871619Y-83558095D01*
X178966857Y-83605714D01*
X179204952Y-83605714D01*
X179300190Y-83558095D01*
X179347809Y-83510476D01*
X179395428Y-83415238D01*
X179395428Y-83224761D01*
X179347809Y-83129523D01*
X179300190Y-83081904D01*
X179204952Y-83034285D01*
X162155142Y-90590666D02*
X162202761Y-90638285D01*
X162250380Y-90781142D01*
X162250380Y-90876380D01*
X162202761Y-91019238D01*
X162107523Y-91114476D01*
X162012285Y-91162095D01*
X161821809Y-91209714D01*
X161678952Y-91209714D01*
X161488476Y-91162095D01*
X161393238Y-91114476D01*
X161298000Y-91019238D01*
X161250380Y-90876380D01*
X161250380Y-90781142D01*
X161298000Y-90638285D01*
X161345619Y-90590666D01*
X161678952Y-90019238D02*
X161631333Y-90114476D01*
X161583714Y-90162095D01*
X161488476Y-90209714D01*
X161440857Y-90209714D01*
X161345619Y-90162095D01*
X161298000Y-90114476D01*
X161250380Y-90019238D01*
X161250380Y-89828761D01*
X161298000Y-89733523D01*
X161345619Y-89685904D01*
X161440857Y-89638285D01*
X161488476Y-89638285D01*
X161583714Y-89685904D01*
X161631333Y-89733523D01*
X161678952Y-89828761D01*
X161678952Y-90019238D01*
X161726571Y-90114476D01*
X161774190Y-90162095D01*
X161869428Y-90209714D01*
X162059904Y-90209714D01*
X162155142Y-90162095D01*
X162202761Y-90114476D01*
X162250380Y-90019238D01*
X162250380Y-89828761D01*
X162202761Y-89733523D01*
X162155142Y-89685904D01*
X162059904Y-89638285D01*
X161869428Y-89638285D01*
X161774190Y-89685904D01*
X161726571Y-89733523D01*
X161678952Y-89828761D01*
X175363142Y-90574666D02*
X175410761Y-90622285D01*
X175458380Y-90765142D01*
X175458380Y-90860380D01*
X175410761Y-91003238D01*
X175315523Y-91098476D01*
X175220285Y-91146095D01*
X175029809Y-91193714D01*
X174886952Y-91193714D01*
X174696476Y-91146095D01*
X174601238Y-91098476D01*
X174506000Y-91003238D01*
X174458380Y-90860380D01*
X174458380Y-90765142D01*
X174506000Y-90622285D01*
X174553619Y-90574666D01*
X174458380Y-90241333D02*
X174458380Y-89574666D01*
X175458380Y-90003238D01*
X81986380Y-110656666D02*
X81510190Y-110990000D01*
X81986380Y-111228095D02*
X80986380Y-111228095D01*
X80986380Y-110847142D01*
X81034000Y-110751904D01*
X81081619Y-110704285D01*
X81176857Y-110656666D01*
X81319714Y-110656666D01*
X81414952Y-110704285D01*
X81462571Y-110751904D01*
X81510190Y-110847142D01*
X81510190Y-111228095D01*
X81081619Y-110275714D02*
X81034000Y-110228095D01*
X80986380Y-110132857D01*
X80986380Y-109894761D01*
X81034000Y-109799523D01*
X81081619Y-109751904D01*
X81176857Y-109704285D01*
X81272095Y-109704285D01*
X81414952Y-109751904D01*
X81986380Y-110323333D01*
X81986380Y-109704285D01*
X81986380Y-70524666D02*
X81510190Y-70858000D01*
X81986380Y-71096095D02*
X80986380Y-71096095D01*
X80986380Y-70715142D01*
X81034000Y-70619904D01*
X81081619Y-70572285D01*
X81176857Y-70524666D01*
X81319714Y-70524666D01*
X81414952Y-70572285D01*
X81462571Y-70619904D01*
X81510190Y-70715142D01*
X81510190Y-71096095D01*
X81986380Y-69572285D02*
X81986380Y-70143714D01*
X81986380Y-69858000D02*
X80986380Y-69858000D01*
X81129238Y-69953238D01*
X81224476Y-70048476D01*
X81272095Y-70143714D01*
X167640095Y-95766380D02*
X167640095Y-96575904D01*
X167687714Y-96671142D01*
X167735333Y-96718761D01*
X167830571Y-96766380D01*
X168021047Y-96766380D01*
X168116285Y-96718761D01*
X168163904Y-96671142D01*
X168211523Y-96575904D01*
X168211523Y-95766380D01*
X168640095Y-95861619D02*
X168687714Y-95814000D01*
X168782952Y-95766380D01*
X169021047Y-95766380D01*
X169116285Y-95814000D01*
X169163904Y-95861619D01*
X169211523Y-95956857D01*
X169211523Y-96052095D01*
X169163904Y-96194952D01*
X168592476Y-96766380D01*
X169211523Y-96766380D01*
X167640095Y-83986380D02*
X167640095Y-84795904D01*
X167687714Y-84891142D01*
X167735333Y-84938761D01*
X167830571Y-84986380D01*
X168021047Y-84986380D01*
X168116285Y-84938761D01*
X168163904Y-84891142D01*
X168211523Y-84795904D01*
X168211523Y-83986380D01*
X169211523Y-84986380D02*
X168640095Y-84986380D01*
X168925809Y-84986380D02*
X168925809Y-83986380D01*
X168830571Y-84129238D01*
X168735333Y-84224476D01*
X168640095Y-84272095D01*
X118451333Y-123039142D02*
X118403714Y-123086761D01*
X118260857Y-123134380D01*
X118165619Y-123134380D01*
X118022761Y-123086761D01*
X117927523Y-122991523D01*
X117879904Y-122896285D01*
X117832285Y-122705809D01*
X117832285Y-122562952D01*
X117879904Y-122372476D01*
X117927523Y-122277238D01*
X118022761Y-122182000D01*
X118165619Y-122134380D01*
X118260857Y-122134380D01*
X118403714Y-122182000D01*
X118451333Y-122229619D01*
X118832285Y-122229619D02*
X118879904Y-122182000D01*
X118975142Y-122134380D01*
X119213238Y-122134380D01*
X119308476Y-122182000D01*
X119356095Y-122229619D01*
X119403714Y-122324857D01*
X119403714Y-122420095D01*
X119356095Y-122562952D01*
X118784666Y-123134380D01*
X119403714Y-123134380D01*
X118451333Y-58269142D02*
X118403714Y-58316761D01*
X118260857Y-58364380D01*
X118165619Y-58364380D01*
X118022761Y-58316761D01*
X117927523Y-58221523D01*
X117879904Y-58126285D01*
X117832285Y-57935809D01*
X117832285Y-57792952D01*
X117879904Y-57602476D01*
X117927523Y-57507238D01*
X118022761Y-57412000D01*
X118165619Y-57364380D01*
X118260857Y-57364380D01*
X118403714Y-57412000D01*
X118451333Y-57459619D01*
X119403714Y-58364380D02*
X118832285Y-58364380D01*
X119118000Y-58364380D02*
X119118000Y-57364380D01*
X119022761Y-57507238D01*
X118927523Y-57602476D01*
X118832285Y-57650095D01*
M02*
