M48
; DRILL file {KiCad 5.1.9} date Mon Apr 19 04:03:35 2021
; FORMAT={-:-/ absolute / inch / decimal}
; #@! TF.CreationDate,2021-04-19T04:03:35-04:00
; #@! TF.GenerationSoftware,Kicad,Pcbnew,5.1.9
; #@! TF.FileFunction,Plated,1,2,PTH
FMAT,2
INCH
T1C0.0157
T2C0.0197
T3C0.0315
T4C0.0433
T5C0.0472
T6C0.0512
T7C0.0787
T8C0.1260
%
G90
G05
T1
X6.34Y-2.99
X6.34Y-3.02
X6.34Y-3.05
X6.34Y-4.07
X6.34Y-4.1
X6.34Y-4.13
X6.35Y-3.22
X6.35Y-3.83
X6.37Y-2.99
X6.37Y-3.02
X6.37Y-3.05
X6.37Y-4.07
X6.37Y-4.1
X6.37Y-4.13
X6.4Y-2.99
X6.4Y-3.02
X6.4Y-3.05
X6.4Y-3.22
X6.4Y-3.83
X6.4Y-4.07
X6.4Y-4.1
X6.4Y-4.13
X6.43Y-2.99
X6.43Y-3.02
X6.43Y-3.05
X6.43Y-4.07
X6.43Y-4.1
X6.43Y-4.13
X6.83Y-2.99
X6.83Y-3.02
X6.83Y-3.05
X6.83Y-4.07
X6.83Y-4.1
X6.83Y-4.13
X6.86Y-2.99
X6.86Y-3.02
X6.86Y-3.05
X6.86Y-4.07
X6.86Y-4.1
X6.86Y-4.13
X6.89Y-2.99
X6.89Y-3.02
X6.89Y-3.05
X6.89Y-4.07
X6.89Y-4.1
X6.89Y-4.13
X6.92Y-2.99
X6.92Y-3.02
X6.92Y-3.05
X6.92Y-4.07
X6.92Y-4.1
X6.92Y-4.13
T2
X4.9955Y-3.56
X5.0232Y-3.4932
X5.0232Y-3.6268
X5.09Y-3.4655
X5.09Y-3.6545
X5.1568Y-3.4932
X5.1568Y-3.6268
X5.1845Y-3.56
T3
X6.51Y-3.52
X6.51Y-3.5987
X6.75Y-3.52
X6.75Y-3.5987
X7.06Y-3.41
X7.06Y-3.4887
X7.06Y-3.63
X7.06Y-3.7087
T4
X6.53Y-3.16
X6.53Y-3.96
X6.63Y-3.16
X6.63Y-3.96
X6.73Y-3.16
X6.73Y-3.96
T5
X3.33Y-2.47
X3.33Y-3.07
X3.33Y-4.05
X3.33Y-4.65
X7.34Y-3.0466
X7.34Y-3.1844
X7.34Y-3.3222
X7.34Y-3.46
X7.34Y-3.6616
X7.34Y-3.7994
X7.34Y-3.9372
X7.34Y-4.075
T6
X3.3Y-3.265
X3.3Y-3.4619
X3.3Y-3.6587
X3.3Y-3.8556
X6.3894Y-2.29
X6.39Y-4.83
X6.5863Y-2.29
X6.5869Y-4.83
X6.7831Y-2.29
X6.7837Y-4.83
X6.98Y-2.29
X6.9806Y-4.83
X7.32Y-2.5731
X7.32Y-2.77
X7.32Y-4.3581
X7.32Y-4.555
T7
X4.17Y-2.65
X4.17Y-3.0437
X4.17Y-4.07
X4.17Y-4.4637
X5.58Y-2.65
X5.58Y-3.0437
X5.58Y-4.07
X5.58Y-4.4637
T8
X5.09Y-3.56
T0
M30
