G04 #@! TF.GenerationSoftware,KiCad,Pcbnew,5.1.9*
G04 #@! TF.CreationDate,2021-04-19T03:59:41-04:00*
G04 #@! TF.ProjectId,lm3886_soft_start_v2,6c6d3338-3836-45f7-936f-66745f737461,rev?*
G04 #@! TF.SameCoordinates,Original*
G04 #@! TF.FileFunction,Legend,Top*
G04 #@! TF.FilePolarity,Positive*
%FSLAX46Y46*%
G04 Gerber Fmt 4.6, Leading zero omitted, Abs format (unit mm)*
G04 Created by KiCad (PCBNEW 5.1.9) date 2021-04-19 03:59:41*
%MOMM*%
%LPD*%
G01*
G04 APERTURE LIST*
%ADD10C,0.150000*%
%ADD11C,0.120000*%
G04 APERTURE END LIST*
D10*
X73946857Y-101989476D02*
X73851619Y-101941857D01*
X73661142Y-101941857D01*
X73565904Y-101989476D01*
X73470666Y-102084714D01*
X73423047Y-102179952D01*
X73423047Y-102370428D01*
X73470666Y-102465666D01*
X73565904Y-102560904D01*
X73661142Y-102608523D01*
X73851619Y-102608523D01*
X73946857Y-102560904D01*
X73756380Y-101608523D02*
X73518285Y-101656142D01*
X73280190Y-101799000D01*
X73137333Y-102037095D01*
X73089714Y-102275190D01*
X73137333Y-102513285D01*
X73280190Y-102751380D01*
X73518285Y-102894238D01*
X73756380Y-102941857D01*
X73994476Y-102894238D01*
X74232571Y-102751380D01*
X74375428Y-102513285D01*
X74423047Y-102275190D01*
X74375428Y-102037095D01*
X74232571Y-101799000D01*
X73994476Y-101656142D01*
X73756380Y-101608523D01*
X75613523Y-102751380D02*
X75613523Y-101751380D01*
X75946857Y-102465666D01*
X76280190Y-101751380D01*
X76280190Y-102751380D01*
X76756380Y-102751380D02*
X76756380Y-102084714D01*
X76756380Y-101751380D02*
X76708761Y-101799000D01*
X76756380Y-101846619D01*
X76804000Y-101799000D01*
X76756380Y-101751380D01*
X76756380Y-101846619D01*
X77661142Y-102703761D02*
X77565904Y-102751380D01*
X77375428Y-102751380D01*
X77280190Y-102703761D01*
X77232571Y-102656142D01*
X77184952Y-102560904D01*
X77184952Y-102275190D01*
X77232571Y-102179952D01*
X77280190Y-102132333D01*
X77375428Y-102084714D01*
X77565904Y-102084714D01*
X77661142Y-102132333D01*
X78089714Y-102751380D02*
X78089714Y-101751380D01*
X78518285Y-102751380D02*
X78518285Y-102227571D01*
X78470666Y-102132333D01*
X78375428Y-102084714D01*
X78232571Y-102084714D01*
X78137333Y-102132333D01*
X78089714Y-102179952D01*
X79423047Y-102751380D02*
X79423047Y-102227571D01*
X79375428Y-102132333D01*
X79280190Y-102084714D01*
X79089714Y-102084714D01*
X78994476Y-102132333D01*
X79423047Y-102703761D02*
X79327809Y-102751380D01*
X79089714Y-102751380D01*
X78994476Y-102703761D01*
X78946857Y-102608523D01*
X78946857Y-102513285D01*
X78994476Y-102418047D01*
X79089714Y-102370428D01*
X79327809Y-102370428D01*
X79423047Y-102322809D01*
X80280190Y-102703761D02*
X80184952Y-102751380D01*
X79994476Y-102751380D01*
X79899238Y-102703761D01*
X79851619Y-102608523D01*
X79851619Y-102227571D01*
X79899238Y-102132333D01*
X79994476Y-102084714D01*
X80184952Y-102084714D01*
X80280190Y-102132333D01*
X80327809Y-102227571D01*
X80327809Y-102322809D01*
X79851619Y-102418047D01*
X80899238Y-102751380D02*
X80804000Y-102703761D01*
X80756380Y-102608523D01*
X80756380Y-101751380D01*
X82375428Y-102227571D02*
X82518285Y-102275190D01*
X82565904Y-102322809D01*
X82613523Y-102418047D01*
X82613523Y-102560904D01*
X82565904Y-102656142D01*
X82518285Y-102703761D01*
X82423047Y-102751380D01*
X82042095Y-102751380D01*
X82042095Y-101751380D01*
X82375428Y-101751380D01*
X82470666Y-101799000D01*
X82518285Y-101846619D01*
X82565904Y-101941857D01*
X82565904Y-102037095D01*
X82518285Y-102132333D01*
X82470666Y-102179952D01*
X82375428Y-102227571D01*
X82042095Y-102227571D01*
X83470666Y-102751380D02*
X83470666Y-102227571D01*
X83423047Y-102132333D01*
X83327809Y-102084714D01*
X83137333Y-102084714D01*
X83042095Y-102132333D01*
X83470666Y-102703761D02*
X83375428Y-102751380D01*
X83137333Y-102751380D01*
X83042095Y-102703761D01*
X82994476Y-102608523D01*
X82994476Y-102513285D01*
X83042095Y-102418047D01*
X83137333Y-102370428D01*
X83375428Y-102370428D01*
X83470666Y-102322809D01*
X83946857Y-102751380D02*
X83946857Y-102084714D01*
X83946857Y-102275190D02*
X83994476Y-102179952D01*
X84042095Y-102132333D01*
X84137333Y-102084714D01*
X84232571Y-102084714D01*
X84565904Y-102751380D02*
X84565904Y-101751380D01*
X84565904Y-102132333D02*
X84661142Y-102084714D01*
X84851619Y-102084714D01*
X84946857Y-102132333D01*
X84994476Y-102179952D01*
X85042095Y-102275190D01*
X85042095Y-102560904D01*
X84994476Y-102656142D01*
X84946857Y-102703761D01*
X84851619Y-102751380D01*
X84661142Y-102751380D01*
X84565904Y-102703761D01*
X85613523Y-102751380D02*
X85518285Y-102703761D01*
X85470666Y-102656142D01*
X85423047Y-102560904D01*
X85423047Y-102275190D01*
X85470666Y-102179952D01*
X85518285Y-102132333D01*
X85613523Y-102084714D01*
X85756380Y-102084714D01*
X85851619Y-102132333D01*
X85899238Y-102179952D01*
X85946857Y-102275190D01*
X85946857Y-102560904D01*
X85899238Y-102656142D01*
X85851619Y-102703761D01*
X85756380Y-102751380D01*
X85613523Y-102751380D01*
X86804000Y-102084714D02*
X86804000Y-102751380D01*
X86375428Y-102084714D02*
X86375428Y-102608523D01*
X86423047Y-102703761D01*
X86518285Y-102751380D01*
X86661142Y-102751380D01*
X86756380Y-102703761D01*
X86804000Y-102656142D01*
X87280190Y-102751380D02*
X87280190Y-102084714D01*
X87280190Y-102275190D02*
X87327809Y-102179952D01*
X87375428Y-102132333D01*
X87470666Y-102084714D01*
X87565904Y-102084714D01*
X87946857Y-102703761D02*
X87946857Y-102751380D01*
X87899238Y-102846619D01*
X87851619Y-102894238D01*
X89089714Y-101846619D02*
X89137333Y-101799000D01*
X89232571Y-101751380D01*
X89470666Y-101751380D01*
X89565904Y-101799000D01*
X89613523Y-101846619D01*
X89661142Y-101941857D01*
X89661142Y-102037095D01*
X89613523Y-102179952D01*
X89042095Y-102751380D01*
X89661142Y-102751380D01*
X90280190Y-101751380D02*
X90375428Y-101751380D01*
X90470666Y-101799000D01*
X90518285Y-101846619D01*
X90565904Y-101941857D01*
X90613523Y-102132333D01*
X90613523Y-102370428D01*
X90565904Y-102560904D01*
X90518285Y-102656142D01*
X90470666Y-102703761D01*
X90375428Y-102751380D01*
X90280190Y-102751380D01*
X90184952Y-102703761D01*
X90137333Y-102656142D01*
X90089714Y-102560904D01*
X90042095Y-102370428D01*
X90042095Y-102132333D01*
X90089714Y-101941857D01*
X90137333Y-101846619D01*
X90184952Y-101799000D01*
X90280190Y-101751380D01*
X90994476Y-101846619D02*
X91042095Y-101799000D01*
X91137333Y-101751380D01*
X91375428Y-101751380D01*
X91470666Y-101799000D01*
X91518285Y-101846619D01*
X91565904Y-101941857D01*
X91565904Y-102037095D01*
X91518285Y-102179952D01*
X90946857Y-102751380D01*
X91565904Y-102751380D01*
X92184952Y-101751380D02*
X92280190Y-101751380D01*
X92375428Y-101799000D01*
X92423047Y-101846619D01*
X92470666Y-101941857D01*
X92518285Y-102132333D01*
X92518285Y-102370428D01*
X92470666Y-102560904D01*
X92423047Y-102656142D01*
X92375428Y-102703761D01*
X92280190Y-102751380D01*
X92184952Y-102751380D01*
X92089714Y-102703761D01*
X92042095Y-102656142D01*
X91994476Y-102560904D01*
X91946857Y-102370428D01*
X91946857Y-102132333D01*
X91994476Y-101941857D01*
X92042095Y-101846619D01*
X92089714Y-101799000D01*
X92184952Y-101751380D01*
X78208761Y-104306142D02*
X78161142Y-104353761D01*
X78018285Y-104401380D01*
X77923047Y-104401380D01*
X77780190Y-104353761D01*
X77684952Y-104258523D01*
X77637333Y-104163285D01*
X77589714Y-103972809D01*
X77589714Y-103829952D01*
X77637333Y-103639476D01*
X77684952Y-103544238D01*
X77780190Y-103449000D01*
X77923047Y-103401380D01*
X78018285Y-103401380D01*
X78161142Y-103449000D01*
X78208761Y-103496619D01*
X79208761Y-104306142D02*
X79161142Y-104353761D01*
X79018285Y-104401380D01*
X78923047Y-104401380D01*
X78780190Y-104353761D01*
X78684952Y-104258523D01*
X78637333Y-104163285D01*
X78589714Y-103972809D01*
X78589714Y-103829952D01*
X78637333Y-103639476D01*
X78684952Y-103544238D01*
X78780190Y-103449000D01*
X78923047Y-103401380D01*
X79018285Y-103401380D01*
X79161142Y-103449000D01*
X79208761Y-103496619D01*
X80732571Y-103877571D02*
X80875428Y-103925190D01*
X80923047Y-103972809D01*
X80970666Y-104068047D01*
X80970666Y-104210904D01*
X80923047Y-104306142D01*
X80875428Y-104353761D01*
X80780190Y-104401380D01*
X80399238Y-104401380D01*
X80399238Y-103401380D01*
X80732571Y-103401380D01*
X80827809Y-103449000D01*
X80875428Y-103496619D01*
X80923047Y-103591857D01*
X80923047Y-103687095D01*
X80875428Y-103782333D01*
X80827809Y-103829952D01*
X80732571Y-103877571D01*
X80399238Y-103877571D01*
X81589714Y-103925190D02*
X81589714Y-104401380D01*
X81256380Y-103401380D02*
X81589714Y-103925190D01*
X81923047Y-103401380D01*
X82256380Y-104020428D02*
X83018285Y-104020428D01*
X83446857Y-104353761D02*
X83589714Y-104401380D01*
X83827809Y-104401380D01*
X83923047Y-104353761D01*
X83970666Y-104306142D01*
X84018285Y-104210904D01*
X84018285Y-104115666D01*
X83970666Y-104020428D01*
X83923047Y-103972809D01*
X83827809Y-103925190D01*
X83637333Y-103877571D01*
X83542095Y-103829952D01*
X83494476Y-103782333D01*
X83446857Y-103687095D01*
X83446857Y-103591857D01*
X83494476Y-103496619D01*
X83542095Y-103449000D01*
X83637333Y-103401380D01*
X83875428Y-103401380D01*
X84018285Y-103449000D01*
X84399238Y-104115666D02*
X84875428Y-104115666D01*
X84304000Y-104401380D02*
X84637333Y-103401380D01*
X84970666Y-104401380D01*
X86494476Y-103734714D02*
X86494476Y-104401380D01*
X86256380Y-103353761D02*
X86018285Y-104068047D01*
X86637333Y-104068047D01*
X87018285Y-104306142D02*
X87065904Y-104353761D01*
X87018285Y-104401380D01*
X86970666Y-104353761D01*
X87018285Y-104306142D01*
X87018285Y-104401380D01*
X87684952Y-103401380D02*
X87780190Y-103401380D01*
X87875428Y-103449000D01*
X87923047Y-103496619D01*
X87970666Y-103591857D01*
X88018285Y-103782333D01*
X88018285Y-104020428D01*
X87970666Y-104210904D01*
X87923047Y-104306142D01*
X87875428Y-104353761D01*
X87780190Y-104401380D01*
X87684952Y-104401380D01*
X87589714Y-104353761D01*
X87542095Y-104306142D01*
X87494476Y-104210904D01*
X87446857Y-104020428D01*
X87446857Y-103782333D01*
X87494476Y-103591857D01*
X87542095Y-103496619D01*
X87589714Y-103449000D01*
X87684952Y-103401380D01*
X125166380Y-56903809D02*
X124166380Y-56903809D01*
X125166380Y-56427619D02*
X124166380Y-56427619D01*
X125166380Y-55856190D01*
X124166380Y-55856190D01*
X125166380Y-55380000D02*
X124166380Y-55380000D01*
X124166380Y-55141904D01*
X124214000Y-54999047D01*
X124309238Y-54903809D01*
X124404476Y-54856190D01*
X124594952Y-54808571D01*
X124737809Y-54808571D01*
X124928285Y-54856190D01*
X125023523Y-54903809D01*
X125118761Y-54999047D01*
X125166380Y-55141904D01*
X125166380Y-55380000D01*
X120396095Y-63762000D02*
X120300857Y-63714380D01*
X120158000Y-63714380D01*
X120015142Y-63762000D01*
X119919904Y-63857238D01*
X119872285Y-63952476D01*
X119824666Y-64142952D01*
X119824666Y-64285809D01*
X119872285Y-64476285D01*
X119919904Y-64571523D01*
X120015142Y-64666761D01*
X120158000Y-64714380D01*
X120253238Y-64714380D01*
X120396095Y-64666761D01*
X120443714Y-64619142D01*
X120443714Y-64285809D01*
X120253238Y-64285809D01*
X120872285Y-64714380D02*
X120872285Y-63714380D01*
X121443714Y-64714380D01*
X121443714Y-63714380D01*
X121919904Y-64714380D02*
X121919904Y-63714380D01*
X122158000Y-63714380D01*
X122300857Y-63762000D01*
X122396095Y-63857238D01*
X122443714Y-63952476D01*
X122491333Y-64142952D01*
X122491333Y-64285809D01*
X122443714Y-64476285D01*
X122396095Y-64571523D01*
X122300857Y-64666761D01*
X122158000Y-64714380D01*
X121919904Y-64714380D01*
X118419809Y-62126761D02*
X118562666Y-62174380D01*
X118800761Y-62174380D01*
X118896000Y-62126761D01*
X118943619Y-62079142D01*
X118991238Y-61983904D01*
X118991238Y-61888666D01*
X118943619Y-61793428D01*
X118896000Y-61745809D01*
X118800761Y-61698190D01*
X118610285Y-61650571D01*
X118515047Y-61602952D01*
X118467428Y-61555333D01*
X118419809Y-61460095D01*
X118419809Y-61364857D01*
X118467428Y-61269619D01*
X118515047Y-61222000D01*
X118610285Y-61174380D01*
X118848380Y-61174380D01*
X118991238Y-61222000D01*
X119276952Y-61174380D02*
X119848380Y-61174380D01*
X119562666Y-62174380D02*
X119562666Y-61174380D01*
X120134095Y-61888666D02*
X120610285Y-61888666D01*
X120038857Y-62174380D02*
X120372190Y-61174380D01*
X120705523Y-62174380D01*
X121610285Y-62174380D02*
X121276952Y-61698190D01*
X121038857Y-62174380D02*
X121038857Y-61174380D01*
X121419809Y-61174380D01*
X121515047Y-61222000D01*
X121562666Y-61269619D01*
X121610285Y-61364857D01*
X121610285Y-61507714D01*
X121562666Y-61602952D01*
X121515047Y-61650571D01*
X121419809Y-61698190D01*
X121038857Y-61698190D01*
X121896000Y-61174380D02*
X122467428Y-61174380D01*
X122181714Y-62174380D02*
X122181714Y-61174380D01*
X118888095Y-59253428D02*
X119650000Y-59253428D01*
X119269047Y-59634380D02*
X119269047Y-58872476D01*
X120650000Y-59634380D02*
X120078571Y-59634380D01*
X120364285Y-59634380D02*
X120364285Y-58634380D01*
X120269047Y-58777238D01*
X120173809Y-58872476D01*
X120078571Y-58920095D01*
X121030952Y-58729619D02*
X121078571Y-58682000D01*
X121173809Y-58634380D01*
X121411904Y-58634380D01*
X121507142Y-58682000D01*
X121554761Y-58729619D01*
X121602380Y-58824857D01*
X121602380Y-58920095D01*
X121554761Y-59062952D01*
X120983333Y-59634380D01*
X121602380Y-59634380D01*
X121888095Y-58634380D02*
X122221428Y-59634380D01*
X122554761Y-58634380D01*
D11*
X84328000Y-85852000D02*
X85344000Y-85852000D01*
X84328000Y-85090000D02*
X84328000Y-86741000D01*
X84328000Y-76581000D02*
X85344000Y-76581000D01*
X84328000Y-75692000D02*
X84328000Y-77470000D01*
X84328000Y-81280000D02*
X84328000Y-82042000D01*
X84328000Y-81280000D02*
X84328000Y-80518000D01*
X85344000Y-81280000D02*
X84328000Y-81280000D01*
D10*
X86558380Y-79613333D02*
X86606000Y-79660952D01*
X86653619Y-79756190D01*
X86653619Y-79994285D01*
X86606000Y-80089523D01*
X86558380Y-80137142D01*
X86463142Y-80184761D01*
X86367904Y-80184761D01*
X86225047Y-80137142D01*
X85653619Y-79565714D01*
X85653619Y-80184761D01*
X86653619Y-80518095D02*
X86653619Y-81137142D01*
X86272666Y-80803809D01*
X86272666Y-80946666D01*
X86225047Y-81041904D01*
X86177428Y-81089523D01*
X86082190Y-81137142D01*
X85844095Y-81137142D01*
X85748857Y-81089523D01*
X85701238Y-81041904D01*
X85653619Y-80946666D01*
X85653619Y-80660952D01*
X85701238Y-80565714D01*
X85748857Y-80518095D01*
X86653619Y-81756190D02*
X86653619Y-81851428D01*
X86606000Y-81946666D01*
X86558380Y-81994285D01*
X86463142Y-82041904D01*
X86272666Y-82089523D01*
X86034571Y-82089523D01*
X85844095Y-82041904D01*
X85748857Y-81994285D01*
X85701238Y-81946666D01*
X85653619Y-81851428D01*
X85653619Y-81756190D01*
X85701238Y-81660952D01*
X85748857Y-81613333D01*
X85844095Y-81565714D01*
X86034571Y-81518095D01*
X86272666Y-81518095D01*
X86463142Y-81565714D01*
X86558380Y-81613333D01*
X86606000Y-81660952D01*
X86653619Y-81756190D01*
X86653619Y-82375238D02*
X85653619Y-82708571D01*
X86653619Y-83041904D01*
X85653619Y-84756761D02*
X85653619Y-84185333D01*
X85653619Y-84471047D02*
X86653619Y-84471047D01*
X86510761Y-84375809D01*
X86415523Y-84280571D01*
X86367904Y-84185333D01*
X85653619Y-85709142D02*
X85653619Y-85137714D01*
X85653619Y-85423428D02*
X86653619Y-85423428D01*
X86510761Y-85328190D01*
X86415523Y-85232952D01*
X86367904Y-85137714D01*
X86653619Y-86613904D02*
X86653619Y-86137714D01*
X86177428Y-86090095D01*
X86225047Y-86137714D01*
X86272666Y-86232952D01*
X86272666Y-86471047D01*
X86225047Y-86566285D01*
X86177428Y-86613904D01*
X86082190Y-86661523D01*
X85844095Y-86661523D01*
X85748857Y-86613904D01*
X85701238Y-86566285D01*
X85653619Y-86471047D01*
X85653619Y-86232952D01*
X85701238Y-86137714D01*
X85748857Y-86090095D01*
X86653619Y-86947238D02*
X85653619Y-87280571D01*
X86653619Y-87613904D01*
X85653619Y-75485761D02*
X85653619Y-74914333D01*
X85653619Y-75200047D02*
X86653619Y-75200047D01*
X86510761Y-75104809D01*
X86415523Y-75009571D01*
X86367904Y-74914333D01*
X85653619Y-76438142D02*
X85653619Y-75866714D01*
X85653619Y-76152428D02*
X86653619Y-76152428D01*
X86510761Y-76057190D01*
X86415523Y-75961952D01*
X86367904Y-75866714D01*
X86653619Y-77342904D02*
X86653619Y-76866714D01*
X86177428Y-76819095D01*
X86225047Y-76866714D01*
X86272666Y-76961952D01*
X86272666Y-77200047D01*
X86225047Y-77295285D01*
X86177428Y-77342904D01*
X86082190Y-77390523D01*
X85844095Y-77390523D01*
X85748857Y-77342904D01*
X85701238Y-77295285D01*
X85653619Y-77200047D01*
X85653619Y-76961952D01*
X85701238Y-76866714D01*
X85748857Y-76819095D01*
X86653619Y-77676238D02*
X85653619Y-78009571D01*
X86653619Y-78342904D01*
X82129333Y-66540380D02*
X82129333Y-67016571D01*
X81843619Y-66445142D02*
X82843619Y-66778476D01*
X81843619Y-67111809D01*
X81938857Y-68016571D02*
X81891238Y-67968952D01*
X81843619Y-67826095D01*
X81843619Y-67730857D01*
X81891238Y-67588000D01*
X81986476Y-67492761D01*
X82081714Y-67445142D01*
X82272190Y-67397523D01*
X82415047Y-67397523D01*
X82605523Y-67445142D01*
X82700761Y-67492761D01*
X82796000Y-67588000D01*
X82843619Y-67730857D01*
X82843619Y-67826095D01*
X82796000Y-67968952D01*
X82748380Y-68016571D01*
X81748380Y-68207047D02*
X81748380Y-68968952D01*
X82843619Y-69397523D02*
X82843619Y-69588000D01*
X82796000Y-69683238D01*
X82700761Y-69778476D01*
X82510285Y-69826095D01*
X82176952Y-69826095D01*
X81986476Y-69778476D01*
X81891238Y-69683238D01*
X81843619Y-69588000D01*
X81843619Y-69397523D01*
X81891238Y-69302285D01*
X81986476Y-69207047D01*
X82176952Y-69159428D01*
X82510285Y-69159428D01*
X82700761Y-69207047D01*
X82796000Y-69302285D01*
X82843619Y-69397523D01*
X82843619Y-70254666D02*
X82034095Y-70254666D01*
X81938857Y-70302285D01*
X81891238Y-70349904D01*
X81843619Y-70445142D01*
X81843619Y-70635619D01*
X81891238Y-70730857D01*
X81938857Y-70778476D01*
X82034095Y-70826095D01*
X82843619Y-70826095D01*
X82843619Y-71159428D02*
X82843619Y-71730857D01*
X81843619Y-71445142D02*
X82843619Y-71445142D01*
X82129333Y-81939047D02*
X82129333Y-82415238D01*
X81843619Y-81843809D02*
X82843619Y-82177142D01*
X81843619Y-82510476D01*
X81938857Y-83415238D02*
X81891238Y-83367619D01*
X81843619Y-83224761D01*
X81843619Y-83129523D01*
X81891238Y-82986666D01*
X81986476Y-82891428D01*
X82081714Y-82843809D01*
X82272190Y-82796190D01*
X82415047Y-82796190D01*
X82605523Y-82843809D01*
X82700761Y-82891428D01*
X82796000Y-82986666D01*
X82843619Y-83129523D01*
X82843619Y-83224761D01*
X82796000Y-83367619D01*
X82748380Y-83415238D01*
X81748380Y-83605714D02*
X81748380Y-84367619D01*
X81843619Y-84605714D02*
X82843619Y-84605714D01*
X81843619Y-85081904D02*
X82843619Y-85081904D01*
X81843619Y-85653333D01*
X82843619Y-85653333D01*
X70159619Y-71342285D02*
X71159619Y-71342285D01*
X70159619Y-71913714D01*
X71159619Y-71913714D01*
X70159619Y-66857523D02*
X70159619Y-66381333D01*
X71159619Y-66381333D01*
X70683428Y-86598380D02*
X70683428Y-86931714D01*
X70159619Y-87074571D02*
X70159619Y-86598380D01*
X71159619Y-86598380D01*
X71159619Y-87074571D01*
X70445333Y-87455523D02*
X70445333Y-87931714D01*
X70159619Y-87360285D02*
X71159619Y-87693619D01*
X70159619Y-88026952D01*
X70159619Y-88931714D02*
X70635809Y-88598380D01*
X70159619Y-88360285D02*
X71159619Y-88360285D01*
X71159619Y-88741238D01*
X71112000Y-88836476D01*
X71064380Y-88884095D01*
X70969142Y-88931714D01*
X70826285Y-88931714D01*
X70731047Y-88884095D01*
X70683428Y-88836476D01*
X70635809Y-88741238D01*
X70635809Y-88360285D01*
X71159619Y-89217428D02*
X71159619Y-89788857D01*
X70159619Y-89503142D02*
X71159619Y-89503142D01*
X70159619Y-90122190D02*
X71159619Y-90122190D01*
X70683428Y-90122190D02*
X70683428Y-90693619D01*
X70159619Y-90693619D02*
X71159619Y-90693619D01*
X70159619Y-83280285D02*
X71159619Y-83280285D01*
X70159619Y-83851714D01*
X71159619Y-83851714D01*
X70159619Y-79049523D02*
X70159619Y-78573333D01*
X71159619Y-78573333D01*
D11*
X123384000Y-57852000D02*
X124714000Y-57852000D01*
X123384000Y-59182000D02*
X123384000Y-57852000D01*
X123384000Y-60452000D02*
X126044000Y-60452000D01*
X126044000Y-60452000D02*
X126044000Y-65592000D01*
X123384000Y-60452000D02*
X123384000Y-65592000D01*
X123384000Y-65592000D02*
X126044000Y-65592000D01*
X90144600Y-69534000D02*
X90144600Y-63538100D01*
X90144600Y-93534000D02*
X90144600Y-99529900D01*
X119151400Y-93534000D02*
X119151400Y-99529900D01*
X119151400Y-63538100D02*
X119151400Y-69534000D01*
X119151400Y-99529900D02*
X90144600Y-99529900D01*
X119151400Y-63538100D02*
X90144600Y-63538100D01*
X90114000Y-44518000D02*
X90114000Y-60518000D01*
X83114000Y-44518000D02*
X83114000Y-60518000D01*
X90114000Y-60518000D02*
X83114000Y-60518000D01*
X90114000Y-44518000D02*
X83114000Y-44518000D01*
X112608000Y-53928000D02*
X112608000Y-57078000D01*
X112608000Y-48078000D02*
X112608000Y-51228000D01*
X117718000Y-51578000D02*
X117718000Y-53578000D01*
X112008000Y-52228000D02*
X112008000Y-52928000D01*
X113208000Y-52228000D02*
X112008000Y-52228000D01*
X113208000Y-52928000D02*
X113208000Y-52228000D01*
X112008000Y-52928000D02*
X113208000Y-52928000D01*
X112408000Y-52228000D02*
X112808000Y-52928000D01*
X94758000Y-44228000D02*
X94758000Y-60928000D01*
X117458000Y-44228000D02*
X94758000Y-44228000D01*
X117458000Y-60928000D02*
X117458000Y-44228000D01*
X94758000Y-60928000D02*
X117458000Y-60928000D01*
X119170000Y-109304000D02*
X116170000Y-109304000D01*
X114970000Y-109304000D02*
X111970000Y-109304000D01*
X119170000Y-102104000D02*
X116170000Y-102104000D01*
X114970000Y-102104000D02*
X111970000Y-102104000D01*
X119170000Y-109304000D02*
X119170000Y-102104000D01*
X111970000Y-109304000D02*
X111970000Y-102104000D01*
X71916000Y-75940000D02*
X71916000Y-76340000D01*
X72556000Y-75940000D02*
X71916000Y-75940000D01*
X76224000Y-87482000D02*
X75828000Y-87087000D01*
X78870000Y-90128000D02*
X78490000Y-89748000D01*
X75942000Y-87733000D02*
X75562000Y-87353000D01*
X78604000Y-90394000D02*
X78208000Y-89999000D01*
X76224000Y-82482000D02*
X75828000Y-82087000D01*
X78870000Y-85128000D02*
X78490000Y-84748000D01*
X75942000Y-82733000D02*
X75562000Y-82353000D01*
X78604000Y-85394000D02*
X78208000Y-84999000D01*
X75935000Y-77192000D02*
X75828000Y-77086000D01*
X78870000Y-80128000D02*
X78763000Y-80021000D01*
X75669000Y-77458000D02*
X75562000Y-77352000D01*
X78604000Y-80394000D02*
X78497000Y-80287000D01*
X81276000Y-91300000D02*
X72156000Y-91300000D01*
X81276000Y-76180000D02*
X72156000Y-76180000D01*
X72156000Y-76180000D02*
X72156000Y-91300000D01*
X81276000Y-76180000D02*
X81276000Y-91300000D01*
X73716000Y-76180000D02*
X73716000Y-91300000D01*
X72616000Y-76180000D02*
X72616000Y-91300000D01*
X79396000Y-88740000D02*
G75*
G03*
X79396000Y-88740000I-2180000J0D01*
G01*
X79396000Y-83740000D02*
G75*
G03*
X79396000Y-83740000I-2180000J0D01*
G01*
X79396000Y-78740000D02*
G75*
G03*
X79396000Y-78740000I-2180000J0D01*
G01*
X105664000Y-105664000D02*
G75*
G03*
X105664000Y-105664000I-5120000J0D01*
G01*
X100544000Y-100584000D02*
X100544000Y-110744000D01*
X100584000Y-100584000D02*
X100584000Y-110744000D01*
X100624000Y-100584000D02*
X100624000Y-110744000D01*
X100664000Y-100585000D02*
X100664000Y-110743000D01*
X100704000Y-100586000D02*
X100704000Y-110742000D01*
X100744000Y-100587000D02*
X100744000Y-110741000D01*
X100784000Y-100589000D02*
X100784000Y-110739000D01*
X100824000Y-100591000D02*
X100824000Y-110737000D01*
X100864000Y-100594000D02*
X100864000Y-110734000D01*
X100904000Y-100596000D02*
X100904000Y-110732000D01*
X100944000Y-100599000D02*
X100944000Y-110729000D01*
X100984000Y-100602000D02*
X100984000Y-110726000D01*
X101024000Y-100606000D02*
X101024000Y-110722000D01*
X101064000Y-100610000D02*
X101064000Y-110718000D01*
X101104000Y-100614000D02*
X101104000Y-110714000D01*
X101144000Y-100619000D02*
X101144000Y-110709000D01*
X101184000Y-100624000D02*
X101184000Y-110704000D01*
X101224000Y-100629000D02*
X101224000Y-110699000D01*
X101265000Y-100634000D02*
X101265000Y-110694000D01*
X101305000Y-100640000D02*
X101305000Y-110688000D01*
X101345000Y-100646000D02*
X101345000Y-110682000D01*
X101385000Y-100653000D02*
X101385000Y-110675000D01*
X101425000Y-100660000D02*
X101425000Y-110668000D01*
X101465000Y-100667000D02*
X101465000Y-110661000D01*
X101505000Y-100674000D02*
X101505000Y-110654000D01*
X101545000Y-100682000D02*
X101545000Y-110646000D01*
X101585000Y-100690000D02*
X101585000Y-110638000D01*
X101625000Y-100699000D02*
X101625000Y-110629000D01*
X101665000Y-100708000D02*
X101665000Y-110620000D01*
X101705000Y-100717000D02*
X101705000Y-110611000D01*
X101745000Y-100726000D02*
X101745000Y-110602000D01*
X101785000Y-100736000D02*
X101785000Y-110592000D01*
X101825000Y-100746000D02*
X101825000Y-104423000D01*
X101825000Y-106905000D02*
X101825000Y-110582000D01*
X101865000Y-100757000D02*
X101865000Y-104423000D01*
X101865000Y-106905000D02*
X101865000Y-110571000D01*
X101905000Y-100767000D02*
X101905000Y-104423000D01*
X101905000Y-106905000D02*
X101905000Y-110561000D01*
X101945000Y-100779000D02*
X101945000Y-104423000D01*
X101945000Y-106905000D02*
X101945000Y-110549000D01*
X101985000Y-100790000D02*
X101985000Y-104423000D01*
X101985000Y-106905000D02*
X101985000Y-110538000D01*
X102025000Y-100802000D02*
X102025000Y-104423000D01*
X102025000Y-106905000D02*
X102025000Y-110526000D01*
X102065000Y-100814000D02*
X102065000Y-104423000D01*
X102065000Y-106905000D02*
X102065000Y-110514000D01*
X102105000Y-100827000D02*
X102105000Y-104423000D01*
X102105000Y-106905000D02*
X102105000Y-110501000D01*
X102145000Y-100840000D02*
X102145000Y-104423000D01*
X102145000Y-106905000D02*
X102145000Y-110488000D01*
X102185000Y-100853000D02*
X102185000Y-104423000D01*
X102185000Y-106905000D02*
X102185000Y-110475000D01*
X102225000Y-100867000D02*
X102225000Y-104423000D01*
X102225000Y-106905000D02*
X102225000Y-110461000D01*
X102265000Y-100881000D02*
X102265000Y-104423000D01*
X102265000Y-106905000D02*
X102265000Y-110447000D01*
X102305000Y-100896000D02*
X102305000Y-104423000D01*
X102305000Y-106905000D02*
X102305000Y-110432000D01*
X102345000Y-100910000D02*
X102345000Y-104423000D01*
X102345000Y-106905000D02*
X102345000Y-110418000D01*
X102385000Y-100926000D02*
X102385000Y-104423000D01*
X102385000Y-106905000D02*
X102385000Y-110402000D01*
X102425000Y-100941000D02*
X102425000Y-104423000D01*
X102425000Y-106905000D02*
X102425000Y-110387000D01*
X102465000Y-100957000D02*
X102465000Y-104423000D01*
X102465000Y-106905000D02*
X102465000Y-110371000D01*
X102505000Y-100974000D02*
X102505000Y-104423000D01*
X102505000Y-106905000D02*
X102505000Y-110354000D01*
X102545000Y-100990000D02*
X102545000Y-104423000D01*
X102545000Y-106905000D02*
X102545000Y-110338000D01*
X102585000Y-101007000D02*
X102585000Y-104423000D01*
X102585000Y-106905000D02*
X102585000Y-110321000D01*
X102625000Y-101025000D02*
X102625000Y-104423000D01*
X102625000Y-106905000D02*
X102625000Y-110303000D01*
X102665000Y-101043000D02*
X102665000Y-104423000D01*
X102665000Y-106905000D02*
X102665000Y-110285000D01*
X102705000Y-101061000D02*
X102705000Y-104423000D01*
X102705000Y-106905000D02*
X102705000Y-110267000D01*
X102745000Y-101080000D02*
X102745000Y-104423000D01*
X102745000Y-106905000D02*
X102745000Y-110248000D01*
X102785000Y-101100000D02*
X102785000Y-104423000D01*
X102785000Y-106905000D02*
X102785000Y-110228000D01*
X102825000Y-101119000D02*
X102825000Y-104423000D01*
X102825000Y-106905000D02*
X102825000Y-110209000D01*
X102865000Y-101139000D02*
X102865000Y-104423000D01*
X102865000Y-106905000D02*
X102865000Y-110189000D01*
X102905000Y-101160000D02*
X102905000Y-104423000D01*
X102905000Y-106905000D02*
X102905000Y-110168000D01*
X102945000Y-101181000D02*
X102945000Y-104423000D01*
X102945000Y-106905000D02*
X102945000Y-110147000D01*
X102985000Y-101202000D02*
X102985000Y-104423000D01*
X102985000Y-106905000D02*
X102985000Y-110126000D01*
X103025000Y-101224000D02*
X103025000Y-104423000D01*
X103025000Y-106905000D02*
X103025000Y-110104000D01*
X103065000Y-101247000D02*
X103065000Y-104423000D01*
X103065000Y-106905000D02*
X103065000Y-110081000D01*
X103105000Y-101269000D02*
X103105000Y-104423000D01*
X103105000Y-106905000D02*
X103105000Y-110059000D01*
X103145000Y-101293000D02*
X103145000Y-104423000D01*
X103145000Y-106905000D02*
X103145000Y-110035000D01*
X103185000Y-101317000D02*
X103185000Y-104423000D01*
X103185000Y-106905000D02*
X103185000Y-110011000D01*
X103225000Y-101341000D02*
X103225000Y-104423000D01*
X103225000Y-106905000D02*
X103225000Y-109987000D01*
X103265000Y-101366000D02*
X103265000Y-104423000D01*
X103265000Y-106905000D02*
X103265000Y-109962000D01*
X103305000Y-101391000D02*
X103305000Y-104423000D01*
X103305000Y-106905000D02*
X103305000Y-109937000D01*
X103345000Y-101417000D02*
X103345000Y-104423000D01*
X103345000Y-106905000D02*
X103345000Y-109911000D01*
X103385000Y-101443000D02*
X103385000Y-104423000D01*
X103385000Y-106905000D02*
X103385000Y-109885000D01*
X103425000Y-101470000D02*
X103425000Y-104423000D01*
X103425000Y-106905000D02*
X103425000Y-109858000D01*
X103465000Y-101498000D02*
X103465000Y-104423000D01*
X103465000Y-106905000D02*
X103465000Y-109830000D01*
X103505000Y-101526000D02*
X103505000Y-104423000D01*
X103505000Y-106905000D02*
X103505000Y-109802000D01*
X103545000Y-101554000D02*
X103545000Y-104423000D01*
X103545000Y-106905000D02*
X103545000Y-109774000D01*
X103585000Y-101584000D02*
X103585000Y-104423000D01*
X103585000Y-106905000D02*
X103585000Y-109744000D01*
X103625000Y-101614000D02*
X103625000Y-104423000D01*
X103625000Y-106905000D02*
X103625000Y-109714000D01*
X103665000Y-101644000D02*
X103665000Y-104423000D01*
X103665000Y-106905000D02*
X103665000Y-109684000D01*
X103705000Y-101675000D02*
X103705000Y-104423000D01*
X103705000Y-106905000D02*
X103705000Y-109653000D01*
X103745000Y-101707000D02*
X103745000Y-104423000D01*
X103745000Y-106905000D02*
X103745000Y-109621000D01*
X103785000Y-101739000D02*
X103785000Y-104423000D01*
X103785000Y-106905000D02*
X103785000Y-109589000D01*
X103825000Y-101772000D02*
X103825000Y-104423000D01*
X103825000Y-106905000D02*
X103825000Y-109556000D01*
X103865000Y-101806000D02*
X103865000Y-104423000D01*
X103865000Y-106905000D02*
X103865000Y-109522000D01*
X103905000Y-101840000D02*
X103905000Y-104423000D01*
X103905000Y-106905000D02*
X103905000Y-109488000D01*
X103945000Y-101875000D02*
X103945000Y-104423000D01*
X103945000Y-106905000D02*
X103945000Y-109453000D01*
X103985000Y-101911000D02*
X103985000Y-104423000D01*
X103985000Y-106905000D02*
X103985000Y-109417000D01*
X104025000Y-101948000D02*
X104025000Y-104423000D01*
X104025000Y-106905000D02*
X104025000Y-109380000D01*
X104065000Y-101985000D02*
X104065000Y-104423000D01*
X104065000Y-106905000D02*
X104065000Y-109343000D01*
X104105000Y-102024000D02*
X104105000Y-104423000D01*
X104105000Y-106905000D02*
X104105000Y-109304000D01*
X104145000Y-102063000D02*
X104145000Y-104423000D01*
X104145000Y-106905000D02*
X104145000Y-109265000D01*
X104185000Y-102103000D02*
X104185000Y-104423000D01*
X104185000Y-106905000D02*
X104185000Y-109225000D01*
X104225000Y-102144000D02*
X104225000Y-104423000D01*
X104225000Y-106905000D02*
X104225000Y-109184000D01*
X104265000Y-102186000D02*
X104265000Y-104423000D01*
X104265000Y-106905000D02*
X104265000Y-109142000D01*
X104305000Y-102228000D02*
X104305000Y-109100000D01*
X104345000Y-102272000D02*
X104345000Y-109056000D01*
X104385000Y-102317000D02*
X104385000Y-109011000D01*
X104425000Y-102363000D02*
X104425000Y-108965000D01*
X104465000Y-102410000D02*
X104465000Y-108918000D01*
X104505000Y-102458000D02*
X104505000Y-108870000D01*
X104545000Y-102508000D02*
X104545000Y-108820000D01*
X104585000Y-102558000D02*
X104585000Y-108770000D01*
X104625000Y-102610000D02*
X104625000Y-108718000D01*
X104665000Y-102664000D02*
X104665000Y-108664000D01*
X104705000Y-102719000D02*
X104705000Y-108609000D01*
X104745000Y-102775000D02*
X104745000Y-108553000D01*
X104785000Y-102834000D02*
X104785000Y-108494000D01*
X104825000Y-102894000D02*
X104825000Y-108434000D01*
X104865000Y-102955000D02*
X104865000Y-108373000D01*
X104905000Y-103019000D02*
X104905000Y-108309000D01*
X104945000Y-103085000D02*
X104945000Y-108243000D01*
X104985000Y-103154000D02*
X104985000Y-108174000D01*
X105025000Y-103225000D02*
X105025000Y-108103000D01*
X105065000Y-103299000D02*
X105065000Y-108029000D01*
X105105000Y-103375000D02*
X105105000Y-107953000D01*
X105145000Y-103455000D02*
X105145000Y-107873000D01*
X105185000Y-103539000D02*
X105185000Y-107789000D01*
X105225000Y-103627000D02*
X105225000Y-107701000D01*
X105265000Y-103720000D02*
X105265000Y-107608000D01*
X105305000Y-103818000D02*
X105305000Y-107510000D01*
X105345000Y-103922000D02*
X105345000Y-107406000D01*
X105385000Y-104034000D02*
X105385000Y-107294000D01*
X105425000Y-104154000D02*
X105425000Y-107174000D01*
X105465000Y-104286000D02*
X105465000Y-107042000D01*
X105505000Y-104434000D02*
X105505000Y-106894000D01*
X105545000Y-104602000D02*
X105545000Y-106726000D01*
X105585000Y-104802000D02*
X105585000Y-106526000D01*
X105625000Y-105065000D02*
X105625000Y-106263000D01*
X95064354Y-102789000D02*
X96064354Y-102789000D01*
X95564354Y-102289000D02*
X95564354Y-103289000D01*
X71916000Y-63748000D02*
X71916000Y-64148000D01*
X72556000Y-63748000D02*
X71916000Y-63748000D01*
X76224000Y-70290000D02*
X75828000Y-69895000D01*
X78870000Y-72936000D02*
X78490000Y-72556000D01*
X75942000Y-70541000D02*
X75562000Y-70161000D01*
X78604000Y-73202000D02*
X78208000Y-72807000D01*
X75935000Y-65000000D02*
X75828000Y-64894000D01*
X78870000Y-67936000D02*
X78763000Y-67829000D01*
X75669000Y-65266000D02*
X75562000Y-65160000D01*
X78604000Y-68202000D02*
X78497000Y-68095000D01*
X81276000Y-74108000D02*
X72156000Y-74108000D01*
X81276000Y-63988000D02*
X72156000Y-63988000D01*
X72156000Y-63988000D02*
X72156000Y-74108000D01*
X81276000Y-63988000D02*
X81276000Y-74108000D01*
X73716000Y-63988000D02*
X73716000Y-74108000D01*
X72616000Y-63988000D02*
X72616000Y-74108000D01*
X79396000Y-71548000D02*
G75*
G03*
X79396000Y-71548000I-2180000J0D01*
G01*
X79396000Y-66548000D02*
G75*
G03*
X79396000Y-66548000I-2180000J0D01*
G01*
X106141225Y-103939000D02*
X106141225Y-104439000D01*
X105891225Y-104189000D02*
X106391225Y-104189000D01*
X111297000Y-105380000D02*
X111297000Y-105948000D01*
X111257000Y-105146000D02*
X111257000Y-106182000D01*
X111217000Y-104987000D02*
X111217000Y-106341000D01*
X111177000Y-104859000D02*
X111177000Y-106469000D01*
X111137000Y-104749000D02*
X111137000Y-106579000D01*
X111097000Y-104653000D02*
X111097000Y-106675000D01*
X111057000Y-104566000D02*
X111057000Y-106762000D01*
X111017000Y-104486000D02*
X111017000Y-106842000D01*
X110977000Y-104413000D02*
X110977000Y-106915000D01*
X110937000Y-104345000D02*
X110937000Y-106983000D01*
X110897000Y-104281000D02*
X110897000Y-107047000D01*
X110857000Y-104221000D02*
X110857000Y-107107000D01*
X110817000Y-104164000D02*
X110817000Y-107164000D01*
X110777000Y-104110000D02*
X110777000Y-107218000D01*
X110737000Y-104059000D02*
X110737000Y-107269000D01*
X110697000Y-106704000D02*
X110697000Y-107317000D01*
X110697000Y-104011000D02*
X110697000Y-104624000D01*
X110657000Y-106704000D02*
X110657000Y-107363000D01*
X110657000Y-103965000D02*
X110657000Y-104624000D01*
X110617000Y-106704000D02*
X110617000Y-107407000D01*
X110617000Y-103921000D02*
X110617000Y-104624000D01*
X110577000Y-106704000D02*
X110577000Y-107449000D01*
X110577000Y-103879000D02*
X110577000Y-104624000D01*
X110537000Y-106704000D02*
X110537000Y-107490000D01*
X110537000Y-103838000D02*
X110537000Y-104624000D01*
X110497000Y-106704000D02*
X110497000Y-107528000D01*
X110497000Y-103800000D02*
X110497000Y-104624000D01*
X110457000Y-106704000D02*
X110457000Y-107565000D01*
X110457000Y-103763000D02*
X110457000Y-104624000D01*
X110417000Y-106704000D02*
X110417000Y-107601000D01*
X110417000Y-103727000D02*
X110417000Y-104624000D01*
X110377000Y-106704000D02*
X110377000Y-107635000D01*
X110377000Y-103693000D02*
X110377000Y-104624000D01*
X110337000Y-106704000D02*
X110337000Y-107668000D01*
X110337000Y-103660000D02*
X110337000Y-104624000D01*
X110297000Y-106704000D02*
X110297000Y-107699000D01*
X110297000Y-103629000D02*
X110297000Y-104624000D01*
X110257000Y-106704000D02*
X110257000Y-107729000D01*
X110257000Y-103599000D02*
X110257000Y-104624000D01*
X110217000Y-106704000D02*
X110217000Y-107759000D01*
X110217000Y-103569000D02*
X110217000Y-104624000D01*
X110177000Y-106704000D02*
X110177000Y-107786000D01*
X110177000Y-103542000D02*
X110177000Y-104624000D01*
X110137000Y-106704000D02*
X110137000Y-107813000D01*
X110137000Y-103515000D02*
X110137000Y-104624000D01*
X110097000Y-106704000D02*
X110097000Y-107839000D01*
X110097000Y-103489000D02*
X110097000Y-104624000D01*
X110057000Y-106704000D02*
X110057000Y-107864000D01*
X110057000Y-103464000D02*
X110057000Y-104624000D01*
X110017000Y-106704000D02*
X110017000Y-107888000D01*
X110017000Y-103440000D02*
X110017000Y-104624000D01*
X109977000Y-106704000D02*
X109977000Y-107911000D01*
X109977000Y-103417000D02*
X109977000Y-104624000D01*
X109937000Y-106704000D02*
X109937000Y-107932000D01*
X109937000Y-103396000D02*
X109937000Y-104624000D01*
X109897000Y-106704000D02*
X109897000Y-107954000D01*
X109897000Y-103374000D02*
X109897000Y-104624000D01*
X109857000Y-106704000D02*
X109857000Y-107974000D01*
X109857000Y-103354000D02*
X109857000Y-104624000D01*
X109817000Y-106704000D02*
X109817000Y-107993000D01*
X109817000Y-103335000D02*
X109817000Y-104624000D01*
X109777000Y-106704000D02*
X109777000Y-108012000D01*
X109777000Y-103316000D02*
X109777000Y-104624000D01*
X109737000Y-106704000D02*
X109737000Y-108029000D01*
X109737000Y-103299000D02*
X109737000Y-104624000D01*
X109697000Y-106704000D02*
X109697000Y-108046000D01*
X109697000Y-103282000D02*
X109697000Y-104624000D01*
X109657000Y-106704000D02*
X109657000Y-108062000D01*
X109657000Y-103266000D02*
X109657000Y-104624000D01*
X109617000Y-106704000D02*
X109617000Y-108078000D01*
X109617000Y-103250000D02*
X109617000Y-104624000D01*
X109577000Y-106704000D02*
X109577000Y-108092000D01*
X109577000Y-103236000D02*
X109577000Y-104624000D01*
X109537000Y-106704000D02*
X109537000Y-108106000D01*
X109537000Y-103222000D02*
X109537000Y-104624000D01*
X109497000Y-106704000D02*
X109497000Y-108119000D01*
X109497000Y-103209000D02*
X109497000Y-104624000D01*
X109457000Y-106704000D02*
X109457000Y-108132000D01*
X109457000Y-103196000D02*
X109457000Y-104624000D01*
X109417000Y-106704000D02*
X109417000Y-108144000D01*
X109417000Y-103184000D02*
X109417000Y-104624000D01*
X109376000Y-106704000D02*
X109376000Y-108155000D01*
X109376000Y-103173000D02*
X109376000Y-104624000D01*
X109336000Y-106704000D02*
X109336000Y-108165000D01*
X109336000Y-103163000D02*
X109336000Y-104624000D01*
X109296000Y-106704000D02*
X109296000Y-108175000D01*
X109296000Y-103153000D02*
X109296000Y-104624000D01*
X109256000Y-106704000D02*
X109256000Y-108184000D01*
X109256000Y-103144000D02*
X109256000Y-104624000D01*
X109216000Y-106704000D02*
X109216000Y-108192000D01*
X109216000Y-103136000D02*
X109216000Y-104624000D01*
X109176000Y-106704000D02*
X109176000Y-108200000D01*
X109176000Y-103128000D02*
X109176000Y-104624000D01*
X109136000Y-106704000D02*
X109136000Y-108207000D01*
X109136000Y-103121000D02*
X109136000Y-104624000D01*
X109096000Y-106704000D02*
X109096000Y-108214000D01*
X109096000Y-103114000D02*
X109096000Y-104624000D01*
X109056000Y-106704000D02*
X109056000Y-108220000D01*
X109056000Y-103108000D02*
X109056000Y-104624000D01*
X109016000Y-106704000D02*
X109016000Y-108225000D01*
X109016000Y-103103000D02*
X109016000Y-104624000D01*
X108976000Y-106704000D02*
X108976000Y-108229000D01*
X108976000Y-103099000D02*
X108976000Y-104624000D01*
X108936000Y-106704000D02*
X108936000Y-108233000D01*
X108936000Y-103095000D02*
X108936000Y-104624000D01*
X108896000Y-106704000D02*
X108896000Y-108237000D01*
X108896000Y-103091000D02*
X108896000Y-104624000D01*
X108856000Y-106704000D02*
X108856000Y-108240000D01*
X108856000Y-103088000D02*
X108856000Y-104624000D01*
X108816000Y-106704000D02*
X108816000Y-108242000D01*
X108816000Y-103086000D02*
X108816000Y-104624000D01*
X108776000Y-106704000D02*
X108776000Y-108243000D01*
X108776000Y-103085000D02*
X108776000Y-104624000D01*
X108736000Y-103084000D02*
X108736000Y-104624000D01*
X108736000Y-106704000D02*
X108736000Y-108244000D01*
X108696000Y-103084000D02*
X108696000Y-104624000D01*
X108696000Y-106704000D02*
X108696000Y-108244000D01*
X111316000Y-105664000D02*
G75*
G03*
X111316000Y-105664000I-2620000J0D01*
G01*
D10*
X124166380Y-67389333D02*
X124880666Y-67389333D01*
X125023523Y-67436952D01*
X125118761Y-67532190D01*
X125166380Y-67675047D01*
X125166380Y-67770285D01*
X124499714Y-66484571D02*
X125166380Y-66484571D01*
X124118761Y-66722666D02*
X124833047Y-66960761D01*
X124833047Y-66341714D01*
X103886095Y-80986380D02*
X104457523Y-80986380D01*
X104171809Y-81986380D02*
X104171809Y-80986380D01*
X105314666Y-81986380D02*
X104743238Y-81986380D01*
X105028952Y-81986380D02*
X105028952Y-80986380D01*
X104933714Y-81129238D01*
X104838476Y-81224476D01*
X104743238Y-81272095D01*
X88606380Y-53803714D02*
X88606380Y-53232285D01*
X89606380Y-53518000D02*
X88606380Y-53518000D01*
X89606380Y-52898952D02*
X88606380Y-52898952D01*
X89082571Y-52898952D02*
X89082571Y-52327523D01*
X89606380Y-52327523D02*
X88606380Y-52327523D01*
X89606380Y-51327523D02*
X89606380Y-51898952D01*
X89606380Y-51613238D02*
X88606380Y-51613238D01*
X88749238Y-51708476D01*
X88844476Y-51803714D01*
X88892095Y-51898952D01*
X106195904Y-53030380D02*
X106195904Y-52030380D01*
X106767333Y-53030380D02*
X106338761Y-52458952D01*
X106767333Y-52030380D02*
X106195904Y-52601809D01*
X107719714Y-53030380D02*
X107148285Y-53030380D01*
X107434000Y-53030380D02*
X107434000Y-52030380D01*
X107338761Y-52173238D01*
X107243523Y-52268476D01*
X107148285Y-52316095D01*
X115034761Y-101544380D02*
X114701428Y-101068190D01*
X114463333Y-101544380D02*
X114463333Y-100544380D01*
X114844285Y-100544380D01*
X114939523Y-100592000D01*
X114987142Y-100639619D01*
X115034761Y-100734857D01*
X115034761Y-100877714D01*
X114987142Y-100972952D01*
X114939523Y-101020571D01*
X114844285Y-101068190D01*
X114463333Y-101068190D01*
X115320476Y-100544380D02*
X115653809Y-101544380D01*
X115987142Y-100544380D01*
X116844285Y-101544380D02*
X116272857Y-101544380D01*
X116558571Y-101544380D02*
X116558571Y-100544380D01*
X116463333Y-100687238D01*
X116368095Y-100782476D01*
X116272857Y-100830095D01*
X81319619Y-92376666D02*
X80605333Y-92376666D01*
X80462476Y-92329047D01*
X80367238Y-92233809D01*
X80319619Y-92090952D01*
X80319619Y-91995714D01*
X80319619Y-93376666D02*
X80319619Y-92805238D01*
X80319619Y-93090952D02*
X81319619Y-93090952D01*
X81176761Y-92995714D01*
X81081523Y-92900476D01*
X81033904Y-92805238D01*
X103973333Y-100941142D02*
X103925714Y-100988761D01*
X103782857Y-101036380D01*
X103687619Y-101036380D01*
X103544761Y-100988761D01*
X103449523Y-100893523D01*
X103401904Y-100798285D01*
X103354285Y-100607809D01*
X103354285Y-100464952D01*
X103401904Y-100274476D01*
X103449523Y-100179238D01*
X103544761Y-100084000D01*
X103687619Y-100036380D01*
X103782857Y-100036380D01*
X103925714Y-100084000D01*
X103973333Y-100131619D01*
X104925714Y-101036380D02*
X104354285Y-101036380D01*
X104640000Y-101036380D02*
X104640000Y-100036380D01*
X104544761Y-100179238D01*
X104449523Y-100274476D01*
X104354285Y-100322095D01*
X81319619Y-62150666D02*
X80605333Y-62150666D01*
X80462476Y-62103047D01*
X80367238Y-62007809D01*
X80319619Y-61864952D01*
X80319619Y-61769714D01*
X81319619Y-62531619D02*
X81319619Y-63150666D01*
X80938666Y-62817333D01*
X80938666Y-62960190D01*
X80891047Y-63055428D01*
X80843428Y-63103047D01*
X80748190Y-63150666D01*
X80510095Y-63150666D01*
X80414857Y-63103047D01*
X80367238Y-63055428D01*
X80319619Y-62960190D01*
X80319619Y-62674476D01*
X80367238Y-62579238D01*
X80414857Y-62531619D01*
X108529333Y-102465142D02*
X108481714Y-102512761D01*
X108338857Y-102560380D01*
X108243619Y-102560380D01*
X108100761Y-102512761D01*
X108005523Y-102417523D01*
X107957904Y-102322285D01*
X107910285Y-102131809D01*
X107910285Y-101988952D01*
X107957904Y-101798476D01*
X108005523Y-101703238D01*
X108100761Y-101608000D01*
X108243619Y-101560380D01*
X108338857Y-101560380D01*
X108481714Y-101608000D01*
X108529333Y-101655619D01*
X109386476Y-101893714D02*
X109386476Y-102560380D01*
X109148380Y-101512761D02*
X108910285Y-102227047D01*
X109529333Y-102227047D01*
M02*
