G04 #@! TF.GenerationSoftware,KiCad,Pcbnew,5.1.9*
G04 #@! TF.CreationDate,2021-04-19T03:59:40-04:00*
G04 #@! TF.ProjectId,lm3886_soft_start_v2,6c6d3338-3836-45f7-936f-66745f737461,rev?*
G04 #@! TF.SameCoordinates,Original*
G04 #@! TF.FileFunction,Copper,L1,Top*
G04 #@! TF.FilePolarity,Positive*
%FSLAX46Y46*%
G04 Gerber Fmt 4.6, Leading zero omitted, Abs format (unit mm)*
G04 Created by KiCad (PCBNEW 5.1.9) date 2021-04-19 03:59:40*
%MOMM*%
%LPD*%
G01*
G04 APERTURE LIST*
G04 #@! TA.AperFunction,ComponentPad*
%ADD10O,1.700000X1.700000*%
G04 #@! TD*
G04 #@! TA.AperFunction,ComponentPad*
%ADD11R,1.700000X1.700000*%
G04 #@! TD*
G04 #@! TA.AperFunction,ComponentPad*
%ADD12C,3.048000*%
G04 #@! TD*
G04 #@! TA.AperFunction,ComponentPad*
%ADD13C,2.400000*%
G04 #@! TD*
G04 #@! TA.AperFunction,ComponentPad*
%ADD14R,2.500000X2.500000*%
G04 #@! TD*
G04 #@! TA.AperFunction,ComponentPad*
%ADD15O,2.500000X2.500000*%
G04 #@! TD*
G04 #@! TA.AperFunction,ComponentPad*
%ADD16C,1.440000*%
G04 #@! TD*
G04 #@! TA.AperFunction,ComponentPad*
%ADD17C,2.100000*%
G04 #@! TD*
G04 #@! TA.AperFunction,ComponentPad*
%ADD18C,2.600000*%
G04 #@! TD*
G04 #@! TA.AperFunction,ComponentPad*
%ADD19R,2.600000X2.600000*%
G04 #@! TD*
G04 #@! TA.AperFunction,ComponentPad*
%ADD20C,2.000000*%
G04 #@! TD*
G04 #@! TA.AperFunction,ComponentPad*
%ADD21R,2.000000X2.000000*%
G04 #@! TD*
G04 #@! TA.AperFunction,ComponentPad*
%ADD22R,1.600000X1.600000*%
G04 #@! TD*
G04 #@! TA.AperFunction,ComponentPad*
%ADD23C,1.600000*%
G04 #@! TD*
G04 #@! TA.AperFunction,ViaPad*
%ADD24C,1.000000*%
G04 #@! TD*
G04 #@! TA.AperFunction,ViaPad*
%ADD25C,0.800000*%
G04 #@! TD*
G04 #@! TA.AperFunction,Conductor*
%ADD26C,2.600000*%
G04 #@! TD*
G04 #@! TA.AperFunction,Conductor*
%ADD27C,0.500000*%
G04 #@! TD*
G04 #@! TA.AperFunction,Conductor*
%ADD28C,0.250000*%
G04 #@! TD*
G04 #@! TA.AperFunction,Conductor*
%ADD29C,0.254000*%
G04 #@! TD*
G04 #@! TA.AperFunction,Conductor*
%ADD30C,0.100000*%
G04 #@! TD*
G04 APERTURE END LIST*
D10*
X124714000Y-64262000D03*
X124714000Y-61722000D03*
D11*
X124714000Y-59182000D03*
D12*
X119900700Y-91059000D03*
X119900700Y-84709000D03*
X119900700Y-78359000D03*
X119900700Y-72009000D03*
X89395300Y-91059000D03*
X89395300Y-84709000D03*
X89395300Y-78359000D03*
G04 #@! TA.AperFunction,ComponentPad*
G36*
G01*
X88328500Y-70485000D02*
X90462100Y-70485000D01*
G75*
G02*
X90919300Y-70942200I0J-457200D01*
G01*
X90919300Y-73075800D01*
G75*
G02*
X90462100Y-73533000I-457200J0D01*
G01*
X88328500Y-73533000D01*
G75*
G02*
X87871300Y-73075800I0J457200D01*
G01*
X87871300Y-70942200D01*
G75*
G02*
X88328500Y-70485000I457200J0D01*
G01*
G37*
G04 #@! TD.AperFunction*
D13*
X86614000Y-56268000D03*
X86614000Y-48768000D03*
D14*
X114808000Y-52578000D03*
D15*
X112808000Y-46578000D03*
X100608000Y-46578000D03*
X100608000Y-58578000D03*
X112808000Y-58578000D03*
D16*
X115570000Y-103204000D03*
X113070000Y-105704000D03*
X115570000Y-108204000D03*
D17*
X84328000Y-74338000D03*
X84328000Y-78938000D03*
X84328000Y-83538000D03*
X84328000Y-88138000D03*
D18*
X77216000Y-88740000D03*
X77216000Y-83740000D03*
D19*
X77216000Y-78740000D03*
D20*
X103044000Y-105664000D03*
D21*
X98044000Y-105664000D03*
D18*
X77216000Y-71548000D03*
D19*
X77216000Y-66548000D03*
D22*
X107696000Y-105664000D03*
D23*
X109696000Y-105664000D03*
D24*
X105664000Y-93472000D03*
D25*
X98044000Y-109220000D03*
X109220000Y-98552000D03*
X112268000Y-98552000D03*
X124206000Y-68580000D03*
X124206000Y-78232000D03*
X124206000Y-91948000D03*
X120650000Y-99822000D03*
X107950000Y-88392000D03*
X102362000Y-88392000D03*
X106172000Y-82804000D03*
X111760000Y-78232000D03*
X117094000Y-70866000D03*
X111506000Y-69850000D03*
X97790000Y-64262000D03*
X97790000Y-72390000D03*
X97790000Y-81534000D03*
X97790000Y-90932000D03*
X97790000Y-100076000D03*
X102108000Y-72390000D03*
X106934000Y-71374000D03*
D24*
X105664000Y-92456000D03*
X104648000Y-92456000D03*
X104648000Y-93472000D03*
D25*
X117856000Y-67056000D03*
X106934000Y-66421000D03*
X106172000Y-66421000D03*
X106172000Y-65659000D03*
X106934000Y-65659000D03*
X109728000Y-88392000D03*
X114808000Y-83312000D03*
X110998000Y-83312000D03*
X118110000Y-86868000D03*
X116078000Y-77978000D03*
X100584000Y-77724000D03*
X113792000Y-88646000D03*
X116078000Y-90932000D03*
D26*
X77216000Y-88740000D02*
X77216000Y-91948000D01*
X77216000Y-91948000D02*
X83566000Y-98298000D01*
X83566000Y-98298000D02*
X98044000Y-98298000D01*
D27*
X121874701Y-89084999D02*
X119900700Y-91059000D01*
X121874701Y-80333001D02*
X121874701Y-89084999D01*
X119900700Y-78359000D02*
X121874701Y-80333001D01*
X117926699Y-82734999D02*
X119900700Y-84709000D01*
X119900700Y-72009000D02*
X117926699Y-73983001D01*
X117926699Y-73983001D02*
X117926699Y-82734999D01*
D28*
X113792000Y-88646000D02*
X116078000Y-90932000D01*
D26*
X77216000Y-83740000D02*
X73675998Y-83740000D01*
X72615999Y-74309524D02*
X75377523Y-71548000D01*
X72615999Y-82680001D02*
X72615999Y-74309524D01*
X75377523Y-71548000D02*
X77216000Y-71548000D01*
X73675998Y-83740000D02*
X72615999Y-82680001D01*
D27*
X77216000Y-83740000D02*
X77644000Y-83740000D01*
X82042000Y-88138000D02*
X84328000Y-88138000D01*
X77644000Y-83740000D02*
X82042000Y-88138000D01*
X89395300Y-91059000D02*
X86995000Y-91059000D01*
X84328000Y-88392000D02*
X84328000Y-88138000D01*
X86995000Y-91059000D02*
X84328000Y-88392000D01*
X86657000Y-72009000D02*
X84328000Y-74338000D01*
X89395300Y-72009000D02*
X86657000Y-72009000D01*
D26*
X90304000Y-52578000D02*
X86614000Y-56268000D01*
X114808000Y-52578000D02*
X90304000Y-52578000D01*
X77216000Y-78740000D02*
X82042000Y-73914000D01*
X82042000Y-60840000D02*
X86614000Y-56268000D01*
X82042000Y-73914000D02*
X82042000Y-60840000D01*
D27*
X84328000Y-74338000D02*
X82466000Y-74338000D01*
X82466000Y-74338000D02*
X82042000Y-73914000D01*
X83904000Y-73914000D02*
X84328000Y-74338000D01*
X82042000Y-73914000D02*
X83904000Y-73914000D01*
X84612002Y-78938000D02*
X84328000Y-78938000D01*
X89395300Y-83721298D02*
X84612002Y-78938000D01*
X89395300Y-84709000D02*
X89395300Y-83721298D01*
D26*
X77216000Y-58166000D02*
X86614000Y-48768000D01*
X77216000Y-66548000D02*
X77216000Y-58166000D01*
X88804000Y-46578000D02*
X86614000Y-48768000D01*
X100608000Y-46578000D02*
X88804000Y-46578000D01*
D28*
X113412000Y-59182000D02*
X112808000Y-58578000D01*
X124714000Y-59182000D02*
X113412000Y-59182000D01*
D29*
X123616412Y-63261731D02*
X123442359Y-63495080D01*
X123317175Y-63757901D01*
X123272524Y-63905110D01*
X123393845Y-64135000D01*
X124587000Y-64135000D01*
X124587000Y-64115000D01*
X124841000Y-64115000D01*
X124841000Y-64135000D01*
X124861000Y-64135000D01*
X124861000Y-64389000D01*
X124841000Y-64389000D01*
X124841000Y-65582814D01*
X125070891Y-65703481D01*
X125345252Y-65606157D01*
X125595355Y-65457178D01*
X125811588Y-65262269D01*
X125985641Y-65028920D01*
X126086001Y-64818217D01*
X126086000Y-110367371D01*
X126060077Y-110429955D01*
X126000976Y-110506976D01*
X125923955Y-110566077D01*
X125861371Y-110592000D01*
X96896629Y-110592000D01*
X96834045Y-110566077D01*
X96757024Y-110506976D01*
X96697923Y-110429955D01*
X96660769Y-110340257D01*
X96647000Y-110235672D01*
X96647000Y-108070544D01*
X114215000Y-108070544D01*
X114215000Y-108337456D01*
X114267072Y-108599239D01*
X114369215Y-108845833D01*
X114517503Y-109067762D01*
X114706238Y-109256497D01*
X114928167Y-109404785D01*
X115174761Y-109506928D01*
X115436544Y-109559000D01*
X115703456Y-109559000D01*
X115965239Y-109506928D01*
X116211833Y-109404785D01*
X116433762Y-109256497D01*
X116622497Y-109067762D01*
X116770785Y-108845833D01*
X116872928Y-108599239D01*
X116925000Y-108337456D01*
X116925000Y-108070544D01*
X116872928Y-107808761D01*
X116770785Y-107562167D01*
X116713125Y-107475872D01*
X120955000Y-107475872D01*
X120955000Y-107916128D01*
X121040890Y-108347925D01*
X121209369Y-108754669D01*
X121453962Y-109120729D01*
X121765271Y-109432038D01*
X122131331Y-109676631D01*
X122538075Y-109845110D01*
X122969872Y-109931000D01*
X123410128Y-109931000D01*
X123841925Y-109845110D01*
X124248669Y-109676631D01*
X124614729Y-109432038D01*
X124926038Y-109120729D01*
X125170631Y-108754669D01*
X125339110Y-108347925D01*
X125425000Y-107916128D01*
X125425000Y-107475872D01*
X125339110Y-107044075D01*
X125170631Y-106637331D01*
X124926038Y-106271271D01*
X124614729Y-105959962D01*
X124248669Y-105715369D01*
X123841925Y-105546890D01*
X123410128Y-105461000D01*
X122969872Y-105461000D01*
X122538075Y-105546890D01*
X122131331Y-105715369D01*
X121765271Y-105959962D01*
X121453962Y-106271271D01*
X121209369Y-106637331D01*
X121040890Y-107044075D01*
X120955000Y-107475872D01*
X116713125Y-107475872D01*
X116622497Y-107340238D01*
X116433762Y-107151503D01*
X116211833Y-107003215D01*
X115965239Y-106901072D01*
X115703456Y-106849000D01*
X115436544Y-106849000D01*
X115174761Y-106901072D01*
X114928167Y-107003215D01*
X114706238Y-107151503D01*
X114517503Y-107340238D01*
X114369215Y-107562167D01*
X114267072Y-107808761D01*
X114215000Y-108070544D01*
X96647000Y-108070544D01*
X96647000Y-107159653D01*
X96689506Y-107194537D01*
X96799820Y-107253502D01*
X96919518Y-107289812D01*
X97044000Y-107302072D01*
X99044000Y-107302072D01*
X99168482Y-107289812D01*
X99288180Y-107253502D01*
X99398494Y-107194537D01*
X99495185Y-107115185D01*
X99574537Y-107018494D01*
X99633502Y-106908180D01*
X99666496Y-106799413D01*
X102088192Y-106799413D01*
X102183956Y-107063814D01*
X102473571Y-107204704D01*
X102785108Y-107286384D01*
X103106595Y-107305718D01*
X103425675Y-107261961D01*
X103730088Y-107156795D01*
X103904044Y-107063814D01*
X103999808Y-106799413D01*
X103044000Y-105843605D01*
X102088192Y-106799413D01*
X99666496Y-106799413D01*
X99669812Y-106788482D01*
X99682072Y-106664000D01*
X99682072Y-105726595D01*
X101402282Y-105726595D01*
X101446039Y-106045675D01*
X101551205Y-106350088D01*
X101644186Y-106524044D01*
X101908587Y-106619808D01*
X102864395Y-105664000D01*
X103223605Y-105664000D01*
X104179413Y-106619808D01*
X104443814Y-106524044D01*
X104584704Y-106234429D01*
X104666384Y-105922892D01*
X104685718Y-105601405D01*
X104641961Y-105282325D01*
X104536795Y-104977912D01*
X104475909Y-104864000D01*
X106257928Y-104864000D01*
X106257928Y-106464000D01*
X106270188Y-106588482D01*
X106306498Y-106708180D01*
X106365463Y-106818494D01*
X106444815Y-106915185D01*
X106541506Y-106994537D01*
X106651820Y-107053502D01*
X106771518Y-107089812D01*
X106896000Y-107102072D01*
X108496000Y-107102072D01*
X108620482Y-107089812D01*
X108740180Y-107053502D01*
X108850494Y-106994537D01*
X108947185Y-106915185D01*
X108957807Y-106902242D01*
X109209996Y-107021571D01*
X109484184Y-107090300D01*
X109766512Y-107104217D01*
X110046130Y-107062787D01*
X110312292Y-106967603D01*
X110437514Y-106900671D01*
X110509097Y-106656702D01*
X109696000Y-105843605D01*
X109681858Y-105857748D01*
X109502253Y-105678143D01*
X109516395Y-105664000D01*
X109875605Y-105664000D01*
X110688702Y-106477097D01*
X110932671Y-106405514D01*
X111053571Y-106150004D01*
X111122300Y-105875816D01*
X111136217Y-105593488D01*
X111132818Y-105570544D01*
X111715000Y-105570544D01*
X111715000Y-105837456D01*
X111767072Y-106099239D01*
X111869215Y-106345833D01*
X112017503Y-106567762D01*
X112206238Y-106756497D01*
X112428167Y-106904785D01*
X112674761Y-107006928D01*
X112936544Y-107059000D01*
X113203456Y-107059000D01*
X113465239Y-107006928D01*
X113711833Y-106904785D01*
X113933762Y-106756497D01*
X114122497Y-106567762D01*
X114270785Y-106345833D01*
X114372928Y-106099239D01*
X114425000Y-105837456D01*
X114425000Y-105570544D01*
X114372928Y-105308761D01*
X114270785Y-105062167D01*
X114122497Y-104840238D01*
X113933762Y-104651503D01*
X113711833Y-104503215D01*
X113465239Y-104401072D01*
X113203456Y-104349000D01*
X112936544Y-104349000D01*
X112674761Y-104401072D01*
X112428167Y-104503215D01*
X112206238Y-104651503D01*
X112017503Y-104840238D01*
X111869215Y-105062167D01*
X111767072Y-105308761D01*
X111715000Y-105570544D01*
X111132818Y-105570544D01*
X111094787Y-105313870D01*
X110999603Y-105047708D01*
X110932671Y-104922486D01*
X110688702Y-104850903D01*
X109875605Y-105664000D01*
X109516395Y-105664000D01*
X109502253Y-105649858D01*
X109681858Y-105470253D01*
X109696000Y-105484395D01*
X110509097Y-104671298D01*
X110437514Y-104427329D01*
X110182004Y-104306429D01*
X109907816Y-104237700D01*
X109625488Y-104223783D01*
X109345870Y-104265213D01*
X109079708Y-104360397D01*
X108957691Y-104425616D01*
X108947185Y-104412815D01*
X108850494Y-104333463D01*
X108740180Y-104274498D01*
X108620482Y-104238188D01*
X108496000Y-104225928D01*
X106896000Y-104225928D01*
X106771518Y-104238188D01*
X106651820Y-104274498D01*
X106541506Y-104333463D01*
X106444815Y-104412815D01*
X106365463Y-104509506D01*
X106306498Y-104619820D01*
X106270188Y-104739518D01*
X106257928Y-104864000D01*
X104475909Y-104864000D01*
X104443814Y-104803956D01*
X104179413Y-104708192D01*
X103223605Y-105664000D01*
X102864395Y-105664000D01*
X101908587Y-104708192D01*
X101644186Y-104803956D01*
X101503296Y-105093571D01*
X101421616Y-105405108D01*
X101402282Y-105726595D01*
X99682072Y-105726595D01*
X99682072Y-104664000D01*
X99669812Y-104539518D01*
X99666497Y-104528587D01*
X102088192Y-104528587D01*
X103044000Y-105484395D01*
X103999808Y-104528587D01*
X103904044Y-104264186D01*
X103614429Y-104123296D01*
X103302892Y-104041616D01*
X102981405Y-104022282D01*
X102662325Y-104066039D01*
X102357912Y-104171205D01*
X102183956Y-104264186D01*
X102088192Y-104528587D01*
X99666497Y-104528587D01*
X99633502Y-104419820D01*
X99574537Y-104309506D01*
X99495185Y-104212815D01*
X99398494Y-104133463D01*
X99288180Y-104074498D01*
X99168482Y-104038188D01*
X99044000Y-104025928D01*
X97044000Y-104025928D01*
X96919518Y-104038188D01*
X96799820Y-104074498D01*
X96689506Y-104133463D01*
X96647000Y-104168347D01*
X96647000Y-103070544D01*
X114215000Y-103070544D01*
X114215000Y-103337456D01*
X114267072Y-103599239D01*
X114369215Y-103845833D01*
X114517503Y-104067762D01*
X114706238Y-104256497D01*
X114928167Y-104404785D01*
X115174761Y-104506928D01*
X115436544Y-104559000D01*
X115703456Y-104559000D01*
X115965239Y-104506928D01*
X116211833Y-104404785D01*
X116433762Y-104256497D01*
X116622497Y-104067762D01*
X116770785Y-103845833D01*
X116872928Y-103599239D01*
X116925000Y-103337456D01*
X116925000Y-103070544D01*
X116872928Y-102808761D01*
X116770785Y-102562167D01*
X116622497Y-102340238D01*
X116433762Y-102151503D01*
X116211833Y-102003215D01*
X115965239Y-101901072D01*
X115703456Y-101849000D01*
X115436544Y-101849000D01*
X115174761Y-101901072D01*
X114928167Y-102003215D01*
X114706238Y-102151503D01*
X114517503Y-102340238D01*
X114369215Y-102562167D01*
X114267072Y-102808761D01*
X114215000Y-103070544D01*
X96647000Y-103070544D01*
X96647000Y-88544061D01*
X112757000Y-88544061D01*
X112757000Y-88747939D01*
X112796774Y-88947898D01*
X112874795Y-89136256D01*
X112988063Y-89305774D01*
X113132226Y-89449937D01*
X113301744Y-89563205D01*
X113490102Y-89641226D01*
X113690061Y-89681000D01*
X113752199Y-89681000D01*
X115043000Y-90971802D01*
X115043000Y-91033939D01*
X115082774Y-91233898D01*
X115160795Y-91422256D01*
X115274063Y-91591774D01*
X115418226Y-91735937D01*
X115587744Y-91849205D01*
X115776102Y-91927226D01*
X115976061Y-91967000D01*
X116179939Y-91967000D01*
X116379898Y-91927226D01*
X116568256Y-91849205D01*
X116737774Y-91735937D01*
X116881937Y-91591774D01*
X116995205Y-91422256D01*
X117073226Y-91233898D01*
X117113000Y-91033939D01*
X117113000Y-90830061D01*
X117073226Y-90630102D01*
X116995205Y-90441744D01*
X116881937Y-90272226D01*
X116737774Y-90128063D01*
X116568256Y-90014795D01*
X116379898Y-89936774D01*
X116179939Y-89897000D01*
X116117802Y-89897000D01*
X114827000Y-88606199D01*
X114827000Y-88544061D01*
X114787226Y-88344102D01*
X114709205Y-88155744D01*
X114595937Y-87986226D01*
X114451774Y-87842063D01*
X114282256Y-87728795D01*
X114093898Y-87650774D01*
X113893939Y-87611000D01*
X113690061Y-87611000D01*
X113490102Y-87650774D01*
X113301744Y-87728795D01*
X113132226Y-87842063D01*
X112988063Y-87986226D01*
X112874795Y-88155744D01*
X112796774Y-88344102D01*
X112757000Y-88544061D01*
X96647000Y-88544061D01*
X96647000Y-73983001D01*
X117037418Y-73983001D01*
X117041699Y-74026470D01*
X117041700Y-82691520D01*
X117037418Y-82734999D01*
X117054504Y-82908489D01*
X117105111Y-83075312D01*
X117187289Y-83229058D01*
X117270167Y-83330045D01*
X117270170Y-83330048D01*
X117297883Y-83363816D01*
X117331650Y-83391528D01*
X117881695Y-83941573D01*
X117824670Y-84079243D01*
X117741700Y-84496357D01*
X117741700Y-84921643D01*
X117824670Y-85338757D01*
X117987419Y-85731670D01*
X118223696Y-86085282D01*
X118524418Y-86386004D01*
X118878030Y-86622281D01*
X119270943Y-86785030D01*
X119688057Y-86868000D01*
X120113343Y-86868000D01*
X120530457Y-86785030D01*
X120923370Y-86622281D01*
X120989702Y-86577959D01*
X120989702Y-88718419D01*
X120668127Y-89039994D01*
X120530457Y-88982970D01*
X120113343Y-88900000D01*
X119688057Y-88900000D01*
X119270943Y-88982970D01*
X118878030Y-89145719D01*
X118524418Y-89381996D01*
X118223696Y-89682718D01*
X117987419Y-90036330D01*
X117824670Y-90429243D01*
X117741700Y-90846357D01*
X117741700Y-91271643D01*
X117824670Y-91688757D01*
X117987419Y-92081670D01*
X118223696Y-92435282D01*
X118524418Y-92736004D01*
X118878030Y-92972281D01*
X119270943Y-93135030D01*
X119688057Y-93218000D01*
X120113343Y-93218000D01*
X120530457Y-93135030D01*
X120923370Y-92972281D01*
X121276982Y-92736004D01*
X121577704Y-92435282D01*
X121813981Y-92081670D01*
X121976730Y-91688757D01*
X122059700Y-91271643D01*
X122059700Y-90846357D01*
X121976730Y-90429243D01*
X121919706Y-90291573D01*
X122469750Y-89741529D01*
X122503518Y-89713816D01*
X122614112Y-89579058D01*
X122696290Y-89425312D01*
X122746896Y-89258489D01*
X122759701Y-89128476D01*
X122759701Y-89128468D01*
X122763982Y-89084999D01*
X122759701Y-89041530D01*
X122759701Y-80376470D01*
X122763982Y-80333001D01*
X122759701Y-80289532D01*
X122759701Y-80289524D01*
X122746896Y-80159511D01*
X122696290Y-79992688D01*
X122614112Y-79838942D01*
X122503518Y-79704184D01*
X122469751Y-79676472D01*
X121919706Y-79126427D01*
X121976730Y-78988757D01*
X122059700Y-78571643D01*
X122059700Y-78146357D01*
X121976730Y-77729243D01*
X121813981Y-77336330D01*
X121577704Y-76982718D01*
X121276982Y-76681996D01*
X120923370Y-76445719D01*
X120530457Y-76282970D01*
X120113343Y-76200000D01*
X119688057Y-76200000D01*
X119270943Y-76282970D01*
X118878030Y-76445719D01*
X118811699Y-76490040D01*
X118811699Y-74349579D01*
X119133273Y-74028005D01*
X119270943Y-74085030D01*
X119688057Y-74168000D01*
X120113343Y-74168000D01*
X120530457Y-74085030D01*
X120923370Y-73922281D01*
X121276982Y-73686004D01*
X121577704Y-73385282D01*
X121813981Y-73031670D01*
X121976730Y-72638757D01*
X122059700Y-72221643D01*
X122059700Y-71796357D01*
X121976730Y-71379243D01*
X121813981Y-70986330D01*
X121577704Y-70632718D01*
X121276982Y-70331996D01*
X120923370Y-70095719D01*
X120530457Y-69932970D01*
X120113343Y-69850000D01*
X119688057Y-69850000D01*
X119270943Y-69932970D01*
X118878030Y-70095719D01*
X118524418Y-70331996D01*
X118223696Y-70632718D01*
X117987419Y-70986330D01*
X117824670Y-71379243D01*
X117741700Y-71796357D01*
X117741700Y-72221643D01*
X117824670Y-72638757D01*
X117881695Y-72776427D01*
X117331655Y-73326467D01*
X117297882Y-73354184D01*
X117187288Y-73488943D01*
X117105110Y-73642689D01*
X117054504Y-73809512D01*
X117041699Y-73939525D01*
X117041699Y-73939532D01*
X117037418Y-73983001D01*
X96647000Y-73983001D01*
X96647000Y-64618890D01*
X123272524Y-64618890D01*
X123317175Y-64766099D01*
X123442359Y-65028920D01*
X123616412Y-65262269D01*
X123832645Y-65457178D01*
X124082748Y-65606157D01*
X124357109Y-65703481D01*
X124587000Y-65582814D01*
X124587000Y-64389000D01*
X123393845Y-64389000D01*
X123272524Y-64618890D01*
X96647000Y-64618890D01*
X96647000Y-63500328D01*
X96660769Y-63395743D01*
X96697923Y-63306045D01*
X96757024Y-63229024D01*
X96834045Y-63169923D01*
X96923743Y-63132769D01*
X97028328Y-63119000D01*
X123774758Y-63119000D01*
X123616412Y-63261731D01*
G04 #@! TA.AperFunction,Conductor*
D30*
G36*
X123616412Y-63261731D02*
G01*
X123442359Y-63495080D01*
X123317175Y-63757901D01*
X123272524Y-63905110D01*
X123393845Y-64135000D01*
X124587000Y-64135000D01*
X124587000Y-64115000D01*
X124841000Y-64115000D01*
X124841000Y-64135000D01*
X124861000Y-64135000D01*
X124861000Y-64389000D01*
X124841000Y-64389000D01*
X124841000Y-65582814D01*
X125070891Y-65703481D01*
X125345252Y-65606157D01*
X125595355Y-65457178D01*
X125811588Y-65262269D01*
X125985641Y-65028920D01*
X126086001Y-64818217D01*
X126086000Y-110367371D01*
X126060077Y-110429955D01*
X126000976Y-110506976D01*
X125923955Y-110566077D01*
X125861371Y-110592000D01*
X96896629Y-110592000D01*
X96834045Y-110566077D01*
X96757024Y-110506976D01*
X96697923Y-110429955D01*
X96660769Y-110340257D01*
X96647000Y-110235672D01*
X96647000Y-108070544D01*
X114215000Y-108070544D01*
X114215000Y-108337456D01*
X114267072Y-108599239D01*
X114369215Y-108845833D01*
X114517503Y-109067762D01*
X114706238Y-109256497D01*
X114928167Y-109404785D01*
X115174761Y-109506928D01*
X115436544Y-109559000D01*
X115703456Y-109559000D01*
X115965239Y-109506928D01*
X116211833Y-109404785D01*
X116433762Y-109256497D01*
X116622497Y-109067762D01*
X116770785Y-108845833D01*
X116872928Y-108599239D01*
X116925000Y-108337456D01*
X116925000Y-108070544D01*
X116872928Y-107808761D01*
X116770785Y-107562167D01*
X116713125Y-107475872D01*
X120955000Y-107475872D01*
X120955000Y-107916128D01*
X121040890Y-108347925D01*
X121209369Y-108754669D01*
X121453962Y-109120729D01*
X121765271Y-109432038D01*
X122131331Y-109676631D01*
X122538075Y-109845110D01*
X122969872Y-109931000D01*
X123410128Y-109931000D01*
X123841925Y-109845110D01*
X124248669Y-109676631D01*
X124614729Y-109432038D01*
X124926038Y-109120729D01*
X125170631Y-108754669D01*
X125339110Y-108347925D01*
X125425000Y-107916128D01*
X125425000Y-107475872D01*
X125339110Y-107044075D01*
X125170631Y-106637331D01*
X124926038Y-106271271D01*
X124614729Y-105959962D01*
X124248669Y-105715369D01*
X123841925Y-105546890D01*
X123410128Y-105461000D01*
X122969872Y-105461000D01*
X122538075Y-105546890D01*
X122131331Y-105715369D01*
X121765271Y-105959962D01*
X121453962Y-106271271D01*
X121209369Y-106637331D01*
X121040890Y-107044075D01*
X120955000Y-107475872D01*
X116713125Y-107475872D01*
X116622497Y-107340238D01*
X116433762Y-107151503D01*
X116211833Y-107003215D01*
X115965239Y-106901072D01*
X115703456Y-106849000D01*
X115436544Y-106849000D01*
X115174761Y-106901072D01*
X114928167Y-107003215D01*
X114706238Y-107151503D01*
X114517503Y-107340238D01*
X114369215Y-107562167D01*
X114267072Y-107808761D01*
X114215000Y-108070544D01*
X96647000Y-108070544D01*
X96647000Y-107159653D01*
X96689506Y-107194537D01*
X96799820Y-107253502D01*
X96919518Y-107289812D01*
X97044000Y-107302072D01*
X99044000Y-107302072D01*
X99168482Y-107289812D01*
X99288180Y-107253502D01*
X99398494Y-107194537D01*
X99495185Y-107115185D01*
X99574537Y-107018494D01*
X99633502Y-106908180D01*
X99666496Y-106799413D01*
X102088192Y-106799413D01*
X102183956Y-107063814D01*
X102473571Y-107204704D01*
X102785108Y-107286384D01*
X103106595Y-107305718D01*
X103425675Y-107261961D01*
X103730088Y-107156795D01*
X103904044Y-107063814D01*
X103999808Y-106799413D01*
X103044000Y-105843605D01*
X102088192Y-106799413D01*
X99666496Y-106799413D01*
X99669812Y-106788482D01*
X99682072Y-106664000D01*
X99682072Y-105726595D01*
X101402282Y-105726595D01*
X101446039Y-106045675D01*
X101551205Y-106350088D01*
X101644186Y-106524044D01*
X101908587Y-106619808D01*
X102864395Y-105664000D01*
X103223605Y-105664000D01*
X104179413Y-106619808D01*
X104443814Y-106524044D01*
X104584704Y-106234429D01*
X104666384Y-105922892D01*
X104685718Y-105601405D01*
X104641961Y-105282325D01*
X104536795Y-104977912D01*
X104475909Y-104864000D01*
X106257928Y-104864000D01*
X106257928Y-106464000D01*
X106270188Y-106588482D01*
X106306498Y-106708180D01*
X106365463Y-106818494D01*
X106444815Y-106915185D01*
X106541506Y-106994537D01*
X106651820Y-107053502D01*
X106771518Y-107089812D01*
X106896000Y-107102072D01*
X108496000Y-107102072D01*
X108620482Y-107089812D01*
X108740180Y-107053502D01*
X108850494Y-106994537D01*
X108947185Y-106915185D01*
X108957807Y-106902242D01*
X109209996Y-107021571D01*
X109484184Y-107090300D01*
X109766512Y-107104217D01*
X110046130Y-107062787D01*
X110312292Y-106967603D01*
X110437514Y-106900671D01*
X110509097Y-106656702D01*
X109696000Y-105843605D01*
X109681858Y-105857748D01*
X109502253Y-105678143D01*
X109516395Y-105664000D01*
X109875605Y-105664000D01*
X110688702Y-106477097D01*
X110932671Y-106405514D01*
X111053571Y-106150004D01*
X111122300Y-105875816D01*
X111136217Y-105593488D01*
X111132818Y-105570544D01*
X111715000Y-105570544D01*
X111715000Y-105837456D01*
X111767072Y-106099239D01*
X111869215Y-106345833D01*
X112017503Y-106567762D01*
X112206238Y-106756497D01*
X112428167Y-106904785D01*
X112674761Y-107006928D01*
X112936544Y-107059000D01*
X113203456Y-107059000D01*
X113465239Y-107006928D01*
X113711833Y-106904785D01*
X113933762Y-106756497D01*
X114122497Y-106567762D01*
X114270785Y-106345833D01*
X114372928Y-106099239D01*
X114425000Y-105837456D01*
X114425000Y-105570544D01*
X114372928Y-105308761D01*
X114270785Y-105062167D01*
X114122497Y-104840238D01*
X113933762Y-104651503D01*
X113711833Y-104503215D01*
X113465239Y-104401072D01*
X113203456Y-104349000D01*
X112936544Y-104349000D01*
X112674761Y-104401072D01*
X112428167Y-104503215D01*
X112206238Y-104651503D01*
X112017503Y-104840238D01*
X111869215Y-105062167D01*
X111767072Y-105308761D01*
X111715000Y-105570544D01*
X111132818Y-105570544D01*
X111094787Y-105313870D01*
X110999603Y-105047708D01*
X110932671Y-104922486D01*
X110688702Y-104850903D01*
X109875605Y-105664000D01*
X109516395Y-105664000D01*
X109502253Y-105649858D01*
X109681858Y-105470253D01*
X109696000Y-105484395D01*
X110509097Y-104671298D01*
X110437514Y-104427329D01*
X110182004Y-104306429D01*
X109907816Y-104237700D01*
X109625488Y-104223783D01*
X109345870Y-104265213D01*
X109079708Y-104360397D01*
X108957691Y-104425616D01*
X108947185Y-104412815D01*
X108850494Y-104333463D01*
X108740180Y-104274498D01*
X108620482Y-104238188D01*
X108496000Y-104225928D01*
X106896000Y-104225928D01*
X106771518Y-104238188D01*
X106651820Y-104274498D01*
X106541506Y-104333463D01*
X106444815Y-104412815D01*
X106365463Y-104509506D01*
X106306498Y-104619820D01*
X106270188Y-104739518D01*
X106257928Y-104864000D01*
X104475909Y-104864000D01*
X104443814Y-104803956D01*
X104179413Y-104708192D01*
X103223605Y-105664000D01*
X102864395Y-105664000D01*
X101908587Y-104708192D01*
X101644186Y-104803956D01*
X101503296Y-105093571D01*
X101421616Y-105405108D01*
X101402282Y-105726595D01*
X99682072Y-105726595D01*
X99682072Y-104664000D01*
X99669812Y-104539518D01*
X99666497Y-104528587D01*
X102088192Y-104528587D01*
X103044000Y-105484395D01*
X103999808Y-104528587D01*
X103904044Y-104264186D01*
X103614429Y-104123296D01*
X103302892Y-104041616D01*
X102981405Y-104022282D01*
X102662325Y-104066039D01*
X102357912Y-104171205D01*
X102183956Y-104264186D01*
X102088192Y-104528587D01*
X99666497Y-104528587D01*
X99633502Y-104419820D01*
X99574537Y-104309506D01*
X99495185Y-104212815D01*
X99398494Y-104133463D01*
X99288180Y-104074498D01*
X99168482Y-104038188D01*
X99044000Y-104025928D01*
X97044000Y-104025928D01*
X96919518Y-104038188D01*
X96799820Y-104074498D01*
X96689506Y-104133463D01*
X96647000Y-104168347D01*
X96647000Y-103070544D01*
X114215000Y-103070544D01*
X114215000Y-103337456D01*
X114267072Y-103599239D01*
X114369215Y-103845833D01*
X114517503Y-104067762D01*
X114706238Y-104256497D01*
X114928167Y-104404785D01*
X115174761Y-104506928D01*
X115436544Y-104559000D01*
X115703456Y-104559000D01*
X115965239Y-104506928D01*
X116211833Y-104404785D01*
X116433762Y-104256497D01*
X116622497Y-104067762D01*
X116770785Y-103845833D01*
X116872928Y-103599239D01*
X116925000Y-103337456D01*
X116925000Y-103070544D01*
X116872928Y-102808761D01*
X116770785Y-102562167D01*
X116622497Y-102340238D01*
X116433762Y-102151503D01*
X116211833Y-102003215D01*
X115965239Y-101901072D01*
X115703456Y-101849000D01*
X115436544Y-101849000D01*
X115174761Y-101901072D01*
X114928167Y-102003215D01*
X114706238Y-102151503D01*
X114517503Y-102340238D01*
X114369215Y-102562167D01*
X114267072Y-102808761D01*
X114215000Y-103070544D01*
X96647000Y-103070544D01*
X96647000Y-88544061D01*
X112757000Y-88544061D01*
X112757000Y-88747939D01*
X112796774Y-88947898D01*
X112874795Y-89136256D01*
X112988063Y-89305774D01*
X113132226Y-89449937D01*
X113301744Y-89563205D01*
X113490102Y-89641226D01*
X113690061Y-89681000D01*
X113752199Y-89681000D01*
X115043000Y-90971802D01*
X115043000Y-91033939D01*
X115082774Y-91233898D01*
X115160795Y-91422256D01*
X115274063Y-91591774D01*
X115418226Y-91735937D01*
X115587744Y-91849205D01*
X115776102Y-91927226D01*
X115976061Y-91967000D01*
X116179939Y-91967000D01*
X116379898Y-91927226D01*
X116568256Y-91849205D01*
X116737774Y-91735937D01*
X116881937Y-91591774D01*
X116995205Y-91422256D01*
X117073226Y-91233898D01*
X117113000Y-91033939D01*
X117113000Y-90830061D01*
X117073226Y-90630102D01*
X116995205Y-90441744D01*
X116881937Y-90272226D01*
X116737774Y-90128063D01*
X116568256Y-90014795D01*
X116379898Y-89936774D01*
X116179939Y-89897000D01*
X116117802Y-89897000D01*
X114827000Y-88606199D01*
X114827000Y-88544061D01*
X114787226Y-88344102D01*
X114709205Y-88155744D01*
X114595937Y-87986226D01*
X114451774Y-87842063D01*
X114282256Y-87728795D01*
X114093898Y-87650774D01*
X113893939Y-87611000D01*
X113690061Y-87611000D01*
X113490102Y-87650774D01*
X113301744Y-87728795D01*
X113132226Y-87842063D01*
X112988063Y-87986226D01*
X112874795Y-88155744D01*
X112796774Y-88344102D01*
X112757000Y-88544061D01*
X96647000Y-88544061D01*
X96647000Y-73983001D01*
X117037418Y-73983001D01*
X117041699Y-74026470D01*
X117041700Y-82691520D01*
X117037418Y-82734999D01*
X117054504Y-82908489D01*
X117105111Y-83075312D01*
X117187289Y-83229058D01*
X117270167Y-83330045D01*
X117270170Y-83330048D01*
X117297883Y-83363816D01*
X117331650Y-83391528D01*
X117881695Y-83941573D01*
X117824670Y-84079243D01*
X117741700Y-84496357D01*
X117741700Y-84921643D01*
X117824670Y-85338757D01*
X117987419Y-85731670D01*
X118223696Y-86085282D01*
X118524418Y-86386004D01*
X118878030Y-86622281D01*
X119270943Y-86785030D01*
X119688057Y-86868000D01*
X120113343Y-86868000D01*
X120530457Y-86785030D01*
X120923370Y-86622281D01*
X120989702Y-86577959D01*
X120989702Y-88718419D01*
X120668127Y-89039994D01*
X120530457Y-88982970D01*
X120113343Y-88900000D01*
X119688057Y-88900000D01*
X119270943Y-88982970D01*
X118878030Y-89145719D01*
X118524418Y-89381996D01*
X118223696Y-89682718D01*
X117987419Y-90036330D01*
X117824670Y-90429243D01*
X117741700Y-90846357D01*
X117741700Y-91271643D01*
X117824670Y-91688757D01*
X117987419Y-92081670D01*
X118223696Y-92435282D01*
X118524418Y-92736004D01*
X118878030Y-92972281D01*
X119270943Y-93135030D01*
X119688057Y-93218000D01*
X120113343Y-93218000D01*
X120530457Y-93135030D01*
X120923370Y-92972281D01*
X121276982Y-92736004D01*
X121577704Y-92435282D01*
X121813981Y-92081670D01*
X121976730Y-91688757D01*
X122059700Y-91271643D01*
X122059700Y-90846357D01*
X121976730Y-90429243D01*
X121919706Y-90291573D01*
X122469750Y-89741529D01*
X122503518Y-89713816D01*
X122614112Y-89579058D01*
X122696290Y-89425312D01*
X122746896Y-89258489D01*
X122759701Y-89128476D01*
X122759701Y-89128468D01*
X122763982Y-89084999D01*
X122759701Y-89041530D01*
X122759701Y-80376470D01*
X122763982Y-80333001D01*
X122759701Y-80289532D01*
X122759701Y-80289524D01*
X122746896Y-80159511D01*
X122696290Y-79992688D01*
X122614112Y-79838942D01*
X122503518Y-79704184D01*
X122469751Y-79676472D01*
X121919706Y-79126427D01*
X121976730Y-78988757D01*
X122059700Y-78571643D01*
X122059700Y-78146357D01*
X121976730Y-77729243D01*
X121813981Y-77336330D01*
X121577704Y-76982718D01*
X121276982Y-76681996D01*
X120923370Y-76445719D01*
X120530457Y-76282970D01*
X120113343Y-76200000D01*
X119688057Y-76200000D01*
X119270943Y-76282970D01*
X118878030Y-76445719D01*
X118811699Y-76490040D01*
X118811699Y-74349579D01*
X119133273Y-74028005D01*
X119270943Y-74085030D01*
X119688057Y-74168000D01*
X120113343Y-74168000D01*
X120530457Y-74085030D01*
X120923370Y-73922281D01*
X121276982Y-73686004D01*
X121577704Y-73385282D01*
X121813981Y-73031670D01*
X121976730Y-72638757D01*
X122059700Y-72221643D01*
X122059700Y-71796357D01*
X121976730Y-71379243D01*
X121813981Y-70986330D01*
X121577704Y-70632718D01*
X121276982Y-70331996D01*
X120923370Y-70095719D01*
X120530457Y-69932970D01*
X120113343Y-69850000D01*
X119688057Y-69850000D01*
X119270943Y-69932970D01*
X118878030Y-70095719D01*
X118524418Y-70331996D01*
X118223696Y-70632718D01*
X117987419Y-70986330D01*
X117824670Y-71379243D01*
X117741700Y-71796357D01*
X117741700Y-72221643D01*
X117824670Y-72638757D01*
X117881695Y-72776427D01*
X117331655Y-73326467D01*
X117297882Y-73354184D01*
X117187288Y-73488943D01*
X117105110Y-73642689D01*
X117054504Y-73809512D01*
X117041699Y-73939525D01*
X117041699Y-73939532D01*
X117037418Y-73983001D01*
X96647000Y-73983001D01*
X96647000Y-64618890D01*
X123272524Y-64618890D01*
X123317175Y-64766099D01*
X123442359Y-65028920D01*
X123616412Y-65262269D01*
X123832645Y-65457178D01*
X124082748Y-65606157D01*
X124357109Y-65703481D01*
X124587000Y-65582814D01*
X124587000Y-64389000D01*
X123393845Y-64389000D01*
X123272524Y-64618890D01*
X96647000Y-64618890D01*
X96647000Y-63500328D01*
X96660769Y-63395743D01*
X96697923Y-63306045D01*
X96757024Y-63229024D01*
X96834045Y-63169923D01*
X96923743Y-63132769D01*
X97028328Y-63119000D01*
X123774758Y-63119000D01*
X123616412Y-63261731D01*
G37*
G04 #@! TD.AperFunction*
M02*
