G04 #@! TF.GenerationSoftware,KiCad,Pcbnew,5.1.9*
G04 #@! TF.CreationDate,2021-04-19T03:59:41-04:00*
G04 #@! TF.ProjectId,lm3886_soft_start_v2,6c6d3338-3836-45f7-936f-66745f737461,rev?*
G04 #@! TF.SameCoordinates,Original*
G04 #@! TF.FileFunction,Soldermask,Bot*
G04 #@! TF.FilePolarity,Negative*
%FSLAX46Y46*%
G04 Gerber Fmt 4.6, Leading zero omitted, Abs format (unit mm)*
G04 Created by KiCad (PCBNEW 5.1.9) date 2021-04-19 03:59:41*
%MOMM*%
%LPD*%
G01*
G04 APERTURE LIST*
%ADD10O,1.700000X1.700000*%
%ADD11R,1.700000X1.700000*%
%ADD12C,3.048000*%
%ADD13C,2.400000*%
%ADD14R,0.900000X0.800000*%
%ADD15R,0.800000X0.900000*%
%ADD16R,2.500000X2.500000*%
%ADD17O,2.500000X2.500000*%
%ADD18C,1.440000*%
%ADD19R,1.000000X0.800000*%
%ADD20C,3.200000*%
%ADD21C,2.100000*%
%ADD22C,2.600000*%
%ADD23R,2.600000X2.600000*%
%ADD24C,2.000000*%
%ADD25R,2.000000X2.000000*%
%ADD26R,1.600000X1.600000*%
%ADD27C,1.600000*%
G04 APERTURE END LIST*
D10*
X124714000Y-64262000D03*
X124714000Y-61722000D03*
D11*
X124714000Y-59182000D03*
D12*
X119900700Y-91059000D03*
X119900700Y-84709000D03*
X119900700Y-78359000D03*
X119900700Y-72009000D03*
X89395300Y-91059000D03*
X89395300Y-84709000D03*
X89395300Y-78359000D03*
G36*
G01*
X88328500Y-70485000D02*
X90462100Y-70485000D01*
G75*
G02*
X90919300Y-70942200I0J-457200D01*
G01*
X90919300Y-73075800D01*
G75*
G02*
X90462100Y-73533000I-457200J0D01*
G01*
X88328500Y-73533000D01*
G75*
G02*
X87871300Y-73075800I0J457200D01*
G01*
X87871300Y-70942200D01*
G75*
G02*
X88328500Y-70485000I457200J0D01*
G01*
G37*
G36*
G01*
X109471750Y-84906500D02*
X109984250Y-84906500D01*
G75*
G02*
X110203000Y-85125250I0J-218750D01*
G01*
X110203000Y-85562750D01*
G75*
G02*
X109984250Y-85781500I-218750J0D01*
G01*
X109471750Y-85781500D01*
G75*
G02*
X109253000Y-85562750I0J218750D01*
G01*
X109253000Y-85125250D01*
G75*
G02*
X109471750Y-84906500I218750J0D01*
G01*
G37*
G36*
G01*
X109471750Y-86481500D02*
X109984250Y-86481500D01*
G75*
G02*
X110203000Y-86700250I0J-218750D01*
G01*
X110203000Y-87137750D01*
G75*
G02*
X109984250Y-87356500I-218750J0D01*
G01*
X109471750Y-87356500D01*
G75*
G02*
X109253000Y-87137750I0J218750D01*
G01*
X109253000Y-86700250D01*
G75*
G02*
X109471750Y-86481500I218750J0D01*
G01*
G37*
D13*
X86614000Y-56268000D03*
X86614000Y-48768000D03*
G36*
G01*
X109570000Y-70106250D02*
X109570000Y-69593750D01*
G75*
G02*
X109788750Y-69375000I218750J0D01*
G01*
X110226250Y-69375000D01*
G75*
G02*
X110445000Y-69593750I0J-218750D01*
G01*
X110445000Y-70106250D01*
G75*
G02*
X110226250Y-70325000I-218750J0D01*
G01*
X109788750Y-70325000D01*
G75*
G02*
X109570000Y-70106250I0J218750D01*
G01*
G37*
G36*
G01*
X107995000Y-70106250D02*
X107995000Y-69593750D01*
G75*
G02*
X108213750Y-69375000I218750J0D01*
G01*
X108651250Y-69375000D01*
G75*
G02*
X108870000Y-69593750I0J-218750D01*
G01*
X108870000Y-70106250D01*
G75*
G02*
X108651250Y-70325000I-218750J0D01*
G01*
X108213750Y-70325000D01*
G75*
G02*
X107995000Y-70106250I0J218750D01*
G01*
G37*
G36*
G01*
X103982000Y-71122250D02*
X103982000Y-70609750D01*
G75*
G02*
X104200750Y-70391000I218750J0D01*
G01*
X104638250Y-70391000D01*
G75*
G02*
X104857000Y-70609750I0J-218750D01*
G01*
X104857000Y-71122250D01*
G75*
G02*
X104638250Y-71341000I-218750J0D01*
G01*
X104200750Y-71341000D01*
G75*
G02*
X103982000Y-71122250I0J218750D01*
G01*
G37*
G36*
G01*
X102407000Y-71122250D02*
X102407000Y-70609750D01*
G75*
G02*
X102625750Y-70391000I218750J0D01*
G01*
X103063250Y-70391000D01*
G75*
G02*
X103282000Y-70609750I0J-218750D01*
G01*
X103282000Y-71122250D01*
G75*
G02*
X103063250Y-71341000I-218750J0D01*
G01*
X102625750Y-71341000D01*
G75*
G02*
X102407000Y-71122250I0J218750D01*
G01*
G37*
G36*
G01*
X101094250Y-74834000D02*
X100581750Y-74834000D01*
G75*
G02*
X100363000Y-74615250I0J218750D01*
G01*
X100363000Y-74177750D01*
G75*
G02*
X100581750Y-73959000I218750J0D01*
G01*
X101094250Y-73959000D01*
G75*
G02*
X101313000Y-74177750I0J-218750D01*
G01*
X101313000Y-74615250D01*
G75*
G02*
X101094250Y-74834000I-218750J0D01*
G01*
G37*
G36*
G01*
X101094250Y-76409000D02*
X100581750Y-76409000D01*
G75*
G02*
X100363000Y-76190250I0J218750D01*
G01*
X100363000Y-75752750D01*
G75*
G02*
X100581750Y-75534000I218750J0D01*
G01*
X101094250Y-75534000D01*
G75*
G02*
X101313000Y-75752750I0J-218750D01*
G01*
X101313000Y-76190250D01*
G75*
G02*
X101094250Y-76409000I-218750J0D01*
G01*
G37*
G36*
G01*
X113583000Y-71122250D02*
X113583000Y-70609750D01*
G75*
G02*
X113801750Y-70391000I218750J0D01*
G01*
X114239250Y-70391000D01*
G75*
G02*
X114458000Y-70609750I0J-218750D01*
G01*
X114458000Y-71122250D01*
G75*
G02*
X114239250Y-71341000I-218750J0D01*
G01*
X113801750Y-71341000D01*
G75*
G02*
X113583000Y-71122250I0J218750D01*
G01*
G37*
G36*
G01*
X115158000Y-71122250D02*
X115158000Y-70609750D01*
G75*
G02*
X115376750Y-70391000I218750J0D01*
G01*
X115814250Y-70391000D01*
G75*
G02*
X116033000Y-70609750I0J-218750D01*
G01*
X116033000Y-71122250D01*
G75*
G02*
X115814250Y-71341000I-218750J0D01*
G01*
X115376750Y-71341000D01*
G75*
G02*
X115158000Y-71122250I0J218750D01*
G01*
G37*
G36*
G01*
X106682250Y-74834000D02*
X106169750Y-74834000D01*
G75*
G02*
X105951000Y-74615250I0J218750D01*
G01*
X105951000Y-74177750D01*
G75*
G02*
X106169750Y-73959000I218750J0D01*
G01*
X106682250Y-73959000D01*
G75*
G02*
X106901000Y-74177750I0J-218750D01*
G01*
X106901000Y-74615250D01*
G75*
G02*
X106682250Y-74834000I-218750J0D01*
G01*
G37*
G36*
G01*
X106682250Y-76409000D02*
X106169750Y-76409000D01*
G75*
G02*
X105951000Y-76190250I0J218750D01*
G01*
X105951000Y-75752750D01*
G75*
G02*
X106169750Y-75534000I218750J0D01*
G01*
X106682250Y-75534000D01*
G75*
G02*
X106901000Y-75752750I0J-218750D01*
G01*
X106901000Y-76190250D01*
G75*
G02*
X106682250Y-76409000I-218750J0D01*
G01*
G37*
G36*
G01*
X111757750Y-73959000D02*
X112270250Y-73959000D01*
G75*
G02*
X112489000Y-74177750I0J-218750D01*
G01*
X112489000Y-74615250D01*
G75*
G02*
X112270250Y-74834000I-218750J0D01*
G01*
X111757750Y-74834000D01*
G75*
G02*
X111539000Y-74615250I0J218750D01*
G01*
X111539000Y-74177750D01*
G75*
G02*
X111757750Y-73959000I218750J0D01*
G01*
G37*
G36*
G01*
X111757750Y-75534000D02*
X112270250Y-75534000D01*
G75*
G02*
X112489000Y-75752750I0J-218750D01*
G01*
X112489000Y-76190250D01*
G75*
G02*
X112270250Y-76409000I-218750J0D01*
G01*
X111757750Y-76409000D01*
G75*
G02*
X111539000Y-76190250I0J218750D01*
G01*
X111539000Y-75752750D01*
G75*
G02*
X111757750Y-75534000I218750J0D01*
G01*
G37*
G36*
G01*
X113535750Y-79293000D02*
X114048250Y-79293000D01*
G75*
G02*
X114267000Y-79511750I0J-218750D01*
G01*
X114267000Y-79949250D01*
G75*
G02*
X114048250Y-80168000I-218750J0D01*
G01*
X113535750Y-80168000D01*
G75*
G02*
X113317000Y-79949250I0J218750D01*
G01*
X113317000Y-79511750D01*
G75*
G02*
X113535750Y-79293000I218750J0D01*
G01*
G37*
G36*
G01*
X113535750Y-80868000D02*
X114048250Y-80868000D01*
G75*
G02*
X114267000Y-81086750I0J-218750D01*
G01*
X114267000Y-81524250D01*
G75*
G02*
X114048250Y-81743000I-218750J0D01*
G01*
X113535750Y-81743000D01*
G75*
G02*
X113317000Y-81524250I0J218750D01*
G01*
X113317000Y-81086750D01*
G75*
G02*
X113535750Y-80868000I218750J0D01*
G01*
G37*
G36*
G01*
X104650250Y-81743000D02*
X104137750Y-81743000D01*
G75*
G02*
X103919000Y-81524250I0J218750D01*
G01*
X103919000Y-81086750D01*
G75*
G02*
X104137750Y-80868000I218750J0D01*
G01*
X104650250Y-80868000D01*
G75*
G02*
X104869000Y-81086750I0J-218750D01*
G01*
X104869000Y-81524250D01*
G75*
G02*
X104650250Y-81743000I-218750J0D01*
G01*
G37*
G36*
G01*
X104650250Y-80168000D02*
X104137750Y-80168000D01*
G75*
G02*
X103919000Y-79949250I0J218750D01*
G01*
X103919000Y-79511750D01*
G75*
G02*
X104137750Y-79293000I218750J0D01*
G01*
X104650250Y-79293000D01*
G75*
G02*
X104869000Y-79511750I0J-218750D01*
G01*
X104869000Y-79949250D01*
G75*
G02*
X104650250Y-80168000I-218750J0D01*
G01*
G37*
G36*
G01*
X105915750Y-86456000D02*
X106428250Y-86456000D01*
G75*
G02*
X106647000Y-86674750I0J-218750D01*
G01*
X106647000Y-87112250D01*
G75*
G02*
X106428250Y-87331000I-218750J0D01*
G01*
X105915750Y-87331000D01*
G75*
G02*
X105697000Y-87112250I0J218750D01*
G01*
X105697000Y-86674750D01*
G75*
G02*
X105915750Y-86456000I218750J0D01*
G01*
G37*
G36*
G01*
X105915750Y-84881000D02*
X106428250Y-84881000D01*
G75*
G02*
X106647000Y-85099750I0J-218750D01*
G01*
X106647000Y-85537250D01*
G75*
G02*
X106428250Y-85756000I-218750J0D01*
G01*
X105915750Y-85756000D01*
G75*
G02*
X105697000Y-85537250I0J218750D01*
G01*
X105697000Y-85099750D01*
G75*
G02*
X105915750Y-84881000I218750J0D01*
G01*
G37*
G36*
G01*
X107693750Y-84906500D02*
X108206250Y-84906500D01*
G75*
G02*
X108425000Y-85125250I0J-218750D01*
G01*
X108425000Y-85562750D01*
G75*
G02*
X108206250Y-85781500I-218750J0D01*
G01*
X107693750Y-85781500D01*
G75*
G02*
X107475000Y-85562750I0J218750D01*
G01*
X107475000Y-85125250D01*
G75*
G02*
X107693750Y-84906500I218750J0D01*
G01*
G37*
G36*
G01*
X107693750Y-86481500D02*
X108206250Y-86481500D01*
G75*
G02*
X108425000Y-86700250I0J-218750D01*
G01*
X108425000Y-87137750D01*
G75*
G02*
X108206250Y-87356500I-218750J0D01*
G01*
X107693750Y-87356500D01*
G75*
G02*
X107475000Y-87137750I0J218750D01*
G01*
X107475000Y-86700250D01*
G75*
G02*
X107693750Y-86481500I218750J0D01*
G01*
G37*
D14*
X110220000Y-67056000D03*
X108220000Y-66106000D03*
X108220000Y-68006000D03*
X104632000Y-68072000D03*
X102632000Y-67122000D03*
X102632000Y-69022000D03*
D15*
X103632000Y-76184000D03*
X104582000Y-74184000D03*
X102682000Y-74184000D03*
X108270000Y-74184000D03*
X110170000Y-74184000D03*
X109220000Y-76184000D03*
X110048000Y-79518000D03*
X111948000Y-79518000D03*
X110998000Y-81518000D03*
X108138000Y-81518000D03*
X106238000Y-81518000D03*
X107188000Y-79518000D03*
X115316000Y-65040000D03*
X114366000Y-67040000D03*
X116266000Y-67040000D03*
X114808000Y-76184000D03*
X115758000Y-74184000D03*
X113858000Y-74184000D03*
X101600000Y-81518000D03*
X102550000Y-79518000D03*
X100650000Y-79518000D03*
X113472000Y-87106000D03*
X111572000Y-87106000D03*
X112522000Y-85106000D03*
G36*
G01*
X101905750Y-86556000D02*
X102818250Y-86556000D01*
G75*
G02*
X103062000Y-86799750I0J-243750D01*
G01*
X103062000Y-87287250D01*
G75*
G02*
X102818250Y-87531000I-243750J0D01*
G01*
X101905750Y-87531000D01*
G75*
G02*
X101662000Y-87287250I0J243750D01*
G01*
X101662000Y-86799750D01*
G75*
G02*
X101905750Y-86556000I243750J0D01*
G01*
G37*
G36*
G01*
X101905750Y-84681000D02*
X102818250Y-84681000D01*
G75*
G02*
X103062000Y-84924750I0J-243750D01*
G01*
X103062000Y-85412250D01*
G75*
G02*
X102818250Y-85656000I-243750J0D01*
G01*
X101905750Y-85656000D01*
G75*
G02*
X101662000Y-85412250I0J243750D01*
G01*
X101662000Y-84924750D01*
G75*
G02*
X101905750Y-84681000I243750J0D01*
G01*
G37*
G36*
G01*
X106014000Y-109222250D02*
X106014000Y-108709750D01*
G75*
G02*
X106232750Y-108491000I218750J0D01*
G01*
X106670250Y-108491000D01*
G75*
G02*
X106889000Y-108709750I0J-218750D01*
G01*
X106889000Y-109222250D01*
G75*
G02*
X106670250Y-109441000I-218750J0D01*
G01*
X106232750Y-109441000D01*
G75*
G02*
X106014000Y-109222250I0J218750D01*
G01*
G37*
G36*
G01*
X104439000Y-109222250D02*
X104439000Y-108709750D01*
G75*
G02*
X104657750Y-108491000I218750J0D01*
G01*
X105095250Y-108491000D01*
G75*
G02*
X105314000Y-108709750I0J-218750D01*
G01*
X105314000Y-109222250D01*
G75*
G02*
X105095250Y-109441000I-218750J0D01*
G01*
X104657750Y-109441000D01*
G75*
G02*
X104439000Y-109222250I0J218750D01*
G01*
G37*
D16*
X114808000Y-52578000D03*
D17*
X112808000Y-46578000D03*
X100608000Y-46578000D03*
X100608000Y-58578000D03*
X112808000Y-58578000D03*
D18*
X115570000Y-103204000D03*
X113070000Y-105704000D03*
X115570000Y-108204000D03*
D19*
X113565000Y-96012000D03*
X113565000Y-93472000D03*
X107415000Y-93472000D03*
X107415000Y-96012000D03*
D20*
X72644000Y-45974000D03*
X123190000Y-45974000D03*
X123190000Y-107696000D03*
X72644000Y-107696000D03*
D21*
X84328000Y-74338000D03*
X84328000Y-78938000D03*
X84328000Y-83538000D03*
X84328000Y-88138000D03*
D22*
X77216000Y-88740000D03*
X77216000Y-83740000D03*
D23*
X77216000Y-78740000D03*
D24*
X103044000Y-105664000D03*
D25*
X98044000Y-105664000D03*
D22*
X77216000Y-71548000D03*
D23*
X77216000Y-66548000D03*
G36*
G01*
X98559000Y-102987000D02*
X98559000Y-101737000D01*
G75*
G02*
X98809000Y-101487000I250000J0D01*
G01*
X99559000Y-101487000D01*
G75*
G02*
X99809000Y-101737000I0J-250000D01*
G01*
X99809000Y-102987000D01*
G75*
G02*
X99559000Y-103237000I-250000J0D01*
G01*
X98809000Y-103237000D01*
G75*
G02*
X98559000Y-102987000I0J250000D01*
G01*
G37*
G36*
G01*
X101359000Y-102987000D02*
X101359000Y-101737000D01*
G75*
G02*
X101609000Y-101487000I250000J0D01*
G01*
X102359000Y-101487000D01*
G75*
G02*
X102609000Y-101737000I0J-250000D01*
G01*
X102609000Y-102987000D01*
G75*
G02*
X102359000Y-103237000I-250000J0D01*
G01*
X101609000Y-103237000D01*
G75*
G02*
X101359000Y-102987000I0J250000D01*
G01*
G37*
D26*
X107696000Y-105664000D03*
D27*
X109696000Y-105664000D03*
M02*
