M48
; DRILL file {KiCad 5.1.9} date Mon Apr 19 03:59:44 2021
; FORMAT={-:-/ absolute / inch / decimal}
; #@! TF.CreationDate,2021-04-19T03:59:44-04:00
; #@! TF.GenerationSoftware,Kicad,Pcbnew,5.1.9
; #@! TF.FileFunction,Plated,1,2,PTH
FMAT,2
INCH
T1C0.0157
T2C0.0197
T3C0.0315
T4C0.0394
T5C0.0433
T6C0.0472
T7C0.0512
T8C0.0600
%
G90
G05
T1
X3.85Y-2.53
X3.85Y-2.85
X3.85Y-3.21
X3.85Y-3.58
X3.85Y-3.94
X3.86Y-4.3
X3.96Y-3.06
X4.02Y-2.85
X4.03Y-3.48
X4.18Y-2.585
X4.18Y-2.615
X4.18Y-3.26
X4.21Y-2.585
X4.21Y-2.615
X4.21Y-2.81
X4.25Y-3.48
X4.3Y-3.88
X4.32Y-3.48
X4.37Y-3.28
X4.39Y-2.75
X4.4Y-3.08
X4.42Y-3.88
X4.48Y-3.49
X4.52Y-3.28
X4.57Y-3.07
X4.57Y-3.58
X4.61Y-2.79
X4.64Y-2.64
X4.65Y-3.42
X4.75Y-3.93
X4.89Y-2.7
X4.89Y-3.08
X4.89Y-3.62
T2
X4.12Y-3.64
X4.12Y-3.68
X4.16Y-3.64
X4.16Y-3.68
T3
X4.24Y-4.16
X4.3187Y-4.16
X4.4516Y-4.1616
X4.55Y-4.0631
X4.55Y-4.26
T4
X3.86Y-4.16
X4.0569Y-4.16
X4.91Y-2.33
X4.91Y-2.43
X4.91Y-2.53
T5
X3.32Y-2.9267
X3.32Y-3.1078
X3.32Y-3.2889
X3.32Y-3.47
T6
X3.41Y-1.92
X3.41Y-2.2153
T7
X3.04Y-2.62
X3.04Y-2.8169
X3.04Y-3.1
X3.04Y-3.2969
X3.04Y-3.4937
X3.9609Y-1.8338
X3.9609Y-2.3062
X4.4413Y-1.8338
X4.4413Y-2.3062
X4.52Y-2.07
T8
X3.5195Y-2.835
X3.5195Y-3.085
X3.5195Y-3.335
X3.5195Y-3.585
X4.7205Y-2.835
X4.7205Y-3.085
X4.7205Y-3.335
X4.7205Y-3.585
T0
M30
