G04 #@! TF.GenerationSoftware,KiCad,Pcbnew,5.1.9*
G04 #@! TF.CreationDate,2021-04-19T03:59:41-04:00*
G04 #@! TF.ProjectId,lm3886_soft_start_v2,6c6d3338-3836-45f7-936f-66745f737461,rev?*
G04 #@! TF.SameCoordinates,Original*
G04 #@! TF.FileFunction,Legend,Bot*
G04 #@! TF.FilePolarity,Positive*
%FSLAX46Y46*%
G04 Gerber Fmt 4.6, Leading zero omitted, Abs format (unit mm)*
G04 Created by KiCad (PCBNEW 5.1.9) date 2021-04-19 03:59:41*
%MOMM*%
%LPD*%
G01*
G04 APERTURE LIST*
%ADD10C,0.120000*%
%ADD11C,0.150000*%
G04 APERTURE END LIST*
D10*
X84328000Y-85852000D02*
X82677000Y-85852000D01*
X84328000Y-86741000D02*
X84328000Y-85852000D01*
X84328000Y-85090000D02*
X84328000Y-86741000D01*
X84328000Y-81280000D02*
X82677000Y-81280000D01*
X84328000Y-82042000D02*
X84328000Y-81280000D01*
X84328000Y-80518000D02*
X84328000Y-82042000D01*
X84328000Y-76581000D02*
X82677000Y-76581000D01*
X84328000Y-77470000D02*
X84328000Y-76581000D01*
X84328000Y-75692000D02*
X84328000Y-77470000D01*
D11*
X82875380Y-75485761D02*
X82875380Y-74914333D01*
X82875380Y-75200047D02*
X81875380Y-75200047D01*
X82018238Y-75104809D01*
X82113476Y-75009571D01*
X82161095Y-74914333D01*
X82875380Y-76438142D02*
X82875380Y-75866714D01*
X82875380Y-76152428D02*
X81875380Y-76152428D01*
X82018238Y-76057190D01*
X82113476Y-75961952D01*
X82161095Y-75866714D01*
X81875380Y-77342904D02*
X81875380Y-76866714D01*
X82351571Y-76819095D01*
X82303952Y-76866714D01*
X82256333Y-76961952D01*
X82256333Y-77200047D01*
X82303952Y-77295285D01*
X82351571Y-77342904D01*
X82446809Y-77390523D01*
X82684904Y-77390523D01*
X82780142Y-77342904D01*
X82827761Y-77295285D01*
X82875380Y-77200047D01*
X82875380Y-76961952D01*
X82827761Y-76866714D01*
X82780142Y-76819095D01*
X81875380Y-77676238D02*
X82875380Y-78009571D01*
X81875380Y-78342904D01*
X81970619Y-79613333D02*
X81923000Y-79660952D01*
X81875380Y-79756190D01*
X81875380Y-79994285D01*
X81923000Y-80089523D01*
X81970619Y-80137142D01*
X82065857Y-80184761D01*
X82161095Y-80184761D01*
X82303952Y-80137142D01*
X82875380Y-79565714D01*
X82875380Y-80184761D01*
X81875380Y-80518095D02*
X81875380Y-81137142D01*
X82256333Y-80803809D01*
X82256333Y-80946666D01*
X82303952Y-81041904D01*
X82351571Y-81089523D01*
X82446809Y-81137142D01*
X82684904Y-81137142D01*
X82780142Y-81089523D01*
X82827761Y-81041904D01*
X82875380Y-80946666D01*
X82875380Y-80660952D01*
X82827761Y-80565714D01*
X82780142Y-80518095D01*
X81875380Y-81756190D02*
X81875380Y-81851428D01*
X81923000Y-81946666D01*
X81970619Y-81994285D01*
X82065857Y-82041904D01*
X82256333Y-82089523D01*
X82494428Y-82089523D01*
X82684904Y-82041904D01*
X82780142Y-81994285D01*
X82827761Y-81946666D01*
X82875380Y-81851428D01*
X82875380Y-81756190D01*
X82827761Y-81660952D01*
X82780142Y-81613333D01*
X82684904Y-81565714D01*
X82494428Y-81518095D01*
X82256333Y-81518095D01*
X82065857Y-81565714D01*
X81970619Y-81613333D01*
X81923000Y-81660952D01*
X81875380Y-81756190D01*
X81875380Y-82375238D02*
X82875380Y-82708571D01*
X81875380Y-83041904D01*
X82875380Y-84756761D02*
X82875380Y-84185333D01*
X82875380Y-84471047D02*
X81875380Y-84471047D01*
X82018238Y-84375809D01*
X82113476Y-84280571D01*
X82161095Y-84185333D01*
X82875380Y-85709142D02*
X82875380Y-85137714D01*
X82875380Y-85423428D02*
X81875380Y-85423428D01*
X82018238Y-85328190D01*
X82113476Y-85232952D01*
X82161095Y-85137714D01*
X81875380Y-86613904D02*
X81875380Y-86137714D01*
X82351571Y-86090095D01*
X82303952Y-86137714D01*
X82256333Y-86232952D01*
X82256333Y-86471047D01*
X82303952Y-86566285D01*
X82351571Y-86613904D01*
X82446809Y-86661523D01*
X82684904Y-86661523D01*
X82780142Y-86613904D01*
X82827761Y-86566285D01*
X82875380Y-86471047D01*
X82875380Y-86232952D01*
X82827761Y-86137714D01*
X82780142Y-86090095D01*
X81875380Y-86947238D02*
X82875380Y-87280571D01*
X81875380Y-87613904D01*
D10*
X110238000Y-85968721D02*
X110238000Y-86294279D01*
X109218000Y-85968721D02*
X109218000Y-86294279D01*
X109057221Y-70360000D02*
X109382779Y-70360000D01*
X109057221Y-69340000D02*
X109382779Y-69340000D01*
X103469221Y-71376000D02*
X103794779Y-71376000D01*
X103469221Y-70356000D02*
X103794779Y-70356000D01*
X101348000Y-75346779D02*
X101348000Y-75021221D01*
X100328000Y-75346779D02*
X100328000Y-75021221D01*
X114645221Y-70356000D02*
X114970779Y-70356000D01*
X114645221Y-71376000D02*
X114970779Y-71376000D01*
X106936000Y-75346779D02*
X106936000Y-75021221D01*
X105916000Y-75346779D02*
X105916000Y-75021221D01*
X112524000Y-75021221D02*
X112524000Y-75346779D01*
X111504000Y-75021221D02*
X111504000Y-75346779D01*
X114302000Y-80355221D02*
X114302000Y-80680779D01*
X113282000Y-80355221D02*
X113282000Y-80680779D01*
X103884000Y-80680779D02*
X103884000Y-80355221D01*
X104904000Y-80680779D02*
X104904000Y-80355221D01*
X105662000Y-85943221D02*
X105662000Y-86268779D01*
X106682000Y-85943221D02*
X106682000Y-86268779D01*
X108460000Y-85968721D02*
X108460000Y-86294279D01*
X107440000Y-85968721D02*
X107440000Y-86294279D01*
X109980000Y-65476000D02*
X109980000Y-66406000D01*
X109980000Y-68636000D02*
X109980000Y-67706000D01*
X109980000Y-68636000D02*
X107820000Y-68636000D01*
X109980000Y-65476000D02*
X108520000Y-65476000D01*
X104392000Y-66492000D02*
X104392000Y-67422000D01*
X104392000Y-69652000D02*
X104392000Y-68722000D01*
X104392000Y-69652000D02*
X102232000Y-69652000D01*
X104392000Y-66492000D02*
X102932000Y-66492000D01*
X105212000Y-75944000D02*
X104282000Y-75944000D01*
X102052000Y-75944000D02*
X102982000Y-75944000D01*
X102052000Y-75944000D02*
X102052000Y-73784000D01*
X105212000Y-75944000D02*
X105212000Y-74484000D01*
X110800000Y-75944000D02*
X110800000Y-74484000D01*
X107640000Y-75944000D02*
X107640000Y-73784000D01*
X107640000Y-75944000D02*
X108570000Y-75944000D01*
X110800000Y-75944000D02*
X109870000Y-75944000D01*
X112578000Y-81278000D02*
X112578000Y-79818000D01*
X109418000Y-81278000D02*
X109418000Y-79118000D01*
X109418000Y-81278000D02*
X110348000Y-81278000D01*
X112578000Y-81278000D02*
X111648000Y-81278000D01*
X105608000Y-79758000D02*
X105608000Y-81218000D01*
X108768000Y-79758000D02*
X108768000Y-81918000D01*
X108768000Y-79758000D02*
X107838000Y-79758000D01*
X105608000Y-79758000D02*
X106538000Y-79758000D01*
X113736000Y-65280000D02*
X114666000Y-65280000D01*
X116896000Y-65280000D02*
X115966000Y-65280000D01*
X116896000Y-65280000D02*
X116896000Y-67440000D01*
X113736000Y-65280000D02*
X113736000Y-66740000D01*
X116388000Y-75944000D02*
X115458000Y-75944000D01*
X113228000Y-75944000D02*
X114158000Y-75944000D01*
X113228000Y-75944000D02*
X113228000Y-73784000D01*
X116388000Y-75944000D02*
X116388000Y-74484000D01*
X103180000Y-81278000D02*
X102250000Y-81278000D01*
X100020000Y-81278000D02*
X100950000Y-81278000D01*
X100020000Y-81278000D02*
X100020000Y-79118000D01*
X103180000Y-81278000D02*
X103180000Y-79818000D01*
X110942000Y-85346000D02*
X110942000Y-86806000D01*
X114102000Y-85346000D02*
X114102000Y-87506000D01*
X114102000Y-85346000D02*
X113172000Y-85346000D01*
X110942000Y-85346000D02*
X111872000Y-85346000D01*
X101652000Y-85847422D02*
X101652000Y-86364578D01*
X103072000Y-85847422D02*
X103072000Y-86364578D01*
X105501221Y-108456000D02*
X105826779Y-108456000D01*
X105501221Y-109476000D02*
X105826779Y-109476000D01*
X108290000Y-97242000D02*
X108290000Y-96742000D01*
X108290000Y-96742000D02*
X106890000Y-96742000D01*
X112690000Y-95542000D02*
X112690000Y-93942000D01*
X108290000Y-95542000D02*
X108290000Y-93942000D01*
X112690000Y-96442000D02*
X112690000Y-97242000D01*
X112690000Y-97242000D02*
X108290000Y-97242000D01*
X112690000Y-93042000D02*
X112690000Y-92242000D01*
X112690000Y-92242000D02*
X108290000Y-92242000D01*
X108290000Y-92242000D02*
X108290000Y-93042000D01*
X99981936Y-101452000D02*
X101186064Y-101452000D01*
X99981936Y-103272000D02*
X101186064Y-103272000D01*
D11*
X110085142Y-83399333D02*
X110132761Y-83351714D01*
X110180380Y-83208857D01*
X110180380Y-83113619D01*
X110132761Y-82970761D01*
X110037523Y-82875523D01*
X109942285Y-82827904D01*
X109751809Y-82780285D01*
X109608952Y-82780285D01*
X109418476Y-82827904D01*
X109323238Y-82875523D01*
X109228000Y-82970761D01*
X109180380Y-83113619D01*
X109180380Y-83208857D01*
X109228000Y-83351714D01*
X109275619Y-83399333D01*
X109275619Y-83780285D02*
X109228000Y-83827904D01*
X109180380Y-83923142D01*
X109180380Y-84161238D01*
X109228000Y-84256476D01*
X109275619Y-84304095D01*
X109370857Y-84351714D01*
X109466095Y-84351714D01*
X109608952Y-84304095D01*
X110180380Y-83732666D01*
X110180380Y-84351714D01*
X109862857Y-71732380D02*
X110196190Y-71256190D01*
X110434285Y-71732380D02*
X110434285Y-70732380D01*
X110053333Y-70732380D01*
X109958095Y-70780000D01*
X109910476Y-70827619D01*
X109862857Y-70922857D01*
X109862857Y-71065714D01*
X109910476Y-71160952D01*
X109958095Y-71208571D01*
X110053333Y-71256190D01*
X110434285Y-71256190D01*
X108910476Y-71732380D02*
X109481904Y-71732380D01*
X109196190Y-71732380D02*
X109196190Y-70732380D01*
X109291428Y-70875238D01*
X109386666Y-70970476D01*
X109481904Y-71018095D01*
X108529523Y-70827619D02*
X108481904Y-70780000D01*
X108386666Y-70732380D01*
X108148571Y-70732380D01*
X108053333Y-70780000D01*
X108005714Y-70827619D01*
X107958095Y-70922857D01*
X107958095Y-71018095D01*
X108005714Y-71160952D01*
X108577142Y-71732380D01*
X107958095Y-71732380D01*
X101226857Y-71318380D02*
X101560190Y-70842190D01*
X101798285Y-71318380D02*
X101798285Y-70318380D01*
X101417333Y-70318380D01*
X101322095Y-70366000D01*
X101274476Y-70413619D01*
X101226857Y-70508857D01*
X101226857Y-70651714D01*
X101274476Y-70746952D01*
X101322095Y-70794571D01*
X101417333Y-70842190D01*
X101798285Y-70842190D01*
X100274476Y-71318380D02*
X100845904Y-71318380D01*
X100560190Y-71318380D02*
X100560190Y-70318380D01*
X100655428Y-70461238D01*
X100750666Y-70556476D01*
X100845904Y-70604095D01*
X99322095Y-71318380D02*
X99893523Y-71318380D01*
X99607809Y-71318380D02*
X99607809Y-70318380D01*
X99703047Y-70461238D01*
X99798285Y-70556476D01*
X99893523Y-70604095D01*
X99766380Y-74541142D02*
X99290190Y-74207809D01*
X99766380Y-73969714D02*
X98766380Y-73969714D01*
X98766380Y-74350666D01*
X98814000Y-74445904D01*
X98861619Y-74493523D01*
X98956857Y-74541142D01*
X99099714Y-74541142D01*
X99194952Y-74493523D01*
X99242571Y-74445904D01*
X99290190Y-74350666D01*
X99290190Y-73969714D01*
X99766380Y-75493523D02*
X99766380Y-74922095D01*
X99766380Y-75207809D02*
X98766380Y-75207809D01*
X98909238Y-75112571D01*
X99004476Y-75017333D01*
X99052095Y-74922095D01*
X98766380Y-76112571D02*
X98766380Y-76207809D01*
X98814000Y-76303047D01*
X98861619Y-76350666D01*
X98956857Y-76398285D01*
X99147333Y-76445904D01*
X99385428Y-76445904D01*
X99575904Y-76398285D01*
X99671142Y-76350666D01*
X99718761Y-76303047D01*
X99766380Y-76207809D01*
X99766380Y-76112571D01*
X99718761Y-76017333D01*
X99671142Y-75969714D01*
X99575904Y-75922095D01*
X99385428Y-75874476D01*
X99147333Y-75874476D01*
X98956857Y-75922095D01*
X98861619Y-75969714D01*
X98814000Y-76017333D01*
X98766380Y-76112571D01*
X114974666Y-69794380D02*
X115308000Y-69318190D01*
X115546095Y-69794380D02*
X115546095Y-68794380D01*
X115165142Y-68794380D01*
X115069904Y-68842000D01*
X115022285Y-68889619D01*
X114974666Y-68984857D01*
X114974666Y-69127714D01*
X115022285Y-69222952D01*
X115069904Y-69270571D01*
X115165142Y-69318190D01*
X115546095Y-69318190D01*
X114498476Y-69794380D02*
X114308000Y-69794380D01*
X114212761Y-69746761D01*
X114165142Y-69699142D01*
X114069904Y-69556285D01*
X114022285Y-69365809D01*
X114022285Y-68984857D01*
X114069904Y-68889619D01*
X114117523Y-68842000D01*
X114212761Y-68794380D01*
X114403238Y-68794380D01*
X114498476Y-68842000D01*
X114546095Y-68889619D01*
X114593714Y-68984857D01*
X114593714Y-69222952D01*
X114546095Y-69318190D01*
X114498476Y-69365809D01*
X114403238Y-69413428D01*
X114212761Y-69413428D01*
X114117523Y-69365809D01*
X114069904Y-69318190D01*
X114022285Y-69222952D01*
X106878380Y-72477333D02*
X106402190Y-72144000D01*
X106878380Y-71905904D02*
X105878380Y-71905904D01*
X105878380Y-72286857D01*
X105926000Y-72382095D01*
X105973619Y-72429714D01*
X106068857Y-72477333D01*
X106211714Y-72477333D01*
X106306952Y-72429714D01*
X106354571Y-72382095D01*
X106402190Y-72286857D01*
X106402190Y-71905904D01*
X106306952Y-73048761D02*
X106259333Y-72953523D01*
X106211714Y-72905904D01*
X106116476Y-72858285D01*
X106068857Y-72858285D01*
X105973619Y-72905904D01*
X105926000Y-72953523D01*
X105878380Y-73048761D01*
X105878380Y-73239238D01*
X105926000Y-73334476D01*
X105973619Y-73382095D01*
X106068857Y-73429714D01*
X106116476Y-73429714D01*
X106211714Y-73382095D01*
X106259333Y-73334476D01*
X106306952Y-73239238D01*
X106306952Y-73048761D01*
X106354571Y-72953523D01*
X106402190Y-72905904D01*
X106497428Y-72858285D01*
X106687904Y-72858285D01*
X106783142Y-72905904D01*
X106830761Y-72953523D01*
X106878380Y-73048761D01*
X106878380Y-73239238D01*
X106830761Y-73334476D01*
X106783142Y-73382095D01*
X106687904Y-73429714D01*
X106497428Y-73429714D01*
X106402190Y-73382095D01*
X106354571Y-73334476D01*
X106306952Y-73239238D01*
X112466380Y-72477333D02*
X111990190Y-72144000D01*
X112466380Y-71905904D02*
X111466380Y-71905904D01*
X111466380Y-72286857D01*
X111514000Y-72382095D01*
X111561619Y-72429714D01*
X111656857Y-72477333D01*
X111799714Y-72477333D01*
X111894952Y-72429714D01*
X111942571Y-72382095D01*
X111990190Y-72286857D01*
X111990190Y-71905904D01*
X111466380Y-72810666D02*
X111466380Y-73477333D01*
X112466380Y-73048761D01*
X114244380Y-77811333D02*
X113768190Y-77478000D01*
X114244380Y-77239904D02*
X113244380Y-77239904D01*
X113244380Y-77620857D01*
X113292000Y-77716095D01*
X113339619Y-77763714D01*
X113434857Y-77811333D01*
X113577714Y-77811333D01*
X113672952Y-77763714D01*
X113720571Y-77716095D01*
X113768190Y-77620857D01*
X113768190Y-77239904D01*
X113244380Y-78668476D02*
X113244380Y-78478000D01*
X113292000Y-78382761D01*
X113339619Y-78335142D01*
X113482476Y-78239904D01*
X113672952Y-78192285D01*
X114053904Y-78192285D01*
X114149142Y-78239904D01*
X114196761Y-78287523D01*
X114244380Y-78382761D01*
X114244380Y-78573238D01*
X114196761Y-78668476D01*
X114149142Y-78716095D01*
X114053904Y-78763714D01*
X113815809Y-78763714D01*
X113720571Y-78716095D01*
X113672952Y-78668476D01*
X113625333Y-78573238D01*
X113625333Y-78382761D01*
X113672952Y-78287523D01*
X113720571Y-78239904D01*
X113815809Y-78192285D01*
X104846380Y-77811333D02*
X104370190Y-77478000D01*
X104846380Y-77239904D02*
X103846380Y-77239904D01*
X103846380Y-77620857D01*
X103894000Y-77716095D01*
X103941619Y-77763714D01*
X104036857Y-77811333D01*
X104179714Y-77811333D01*
X104274952Y-77763714D01*
X104322571Y-77716095D01*
X104370190Y-77620857D01*
X104370190Y-77239904D01*
X104179714Y-78668476D02*
X104846380Y-78668476D01*
X103798761Y-78430380D02*
X104513047Y-78192285D01*
X104513047Y-78811333D01*
X106624380Y-88479333D02*
X106148190Y-88146000D01*
X106624380Y-87907904D02*
X105624380Y-87907904D01*
X105624380Y-88288857D01*
X105672000Y-88384095D01*
X105719619Y-88431714D01*
X105814857Y-88479333D01*
X105957714Y-88479333D01*
X106052952Y-88431714D01*
X106100571Y-88384095D01*
X106148190Y-88288857D01*
X106148190Y-87907904D01*
X105624380Y-88812666D02*
X105624380Y-89431714D01*
X106005333Y-89098380D01*
X106005333Y-89241238D01*
X106052952Y-89336476D01*
X106100571Y-89384095D01*
X106195809Y-89431714D01*
X106433904Y-89431714D01*
X106529142Y-89384095D01*
X106576761Y-89336476D01*
X106624380Y-89241238D01*
X106624380Y-88955523D01*
X106576761Y-88860285D01*
X106529142Y-88812666D01*
X108402380Y-83399333D02*
X107926190Y-83066000D01*
X108402380Y-82827904D02*
X107402380Y-82827904D01*
X107402380Y-83208857D01*
X107450000Y-83304095D01*
X107497619Y-83351714D01*
X107592857Y-83399333D01*
X107735714Y-83399333D01*
X107830952Y-83351714D01*
X107878571Y-83304095D01*
X107926190Y-83208857D01*
X107926190Y-82827904D01*
X108402380Y-84351714D02*
X108402380Y-83780285D01*
X108402380Y-84066000D02*
X107402380Y-84066000D01*
X107545238Y-83970761D01*
X107640476Y-83875523D01*
X107688095Y-83780285D01*
X109315238Y-65063619D02*
X109410476Y-65016000D01*
X109505714Y-64920761D01*
X109648571Y-64777904D01*
X109743809Y-64730285D01*
X109839047Y-64730285D01*
X109791428Y-64968380D02*
X109886666Y-64920761D01*
X109981904Y-64825523D01*
X110029523Y-64635047D01*
X110029523Y-64301714D01*
X109981904Y-64111238D01*
X109886666Y-64016000D01*
X109791428Y-63968380D01*
X109600952Y-63968380D01*
X109505714Y-64016000D01*
X109410476Y-64111238D01*
X109362857Y-64301714D01*
X109362857Y-64635047D01*
X109410476Y-64825523D01*
X109505714Y-64920761D01*
X109600952Y-64968380D01*
X109791428Y-64968380D01*
X108505714Y-63968380D02*
X108696190Y-63968380D01*
X108791428Y-64016000D01*
X108839047Y-64063619D01*
X108934285Y-64206476D01*
X108981904Y-64396952D01*
X108981904Y-64777904D01*
X108934285Y-64873142D01*
X108886666Y-64920761D01*
X108791428Y-64968380D01*
X108600952Y-64968380D01*
X108505714Y-64920761D01*
X108458095Y-64873142D01*
X108410476Y-64777904D01*
X108410476Y-64539809D01*
X108458095Y-64444571D01*
X108505714Y-64396952D01*
X108600952Y-64349333D01*
X108791428Y-64349333D01*
X108886666Y-64396952D01*
X108934285Y-64444571D01*
X108981904Y-64539809D01*
X103727238Y-66079619D02*
X103822476Y-66032000D01*
X103917714Y-65936761D01*
X104060571Y-65793904D01*
X104155809Y-65746285D01*
X104251047Y-65746285D01*
X104203428Y-65984380D02*
X104298666Y-65936761D01*
X104393904Y-65841523D01*
X104441523Y-65651047D01*
X104441523Y-65317714D01*
X104393904Y-65127238D01*
X104298666Y-65032000D01*
X104203428Y-64984380D01*
X104012952Y-64984380D01*
X103917714Y-65032000D01*
X103822476Y-65127238D01*
X103774857Y-65317714D01*
X103774857Y-65651047D01*
X103822476Y-65841523D01*
X103917714Y-65936761D01*
X104012952Y-65984380D01*
X104203428Y-65984380D01*
X102870095Y-64984380D02*
X103346285Y-64984380D01*
X103393904Y-65460571D01*
X103346285Y-65412952D01*
X103251047Y-65365333D01*
X103012952Y-65365333D01*
X102917714Y-65412952D01*
X102870095Y-65460571D01*
X102822476Y-65555809D01*
X102822476Y-65793904D01*
X102870095Y-65889142D01*
X102917714Y-65936761D01*
X103012952Y-65984380D01*
X103251047Y-65984380D01*
X103346285Y-65936761D01*
X103393904Y-65889142D01*
X103727238Y-73191619D02*
X103822476Y-73144000D01*
X103917714Y-73048761D01*
X104060571Y-72905904D01*
X104155809Y-72858285D01*
X104251047Y-72858285D01*
X104203428Y-73096380D02*
X104298666Y-73048761D01*
X104393904Y-72953523D01*
X104441523Y-72763047D01*
X104441523Y-72429714D01*
X104393904Y-72239238D01*
X104298666Y-72144000D01*
X104203428Y-72096380D01*
X104012952Y-72096380D01*
X103917714Y-72144000D01*
X103822476Y-72239238D01*
X103774857Y-72429714D01*
X103774857Y-72763047D01*
X103822476Y-72953523D01*
X103917714Y-73048761D01*
X104012952Y-73096380D01*
X104203428Y-73096380D01*
X102917714Y-72429714D02*
X102917714Y-73096380D01*
X103155809Y-72048761D02*
X103393904Y-72763047D01*
X102774857Y-72763047D01*
X109315238Y-73191619D02*
X109410476Y-73144000D01*
X109505714Y-73048761D01*
X109648571Y-72905904D01*
X109743809Y-72858285D01*
X109839047Y-72858285D01*
X109791428Y-73096380D02*
X109886666Y-73048761D01*
X109981904Y-72953523D01*
X110029523Y-72763047D01*
X110029523Y-72429714D01*
X109981904Y-72239238D01*
X109886666Y-72144000D01*
X109791428Y-72096380D01*
X109600952Y-72096380D01*
X109505714Y-72144000D01*
X109410476Y-72239238D01*
X109362857Y-72429714D01*
X109362857Y-72763047D01*
X109410476Y-72953523D01*
X109505714Y-73048761D01*
X109600952Y-73096380D01*
X109791428Y-73096380D01*
X109029523Y-72096380D02*
X108410476Y-72096380D01*
X108743809Y-72477333D01*
X108600952Y-72477333D01*
X108505714Y-72524952D01*
X108458095Y-72572571D01*
X108410476Y-72667809D01*
X108410476Y-72905904D01*
X108458095Y-73001142D01*
X108505714Y-73048761D01*
X108600952Y-73096380D01*
X108886666Y-73096380D01*
X108981904Y-73048761D01*
X109029523Y-73001142D01*
X110585238Y-78525619D02*
X110680476Y-78478000D01*
X110775714Y-78382761D01*
X110918571Y-78239904D01*
X111013809Y-78192285D01*
X111109047Y-78192285D01*
X111061428Y-78430380D02*
X111156666Y-78382761D01*
X111251904Y-78287523D01*
X111299523Y-78097047D01*
X111299523Y-77763714D01*
X111251904Y-77573238D01*
X111156666Y-77478000D01*
X111061428Y-77430380D01*
X110870952Y-77430380D01*
X110775714Y-77478000D01*
X110680476Y-77573238D01*
X110632857Y-77763714D01*
X110632857Y-78097047D01*
X110680476Y-78287523D01*
X110775714Y-78382761D01*
X110870952Y-78430380D01*
X111061428Y-78430380D01*
X110251904Y-77525619D02*
X110204285Y-77478000D01*
X110109047Y-77430380D01*
X109870952Y-77430380D01*
X109775714Y-77478000D01*
X109728095Y-77525619D01*
X109680476Y-77620857D01*
X109680476Y-77716095D01*
X109728095Y-77858952D01*
X110299523Y-78430380D01*
X109680476Y-78430380D01*
X107283238Y-78525619D02*
X107378476Y-78478000D01*
X107473714Y-78382761D01*
X107616571Y-78239904D01*
X107711809Y-78192285D01*
X107807047Y-78192285D01*
X107759428Y-78430380D02*
X107854666Y-78382761D01*
X107949904Y-78287523D01*
X107997523Y-78097047D01*
X107997523Y-77763714D01*
X107949904Y-77573238D01*
X107854666Y-77478000D01*
X107759428Y-77430380D01*
X107568952Y-77430380D01*
X107473714Y-77478000D01*
X107378476Y-77573238D01*
X107330857Y-77763714D01*
X107330857Y-78097047D01*
X107378476Y-78287523D01*
X107473714Y-78382761D01*
X107568952Y-78430380D01*
X107759428Y-78430380D01*
X106378476Y-78430380D02*
X106949904Y-78430380D01*
X106664190Y-78430380D02*
X106664190Y-77430380D01*
X106759428Y-77573238D01*
X106854666Y-77668476D01*
X106949904Y-77716095D01*
X116054095Y-63952380D02*
X116054095Y-62952380D01*
X115816000Y-62952380D01*
X115673142Y-63000000D01*
X115577904Y-63095238D01*
X115530285Y-63190476D01*
X115482666Y-63380952D01*
X115482666Y-63523809D01*
X115530285Y-63714285D01*
X115577904Y-63809523D01*
X115673142Y-63904761D01*
X115816000Y-63952380D01*
X116054095Y-63952380D01*
X114577904Y-62952380D02*
X115054095Y-62952380D01*
X115101714Y-63428571D01*
X115054095Y-63380952D01*
X114958857Y-63333333D01*
X114720761Y-63333333D01*
X114625523Y-63380952D01*
X114577904Y-63428571D01*
X114530285Y-63523809D01*
X114530285Y-63761904D01*
X114577904Y-63857142D01*
X114625523Y-63904761D01*
X114720761Y-63952380D01*
X114958857Y-63952380D01*
X115054095Y-63904761D01*
X115101714Y-63857142D01*
X115546095Y-73096380D02*
X115546095Y-72096380D01*
X115308000Y-72096380D01*
X115165142Y-72144000D01*
X115069904Y-72239238D01*
X115022285Y-72334476D01*
X114974666Y-72524952D01*
X114974666Y-72667809D01*
X115022285Y-72858285D01*
X115069904Y-72953523D01*
X115165142Y-73048761D01*
X115308000Y-73096380D01*
X115546095Y-73096380D01*
X114117523Y-72429714D02*
X114117523Y-73096380D01*
X114355619Y-72048761D02*
X114593714Y-72763047D01*
X113974666Y-72763047D01*
X102592095Y-78430380D02*
X102592095Y-77430380D01*
X102354000Y-77430380D01*
X102211142Y-77478000D01*
X102115904Y-77573238D01*
X102068285Y-77668476D01*
X102020666Y-77858952D01*
X102020666Y-78001809D01*
X102068285Y-78192285D01*
X102115904Y-78287523D01*
X102211142Y-78382761D01*
X102354000Y-78430380D01*
X102592095Y-78430380D01*
X101687333Y-77430380D02*
X101068285Y-77430380D01*
X101401619Y-77811333D01*
X101258761Y-77811333D01*
X101163523Y-77858952D01*
X101115904Y-77906571D01*
X101068285Y-78001809D01*
X101068285Y-78239904D01*
X101115904Y-78335142D01*
X101163523Y-78382761D01*
X101258761Y-78430380D01*
X101544476Y-78430380D01*
X101639714Y-78382761D01*
X101687333Y-78335142D01*
X113260095Y-84018380D02*
X113260095Y-83018380D01*
X113022000Y-83018380D01*
X112879142Y-83066000D01*
X112783904Y-83161238D01*
X112736285Y-83256476D01*
X112688666Y-83446952D01*
X112688666Y-83589809D01*
X112736285Y-83780285D01*
X112783904Y-83875523D01*
X112879142Y-83970761D01*
X113022000Y-84018380D01*
X113260095Y-84018380D01*
X112307714Y-83113619D02*
X112260095Y-83066000D01*
X112164857Y-83018380D01*
X111926761Y-83018380D01*
X111831523Y-83066000D01*
X111783904Y-83113619D01*
X111736285Y-83208857D01*
X111736285Y-83304095D01*
X111783904Y-83446952D01*
X112355333Y-84018380D01*
X111736285Y-84018380D01*
X102528666Y-83923142D02*
X102576285Y-83970761D01*
X102719142Y-84018380D01*
X102814380Y-84018380D01*
X102957238Y-83970761D01*
X103052476Y-83875523D01*
X103100095Y-83780285D01*
X103147714Y-83589809D01*
X103147714Y-83446952D01*
X103100095Y-83256476D01*
X103052476Y-83161238D01*
X102957238Y-83066000D01*
X102814380Y-83018380D01*
X102719142Y-83018380D01*
X102576285Y-83066000D01*
X102528666Y-83113619D01*
X102195333Y-83018380D02*
X101576285Y-83018380D01*
X101909619Y-83399333D01*
X101766761Y-83399333D01*
X101671523Y-83446952D01*
X101623904Y-83494571D01*
X101576285Y-83589809D01*
X101576285Y-83827904D01*
X101623904Y-83923142D01*
X101671523Y-83970761D01*
X101766761Y-84018380D01*
X102052476Y-84018380D01*
X102147714Y-83970761D01*
X102195333Y-83923142D01*
X105830666Y-107894380D02*
X106164000Y-107418190D01*
X106402095Y-107894380D02*
X106402095Y-106894380D01*
X106021142Y-106894380D01*
X105925904Y-106942000D01*
X105878285Y-106989619D01*
X105830666Y-107084857D01*
X105830666Y-107227714D01*
X105878285Y-107322952D01*
X105925904Y-107370571D01*
X106021142Y-107418190D01*
X106402095Y-107418190D01*
X104925904Y-106894380D02*
X105402095Y-106894380D01*
X105449714Y-107370571D01*
X105402095Y-107322952D01*
X105306857Y-107275333D01*
X105068761Y-107275333D01*
X104973523Y-107322952D01*
X104925904Y-107370571D01*
X104878285Y-107465809D01*
X104878285Y-107703904D01*
X104925904Y-107799142D01*
X104973523Y-107846761D01*
X105068761Y-107894380D01*
X105306857Y-107894380D01*
X105402095Y-107846761D01*
X105449714Y-107799142D01*
X111228095Y-91638380D02*
X111228095Y-90638380D01*
X110990000Y-90638380D01*
X110847142Y-90686000D01*
X110751904Y-90781238D01*
X110704285Y-90876476D01*
X110656666Y-91066952D01*
X110656666Y-91209809D01*
X110704285Y-91400285D01*
X110751904Y-91495523D01*
X110847142Y-91590761D01*
X110990000Y-91638380D01*
X111228095Y-91638380D01*
X109704285Y-91638380D02*
X110275714Y-91638380D01*
X109990000Y-91638380D02*
X109990000Y-90638380D01*
X110085238Y-90781238D01*
X110180476Y-90876476D01*
X110275714Y-90924095D01*
X100750666Y-101036380D02*
X101084000Y-100560190D01*
X101322095Y-101036380D02*
X101322095Y-100036380D01*
X100941142Y-100036380D01*
X100845904Y-100084000D01*
X100798285Y-100131619D01*
X100750666Y-100226857D01*
X100750666Y-100369714D01*
X100798285Y-100464952D01*
X100845904Y-100512571D01*
X100941142Y-100560190D01*
X101322095Y-100560190D01*
X100369714Y-100131619D02*
X100322095Y-100084000D01*
X100226857Y-100036380D01*
X99988761Y-100036380D01*
X99893523Y-100084000D01*
X99845904Y-100131619D01*
X99798285Y-100226857D01*
X99798285Y-100322095D01*
X99845904Y-100464952D01*
X100417333Y-101036380D01*
X99798285Y-101036380D01*
M02*
