G04 #@! TF.GenerationSoftware,KiCad,Pcbnew,5.1.9*
G04 #@! TF.CreationDate,2021-04-19T03:57:35-04:00*
G04 #@! TF.ProjectId,lm3886_amp_balanced_input,6c6d3338-3836-45f6-916d-705f62616c61,rev?*
G04 #@! TF.SameCoordinates,Original*
G04 #@! TF.FileFunction,Soldermask,Top*
G04 #@! TF.FilePolarity,Negative*
%FSLAX46Y46*%
G04 Gerber Fmt 4.6, Leading zero omitted, Abs format (unit mm)*
G04 Created by KiCad (PCBNEW 5.1.9) date 2021-04-19 03:57:35*
%MOMM*%
%LPD*%
G01*
G04 APERTURE LIST*
%ADD10C,2.500000*%
%ADD11C,3.200000*%
%ADD12C,2.400000*%
%ADD13R,2.400000X2.400000*%
%ADD14C,2.600000*%
%ADD15R,2.600000X2.600000*%
%ADD16O,2.400000X2.400000*%
%ADD17C,1.600000*%
%ADD18R,2.000000X2.000000*%
%ADD19C,2.000000*%
%ADD20R,1.600000X1.600000*%
G04 APERTURE END LIST*
D10*
X139954000Y-93726000D03*
X139954000Y-83566000D03*
G36*
G01*
X160525750Y-84424000D02*
X161038250Y-84424000D01*
G75*
G02*
X161257000Y-84642750I0J-218750D01*
G01*
X161257000Y-85080250D01*
G75*
G02*
X161038250Y-85299000I-218750J0D01*
G01*
X160525750Y-85299000D01*
G75*
G02*
X160307000Y-85080250I0J218750D01*
G01*
X160307000Y-84642750D01*
G75*
G02*
X160525750Y-84424000I218750J0D01*
G01*
G37*
G36*
G01*
X160525750Y-82849000D02*
X161038250Y-82849000D01*
G75*
G02*
X161257000Y-83067750I0J-218750D01*
G01*
X161257000Y-83505250D01*
G75*
G02*
X161038250Y-83724000I-218750J0D01*
G01*
X160525750Y-83724000D01*
G75*
G02*
X160307000Y-83505250I0J218750D01*
G01*
X160307000Y-83067750D01*
G75*
G02*
X160525750Y-82849000I218750J0D01*
G01*
G37*
G36*
G01*
X170685750Y-85440000D02*
X171198250Y-85440000D01*
G75*
G02*
X171417000Y-85658750I0J-218750D01*
G01*
X171417000Y-86096250D01*
G75*
G02*
X171198250Y-86315000I-218750J0D01*
G01*
X170685750Y-86315000D01*
G75*
G02*
X170467000Y-86096250I0J218750D01*
G01*
X170467000Y-85658750D01*
G75*
G02*
X170685750Y-85440000I218750J0D01*
G01*
G37*
G36*
G01*
X170685750Y-83865000D02*
X171198250Y-83865000D01*
G75*
G02*
X171417000Y-84083750I0J-218750D01*
G01*
X171417000Y-84521250D01*
G75*
G02*
X171198250Y-84740000I-218750J0D01*
G01*
X170685750Y-84740000D01*
G75*
G02*
X170467000Y-84521250I0J218750D01*
G01*
X170467000Y-84083750D01*
G75*
G02*
X170685750Y-83865000I218750J0D01*
G01*
G37*
G36*
G01*
X163032000Y-89659750D02*
X163032000Y-90172250D01*
G75*
G02*
X162813250Y-90391000I-218750J0D01*
G01*
X162375750Y-90391000D01*
G75*
G02*
X162157000Y-90172250I0J218750D01*
G01*
X162157000Y-89659750D01*
G75*
G02*
X162375750Y-89441000I218750J0D01*
G01*
X162813250Y-89441000D01*
G75*
G02*
X163032000Y-89659750I0J-218750D01*
G01*
G37*
G36*
G01*
X161457000Y-89659750D02*
X161457000Y-90172250D01*
G75*
G02*
X161238250Y-90391000I-218750J0D01*
G01*
X160800750Y-90391000D01*
G75*
G02*
X160582000Y-90172250I0J218750D01*
G01*
X160582000Y-89659750D01*
G75*
G02*
X160800750Y-89441000I218750J0D01*
G01*
X161238250Y-89441000D01*
G75*
G02*
X161457000Y-89659750I0J-218750D01*
G01*
G37*
G36*
G01*
X169576000Y-89659750D02*
X169576000Y-90172250D01*
G75*
G02*
X169357250Y-90391000I-218750J0D01*
G01*
X168919750Y-90391000D01*
G75*
G02*
X168701000Y-90172250I0J218750D01*
G01*
X168701000Y-89659750D01*
G75*
G02*
X168919750Y-89441000I218750J0D01*
G01*
X169357250Y-89441000D01*
G75*
G02*
X169576000Y-89659750I0J-218750D01*
G01*
G37*
G36*
G01*
X171151000Y-89659750D02*
X171151000Y-90172250D01*
G75*
G02*
X170932250Y-90391000I-218750J0D01*
G01*
X170494750Y-90391000D01*
G75*
G02*
X170276000Y-90172250I0J218750D01*
G01*
X170276000Y-89659750D01*
G75*
G02*
X170494750Y-89441000I218750J0D01*
G01*
X170932250Y-89441000D01*
G75*
G02*
X171151000Y-89659750I0J-218750D01*
G01*
G37*
G36*
G01*
X152587000Y-72846250D02*
X152587000Y-71933750D01*
G75*
G02*
X152830750Y-71690000I243750J0D01*
G01*
X153318250Y-71690000D01*
G75*
G02*
X153562000Y-71933750I0J-243750D01*
G01*
X153562000Y-72846250D01*
G75*
G02*
X153318250Y-73090000I-243750J0D01*
G01*
X152830750Y-73090000D01*
G75*
G02*
X152587000Y-72846250I0J243750D01*
G01*
G37*
G36*
G01*
X150712000Y-72846250D02*
X150712000Y-71933750D01*
G75*
G02*
X150955750Y-71690000I243750J0D01*
G01*
X151443250Y-71690000D01*
G75*
G02*
X151687000Y-71933750I0J-243750D01*
G01*
X151687000Y-72846250D01*
G75*
G02*
X151443250Y-73090000I-243750J0D01*
G01*
X150955750Y-73090000D01*
G75*
G02*
X150712000Y-72846250I0J243750D01*
G01*
G37*
G36*
G01*
X160577000Y-63297750D02*
X160577000Y-64210250D01*
G75*
G02*
X160333250Y-64454000I-243750J0D01*
G01*
X159845750Y-64454000D01*
G75*
G02*
X159602000Y-64210250I0J243750D01*
G01*
X159602000Y-63297750D01*
G75*
G02*
X159845750Y-63054000I243750J0D01*
G01*
X160333250Y-63054000D01*
G75*
G02*
X160577000Y-63297750I0J-243750D01*
G01*
G37*
G36*
G01*
X162452000Y-63297750D02*
X162452000Y-64210250D01*
G75*
G02*
X162208250Y-64454000I-243750J0D01*
G01*
X161720750Y-64454000D01*
G75*
G02*
X161477000Y-64210250I0J243750D01*
G01*
X161477000Y-63297750D01*
G75*
G02*
X161720750Y-63054000I243750J0D01*
G01*
X162208250Y-63054000D01*
G75*
G02*
X162452000Y-63297750I0J-243750D01*
G01*
G37*
G36*
G01*
X161495000Y-68274250D02*
X161495000Y-67361750D01*
G75*
G02*
X161738750Y-67118000I243750J0D01*
G01*
X162226250Y-67118000D01*
G75*
G02*
X162470000Y-67361750I0J-243750D01*
G01*
X162470000Y-68274250D01*
G75*
G02*
X162226250Y-68518000I-243750J0D01*
G01*
X161738750Y-68518000D01*
G75*
G02*
X161495000Y-68274250I0J243750D01*
G01*
G37*
G36*
G01*
X159620000Y-68274250D02*
X159620000Y-67361750D01*
G75*
G02*
X159863750Y-67118000I243750J0D01*
G01*
X160351250Y-67118000D01*
G75*
G02*
X160595000Y-67361750I0J-243750D01*
G01*
X160595000Y-68274250D01*
G75*
G02*
X160351250Y-68518000I-243750J0D01*
G01*
X159863750Y-68518000D01*
G75*
G02*
X159620000Y-68274250I0J243750D01*
G01*
G37*
G36*
G01*
X161495000Y-66242250D02*
X161495000Y-65329750D01*
G75*
G02*
X161738750Y-65086000I243750J0D01*
G01*
X162226250Y-65086000D01*
G75*
G02*
X162470000Y-65329750I0J-243750D01*
G01*
X162470000Y-66242250D01*
G75*
G02*
X162226250Y-66486000I-243750J0D01*
G01*
X161738750Y-66486000D01*
G75*
G02*
X161495000Y-66242250I0J243750D01*
G01*
G37*
G36*
G01*
X159620000Y-66242250D02*
X159620000Y-65329750D01*
G75*
G02*
X159863750Y-65086000I243750J0D01*
G01*
X160351250Y-65086000D01*
G75*
G02*
X160595000Y-65329750I0J-243750D01*
G01*
X160595000Y-66242250D01*
G75*
G02*
X160351250Y-66486000I-243750J0D01*
G01*
X159863750Y-66486000D01*
G75*
G02*
X159620000Y-66242250I0J243750D01*
G01*
G37*
G36*
G01*
X172468250Y-93743000D02*
X171955750Y-93743000D01*
G75*
G02*
X171737000Y-93524250I0J218750D01*
G01*
X171737000Y-93086750D01*
G75*
G02*
X171955750Y-92868000I218750J0D01*
G01*
X172468250Y-92868000D01*
G75*
G02*
X172687000Y-93086750I0J-218750D01*
G01*
X172687000Y-93524250D01*
G75*
G02*
X172468250Y-93743000I-218750J0D01*
G01*
G37*
G36*
G01*
X172468250Y-95318000D02*
X171955750Y-95318000D01*
G75*
G02*
X171737000Y-95099250I0J218750D01*
G01*
X171737000Y-94661750D01*
G75*
G02*
X171955750Y-94443000I218750J0D01*
G01*
X172468250Y-94443000D01*
G75*
G02*
X172687000Y-94661750I0J-218750D01*
G01*
X172687000Y-95099250D01*
G75*
G02*
X172468250Y-95318000I-218750J0D01*
G01*
G37*
G36*
G01*
X173733750Y-94443000D02*
X174246250Y-94443000D01*
G75*
G02*
X174465000Y-94661750I0J-218750D01*
G01*
X174465000Y-95099250D01*
G75*
G02*
X174246250Y-95318000I-218750J0D01*
G01*
X173733750Y-95318000D01*
G75*
G02*
X173515000Y-95099250I0J218750D01*
G01*
X173515000Y-94661750D01*
G75*
G02*
X173733750Y-94443000I218750J0D01*
G01*
G37*
G36*
G01*
X173733750Y-92868000D02*
X174246250Y-92868000D01*
G75*
G02*
X174465000Y-93086750I0J-218750D01*
G01*
X174465000Y-93524250D01*
G75*
G02*
X174246250Y-93743000I-218750J0D01*
G01*
X173733750Y-93743000D01*
G75*
G02*
X173515000Y-93524250I0J218750D01*
G01*
X173515000Y-93086750D01*
G75*
G02*
X173733750Y-92868000I218750J0D01*
G01*
G37*
G36*
G01*
X176024250Y-93743000D02*
X175511750Y-93743000D01*
G75*
G02*
X175293000Y-93524250I0J218750D01*
G01*
X175293000Y-93086750D01*
G75*
G02*
X175511750Y-92868000I218750J0D01*
G01*
X176024250Y-92868000D01*
G75*
G02*
X176243000Y-93086750I0J-218750D01*
G01*
X176243000Y-93524250D01*
G75*
G02*
X176024250Y-93743000I-218750J0D01*
G01*
G37*
G36*
G01*
X176024250Y-95318000D02*
X175511750Y-95318000D01*
G75*
G02*
X175293000Y-95099250I0J218750D01*
G01*
X175293000Y-94661750D01*
G75*
G02*
X175511750Y-94443000I218750J0D01*
G01*
X176024250Y-94443000D01*
G75*
G02*
X176243000Y-94661750I0J-218750D01*
G01*
X176243000Y-95099250D01*
G75*
G02*
X176024250Y-95318000I-218750J0D01*
G01*
G37*
G36*
G01*
X164843750Y-94443000D02*
X165356250Y-94443000D01*
G75*
G02*
X165575000Y-94661750I0J-218750D01*
G01*
X165575000Y-95099250D01*
G75*
G02*
X165356250Y-95318000I-218750J0D01*
G01*
X164843750Y-95318000D01*
G75*
G02*
X164625000Y-95099250I0J218750D01*
G01*
X164625000Y-94661750D01*
G75*
G02*
X164843750Y-94443000I218750J0D01*
G01*
G37*
G36*
G01*
X164843750Y-92868000D02*
X165356250Y-92868000D01*
G75*
G02*
X165575000Y-93086750I0J-218750D01*
G01*
X165575000Y-93524250D01*
G75*
G02*
X165356250Y-93743000I-218750J0D01*
G01*
X164843750Y-93743000D01*
G75*
G02*
X164625000Y-93524250I0J218750D01*
G01*
X164625000Y-93086750D01*
G75*
G02*
X164843750Y-92868000I218750J0D01*
G01*
G37*
G36*
G01*
X166621750Y-94443000D02*
X167134250Y-94443000D01*
G75*
G02*
X167353000Y-94661750I0J-218750D01*
G01*
X167353000Y-95099250D01*
G75*
G02*
X167134250Y-95318000I-218750J0D01*
G01*
X166621750Y-95318000D01*
G75*
G02*
X166403000Y-95099250I0J218750D01*
G01*
X166403000Y-94661750D01*
G75*
G02*
X166621750Y-94443000I218750J0D01*
G01*
G37*
G36*
G01*
X166621750Y-92868000D02*
X167134250Y-92868000D01*
G75*
G02*
X167353000Y-93086750I0J-218750D01*
G01*
X167353000Y-93524250D01*
G75*
G02*
X167134250Y-93743000I-218750J0D01*
G01*
X166621750Y-93743000D01*
G75*
G02*
X166403000Y-93524250I0J218750D01*
G01*
X166403000Y-93086750D01*
G75*
G02*
X166621750Y-92868000I218750J0D01*
G01*
G37*
G36*
G01*
X168912250Y-93743000D02*
X168399750Y-93743000D01*
G75*
G02*
X168181000Y-93524250I0J218750D01*
G01*
X168181000Y-93086750D01*
G75*
G02*
X168399750Y-92868000I218750J0D01*
G01*
X168912250Y-92868000D01*
G75*
G02*
X169131000Y-93086750I0J-218750D01*
G01*
X169131000Y-93524250D01*
G75*
G02*
X168912250Y-93743000I-218750J0D01*
G01*
G37*
G36*
G01*
X168912250Y-95318000D02*
X168399750Y-95318000D01*
G75*
G02*
X168181000Y-95099250I0J218750D01*
G01*
X168181000Y-94661750D01*
G75*
G02*
X168399750Y-94443000I218750J0D01*
G01*
X168912250Y-94443000D01*
G75*
G02*
X169131000Y-94661750I0J-218750D01*
G01*
X169131000Y-95099250D01*
G75*
G02*
X168912250Y-95318000I-218750J0D01*
G01*
G37*
G36*
G01*
X170177750Y-94443000D02*
X170690250Y-94443000D01*
G75*
G02*
X170909000Y-94661750I0J-218750D01*
G01*
X170909000Y-95099250D01*
G75*
G02*
X170690250Y-95318000I-218750J0D01*
G01*
X170177750Y-95318000D01*
G75*
G02*
X169959000Y-95099250I0J218750D01*
G01*
X169959000Y-94661750D01*
G75*
G02*
X170177750Y-94443000I218750J0D01*
G01*
G37*
G36*
G01*
X170177750Y-92868000D02*
X170690250Y-92868000D01*
G75*
G02*
X170909000Y-93086750I0J-218750D01*
G01*
X170909000Y-93524250D01*
G75*
G02*
X170690250Y-93743000I-218750J0D01*
G01*
X170177750Y-93743000D01*
G75*
G02*
X169959000Y-93524250I0J218750D01*
G01*
X169959000Y-93086750D01*
G75*
G02*
X170177750Y-92868000I218750J0D01*
G01*
G37*
D11*
X108204000Y-66802000D03*
X108204000Y-102108000D03*
X177800000Y-102108000D03*
X177800000Y-66802000D03*
D12*
X176784000Y-78034000D03*
D13*
X176784000Y-81534000D03*
D14*
X109728000Y-88312000D03*
X109728000Y-83312000D03*
D15*
X109728000Y-78312000D03*
D14*
X144954000Y-100584000D03*
D15*
X139954000Y-100584000D03*
D12*
X167782000Y-101092000D03*
X164282000Y-101092000D03*
D13*
X160782000Y-101092000D03*
D16*
X133604000Y-78994000D03*
D12*
X146304000Y-78994000D03*
X149860000Y-93726000D03*
D16*
X149860000Y-81026000D03*
G36*
G01*
X167362000Y-83335000D02*
X167362000Y-83035000D01*
G75*
G02*
X167512000Y-82885000I150000J0D01*
G01*
X169162000Y-82885000D01*
G75*
G02*
X169312000Y-83035000I0J-150000D01*
G01*
X169312000Y-83335000D01*
G75*
G02*
X169162000Y-83485000I-150000J0D01*
G01*
X167512000Y-83485000D01*
G75*
G02*
X167362000Y-83335000I0J150000D01*
G01*
G37*
G36*
G01*
X167362000Y-84605000D02*
X167362000Y-84305000D01*
G75*
G02*
X167512000Y-84155000I150000J0D01*
G01*
X169162000Y-84155000D01*
G75*
G02*
X169312000Y-84305000I0J-150000D01*
G01*
X169312000Y-84605000D01*
G75*
G02*
X169162000Y-84755000I-150000J0D01*
G01*
X167512000Y-84755000D01*
G75*
G02*
X167362000Y-84605000I0J150000D01*
G01*
G37*
G36*
G01*
X167362000Y-85875000D02*
X167362000Y-85575000D01*
G75*
G02*
X167512000Y-85425000I150000J0D01*
G01*
X169162000Y-85425000D01*
G75*
G02*
X169312000Y-85575000I0J-150000D01*
G01*
X169312000Y-85875000D01*
G75*
G02*
X169162000Y-86025000I-150000J0D01*
G01*
X167512000Y-86025000D01*
G75*
G02*
X167362000Y-85875000I0J150000D01*
G01*
G37*
G36*
G01*
X167362000Y-87145000D02*
X167362000Y-86845000D01*
G75*
G02*
X167512000Y-86695000I150000J0D01*
G01*
X169162000Y-86695000D01*
G75*
G02*
X169312000Y-86845000I0J-150000D01*
G01*
X169312000Y-87145000D01*
G75*
G02*
X169162000Y-87295000I-150000J0D01*
G01*
X167512000Y-87295000D01*
G75*
G02*
X167362000Y-87145000I0J150000D01*
G01*
G37*
G36*
G01*
X162412000Y-87145000D02*
X162412000Y-86845000D01*
G75*
G02*
X162562000Y-86695000I150000J0D01*
G01*
X164212000Y-86695000D01*
G75*
G02*
X164362000Y-86845000I0J-150000D01*
G01*
X164362000Y-87145000D01*
G75*
G02*
X164212000Y-87295000I-150000J0D01*
G01*
X162562000Y-87295000D01*
G75*
G02*
X162412000Y-87145000I0J150000D01*
G01*
G37*
G36*
G01*
X162412000Y-85875000D02*
X162412000Y-85575000D01*
G75*
G02*
X162562000Y-85425000I150000J0D01*
G01*
X164212000Y-85425000D01*
G75*
G02*
X164362000Y-85575000I0J-150000D01*
G01*
X164362000Y-85875000D01*
G75*
G02*
X164212000Y-86025000I-150000J0D01*
G01*
X162562000Y-86025000D01*
G75*
G02*
X162412000Y-85875000I0J150000D01*
G01*
G37*
G36*
G01*
X162412000Y-84605000D02*
X162412000Y-84305000D01*
G75*
G02*
X162562000Y-84155000I150000J0D01*
G01*
X164212000Y-84155000D01*
G75*
G02*
X164362000Y-84305000I0J-150000D01*
G01*
X164362000Y-84605000D01*
G75*
G02*
X164212000Y-84755000I-150000J0D01*
G01*
X162562000Y-84755000D01*
G75*
G02*
X162412000Y-84605000I0J150000D01*
G01*
G37*
G36*
G01*
X162412000Y-83335000D02*
X162412000Y-83035000D01*
G75*
G02*
X162562000Y-82885000I150000J0D01*
G01*
X164212000Y-82885000D01*
G75*
G02*
X164362000Y-83035000I0J-150000D01*
G01*
X164362000Y-83335000D01*
G75*
G02*
X164212000Y-83485000I-150000J0D01*
G01*
X162562000Y-83485000D01*
G75*
G02*
X162412000Y-83335000I0J150000D01*
G01*
G37*
D17*
X162560000Y-74128000D03*
X162560000Y-71628000D03*
X169418000Y-74128000D03*
X169418000Y-71628000D03*
D18*
X139648000Y-69882000D03*
D19*
X141348000Y-64802000D03*
X143048000Y-69882000D03*
X144748000Y-64802000D03*
X146448000Y-69882000D03*
X148148000Y-64802000D03*
X149848000Y-69882000D03*
X151548000Y-64802000D03*
X153248000Y-69882000D03*
X154948000Y-64802000D03*
X156648000Y-69882000D03*
D20*
X128016000Y-65532000D03*
D17*
X128016000Y-63532000D03*
D20*
X164084000Y-79248000D03*
D17*
X162084000Y-79248000D03*
D20*
X169672000Y-79248000D03*
D17*
X167672000Y-79248000D03*
X134620000Y-63500000D03*
D20*
X134620000Y-65500000D03*
D17*
X134620000Y-69120000D03*
D20*
X134620000Y-71120000D03*
D12*
X123190000Y-71240000D03*
D13*
X123190000Y-78740000D03*
D12*
X123190000Y-88004000D03*
D13*
X123190000Y-95504000D03*
D17*
X146478000Y-75184000D03*
X141478000Y-75184000D03*
M02*
