G04 #@! TF.GenerationSoftware,KiCad,Pcbnew,5.1.9*
G04 #@! TF.CreationDate,2021-04-19T03:57:35-04:00*
G04 #@! TF.ProjectId,lm3886_amp_balanced_input,6c6d3338-3836-45f6-916d-705f62616c61,rev?*
G04 #@! TF.SameCoordinates,Original*
G04 #@! TF.FileFunction,Copper,L2,Bot*
G04 #@! TF.FilePolarity,Positive*
%FSLAX46Y46*%
G04 Gerber Fmt 4.6, Leading zero omitted, Abs format (unit mm)*
G04 Created by KiCad (PCBNEW 5.1.9) date 2021-04-19 03:57:35*
%MOMM*%
%LPD*%
G01*
G04 APERTURE LIST*
G04 #@! TA.AperFunction,EtchedComponent*
%ADD10C,0.100000*%
G04 #@! TD*
G04 #@! TA.AperFunction,ComponentPad*
%ADD11C,2.500000*%
G04 #@! TD*
G04 #@! TA.AperFunction,ComponentPad*
%ADD12C,2.400000*%
G04 #@! TD*
G04 #@! TA.AperFunction,ComponentPad*
%ADD13R,2.400000X2.400000*%
G04 #@! TD*
G04 #@! TA.AperFunction,ComponentPad*
%ADD14C,2.600000*%
G04 #@! TD*
G04 #@! TA.AperFunction,ComponentPad*
%ADD15R,2.600000X2.600000*%
G04 #@! TD*
G04 #@! TA.AperFunction,ComponentPad*
%ADD16O,2.400000X2.400000*%
G04 #@! TD*
G04 #@! TA.AperFunction,ComponentPad*
%ADD17C,1.600000*%
G04 #@! TD*
G04 #@! TA.AperFunction,ComponentPad*
%ADD18R,2.000000X2.000000*%
G04 #@! TD*
G04 #@! TA.AperFunction,ComponentPad*
%ADD19C,2.000000*%
G04 #@! TD*
G04 #@! TA.AperFunction,ComponentPad*
%ADD20R,1.600000X1.600000*%
G04 #@! TD*
G04 #@! TA.AperFunction,SMDPad,CuDef*
%ADD21C,2.000000*%
G04 #@! TD*
G04 #@! TA.AperFunction,ViaPad*
%ADD22C,0.800000*%
G04 #@! TD*
G04 #@! TA.AperFunction,Conductor*
%ADD23C,2.000000*%
G04 #@! TD*
G04 #@! TA.AperFunction,Conductor*
%ADD24C,1.250000*%
G04 #@! TD*
G04 #@! TA.AperFunction,Conductor*
%ADD25C,0.250000*%
G04 #@! TD*
G04 #@! TA.AperFunction,Conductor*
%ADD26C,0.800000*%
G04 #@! TD*
G04 #@! TA.AperFunction,Conductor*
%ADD27C,0.600000*%
G04 #@! TD*
G04 #@! TA.AperFunction,Conductor*
%ADD28C,0.254000*%
G04 #@! TD*
G04 #@! TA.AperFunction,Conductor*
%ADD29C,0.100000*%
G04 #@! TD*
G04 APERTURE END LIST*
D10*
G36*
X153940000Y-76708000D02*
G01*
X153940000Y-80708000D01*
X155940000Y-80708000D01*
X155940000Y-76708000D01*
X153940000Y-76708000D01*
G37*
D11*
X139954000Y-93726000D03*
X139954000Y-83566000D03*
G04 #@! TA.AperFunction,SMDPad,CuDef*
G36*
G01*
X125926000Y-62940250D02*
X125926000Y-62027750D01*
G75*
G02*
X126169750Y-61784000I243750J0D01*
G01*
X126657250Y-61784000D01*
G75*
G02*
X126901000Y-62027750I0J-243750D01*
G01*
X126901000Y-62940250D01*
G75*
G02*
X126657250Y-63184000I-243750J0D01*
G01*
X126169750Y-63184000D01*
G75*
G02*
X125926000Y-62940250I0J243750D01*
G01*
G37*
G04 #@! TD.AperFunction*
G04 #@! TA.AperFunction,SMDPad,CuDef*
G36*
G01*
X124051000Y-62940250D02*
X124051000Y-62027750D01*
G75*
G02*
X124294750Y-61784000I243750J0D01*
G01*
X124782250Y-61784000D01*
G75*
G02*
X125026000Y-62027750I0J-243750D01*
G01*
X125026000Y-62940250D01*
G75*
G02*
X124782250Y-63184000I-243750J0D01*
G01*
X124294750Y-63184000D01*
G75*
G02*
X124051000Y-62940250I0J243750D01*
G01*
G37*
G04 #@! TD.AperFunction*
G04 #@! TA.AperFunction,SMDPad,CuDef*
G36*
G01*
X144158000Y-63109000D02*
X144158000Y-61859000D01*
G75*
G02*
X144408000Y-61609000I250000J0D01*
G01*
X145158000Y-61609000D01*
G75*
G02*
X145408000Y-61859000I0J-250000D01*
G01*
X145408000Y-63109000D01*
G75*
G02*
X145158000Y-63359000I-250000J0D01*
G01*
X144408000Y-63359000D01*
G75*
G02*
X144158000Y-63109000I0J250000D01*
G01*
G37*
G04 #@! TD.AperFunction*
G04 #@! TA.AperFunction,SMDPad,CuDef*
G36*
G01*
X141358000Y-63109000D02*
X141358000Y-61859000D01*
G75*
G02*
X141608000Y-61609000I250000J0D01*
G01*
X142358000Y-61609000D01*
G75*
G02*
X142608000Y-61859000I0J-250000D01*
G01*
X142608000Y-63109000D01*
G75*
G02*
X142358000Y-63359000I-250000J0D01*
G01*
X141608000Y-63359000D01*
G75*
G02*
X141358000Y-63109000I0J250000D01*
G01*
G37*
G04 #@! TD.AperFunction*
G04 #@! TA.AperFunction,SMDPad,CuDef*
G36*
G01*
X137528000Y-71765000D02*
X137528000Y-73015000D01*
G75*
G02*
X137278000Y-73265000I-250000J0D01*
G01*
X136528000Y-73265000D01*
G75*
G02*
X136278000Y-73015000I0J250000D01*
G01*
X136278000Y-71765000D01*
G75*
G02*
X136528000Y-71515000I250000J0D01*
G01*
X137278000Y-71515000D01*
G75*
G02*
X137528000Y-71765000I0J-250000D01*
G01*
G37*
G04 #@! TD.AperFunction*
G04 #@! TA.AperFunction,SMDPad,CuDef*
G36*
G01*
X140328000Y-71765000D02*
X140328000Y-73015000D01*
G75*
G02*
X140078000Y-73265000I-250000J0D01*
G01*
X139328000Y-73265000D01*
G75*
G02*
X139078000Y-73015000I0J250000D01*
G01*
X139078000Y-71765000D01*
G75*
G02*
X139328000Y-71515000I250000J0D01*
G01*
X140078000Y-71515000D01*
G75*
G02*
X140328000Y-71765000I0J-250000D01*
G01*
G37*
G04 #@! TD.AperFunction*
D12*
X176784000Y-78034000D03*
D13*
X176784000Y-81534000D03*
D14*
X109728000Y-88312000D03*
X109728000Y-83312000D03*
D15*
X109728000Y-78312000D03*
D14*
X144954000Y-100584000D03*
D15*
X139954000Y-100584000D03*
D12*
X167782000Y-101092000D03*
X164282000Y-101092000D03*
D13*
X160782000Y-101092000D03*
D16*
X133604000Y-78994000D03*
D12*
X146304000Y-78994000D03*
X149860000Y-93726000D03*
D16*
X149860000Y-81026000D03*
D17*
X162560000Y-74128000D03*
X162560000Y-71628000D03*
X169418000Y-74128000D03*
X169418000Y-71628000D03*
D18*
X139648000Y-69882000D03*
D19*
X141348000Y-64802000D03*
X143048000Y-69882000D03*
X144748000Y-64802000D03*
X146448000Y-69882000D03*
X148148000Y-64802000D03*
X149848000Y-69882000D03*
X151548000Y-64802000D03*
X153248000Y-69882000D03*
X154948000Y-64802000D03*
X156648000Y-69882000D03*
D20*
X128016000Y-65532000D03*
D17*
X128016000Y-63532000D03*
D21*
X154940000Y-80708000D03*
X154940000Y-76708000D03*
D20*
X164084000Y-79248000D03*
D17*
X162084000Y-79248000D03*
D20*
X169672000Y-79248000D03*
D17*
X167672000Y-79248000D03*
X134620000Y-63500000D03*
D20*
X134620000Y-65500000D03*
D17*
X134620000Y-69120000D03*
D20*
X134620000Y-71120000D03*
D12*
X123190000Y-71240000D03*
D13*
X123190000Y-78740000D03*
D12*
X123190000Y-88004000D03*
D13*
X123190000Y-95504000D03*
D17*
X146478000Y-75184000D03*
X141478000Y-75184000D03*
D22*
X169545000Y-96393000D03*
X175768000Y-91948000D03*
X164592000Y-98044000D03*
X167386000Y-98044000D03*
X167386000Y-88392000D03*
X164592000Y-88392000D03*
X167640000Y-91440000D03*
X164338000Y-91440000D03*
X164592000Y-75692000D03*
X164592000Y-76962000D03*
X167386000Y-75692000D03*
X167386000Y-76962000D03*
X156464000Y-72390000D03*
X159512000Y-70104000D03*
X164084000Y-69596000D03*
X158750000Y-75184000D03*
X158750000Y-78232000D03*
X158750000Y-81280000D03*
X158750000Y-84582000D03*
X158750000Y-87884000D03*
X158750000Y-91694000D03*
X158750000Y-95250000D03*
X161544000Y-93472000D03*
X161544000Y-76454000D03*
X165862000Y-85090000D03*
X150368000Y-61976000D03*
X157480000Y-61976000D03*
X165862000Y-61976000D03*
X173228000Y-61976000D03*
X180086000Y-74168000D03*
X180086000Y-79756000D03*
X180086000Y-86106000D03*
X180086000Y-91948000D03*
X180086000Y-98552000D03*
X174244000Y-104394000D03*
X167640000Y-104394000D03*
X173228000Y-99060000D03*
X175260000Y-87884000D03*
X173228000Y-79756000D03*
X174752000Y-79756000D03*
X173228000Y-76200000D03*
X174752000Y-76200000D03*
X173228000Y-83566000D03*
X174752000Y-83566000D03*
X175768000Y-71882000D03*
X171704000Y-67564000D03*
X150876000Y-67056000D03*
X122936000Y-62484000D03*
X154178000Y-75946000D03*
X155702000Y-77470000D03*
X154178000Y-77470000D03*
X154940000Y-77470000D03*
X154940000Y-75946000D03*
X154178000Y-76708000D03*
X155702000Y-76708000D03*
X154940000Y-76708000D03*
X154178000Y-75184000D03*
X154940000Y-75184000D03*
X155702000Y-75184000D03*
X153416000Y-75184000D03*
X153416000Y-75946000D03*
X153416000Y-76708000D03*
X153416000Y-77470000D03*
X156464000Y-77470000D03*
X156464000Y-76708000D03*
X156464000Y-75946000D03*
X156464000Y-75184000D03*
X155702000Y-75946000D03*
X165010001Y-89916000D03*
X166910011Y-89916000D03*
X161036000Y-86995000D03*
X161798000Y-86995000D03*
D23*
X152485999Y-79248000D02*
X157648001Y-79248000D01*
X154940000Y-80708000D02*
X153226000Y-80708000D01*
X154940000Y-80708000D02*
X156908000Y-80708000D01*
X154940000Y-80708000D02*
X154940000Y-82550000D01*
D24*
X139703000Y-69937000D02*
X139648000Y-69882000D01*
X139703000Y-72390000D02*
X139703000Y-69937000D01*
X144783000Y-64767000D02*
X144748000Y-64802000D01*
X144783000Y-62484000D02*
X144783000Y-64767000D01*
D25*
X124538500Y-62484000D02*
X122936000Y-62484000D01*
X127461500Y-63532000D02*
X126413500Y-62484000D01*
X128016000Y-63532000D02*
X127461500Y-63532000D01*
X130264010Y-61283990D02*
X148029990Y-61283990D01*
X148029990Y-61283990D02*
X151548000Y-64802000D01*
X128016000Y-63532000D02*
X130264010Y-61283990D01*
D26*
X153416000Y-75184000D02*
X156464000Y-75184000D01*
X156464000Y-75184000D02*
X156464000Y-77470000D01*
X156464000Y-77470000D02*
X153416000Y-77470000D01*
X153416000Y-77470000D02*
X153416000Y-75184000D01*
X153416000Y-75946000D02*
X156464000Y-75946000D01*
X153416000Y-76708000D02*
X156464000Y-76708000D01*
D25*
X165010001Y-89916000D02*
X166910011Y-89916000D01*
D27*
X162084000Y-86709000D02*
X161798000Y-86995000D01*
X162084000Y-80931000D02*
X162084000Y-86709000D01*
X162084000Y-79248000D02*
X162084000Y-80931000D01*
X176784000Y-81534000D02*
X163869998Y-81534000D01*
X163869998Y-81534000D02*
X163266998Y-80931000D01*
X163266998Y-80931000D02*
X162084000Y-80931000D01*
D28*
X123671208Y-61404208D02*
X123561542Y-61537836D01*
X123514535Y-61625781D01*
X123426256Y-61566795D01*
X123237898Y-61488774D01*
X123037939Y-61449000D01*
X122834061Y-61449000D01*
X122634102Y-61488774D01*
X122445744Y-61566795D01*
X122276226Y-61680063D01*
X122132063Y-61824226D01*
X122018795Y-61993744D01*
X121940774Y-62182102D01*
X121901000Y-62382061D01*
X121901000Y-62585939D01*
X121940774Y-62785898D01*
X122018795Y-62974256D01*
X122132063Y-63143774D01*
X122276226Y-63287937D01*
X122445744Y-63401205D01*
X122634102Y-63479226D01*
X122834061Y-63519000D01*
X123037939Y-63519000D01*
X123237898Y-63479226D01*
X123426256Y-63401205D01*
X123514535Y-63342219D01*
X123561542Y-63430164D01*
X123671208Y-63563792D01*
X123804836Y-63673458D01*
X123957291Y-63754947D01*
X124122715Y-63805128D01*
X124294750Y-63822072D01*
X124782250Y-63822072D01*
X124954285Y-63805128D01*
X125119709Y-63754947D01*
X125272164Y-63673458D01*
X125405792Y-63563792D01*
X125476000Y-63478244D01*
X125546208Y-63563792D01*
X125679836Y-63673458D01*
X125832291Y-63754947D01*
X125997715Y-63805128D01*
X126169750Y-63822072D01*
X126610586Y-63822072D01*
X126636147Y-63950574D01*
X126744320Y-64211727D01*
X126781393Y-64267210D01*
X126764815Y-64280815D01*
X126685463Y-64377506D01*
X126626498Y-64487820D01*
X126590188Y-64607518D01*
X126577928Y-64732000D01*
X126581000Y-65246250D01*
X126739750Y-65405000D01*
X127889000Y-65405000D01*
X127889000Y-65385000D01*
X128143000Y-65385000D01*
X128143000Y-65405000D01*
X129292250Y-65405000D01*
X129451000Y-65246250D01*
X129454072Y-64732000D01*
X129450921Y-64700000D01*
X133181928Y-64700000D01*
X133185000Y-65214250D01*
X133343750Y-65373000D01*
X134493000Y-65373000D01*
X134493000Y-65353000D01*
X134747000Y-65353000D01*
X134747000Y-65373000D01*
X135896250Y-65373000D01*
X136055000Y-65214250D01*
X136058072Y-64700000D01*
X136052258Y-64640967D01*
X139713000Y-64640967D01*
X139713000Y-64963033D01*
X139775832Y-65278912D01*
X139899082Y-65576463D01*
X140078013Y-65844252D01*
X140305748Y-66071987D01*
X140573537Y-66250918D01*
X140871088Y-66374168D01*
X141186967Y-66437000D01*
X141509033Y-66437000D01*
X141824912Y-66374168D01*
X142122463Y-66250918D01*
X142390252Y-66071987D01*
X142617987Y-65844252D01*
X142796918Y-65576463D01*
X142920168Y-65278912D01*
X142983000Y-64963033D01*
X142983000Y-64640967D01*
X142920168Y-64325088D01*
X142796918Y-64027537D01*
X142762322Y-63975760D01*
X142852180Y-63948502D01*
X142962494Y-63889537D01*
X143059185Y-63810185D01*
X143138537Y-63713494D01*
X143197502Y-63603180D01*
X143233812Y-63483482D01*
X143246072Y-63359000D01*
X143243000Y-62769750D01*
X143084250Y-62611000D01*
X142110000Y-62611000D01*
X142110000Y-62631000D01*
X141856000Y-62631000D01*
X141856000Y-62611000D01*
X140881750Y-62611000D01*
X140723000Y-62769750D01*
X140720276Y-63292301D01*
X140573537Y-63353082D01*
X140305748Y-63532013D01*
X140078013Y-63759748D01*
X139899082Y-64027537D01*
X139775832Y-64325088D01*
X139713000Y-64640967D01*
X136052258Y-64640967D01*
X136045812Y-64575518D01*
X136009502Y-64455820D01*
X135950537Y-64345506D01*
X135871185Y-64248815D01*
X135854607Y-64235210D01*
X135891680Y-64179727D01*
X135999853Y-63918574D01*
X136055000Y-63641335D01*
X136055000Y-63358665D01*
X135999853Y-63081426D01*
X135891680Y-62820273D01*
X135734637Y-62585241D01*
X135534759Y-62385363D01*
X135299727Y-62228320D01*
X135038574Y-62120147D01*
X134761335Y-62065000D01*
X134478665Y-62065000D01*
X134201426Y-62120147D01*
X133940273Y-62228320D01*
X133705241Y-62385363D01*
X133505363Y-62585241D01*
X133348320Y-62820273D01*
X133240147Y-63081426D01*
X133185000Y-63358665D01*
X133185000Y-63641335D01*
X133240147Y-63918574D01*
X133348320Y-64179727D01*
X133385393Y-64235210D01*
X133368815Y-64248815D01*
X133289463Y-64345506D01*
X133230498Y-64455820D01*
X133194188Y-64575518D01*
X133181928Y-64700000D01*
X129450921Y-64700000D01*
X129441812Y-64607518D01*
X129405502Y-64487820D01*
X129346537Y-64377506D01*
X129267185Y-64280815D01*
X129250607Y-64267210D01*
X129287680Y-64211727D01*
X129395853Y-63950574D01*
X129451000Y-63673335D01*
X129451000Y-63390665D01*
X129414688Y-63208114D01*
X130578812Y-62043990D01*
X140722196Y-62043990D01*
X140723000Y-62198250D01*
X140881750Y-62357000D01*
X141856000Y-62357000D01*
X141856000Y-62337000D01*
X142110000Y-62337000D01*
X142110000Y-62357000D01*
X143084250Y-62357000D01*
X143243000Y-62198250D01*
X143243804Y-62043990D01*
X143519928Y-62043990D01*
X143519928Y-63109000D01*
X143523000Y-63140194D01*
X143523001Y-63714760D01*
X143478013Y-63759748D01*
X143299082Y-64027537D01*
X143175832Y-64325088D01*
X143113000Y-64640967D01*
X143113000Y-64963033D01*
X143175832Y-65278912D01*
X143299082Y-65576463D01*
X143478013Y-65844252D01*
X143705748Y-66071987D01*
X143973537Y-66250918D01*
X144271088Y-66374168D01*
X144586967Y-66437000D01*
X144909033Y-66437000D01*
X145224912Y-66374168D01*
X145522463Y-66250918D01*
X145790252Y-66071987D01*
X146017987Y-65844252D01*
X146196918Y-65576463D01*
X146320168Y-65278912D01*
X146383000Y-64963033D01*
X146383000Y-64640967D01*
X146513000Y-64640967D01*
X146513000Y-64963033D01*
X146575832Y-65278912D01*
X146699082Y-65576463D01*
X146878013Y-65844252D01*
X147105748Y-66071987D01*
X147373537Y-66250918D01*
X147671088Y-66374168D01*
X147986967Y-66437000D01*
X148309033Y-66437000D01*
X148624912Y-66374168D01*
X148922463Y-66250918D01*
X149190252Y-66071987D01*
X149417987Y-65844252D01*
X149596918Y-65576463D01*
X149720168Y-65278912D01*
X149783000Y-64963033D01*
X149783000Y-64640967D01*
X149720168Y-64325088D01*
X149596918Y-64027537D01*
X149417987Y-63759748D01*
X149190252Y-63532013D01*
X148922463Y-63353082D01*
X148624912Y-63229832D01*
X148309033Y-63167000D01*
X147986967Y-63167000D01*
X147671088Y-63229832D01*
X147373537Y-63353082D01*
X147105748Y-63532013D01*
X146878013Y-63759748D01*
X146699082Y-64027537D01*
X146575832Y-64325088D01*
X146513000Y-64640967D01*
X146383000Y-64640967D01*
X146320168Y-64325088D01*
X146196918Y-64027537D01*
X146043000Y-63797183D01*
X146043000Y-63140191D01*
X146046072Y-63109000D01*
X146046072Y-62043990D01*
X147715189Y-62043990D01*
X149981823Y-64310625D01*
X149975832Y-64325088D01*
X149913000Y-64640967D01*
X149913000Y-64963033D01*
X149975832Y-65278912D01*
X150099082Y-65576463D01*
X150278013Y-65844252D01*
X150505748Y-66071987D01*
X150773537Y-66250918D01*
X151071088Y-66374168D01*
X151386967Y-66437000D01*
X151709033Y-66437000D01*
X152024912Y-66374168D01*
X152322463Y-66250918D01*
X152590252Y-66071987D01*
X152817987Y-65844252D01*
X152996918Y-65576463D01*
X153120168Y-65278912D01*
X153183000Y-64963033D01*
X153183000Y-64640967D01*
X153313000Y-64640967D01*
X153313000Y-64963033D01*
X153375832Y-65278912D01*
X153499082Y-65576463D01*
X153678013Y-65844252D01*
X153905748Y-66071987D01*
X154173537Y-66250918D01*
X154471088Y-66374168D01*
X154786967Y-66437000D01*
X155109033Y-66437000D01*
X155424912Y-66374168D01*
X155722463Y-66250918D01*
X155990252Y-66071987D01*
X156217987Y-65844252D01*
X156396918Y-65576463D01*
X156520168Y-65278912D01*
X156583000Y-64963033D01*
X156583000Y-64640967D01*
X156520168Y-64325088D01*
X156396918Y-64027537D01*
X156217987Y-63759748D01*
X155990252Y-63532013D01*
X155722463Y-63353082D01*
X155424912Y-63229832D01*
X155109033Y-63167000D01*
X154786967Y-63167000D01*
X154471088Y-63229832D01*
X154173537Y-63353082D01*
X153905748Y-63532013D01*
X153678013Y-63759748D01*
X153499082Y-64027537D01*
X153375832Y-64325088D01*
X153313000Y-64640967D01*
X153183000Y-64640967D01*
X153120168Y-64325088D01*
X152996918Y-64027537D01*
X152817987Y-63759748D01*
X152590252Y-63532013D01*
X152322463Y-63353082D01*
X152024912Y-63229832D01*
X151709033Y-63167000D01*
X151386967Y-63167000D01*
X151071088Y-63229832D01*
X151056625Y-63235823D01*
X149211801Y-61391000D01*
X180671000Y-61391000D01*
X180671001Y-104979000D01*
X105333000Y-104979000D01*
X105333000Y-101887872D01*
X105969000Y-101887872D01*
X105969000Y-102328128D01*
X106054890Y-102759925D01*
X106223369Y-103166669D01*
X106467962Y-103532729D01*
X106779271Y-103844038D01*
X107145331Y-104088631D01*
X107552075Y-104257110D01*
X107983872Y-104343000D01*
X108424128Y-104343000D01*
X108855925Y-104257110D01*
X109262669Y-104088631D01*
X109628729Y-103844038D01*
X109940038Y-103532729D01*
X110184631Y-103166669D01*
X110353110Y-102759925D01*
X110439000Y-102328128D01*
X110439000Y-101887872D01*
X110353110Y-101456075D01*
X110184631Y-101049331D01*
X109940038Y-100683271D01*
X109628729Y-100371962D01*
X109262669Y-100127369D01*
X108855925Y-99958890D01*
X108424128Y-99873000D01*
X107983872Y-99873000D01*
X107552075Y-99958890D01*
X107145331Y-100127369D01*
X106779271Y-100371962D01*
X106467962Y-100683271D01*
X106223369Y-101049331D01*
X106054890Y-101456075D01*
X105969000Y-101887872D01*
X105333000Y-101887872D01*
X105333000Y-99284000D01*
X138015928Y-99284000D01*
X138015928Y-101884000D01*
X138028188Y-102008482D01*
X138064498Y-102128180D01*
X138123463Y-102238494D01*
X138202815Y-102335185D01*
X138299506Y-102414537D01*
X138409820Y-102473502D01*
X138529518Y-102509812D01*
X138654000Y-102522072D01*
X141254000Y-102522072D01*
X141378482Y-102509812D01*
X141498180Y-102473502D01*
X141608494Y-102414537D01*
X141705185Y-102335185D01*
X141784537Y-102238494D01*
X141843502Y-102128180D01*
X141879812Y-102008482D01*
X141892072Y-101884000D01*
X141892072Y-100393419D01*
X143019000Y-100393419D01*
X143019000Y-100774581D01*
X143093361Y-101148419D01*
X143239225Y-101500566D01*
X143450987Y-101817491D01*
X143720509Y-102087013D01*
X144037434Y-102298775D01*
X144389581Y-102444639D01*
X144763419Y-102519000D01*
X145144581Y-102519000D01*
X145518419Y-102444639D01*
X145870566Y-102298775D01*
X145880705Y-102292000D01*
X158943928Y-102292000D01*
X158956188Y-102416482D01*
X158992498Y-102536180D01*
X159051463Y-102646494D01*
X159130815Y-102743185D01*
X159227506Y-102822537D01*
X159337820Y-102881502D01*
X159457518Y-102917812D01*
X159582000Y-102930072D01*
X160496250Y-102927000D01*
X160655000Y-102768250D01*
X160655000Y-101219000D01*
X159105750Y-101219000D01*
X158947000Y-101377750D01*
X158943928Y-102292000D01*
X145880705Y-102292000D01*
X146187491Y-102087013D01*
X146457013Y-101817491D01*
X146668775Y-101500566D01*
X146814639Y-101148419D01*
X146889000Y-100774581D01*
X146889000Y-100393419D01*
X146814639Y-100019581D01*
X146761794Y-99892000D01*
X158943928Y-99892000D01*
X158947000Y-100806250D01*
X159105750Y-100965000D01*
X160655000Y-100965000D01*
X160655000Y-99415750D01*
X160909000Y-99415750D01*
X160909000Y-100965000D01*
X160929000Y-100965000D01*
X160929000Y-101219000D01*
X160909000Y-101219000D01*
X160909000Y-102768250D01*
X161067750Y-102927000D01*
X161982000Y-102930072D01*
X162106482Y-102917812D01*
X162226180Y-102881502D01*
X162336494Y-102822537D01*
X162433185Y-102743185D01*
X162512537Y-102646494D01*
X162571502Y-102536180D01*
X162607812Y-102416482D01*
X162620072Y-102292000D01*
X162618659Y-101871426D01*
X162655844Y-101961199D01*
X162856662Y-102261744D01*
X163112256Y-102517338D01*
X163412801Y-102718156D01*
X163746750Y-102856482D01*
X164101268Y-102927000D01*
X164462732Y-102927000D01*
X164817250Y-102856482D01*
X165151199Y-102718156D01*
X165451744Y-102517338D01*
X165707338Y-102261744D01*
X165908156Y-101961199D01*
X166032000Y-101662213D01*
X166155844Y-101961199D01*
X166356662Y-102261744D01*
X166612256Y-102517338D01*
X166912801Y-102718156D01*
X167246750Y-102856482D01*
X167601268Y-102927000D01*
X167962732Y-102927000D01*
X168317250Y-102856482D01*
X168651199Y-102718156D01*
X168951744Y-102517338D01*
X169207338Y-102261744D01*
X169408156Y-101961199D01*
X169438528Y-101887872D01*
X175565000Y-101887872D01*
X175565000Y-102328128D01*
X175650890Y-102759925D01*
X175819369Y-103166669D01*
X176063962Y-103532729D01*
X176375271Y-103844038D01*
X176741331Y-104088631D01*
X177148075Y-104257110D01*
X177579872Y-104343000D01*
X178020128Y-104343000D01*
X178451925Y-104257110D01*
X178858669Y-104088631D01*
X179224729Y-103844038D01*
X179536038Y-103532729D01*
X179780631Y-103166669D01*
X179949110Y-102759925D01*
X180035000Y-102328128D01*
X180035000Y-101887872D01*
X179949110Y-101456075D01*
X179780631Y-101049331D01*
X179536038Y-100683271D01*
X179224729Y-100371962D01*
X178858669Y-100127369D01*
X178451925Y-99958890D01*
X178020128Y-99873000D01*
X177579872Y-99873000D01*
X177148075Y-99958890D01*
X176741331Y-100127369D01*
X176375271Y-100371962D01*
X176063962Y-100683271D01*
X175819369Y-101049331D01*
X175650890Y-101456075D01*
X175565000Y-101887872D01*
X169438528Y-101887872D01*
X169546482Y-101627250D01*
X169617000Y-101272732D01*
X169617000Y-100911268D01*
X169546482Y-100556750D01*
X169408156Y-100222801D01*
X169207338Y-99922256D01*
X168951744Y-99666662D01*
X168651199Y-99465844D01*
X168317250Y-99327518D01*
X167962732Y-99257000D01*
X167601268Y-99257000D01*
X167246750Y-99327518D01*
X166912801Y-99465844D01*
X166612256Y-99666662D01*
X166356662Y-99922256D01*
X166155844Y-100222801D01*
X166032000Y-100521787D01*
X165908156Y-100222801D01*
X165707338Y-99922256D01*
X165451744Y-99666662D01*
X165151199Y-99465844D01*
X164817250Y-99327518D01*
X164462732Y-99257000D01*
X164101268Y-99257000D01*
X163746750Y-99327518D01*
X163412801Y-99465844D01*
X163112256Y-99666662D01*
X162856662Y-99922256D01*
X162655844Y-100222801D01*
X162618659Y-100312574D01*
X162620072Y-99892000D01*
X162607812Y-99767518D01*
X162571502Y-99647820D01*
X162512537Y-99537506D01*
X162433185Y-99440815D01*
X162336494Y-99361463D01*
X162226180Y-99302498D01*
X162106482Y-99266188D01*
X161982000Y-99253928D01*
X161067750Y-99257000D01*
X160909000Y-99415750D01*
X160655000Y-99415750D01*
X160496250Y-99257000D01*
X159582000Y-99253928D01*
X159457518Y-99266188D01*
X159337820Y-99302498D01*
X159227506Y-99361463D01*
X159130815Y-99440815D01*
X159051463Y-99537506D01*
X158992498Y-99647820D01*
X158956188Y-99767518D01*
X158943928Y-99892000D01*
X146761794Y-99892000D01*
X146668775Y-99667434D01*
X146457013Y-99350509D01*
X146187491Y-99080987D01*
X145870566Y-98869225D01*
X145518419Y-98723361D01*
X145144581Y-98649000D01*
X144763419Y-98649000D01*
X144389581Y-98723361D01*
X144037434Y-98869225D01*
X143720509Y-99080987D01*
X143450987Y-99350509D01*
X143239225Y-99667434D01*
X143093361Y-100019581D01*
X143019000Y-100393419D01*
X141892072Y-100393419D01*
X141892072Y-99284000D01*
X141879812Y-99159518D01*
X141843502Y-99039820D01*
X141784537Y-98929506D01*
X141705185Y-98832815D01*
X141608494Y-98753463D01*
X141498180Y-98694498D01*
X141378482Y-98658188D01*
X141254000Y-98645928D01*
X138654000Y-98645928D01*
X138529518Y-98658188D01*
X138409820Y-98694498D01*
X138299506Y-98753463D01*
X138202815Y-98832815D01*
X138123463Y-98929506D01*
X138064498Y-99039820D01*
X138028188Y-99159518D01*
X138015928Y-99284000D01*
X105333000Y-99284000D01*
X105333000Y-94304000D01*
X121351928Y-94304000D01*
X121351928Y-96704000D01*
X121364188Y-96828482D01*
X121400498Y-96948180D01*
X121459463Y-97058494D01*
X121538815Y-97155185D01*
X121635506Y-97234537D01*
X121745820Y-97293502D01*
X121865518Y-97329812D01*
X121990000Y-97342072D01*
X124390000Y-97342072D01*
X124514482Y-97329812D01*
X124634180Y-97293502D01*
X124744494Y-97234537D01*
X124841185Y-97155185D01*
X124920537Y-97058494D01*
X124979502Y-96948180D01*
X125015812Y-96828482D01*
X125028072Y-96704000D01*
X125028072Y-94304000D01*
X125015812Y-94179518D01*
X124979502Y-94059820D01*
X124920537Y-93949506D01*
X124841185Y-93852815D01*
X124744494Y-93773463D01*
X124634180Y-93714498D01*
X124514482Y-93678188D01*
X124390000Y-93665928D01*
X121990000Y-93665928D01*
X121865518Y-93678188D01*
X121745820Y-93714498D01*
X121635506Y-93773463D01*
X121538815Y-93852815D01*
X121459463Y-93949506D01*
X121400498Y-94059820D01*
X121364188Y-94179518D01*
X121351928Y-94304000D01*
X105333000Y-94304000D01*
X105333000Y-93540344D01*
X138069000Y-93540344D01*
X138069000Y-93911656D01*
X138141439Y-94275834D01*
X138283534Y-94618882D01*
X138489825Y-94927618D01*
X138752382Y-95190175D01*
X139061118Y-95396466D01*
X139404166Y-95538561D01*
X139768344Y-95611000D01*
X140139656Y-95611000D01*
X140503834Y-95538561D01*
X140846882Y-95396466D01*
X141155618Y-95190175D01*
X141418175Y-94927618D01*
X141624466Y-94618882D01*
X141766561Y-94275834D01*
X141839000Y-93911656D01*
X141839000Y-93545268D01*
X148025000Y-93545268D01*
X148025000Y-93906732D01*
X148095518Y-94261250D01*
X148233844Y-94595199D01*
X148434662Y-94895744D01*
X148690256Y-95151338D01*
X148990801Y-95352156D01*
X149324750Y-95490482D01*
X149679268Y-95561000D01*
X150040732Y-95561000D01*
X150395250Y-95490482D01*
X150729199Y-95352156D01*
X151029744Y-95151338D01*
X151285338Y-94895744D01*
X151486156Y-94595199D01*
X151624482Y-94261250D01*
X151695000Y-93906732D01*
X151695000Y-93545268D01*
X151624482Y-93190750D01*
X151486156Y-92856801D01*
X151285338Y-92556256D01*
X151029744Y-92300662D01*
X150729199Y-92099844D01*
X150395250Y-91961518D01*
X150040732Y-91891000D01*
X149679268Y-91891000D01*
X149324750Y-91961518D01*
X148990801Y-92099844D01*
X148690256Y-92300662D01*
X148434662Y-92556256D01*
X148233844Y-92856801D01*
X148095518Y-93190750D01*
X148025000Y-93545268D01*
X141839000Y-93545268D01*
X141839000Y-93540344D01*
X141766561Y-93176166D01*
X141624466Y-92833118D01*
X141418175Y-92524382D01*
X141155618Y-92261825D01*
X140846882Y-92055534D01*
X140503834Y-91913439D01*
X140139656Y-91841000D01*
X139768344Y-91841000D01*
X139404166Y-91913439D01*
X139061118Y-92055534D01*
X138752382Y-92261825D01*
X138489825Y-92524382D01*
X138283534Y-92833118D01*
X138141439Y-93176166D01*
X138069000Y-93540344D01*
X105333000Y-93540344D01*
X105333000Y-88121419D01*
X107793000Y-88121419D01*
X107793000Y-88502581D01*
X107867361Y-88876419D01*
X108013225Y-89228566D01*
X108224987Y-89545491D01*
X108494509Y-89815013D01*
X108811434Y-90026775D01*
X109163581Y-90172639D01*
X109537419Y-90247000D01*
X109918581Y-90247000D01*
X110292419Y-90172639D01*
X110644566Y-90026775D01*
X110961491Y-89815013D01*
X111231013Y-89545491D01*
X111407084Y-89281980D01*
X122091626Y-89281980D01*
X122211514Y-89566836D01*
X122535210Y-89727699D01*
X122884069Y-89822322D01*
X123244684Y-89847067D01*
X123501467Y-89814061D01*
X163975001Y-89814061D01*
X163975001Y-90017939D01*
X164014775Y-90217898D01*
X164092796Y-90406256D01*
X164206064Y-90575774D01*
X164350227Y-90719937D01*
X164519745Y-90833205D01*
X164708103Y-90911226D01*
X164908062Y-90951000D01*
X165111940Y-90951000D01*
X165311899Y-90911226D01*
X165500257Y-90833205D01*
X165669775Y-90719937D01*
X165713712Y-90676000D01*
X166206300Y-90676000D01*
X166250237Y-90719937D01*
X166419755Y-90833205D01*
X166608113Y-90911226D01*
X166808072Y-90951000D01*
X167011950Y-90951000D01*
X167211909Y-90911226D01*
X167400267Y-90833205D01*
X167569785Y-90719937D01*
X167713948Y-90575774D01*
X167827216Y-90406256D01*
X167905237Y-90217898D01*
X167945011Y-90017939D01*
X167945011Y-89814061D01*
X167905237Y-89614102D01*
X167827216Y-89425744D01*
X167713948Y-89256226D01*
X167569785Y-89112063D01*
X167400267Y-88998795D01*
X167211909Y-88920774D01*
X167011950Y-88881000D01*
X166808072Y-88881000D01*
X166608113Y-88920774D01*
X166419755Y-88998795D01*
X166250237Y-89112063D01*
X166206300Y-89156000D01*
X165713712Y-89156000D01*
X165669775Y-89112063D01*
X165500257Y-88998795D01*
X165311899Y-88920774D01*
X165111940Y-88881000D01*
X164908062Y-88881000D01*
X164708103Y-88920774D01*
X164519745Y-88998795D01*
X164350227Y-89112063D01*
X164206064Y-89256226D01*
X164092796Y-89425744D01*
X164014775Y-89614102D01*
X163975001Y-89814061D01*
X123501467Y-89814061D01*
X123603198Y-89800985D01*
X123945833Y-89685846D01*
X124168486Y-89566836D01*
X124288374Y-89281980D01*
X123190000Y-88183605D01*
X122091626Y-89281980D01*
X111407084Y-89281980D01*
X111442775Y-89228566D01*
X111588639Y-88876419D01*
X111663000Y-88502581D01*
X111663000Y-88121419D01*
X111650522Y-88058684D01*
X121346933Y-88058684D01*
X121393015Y-88417198D01*
X121508154Y-88759833D01*
X121627164Y-88982486D01*
X121912020Y-89102374D01*
X123010395Y-88004000D01*
X123369605Y-88004000D01*
X124467980Y-89102374D01*
X124752836Y-88982486D01*
X124913699Y-88658790D01*
X125008322Y-88309931D01*
X125033067Y-87949316D01*
X124986985Y-87590802D01*
X124871846Y-87248167D01*
X124752836Y-87025514D01*
X124467980Y-86905626D01*
X123369605Y-88004000D01*
X123010395Y-88004000D01*
X121912020Y-86905626D01*
X121627164Y-87025514D01*
X121466301Y-87349210D01*
X121371678Y-87698069D01*
X121346933Y-88058684D01*
X111650522Y-88058684D01*
X111588639Y-87747581D01*
X111442775Y-87395434D01*
X111231013Y-87078509D01*
X110961491Y-86808987D01*
X110837322Y-86726020D01*
X122091626Y-86726020D01*
X123190000Y-87824395D01*
X124121333Y-86893061D01*
X160001000Y-86893061D01*
X160001000Y-87096939D01*
X160040774Y-87296898D01*
X160118795Y-87485256D01*
X160232063Y-87654774D01*
X160376226Y-87798937D01*
X160545744Y-87912205D01*
X160734102Y-87990226D01*
X160934061Y-88030000D01*
X161137939Y-88030000D01*
X161233459Y-88011000D01*
X161600541Y-88011000D01*
X161696061Y-88030000D01*
X161899939Y-88030000D01*
X162099898Y-87990226D01*
X162288256Y-87912205D01*
X162457774Y-87798937D01*
X162601937Y-87654774D01*
X162715205Y-87485256D01*
X162775030Y-87340828D01*
X162865186Y-87230972D01*
X162952007Y-87068540D01*
X163005471Y-86892292D01*
X163019000Y-86754932D01*
X163023524Y-86709001D01*
X163019000Y-86663069D01*
X163019000Y-82005290D01*
X163176364Y-82162654D01*
X163205654Y-82198344D01*
X163348026Y-82315186D01*
X163510458Y-82402007D01*
X163582826Y-82423959D01*
X163686706Y-82455472D01*
X163869998Y-82473524D01*
X163915933Y-82469000D01*
X174945928Y-82469000D01*
X174945928Y-82734000D01*
X174958188Y-82858482D01*
X174994498Y-82978180D01*
X175053463Y-83088494D01*
X175132815Y-83185185D01*
X175229506Y-83264537D01*
X175339820Y-83323502D01*
X175459518Y-83359812D01*
X175584000Y-83372072D01*
X177984000Y-83372072D01*
X178108482Y-83359812D01*
X178228180Y-83323502D01*
X178338494Y-83264537D01*
X178435185Y-83185185D01*
X178514537Y-83088494D01*
X178573502Y-82978180D01*
X178609812Y-82858482D01*
X178622072Y-82734000D01*
X178622072Y-80334000D01*
X178609812Y-80209518D01*
X178573502Y-80089820D01*
X178514537Y-79979506D01*
X178435185Y-79882815D01*
X178338494Y-79803463D01*
X178228180Y-79744498D01*
X178108482Y-79708188D01*
X177984000Y-79695928D01*
X177566838Y-79695928D01*
X177653199Y-79660156D01*
X177953744Y-79459338D01*
X178209338Y-79203744D01*
X178410156Y-78903199D01*
X178548482Y-78569250D01*
X178619000Y-78214732D01*
X178619000Y-77853268D01*
X178548482Y-77498750D01*
X178410156Y-77164801D01*
X178209338Y-76864256D01*
X177953744Y-76608662D01*
X177653199Y-76407844D01*
X177319250Y-76269518D01*
X176964732Y-76199000D01*
X176603268Y-76199000D01*
X176248750Y-76269518D01*
X175914801Y-76407844D01*
X175614256Y-76608662D01*
X175358662Y-76864256D01*
X175157844Y-77164801D01*
X175019518Y-77498750D01*
X174949000Y-77853268D01*
X174949000Y-78214732D01*
X175019518Y-78569250D01*
X175157844Y-78903199D01*
X175358662Y-79203744D01*
X175614256Y-79459338D01*
X175914801Y-79660156D01*
X176001162Y-79695928D01*
X175584000Y-79695928D01*
X175459518Y-79708188D01*
X175339820Y-79744498D01*
X175229506Y-79803463D01*
X175132815Y-79882815D01*
X175053463Y-79979506D01*
X174994498Y-80089820D01*
X174958188Y-80209518D01*
X174945928Y-80334000D01*
X174945928Y-80599000D01*
X170788211Y-80599000D01*
X170826494Y-80578537D01*
X170923185Y-80499185D01*
X171002537Y-80402494D01*
X171061502Y-80292180D01*
X171097812Y-80172482D01*
X171110072Y-80048000D01*
X171110072Y-78448000D01*
X171097812Y-78323518D01*
X171061502Y-78203820D01*
X171002537Y-78093506D01*
X170923185Y-77996815D01*
X170826494Y-77917463D01*
X170716180Y-77858498D01*
X170596482Y-77822188D01*
X170472000Y-77809928D01*
X168872000Y-77809928D01*
X168747518Y-77822188D01*
X168627820Y-77858498D01*
X168517506Y-77917463D01*
X168420815Y-77996815D01*
X168410193Y-78009758D01*
X168158004Y-77890429D01*
X167883816Y-77821700D01*
X167601488Y-77807783D01*
X167321870Y-77849213D01*
X167055708Y-77944397D01*
X166930486Y-78011329D01*
X166858903Y-78255298D01*
X167672000Y-79068395D01*
X167686143Y-79054253D01*
X167865748Y-79233858D01*
X167851605Y-79248000D01*
X167865748Y-79262143D01*
X167686143Y-79441748D01*
X167672000Y-79427605D01*
X166858903Y-80240702D01*
X166930486Y-80484671D01*
X167172109Y-80599000D01*
X165200211Y-80599000D01*
X165238494Y-80578537D01*
X165335185Y-80499185D01*
X165414537Y-80402494D01*
X165473502Y-80292180D01*
X165509812Y-80172482D01*
X165522072Y-80048000D01*
X165519000Y-79533750D01*
X165360250Y-79375000D01*
X164211000Y-79375000D01*
X164211000Y-79395000D01*
X163957000Y-79395000D01*
X163957000Y-79375000D01*
X163937000Y-79375000D01*
X163937000Y-79318512D01*
X166231783Y-79318512D01*
X166273213Y-79598130D01*
X166368397Y-79864292D01*
X166435329Y-79989514D01*
X166679298Y-80061097D01*
X167492395Y-79248000D01*
X166679298Y-78434903D01*
X166435329Y-78506486D01*
X166314429Y-78761996D01*
X166245700Y-79036184D01*
X166231783Y-79318512D01*
X163937000Y-79318512D01*
X163937000Y-79121000D01*
X163957000Y-79121000D01*
X163957000Y-77971750D01*
X164211000Y-77971750D01*
X164211000Y-79121000D01*
X165360250Y-79121000D01*
X165519000Y-78962250D01*
X165522072Y-78448000D01*
X165509812Y-78323518D01*
X165473502Y-78203820D01*
X165414537Y-78093506D01*
X165335185Y-77996815D01*
X165238494Y-77917463D01*
X165128180Y-77858498D01*
X165008482Y-77822188D01*
X164884000Y-77809928D01*
X164369750Y-77813000D01*
X164211000Y-77971750D01*
X163957000Y-77971750D01*
X163798250Y-77813000D01*
X163284000Y-77809928D01*
X163159518Y-77822188D01*
X163039820Y-77858498D01*
X162929506Y-77917463D01*
X162832815Y-77996815D01*
X162819210Y-78013393D01*
X162763727Y-77976320D01*
X162502574Y-77868147D01*
X162225335Y-77813000D01*
X161942665Y-77813000D01*
X161665426Y-77868147D01*
X161404273Y-77976320D01*
X161169241Y-78133363D01*
X160969363Y-78333241D01*
X160812320Y-78568273D01*
X160704147Y-78829426D01*
X160649000Y-79106665D01*
X160649000Y-79389335D01*
X160704147Y-79666574D01*
X160812320Y-79927727D01*
X160969363Y-80162759D01*
X161149001Y-80342397D01*
X161149001Y-80885058D01*
X161144476Y-80931000D01*
X161149000Y-80976932D01*
X161149001Y-85962200D01*
X161137939Y-85960000D01*
X160934061Y-85960000D01*
X160734102Y-85999774D01*
X160545744Y-86077795D01*
X160376226Y-86191063D01*
X160232063Y-86335226D01*
X160118795Y-86504744D01*
X160040774Y-86693102D01*
X160001000Y-86893061D01*
X124121333Y-86893061D01*
X124288374Y-86726020D01*
X124168486Y-86441164D01*
X123844790Y-86280301D01*
X123495931Y-86185678D01*
X123135316Y-86160933D01*
X122776802Y-86207015D01*
X122434167Y-86322154D01*
X122211514Y-86441164D01*
X122091626Y-86726020D01*
X110837322Y-86726020D01*
X110644566Y-86597225D01*
X110292419Y-86451361D01*
X109918581Y-86377000D01*
X109537419Y-86377000D01*
X109163581Y-86451361D01*
X108811434Y-86597225D01*
X108494509Y-86808987D01*
X108224987Y-87078509D01*
X108013225Y-87395434D01*
X107867361Y-87747581D01*
X107793000Y-88121419D01*
X105333000Y-88121419D01*
X105333000Y-84661224D01*
X108558381Y-84661224D01*
X108690317Y-84956312D01*
X109031045Y-85127159D01*
X109398557Y-85228250D01*
X109778729Y-85255701D01*
X110156951Y-85208457D01*
X110518690Y-85088333D01*
X110765683Y-84956312D01*
X110897619Y-84661224D01*
X109728000Y-83491605D01*
X108558381Y-84661224D01*
X105333000Y-84661224D01*
X105333000Y-83362729D01*
X107784299Y-83362729D01*
X107831543Y-83740951D01*
X107951667Y-84102690D01*
X108083688Y-84349683D01*
X108378776Y-84481619D01*
X109548395Y-83312000D01*
X109907605Y-83312000D01*
X111077224Y-84481619D01*
X111372312Y-84349683D01*
X111543159Y-84008955D01*
X111644250Y-83641443D01*
X111663103Y-83380344D01*
X138069000Y-83380344D01*
X138069000Y-83751656D01*
X138141439Y-84115834D01*
X138283534Y-84458882D01*
X138489825Y-84767618D01*
X138752382Y-85030175D01*
X139061118Y-85236466D01*
X139404166Y-85378561D01*
X139768344Y-85451000D01*
X140139656Y-85451000D01*
X140503834Y-85378561D01*
X140846882Y-85236466D01*
X141155618Y-85030175D01*
X141418175Y-84767618D01*
X141624466Y-84458882D01*
X141766561Y-84115834D01*
X141839000Y-83751656D01*
X141839000Y-83380344D01*
X141766561Y-83016166D01*
X141624466Y-82673118D01*
X141418175Y-82364382D01*
X141155618Y-82101825D01*
X140846882Y-81895534D01*
X140503834Y-81753439D01*
X140139656Y-81681000D01*
X139768344Y-81681000D01*
X139404166Y-81753439D01*
X139061118Y-81895534D01*
X138752382Y-82101825D01*
X138489825Y-82364382D01*
X138283534Y-82673118D01*
X138141439Y-83016166D01*
X138069000Y-83380344D01*
X111663103Y-83380344D01*
X111671701Y-83261271D01*
X111624457Y-82883049D01*
X111504333Y-82521310D01*
X111372312Y-82274317D01*
X111077224Y-82142381D01*
X109907605Y-83312000D01*
X109548395Y-83312000D01*
X108378776Y-82142381D01*
X108083688Y-82274317D01*
X107912841Y-82615045D01*
X107811750Y-82982557D01*
X107784299Y-83362729D01*
X105333000Y-83362729D01*
X105333000Y-81962776D01*
X108558381Y-81962776D01*
X109728000Y-83132395D01*
X110897619Y-81962776D01*
X110765683Y-81667688D01*
X110424955Y-81496841D01*
X110057443Y-81395750D01*
X109677271Y-81368299D01*
X109299049Y-81415543D01*
X108937310Y-81535667D01*
X108690317Y-81667688D01*
X108558381Y-81962776D01*
X105333000Y-81962776D01*
X105333000Y-80845268D01*
X148025000Y-80845268D01*
X148025000Y-81206732D01*
X148095518Y-81561250D01*
X148233844Y-81895199D01*
X148434662Y-82195744D01*
X148690256Y-82451338D01*
X148990801Y-82652156D01*
X149324750Y-82790482D01*
X149679268Y-82861000D01*
X150040732Y-82861000D01*
X150395250Y-82790482D01*
X150729199Y-82652156D01*
X151029744Y-82451338D01*
X151285338Y-82195744D01*
X151486156Y-81895199D01*
X151624482Y-81561250D01*
X151695000Y-81206732D01*
X151695000Y-80845268D01*
X151624482Y-80490750D01*
X151486156Y-80156801D01*
X151285338Y-79856256D01*
X151029744Y-79600662D01*
X150729199Y-79399844D01*
X150395250Y-79261518D01*
X150040732Y-79191000D01*
X149679268Y-79191000D01*
X149324750Y-79261518D01*
X148990801Y-79399844D01*
X148690256Y-79600662D01*
X148434662Y-79856256D01*
X148233844Y-80156801D01*
X148095518Y-80490750D01*
X148025000Y-80845268D01*
X105333000Y-80845268D01*
X105333000Y-77012000D01*
X107789928Y-77012000D01*
X107789928Y-79612000D01*
X107802188Y-79736482D01*
X107838498Y-79856180D01*
X107897463Y-79966494D01*
X107976815Y-80063185D01*
X108073506Y-80142537D01*
X108183820Y-80201502D01*
X108303518Y-80237812D01*
X108428000Y-80250072D01*
X111028000Y-80250072D01*
X111152482Y-80237812D01*
X111272180Y-80201502D01*
X111382494Y-80142537D01*
X111479185Y-80063185D01*
X111558537Y-79966494D01*
X111572698Y-79940000D01*
X121351928Y-79940000D01*
X121364188Y-80064482D01*
X121400498Y-80184180D01*
X121459463Y-80294494D01*
X121538815Y-80391185D01*
X121635506Y-80470537D01*
X121745820Y-80529502D01*
X121865518Y-80565812D01*
X121990000Y-80578072D01*
X122904250Y-80575000D01*
X123063000Y-80416250D01*
X123063000Y-78867000D01*
X123317000Y-78867000D01*
X123317000Y-80416250D01*
X123475750Y-80575000D01*
X124390000Y-80578072D01*
X124514482Y-80565812D01*
X124634180Y-80529502D01*
X124744494Y-80470537D01*
X124841185Y-80391185D01*
X124920537Y-80294494D01*
X124979502Y-80184180D01*
X125015812Y-80064482D01*
X125028072Y-79940000D01*
X125026278Y-79405805D01*
X131815805Y-79405805D01*
X131888379Y-79645066D01*
X132048361Y-79967257D01*
X132268125Y-80252046D01*
X132539226Y-80488489D01*
X132851246Y-80667500D01*
X133192194Y-80782199D01*
X133477000Y-80665854D01*
X133477000Y-79121000D01*
X133731000Y-79121000D01*
X133731000Y-80665854D01*
X134015806Y-80782199D01*
X134356754Y-80667500D01*
X134668774Y-80488489D01*
X134939875Y-80252046D01*
X135159639Y-79967257D01*
X135319621Y-79645066D01*
X135392195Y-79405805D01*
X135275432Y-79121000D01*
X133731000Y-79121000D01*
X133477000Y-79121000D01*
X131932568Y-79121000D01*
X131815805Y-79405805D01*
X125026278Y-79405805D01*
X125025000Y-79025750D01*
X124866250Y-78867000D01*
X123317000Y-78867000D01*
X123063000Y-78867000D01*
X121513750Y-78867000D01*
X121355000Y-79025750D01*
X121351928Y-79940000D01*
X111572698Y-79940000D01*
X111617502Y-79856180D01*
X111653812Y-79736482D01*
X111666072Y-79612000D01*
X111666072Y-77540000D01*
X121351928Y-77540000D01*
X121355000Y-78454250D01*
X121513750Y-78613000D01*
X123063000Y-78613000D01*
X123063000Y-77063750D01*
X123317000Y-77063750D01*
X123317000Y-78613000D01*
X124866250Y-78613000D01*
X124897055Y-78582195D01*
X131815805Y-78582195D01*
X131932568Y-78867000D01*
X133477000Y-78867000D01*
X133477000Y-77322146D01*
X133731000Y-77322146D01*
X133731000Y-78867000D01*
X135275432Y-78867000D01*
X135297460Y-78813268D01*
X144469000Y-78813268D01*
X144469000Y-79174732D01*
X144539518Y-79529250D01*
X144677844Y-79863199D01*
X144878662Y-80163744D01*
X145134256Y-80419338D01*
X145434801Y-80620156D01*
X145768750Y-80758482D01*
X146123268Y-80829000D01*
X146484732Y-80829000D01*
X146839250Y-80758482D01*
X147173199Y-80620156D01*
X147473744Y-80419338D01*
X147729338Y-80163744D01*
X147930156Y-79863199D01*
X148068482Y-79529250D01*
X148139000Y-79174732D01*
X148139000Y-78813268D01*
X148068482Y-78458750D01*
X147930156Y-78124801D01*
X147729338Y-77824256D01*
X147473744Y-77568662D01*
X147173199Y-77367844D01*
X146839250Y-77229518D01*
X146484732Y-77159000D01*
X146123268Y-77159000D01*
X145768750Y-77229518D01*
X145434801Y-77367844D01*
X145134256Y-77568662D01*
X144878662Y-77824256D01*
X144677844Y-78124801D01*
X144539518Y-78458750D01*
X144469000Y-78813268D01*
X135297460Y-78813268D01*
X135392195Y-78582195D01*
X135319621Y-78342934D01*
X135159639Y-78020743D01*
X134939875Y-77735954D01*
X134668774Y-77499511D01*
X134356754Y-77320500D01*
X134015806Y-77205801D01*
X133731000Y-77322146D01*
X133477000Y-77322146D01*
X133192194Y-77205801D01*
X132851246Y-77320500D01*
X132539226Y-77499511D01*
X132268125Y-77735954D01*
X132048361Y-78020743D01*
X131888379Y-78342934D01*
X131815805Y-78582195D01*
X124897055Y-78582195D01*
X125025000Y-78454250D01*
X125028072Y-77540000D01*
X125015812Y-77415518D01*
X124979502Y-77295820D01*
X124920537Y-77185506D01*
X124841185Y-77088815D01*
X124744494Y-77009463D01*
X124634180Y-76950498D01*
X124514482Y-76914188D01*
X124390000Y-76901928D01*
X123475750Y-76905000D01*
X123317000Y-77063750D01*
X123063000Y-77063750D01*
X122904250Y-76905000D01*
X121990000Y-76901928D01*
X121865518Y-76914188D01*
X121745820Y-76950498D01*
X121635506Y-77009463D01*
X121538815Y-77088815D01*
X121459463Y-77185506D01*
X121400498Y-77295820D01*
X121364188Y-77415518D01*
X121351928Y-77540000D01*
X111666072Y-77540000D01*
X111666072Y-77012000D01*
X111653812Y-76887518D01*
X111617502Y-76767820D01*
X111558537Y-76657506D01*
X111479185Y-76560815D01*
X111382494Y-76481463D01*
X111272180Y-76422498D01*
X111152482Y-76386188D01*
X111028000Y-76373928D01*
X108428000Y-76373928D01*
X108303518Y-76386188D01*
X108183820Y-76422498D01*
X108073506Y-76481463D01*
X107976815Y-76560815D01*
X107897463Y-76657506D01*
X107838498Y-76767820D01*
X107802188Y-76887518D01*
X107789928Y-77012000D01*
X105333000Y-77012000D01*
X105333000Y-75042665D01*
X140043000Y-75042665D01*
X140043000Y-75325335D01*
X140098147Y-75602574D01*
X140206320Y-75863727D01*
X140363363Y-76098759D01*
X140563241Y-76298637D01*
X140798273Y-76455680D01*
X141059426Y-76563853D01*
X141336665Y-76619000D01*
X141619335Y-76619000D01*
X141896574Y-76563853D01*
X142157727Y-76455680D01*
X142392759Y-76298637D01*
X142592637Y-76098759D01*
X142749680Y-75863727D01*
X142857853Y-75602574D01*
X142913000Y-75325335D01*
X142913000Y-75042665D01*
X145043000Y-75042665D01*
X145043000Y-75325335D01*
X145098147Y-75602574D01*
X145206320Y-75863727D01*
X145363363Y-76098759D01*
X145563241Y-76298637D01*
X145798273Y-76455680D01*
X146059426Y-76563853D01*
X146336665Y-76619000D01*
X146619335Y-76619000D01*
X146896574Y-76563853D01*
X147157727Y-76455680D01*
X147392759Y-76298637D01*
X147592637Y-76098759D01*
X147749680Y-75863727D01*
X147857853Y-75602574D01*
X147913000Y-75325335D01*
X147913000Y-75184000D01*
X152375993Y-75184000D01*
X152381000Y-75234838D01*
X152381000Y-75285939D01*
X152381001Y-75285944D01*
X152381001Y-75844057D01*
X152381000Y-75844061D01*
X152381000Y-75895162D01*
X152375993Y-75946000D01*
X152381000Y-75996838D01*
X152381000Y-76047939D01*
X152381001Y-76047942D01*
X152381000Y-76657158D01*
X152375993Y-76708000D01*
X152381000Y-76758841D01*
X152381000Y-77419162D01*
X152375993Y-77470000D01*
X152381000Y-77520837D01*
X152381000Y-77571939D01*
X152390969Y-77622057D01*
X152395976Y-77672895D01*
X152410804Y-77721777D01*
X152420774Y-77771898D01*
X152440331Y-77819113D01*
X152455159Y-77867993D01*
X152479238Y-77913042D01*
X152498795Y-77960256D01*
X152527186Y-78002746D01*
X152536805Y-78020743D01*
X152551266Y-78047797D01*
X152583672Y-78087284D01*
X152612063Y-78129774D01*
X152648197Y-78165908D01*
X152680604Y-78205396D01*
X152720092Y-78237803D01*
X152756226Y-78273937D01*
X152798716Y-78302328D01*
X152838203Y-78334734D01*
X152883254Y-78358814D01*
X152925744Y-78387205D01*
X152972958Y-78406762D01*
X153018007Y-78430841D01*
X153066887Y-78445669D01*
X153114102Y-78465226D01*
X153164223Y-78475196D01*
X153213105Y-78490024D01*
X153263943Y-78495031D01*
X153305000Y-78503198D01*
X153305000Y-80658888D01*
X153298282Y-80770595D01*
X153342039Y-81089675D01*
X153447205Y-81394088D01*
X153540186Y-81568044D01*
X153804587Y-81663808D01*
X154125395Y-81343000D01*
X154484605Y-81343000D01*
X153984192Y-81843413D01*
X154079956Y-82107814D01*
X154369571Y-82248704D01*
X154681108Y-82330384D01*
X155002595Y-82349718D01*
X155321675Y-82305961D01*
X155626088Y-82200795D01*
X155800044Y-82107814D01*
X155895808Y-81843413D01*
X155395395Y-81343000D01*
X155754605Y-81343000D01*
X156075413Y-81663808D01*
X156339814Y-81568044D01*
X156480704Y-81278429D01*
X156562384Y-80966892D01*
X156581718Y-80645405D01*
X156575000Y-80596417D01*
X156575000Y-78503198D01*
X156616057Y-78495031D01*
X156666895Y-78490024D01*
X156715777Y-78475196D01*
X156765898Y-78465226D01*
X156813113Y-78445669D01*
X156861993Y-78430841D01*
X156907042Y-78406762D01*
X156954256Y-78387205D01*
X156996746Y-78358814D01*
X157041797Y-78334734D01*
X157081284Y-78302328D01*
X157123774Y-78273937D01*
X157159908Y-78237803D01*
X157199396Y-78205396D01*
X157231803Y-78165908D01*
X157267937Y-78129774D01*
X157296328Y-78087284D01*
X157328734Y-78047797D01*
X157352814Y-78002746D01*
X157381205Y-77960256D01*
X157400762Y-77913042D01*
X157424841Y-77867993D01*
X157439669Y-77819113D01*
X157459226Y-77771898D01*
X157469196Y-77721777D01*
X157484024Y-77672895D01*
X157489031Y-77622057D01*
X157499000Y-77571939D01*
X157499000Y-77520837D01*
X157504007Y-77470000D01*
X157499000Y-77419162D01*
X157499000Y-76758838D01*
X157504007Y-76708000D01*
X157499000Y-76657162D01*
X157499000Y-75996838D01*
X157504007Y-75946000D01*
X157499000Y-75895162D01*
X157499000Y-75234838D01*
X157504007Y-75184000D01*
X157499000Y-75133162D01*
X157499000Y-75082061D01*
X157489031Y-75031943D01*
X157484024Y-74981105D01*
X157469196Y-74932223D01*
X157459226Y-74882102D01*
X157439669Y-74834887D01*
X157424841Y-74786007D01*
X157400762Y-74740958D01*
X157381205Y-74693744D01*
X157352814Y-74651254D01*
X157328734Y-74606203D01*
X157296328Y-74566716D01*
X157267937Y-74524226D01*
X157231803Y-74488092D01*
X157199396Y-74448604D01*
X157159908Y-74416197D01*
X157123774Y-74380063D01*
X157081284Y-74351672D01*
X157041797Y-74319266D01*
X156996746Y-74295186D01*
X156954256Y-74266795D01*
X156907042Y-74247238D01*
X156861993Y-74223159D01*
X156813113Y-74208331D01*
X156765898Y-74188774D01*
X156715777Y-74178804D01*
X156666895Y-74163976D01*
X156616057Y-74158969D01*
X156565939Y-74149000D01*
X156514838Y-74149000D01*
X156464000Y-74143993D01*
X156413162Y-74149000D01*
X153466838Y-74149000D01*
X153416000Y-74143993D01*
X153365162Y-74149000D01*
X153314061Y-74149000D01*
X153263943Y-74158969D01*
X153213105Y-74163976D01*
X153164223Y-74178804D01*
X153114102Y-74188774D01*
X153066887Y-74208331D01*
X153018007Y-74223159D01*
X152972958Y-74247238D01*
X152925744Y-74266795D01*
X152883254Y-74295186D01*
X152838203Y-74319266D01*
X152798716Y-74351672D01*
X152756226Y-74380063D01*
X152720092Y-74416197D01*
X152680604Y-74448604D01*
X152648197Y-74488092D01*
X152612063Y-74524226D01*
X152583672Y-74566716D01*
X152551266Y-74606203D01*
X152527186Y-74651254D01*
X152498795Y-74693744D01*
X152479238Y-74740958D01*
X152455159Y-74786007D01*
X152440331Y-74834887D01*
X152420774Y-74882102D01*
X152410804Y-74932223D01*
X152395976Y-74981105D01*
X152390969Y-75031943D01*
X152381000Y-75082061D01*
X152381000Y-75133162D01*
X152375993Y-75184000D01*
X147913000Y-75184000D01*
X147913000Y-75042665D01*
X147857853Y-74765426D01*
X147749680Y-74504273D01*
X147592637Y-74269241D01*
X147392759Y-74069363D01*
X147157727Y-73912320D01*
X146896574Y-73804147D01*
X146619335Y-73749000D01*
X146336665Y-73749000D01*
X146059426Y-73804147D01*
X145798273Y-73912320D01*
X145563241Y-74069363D01*
X145363363Y-74269241D01*
X145206320Y-74504273D01*
X145098147Y-74765426D01*
X145043000Y-75042665D01*
X142913000Y-75042665D01*
X142857853Y-74765426D01*
X142749680Y-74504273D01*
X142592637Y-74269241D01*
X142392759Y-74069363D01*
X142157727Y-73912320D01*
X141896574Y-73804147D01*
X141619335Y-73749000D01*
X141336665Y-73749000D01*
X141059426Y-73804147D01*
X140798273Y-73912320D01*
X140563241Y-74069363D01*
X140363363Y-74269241D01*
X140206320Y-74504273D01*
X140098147Y-74765426D01*
X140043000Y-75042665D01*
X105333000Y-75042665D01*
X105333000Y-71059268D01*
X121355000Y-71059268D01*
X121355000Y-71420732D01*
X121425518Y-71775250D01*
X121563844Y-72109199D01*
X121764662Y-72409744D01*
X122020256Y-72665338D01*
X122320801Y-72866156D01*
X122654750Y-73004482D01*
X123009268Y-73075000D01*
X123370732Y-73075000D01*
X123725250Y-73004482D01*
X124059199Y-72866156D01*
X124359744Y-72665338D01*
X124615338Y-72409744D01*
X124816156Y-72109199D01*
X124954482Y-71775250D01*
X125025000Y-71420732D01*
X125025000Y-71059268D01*
X124954482Y-70704750D01*
X124816156Y-70370801D01*
X124615338Y-70070256D01*
X124359744Y-69814662D01*
X124059199Y-69613844D01*
X123725250Y-69475518D01*
X123370732Y-69405000D01*
X123009268Y-69405000D01*
X122654750Y-69475518D01*
X122320801Y-69613844D01*
X122020256Y-69814662D01*
X121764662Y-70070256D01*
X121563844Y-70370801D01*
X121425518Y-70704750D01*
X121355000Y-71059268D01*
X105333000Y-71059268D01*
X105333000Y-69190512D01*
X133179783Y-69190512D01*
X133221213Y-69470130D01*
X133316397Y-69736292D01*
X133381616Y-69858309D01*
X133368815Y-69868815D01*
X133289463Y-69965506D01*
X133230498Y-70075820D01*
X133194188Y-70195518D01*
X133181928Y-70320000D01*
X133181928Y-71920000D01*
X133194188Y-72044482D01*
X133230498Y-72164180D01*
X133289463Y-72274494D01*
X133368815Y-72371185D01*
X133465506Y-72450537D01*
X133575820Y-72509502D01*
X133695518Y-72545812D01*
X133820000Y-72558072D01*
X135420000Y-72558072D01*
X135544482Y-72545812D01*
X135643000Y-72515927D01*
X135643000Y-72517002D01*
X135801748Y-72517002D01*
X135643000Y-72675750D01*
X135639928Y-73265000D01*
X135652188Y-73389482D01*
X135688498Y-73509180D01*
X135747463Y-73619494D01*
X135826815Y-73716185D01*
X135923506Y-73795537D01*
X136033820Y-73854502D01*
X136153518Y-73890812D01*
X136278000Y-73903072D01*
X136617250Y-73900000D01*
X136776000Y-73741250D01*
X136776000Y-72517000D01*
X137030000Y-72517000D01*
X137030000Y-73741250D01*
X137188750Y-73900000D01*
X137528000Y-73903072D01*
X137652482Y-73890812D01*
X137772180Y-73854502D01*
X137882494Y-73795537D01*
X137979185Y-73716185D01*
X138058537Y-73619494D01*
X138117502Y-73509180D01*
X138153812Y-73389482D01*
X138166072Y-73265000D01*
X138163000Y-72675750D01*
X138004250Y-72517000D01*
X137030000Y-72517000D01*
X136776000Y-72517000D01*
X136756000Y-72517000D01*
X136756000Y-72263000D01*
X136776000Y-72263000D01*
X136776000Y-71038750D01*
X137030000Y-71038750D01*
X137030000Y-72263000D01*
X138004250Y-72263000D01*
X138163000Y-72104250D01*
X138166072Y-71515000D01*
X138153812Y-71390518D01*
X138117502Y-71270820D01*
X138058537Y-71160506D01*
X137979185Y-71063815D01*
X137882494Y-70984463D01*
X137772180Y-70925498D01*
X137652482Y-70889188D01*
X137528000Y-70876928D01*
X137188750Y-70880000D01*
X137030000Y-71038750D01*
X136776000Y-71038750D01*
X136617250Y-70880000D01*
X136278000Y-70876928D01*
X136153518Y-70889188D01*
X136058072Y-70918141D01*
X136058072Y-70320000D01*
X136045812Y-70195518D01*
X136009502Y-70075820D01*
X135950537Y-69965506D01*
X135871185Y-69868815D01*
X135858242Y-69858193D01*
X135977571Y-69606004D01*
X136046300Y-69331816D01*
X136060217Y-69049488D01*
X136035401Y-68882000D01*
X138009928Y-68882000D01*
X138009928Y-70882000D01*
X138022188Y-71006482D01*
X138058498Y-71126180D01*
X138117463Y-71236494D01*
X138196815Y-71333185D01*
X138293506Y-71412537D01*
X138403820Y-71471502D01*
X138443000Y-71483387D01*
X138443000Y-71733807D01*
X138439928Y-71765000D01*
X138439928Y-73015000D01*
X138456992Y-73188254D01*
X138507528Y-73354850D01*
X138589595Y-73508386D01*
X138700038Y-73642962D01*
X138834614Y-73753405D01*
X138988150Y-73835472D01*
X139154746Y-73886008D01*
X139328000Y-73903072D01*
X140078000Y-73903072D01*
X140251254Y-73886008D01*
X140417850Y-73835472D01*
X140571386Y-73753405D01*
X140705962Y-73642962D01*
X140816405Y-73508386D01*
X140898472Y-73354850D01*
X140949008Y-73188254D01*
X140966072Y-73015000D01*
X140966072Y-71765000D01*
X140963000Y-71733809D01*
X140963000Y-71433647D01*
X141002494Y-71412537D01*
X141099185Y-71333185D01*
X141178537Y-71236494D01*
X141237502Y-71126180D01*
X141273812Y-71006482D01*
X141286072Y-70882000D01*
X141286072Y-69720967D01*
X141413000Y-69720967D01*
X141413000Y-70043033D01*
X141475832Y-70358912D01*
X141599082Y-70656463D01*
X141778013Y-70924252D01*
X142005748Y-71151987D01*
X142273537Y-71330918D01*
X142571088Y-71454168D01*
X142886967Y-71517000D01*
X143209033Y-71517000D01*
X143524912Y-71454168D01*
X143822463Y-71330918D01*
X144090252Y-71151987D01*
X144317987Y-70924252D01*
X144496918Y-70656463D01*
X144620168Y-70358912D01*
X144683000Y-70043033D01*
X144683000Y-69720967D01*
X144813000Y-69720967D01*
X144813000Y-70043033D01*
X144875832Y-70358912D01*
X144999082Y-70656463D01*
X145178013Y-70924252D01*
X145405748Y-71151987D01*
X145673537Y-71330918D01*
X145971088Y-71454168D01*
X146286967Y-71517000D01*
X146609033Y-71517000D01*
X146924912Y-71454168D01*
X147222463Y-71330918D01*
X147490252Y-71151987D01*
X147624826Y-71017413D01*
X148892192Y-71017413D01*
X148987956Y-71281814D01*
X149277571Y-71422704D01*
X149589108Y-71504384D01*
X149910595Y-71523718D01*
X150229675Y-71479961D01*
X150534088Y-71374795D01*
X150708044Y-71281814D01*
X150803808Y-71017413D01*
X149848000Y-70061605D01*
X148892192Y-71017413D01*
X147624826Y-71017413D01*
X147717987Y-70924252D01*
X147896918Y-70656463D01*
X148020168Y-70358912D01*
X148083000Y-70043033D01*
X148083000Y-69944595D01*
X148206282Y-69944595D01*
X148250039Y-70263675D01*
X148355205Y-70568088D01*
X148448186Y-70742044D01*
X148712587Y-70837808D01*
X149668395Y-69882000D01*
X150027605Y-69882000D01*
X150983413Y-70837808D01*
X151247814Y-70742044D01*
X151388704Y-70452429D01*
X151470384Y-70140892D01*
X151489718Y-69819405D01*
X151476219Y-69720967D01*
X151613000Y-69720967D01*
X151613000Y-70043033D01*
X151675832Y-70358912D01*
X151799082Y-70656463D01*
X151978013Y-70924252D01*
X152205748Y-71151987D01*
X152473537Y-71330918D01*
X152771088Y-71454168D01*
X153086967Y-71517000D01*
X153409033Y-71517000D01*
X153724912Y-71454168D01*
X154022463Y-71330918D01*
X154290252Y-71151987D01*
X154517987Y-70924252D01*
X154696918Y-70656463D01*
X154820168Y-70358912D01*
X154883000Y-70043033D01*
X154883000Y-69720967D01*
X155013000Y-69720967D01*
X155013000Y-70043033D01*
X155075832Y-70358912D01*
X155199082Y-70656463D01*
X155378013Y-70924252D01*
X155605748Y-71151987D01*
X155873537Y-71330918D01*
X156171088Y-71454168D01*
X156486967Y-71517000D01*
X156809033Y-71517000D01*
X156961537Y-71486665D01*
X161125000Y-71486665D01*
X161125000Y-71769335D01*
X161180147Y-72046574D01*
X161288320Y-72307727D01*
X161445363Y-72542759D01*
X161645241Y-72742637D01*
X161847827Y-72878000D01*
X161645241Y-73013363D01*
X161445363Y-73213241D01*
X161288320Y-73448273D01*
X161180147Y-73709426D01*
X161125000Y-73986665D01*
X161125000Y-74269335D01*
X161180147Y-74546574D01*
X161288320Y-74807727D01*
X161445363Y-75042759D01*
X161645241Y-75242637D01*
X161880273Y-75399680D01*
X162141426Y-75507853D01*
X162418665Y-75563000D01*
X162701335Y-75563000D01*
X162978574Y-75507853D01*
X163239727Y-75399680D01*
X163474759Y-75242637D01*
X163674637Y-75042759D01*
X163831680Y-74807727D01*
X163939853Y-74546574D01*
X163995000Y-74269335D01*
X163995000Y-73986665D01*
X163939853Y-73709426D01*
X163831680Y-73448273D01*
X163674637Y-73213241D01*
X163474759Y-73013363D01*
X163272173Y-72878000D01*
X163474759Y-72742637D01*
X163674637Y-72542759D01*
X163831680Y-72307727D01*
X163939853Y-72046574D01*
X163995000Y-71769335D01*
X163995000Y-71486665D01*
X167983000Y-71486665D01*
X167983000Y-71769335D01*
X168038147Y-72046574D01*
X168146320Y-72307727D01*
X168303363Y-72542759D01*
X168503241Y-72742637D01*
X168705827Y-72878000D01*
X168503241Y-73013363D01*
X168303363Y-73213241D01*
X168146320Y-73448273D01*
X168038147Y-73709426D01*
X167983000Y-73986665D01*
X167983000Y-74269335D01*
X168038147Y-74546574D01*
X168146320Y-74807727D01*
X168303363Y-75042759D01*
X168503241Y-75242637D01*
X168738273Y-75399680D01*
X168999426Y-75507853D01*
X169276665Y-75563000D01*
X169559335Y-75563000D01*
X169836574Y-75507853D01*
X170097727Y-75399680D01*
X170332759Y-75242637D01*
X170532637Y-75042759D01*
X170689680Y-74807727D01*
X170797853Y-74546574D01*
X170853000Y-74269335D01*
X170853000Y-73986665D01*
X170797853Y-73709426D01*
X170689680Y-73448273D01*
X170532637Y-73213241D01*
X170332759Y-73013363D01*
X170130173Y-72878000D01*
X170332759Y-72742637D01*
X170532637Y-72542759D01*
X170689680Y-72307727D01*
X170797853Y-72046574D01*
X170853000Y-71769335D01*
X170853000Y-71486665D01*
X170797853Y-71209426D01*
X170689680Y-70948273D01*
X170532637Y-70713241D01*
X170332759Y-70513363D01*
X170097727Y-70356320D01*
X169836574Y-70248147D01*
X169559335Y-70193000D01*
X169276665Y-70193000D01*
X168999426Y-70248147D01*
X168738273Y-70356320D01*
X168503241Y-70513363D01*
X168303363Y-70713241D01*
X168146320Y-70948273D01*
X168038147Y-71209426D01*
X167983000Y-71486665D01*
X163995000Y-71486665D01*
X163939853Y-71209426D01*
X163831680Y-70948273D01*
X163674637Y-70713241D01*
X163474759Y-70513363D01*
X163239727Y-70356320D01*
X162978574Y-70248147D01*
X162701335Y-70193000D01*
X162418665Y-70193000D01*
X162141426Y-70248147D01*
X161880273Y-70356320D01*
X161645241Y-70513363D01*
X161445363Y-70713241D01*
X161288320Y-70948273D01*
X161180147Y-71209426D01*
X161125000Y-71486665D01*
X156961537Y-71486665D01*
X157124912Y-71454168D01*
X157422463Y-71330918D01*
X157690252Y-71151987D01*
X157917987Y-70924252D01*
X158096918Y-70656463D01*
X158220168Y-70358912D01*
X158283000Y-70043033D01*
X158283000Y-69720967D01*
X158220168Y-69405088D01*
X158096918Y-69107537D01*
X157917987Y-68839748D01*
X157690252Y-68612013D01*
X157422463Y-68433082D01*
X157124912Y-68309832D01*
X156809033Y-68247000D01*
X156486967Y-68247000D01*
X156171088Y-68309832D01*
X155873537Y-68433082D01*
X155605748Y-68612013D01*
X155378013Y-68839748D01*
X155199082Y-69107537D01*
X155075832Y-69405088D01*
X155013000Y-69720967D01*
X154883000Y-69720967D01*
X154820168Y-69405088D01*
X154696918Y-69107537D01*
X154517987Y-68839748D01*
X154290252Y-68612013D01*
X154022463Y-68433082D01*
X153724912Y-68309832D01*
X153409033Y-68247000D01*
X153086967Y-68247000D01*
X152771088Y-68309832D01*
X152473537Y-68433082D01*
X152205748Y-68612013D01*
X151978013Y-68839748D01*
X151799082Y-69107537D01*
X151675832Y-69405088D01*
X151613000Y-69720967D01*
X151476219Y-69720967D01*
X151445961Y-69500325D01*
X151340795Y-69195912D01*
X151247814Y-69021956D01*
X150983413Y-68926192D01*
X150027605Y-69882000D01*
X149668395Y-69882000D01*
X148712587Y-68926192D01*
X148448186Y-69021956D01*
X148307296Y-69311571D01*
X148225616Y-69623108D01*
X148206282Y-69944595D01*
X148083000Y-69944595D01*
X148083000Y-69720967D01*
X148020168Y-69405088D01*
X147896918Y-69107537D01*
X147717987Y-68839748D01*
X147624826Y-68746587D01*
X148892192Y-68746587D01*
X149848000Y-69702395D01*
X150803808Y-68746587D01*
X150708044Y-68482186D01*
X150418429Y-68341296D01*
X150106892Y-68259616D01*
X149785405Y-68240282D01*
X149466325Y-68284039D01*
X149161912Y-68389205D01*
X148987956Y-68482186D01*
X148892192Y-68746587D01*
X147624826Y-68746587D01*
X147490252Y-68612013D01*
X147222463Y-68433082D01*
X146924912Y-68309832D01*
X146609033Y-68247000D01*
X146286967Y-68247000D01*
X145971088Y-68309832D01*
X145673537Y-68433082D01*
X145405748Y-68612013D01*
X145178013Y-68839748D01*
X144999082Y-69107537D01*
X144875832Y-69405088D01*
X144813000Y-69720967D01*
X144683000Y-69720967D01*
X144620168Y-69405088D01*
X144496918Y-69107537D01*
X144317987Y-68839748D01*
X144090252Y-68612013D01*
X143822463Y-68433082D01*
X143524912Y-68309832D01*
X143209033Y-68247000D01*
X142886967Y-68247000D01*
X142571088Y-68309832D01*
X142273537Y-68433082D01*
X142005748Y-68612013D01*
X141778013Y-68839748D01*
X141599082Y-69107537D01*
X141475832Y-69405088D01*
X141413000Y-69720967D01*
X141286072Y-69720967D01*
X141286072Y-68882000D01*
X141273812Y-68757518D01*
X141237502Y-68637820D01*
X141178537Y-68527506D01*
X141099185Y-68430815D01*
X141002494Y-68351463D01*
X140892180Y-68292498D01*
X140772482Y-68256188D01*
X140648000Y-68243928D01*
X138648000Y-68243928D01*
X138523518Y-68256188D01*
X138403820Y-68292498D01*
X138293506Y-68351463D01*
X138196815Y-68430815D01*
X138117463Y-68527506D01*
X138058498Y-68637820D01*
X138022188Y-68757518D01*
X138009928Y-68882000D01*
X136035401Y-68882000D01*
X136018787Y-68769870D01*
X135923603Y-68503708D01*
X135856671Y-68378486D01*
X135612702Y-68306903D01*
X134799605Y-69120000D01*
X134813748Y-69134143D01*
X134634143Y-69313748D01*
X134620000Y-69299605D01*
X134605858Y-69313748D01*
X134426253Y-69134143D01*
X134440395Y-69120000D01*
X133627298Y-68306903D01*
X133383329Y-68378486D01*
X133262429Y-68633996D01*
X133193700Y-68908184D01*
X133179783Y-69190512D01*
X105333000Y-69190512D01*
X105333000Y-66581872D01*
X105969000Y-66581872D01*
X105969000Y-67022128D01*
X106054890Y-67453925D01*
X106223369Y-67860669D01*
X106467962Y-68226729D01*
X106779271Y-68538038D01*
X107145331Y-68782631D01*
X107552075Y-68951110D01*
X107983872Y-69037000D01*
X108424128Y-69037000D01*
X108855925Y-68951110D01*
X109262669Y-68782631D01*
X109628729Y-68538038D01*
X109940038Y-68226729D01*
X110006475Y-68127298D01*
X133806903Y-68127298D01*
X134620000Y-68940395D01*
X135433097Y-68127298D01*
X135361514Y-67883329D01*
X135106004Y-67762429D01*
X134831816Y-67693700D01*
X134549488Y-67679783D01*
X134269870Y-67721213D01*
X134003708Y-67816397D01*
X133878486Y-67883329D01*
X133806903Y-68127298D01*
X110006475Y-68127298D01*
X110184631Y-67860669D01*
X110353110Y-67453925D01*
X110439000Y-67022128D01*
X110439000Y-66581872D01*
X110389298Y-66332000D01*
X126577928Y-66332000D01*
X126590188Y-66456482D01*
X126626498Y-66576180D01*
X126685463Y-66686494D01*
X126764815Y-66783185D01*
X126861506Y-66862537D01*
X126971820Y-66921502D01*
X127091518Y-66957812D01*
X127216000Y-66970072D01*
X127730250Y-66967000D01*
X127889000Y-66808250D01*
X127889000Y-65659000D01*
X128143000Y-65659000D01*
X128143000Y-66808250D01*
X128301750Y-66967000D01*
X128816000Y-66970072D01*
X128940482Y-66957812D01*
X129060180Y-66921502D01*
X129170494Y-66862537D01*
X129267185Y-66783185D01*
X129346537Y-66686494D01*
X129405502Y-66576180D01*
X129441812Y-66456482D01*
X129454072Y-66332000D01*
X129453881Y-66300000D01*
X133181928Y-66300000D01*
X133194188Y-66424482D01*
X133230498Y-66544180D01*
X133289463Y-66654494D01*
X133368815Y-66751185D01*
X133465506Y-66830537D01*
X133575820Y-66889502D01*
X133695518Y-66925812D01*
X133820000Y-66938072D01*
X134334250Y-66935000D01*
X134493000Y-66776250D01*
X134493000Y-65627000D01*
X134747000Y-65627000D01*
X134747000Y-66776250D01*
X134905750Y-66935000D01*
X135420000Y-66938072D01*
X135544482Y-66925812D01*
X135664180Y-66889502D01*
X135774494Y-66830537D01*
X135871185Y-66751185D01*
X135950537Y-66654494D01*
X135989354Y-66581872D01*
X175565000Y-66581872D01*
X175565000Y-67022128D01*
X175650890Y-67453925D01*
X175819369Y-67860669D01*
X176063962Y-68226729D01*
X176375271Y-68538038D01*
X176741331Y-68782631D01*
X177148075Y-68951110D01*
X177579872Y-69037000D01*
X178020128Y-69037000D01*
X178451925Y-68951110D01*
X178858669Y-68782631D01*
X179224729Y-68538038D01*
X179536038Y-68226729D01*
X179780631Y-67860669D01*
X179949110Y-67453925D01*
X180035000Y-67022128D01*
X180035000Y-66581872D01*
X179949110Y-66150075D01*
X179780631Y-65743331D01*
X179536038Y-65377271D01*
X179224729Y-65065962D01*
X178858669Y-64821369D01*
X178451925Y-64652890D01*
X178020128Y-64567000D01*
X177579872Y-64567000D01*
X177148075Y-64652890D01*
X176741331Y-64821369D01*
X176375271Y-65065962D01*
X176063962Y-65377271D01*
X175819369Y-65743331D01*
X175650890Y-66150075D01*
X175565000Y-66581872D01*
X135989354Y-66581872D01*
X136009502Y-66544180D01*
X136045812Y-66424482D01*
X136058072Y-66300000D01*
X136055000Y-65785750D01*
X135896250Y-65627000D01*
X134747000Y-65627000D01*
X134493000Y-65627000D01*
X133343750Y-65627000D01*
X133185000Y-65785750D01*
X133181928Y-66300000D01*
X129453881Y-66300000D01*
X129451000Y-65817750D01*
X129292250Y-65659000D01*
X128143000Y-65659000D01*
X127889000Y-65659000D01*
X126739750Y-65659000D01*
X126581000Y-65817750D01*
X126577928Y-66332000D01*
X110389298Y-66332000D01*
X110353110Y-66150075D01*
X110184631Y-65743331D01*
X109940038Y-65377271D01*
X109628729Y-65065962D01*
X109262669Y-64821369D01*
X108855925Y-64652890D01*
X108424128Y-64567000D01*
X107983872Y-64567000D01*
X107552075Y-64652890D01*
X107145331Y-64821369D01*
X106779271Y-65065962D01*
X106467962Y-65377271D01*
X106223369Y-65743331D01*
X106054890Y-66150075D01*
X105969000Y-66581872D01*
X105333000Y-66581872D01*
X105333000Y-61391000D01*
X123687302Y-61391000D01*
X123671208Y-61404208D01*
G04 #@! TA.AperFunction,Conductor*
D29*
G36*
X123671208Y-61404208D02*
G01*
X123561542Y-61537836D01*
X123514535Y-61625781D01*
X123426256Y-61566795D01*
X123237898Y-61488774D01*
X123037939Y-61449000D01*
X122834061Y-61449000D01*
X122634102Y-61488774D01*
X122445744Y-61566795D01*
X122276226Y-61680063D01*
X122132063Y-61824226D01*
X122018795Y-61993744D01*
X121940774Y-62182102D01*
X121901000Y-62382061D01*
X121901000Y-62585939D01*
X121940774Y-62785898D01*
X122018795Y-62974256D01*
X122132063Y-63143774D01*
X122276226Y-63287937D01*
X122445744Y-63401205D01*
X122634102Y-63479226D01*
X122834061Y-63519000D01*
X123037939Y-63519000D01*
X123237898Y-63479226D01*
X123426256Y-63401205D01*
X123514535Y-63342219D01*
X123561542Y-63430164D01*
X123671208Y-63563792D01*
X123804836Y-63673458D01*
X123957291Y-63754947D01*
X124122715Y-63805128D01*
X124294750Y-63822072D01*
X124782250Y-63822072D01*
X124954285Y-63805128D01*
X125119709Y-63754947D01*
X125272164Y-63673458D01*
X125405792Y-63563792D01*
X125476000Y-63478244D01*
X125546208Y-63563792D01*
X125679836Y-63673458D01*
X125832291Y-63754947D01*
X125997715Y-63805128D01*
X126169750Y-63822072D01*
X126610586Y-63822072D01*
X126636147Y-63950574D01*
X126744320Y-64211727D01*
X126781393Y-64267210D01*
X126764815Y-64280815D01*
X126685463Y-64377506D01*
X126626498Y-64487820D01*
X126590188Y-64607518D01*
X126577928Y-64732000D01*
X126581000Y-65246250D01*
X126739750Y-65405000D01*
X127889000Y-65405000D01*
X127889000Y-65385000D01*
X128143000Y-65385000D01*
X128143000Y-65405000D01*
X129292250Y-65405000D01*
X129451000Y-65246250D01*
X129454072Y-64732000D01*
X129450921Y-64700000D01*
X133181928Y-64700000D01*
X133185000Y-65214250D01*
X133343750Y-65373000D01*
X134493000Y-65373000D01*
X134493000Y-65353000D01*
X134747000Y-65353000D01*
X134747000Y-65373000D01*
X135896250Y-65373000D01*
X136055000Y-65214250D01*
X136058072Y-64700000D01*
X136052258Y-64640967D01*
X139713000Y-64640967D01*
X139713000Y-64963033D01*
X139775832Y-65278912D01*
X139899082Y-65576463D01*
X140078013Y-65844252D01*
X140305748Y-66071987D01*
X140573537Y-66250918D01*
X140871088Y-66374168D01*
X141186967Y-66437000D01*
X141509033Y-66437000D01*
X141824912Y-66374168D01*
X142122463Y-66250918D01*
X142390252Y-66071987D01*
X142617987Y-65844252D01*
X142796918Y-65576463D01*
X142920168Y-65278912D01*
X142983000Y-64963033D01*
X142983000Y-64640967D01*
X142920168Y-64325088D01*
X142796918Y-64027537D01*
X142762322Y-63975760D01*
X142852180Y-63948502D01*
X142962494Y-63889537D01*
X143059185Y-63810185D01*
X143138537Y-63713494D01*
X143197502Y-63603180D01*
X143233812Y-63483482D01*
X143246072Y-63359000D01*
X143243000Y-62769750D01*
X143084250Y-62611000D01*
X142110000Y-62611000D01*
X142110000Y-62631000D01*
X141856000Y-62631000D01*
X141856000Y-62611000D01*
X140881750Y-62611000D01*
X140723000Y-62769750D01*
X140720276Y-63292301D01*
X140573537Y-63353082D01*
X140305748Y-63532013D01*
X140078013Y-63759748D01*
X139899082Y-64027537D01*
X139775832Y-64325088D01*
X139713000Y-64640967D01*
X136052258Y-64640967D01*
X136045812Y-64575518D01*
X136009502Y-64455820D01*
X135950537Y-64345506D01*
X135871185Y-64248815D01*
X135854607Y-64235210D01*
X135891680Y-64179727D01*
X135999853Y-63918574D01*
X136055000Y-63641335D01*
X136055000Y-63358665D01*
X135999853Y-63081426D01*
X135891680Y-62820273D01*
X135734637Y-62585241D01*
X135534759Y-62385363D01*
X135299727Y-62228320D01*
X135038574Y-62120147D01*
X134761335Y-62065000D01*
X134478665Y-62065000D01*
X134201426Y-62120147D01*
X133940273Y-62228320D01*
X133705241Y-62385363D01*
X133505363Y-62585241D01*
X133348320Y-62820273D01*
X133240147Y-63081426D01*
X133185000Y-63358665D01*
X133185000Y-63641335D01*
X133240147Y-63918574D01*
X133348320Y-64179727D01*
X133385393Y-64235210D01*
X133368815Y-64248815D01*
X133289463Y-64345506D01*
X133230498Y-64455820D01*
X133194188Y-64575518D01*
X133181928Y-64700000D01*
X129450921Y-64700000D01*
X129441812Y-64607518D01*
X129405502Y-64487820D01*
X129346537Y-64377506D01*
X129267185Y-64280815D01*
X129250607Y-64267210D01*
X129287680Y-64211727D01*
X129395853Y-63950574D01*
X129451000Y-63673335D01*
X129451000Y-63390665D01*
X129414688Y-63208114D01*
X130578812Y-62043990D01*
X140722196Y-62043990D01*
X140723000Y-62198250D01*
X140881750Y-62357000D01*
X141856000Y-62357000D01*
X141856000Y-62337000D01*
X142110000Y-62337000D01*
X142110000Y-62357000D01*
X143084250Y-62357000D01*
X143243000Y-62198250D01*
X143243804Y-62043990D01*
X143519928Y-62043990D01*
X143519928Y-63109000D01*
X143523000Y-63140194D01*
X143523001Y-63714760D01*
X143478013Y-63759748D01*
X143299082Y-64027537D01*
X143175832Y-64325088D01*
X143113000Y-64640967D01*
X143113000Y-64963033D01*
X143175832Y-65278912D01*
X143299082Y-65576463D01*
X143478013Y-65844252D01*
X143705748Y-66071987D01*
X143973537Y-66250918D01*
X144271088Y-66374168D01*
X144586967Y-66437000D01*
X144909033Y-66437000D01*
X145224912Y-66374168D01*
X145522463Y-66250918D01*
X145790252Y-66071987D01*
X146017987Y-65844252D01*
X146196918Y-65576463D01*
X146320168Y-65278912D01*
X146383000Y-64963033D01*
X146383000Y-64640967D01*
X146513000Y-64640967D01*
X146513000Y-64963033D01*
X146575832Y-65278912D01*
X146699082Y-65576463D01*
X146878013Y-65844252D01*
X147105748Y-66071987D01*
X147373537Y-66250918D01*
X147671088Y-66374168D01*
X147986967Y-66437000D01*
X148309033Y-66437000D01*
X148624912Y-66374168D01*
X148922463Y-66250918D01*
X149190252Y-66071987D01*
X149417987Y-65844252D01*
X149596918Y-65576463D01*
X149720168Y-65278912D01*
X149783000Y-64963033D01*
X149783000Y-64640967D01*
X149720168Y-64325088D01*
X149596918Y-64027537D01*
X149417987Y-63759748D01*
X149190252Y-63532013D01*
X148922463Y-63353082D01*
X148624912Y-63229832D01*
X148309033Y-63167000D01*
X147986967Y-63167000D01*
X147671088Y-63229832D01*
X147373537Y-63353082D01*
X147105748Y-63532013D01*
X146878013Y-63759748D01*
X146699082Y-64027537D01*
X146575832Y-64325088D01*
X146513000Y-64640967D01*
X146383000Y-64640967D01*
X146320168Y-64325088D01*
X146196918Y-64027537D01*
X146043000Y-63797183D01*
X146043000Y-63140191D01*
X146046072Y-63109000D01*
X146046072Y-62043990D01*
X147715189Y-62043990D01*
X149981823Y-64310625D01*
X149975832Y-64325088D01*
X149913000Y-64640967D01*
X149913000Y-64963033D01*
X149975832Y-65278912D01*
X150099082Y-65576463D01*
X150278013Y-65844252D01*
X150505748Y-66071987D01*
X150773537Y-66250918D01*
X151071088Y-66374168D01*
X151386967Y-66437000D01*
X151709033Y-66437000D01*
X152024912Y-66374168D01*
X152322463Y-66250918D01*
X152590252Y-66071987D01*
X152817987Y-65844252D01*
X152996918Y-65576463D01*
X153120168Y-65278912D01*
X153183000Y-64963033D01*
X153183000Y-64640967D01*
X153313000Y-64640967D01*
X153313000Y-64963033D01*
X153375832Y-65278912D01*
X153499082Y-65576463D01*
X153678013Y-65844252D01*
X153905748Y-66071987D01*
X154173537Y-66250918D01*
X154471088Y-66374168D01*
X154786967Y-66437000D01*
X155109033Y-66437000D01*
X155424912Y-66374168D01*
X155722463Y-66250918D01*
X155990252Y-66071987D01*
X156217987Y-65844252D01*
X156396918Y-65576463D01*
X156520168Y-65278912D01*
X156583000Y-64963033D01*
X156583000Y-64640967D01*
X156520168Y-64325088D01*
X156396918Y-64027537D01*
X156217987Y-63759748D01*
X155990252Y-63532013D01*
X155722463Y-63353082D01*
X155424912Y-63229832D01*
X155109033Y-63167000D01*
X154786967Y-63167000D01*
X154471088Y-63229832D01*
X154173537Y-63353082D01*
X153905748Y-63532013D01*
X153678013Y-63759748D01*
X153499082Y-64027537D01*
X153375832Y-64325088D01*
X153313000Y-64640967D01*
X153183000Y-64640967D01*
X153120168Y-64325088D01*
X152996918Y-64027537D01*
X152817987Y-63759748D01*
X152590252Y-63532013D01*
X152322463Y-63353082D01*
X152024912Y-63229832D01*
X151709033Y-63167000D01*
X151386967Y-63167000D01*
X151071088Y-63229832D01*
X151056625Y-63235823D01*
X149211801Y-61391000D01*
X180671000Y-61391000D01*
X180671001Y-104979000D01*
X105333000Y-104979000D01*
X105333000Y-101887872D01*
X105969000Y-101887872D01*
X105969000Y-102328128D01*
X106054890Y-102759925D01*
X106223369Y-103166669D01*
X106467962Y-103532729D01*
X106779271Y-103844038D01*
X107145331Y-104088631D01*
X107552075Y-104257110D01*
X107983872Y-104343000D01*
X108424128Y-104343000D01*
X108855925Y-104257110D01*
X109262669Y-104088631D01*
X109628729Y-103844038D01*
X109940038Y-103532729D01*
X110184631Y-103166669D01*
X110353110Y-102759925D01*
X110439000Y-102328128D01*
X110439000Y-101887872D01*
X110353110Y-101456075D01*
X110184631Y-101049331D01*
X109940038Y-100683271D01*
X109628729Y-100371962D01*
X109262669Y-100127369D01*
X108855925Y-99958890D01*
X108424128Y-99873000D01*
X107983872Y-99873000D01*
X107552075Y-99958890D01*
X107145331Y-100127369D01*
X106779271Y-100371962D01*
X106467962Y-100683271D01*
X106223369Y-101049331D01*
X106054890Y-101456075D01*
X105969000Y-101887872D01*
X105333000Y-101887872D01*
X105333000Y-99284000D01*
X138015928Y-99284000D01*
X138015928Y-101884000D01*
X138028188Y-102008482D01*
X138064498Y-102128180D01*
X138123463Y-102238494D01*
X138202815Y-102335185D01*
X138299506Y-102414537D01*
X138409820Y-102473502D01*
X138529518Y-102509812D01*
X138654000Y-102522072D01*
X141254000Y-102522072D01*
X141378482Y-102509812D01*
X141498180Y-102473502D01*
X141608494Y-102414537D01*
X141705185Y-102335185D01*
X141784537Y-102238494D01*
X141843502Y-102128180D01*
X141879812Y-102008482D01*
X141892072Y-101884000D01*
X141892072Y-100393419D01*
X143019000Y-100393419D01*
X143019000Y-100774581D01*
X143093361Y-101148419D01*
X143239225Y-101500566D01*
X143450987Y-101817491D01*
X143720509Y-102087013D01*
X144037434Y-102298775D01*
X144389581Y-102444639D01*
X144763419Y-102519000D01*
X145144581Y-102519000D01*
X145518419Y-102444639D01*
X145870566Y-102298775D01*
X145880705Y-102292000D01*
X158943928Y-102292000D01*
X158956188Y-102416482D01*
X158992498Y-102536180D01*
X159051463Y-102646494D01*
X159130815Y-102743185D01*
X159227506Y-102822537D01*
X159337820Y-102881502D01*
X159457518Y-102917812D01*
X159582000Y-102930072D01*
X160496250Y-102927000D01*
X160655000Y-102768250D01*
X160655000Y-101219000D01*
X159105750Y-101219000D01*
X158947000Y-101377750D01*
X158943928Y-102292000D01*
X145880705Y-102292000D01*
X146187491Y-102087013D01*
X146457013Y-101817491D01*
X146668775Y-101500566D01*
X146814639Y-101148419D01*
X146889000Y-100774581D01*
X146889000Y-100393419D01*
X146814639Y-100019581D01*
X146761794Y-99892000D01*
X158943928Y-99892000D01*
X158947000Y-100806250D01*
X159105750Y-100965000D01*
X160655000Y-100965000D01*
X160655000Y-99415750D01*
X160909000Y-99415750D01*
X160909000Y-100965000D01*
X160929000Y-100965000D01*
X160929000Y-101219000D01*
X160909000Y-101219000D01*
X160909000Y-102768250D01*
X161067750Y-102927000D01*
X161982000Y-102930072D01*
X162106482Y-102917812D01*
X162226180Y-102881502D01*
X162336494Y-102822537D01*
X162433185Y-102743185D01*
X162512537Y-102646494D01*
X162571502Y-102536180D01*
X162607812Y-102416482D01*
X162620072Y-102292000D01*
X162618659Y-101871426D01*
X162655844Y-101961199D01*
X162856662Y-102261744D01*
X163112256Y-102517338D01*
X163412801Y-102718156D01*
X163746750Y-102856482D01*
X164101268Y-102927000D01*
X164462732Y-102927000D01*
X164817250Y-102856482D01*
X165151199Y-102718156D01*
X165451744Y-102517338D01*
X165707338Y-102261744D01*
X165908156Y-101961199D01*
X166032000Y-101662213D01*
X166155844Y-101961199D01*
X166356662Y-102261744D01*
X166612256Y-102517338D01*
X166912801Y-102718156D01*
X167246750Y-102856482D01*
X167601268Y-102927000D01*
X167962732Y-102927000D01*
X168317250Y-102856482D01*
X168651199Y-102718156D01*
X168951744Y-102517338D01*
X169207338Y-102261744D01*
X169408156Y-101961199D01*
X169438528Y-101887872D01*
X175565000Y-101887872D01*
X175565000Y-102328128D01*
X175650890Y-102759925D01*
X175819369Y-103166669D01*
X176063962Y-103532729D01*
X176375271Y-103844038D01*
X176741331Y-104088631D01*
X177148075Y-104257110D01*
X177579872Y-104343000D01*
X178020128Y-104343000D01*
X178451925Y-104257110D01*
X178858669Y-104088631D01*
X179224729Y-103844038D01*
X179536038Y-103532729D01*
X179780631Y-103166669D01*
X179949110Y-102759925D01*
X180035000Y-102328128D01*
X180035000Y-101887872D01*
X179949110Y-101456075D01*
X179780631Y-101049331D01*
X179536038Y-100683271D01*
X179224729Y-100371962D01*
X178858669Y-100127369D01*
X178451925Y-99958890D01*
X178020128Y-99873000D01*
X177579872Y-99873000D01*
X177148075Y-99958890D01*
X176741331Y-100127369D01*
X176375271Y-100371962D01*
X176063962Y-100683271D01*
X175819369Y-101049331D01*
X175650890Y-101456075D01*
X175565000Y-101887872D01*
X169438528Y-101887872D01*
X169546482Y-101627250D01*
X169617000Y-101272732D01*
X169617000Y-100911268D01*
X169546482Y-100556750D01*
X169408156Y-100222801D01*
X169207338Y-99922256D01*
X168951744Y-99666662D01*
X168651199Y-99465844D01*
X168317250Y-99327518D01*
X167962732Y-99257000D01*
X167601268Y-99257000D01*
X167246750Y-99327518D01*
X166912801Y-99465844D01*
X166612256Y-99666662D01*
X166356662Y-99922256D01*
X166155844Y-100222801D01*
X166032000Y-100521787D01*
X165908156Y-100222801D01*
X165707338Y-99922256D01*
X165451744Y-99666662D01*
X165151199Y-99465844D01*
X164817250Y-99327518D01*
X164462732Y-99257000D01*
X164101268Y-99257000D01*
X163746750Y-99327518D01*
X163412801Y-99465844D01*
X163112256Y-99666662D01*
X162856662Y-99922256D01*
X162655844Y-100222801D01*
X162618659Y-100312574D01*
X162620072Y-99892000D01*
X162607812Y-99767518D01*
X162571502Y-99647820D01*
X162512537Y-99537506D01*
X162433185Y-99440815D01*
X162336494Y-99361463D01*
X162226180Y-99302498D01*
X162106482Y-99266188D01*
X161982000Y-99253928D01*
X161067750Y-99257000D01*
X160909000Y-99415750D01*
X160655000Y-99415750D01*
X160496250Y-99257000D01*
X159582000Y-99253928D01*
X159457518Y-99266188D01*
X159337820Y-99302498D01*
X159227506Y-99361463D01*
X159130815Y-99440815D01*
X159051463Y-99537506D01*
X158992498Y-99647820D01*
X158956188Y-99767518D01*
X158943928Y-99892000D01*
X146761794Y-99892000D01*
X146668775Y-99667434D01*
X146457013Y-99350509D01*
X146187491Y-99080987D01*
X145870566Y-98869225D01*
X145518419Y-98723361D01*
X145144581Y-98649000D01*
X144763419Y-98649000D01*
X144389581Y-98723361D01*
X144037434Y-98869225D01*
X143720509Y-99080987D01*
X143450987Y-99350509D01*
X143239225Y-99667434D01*
X143093361Y-100019581D01*
X143019000Y-100393419D01*
X141892072Y-100393419D01*
X141892072Y-99284000D01*
X141879812Y-99159518D01*
X141843502Y-99039820D01*
X141784537Y-98929506D01*
X141705185Y-98832815D01*
X141608494Y-98753463D01*
X141498180Y-98694498D01*
X141378482Y-98658188D01*
X141254000Y-98645928D01*
X138654000Y-98645928D01*
X138529518Y-98658188D01*
X138409820Y-98694498D01*
X138299506Y-98753463D01*
X138202815Y-98832815D01*
X138123463Y-98929506D01*
X138064498Y-99039820D01*
X138028188Y-99159518D01*
X138015928Y-99284000D01*
X105333000Y-99284000D01*
X105333000Y-94304000D01*
X121351928Y-94304000D01*
X121351928Y-96704000D01*
X121364188Y-96828482D01*
X121400498Y-96948180D01*
X121459463Y-97058494D01*
X121538815Y-97155185D01*
X121635506Y-97234537D01*
X121745820Y-97293502D01*
X121865518Y-97329812D01*
X121990000Y-97342072D01*
X124390000Y-97342072D01*
X124514482Y-97329812D01*
X124634180Y-97293502D01*
X124744494Y-97234537D01*
X124841185Y-97155185D01*
X124920537Y-97058494D01*
X124979502Y-96948180D01*
X125015812Y-96828482D01*
X125028072Y-96704000D01*
X125028072Y-94304000D01*
X125015812Y-94179518D01*
X124979502Y-94059820D01*
X124920537Y-93949506D01*
X124841185Y-93852815D01*
X124744494Y-93773463D01*
X124634180Y-93714498D01*
X124514482Y-93678188D01*
X124390000Y-93665928D01*
X121990000Y-93665928D01*
X121865518Y-93678188D01*
X121745820Y-93714498D01*
X121635506Y-93773463D01*
X121538815Y-93852815D01*
X121459463Y-93949506D01*
X121400498Y-94059820D01*
X121364188Y-94179518D01*
X121351928Y-94304000D01*
X105333000Y-94304000D01*
X105333000Y-93540344D01*
X138069000Y-93540344D01*
X138069000Y-93911656D01*
X138141439Y-94275834D01*
X138283534Y-94618882D01*
X138489825Y-94927618D01*
X138752382Y-95190175D01*
X139061118Y-95396466D01*
X139404166Y-95538561D01*
X139768344Y-95611000D01*
X140139656Y-95611000D01*
X140503834Y-95538561D01*
X140846882Y-95396466D01*
X141155618Y-95190175D01*
X141418175Y-94927618D01*
X141624466Y-94618882D01*
X141766561Y-94275834D01*
X141839000Y-93911656D01*
X141839000Y-93545268D01*
X148025000Y-93545268D01*
X148025000Y-93906732D01*
X148095518Y-94261250D01*
X148233844Y-94595199D01*
X148434662Y-94895744D01*
X148690256Y-95151338D01*
X148990801Y-95352156D01*
X149324750Y-95490482D01*
X149679268Y-95561000D01*
X150040732Y-95561000D01*
X150395250Y-95490482D01*
X150729199Y-95352156D01*
X151029744Y-95151338D01*
X151285338Y-94895744D01*
X151486156Y-94595199D01*
X151624482Y-94261250D01*
X151695000Y-93906732D01*
X151695000Y-93545268D01*
X151624482Y-93190750D01*
X151486156Y-92856801D01*
X151285338Y-92556256D01*
X151029744Y-92300662D01*
X150729199Y-92099844D01*
X150395250Y-91961518D01*
X150040732Y-91891000D01*
X149679268Y-91891000D01*
X149324750Y-91961518D01*
X148990801Y-92099844D01*
X148690256Y-92300662D01*
X148434662Y-92556256D01*
X148233844Y-92856801D01*
X148095518Y-93190750D01*
X148025000Y-93545268D01*
X141839000Y-93545268D01*
X141839000Y-93540344D01*
X141766561Y-93176166D01*
X141624466Y-92833118D01*
X141418175Y-92524382D01*
X141155618Y-92261825D01*
X140846882Y-92055534D01*
X140503834Y-91913439D01*
X140139656Y-91841000D01*
X139768344Y-91841000D01*
X139404166Y-91913439D01*
X139061118Y-92055534D01*
X138752382Y-92261825D01*
X138489825Y-92524382D01*
X138283534Y-92833118D01*
X138141439Y-93176166D01*
X138069000Y-93540344D01*
X105333000Y-93540344D01*
X105333000Y-88121419D01*
X107793000Y-88121419D01*
X107793000Y-88502581D01*
X107867361Y-88876419D01*
X108013225Y-89228566D01*
X108224987Y-89545491D01*
X108494509Y-89815013D01*
X108811434Y-90026775D01*
X109163581Y-90172639D01*
X109537419Y-90247000D01*
X109918581Y-90247000D01*
X110292419Y-90172639D01*
X110644566Y-90026775D01*
X110961491Y-89815013D01*
X111231013Y-89545491D01*
X111407084Y-89281980D01*
X122091626Y-89281980D01*
X122211514Y-89566836D01*
X122535210Y-89727699D01*
X122884069Y-89822322D01*
X123244684Y-89847067D01*
X123501467Y-89814061D01*
X163975001Y-89814061D01*
X163975001Y-90017939D01*
X164014775Y-90217898D01*
X164092796Y-90406256D01*
X164206064Y-90575774D01*
X164350227Y-90719937D01*
X164519745Y-90833205D01*
X164708103Y-90911226D01*
X164908062Y-90951000D01*
X165111940Y-90951000D01*
X165311899Y-90911226D01*
X165500257Y-90833205D01*
X165669775Y-90719937D01*
X165713712Y-90676000D01*
X166206300Y-90676000D01*
X166250237Y-90719937D01*
X166419755Y-90833205D01*
X166608113Y-90911226D01*
X166808072Y-90951000D01*
X167011950Y-90951000D01*
X167211909Y-90911226D01*
X167400267Y-90833205D01*
X167569785Y-90719937D01*
X167713948Y-90575774D01*
X167827216Y-90406256D01*
X167905237Y-90217898D01*
X167945011Y-90017939D01*
X167945011Y-89814061D01*
X167905237Y-89614102D01*
X167827216Y-89425744D01*
X167713948Y-89256226D01*
X167569785Y-89112063D01*
X167400267Y-88998795D01*
X167211909Y-88920774D01*
X167011950Y-88881000D01*
X166808072Y-88881000D01*
X166608113Y-88920774D01*
X166419755Y-88998795D01*
X166250237Y-89112063D01*
X166206300Y-89156000D01*
X165713712Y-89156000D01*
X165669775Y-89112063D01*
X165500257Y-88998795D01*
X165311899Y-88920774D01*
X165111940Y-88881000D01*
X164908062Y-88881000D01*
X164708103Y-88920774D01*
X164519745Y-88998795D01*
X164350227Y-89112063D01*
X164206064Y-89256226D01*
X164092796Y-89425744D01*
X164014775Y-89614102D01*
X163975001Y-89814061D01*
X123501467Y-89814061D01*
X123603198Y-89800985D01*
X123945833Y-89685846D01*
X124168486Y-89566836D01*
X124288374Y-89281980D01*
X123190000Y-88183605D01*
X122091626Y-89281980D01*
X111407084Y-89281980D01*
X111442775Y-89228566D01*
X111588639Y-88876419D01*
X111663000Y-88502581D01*
X111663000Y-88121419D01*
X111650522Y-88058684D01*
X121346933Y-88058684D01*
X121393015Y-88417198D01*
X121508154Y-88759833D01*
X121627164Y-88982486D01*
X121912020Y-89102374D01*
X123010395Y-88004000D01*
X123369605Y-88004000D01*
X124467980Y-89102374D01*
X124752836Y-88982486D01*
X124913699Y-88658790D01*
X125008322Y-88309931D01*
X125033067Y-87949316D01*
X124986985Y-87590802D01*
X124871846Y-87248167D01*
X124752836Y-87025514D01*
X124467980Y-86905626D01*
X123369605Y-88004000D01*
X123010395Y-88004000D01*
X121912020Y-86905626D01*
X121627164Y-87025514D01*
X121466301Y-87349210D01*
X121371678Y-87698069D01*
X121346933Y-88058684D01*
X111650522Y-88058684D01*
X111588639Y-87747581D01*
X111442775Y-87395434D01*
X111231013Y-87078509D01*
X110961491Y-86808987D01*
X110837322Y-86726020D01*
X122091626Y-86726020D01*
X123190000Y-87824395D01*
X124121333Y-86893061D01*
X160001000Y-86893061D01*
X160001000Y-87096939D01*
X160040774Y-87296898D01*
X160118795Y-87485256D01*
X160232063Y-87654774D01*
X160376226Y-87798937D01*
X160545744Y-87912205D01*
X160734102Y-87990226D01*
X160934061Y-88030000D01*
X161137939Y-88030000D01*
X161233459Y-88011000D01*
X161600541Y-88011000D01*
X161696061Y-88030000D01*
X161899939Y-88030000D01*
X162099898Y-87990226D01*
X162288256Y-87912205D01*
X162457774Y-87798937D01*
X162601937Y-87654774D01*
X162715205Y-87485256D01*
X162775030Y-87340828D01*
X162865186Y-87230972D01*
X162952007Y-87068540D01*
X163005471Y-86892292D01*
X163019000Y-86754932D01*
X163023524Y-86709001D01*
X163019000Y-86663069D01*
X163019000Y-82005290D01*
X163176364Y-82162654D01*
X163205654Y-82198344D01*
X163348026Y-82315186D01*
X163510458Y-82402007D01*
X163582826Y-82423959D01*
X163686706Y-82455472D01*
X163869998Y-82473524D01*
X163915933Y-82469000D01*
X174945928Y-82469000D01*
X174945928Y-82734000D01*
X174958188Y-82858482D01*
X174994498Y-82978180D01*
X175053463Y-83088494D01*
X175132815Y-83185185D01*
X175229506Y-83264537D01*
X175339820Y-83323502D01*
X175459518Y-83359812D01*
X175584000Y-83372072D01*
X177984000Y-83372072D01*
X178108482Y-83359812D01*
X178228180Y-83323502D01*
X178338494Y-83264537D01*
X178435185Y-83185185D01*
X178514537Y-83088494D01*
X178573502Y-82978180D01*
X178609812Y-82858482D01*
X178622072Y-82734000D01*
X178622072Y-80334000D01*
X178609812Y-80209518D01*
X178573502Y-80089820D01*
X178514537Y-79979506D01*
X178435185Y-79882815D01*
X178338494Y-79803463D01*
X178228180Y-79744498D01*
X178108482Y-79708188D01*
X177984000Y-79695928D01*
X177566838Y-79695928D01*
X177653199Y-79660156D01*
X177953744Y-79459338D01*
X178209338Y-79203744D01*
X178410156Y-78903199D01*
X178548482Y-78569250D01*
X178619000Y-78214732D01*
X178619000Y-77853268D01*
X178548482Y-77498750D01*
X178410156Y-77164801D01*
X178209338Y-76864256D01*
X177953744Y-76608662D01*
X177653199Y-76407844D01*
X177319250Y-76269518D01*
X176964732Y-76199000D01*
X176603268Y-76199000D01*
X176248750Y-76269518D01*
X175914801Y-76407844D01*
X175614256Y-76608662D01*
X175358662Y-76864256D01*
X175157844Y-77164801D01*
X175019518Y-77498750D01*
X174949000Y-77853268D01*
X174949000Y-78214732D01*
X175019518Y-78569250D01*
X175157844Y-78903199D01*
X175358662Y-79203744D01*
X175614256Y-79459338D01*
X175914801Y-79660156D01*
X176001162Y-79695928D01*
X175584000Y-79695928D01*
X175459518Y-79708188D01*
X175339820Y-79744498D01*
X175229506Y-79803463D01*
X175132815Y-79882815D01*
X175053463Y-79979506D01*
X174994498Y-80089820D01*
X174958188Y-80209518D01*
X174945928Y-80334000D01*
X174945928Y-80599000D01*
X170788211Y-80599000D01*
X170826494Y-80578537D01*
X170923185Y-80499185D01*
X171002537Y-80402494D01*
X171061502Y-80292180D01*
X171097812Y-80172482D01*
X171110072Y-80048000D01*
X171110072Y-78448000D01*
X171097812Y-78323518D01*
X171061502Y-78203820D01*
X171002537Y-78093506D01*
X170923185Y-77996815D01*
X170826494Y-77917463D01*
X170716180Y-77858498D01*
X170596482Y-77822188D01*
X170472000Y-77809928D01*
X168872000Y-77809928D01*
X168747518Y-77822188D01*
X168627820Y-77858498D01*
X168517506Y-77917463D01*
X168420815Y-77996815D01*
X168410193Y-78009758D01*
X168158004Y-77890429D01*
X167883816Y-77821700D01*
X167601488Y-77807783D01*
X167321870Y-77849213D01*
X167055708Y-77944397D01*
X166930486Y-78011329D01*
X166858903Y-78255298D01*
X167672000Y-79068395D01*
X167686143Y-79054253D01*
X167865748Y-79233858D01*
X167851605Y-79248000D01*
X167865748Y-79262143D01*
X167686143Y-79441748D01*
X167672000Y-79427605D01*
X166858903Y-80240702D01*
X166930486Y-80484671D01*
X167172109Y-80599000D01*
X165200211Y-80599000D01*
X165238494Y-80578537D01*
X165335185Y-80499185D01*
X165414537Y-80402494D01*
X165473502Y-80292180D01*
X165509812Y-80172482D01*
X165522072Y-80048000D01*
X165519000Y-79533750D01*
X165360250Y-79375000D01*
X164211000Y-79375000D01*
X164211000Y-79395000D01*
X163957000Y-79395000D01*
X163957000Y-79375000D01*
X163937000Y-79375000D01*
X163937000Y-79318512D01*
X166231783Y-79318512D01*
X166273213Y-79598130D01*
X166368397Y-79864292D01*
X166435329Y-79989514D01*
X166679298Y-80061097D01*
X167492395Y-79248000D01*
X166679298Y-78434903D01*
X166435329Y-78506486D01*
X166314429Y-78761996D01*
X166245700Y-79036184D01*
X166231783Y-79318512D01*
X163937000Y-79318512D01*
X163937000Y-79121000D01*
X163957000Y-79121000D01*
X163957000Y-77971750D01*
X164211000Y-77971750D01*
X164211000Y-79121000D01*
X165360250Y-79121000D01*
X165519000Y-78962250D01*
X165522072Y-78448000D01*
X165509812Y-78323518D01*
X165473502Y-78203820D01*
X165414537Y-78093506D01*
X165335185Y-77996815D01*
X165238494Y-77917463D01*
X165128180Y-77858498D01*
X165008482Y-77822188D01*
X164884000Y-77809928D01*
X164369750Y-77813000D01*
X164211000Y-77971750D01*
X163957000Y-77971750D01*
X163798250Y-77813000D01*
X163284000Y-77809928D01*
X163159518Y-77822188D01*
X163039820Y-77858498D01*
X162929506Y-77917463D01*
X162832815Y-77996815D01*
X162819210Y-78013393D01*
X162763727Y-77976320D01*
X162502574Y-77868147D01*
X162225335Y-77813000D01*
X161942665Y-77813000D01*
X161665426Y-77868147D01*
X161404273Y-77976320D01*
X161169241Y-78133363D01*
X160969363Y-78333241D01*
X160812320Y-78568273D01*
X160704147Y-78829426D01*
X160649000Y-79106665D01*
X160649000Y-79389335D01*
X160704147Y-79666574D01*
X160812320Y-79927727D01*
X160969363Y-80162759D01*
X161149001Y-80342397D01*
X161149001Y-80885058D01*
X161144476Y-80931000D01*
X161149000Y-80976932D01*
X161149001Y-85962200D01*
X161137939Y-85960000D01*
X160934061Y-85960000D01*
X160734102Y-85999774D01*
X160545744Y-86077795D01*
X160376226Y-86191063D01*
X160232063Y-86335226D01*
X160118795Y-86504744D01*
X160040774Y-86693102D01*
X160001000Y-86893061D01*
X124121333Y-86893061D01*
X124288374Y-86726020D01*
X124168486Y-86441164D01*
X123844790Y-86280301D01*
X123495931Y-86185678D01*
X123135316Y-86160933D01*
X122776802Y-86207015D01*
X122434167Y-86322154D01*
X122211514Y-86441164D01*
X122091626Y-86726020D01*
X110837322Y-86726020D01*
X110644566Y-86597225D01*
X110292419Y-86451361D01*
X109918581Y-86377000D01*
X109537419Y-86377000D01*
X109163581Y-86451361D01*
X108811434Y-86597225D01*
X108494509Y-86808987D01*
X108224987Y-87078509D01*
X108013225Y-87395434D01*
X107867361Y-87747581D01*
X107793000Y-88121419D01*
X105333000Y-88121419D01*
X105333000Y-84661224D01*
X108558381Y-84661224D01*
X108690317Y-84956312D01*
X109031045Y-85127159D01*
X109398557Y-85228250D01*
X109778729Y-85255701D01*
X110156951Y-85208457D01*
X110518690Y-85088333D01*
X110765683Y-84956312D01*
X110897619Y-84661224D01*
X109728000Y-83491605D01*
X108558381Y-84661224D01*
X105333000Y-84661224D01*
X105333000Y-83362729D01*
X107784299Y-83362729D01*
X107831543Y-83740951D01*
X107951667Y-84102690D01*
X108083688Y-84349683D01*
X108378776Y-84481619D01*
X109548395Y-83312000D01*
X109907605Y-83312000D01*
X111077224Y-84481619D01*
X111372312Y-84349683D01*
X111543159Y-84008955D01*
X111644250Y-83641443D01*
X111663103Y-83380344D01*
X138069000Y-83380344D01*
X138069000Y-83751656D01*
X138141439Y-84115834D01*
X138283534Y-84458882D01*
X138489825Y-84767618D01*
X138752382Y-85030175D01*
X139061118Y-85236466D01*
X139404166Y-85378561D01*
X139768344Y-85451000D01*
X140139656Y-85451000D01*
X140503834Y-85378561D01*
X140846882Y-85236466D01*
X141155618Y-85030175D01*
X141418175Y-84767618D01*
X141624466Y-84458882D01*
X141766561Y-84115834D01*
X141839000Y-83751656D01*
X141839000Y-83380344D01*
X141766561Y-83016166D01*
X141624466Y-82673118D01*
X141418175Y-82364382D01*
X141155618Y-82101825D01*
X140846882Y-81895534D01*
X140503834Y-81753439D01*
X140139656Y-81681000D01*
X139768344Y-81681000D01*
X139404166Y-81753439D01*
X139061118Y-81895534D01*
X138752382Y-82101825D01*
X138489825Y-82364382D01*
X138283534Y-82673118D01*
X138141439Y-83016166D01*
X138069000Y-83380344D01*
X111663103Y-83380344D01*
X111671701Y-83261271D01*
X111624457Y-82883049D01*
X111504333Y-82521310D01*
X111372312Y-82274317D01*
X111077224Y-82142381D01*
X109907605Y-83312000D01*
X109548395Y-83312000D01*
X108378776Y-82142381D01*
X108083688Y-82274317D01*
X107912841Y-82615045D01*
X107811750Y-82982557D01*
X107784299Y-83362729D01*
X105333000Y-83362729D01*
X105333000Y-81962776D01*
X108558381Y-81962776D01*
X109728000Y-83132395D01*
X110897619Y-81962776D01*
X110765683Y-81667688D01*
X110424955Y-81496841D01*
X110057443Y-81395750D01*
X109677271Y-81368299D01*
X109299049Y-81415543D01*
X108937310Y-81535667D01*
X108690317Y-81667688D01*
X108558381Y-81962776D01*
X105333000Y-81962776D01*
X105333000Y-80845268D01*
X148025000Y-80845268D01*
X148025000Y-81206732D01*
X148095518Y-81561250D01*
X148233844Y-81895199D01*
X148434662Y-82195744D01*
X148690256Y-82451338D01*
X148990801Y-82652156D01*
X149324750Y-82790482D01*
X149679268Y-82861000D01*
X150040732Y-82861000D01*
X150395250Y-82790482D01*
X150729199Y-82652156D01*
X151029744Y-82451338D01*
X151285338Y-82195744D01*
X151486156Y-81895199D01*
X151624482Y-81561250D01*
X151695000Y-81206732D01*
X151695000Y-80845268D01*
X151624482Y-80490750D01*
X151486156Y-80156801D01*
X151285338Y-79856256D01*
X151029744Y-79600662D01*
X150729199Y-79399844D01*
X150395250Y-79261518D01*
X150040732Y-79191000D01*
X149679268Y-79191000D01*
X149324750Y-79261518D01*
X148990801Y-79399844D01*
X148690256Y-79600662D01*
X148434662Y-79856256D01*
X148233844Y-80156801D01*
X148095518Y-80490750D01*
X148025000Y-80845268D01*
X105333000Y-80845268D01*
X105333000Y-77012000D01*
X107789928Y-77012000D01*
X107789928Y-79612000D01*
X107802188Y-79736482D01*
X107838498Y-79856180D01*
X107897463Y-79966494D01*
X107976815Y-80063185D01*
X108073506Y-80142537D01*
X108183820Y-80201502D01*
X108303518Y-80237812D01*
X108428000Y-80250072D01*
X111028000Y-80250072D01*
X111152482Y-80237812D01*
X111272180Y-80201502D01*
X111382494Y-80142537D01*
X111479185Y-80063185D01*
X111558537Y-79966494D01*
X111572698Y-79940000D01*
X121351928Y-79940000D01*
X121364188Y-80064482D01*
X121400498Y-80184180D01*
X121459463Y-80294494D01*
X121538815Y-80391185D01*
X121635506Y-80470537D01*
X121745820Y-80529502D01*
X121865518Y-80565812D01*
X121990000Y-80578072D01*
X122904250Y-80575000D01*
X123063000Y-80416250D01*
X123063000Y-78867000D01*
X123317000Y-78867000D01*
X123317000Y-80416250D01*
X123475750Y-80575000D01*
X124390000Y-80578072D01*
X124514482Y-80565812D01*
X124634180Y-80529502D01*
X124744494Y-80470537D01*
X124841185Y-80391185D01*
X124920537Y-80294494D01*
X124979502Y-80184180D01*
X125015812Y-80064482D01*
X125028072Y-79940000D01*
X125026278Y-79405805D01*
X131815805Y-79405805D01*
X131888379Y-79645066D01*
X132048361Y-79967257D01*
X132268125Y-80252046D01*
X132539226Y-80488489D01*
X132851246Y-80667500D01*
X133192194Y-80782199D01*
X133477000Y-80665854D01*
X133477000Y-79121000D01*
X133731000Y-79121000D01*
X133731000Y-80665854D01*
X134015806Y-80782199D01*
X134356754Y-80667500D01*
X134668774Y-80488489D01*
X134939875Y-80252046D01*
X135159639Y-79967257D01*
X135319621Y-79645066D01*
X135392195Y-79405805D01*
X135275432Y-79121000D01*
X133731000Y-79121000D01*
X133477000Y-79121000D01*
X131932568Y-79121000D01*
X131815805Y-79405805D01*
X125026278Y-79405805D01*
X125025000Y-79025750D01*
X124866250Y-78867000D01*
X123317000Y-78867000D01*
X123063000Y-78867000D01*
X121513750Y-78867000D01*
X121355000Y-79025750D01*
X121351928Y-79940000D01*
X111572698Y-79940000D01*
X111617502Y-79856180D01*
X111653812Y-79736482D01*
X111666072Y-79612000D01*
X111666072Y-77540000D01*
X121351928Y-77540000D01*
X121355000Y-78454250D01*
X121513750Y-78613000D01*
X123063000Y-78613000D01*
X123063000Y-77063750D01*
X123317000Y-77063750D01*
X123317000Y-78613000D01*
X124866250Y-78613000D01*
X124897055Y-78582195D01*
X131815805Y-78582195D01*
X131932568Y-78867000D01*
X133477000Y-78867000D01*
X133477000Y-77322146D01*
X133731000Y-77322146D01*
X133731000Y-78867000D01*
X135275432Y-78867000D01*
X135297460Y-78813268D01*
X144469000Y-78813268D01*
X144469000Y-79174732D01*
X144539518Y-79529250D01*
X144677844Y-79863199D01*
X144878662Y-80163744D01*
X145134256Y-80419338D01*
X145434801Y-80620156D01*
X145768750Y-80758482D01*
X146123268Y-80829000D01*
X146484732Y-80829000D01*
X146839250Y-80758482D01*
X147173199Y-80620156D01*
X147473744Y-80419338D01*
X147729338Y-80163744D01*
X147930156Y-79863199D01*
X148068482Y-79529250D01*
X148139000Y-79174732D01*
X148139000Y-78813268D01*
X148068482Y-78458750D01*
X147930156Y-78124801D01*
X147729338Y-77824256D01*
X147473744Y-77568662D01*
X147173199Y-77367844D01*
X146839250Y-77229518D01*
X146484732Y-77159000D01*
X146123268Y-77159000D01*
X145768750Y-77229518D01*
X145434801Y-77367844D01*
X145134256Y-77568662D01*
X144878662Y-77824256D01*
X144677844Y-78124801D01*
X144539518Y-78458750D01*
X144469000Y-78813268D01*
X135297460Y-78813268D01*
X135392195Y-78582195D01*
X135319621Y-78342934D01*
X135159639Y-78020743D01*
X134939875Y-77735954D01*
X134668774Y-77499511D01*
X134356754Y-77320500D01*
X134015806Y-77205801D01*
X133731000Y-77322146D01*
X133477000Y-77322146D01*
X133192194Y-77205801D01*
X132851246Y-77320500D01*
X132539226Y-77499511D01*
X132268125Y-77735954D01*
X132048361Y-78020743D01*
X131888379Y-78342934D01*
X131815805Y-78582195D01*
X124897055Y-78582195D01*
X125025000Y-78454250D01*
X125028072Y-77540000D01*
X125015812Y-77415518D01*
X124979502Y-77295820D01*
X124920537Y-77185506D01*
X124841185Y-77088815D01*
X124744494Y-77009463D01*
X124634180Y-76950498D01*
X124514482Y-76914188D01*
X124390000Y-76901928D01*
X123475750Y-76905000D01*
X123317000Y-77063750D01*
X123063000Y-77063750D01*
X122904250Y-76905000D01*
X121990000Y-76901928D01*
X121865518Y-76914188D01*
X121745820Y-76950498D01*
X121635506Y-77009463D01*
X121538815Y-77088815D01*
X121459463Y-77185506D01*
X121400498Y-77295820D01*
X121364188Y-77415518D01*
X121351928Y-77540000D01*
X111666072Y-77540000D01*
X111666072Y-77012000D01*
X111653812Y-76887518D01*
X111617502Y-76767820D01*
X111558537Y-76657506D01*
X111479185Y-76560815D01*
X111382494Y-76481463D01*
X111272180Y-76422498D01*
X111152482Y-76386188D01*
X111028000Y-76373928D01*
X108428000Y-76373928D01*
X108303518Y-76386188D01*
X108183820Y-76422498D01*
X108073506Y-76481463D01*
X107976815Y-76560815D01*
X107897463Y-76657506D01*
X107838498Y-76767820D01*
X107802188Y-76887518D01*
X107789928Y-77012000D01*
X105333000Y-77012000D01*
X105333000Y-75042665D01*
X140043000Y-75042665D01*
X140043000Y-75325335D01*
X140098147Y-75602574D01*
X140206320Y-75863727D01*
X140363363Y-76098759D01*
X140563241Y-76298637D01*
X140798273Y-76455680D01*
X141059426Y-76563853D01*
X141336665Y-76619000D01*
X141619335Y-76619000D01*
X141896574Y-76563853D01*
X142157727Y-76455680D01*
X142392759Y-76298637D01*
X142592637Y-76098759D01*
X142749680Y-75863727D01*
X142857853Y-75602574D01*
X142913000Y-75325335D01*
X142913000Y-75042665D01*
X145043000Y-75042665D01*
X145043000Y-75325335D01*
X145098147Y-75602574D01*
X145206320Y-75863727D01*
X145363363Y-76098759D01*
X145563241Y-76298637D01*
X145798273Y-76455680D01*
X146059426Y-76563853D01*
X146336665Y-76619000D01*
X146619335Y-76619000D01*
X146896574Y-76563853D01*
X147157727Y-76455680D01*
X147392759Y-76298637D01*
X147592637Y-76098759D01*
X147749680Y-75863727D01*
X147857853Y-75602574D01*
X147913000Y-75325335D01*
X147913000Y-75184000D01*
X152375993Y-75184000D01*
X152381000Y-75234838D01*
X152381000Y-75285939D01*
X152381001Y-75285944D01*
X152381001Y-75844057D01*
X152381000Y-75844061D01*
X152381000Y-75895162D01*
X152375993Y-75946000D01*
X152381000Y-75996838D01*
X152381000Y-76047939D01*
X152381001Y-76047942D01*
X152381000Y-76657158D01*
X152375993Y-76708000D01*
X152381000Y-76758841D01*
X152381000Y-77419162D01*
X152375993Y-77470000D01*
X152381000Y-77520837D01*
X152381000Y-77571939D01*
X152390969Y-77622057D01*
X152395976Y-77672895D01*
X152410804Y-77721777D01*
X152420774Y-77771898D01*
X152440331Y-77819113D01*
X152455159Y-77867993D01*
X152479238Y-77913042D01*
X152498795Y-77960256D01*
X152527186Y-78002746D01*
X152536805Y-78020743D01*
X152551266Y-78047797D01*
X152583672Y-78087284D01*
X152612063Y-78129774D01*
X152648197Y-78165908D01*
X152680604Y-78205396D01*
X152720092Y-78237803D01*
X152756226Y-78273937D01*
X152798716Y-78302328D01*
X152838203Y-78334734D01*
X152883254Y-78358814D01*
X152925744Y-78387205D01*
X152972958Y-78406762D01*
X153018007Y-78430841D01*
X153066887Y-78445669D01*
X153114102Y-78465226D01*
X153164223Y-78475196D01*
X153213105Y-78490024D01*
X153263943Y-78495031D01*
X153305000Y-78503198D01*
X153305000Y-80658888D01*
X153298282Y-80770595D01*
X153342039Y-81089675D01*
X153447205Y-81394088D01*
X153540186Y-81568044D01*
X153804587Y-81663808D01*
X154125395Y-81343000D01*
X154484605Y-81343000D01*
X153984192Y-81843413D01*
X154079956Y-82107814D01*
X154369571Y-82248704D01*
X154681108Y-82330384D01*
X155002595Y-82349718D01*
X155321675Y-82305961D01*
X155626088Y-82200795D01*
X155800044Y-82107814D01*
X155895808Y-81843413D01*
X155395395Y-81343000D01*
X155754605Y-81343000D01*
X156075413Y-81663808D01*
X156339814Y-81568044D01*
X156480704Y-81278429D01*
X156562384Y-80966892D01*
X156581718Y-80645405D01*
X156575000Y-80596417D01*
X156575000Y-78503198D01*
X156616057Y-78495031D01*
X156666895Y-78490024D01*
X156715777Y-78475196D01*
X156765898Y-78465226D01*
X156813113Y-78445669D01*
X156861993Y-78430841D01*
X156907042Y-78406762D01*
X156954256Y-78387205D01*
X156996746Y-78358814D01*
X157041797Y-78334734D01*
X157081284Y-78302328D01*
X157123774Y-78273937D01*
X157159908Y-78237803D01*
X157199396Y-78205396D01*
X157231803Y-78165908D01*
X157267937Y-78129774D01*
X157296328Y-78087284D01*
X157328734Y-78047797D01*
X157352814Y-78002746D01*
X157381205Y-77960256D01*
X157400762Y-77913042D01*
X157424841Y-77867993D01*
X157439669Y-77819113D01*
X157459226Y-77771898D01*
X157469196Y-77721777D01*
X157484024Y-77672895D01*
X157489031Y-77622057D01*
X157499000Y-77571939D01*
X157499000Y-77520837D01*
X157504007Y-77470000D01*
X157499000Y-77419162D01*
X157499000Y-76758838D01*
X157504007Y-76708000D01*
X157499000Y-76657162D01*
X157499000Y-75996838D01*
X157504007Y-75946000D01*
X157499000Y-75895162D01*
X157499000Y-75234838D01*
X157504007Y-75184000D01*
X157499000Y-75133162D01*
X157499000Y-75082061D01*
X157489031Y-75031943D01*
X157484024Y-74981105D01*
X157469196Y-74932223D01*
X157459226Y-74882102D01*
X157439669Y-74834887D01*
X157424841Y-74786007D01*
X157400762Y-74740958D01*
X157381205Y-74693744D01*
X157352814Y-74651254D01*
X157328734Y-74606203D01*
X157296328Y-74566716D01*
X157267937Y-74524226D01*
X157231803Y-74488092D01*
X157199396Y-74448604D01*
X157159908Y-74416197D01*
X157123774Y-74380063D01*
X157081284Y-74351672D01*
X157041797Y-74319266D01*
X156996746Y-74295186D01*
X156954256Y-74266795D01*
X156907042Y-74247238D01*
X156861993Y-74223159D01*
X156813113Y-74208331D01*
X156765898Y-74188774D01*
X156715777Y-74178804D01*
X156666895Y-74163976D01*
X156616057Y-74158969D01*
X156565939Y-74149000D01*
X156514838Y-74149000D01*
X156464000Y-74143993D01*
X156413162Y-74149000D01*
X153466838Y-74149000D01*
X153416000Y-74143993D01*
X153365162Y-74149000D01*
X153314061Y-74149000D01*
X153263943Y-74158969D01*
X153213105Y-74163976D01*
X153164223Y-74178804D01*
X153114102Y-74188774D01*
X153066887Y-74208331D01*
X153018007Y-74223159D01*
X152972958Y-74247238D01*
X152925744Y-74266795D01*
X152883254Y-74295186D01*
X152838203Y-74319266D01*
X152798716Y-74351672D01*
X152756226Y-74380063D01*
X152720092Y-74416197D01*
X152680604Y-74448604D01*
X152648197Y-74488092D01*
X152612063Y-74524226D01*
X152583672Y-74566716D01*
X152551266Y-74606203D01*
X152527186Y-74651254D01*
X152498795Y-74693744D01*
X152479238Y-74740958D01*
X152455159Y-74786007D01*
X152440331Y-74834887D01*
X152420774Y-74882102D01*
X152410804Y-74932223D01*
X152395976Y-74981105D01*
X152390969Y-75031943D01*
X152381000Y-75082061D01*
X152381000Y-75133162D01*
X152375993Y-75184000D01*
X147913000Y-75184000D01*
X147913000Y-75042665D01*
X147857853Y-74765426D01*
X147749680Y-74504273D01*
X147592637Y-74269241D01*
X147392759Y-74069363D01*
X147157727Y-73912320D01*
X146896574Y-73804147D01*
X146619335Y-73749000D01*
X146336665Y-73749000D01*
X146059426Y-73804147D01*
X145798273Y-73912320D01*
X145563241Y-74069363D01*
X145363363Y-74269241D01*
X145206320Y-74504273D01*
X145098147Y-74765426D01*
X145043000Y-75042665D01*
X142913000Y-75042665D01*
X142857853Y-74765426D01*
X142749680Y-74504273D01*
X142592637Y-74269241D01*
X142392759Y-74069363D01*
X142157727Y-73912320D01*
X141896574Y-73804147D01*
X141619335Y-73749000D01*
X141336665Y-73749000D01*
X141059426Y-73804147D01*
X140798273Y-73912320D01*
X140563241Y-74069363D01*
X140363363Y-74269241D01*
X140206320Y-74504273D01*
X140098147Y-74765426D01*
X140043000Y-75042665D01*
X105333000Y-75042665D01*
X105333000Y-71059268D01*
X121355000Y-71059268D01*
X121355000Y-71420732D01*
X121425518Y-71775250D01*
X121563844Y-72109199D01*
X121764662Y-72409744D01*
X122020256Y-72665338D01*
X122320801Y-72866156D01*
X122654750Y-73004482D01*
X123009268Y-73075000D01*
X123370732Y-73075000D01*
X123725250Y-73004482D01*
X124059199Y-72866156D01*
X124359744Y-72665338D01*
X124615338Y-72409744D01*
X124816156Y-72109199D01*
X124954482Y-71775250D01*
X125025000Y-71420732D01*
X125025000Y-71059268D01*
X124954482Y-70704750D01*
X124816156Y-70370801D01*
X124615338Y-70070256D01*
X124359744Y-69814662D01*
X124059199Y-69613844D01*
X123725250Y-69475518D01*
X123370732Y-69405000D01*
X123009268Y-69405000D01*
X122654750Y-69475518D01*
X122320801Y-69613844D01*
X122020256Y-69814662D01*
X121764662Y-70070256D01*
X121563844Y-70370801D01*
X121425518Y-70704750D01*
X121355000Y-71059268D01*
X105333000Y-71059268D01*
X105333000Y-69190512D01*
X133179783Y-69190512D01*
X133221213Y-69470130D01*
X133316397Y-69736292D01*
X133381616Y-69858309D01*
X133368815Y-69868815D01*
X133289463Y-69965506D01*
X133230498Y-70075820D01*
X133194188Y-70195518D01*
X133181928Y-70320000D01*
X133181928Y-71920000D01*
X133194188Y-72044482D01*
X133230498Y-72164180D01*
X133289463Y-72274494D01*
X133368815Y-72371185D01*
X133465506Y-72450537D01*
X133575820Y-72509502D01*
X133695518Y-72545812D01*
X133820000Y-72558072D01*
X135420000Y-72558072D01*
X135544482Y-72545812D01*
X135643000Y-72515927D01*
X135643000Y-72517002D01*
X135801748Y-72517002D01*
X135643000Y-72675750D01*
X135639928Y-73265000D01*
X135652188Y-73389482D01*
X135688498Y-73509180D01*
X135747463Y-73619494D01*
X135826815Y-73716185D01*
X135923506Y-73795537D01*
X136033820Y-73854502D01*
X136153518Y-73890812D01*
X136278000Y-73903072D01*
X136617250Y-73900000D01*
X136776000Y-73741250D01*
X136776000Y-72517000D01*
X137030000Y-72517000D01*
X137030000Y-73741250D01*
X137188750Y-73900000D01*
X137528000Y-73903072D01*
X137652482Y-73890812D01*
X137772180Y-73854502D01*
X137882494Y-73795537D01*
X137979185Y-73716185D01*
X138058537Y-73619494D01*
X138117502Y-73509180D01*
X138153812Y-73389482D01*
X138166072Y-73265000D01*
X138163000Y-72675750D01*
X138004250Y-72517000D01*
X137030000Y-72517000D01*
X136776000Y-72517000D01*
X136756000Y-72517000D01*
X136756000Y-72263000D01*
X136776000Y-72263000D01*
X136776000Y-71038750D01*
X137030000Y-71038750D01*
X137030000Y-72263000D01*
X138004250Y-72263000D01*
X138163000Y-72104250D01*
X138166072Y-71515000D01*
X138153812Y-71390518D01*
X138117502Y-71270820D01*
X138058537Y-71160506D01*
X137979185Y-71063815D01*
X137882494Y-70984463D01*
X137772180Y-70925498D01*
X137652482Y-70889188D01*
X137528000Y-70876928D01*
X137188750Y-70880000D01*
X137030000Y-71038750D01*
X136776000Y-71038750D01*
X136617250Y-70880000D01*
X136278000Y-70876928D01*
X136153518Y-70889188D01*
X136058072Y-70918141D01*
X136058072Y-70320000D01*
X136045812Y-70195518D01*
X136009502Y-70075820D01*
X135950537Y-69965506D01*
X135871185Y-69868815D01*
X135858242Y-69858193D01*
X135977571Y-69606004D01*
X136046300Y-69331816D01*
X136060217Y-69049488D01*
X136035401Y-68882000D01*
X138009928Y-68882000D01*
X138009928Y-70882000D01*
X138022188Y-71006482D01*
X138058498Y-71126180D01*
X138117463Y-71236494D01*
X138196815Y-71333185D01*
X138293506Y-71412537D01*
X138403820Y-71471502D01*
X138443000Y-71483387D01*
X138443000Y-71733807D01*
X138439928Y-71765000D01*
X138439928Y-73015000D01*
X138456992Y-73188254D01*
X138507528Y-73354850D01*
X138589595Y-73508386D01*
X138700038Y-73642962D01*
X138834614Y-73753405D01*
X138988150Y-73835472D01*
X139154746Y-73886008D01*
X139328000Y-73903072D01*
X140078000Y-73903072D01*
X140251254Y-73886008D01*
X140417850Y-73835472D01*
X140571386Y-73753405D01*
X140705962Y-73642962D01*
X140816405Y-73508386D01*
X140898472Y-73354850D01*
X140949008Y-73188254D01*
X140966072Y-73015000D01*
X140966072Y-71765000D01*
X140963000Y-71733809D01*
X140963000Y-71433647D01*
X141002494Y-71412537D01*
X141099185Y-71333185D01*
X141178537Y-71236494D01*
X141237502Y-71126180D01*
X141273812Y-71006482D01*
X141286072Y-70882000D01*
X141286072Y-69720967D01*
X141413000Y-69720967D01*
X141413000Y-70043033D01*
X141475832Y-70358912D01*
X141599082Y-70656463D01*
X141778013Y-70924252D01*
X142005748Y-71151987D01*
X142273537Y-71330918D01*
X142571088Y-71454168D01*
X142886967Y-71517000D01*
X143209033Y-71517000D01*
X143524912Y-71454168D01*
X143822463Y-71330918D01*
X144090252Y-71151987D01*
X144317987Y-70924252D01*
X144496918Y-70656463D01*
X144620168Y-70358912D01*
X144683000Y-70043033D01*
X144683000Y-69720967D01*
X144813000Y-69720967D01*
X144813000Y-70043033D01*
X144875832Y-70358912D01*
X144999082Y-70656463D01*
X145178013Y-70924252D01*
X145405748Y-71151987D01*
X145673537Y-71330918D01*
X145971088Y-71454168D01*
X146286967Y-71517000D01*
X146609033Y-71517000D01*
X146924912Y-71454168D01*
X147222463Y-71330918D01*
X147490252Y-71151987D01*
X147624826Y-71017413D01*
X148892192Y-71017413D01*
X148987956Y-71281814D01*
X149277571Y-71422704D01*
X149589108Y-71504384D01*
X149910595Y-71523718D01*
X150229675Y-71479961D01*
X150534088Y-71374795D01*
X150708044Y-71281814D01*
X150803808Y-71017413D01*
X149848000Y-70061605D01*
X148892192Y-71017413D01*
X147624826Y-71017413D01*
X147717987Y-70924252D01*
X147896918Y-70656463D01*
X148020168Y-70358912D01*
X148083000Y-70043033D01*
X148083000Y-69944595D01*
X148206282Y-69944595D01*
X148250039Y-70263675D01*
X148355205Y-70568088D01*
X148448186Y-70742044D01*
X148712587Y-70837808D01*
X149668395Y-69882000D01*
X150027605Y-69882000D01*
X150983413Y-70837808D01*
X151247814Y-70742044D01*
X151388704Y-70452429D01*
X151470384Y-70140892D01*
X151489718Y-69819405D01*
X151476219Y-69720967D01*
X151613000Y-69720967D01*
X151613000Y-70043033D01*
X151675832Y-70358912D01*
X151799082Y-70656463D01*
X151978013Y-70924252D01*
X152205748Y-71151987D01*
X152473537Y-71330918D01*
X152771088Y-71454168D01*
X153086967Y-71517000D01*
X153409033Y-71517000D01*
X153724912Y-71454168D01*
X154022463Y-71330918D01*
X154290252Y-71151987D01*
X154517987Y-70924252D01*
X154696918Y-70656463D01*
X154820168Y-70358912D01*
X154883000Y-70043033D01*
X154883000Y-69720967D01*
X155013000Y-69720967D01*
X155013000Y-70043033D01*
X155075832Y-70358912D01*
X155199082Y-70656463D01*
X155378013Y-70924252D01*
X155605748Y-71151987D01*
X155873537Y-71330918D01*
X156171088Y-71454168D01*
X156486967Y-71517000D01*
X156809033Y-71517000D01*
X156961537Y-71486665D01*
X161125000Y-71486665D01*
X161125000Y-71769335D01*
X161180147Y-72046574D01*
X161288320Y-72307727D01*
X161445363Y-72542759D01*
X161645241Y-72742637D01*
X161847827Y-72878000D01*
X161645241Y-73013363D01*
X161445363Y-73213241D01*
X161288320Y-73448273D01*
X161180147Y-73709426D01*
X161125000Y-73986665D01*
X161125000Y-74269335D01*
X161180147Y-74546574D01*
X161288320Y-74807727D01*
X161445363Y-75042759D01*
X161645241Y-75242637D01*
X161880273Y-75399680D01*
X162141426Y-75507853D01*
X162418665Y-75563000D01*
X162701335Y-75563000D01*
X162978574Y-75507853D01*
X163239727Y-75399680D01*
X163474759Y-75242637D01*
X163674637Y-75042759D01*
X163831680Y-74807727D01*
X163939853Y-74546574D01*
X163995000Y-74269335D01*
X163995000Y-73986665D01*
X163939853Y-73709426D01*
X163831680Y-73448273D01*
X163674637Y-73213241D01*
X163474759Y-73013363D01*
X163272173Y-72878000D01*
X163474759Y-72742637D01*
X163674637Y-72542759D01*
X163831680Y-72307727D01*
X163939853Y-72046574D01*
X163995000Y-71769335D01*
X163995000Y-71486665D01*
X167983000Y-71486665D01*
X167983000Y-71769335D01*
X168038147Y-72046574D01*
X168146320Y-72307727D01*
X168303363Y-72542759D01*
X168503241Y-72742637D01*
X168705827Y-72878000D01*
X168503241Y-73013363D01*
X168303363Y-73213241D01*
X168146320Y-73448273D01*
X168038147Y-73709426D01*
X167983000Y-73986665D01*
X167983000Y-74269335D01*
X168038147Y-74546574D01*
X168146320Y-74807727D01*
X168303363Y-75042759D01*
X168503241Y-75242637D01*
X168738273Y-75399680D01*
X168999426Y-75507853D01*
X169276665Y-75563000D01*
X169559335Y-75563000D01*
X169836574Y-75507853D01*
X170097727Y-75399680D01*
X170332759Y-75242637D01*
X170532637Y-75042759D01*
X170689680Y-74807727D01*
X170797853Y-74546574D01*
X170853000Y-74269335D01*
X170853000Y-73986665D01*
X170797853Y-73709426D01*
X170689680Y-73448273D01*
X170532637Y-73213241D01*
X170332759Y-73013363D01*
X170130173Y-72878000D01*
X170332759Y-72742637D01*
X170532637Y-72542759D01*
X170689680Y-72307727D01*
X170797853Y-72046574D01*
X170853000Y-71769335D01*
X170853000Y-71486665D01*
X170797853Y-71209426D01*
X170689680Y-70948273D01*
X170532637Y-70713241D01*
X170332759Y-70513363D01*
X170097727Y-70356320D01*
X169836574Y-70248147D01*
X169559335Y-70193000D01*
X169276665Y-70193000D01*
X168999426Y-70248147D01*
X168738273Y-70356320D01*
X168503241Y-70513363D01*
X168303363Y-70713241D01*
X168146320Y-70948273D01*
X168038147Y-71209426D01*
X167983000Y-71486665D01*
X163995000Y-71486665D01*
X163939853Y-71209426D01*
X163831680Y-70948273D01*
X163674637Y-70713241D01*
X163474759Y-70513363D01*
X163239727Y-70356320D01*
X162978574Y-70248147D01*
X162701335Y-70193000D01*
X162418665Y-70193000D01*
X162141426Y-70248147D01*
X161880273Y-70356320D01*
X161645241Y-70513363D01*
X161445363Y-70713241D01*
X161288320Y-70948273D01*
X161180147Y-71209426D01*
X161125000Y-71486665D01*
X156961537Y-71486665D01*
X157124912Y-71454168D01*
X157422463Y-71330918D01*
X157690252Y-71151987D01*
X157917987Y-70924252D01*
X158096918Y-70656463D01*
X158220168Y-70358912D01*
X158283000Y-70043033D01*
X158283000Y-69720967D01*
X158220168Y-69405088D01*
X158096918Y-69107537D01*
X157917987Y-68839748D01*
X157690252Y-68612013D01*
X157422463Y-68433082D01*
X157124912Y-68309832D01*
X156809033Y-68247000D01*
X156486967Y-68247000D01*
X156171088Y-68309832D01*
X155873537Y-68433082D01*
X155605748Y-68612013D01*
X155378013Y-68839748D01*
X155199082Y-69107537D01*
X155075832Y-69405088D01*
X155013000Y-69720967D01*
X154883000Y-69720967D01*
X154820168Y-69405088D01*
X154696918Y-69107537D01*
X154517987Y-68839748D01*
X154290252Y-68612013D01*
X154022463Y-68433082D01*
X153724912Y-68309832D01*
X153409033Y-68247000D01*
X153086967Y-68247000D01*
X152771088Y-68309832D01*
X152473537Y-68433082D01*
X152205748Y-68612013D01*
X151978013Y-68839748D01*
X151799082Y-69107537D01*
X151675832Y-69405088D01*
X151613000Y-69720967D01*
X151476219Y-69720967D01*
X151445961Y-69500325D01*
X151340795Y-69195912D01*
X151247814Y-69021956D01*
X150983413Y-68926192D01*
X150027605Y-69882000D01*
X149668395Y-69882000D01*
X148712587Y-68926192D01*
X148448186Y-69021956D01*
X148307296Y-69311571D01*
X148225616Y-69623108D01*
X148206282Y-69944595D01*
X148083000Y-69944595D01*
X148083000Y-69720967D01*
X148020168Y-69405088D01*
X147896918Y-69107537D01*
X147717987Y-68839748D01*
X147624826Y-68746587D01*
X148892192Y-68746587D01*
X149848000Y-69702395D01*
X150803808Y-68746587D01*
X150708044Y-68482186D01*
X150418429Y-68341296D01*
X150106892Y-68259616D01*
X149785405Y-68240282D01*
X149466325Y-68284039D01*
X149161912Y-68389205D01*
X148987956Y-68482186D01*
X148892192Y-68746587D01*
X147624826Y-68746587D01*
X147490252Y-68612013D01*
X147222463Y-68433082D01*
X146924912Y-68309832D01*
X146609033Y-68247000D01*
X146286967Y-68247000D01*
X145971088Y-68309832D01*
X145673537Y-68433082D01*
X145405748Y-68612013D01*
X145178013Y-68839748D01*
X144999082Y-69107537D01*
X144875832Y-69405088D01*
X144813000Y-69720967D01*
X144683000Y-69720967D01*
X144620168Y-69405088D01*
X144496918Y-69107537D01*
X144317987Y-68839748D01*
X144090252Y-68612013D01*
X143822463Y-68433082D01*
X143524912Y-68309832D01*
X143209033Y-68247000D01*
X142886967Y-68247000D01*
X142571088Y-68309832D01*
X142273537Y-68433082D01*
X142005748Y-68612013D01*
X141778013Y-68839748D01*
X141599082Y-69107537D01*
X141475832Y-69405088D01*
X141413000Y-69720967D01*
X141286072Y-69720967D01*
X141286072Y-68882000D01*
X141273812Y-68757518D01*
X141237502Y-68637820D01*
X141178537Y-68527506D01*
X141099185Y-68430815D01*
X141002494Y-68351463D01*
X140892180Y-68292498D01*
X140772482Y-68256188D01*
X140648000Y-68243928D01*
X138648000Y-68243928D01*
X138523518Y-68256188D01*
X138403820Y-68292498D01*
X138293506Y-68351463D01*
X138196815Y-68430815D01*
X138117463Y-68527506D01*
X138058498Y-68637820D01*
X138022188Y-68757518D01*
X138009928Y-68882000D01*
X136035401Y-68882000D01*
X136018787Y-68769870D01*
X135923603Y-68503708D01*
X135856671Y-68378486D01*
X135612702Y-68306903D01*
X134799605Y-69120000D01*
X134813748Y-69134143D01*
X134634143Y-69313748D01*
X134620000Y-69299605D01*
X134605858Y-69313748D01*
X134426253Y-69134143D01*
X134440395Y-69120000D01*
X133627298Y-68306903D01*
X133383329Y-68378486D01*
X133262429Y-68633996D01*
X133193700Y-68908184D01*
X133179783Y-69190512D01*
X105333000Y-69190512D01*
X105333000Y-66581872D01*
X105969000Y-66581872D01*
X105969000Y-67022128D01*
X106054890Y-67453925D01*
X106223369Y-67860669D01*
X106467962Y-68226729D01*
X106779271Y-68538038D01*
X107145331Y-68782631D01*
X107552075Y-68951110D01*
X107983872Y-69037000D01*
X108424128Y-69037000D01*
X108855925Y-68951110D01*
X109262669Y-68782631D01*
X109628729Y-68538038D01*
X109940038Y-68226729D01*
X110006475Y-68127298D01*
X133806903Y-68127298D01*
X134620000Y-68940395D01*
X135433097Y-68127298D01*
X135361514Y-67883329D01*
X135106004Y-67762429D01*
X134831816Y-67693700D01*
X134549488Y-67679783D01*
X134269870Y-67721213D01*
X134003708Y-67816397D01*
X133878486Y-67883329D01*
X133806903Y-68127298D01*
X110006475Y-68127298D01*
X110184631Y-67860669D01*
X110353110Y-67453925D01*
X110439000Y-67022128D01*
X110439000Y-66581872D01*
X110389298Y-66332000D01*
X126577928Y-66332000D01*
X126590188Y-66456482D01*
X126626498Y-66576180D01*
X126685463Y-66686494D01*
X126764815Y-66783185D01*
X126861506Y-66862537D01*
X126971820Y-66921502D01*
X127091518Y-66957812D01*
X127216000Y-66970072D01*
X127730250Y-66967000D01*
X127889000Y-66808250D01*
X127889000Y-65659000D01*
X128143000Y-65659000D01*
X128143000Y-66808250D01*
X128301750Y-66967000D01*
X128816000Y-66970072D01*
X128940482Y-66957812D01*
X129060180Y-66921502D01*
X129170494Y-66862537D01*
X129267185Y-66783185D01*
X129346537Y-66686494D01*
X129405502Y-66576180D01*
X129441812Y-66456482D01*
X129454072Y-66332000D01*
X129453881Y-66300000D01*
X133181928Y-66300000D01*
X133194188Y-66424482D01*
X133230498Y-66544180D01*
X133289463Y-66654494D01*
X133368815Y-66751185D01*
X133465506Y-66830537D01*
X133575820Y-66889502D01*
X133695518Y-66925812D01*
X133820000Y-66938072D01*
X134334250Y-66935000D01*
X134493000Y-66776250D01*
X134493000Y-65627000D01*
X134747000Y-65627000D01*
X134747000Y-66776250D01*
X134905750Y-66935000D01*
X135420000Y-66938072D01*
X135544482Y-66925812D01*
X135664180Y-66889502D01*
X135774494Y-66830537D01*
X135871185Y-66751185D01*
X135950537Y-66654494D01*
X135989354Y-66581872D01*
X175565000Y-66581872D01*
X175565000Y-67022128D01*
X175650890Y-67453925D01*
X175819369Y-67860669D01*
X176063962Y-68226729D01*
X176375271Y-68538038D01*
X176741331Y-68782631D01*
X177148075Y-68951110D01*
X177579872Y-69037000D01*
X178020128Y-69037000D01*
X178451925Y-68951110D01*
X178858669Y-68782631D01*
X179224729Y-68538038D01*
X179536038Y-68226729D01*
X179780631Y-67860669D01*
X179949110Y-67453925D01*
X180035000Y-67022128D01*
X180035000Y-66581872D01*
X179949110Y-66150075D01*
X179780631Y-65743331D01*
X179536038Y-65377271D01*
X179224729Y-65065962D01*
X178858669Y-64821369D01*
X178451925Y-64652890D01*
X178020128Y-64567000D01*
X177579872Y-64567000D01*
X177148075Y-64652890D01*
X176741331Y-64821369D01*
X176375271Y-65065962D01*
X176063962Y-65377271D01*
X175819369Y-65743331D01*
X175650890Y-66150075D01*
X175565000Y-66581872D01*
X135989354Y-66581872D01*
X136009502Y-66544180D01*
X136045812Y-66424482D01*
X136058072Y-66300000D01*
X136055000Y-65785750D01*
X135896250Y-65627000D01*
X134747000Y-65627000D01*
X134493000Y-65627000D01*
X133343750Y-65627000D01*
X133185000Y-65785750D01*
X133181928Y-66300000D01*
X129453881Y-66300000D01*
X129451000Y-65817750D01*
X129292250Y-65659000D01*
X128143000Y-65659000D01*
X127889000Y-65659000D01*
X126739750Y-65659000D01*
X126581000Y-65817750D01*
X126577928Y-66332000D01*
X110389298Y-66332000D01*
X110353110Y-66150075D01*
X110184631Y-65743331D01*
X109940038Y-65377271D01*
X109628729Y-65065962D01*
X109262669Y-64821369D01*
X108855925Y-64652890D01*
X108424128Y-64567000D01*
X107983872Y-64567000D01*
X107552075Y-64652890D01*
X107145331Y-64821369D01*
X106779271Y-65065962D01*
X106467962Y-65377271D01*
X106223369Y-65743331D01*
X106054890Y-66150075D01*
X105969000Y-66581872D01*
X105333000Y-66581872D01*
X105333000Y-61391000D01*
X123687302Y-61391000D01*
X123671208Y-61404208D01*
G37*
G04 #@! TD.AperFunction*
D28*
X161671000Y-87249000D02*
X161163000Y-87249000D01*
X161163000Y-86741000D01*
X161671000Y-86741000D01*
X161671000Y-87249000D01*
G04 #@! TA.AperFunction,Conductor*
D29*
G36*
X161671000Y-87249000D02*
G01*
X161163000Y-87249000D01*
X161163000Y-86741000D01*
X161671000Y-86741000D01*
X161671000Y-87249000D01*
G37*
G04 #@! TD.AperFunction*
M02*
