G04 #@! TF.GenerationSoftware,KiCad,Pcbnew,5.1.9*
G04 #@! TF.CreationDate,2021-04-19T03:57:35-04:00*
G04 #@! TF.ProjectId,lm3886_amp_balanced_input,6c6d3338-3836-45f6-916d-705f62616c61,rev?*
G04 #@! TF.SameCoordinates,Original*
G04 #@! TF.FileFunction,Legend,Bot*
G04 #@! TF.FilePolarity,Positive*
%FSLAX46Y46*%
G04 Gerber Fmt 4.6, Leading zero omitted, Abs format (unit mm)*
G04 Created by KiCad (PCBNEW 5.1.9) date 2021-04-19 03:57:35*
%MOMM*%
%LPD*%
G01*
G04 APERTURE LIST*
%ADD10C,0.120000*%
%ADD11C,0.150000*%
G04 APERTURE END LIST*
D10*
X125217422Y-61774000D02*
X125734578Y-61774000D01*
X125217422Y-63194000D02*
X125734578Y-63194000D01*
X142780936Y-63394000D02*
X143985064Y-63394000D01*
X142780936Y-61574000D02*
X143985064Y-61574000D01*
X138905064Y-71480000D02*
X137700936Y-71480000D01*
X138905064Y-73300000D02*
X137700936Y-73300000D01*
D11*
X125610857Y-64586380D02*
X125944190Y-64110190D01*
X126182285Y-64586380D02*
X126182285Y-63586380D01*
X125801333Y-63586380D01*
X125706095Y-63634000D01*
X125658476Y-63681619D01*
X125610857Y-63776857D01*
X125610857Y-63919714D01*
X125658476Y-64014952D01*
X125706095Y-64062571D01*
X125801333Y-64110190D01*
X126182285Y-64110190D01*
X124658476Y-64586380D02*
X125229904Y-64586380D01*
X124944190Y-64586380D02*
X124944190Y-63586380D01*
X125039428Y-63729238D01*
X125134666Y-63824476D01*
X125229904Y-63872095D01*
X123801333Y-63586380D02*
X123991809Y-63586380D01*
X124087047Y-63634000D01*
X124134666Y-63681619D01*
X124229904Y-63824476D01*
X124277523Y-64014952D01*
X124277523Y-64395904D01*
X124229904Y-64491142D01*
X124182285Y-64538761D01*
X124087047Y-64586380D01*
X123896571Y-64586380D01*
X123801333Y-64538761D01*
X123753714Y-64491142D01*
X123706095Y-64395904D01*
X123706095Y-64157809D01*
X123753714Y-64062571D01*
X123801333Y-64014952D01*
X123896571Y-63967333D01*
X124087047Y-63967333D01*
X124182285Y-64014952D01*
X124229904Y-64062571D01*
X124277523Y-64157809D01*
X140342857Y-62841142D02*
X140390476Y-62888761D01*
X140533333Y-62936380D01*
X140628571Y-62936380D01*
X140771428Y-62888761D01*
X140866666Y-62793523D01*
X140914285Y-62698285D01*
X140961904Y-62507809D01*
X140961904Y-62364952D01*
X140914285Y-62174476D01*
X140866666Y-62079238D01*
X140771428Y-61984000D01*
X140628571Y-61936380D01*
X140533333Y-61936380D01*
X140390476Y-61984000D01*
X140342857Y-62031619D01*
X139390476Y-62936380D02*
X139961904Y-62936380D01*
X139676190Y-62936380D02*
X139676190Y-61936380D01*
X139771428Y-62079238D01*
X139866666Y-62174476D01*
X139961904Y-62222095D01*
X138438095Y-62936380D02*
X139009523Y-62936380D01*
X138723809Y-62936380D02*
X138723809Y-61936380D01*
X138819047Y-62079238D01*
X138914285Y-62174476D01*
X139009523Y-62222095D01*
X142628857Y-72747142D02*
X142676476Y-72794761D01*
X142819333Y-72842380D01*
X142914571Y-72842380D01*
X143057428Y-72794761D01*
X143152666Y-72699523D01*
X143200285Y-72604285D01*
X143247904Y-72413809D01*
X143247904Y-72270952D01*
X143200285Y-72080476D01*
X143152666Y-71985238D01*
X143057428Y-71890000D01*
X142914571Y-71842380D01*
X142819333Y-71842380D01*
X142676476Y-71890000D01*
X142628857Y-71937619D01*
X141676476Y-72842380D02*
X142247904Y-72842380D01*
X141962190Y-72842380D02*
X141962190Y-71842380D01*
X142057428Y-71985238D01*
X142152666Y-72080476D01*
X142247904Y-72128095D01*
X141057428Y-71842380D02*
X140962190Y-71842380D01*
X140866952Y-71890000D01*
X140819333Y-71937619D01*
X140771714Y-72032857D01*
X140724095Y-72223333D01*
X140724095Y-72461428D01*
X140771714Y-72651904D01*
X140819333Y-72747142D01*
X140866952Y-72794761D01*
X140962190Y-72842380D01*
X141057428Y-72842380D01*
X141152666Y-72794761D01*
X141200285Y-72747142D01*
X141247904Y-72651904D01*
X141295523Y-72461428D01*
X141295523Y-72223333D01*
X141247904Y-72032857D01*
X141200285Y-71937619D01*
X141152666Y-71890000D01*
X141057428Y-71842380D01*
M02*
