M48
; DRILL file {KiCad 5.1.9} date Mon Apr 19 03:57:37 2021
; FORMAT={-:-/ absolute / inch / decimal}
; #@! TF.CreationDate,2021-04-19T03:57:37-04:00
; #@! TF.GenerationSoftware,Kicad,Pcbnew,5.1.9
; #@! TF.FileFunction,Plated,1,2,PTH
FMAT,2
INCH
T1C0.0157
T2C0.0315
T3C0.0472
T4C0.0512
%
G90
G05
T1
X4.84Y-2.46
X5.92Y-2.44
X5.94Y-2.64
X6.04Y-2.96
X6.04Y-2.99
X6.04Y-3.02
X6.04Y-3.05
X6.07Y-2.96
X6.07Y-2.99
X6.07Y-3.02
X6.07Y-3.05
X6.1Y-2.96
X6.1Y-2.99
X6.1Y-3.02
X6.1Y-3.05
X6.13Y-2.96
X6.13Y-2.99
X6.13Y-3.02
X6.13Y-3.05
X6.16Y-2.85
X6.16Y-2.96
X6.16Y-2.99
X6.16Y-3.02
X6.16Y-3.05
X6.2Y-2.44
X6.25Y-2.96
X6.25Y-3.08
X6.25Y-3.2
X6.25Y-3.33
X6.25Y-3.46
X6.25Y-3.61
X6.25Y-3.75
X6.28Y-2.76
X6.34Y-3.425
X6.36Y-3.01
X6.36Y-3.68
X6.37Y-3.425
X6.46Y-2.74
X6.47Y-3.6
X6.48Y-2.98
X6.48Y-3.03
X6.48Y-3.48
X6.48Y-3.86
X6.4965Y-3.54
X6.53Y-2.44
X6.53Y-3.35
X6.5713Y-3.54
X6.59Y-2.98
X6.59Y-3.03
X6.59Y-3.48
X6.59Y-3.86
X6.6Y-3.6
X6.6Y-4.11
X6.675Y-3.795
X6.76Y-2.66
X6.82Y-2.44
X6.82Y-3.0
X6.82Y-3.14
X6.82Y-3.29
X6.82Y-3.9
X6.86Y-4.11
X6.88Y-3.0
X6.88Y-3.14
X6.88Y-3.29
X6.9Y-3.46
X6.92Y-2.83
X6.92Y-3.62
X7.09Y-2.92
X7.09Y-3.14
X7.09Y-3.39
X7.09Y-3.62
X7.09Y-3.88
T2
X5.04Y-2.5013
X5.04Y-2.58
X5.3Y-2.5
X5.3Y-2.5787
X5.3Y-2.7213
X5.3Y-2.8
X5.57Y-2.96
X5.7669Y-2.96
X6.3813Y-3.12
X6.4Y-2.82
X6.4Y-2.9184
X6.46Y-3.12
X6.6013Y-3.12
X6.67Y-2.82
X6.67Y-2.9184
X6.68Y-3.12
T3
X4.85Y-2.8047
X4.85Y-3.1
X4.85Y-3.4647
X4.85Y-3.76
X5.26Y-3.11
X5.498Y-2.7513
X5.5649Y-2.5513
X5.6318Y-2.7513
X5.6987Y-2.5513
X5.76Y-3.11
X5.7657Y-2.7513
X5.8326Y-2.5513
X5.8995Y-2.7513
X5.9Y-3.19
X5.9Y-3.69
X5.9665Y-2.5513
X6.0334Y-2.7513
X6.1003Y-2.5513
X6.1672Y-2.7513
X6.33Y-3.98
X6.4678Y-3.98
X6.6056Y-3.98
X6.96Y-3.0722
X6.96Y-3.21
T4
X4.32Y-3.0831
X4.32Y-3.28
X4.32Y-3.4769
X5.51Y-3.29
X5.51Y-3.69
X5.51Y-3.96
X5.7069Y-3.96
T0
M30
