G04 #@! TF.GenerationSoftware,KiCad,Pcbnew,5.1.9*
G04 #@! TF.CreationDate,2021-04-19T03:57:35-04:00*
G04 #@! TF.ProjectId,lm3886_amp_balanced_input,6c6d3338-3836-45f6-916d-705f62616c61,rev?*
G04 #@! TF.SameCoordinates,Original*
G04 #@! TF.FileFunction,Legend,Top*
G04 #@! TF.FilePolarity,Positive*
%FSLAX46Y46*%
G04 Gerber Fmt 4.6, Leading zero omitted, Abs format (unit mm)*
G04 Created by KiCad (PCBNEW 5.1.9) date 2021-04-19 03:57:35*
%MOMM*%
%LPD*%
G01*
G04 APERTURE LIST*
%ADD10C,0.150000*%
%ADD11C,0.120000*%
G04 APERTURE END LIST*
D10*
X113824857Y-101989476D02*
X113729619Y-101941857D01*
X113539142Y-101941857D01*
X113443904Y-101989476D01*
X113348666Y-102084714D01*
X113301047Y-102179952D01*
X113301047Y-102370428D01*
X113348666Y-102465666D01*
X113443904Y-102560904D01*
X113539142Y-102608523D01*
X113729619Y-102608523D01*
X113824857Y-102560904D01*
X113634380Y-101608523D02*
X113396285Y-101656142D01*
X113158190Y-101799000D01*
X113015333Y-102037095D01*
X112967714Y-102275190D01*
X113015333Y-102513285D01*
X113158190Y-102751380D01*
X113396285Y-102894238D01*
X113634380Y-102941857D01*
X113872476Y-102894238D01*
X114110571Y-102751380D01*
X114253428Y-102513285D01*
X114301047Y-102275190D01*
X114253428Y-102037095D01*
X114110571Y-101799000D01*
X113872476Y-101656142D01*
X113634380Y-101608523D01*
X115491523Y-102751380D02*
X115491523Y-101751380D01*
X115824857Y-102465666D01*
X116158190Y-101751380D01*
X116158190Y-102751380D01*
X116634380Y-102751380D02*
X116634380Y-102084714D01*
X116634380Y-101751380D02*
X116586761Y-101799000D01*
X116634380Y-101846619D01*
X116682000Y-101799000D01*
X116634380Y-101751380D01*
X116634380Y-101846619D01*
X117539142Y-102703761D02*
X117443904Y-102751380D01*
X117253428Y-102751380D01*
X117158190Y-102703761D01*
X117110571Y-102656142D01*
X117062952Y-102560904D01*
X117062952Y-102275190D01*
X117110571Y-102179952D01*
X117158190Y-102132333D01*
X117253428Y-102084714D01*
X117443904Y-102084714D01*
X117539142Y-102132333D01*
X117967714Y-102751380D02*
X117967714Y-101751380D01*
X118396285Y-102751380D02*
X118396285Y-102227571D01*
X118348666Y-102132333D01*
X118253428Y-102084714D01*
X118110571Y-102084714D01*
X118015333Y-102132333D01*
X117967714Y-102179952D01*
X119301047Y-102751380D02*
X119301047Y-102227571D01*
X119253428Y-102132333D01*
X119158190Y-102084714D01*
X118967714Y-102084714D01*
X118872476Y-102132333D01*
X119301047Y-102703761D02*
X119205809Y-102751380D01*
X118967714Y-102751380D01*
X118872476Y-102703761D01*
X118824857Y-102608523D01*
X118824857Y-102513285D01*
X118872476Y-102418047D01*
X118967714Y-102370428D01*
X119205809Y-102370428D01*
X119301047Y-102322809D01*
X120158190Y-102703761D02*
X120062952Y-102751380D01*
X119872476Y-102751380D01*
X119777238Y-102703761D01*
X119729619Y-102608523D01*
X119729619Y-102227571D01*
X119777238Y-102132333D01*
X119872476Y-102084714D01*
X120062952Y-102084714D01*
X120158190Y-102132333D01*
X120205809Y-102227571D01*
X120205809Y-102322809D01*
X119729619Y-102418047D01*
X120777238Y-102751380D02*
X120682000Y-102703761D01*
X120634380Y-102608523D01*
X120634380Y-101751380D01*
X122253428Y-102227571D02*
X122396285Y-102275190D01*
X122443904Y-102322809D01*
X122491523Y-102418047D01*
X122491523Y-102560904D01*
X122443904Y-102656142D01*
X122396285Y-102703761D01*
X122301047Y-102751380D01*
X121920095Y-102751380D01*
X121920095Y-101751380D01*
X122253428Y-101751380D01*
X122348666Y-101799000D01*
X122396285Y-101846619D01*
X122443904Y-101941857D01*
X122443904Y-102037095D01*
X122396285Y-102132333D01*
X122348666Y-102179952D01*
X122253428Y-102227571D01*
X121920095Y-102227571D01*
X123348666Y-102751380D02*
X123348666Y-102227571D01*
X123301047Y-102132333D01*
X123205809Y-102084714D01*
X123015333Y-102084714D01*
X122920095Y-102132333D01*
X123348666Y-102703761D02*
X123253428Y-102751380D01*
X123015333Y-102751380D01*
X122920095Y-102703761D01*
X122872476Y-102608523D01*
X122872476Y-102513285D01*
X122920095Y-102418047D01*
X123015333Y-102370428D01*
X123253428Y-102370428D01*
X123348666Y-102322809D01*
X123824857Y-102751380D02*
X123824857Y-102084714D01*
X123824857Y-102275190D02*
X123872476Y-102179952D01*
X123920095Y-102132333D01*
X124015333Y-102084714D01*
X124110571Y-102084714D01*
X124443904Y-102751380D02*
X124443904Y-101751380D01*
X124443904Y-102132333D02*
X124539142Y-102084714D01*
X124729619Y-102084714D01*
X124824857Y-102132333D01*
X124872476Y-102179952D01*
X124920095Y-102275190D01*
X124920095Y-102560904D01*
X124872476Y-102656142D01*
X124824857Y-102703761D01*
X124729619Y-102751380D01*
X124539142Y-102751380D01*
X124443904Y-102703761D01*
X125491523Y-102751380D02*
X125396285Y-102703761D01*
X125348666Y-102656142D01*
X125301047Y-102560904D01*
X125301047Y-102275190D01*
X125348666Y-102179952D01*
X125396285Y-102132333D01*
X125491523Y-102084714D01*
X125634380Y-102084714D01*
X125729619Y-102132333D01*
X125777238Y-102179952D01*
X125824857Y-102275190D01*
X125824857Y-102560904D01*
X125777238Y-102656142D01*
X125729619Y-102703761D01*
X125634380Y-102751380D01*
X125491523Y-102751380D01*
X126682000Y-102084714D02*
X126682000Y-102751380D01*
X126253428Y-102084714D02*
X126253428Y-102608523D01*
X126301047Y-102703761D01*
X126396285Y-102751380D01*
X126539142Y-102751380D01*
X126634380Y-102703761D01*
X126682000Y-102656142D01*
X127158190Y-102751380D02*
X127158190Y-102084714D01*
X127158190Y-102275190D02*
X127205809Y-102179952D01*
X127253428Y-102132333D01*
X127348666Y-102084714D01*
X127443904Y-102084714D01*
X127824857Y-102703761D02*
X127824857Y-102751380D01*
X127777238Y-102846619D01*
X127729619Y-102894238D01*
X128967714Y-101846619D02*
X129015333Y-101799000D01*
X129110571Y-101751380D01*
X129348666Y-101751380D01*
X129443904Y-101799000D01*
X129491523Y-101846619D01*
X129539142Y-101941857D01*
X129539142Y-102037095D01*
X129491523Y-102179952D01*
X128920095Y-102751380D01*
X129539142Y-102751380D01*
X130158190Y-101751380D02*
X130253428Y-101751380D01*
X130348666Y-101799000D01*
X130396285Y-101846619D01*
X130443904Y-101941857D01*
X130491523Y-102132333D01*
X130491523Y-102370428D01*
X130443904Y-102560904D01*
X130396285Y-102656142D01*
X130348666Y-102703761D01*
X130253428Y-102751380D01*
X130158190Y-102751380D01*
X130062952Y-102703761D01*
X130015333Y-102656142D01*
X129967714Y-102560904D01*
X129920095Y-102370428D01*
X129920095Y-102132333D01*
X129967714Y-101941857D01*
X130015333Y-101846619D01*
X130062952Y-101799000D01*
X130158190Y-101751380D01*
X130872476Y-101846619D02*
X130920095Y-101799000D01*
X131015333Y-101751380D01*
X131253428Y-101751380D01*
X131348666Y-101799000D01*
X131396285Y-101846619D01*
X131443904Y-101941857D01*
X131443904Y-102037095D01*
X131396285Y-102179952D01*
X130824857Y-102751380D01*
X131443904Y-102751380D01*
X132062952Y-101751380D02*
X132158190Y-101751380D01*
X132253428Y-101799000D01*
X132301047Y-101846619D01*
X132348666Y-101941857D01*
X132396285Y-102132333D01*
X132396285Y-102370428D01*
X132348666Y-102560904D01*
X132301047Y-102656142D01*
X132253428Y-102703761D01*
X132158190Y-102751380D01*
X132062952Y-102751380D01*
X131967714Y-102703761D01*
X131920095Y-102656142D01*
X131872476Y-102560904D01*
X131824857Y-102370428D01*
X131824857Y-102132333D01*
X131872476Y-101941857D01*
X131920095Y-101846619D01*
X131967714Y-101799000D01*
X132062952Y-101751380D01*
X118086761Y-104306142D02*
X118039142Y-104353761D01*
X117896285Y-104401380D01*
X117801047Y-104401380D01*
X117658190Y-104353761D01*
X117562952Y-104258523D01*
X117515333Y-104163285D01*
X117467714Y-103972809D01*
X117467714Y-103829952D01*
X117515333Y-103639476D01*
X117562952Y-103544238D01*
X117658190Y-103449000D01*
X117801047Y-103401380D01*
X117896285Y-103401380D01*
X118039142Y-103449000D01*
X118086761Y-103496619D01*
X119086761Y-104306142D02*
X119039142Y-104353761D01*
X118896285Y-104401380D01*
X118801047Y-104401380D01*
X118658190Y-104353761D01*
X118562952Y-104258523D01*
X118515333Y-104163285D01*
X118467714Y-103972809D01*
X118467714Y-103829952D01*
X118515333Y-103639476D01*
X118562952Y-103544238D01*
X118658190Y-103449000D01*
X118801047Y-103401380D01*
X118896285Y-103401380D01*
X119039142Y-103449000D01*
X119086761Y-103496619D01*
X120610571Y-103877571D02*
X120753428Y-103925190D01*
X120801047Y-103972809D01*
X120848666Y-104068047D01*
X120848666Y-104210904D01*
X120801047Y-104306142D01*
X120753428Y-104353761D01*
X120658190Y-104401380D01*
X120277238Y-104401380D01*
X120277238Y-103401380D01*
X120610571Y-103401380D01*
X120705809Y-103449000D01*
X120753428Y-103496619D01*
X120801047Y-103591857D01*
X120801047Y-103687095D01*
X120753428Y-103782333D01*
X120705809Y-103829952D01*
X120610571Y-103877571D01*
X120277238Y-103877571D01*
X121467714Y-103925190D02*
X121467714Y-104401380D01*
X121134380Y-103401380D02*
X121467714Y-103925190D01*
X121801047Y-103401380D01*
X122134380Y-104020428D02*
X122896285Y-104020428D01*
X123324857Y-104353761D02*
X123467714Y-104401380D01*
X123705809Y-104401380D01*
X123801047Y-104353761D01*
X123848666Y-104306142D01*
X123896285Y-104210904D01*
X123896285Y-104115666D01*
X123848666Y-104020428D01*
X123801047Y-103972809D01*
X123705809Y-103925190D01*
X123515333Y-103877571D01*
X123420095Y-103829952D01*
X123372476Y-103782333D01*
X123324857Y-103687095D01*
X123324857Y-103591857D01*
X123372476Y-103496619D01*
X123420095Y-103449000D01*
X123515333Y-103401380D01*
X123753428Y-103401380D01*
X123896285Y-103449000D01*
X124277238Y-104115666D02*
X124753428Y-104115666D01*
X124182000Y-104401380D02*
X124515333Y-103401380D01*
X124848666Y-104401380D01*
X126372476Y-103734714D02*
X126372476Y-104401380D01*
X126134380Y-103353761D02*
X125896285Y-104068047D01*
X126515333Y-104068047D01*
X126896285Y-104306142D02*
X126943904Y-104353761D01*
X126896285Y-104401380D01*
X126848666Y-104353761D01*
X126896285Y-104306142D01*
X126896285Y-104401380D01*
X127562952Y-103401380D02*
X127658190Y-103401380D01*
X127753428Y-103449000D01*
X127801047Y-103496619D01*
X127848666Y-103591857D01*
X127896285Y-103782333D01*
X127896285Y-104020428D01*
X127848666Y-104210904D01*
X127801047Y-104306142D01*
X127753428Y-104353761D01*
X127658190Y-104401380D01*
X127562952Y-104401380D01*
X127467714Y-104353761D01*
X127420095Y-104306142D01*
X127372476Y-104210904D01*
X127324857Y-104020428D01*
X127324857Y-103782333D01*
X127372476Y-103591857D01*
X127420095Y-103496619D01*
X127467714Y-103449000D01*
X127562952Y-103401380D01*
X170672190Y-101544380D02*
X170672190Y-100544380D01*
X171148380Y-101544380D02*
X171148380Y-100544380D01*
X171719809Y-101544380D01*
X171719809Y-100544380D01*
X170434190Y-104592428D02*
X171196095Y-104592428D01*
X172386571Y-103925761D02*
X171529428Y-105211476D01*
X172719904Y-104592428D02*
X173481809Y-104592428D01*
X173100857Y-104973380D02*
X173100857Y-104211476D01*
X154400476Y-105052761D02*
X154543333Y-105100380D01*
X154781428Y-105100380D01*
X154876666Y-105052761D01*
X154924285Y-105005142D01*
X154971904Y-104909904D01*
X154971904Y-104814666D01*
X154924285Y-104719428D01*
X154876666Y-104671809D01*
X154781428Y-104624190D01*
X154590952Y-104576571D01*
X154495714Y-104528952D01*
X154448095Y-104481333D01*
X154400476Y-104386095D01*
X154400476Y-104290857D01*
X154448095Y-104195619D01*
X154495714Y-104148000D01*
X154590952Y-104100380D01*
X154829047Y-104100380D01*
X154971904Y-104148000D01*
X155924285Y-104148000D02*
X155829047Y-104100380D01*
X155686190Y-104100380D01*
X155543333Y-104148000D01*
X155448095Y-104243238D01*
X155400476Y-104338476D01*
X155352857Y-104528952D01*
X155352857Y-104671809D01*
X155400476Y-104862285D01*
X155448095Y-104957523D01*
X155543333Y-105052761D01*
X155686190Y-105100380D01*
X155781428Y-105100380D01*
X155924285Y-105052761D01*
X155971904Y-105005142D01*
X155971904Y-104671809D01*
X155781428Y-104671809D01*
X156400476Y-105100380D02*
X156400476Y-104100380D01*
X156971904Y-105100380D01*
X156971904Y-104100380D01*
X157448095Y-105100380D02*
X157448095Y-104100380D01*
X157686190Y-104100380D01*
X157829047Y-104148000D01*
X157924285Y-104243238D01*
X157971904Y-104338476D01*
X158019523Y-104528952D01*
X158019523Y-104671809D01*
X157971904Y-104862285D01*
X157924285Y-104957523D01*
X157829047Y-105052761D01*
X157686190Y-105100380D01*
X157448095Y-105100380D01*
X148463047Y-104719428D02*
X149224952Y-104719428D01*
X135763047Y-104719428D02*
X136524952Y-104719428D01*
X136144000Y-105100380D02*
X136144000Y-104338476D01*
X114935095Y-82812000D02*
X114839857Y-82764380D01*
X114697000Y-82764380D01*
X114554142Y-82812000D01*
X114458904Y-82907238D01*
X114411285Y-83002476D01*
X114363666Y-83192952D01*
X114363666Y-83335809D01*
X114411285Y-83526285D01*
X114458904Y-83621523D01*
X114554142Y-83716761D01*
X114697000Y-83764380D01*
X114792238Y-83764380D01*
X114935095Y-83716761D01*
X114982714Y-83669142D01*
X114982714Y-83335809D01*
X114792238Y-83335809D01*
X115411285Y-83764380D02*
X115411285Y-82764380D01*
X115982714Y-83764380D01*
X115982714Y-82764380D01*
X116458904Y-83764380D02*
X116458904Y-82764380D01*
X116697000Y-82764380D01*
X116839857Y-82812000D01*
X116935095Y-82907238D01*
X116982714Y-83002476D01*
X117030333Y-83192952D01*
X117030333Y-83335809D01*
X116982714Y-83526285D01*
X116935095Y-83621523D01*
X116839857Y-83716761D01*
X116697000Y-83764380D01*
X116458904Y-83764380D01*
X108394666Y-74874380D02*
X108394666Y-73874380D01*
X108394666Y-74350571D02*
X108966095Y-74350571D01*
X108966095Y-74874380D02*
X108966095Y-73874380D01*
X109299428Y-73874380D02*
X109632761Y-74874380D01*
X109966095Y-73874380D01*
X110299428Y-74493428D02*
X111061333Y-74493428D01*
X108394666Y-92654380D02*
X108394666Y-91654380D01*
X108394666Y-92130571D02*
X108966095Y-92130571D01*
X108966095Y-92654380D02*
X108966095Y-91654380D01*
X109299428Y-91654380D02*
X109632761Y-92654380D01*
X109966095Y-91654380D01*
X110299428Y-92273428D02*
X111061333Y-92273428D01*
X110680380Y-92654380D02*
X110680380Y-91892476D01*
X134128000Y-100036380D02*
X134318476Y-100036380D01*
X134413714Y-100084000D01*
X134508952Y-100179238D01*
X134556571Y-100369714D01*
X134556571Y-100703047D01*
X134508952Y-100893523D01*
X134413714Y-100988761D01*
X134318476Y-101036380D01*
X134128000Y-101036380D01*
X134032761Y-100988761D01*
X133937523Y-100893523D01*
X133889904Y-100703047D01*
X133889904Y-100369714D01*
X133937523Y-100179238D01*
X134032761Y-100084000D01*
X134128000Y-100036380D01*
X134985142Y-100036380D02*
X134985142Y-100845904D01*
X135032761Y-100941142D01*
X135080380Y-100988761D01*
X135175619Y-101036380D01*
X135366095Y-101036380D01*
X135461333Y-100988761D01*
X135508952Y-100941142D01*
X135556571Y-100845904D01*
X135556571Y-100036380D01*
X135889904Y-100036380D02*
X136461333Y-100036380D01*
X136175619Y-101036380D02*
X136175619Y-100036380D01*
X174022095Y-84288380D02*
X174355428Y-85288380D01*
X174688761Y-84288380D01*
X174784000Y-85383619D02*
X175545904Y-85383619D01*
X175736380Y-85002666D02*
X176212571Y-85002666D01*
X175641142Y-85288380D02*
X175974476Y-84288380D01*
X176307809Y-85288380D01*
X176641142Y-84288380D02*
X176641142Y-85097904D01*
X176688761Y-85193142D01*
X176736380Y-85240761D01*
X176831619Y-85288380D01*
X177022095Y-85288380D01*
X177117333Y-85240761D01*
X177164952Y-85193142D01*
X177212571Y-85097904D01*
X177212571Y-84288380D01*
X177593523Y-84288380D02*
X178260190Y-85288380D01*
X178260190Y-84288380D02*
X177593523Y-85288380D01*
X178641142Y-84907428D02*
X179403047Y-84907428D01*
X174022095Y-74382380D02*
X174355428Y-75382380D01*
X174688761Y-74382380D01*
X174784000Y-75477619D02*
X175545904Y-75477619D01*
X175736380Y-75096666D02*
X176212571Y-75096666D01*
X175641142Y-75382380D02*
X175974476Y-74382380D01*
X176307809Y-75382380D01*
X176641142Y-74382380D02*
X176641142Y-75191904D01*
X176688761Y-75287142D01*
X176736380Y-75334761D01*
X176831619Y-75382380D01*
X177022095Y-75382380D01*
X177117333Y-75334761D01*
X177164952Y-75287142D01*
X177212571Y-75191904D01*
X177212571Y-74382380D01*
X177593523Y-74382380D02*
X178260190Y-75382380D01*
X178260190Y-74382380D02*
X177593523Y-75382380D01*
X178641142Y-75001428D02*
X179403047Y-75001428D01*
X179022095Y-75382380D02*
X179022095Y-74620476D01*
D11*
X147320000Y-93726000D02*
X141478000Y-93726000D01*
X147320000Y-83566000D02*
X147320000Y-93726000D01*
X141478000Y-83566000D02*
X147320000Y-83566000D01*
X132588000Y-93726000D02*
X138430000Y-93726000D01*
X132588000Y-83566000D02*
X132588000Y-93726000D01*
X138430000Y-83566000D02*
X132588000Y-83566000D01*
X160272000Y-83911221D02*
X160272000Y-84236779D01*
X161292000Y-83911221D02*
X161292000Y-84236779D01*
X170432000Y-84927221D02*
X170432000Y-85252779D01*
X171452000Y-84927221D02*
X171452000Y-85252779D01*
X161969779Y-90426000D02*
X161644221Y-90426000D01*
X161969779Y-89406000D02*
X161644221Y-89406000D01*
X170088779Y-89406000D02*
X169763221Y-89406000D01*
X170088779Y-90426000D02*
X169763221Y-90426000D01*
X151878422Y-71680000D02*
X152395578Y-71680000D01*
X151878422Y-73100000D02*
X152395578Y-73100000D01*
X161285578Y-64464000D02*
X160768422Y-64464000D01*
X161285578Y-63044000D02*
X160768422Y-63044000D01*
X160786422Y-67108000D02*
X161303578Y-67108000D01*
X160786422Y-68528000D02*
X161303578Y-68528000D01*
X160786422Y-65076000D02*
X161303578Y-65076000D01*
X160786422Y-66496000D02*
X161303578Y-66496000D01*
X171702000Y-94255779D02*
X171702000Y-93930221D01*
X172722000Y-94255779D02*
X172722000Y-93930221D01*
X174500000Y-93930221D02*
X174500000Y-94255779D01*
X173480000Y-93930221D02*
X173480000Y-94255779D01*
X175258000Y-94255779D02*
X175258000Y-93930221D01*
X176278000Y-94255779D02*
X176278000Y-93930221D01*
X165610000Y-93930221D02*
X165610000Y-94255779D01*
X164590000Y-93930221D02*
X164590000Y-94255779D01*
X167388000Y-93930221D02*
X167388000Y-94255779D01*
X166368000Y-93930221D02*
X166368000Y-94255779D01*
X168146000Y-94255779D02*
X168146000Y-93930221D01*
X169166000Y-94255779D02*
X169166000Y-93930221D01*
X170944000Y-93930221D02*
X170944000Y-94255779D01*
X169924000Y-93930221D02*
X169924000Y-94255779D01*
X181584000Y-83584000D02*
X181584000Y-83184000D01*
X180944000Y-83584000D02*
X181584000Y-83584000D01*
X177725000Y-79179000D02*
X177853000Y-79308000D01*
X175509000Y-76964000D02*
X175603000Y-77058000D01*
X177965000Y-79009000D02*
X178058000Y-79103000D01*
X175715000Y-76759000D02*
X175843000Y-76888000D01*
X173624000Y-76224000D02*
X181344000Y-76224000D01*
X173624000Y-83344000D02*
X181344000Y-83344000D01*
X181344000Y-83344000D02*
X181344000Y-76224000D01*
X173624000Y-83344000D02*
X173624000Y-76224000D01*
X179784000Y-83344000D02*
X179784000Y-76224000D01*
X180884000Y-83344000D02*
X180884000Y-76224000D01*
X178464000Y-78034000D02*
G75*
G03*
X178464000Y-78034000I-1680000J0D01*
G01*
X178464099Y-81505326D02*
G75*
G02*
X178224000Y-82400000I-1680099J-28674D01*
G01*
X177673894Y-82959358D02*
G75*
G02*
X175918000Y-82974000I-889894J1425358D01*
G01*
X175358642Y-82423894D02*
G75*
G02*
X175344000Y-80668000I1425358J889894D01*
G01*
X175893807Y-80108495D02*
G75*
G02*
X177675000Y-80109000I890193J-1425505D01*
G01*
X178208721Y-80643736D02*
G75*
G02*
X178464000Y-81534000I-1424721J-890264D01*
G01*
X104428000Y-75512000D02*
X104428000Y-75912000D01*
X105068000Y-75512000D02*
X104428000Y-75512000D01*
X108736000Y-87054000D02*
X108340000Y-86659000D01*
X111382000Y-89700000D02*
X111002000Y-89320000D01*
X108454000Y-87305000D02*
X108074000Y-86925000D01*
X111116000Y-89966000D02*
X110720000Y-89571000D01*
X108736000Y-82054000D02*
X108340000Y-81659000D01*
X111382000Y-84700000D02*
X111002000Y-84320000D01*
X108454000Y-82305000D02*
X108074000Y-81925000D01*
X111116000Y-84966000D02*
X110720000Y-84571000D01*
X108447000Y-76764000D02*
X108340000Y-76658000D01*
X111382000Y-79700000D02*
X111275000Y-79593000D01*
X108181000Y-77030000D02*
X108074000Y-76924000D01*
X111116000Y-79966000D02*
X111009000Y-79859000D01*
X113788000Y-90872000D02*
X104668000Y-90872000D01*
X113788000Y-75752000D02*
X104668000Y-75752000D01*
X104668000Y-75752000D02*
X104668000Y-90872000D01*
X113788000Y-75752000D02*
X113788000Y-90872000D01*
X106228000Y-75752000D02*
X106228000Y-90872000D01*
X105128000Y-75752000D02*
X105128000Y-90872000D01*
X111908000Y-88312000D02*
G75*
G03*
X111908000Y-88312000I-2180000J0D01*
G01*
X111908000Y-83312000D02*
G75*
G03*
X111908000Y-83312000I-2180000J0D01*
G01*
X111908000Y-78312000D02*
G75*
G03*
X111908000Y-78312000I-2180000J0D01*
G01*
X137154000Y-105884000D02*
X137554000Y-105884000D01*
X137154000Y-105244000D02*
X137154000Y-105884000D01*
X143696000Y-101576000D02*
X143301000Y-101972000D01*
X146342000Y-98930000D02*
X145962000Y-99310000D01*
X143947000Y-101858000D02*
X143567000Y-102238000D01*
X146608000Y-99196000D02*
X146213000Y-99592000D01*
X138406000Y-101865000D02*
X138300000Y-101972000D01*
X141342000Y-98930000D02*
X141235000Y-99037000D01*
X138672000Y-102131000D02*
X138566000Y-102238000D01*
X141608000Y-99196000D02*
X141501000Y-99303000D01*
X147514000Y-96524000D02*
X147514000Y-105644000D01*
X137394000Y-96524000D02*
X137394000Y-105644000D01*
X137394000Y-105644000D02*
X147514000Y-105644000D01*
X137394000Y-96524000D02*
X147514000Y-96524000D01*
X137394000Y-104084000D02*
X147514000Y-104084000D01*
X137394000Y-105184000D02*
X147514000Y-105184000D01*
X147134000Y-100584000D02*
G75*
G03*
X147134000Y-100584000I-2180000J0D01*
G01*
X142134000Y-100584000D02*
G75*
G03*
X142134000Y-100584000I-2180000J0D01*
G01*
X158732000Y-105892000D02*
X159132000Y-105892000D01*
X158732000Y-105252000D02*
X158732000Y-105892000D01*
X166637000Y-102033000D02*
X166508000Y-102161000D01*
X168852000Y-99817000D02*
X168758000Y-99911000D01*
X166807000Y-102273000D02*
X166713000Y-102366000D01*
X169057000Y-100023000D02*
X168928000Y-100151000D01*
X163137000Y-102033000D02*
X163008000Y-102161000D01*
X165352000Y-99817000D02*
X165258000Y-99911000D01*
X163307000Y-102273000D02*
X163213000Y-102366000D01*
X165557000Y-100023000D02*
X165428000Y-100151000D01*
X169592000Y-97932000D02*
X169592000Y-105652000D01*
X158972000Y-97932000D02*
X158972000Y-105652000D01*
X158972000Y-105652000D02*
X169592000Y-105652000D01*
X158972000Y-97932000D02*
X169592000Y-97932000D01*
X158972000Y-104092000D02*
X169592000Y-104092000D01*
X158972000Y-105192000D02*
X169592000Y-105192000D01*
X169462000Y-101092000D02*
G75*
G03*
X169462000Y-101092000I-1680000J0D01*
G01*
X165962000Y-101092000D02*
G75*
G03*
X165962000Y-101092000I-1680000J0D01*
G01*
X160810674Y-102772099D02*
G75*
G02*
X159916000Y-102532000I-28674J1680099D01*
G01*
X159356642Y-101981894D02*
G75*
G02*
X159342000Y-100226000I1425358J889894D01*
G01*
X159892106Y-99666642D02*
G75*
G02*
X161648000Y-99652000I889894J-1425358D01*
G01*
X162207505Y-100201807D02*
G75*
G02*
X162207000Y-101983000I-1425505J-890193D01*
G01*
X161672264Y-102516721D02*
G75*
G02*
X160782000Y-102772000I-890264J1424721D01*
G01*
X145024000Y-80434000D02*
X145024000Y-80914000D01*
X145024000Y-80914000D02*
X134884000Y-80914000D01*
X134884000Y-80914000D02*
X134884000Y-80434000D01*
X145024000Y-77554000D02*
X145024000Y-77074000D01*
X145024000Y-77074000D02*
X134884000Y-77074000D01*
X134884000Y-77074000D02*
X134884000Y-77554000D01*
X148420000Y-92446000D02*
X147940000Y-92446000D01*
X147940000Y-92446000D02*
X147940000Y-82306000D01*
X147940000Y-82306000D02*
X148420000Y-82306000D01*
X151300000Y-92446000D02*
X151780000Y-92446000D01*
X151780000Y-92446000D02*
X151780000Y-82306000D01*
X151780000Y-82306000D02*
X151300000Y-82306000D01*
X165862000Y-87650000D02*
X167812000Y-87650000D01*
X165862000Y-87650000D02*
X163912000Y-87650000D01*
X165862000Y-82530000D02*
X167812000Y-82530000D01*
X165862000Y-82530000D02*
X162412000Y-82530000D01*
X165830000Y-72878000D02*
G75*
G03*
X165830000Y-72878000I-3270000J0D01*
G01*
X172688000Y-72878000D02*
G75*
G03*
X172688000Y-72878000I-3270000J0D01*
G01*
X156648000Y-65423000D02*
X156648000Y-68582000D01*
X153248000Y-65423000D02*
X153248000Y-68582000D01*
X149848000Y-65423000D02*
X149848000Y-68582000D01*
X146448000Y-65423000D02*
X146448000Y-68582000D01*
X143048000Y-65423000D02*
X143048000Y-68582000D01*
X139648000Y-65423000D02*
X139648000Y-68582000D01*
X149998000Y-60182000D02*
X149998000Y-62022000D01*
X146298000Y-60182000D02*
X146298000Y-62022000D01*
X137928000Y-62022000D02*
X158368000Y-62022000D01*
X158368000Y-60182000D02*
X158368000Y-65423000D01*
X137928000Y-60182000D02*
X137928000Y-65423000D01*
X156048000Y-65423000D02*
X158368000Y-65423000D01*
X152648000Y-65423000D02*
X153848000Y-65423000D01*
X149248000Y-65423000D02*
X150448000Y-65423000D01*
X145848000Y-65423000D02*
X147048000Y-65423000D01*
X142448000Y-65423000D02*
X143648000Y-65423000D01*
X137928000Y-65423000D02*
X140248000Y-65423000D01*
X137928000Y-60182000D02*
X158368000Y-60182000D01*
X130636000Y-64532000D02*
G75*
G03*
X130636000Y-64532000I-2620000J0D01*
G01*
X129056000Y-64532000D02*
X130596000Y-64532000D01*
X125436000Y-64532000D02*
X126976000Y-64532000D01*
X129056000Y-64492000D02*
X130596000Y-64492000D01*
X125436000Y-64492000D02*
X126976000Y-64492000D01*
X125437000Y-64452000D02*
X126976000Y-64452000D01*
X129056000Y-64452000D02*
X130595000Y-64452000D01*
X125438000Y-64412000D02*
X126976000Y-64412000D01*
X129056000Y-64412000D02*
X130594000Y-64412000D01*
X125440000Y-64372000D02*
X126976000Y-64372000D01*
X129056000Y-64372000D02*
X130592000Y-64372000D01*
X125443000Y-64332000D02*
X126976000Y-64332000D01*
X129056000Y-64332000D02*
X130589000Y-64332000D01*
X125447000Y-64292000D02*
X126976000Y-64292000D01*
X129056000Y-64292000D02*
X130585000Y-64292000D01*
X125451000Y-64252000D02*
X126976000Y-64252000D01*
X129056000Y-64252000D02*
X130581000Y-64252000D01*
X125455000Y-64212000D02*
X126976000Y-64212000D01*
X129056000Y-64212000D02*
X130577000Y-64212000D01*
X125460000Y-64172000D02*
X126976000Y-64172000D01*
X129056000Y-64172000D02*
X130572000Y-64172000D01*
X125466000Y-64132000D02*
X126976000Y-64132000D01*
X129056000Y-64132000D02*
X130566000Y-64132000D01*
X125473000Y-64092000D02*
X126976000Y-64092000D01*
X129056000Y-64092000D02*
X130559000Y-64092000D01*
X125480000Y-64052000D02*
X126976000Y-64052000D01*
X129056000Y-64052000D02*
X130552000Y-64052000D01*
X125488000Y-64012000D02*
X126976000Y-64012000D01*
X129056000Y-64012000D02*
X130544000Y-64012000D01*
X125496000Y-63972000D02*
X126976000Y-63972000D01*
X129056000Y-63972000D02*
X130536000Y-63972000D01*
X125505000Y-63932000D02*
X126976000Y-63932000D01*
X129056000Y-63932000D02*
X130527000Y-63932000D01*
X125515000Y-63892000D02*
X126976000Y-63892000D01*
X129056000Y-63892000D02*
X130517000Y-63892000D01*
X125525000Y-63852000D02*
X126976000Y-63852000D01*
X129056000Y-63852000D02*
X130507000Y-63852000D01*
X125536000Y-63811000D02*
X126976000Y-63811000D01*
X129056000Y-63811000D02*
X130496000Y-63811000D01*
X125548000Y-63771000D02*
X126976000Y-63771000D01*
X129056000Y-63771000D02*
X130484000Y-63771000D01*
X125561000Y-63731000D02*
X126976000Y-63731000D01*
X129056000Y-63731000D02*
X130471000Y-63731000D01*
X125574000Y-63691000D02*
X126976000Y-63691000D01*
X129056000Y-63691000D02*
X130458000Y-63691000D01*
X125588000Y-63651000D02*
X126976000Y-63651000D01*
X129056000Y-63651000D02*
X130444000Y-63651000D01*
X125602000Y-63611000D02*
X126976000Y-63611000D01*
X129056000Y-63611000D02*
X130430000Y-63611000D01*
X125618000Y-63571000D02*
X126976000Y-63571000D01*
X129056000Y-63571000D02*
X130414000Y-63571000D01*
X125634000Y-63531000D02*
X126976000Y-63531000D01*
X129056000Y-63531000D02*
X130398000Y-63531000D01*
X125651000Y-63491000D02*
X126976000Y-63491000D01*
X129056000Y-63491000D02*
X130381000Y-63491000D01*
X125668000Y-63451000D02*
X126976000Y-63451000D01*
X129056000Y-63451000D02*
X130364000Y-63451000D01*
X125687000Y-63411000D02*
X126976000Y-63411000D01*
X129056000Y-63411000D02*
X130345000Y-63411000D01*
X125706000Y-63371000D02*
X126976000Y-63371000D01*
X129056000Y-63371000D02*
X130326000Y-63371000D01*
X125726000Y-63331000D02*
X126976000Y-63331000D01*
X129056000Y-63331000D02*
X130306000Y-63331000D01*
X125748000Y-63291000D02*
X126976000Y-63291000D01*
X129056000Y-63291000D02*
X130284000Y-63291000D01*
X125769000Y-63251000D02*
X126976000Y-63251000D01*
X129056000Y-63251000D02*
X130263000Y-63251000D01*
X125792000Y-63211000D02*
X126976000Y-63211000D01*
X129056000Y-63211000D02*
X130240000Y-63211000D01*
X125816000Y-63171000D02*
X126976000Y-63171000D01*
X129056000Y-63171000D02*
X130216000Y-63171000D01*
X125841000Y-63131000D02*
X126976000Y-63131000D01*
X129056000Y-63131000D02*
X130191000Y-63131000D01*
X125867000Y-63091000D02*
X126976000Y-63091000D01*
X129056000Y-63091000D02*
X130165000Y-63091000D01*
X125894000Y-63051000D02*
X126976000Y-63051000D01*
X129056000Y-63051000D02*
X130138000Y-63051000D01*
X125921000Y-63011000D02*
X126976000Y-63011000D01*
X129056000Y-63011000D02*
X130111000Y-63011000D01*
X125951000Y-62971000D02*
X126976000Y-62971000D01*
X129056000Y-62971000D02*
X130081000Y-62971000D01*
X125981000Y-62931000D02*
X126976000Y-62931000D01*
X129056000Y-62931000D02*
X130051000Y-62931000D01*
X126012000Y-62891000D02*
X126976000Y-62891000D01*
X129056000Y-62891000D02*
X130020000Y-62891000D01*
X126045000Y-62851000D02*
X126976000Y-62851000D01*
X129056000Y-62851000D02*
X129987000Y-62851000D01*
X126079000Y-62811000D02*
X126976000Y-62811000D01*
X129056000Y-62811000D02*
X129953000Y-62811000D01*
X126115000Y-62771000D02*
X126976000Y-62771000D01*
X129056000Y-62771000D02*
X129917000Y-62771000D01*
X126152000Y-62731000D02*
X126976000Y-62731000D01*
X129056000Y-62731000D02*
X129880000Y-62731000D01*
X126190000Y-62691000D02*
X126976000Y-62691000D01*
X129056000Y-62691000D02*
X129842000Y-62691000D01*
X126231000Y-62651000D02*
X126976000Y-62651000D01*
X129056000Y-62651000D02*
X129801000Y-62651000D01*
X126273000Y-62611000D02*
X126976000Y-62611000D01*
X129056000Y-62611000D02*
X129759000Y-62611000D01*
X126317000Y-62571000D02*
X126976000Y-62571000D01*
X129056000Y-62571000D02*
X129715000Y-62571000D01*
X126363000Y-62531000D02*
X126976000Y-62531000D01*
X129056000Y-62531000D02*
X129669000Y-62531000D01*
X126411000Y-62491000D02*
X129621000Y-62491000D01*
X126462000Y-62451000D02*
X129570000Y-62451000D01*
X126516000Y-62411000D02*
X129516000Y-62411000D01*
X126573000Y-62371000D02*
X129459000Y-62371000D01*
X126633000Y-62331000D02*
X129399000Y-62331000D01*
X126697000Y-62291000D02*
X129335000Y-62291000D01*
X126765000Y-62251000D02*
X129267000Y-62251000D01*
X126838000Y-62211000D02*
X129194000Y-62211000D01*
X126918000Y-62171000D02*
X129114000Y-62171000D01*
X127005000Y-62131000D02*
X129027000Y-62131000D01*
X127101000Y-62091000D02*
X128931000Y-62091000D01*
X127211000Y-62051000D02*
X128821000Y-62051000D01*
X127339000Y-62011000D02*
X128693000Y-62011000D01*
X127498000Y-61971000D02*
X128534000Y-61971000D01*
X127732000Y-61931000D02*
X128300000Y-61931000D01*
X126541000Y-67336775D02*
X126541000Y-66836775D01*
X126291000Y-67086775D02*
X126791000Y-67086775D01*
X165704000Y-79248000D02*
G75*
G03*
X165704000Y-79248000I-2620000J0D01*
G01*
X163084000Y-78208000D02*
X163084000Y-76668000D01*
X163084000Y-81828000D02*
X163084000Y-80288000D01*
X163044000Y-78208000D02*
X163044000Y-76668000D01*
X163044000Y-81828000D02*
X163044000Y-80288000D01*
X163004000Y-81827000D02*
X163004000Y-80288000D01*
X163004000Y-78208000D02*
X163004000Y-76669000D01*
X162964000Y-81826000D02*
X162964000Y-80288000D01*
X162964000Y-78208000D02*
X162964000Y-76670000D01*
X162924000Y-81824000D02*
X162924000Y-80288000D01*
X162924000Y-78208000D02*
X162924000Y-76672000D01*
X162884000Y-81821000D02*
X162884000Y-80288000D01*
X162884000Y-78208000D02*
X162884000Y-76675000D01*
X162844000Y-81817000D02*
X162844000Y-80288000D01*
X162844000Y-78208000D02*
X162844000Y-76679000D01*
X162804000Y-81813000D02*
X162804000Y-80288000D01*
X162804000Y-78208000D02*
X162804000Y-76683000D01*
X162764000Y-81809000D02*
X162764000Y-80288000D01*
X162764000Y-78208000D02*
X162764000Y-76687000D01*
X162724000Y-81804000D02*
X162724000Y-80288000D01*
X162724000Y-78208000D02*
X162724000Y-76692000D01*
X162684000Y-81798000D02*
X162684000Y-80288000D01*
X162684000Y-78208000D02*
X162684000Y-76698000D01*
X162644000Y-81791000D02*
X162644000Y-80288000D01*
X162644000Y-78208000D02*
X162644000Y-76705000D01*
X162604000Y-81784000D02*
X162604000Y-80288000D01*
X162604000Y-78208000D02*
X162604000Y-76712000D01*
X162564000Y-81776000D02*
X162564000Y-80288000D01*
X162564000Y-78208000D02*
X162564000Y-76720000D01*
X162524000Y-81768000D02*
X162524000Y-80288000D01*
X162524000Y-78208000D02*
X162524000Y-76728000D01*
X162484000Y-81759000D02*
X162484000Y-80288000D01*
X162484000Y-78208000D02*
X162484000Y-76737000D01*
X162444000Y-81749000D02*
X162444000Y-80288000D01*
X162444000Y-78208000D02*
X162444000Y-76747000D01*
X162404000Y-81739000D02*
X162404000Y-80288000D01*
X162404000Y-78208000D02*
X162404000Y-76757000D01*
X162363000Y-81728000D02*
X162363000Y-80288000D01*
X162363000Y-78208000D02*
X162363000Y-76768000D01*
X162323000Y-81716000D02*
X162323000Y-80288000D01*
X162323000Y-78208000D02*
X162323000Y-76780000D01*
X162283000Y-81703000D02*
X162283000Y-80288000D01*
X162283000Y-78208000D02*
X162283000Y-76793000D01*
X162243000Y-81690000D02*
X162243000Y-80288000D01*
X162243000Y-78208000D02*
X162243000Y-76806000D01*
X162203000Y-81676000D02*
X162203000Y-80288000D01*
X162203000Y-78208000D02*
X162203000Y-76820000D01*
X162163000Y-81662000D02*
X162163000Y-80288000D01*
X162163000Y-78208000D02*
X162163000Y-76834000D01*
X162123000Y-81646000D02*
X162123000Y-80288000D01*
X162123000Y-78208000D02*
X162123000Y-76850000D01*
X162083000Y-81630000D02*
X162083000Y-80288000D01*
X162083000Y-78208000D02*
X162083000Y-76866000D01*
X162043000Y-81613000D02*
X162043000Y-80288000D01*
X162043000Y-78208000D02*
X162043000Y-76883000D01*
X162003000Y-81596000D02*
X162003000Y-80288000D01*
X162003000Y-78208000D02*
X162003000Y-76900000D01*
X161963000Y-81577000D02*
X161963000Y-80288000D01*
X161963000Y-78208000D02*
X161963000Y-76919000D01*
X161923000Y-81558000D02*
X161923000Y-80288000D01*
X161923000Y-78208000D02*
X161923000Y-76938000D01*
X161883000Y-81538000D02*
X161883000Y-80288000D01*
X161883000Y-78208000D02*
X161883000Y-76958000D01*
X161843000Y-81516000D02*
X161843000Y-80288000D01*
X161843000Y-78208000D02*
X161843000Y-76980000D01*
X161803000Y-81495000D02*
X161803000Y-80288000D01*
X161803000Y-78208000D02*
X161803000Y-77001000D01*
X161763000Y-81472000D02*
X161763000Y-80288000D01*
X161763000Y-78208000D02*
X161763000Y-77024000D01*
X161723000Y-81448000D02*
X161723000Y-80288000D01*
X161723000Y-78208000D02*
X161723000Y-77048000D01*
X161683000Y-81423000D02*
X161683000Y-80288000D01*
X161683000Y-78208000D02*
X161683000Y-77073000D01*
X161643000Y-81397000D02*
X161643000Y-80288000D01*
X161643000Y-78208000D02*
X161643000Y-77099000D01*
X161603000Y-81370000D02*
X161603000Y-80288000D01*
X161603000Y-78208000D02*
X161603000Y-77126000D01*
X161563000Y-81343000D02*
X161563000Y-80288000D01*
X161563000Y-78208000D02*
X161563000Y-77153000D01*
X161523000Y-81313000D02*
X161523000Y-80288000D01*
X161523000Y-78208000D02*
X161523000Y-77183000D01*
X161483000Y-81283000D02*
X161483000Y-80288000D01*
X161483000Y-78208000D02*
X161483000Y-77213000D01*
X161443000Y-81252000D02*
X161443000Y-80288000D01*
X161443000Y-78208000D02*
X161443000Y-77244000D01*
X161403000Y-81219000D02*
X161403000Y-80288000D01*
X161403000Y-78208000D02*
X161403000Y-77277000D01*
X161363000Y-81185000D02*
X161363000Y-80288000D01*
X161363000Y-78208000D02*
X161363000Y-77311000D01*
X161323000Y-81149000D02*
X161323000Y-80288000D01*
X161323000Y-78208000D02*
X161323000Y-77347000D01*
X161283000Y-81112000D02*
X161283000Y-80288000D01*
X161283000Y-78208000D02*
X161283000Y-77384000D01*
X161243000Y-81074000D02*
X161243000Y-80288000D01*
X161243000Y-78208000D02*
X161243000Y-77422000D01*
X161203000Y-81033000D02*
X161203000Y-80288000D01*
X161203000Y-78208000D02*
X161203000Y-77463000D01*
X161163000Y-80991000D02*
X161163000Y-80288000D01*
X161163000Y-78208000D02*
X161163000Y-77505000D01*
X161123000Y-80947000D02*
X161123000Y-80288000D01*
X161123000Y-78208000D02*
X161123000Y-77549000D01*
X161083000Y-80901000D02*
X161083000Y-80288000D01*
X161083000Y-78208000D02*
X161083000Y-77595000D01*
X161043000Y-80853000D02*
X161043000Y-77643000D01*
X161003000Y-80802000D02*
X161003000Y-77694000D01*
X160963000Y-80748000D02*
X160963000Y-77748000D01*
X160923000Y-80691000D02*
X160923000Y-77805000D01*
X160883000Y-80631000D02*
X160883000Y-77865000D01*
X160843000Y-80567000D02*
X160843000Y-77929000D01*
X160803000Y-80499000D02*
X160803000Y-77997000D01*
X160763000Y-80426000D02*
X160763000Y-78070000D01*
X160723000Y-80346000D02*
X160723000Y-78150000D01*
X160683000Y-80259000D02*
X160683000Y-78237000D01*
X160643000Y-80163000D02*
X160643000Y-78333000D01*
X160603000Y-80053000D02*
X160603000Y-78443000D01*
X160563000Y-79925000D02*
X160563000Y-78571000D01*
X160523000Y-79766000D02*
X160523000Y-78730000D01*
X160483000Y-79532000D02*
X160483000Y-78964000D01*
X165888775Y-80723000D02*
X165388775Y-80723000D01*
X165638775Y-80973000D02*
X165638775Y-80473000D01*
X171292000Y-79248000D02*
G75*
G03*
X171292000Y-79248000I-2620000J0D01*
G01*
X168672000Y-78208000D02*
X168672000Y-76668000D01*
X168672000Y-81828000D02*
X168672000Y-80288000D01*
X168632000Y-78208000D02*
X168632000Y-76668000D01*
X168632000Y-81828000D02*
X168632000Y-80288000D01*
X168592000Y-81827000D02*
X168592000Y-80288000D01*
X168592000Y-78208000D02*
X168592000Y-76669000D01*
X168552000Y-81826000D02*
X168552000Y-80288000D01*
X168552000Y-78208000D02*
X168552000Y-76670000D01*
X168512000Y-81824000D02*
X168512000Y-80288000D01*
X168512000Y-78208000D02*
X168512000Y-76672000D01*
X168472000Y-81821000D02*
X168472000Y-80288000D01*
X168472000Y-78208000D02*
X168472000Y-76675000D01*
X168432000Y-81817000D02*
X168432000Y-80288000D01*
X168432000Y-78208000D02*
X168432000Y-76679000D01*
X168392000Y-81813000D02*
X168392000Y-80288000D01*
X168392000Y-78208000D02*
X168392000Y-76683000D01*
X168352000Y-81809000D02*
X168352000Y-80288000D01*
X168352000Y-78208000D02*
X168352000Y-76687000D01*
X168312000Y-81804000D02*
X168312000Y-80288000D01*
X168312000Y-78208000D02*
X168312000Y-76692000D01*
X168272000Y-81798000D02*
X168272000Y-80288000D01*
X168272000Y-78208000D02*
X168272000Y-76698000D01*
X168232000Y-81791000D02*
X168232000Y-80288000D01*
X168232000Y-78208000D02*
X168232000Y-76705000D01*
X168192000Y-81784000D02*
X168192000Y-80288000D01*
X168192000Y-78208000D02*
X168192000Y-76712000D01*
X168152000Y-81776000D02*
X168152000Y-80288000D01*
X168152000Y-78208000D02*
X168152000Y-76720000D01*
X168112000Y-81768000D02*
X168112000Y-80288000D01*
X168112000Y-78208000D02*
X168112000Y-76728000D01*
X168072000Y-81759000D02*
X168072000Y-80288000D01*
X168072000Y-78208000D02*
X168072000Y-76737000D01*
X168032000Y-81749000D02*
X168032000Y-80288000D01*
X168032000Y-78208000D02*
X168032000Y-76747000D01*
X167992000Y-81739000D02*
X167992000Y-80288000D01*
X167992000Y-78208000D02*
X167992000Y-76757000D01*
X167951000Y-81728000D02*
X167951000Y-80288000D01*
X167951000Y-78208000D02*
X167951000Y-76768000D01*
X167911000Y-81716000D02*
X167911000Y-80288000D01*
X167911000Y-78208000D02*
X167911000Y-76780000D01*
X167871000Y-81703000D02*
X167871000Y-80288000D01*
X167871000Y-78208000D02*
X167871000Y-76793000D01*
X167831000Y-81690000D02*
X167831000Y-80288000D01*
X167831000Y-78208000D02*
X167831000Y-76806000D01*
X167791000Y-81676000D02*
X167791000Y-80288000D01*
X167791000Y-78208000D02*
X167791000Y-76820000D01*
X167751000Y-81662000D02*
X167751000Y-80288000D01*
X167751000Y-78208000D02*
X167751000Y-76834000D01*
X167711000Y-81646000D02*
X167711000Y-80288000D01*
X167711000Y-78208000D02*
X167711000Y-76850000D01*
X167671000Y-81630000D02*
X167671000Y-80288000D01*
X167671000Y-78208000D02*
X167671000Y-76866000D01*
X167631000Y-81613000D02*
X167631000Y-80288000D01*
X167631000Y-78208000D02*
X167631000Y-76883000D01*
X167591000Y-81596000D02*
X167591000Y-80288000D01*
X167591000Y-78208000D02*
X167591000Y-76900000D01*
X167551000Y-81577000D02*
X167551000Y-80288000D01*
X167551000Y-78208000D02*
X167551000Y-76919000D01*
X167511000Y-81558000D02*
X167511000Y-80288000D01*
X167511000Y-78208000D02*
X167511000Y-76938000D01*
X167471000Y-81538000D02*
X167471000Y-80288000D01*
X167471000Y-78208000D02*
X167471000Y-76958000D01*
X167431000Y-81516000D02*
X167431000Y-80288000D01*
X167431000Y-78208000D02*
X167431000Y-76980000D01*
X167391000Y-81495000D02*
X167391000Y-80288000D01*
X167391000Y-78208000D02*
X167391000Y-77001000D01*
X167351000Y-81472000D02*
X167351000Y-80288000D01*
X167351000Y-78208000D02*
X167351000Y-77024000D01*
X167311000Y-81448000D02*
X167311000Y-80288000D01*
X167311000Y-78208000D02*
X167311000Y-77048000D01*
X167271000Y-81423000D02*
X167271000Y-80288000D01*
X167271000Y-78208000D02*
X167271000Y-77073000D01*
X167231000Y-81397000D02*
X167231000Y-80288000D01*
X167231000Y-78208000D02*
X167231000Y-77099000D01*
X167191000Y-81370000D02*
X167191000Y-80288000D01*
X167191000Y-78208000D02*
X167191000Y-77126000D01*
X167151000Y-81343000D02*
X167151000Y-80288000D01*
X167151000Y-78208000D02*
X167151000Y-77153000D01*
X167111000Y-81313000D02*
X167111000Y-80288000D01*
X167111000Y-78208000D02*
X167111000Y-77183000D01*
X167071000Y-81283000D02*
X167071000Y-80288000D01*
X167071000Y-78208000D02*
X167071000Y-77213000D01*
X167031000Y-81252000D02*
X167031000Y-80288000D01*
X167031000Y-78208000D02*
X167031000Y-77244000D01*
X166991000Y-81219000D02*
X166991000Y-80288000D01*
X166991000Y-78208000D02*
X166991000Y-77277000D01*
X166951000Y-81185000D02*
X166951000Y-80288000D01*
X166951000Y-78208000D02*
X166951000Y-77311000D01*
X166911000Y-81149000D02*
X166911000Y-80288000D01*
X166911000Y-78208000D02*
X166911000Y-77347000D01*
X166871000Y-81112000D02*
X166871000Y-80288000D01*
X166871000Y-78208000D02*
X166871000Y-77384000D01*
X166831000Y-81074000D02*
X166831000Y-80288000D01*
X166831000Y-78208000D02*
X166831000Y-77422000D01*
X166791000Y-81033000D02*
X166791000Y-80288000D01*
X166791000Y-78208000D02*
X166791000Y-77463000D01*
X166751000Y-80991000D02*
X166751000Y-80288000D01*
X166751000Y-78208000D02*
X166751000Y-77505000D01*
X166711000Y-80947000D02*
X166711000Y-80288000D01*
X166711000Y-78208000D02*
X166711000Y-77549000D01*
X166671000Y-80901000D02*
X166671000Y-80288000D01*
X166671000Y-78208000D02*
X166671000Y-77595000D01*
X166631000Y-80853000D02*
X166631000Y-77643000D01*
X166591000Y-80802000D02*
X166591000Y-77694000D01*
X166551000Y-80748000D02*
X166551000Y-77748000D01*
X166511000Y-80691000D02*
X166511000Y-77805000D01*
X166471000Y-80631000D02*
X166471000Y-77865000D01*
X166431000Y-80567000D02*
X166431000Y-77929000D01*
X166391000Y-80499000D02*
X166391000Y-77997000D01*
X166351000Y-80426000D02*
X166351000Y-78070000D01*
X166311000Y-80346000D02*
X166311000Y-78150000D01*
X166271000Y-80259000D02*
X166271000Y-78237000D01*
X166231000Y-80163000D02*
X166231000Y-78333000D01*
X166191000Y-80053000D02*
X166191000Y-78443000D01*
X166151000Y-79925000D02*
X166151000Y-78571000D01*
X166111000Y-79766000D02*
X166111000Y-78730000D01*
X166071000Y-79532000D02*
X166071000Y-78964000D01*
X171476775Y-80723000D02*
X170976775Y-80723000D01*
X171226775Y-80973000D02*
X171226775Y-80473000D01*
X132895000Y-67054775D02*
X133395000Y-67054775D01*
X133145000Y-67304775D02*
X133145000Y-66804775D01*
X134336000Y-61899000D02*
X134904000Y-61899000D01*
X134102000Y-61939000D02*
X135138000Y-61939000D01*
X133943000Y-61979000D02*
X135297000Y-61979000D01*
X133815000Y-62019000D02*
X135425000Y-62019000D01*
X133705000Y-62059000D02*
X135535000Y-62059000D01*
X133609000Y-62099000D02*
X135631000Y-62099000D01*
X133522000Y-62139000D02*
X135718000Y-62139000D01*
X133442000Y-62179000D02*
X135798000Y-62179000D01*
X133369000Y-62219000D02*
X135871000Y-62219000D01*
X133301000Y-62259000D02*
X135939000Y-62259000D01*
X133237000Y-62299000D02*
X136003000Y-62299000D01*
X133177000Y-62339000D02*
X136063000Y-62339000D01*
X133120000Y-62379000D02*
X136120000Y-62379000D01*
X133066000Y-62419000D02*
X136174000Y-62419000D01*
X133015000Y-62459000D02*
X136225000Y-62459000D01*
X135660000Y-62499000D02*
X136273000Y-62499000D01*
X132967000Y-62499000D02*
X133580000Y-62499000D01*
X135660000Y-62539000D02*
X136319000Y-62539000D01*
X132921000Y-62539000D02*
X133580000Y-62539000D01*
X135660000Y-62579000D02*
X136363000Y-62579000D01*
X132877000Y-62579000D02*
X133580000Y-62579000D01*
X135660000Y-62619000D02*
X136405000Y-62619000D01*
X132835000Y-62619000D02*
X133580000Y-62619000D01*
X135660000Y-62659000D02*
X136446000Y-62659000D01*
X132794000Y-62659000D02*
X133580000Y-62659000D01*
X135660000Y-62699000D02*
X136484000Y-62699000D01*
X132756000Y-62699000D02*
X133580000Y-62699000D01*
X135660000Y-62739000D02*
X136521000Y-62739000D01*
X132719000Y-62739000D02*
X133580000Y-62739000D01*
X135660000Y-62779000D02*
X136557000Y-62779000D01*
X132683000Y-62779000D02*
X133580000Y-62779000D01*
X135660000Y-62819000D02*
X136591000Y-62819000D01*
X132649000Y-62819000D02*
X133580000Y-62819000D01*
X135660000Y-62859000D02*
X136624000Y-62859000D01*
X132616000Y-62859000D02*
X133580000Y-62859000D01*
X135660000Y-62899000D02*
X136655000Y-62899000D01*
X132585000Y-62899000D02*
X133580000Y-62899000D01*
X135660000Y-62939000D02*
X136685000Y-62939000D01*
X132555000Y-62939000D02*
X133580000Y-62939000D01*
X135660000Y-62979000D02*
X136715000Y-62979000D01*
X132525000Y-62979000D02*
X133580000Y-62979000D01*
X135660000Y-63019000D02*
X136742000Y-63019000D01*
X132498000Y-63019000D02*
X133580000Y-63019000D01*
X135660000Y-63059000D02*
X136769000Y-63059000D01*
X132471000Y-63059000D02*
X133580000Y-63059000D01*
X135660000Y-63099000D02*
X136795000Y-63099000D01*
X132445000Y-63099000D02*
X133580000Y-63099000D01*
X135660000Y-63139000D02*
X136820000Y-63139000D01*
X132420000Y-63139000D02*
X133580000Y-63139000D01*
X135660000Y-63179000D02*
X136844000Y-63179000D01*
X132396000Y-63179000D02*
X133580000Y-63179000D01*
X135660000Y-63219000D02*
X136867000Y-63219000D01*
X132373000Y-63219000D02*
X133580000Y-63219000D01*
X135660000Y-63259000D02*
X136888000Y-63259000D01*
X132352000Y-63259000D02*
X133580000Y-63259000D01*
X135660000Y-63299000D02*
X136910000Y-63299000D01*
X132330000Y-63299000D02*
X133580000Y-63299000D01*
X135660000Y-63339000D02*
X136930000Y-63339000D01*
X132310000Y-63339000D02*
X133580000Y-63339000D01*
X135660000Y-63379000D02*
X136949000Y-63379000D01*
X132291000Y-63379000D02*
X133580000Y-63379000D01*
X135660000Y-63419000D02*
X136968000Y-63419000D01*
X132272000Y-63419000D02*
X133580000Y-63419000D01*
X135660000Y-63459000D02*
X136985000Y-63459000D01*
X132255000Y-63459000D02*
X133580000Y-63459000D01*
X135660000Y-63499000D02*
X137002000Y-63499000D01*
X132238000Y-63499000D02*
X133580000Y-63499000D01*
X135660000Y-63539000D02*
X137018000Y-63539000D01*
X132222000Y-63539000D02*
X133580000Y-63539000D01*
X135660000Y-63579000D02*
X137034000Y-63579000D01*
X132206000Y-63579000D02*
X133580000Y-63579000D01*
X135660000Y-63619000D02*
X137048000Y-63619000D01*
X132192000Y-63619000D02*
X133580000Y-63619000D01*
X135660000Y-63659000D02*
X137062000Y-63659000D01*
X132178000Y-63659000D02*
X133580000Y-63659000D01*
X135660000Y-63699000D02*
X137075000Y-63699000D01*
X132165000Y-63699000D02*
X133580000Y-63699000D01*
X135660000Y-63739000D02*
X137088000Y-63739000D01*
X132152000Y-63739000D02*
X133580000Y-63739000D01*
X135660000Y-63779000D02*
X137100000Y-63779000D01*
X132140000Y-63779000D02*
X133580000Y-63779000D01*
X135660000Y-63820000D02*
X137111000Y-63820000D01*
X132129000Y-63820000D02*
X133580000Y-63820000D01*
X135660000Y-63860000D02*
X137121000Y-63860000D01*
X132119000Y-63860000D02*
X133580000Y-63860000D01*
X135660000Y-63900000D02*
X137131000Y-63900000D01*
X132109000Y-63900000D02*
X133580000Y-63900000D01*
X135660000Y-63940000D02*
X137140000Y-63940000D01*
X132100000Y-63940000D02*
X133580000Y-63940000D01*
X135660000Y-63980000D02*
X137148000Y-63980000D01*
X132092000Y-63980000D02*
X133580000Y-63980000D01*
X135660000Y-64020000D02*
X137156000Y-64020000D01*
X132084000Y-64020000D02*
X133580000Y-64020000D01*
X135660000Y-64060000D02*
X137163000Y-64060000D01*
X132077000Y-64060000D02*
X133580000Y-64060000D01*
X135660000Y-64100000D02*
X137170000Y-64100000D01*
X132070000Y-64100000D02*
X133580000Y-64100000D01*
X135660000Y-64140000D02*
X137176000Y-64140000D01*
X132064000Y-64140000D02*
X133580000Y-64140000D01*
X135660000Y-64180000D02*
X137181000Y-64180000D01*
X132059000Y-64180000D02*
X133580000Y-64180000D01*
X135660000Y-64220000D02*
X137185000Y-64220000D01*
X132055000Y-64220000D02*
X133580000Y-64220000D01*
X135660000Y-64260000D02*
X137189000Y-64260000D01*
X132051000Y-64260000D02*
X133580000Y-64260000D01*
X135660000Y-64300000D02*
X137193000Y-64300000D01*
X132047000Y-64300000D02*
X133580000Y-64300000D01*
X135660000Y-64340000D02*
X137196000Y-64340000D01*
X132044000Y-64340000D02*
X133580000Y-64340000D01*
X135660000Y-64380000D02*
X137198000Y-64380000D01*
X132042000Y-64380000D02*
X133580000Y-64380000D01*
X135660000Y-64420000D02*
X137199000Y-64420000D01*
X132041000Y-64420000D02*
X133580000Y-64420000D01*
X132040000Y-64460000D02*
X133580000Y-64460000D01*
X135660000Y-64460000D02*
X137200000Y-64460000D01*
X132040000Y-64500000D02*
X133580000Y-64500000D01*
X135660000Y-64500000D02*
X137200000Y-64500000D01*
X137240000Y-64500000D02*
G75*
G03*
X137240000Y-64500000I-2620000J0D01*
G01*
X132895000Y-72674775D02*
X133395000Y-72674775D01*
X133145000Y-72924775D02*
X133145000Y-72424775D01*
X134336000Y-67519000D02*
X134904000Y-67519000D01*
X134102000Y-67559000D02*
X135138000Y-67559000D01*
X133943000Y-67599000D02*
X135297000Y-67599000D01*
X133815000Y-67639000D02*
X135425000Y-67639000D01*
X133705000Y-67679000D02*
X135535000Y-67679000D01*
X133609000Y-67719000D02*
X135631000Y-67719000D01*
X133522000Y-67759000D02*
X135718000Y-67759000D01*
X133442000Y-67799000D02*
X135798000Y-67799000D01*
X133369000Y-67839000D02*
X135871000Y-67839000D01*
X133301000Y-67879000D02*
X135939000Y-67879000D01*
X133237000Y-67919000D02*
X136003000Y-67919000D01*
X133177000Y-67959000D02*
X136063000Y-67959000D01*
X133120000Y-67999000D02*
X136120000Y-67999000D01*
X133066000Y-68039000D02*
X136174000Y-68039000D01*
X133015000Y-68079000D02*
X136225000Y-68079000D01*
X135660000Y-68119000D02*
X136273000Y-68119000D01*
X132967000Y-68119000D02*
X133580000Y-68119000D01*
X135660000Y-68159000D02*
X136319000Y-68159000D01*
X132921000Y-68159000D02*
X133580000Y-68159000D01*
X135660000Y-68199000D02*
X136363000Y-68199000D01*
X132877000Y-68199000D02*
X133580000Y-68199000D01*
X135660000Y-68239000D02*
X136405000Y-68239000D01*
X132835000Y-68239000D02*
X133580000Y-68239000D01*
X135660000Y-68279000D02*
X136446000Y-68279000D01*
X132794000Y-68279000D02*
X133580000Y-68279000D01*
X135660000Y-68319000D02*
X136484000Y-68319000D01*
X132756000Y-68319000D02*
X133580000Y-68319000D01*
X135660000Y-68359000D02*
X136521000Y-68359000D01*
X132719000Y-68359000D02*
X133580000Y-68359000D01*
X135660000Y-68399000D02*
X136557000Y-68399000D01*
X132683000Y-68399000D02*
X133580000Y-68399000D01*
X135660000Y-68439000D02*
X136591000Y-68439000D01*
X132649000Y-68439000D02*
X133580000Y-68439000D01*
X135660000Y-68479000D02*
X136624000Y-68479000D01*
X132616000Y-68479000D02*
X133580000Y-68479000D01*
X135660000Y-68519000D02*
X136655000Y-68519000D01*
X132585000Y-68519000D02*
X133580000Y-68519000D01*
X135660000Y-68559000D02*
X136685000Y-68559000D01*
X132555000Y-68559000D02*
X133580000Y-68559000D01*
X135660000Y-68599000D02*
X136715000Y-68599000D01*
X132525000Y-68599000D02*
X133580000Y-68599000D01*
X135660000Y-68639000D02*
X136742000Y-68639000D01*
X132498000Y-68639000D02*
X133580000Y-68639000D01*
X135660000Y-68679000D02*
X136769000Y-68679000D01*
X132471000Y-68679000D02*
X133580000Y-68679000D01*
X135660000Y-68719000D02*
X136795000Y-68719000D01*
X132445000Y-68719000D02*
X133580000Y-68719000D01*
X135660000Y-68759000D02*
X136820000Y-68759000D01*
X132420000Y-68759000D02*
X133580000Y-68759000D01*
X135660000Y-68799000D02*
X136844000Y-68799000D01*
X132396000Y-68799000D02*
X133580000Y-68799000D01*
X135660000Y-68839000D02*
X136867000Y-68839000D01*
X132373000Y-68839000D02*
X133580000Y-68839000D01*
X135660000Y-68879000D02*
X136888000Y-68879000D01*
X132352000Y-68879000D02*
X133580000Y-68879000D01*
X135660000Y-68919000D02*
X136910000Y-68919000D01*
X132330000Y-68919000D02*
X133580000Y-68919000D01*
X135660000Y-68959000D02*
X136930000Y-68959000D01*
X132310000Y-68959000D02*
X133580000Y-68959000D01*
X135660000Y-68999000D02*
X136949000Y-68999000D01*
X132291000Y-68999000D02*
X133580000Y-68999000D01*
X135660000Y-69039000D02*
X136968000Y-69039000D01*
X132272000Y-69039000D02*
X133580000Y-69039000D01*
X135660000Y-69079000D02*
X136985000Y-69079000D01*
X132255000Y-69079000D02*
X133580000Y-69079000D01*
X135660000Y-69119000D02*
X137002000Y-69119000D01*
X132238000Y-69119000D02*
X133580000Y-69119000D01*
X135660000Y-69159000D02*
X137018000Y-69159000D01*
X132222000Y-69159000D02*
X133580000Y-69159000D01*
X135660000Y-69199000D02*
X137034000Y-69199000D01*
X132206000Y-69199000D02*
X133580000Y-69199000D01*
X135660000Y-69239000D02*
X137048000Y-69239000D01*
X132192000Y-69239000D02*
X133580000Y-69239000D01*
X135660000Y-69279000D02*
X137062000Y-69279000D01*
X132178000Y-69279000D02*
X133580000Y-69279000D01*
X135660000Y-69319000D02*
X137075000Y-69319000D01*
X132165000Y-69319000D02*
X133580000Y-69319000D01*
X135660000Y-69359000D02*
X137088000Y-69359000D01*
X132152000Y-69359000D02*
X133580000Y-69359000D01*
X135660000Y-69399000D02*
X137100000Y-69399000D01*
X132140000Y-69399000D02*
X133580000Y-69399000D01*
X135660000Y-69440000D02*
X137111000Y-69440000D01*
X132129000Y-69440000D02*
X133580000Y-69440000D01*
X135660000Y-69480000D02*
X137121000Y-69480000D01*
X132119000Y-69480000D02*
X133580000Y-69480000D01*
X135660000Y-69520000D02*
X137131000Y-69520000D01*
X132109000Y-69520000D02*
X133580000Y-69520000D01*
X135660000Y-69560000D02*
X137140000Y-69560000D01*
X132100000Y-69560000D02*
X133580000Y-69560000D01*
X135660000Y-69600000D02*
X137148000Y-69600000D01*
X132092000Y-69600000D02*
X133580000Y-69600000D01*
X135660000Y-69640000D02*
X137156000Y-69640000D01*
X132084000Y-69640000D02*
X133580000Y-69640000D01*
X135660000Y-69680000D02*
X137163000Y-69680000D01*
X132077000Y-69680000D02*
X133580000Y-69680000D01*
X135660000Y-69720000D02*
X137170000Y-69720000D01*
X132070000Y-69720000D02*
X133580000Y-69720000D01*
X135660000Y-69760000D02*
X137176000Y-69760000D01*
X132064000Y-69760000D02*
X133580000Y-69760000D01*
X135660000Y-69800000D02*
X137181000Y-69800000D01*
X132059000Y-69800000D02*
X133580000Y-69800000D01*
X135660000Y-69840000D02*
X137185000Y-69840000D01*
X132055000Y-69840000D02*
X133580000Y-69840000D01*
X135660000Y-69880000D02*
X137189000Y-69880000D01*
X132051000Y-69880000D02*
X133580000Y-69880000D01*
X135660000Y-69920000D02*
X137193000Y-69920000D01*
X132047000Y-69920000D02*
X133580000Y-69920000D01*
X135660000Y-69960000D02*
X137196000Y-69960000D01*
X132044000Y-69960000D02*
X133580000Y-69960000D01*
X135660000Y-70000000D02*
X137198000Y-70000000D01*
X132042000Y-70000000D02*
X133580000Y-70000000D01*
X135660000Y-70040000D02*
X137199000Y-70040000D01*
X132041000Y-70040000D02*
X133580000Y-70040000D01*
X132040000Y-70080000D02*
X133580000Y-70080000D01*
X135660000Y-70080000D02*
X137200000Y-70080000D01*
X132040000Y-70120000D02*
X133580000Y-70120000D01*
X135660000Y-70120000D02*
X137200000Y-70120000D01*
X137240000Y-70120000D02*
G75*
G03*
X137240000Y-70120000I-2620000J0D01*
G01*
X117835000Y-82879491D02*
X119435000Y-82879491D01*
X118635000Y-83679491D02*
X118635000Y-82079491D01*
X122425000Y-66909000D02*
X123955000Y-66909000D01*
X122092000Y-66949000D02*
X124288000Y-66949000D01*
X121839000Y-66989000D02*
X124541000Y-66989000D01*
X121626000Y-67029000D02*
X124754000Y-67029000D01*
X121438000Y-67069000D02*
X124942000Y-67069000D01*
X121270000Y-67109000D02*
X125110000Y-67109000D01*
X121116000Y-67149000D02*
X125264000Y-67149000D01*
X120972000Y-67189000D02*
X125408000Y-67189000D01*
X120839000Y-67229000D02*
X125541000Y-67229000D01*
X120712000Y-67269000D02*
X125668000Y-67269000D01*
X120593000Y-67309000D02*
X125787000Y-67309000D01*
X120479000Y-67349000D02*
X125901000Y-67349000D01*
X120370000Y-67389000D02*
X126010000Y-67389000D01*
X120266000Y-67429000D02*
X126114000Y-67429000D01*
X120166000Y-67469000D02*
X126214000Y-67469000D01*
X120070000Y-67509000D02*
X126310000Y-67509000D01*
X119977000Y-67549000D02*
X126403000Y-67549000D01*
X119887000Y-67589000D02*
X126493000Y-67589000D01*
X119800000Y-67629000D02*
X126580000Y-67629000D01*
X119715000Y-67669000D02*
X126665000Y-67669000D01*
X119633000Y-67709000D02*
X126747000Y-67709000D01*
X119553000Y-67749000D02*
X126827000Y-67749000D01*
X119475000Y-67789000D02*
X126905000Y-67789000D01*
X119400000Y-67829000D02*
X126980000Y-67829000D01*
X119326000Y-67869000D02*
X127054000Y-67869000D01*
X119254000Y-67909000D02*
X127126000Y-67909000D01*
X119183000Y-67949000D02*
X127197000Y-67949000D01*
X119114000Y-67989000D02*
X127266000Y-67989000D01*
X119047000Y-68029000D02*
X127333000Y-68029000D01*
X118981000Y-68069000D02*
X127399000Y-68069000D01*
X118917000Y-68109000D02*
X127463000Y-68109000D01*
X118854000Y-68149000D02*
X127526000Y-68149000D01*
X118792000Y-68189000D02*
X127588000Y-68189000D01*
X118731000Y-68229000D02*
X127649000Y-68229000D01*
X118671000Y-68269000D02*
X127709000Y-68269000D01*
X118613000Y-68309000D02*
X127767000Y-68309000D01*
X118556000Y-68349000D02*
X127824000Y-68349000D01*
X118499000Y-68389000D02*
X127881000Y-68389000D01*
X118444000Y-68429000D02*
X127936000Y-68429000D01*
X118390000Y-68469000D02*
X127990000Y-68469000D01*
X118336000Y-68509000D02*
X128044000Y-68509000D01*
X118284000Y-68549000D02*
X128096000Y-68549000D01*
X118232000Y-68589000D02*
X128148000Y-68589000D01*
X118181000Y-68629000D02*
X128199000Y-68629000D01*
X118131000Y-68669000D02*
X128249000Y-68669000D01*
X118082000Y-68709000D02*
X128298000Y-68709000D01*
X118034000Y-68749000D02*
X128346000Y-68749000D01*
X117986000Y-68789000D02*
X128394000Y-68789000D01*
X117939000Y-68829000D02*
X128441000Y-68829000D01*
X117893000Y-68869000D02*
X128487000Y-68869000D01*
X117847000Y-68909000D02*
X128533000Y-68909000D01*
X117802000Y-68949000D02*
X128578000Y-68949000D01*
X117758000Y-68989000D02*
X128622000Y-68989000D01*
X117715000Y-69029000D02*
X128665000Y-69029000D01*
X117672000Y-69069000D02*
X128708000Y-69069000D01*
X117630000Y-69109000D02*
X128750000Y-69109000D01*
X117588000Y-69149000D02*
X128792000Y-69149000D01*
X117547000Y-69189000D02*
X128833000Y-69189000D01*
X117506000Y-69229000D02*
X128874000Y-69229000D01*
X117466000Y-69269000D02*
X128914000Y-69269000D01*
X117427000Y-69309000D02*
X128953000Y-69309000D01*
X117388000Y-69349000D02*
X128992000Y-69349000D01*
X117350000Y-69389000D02*
X129030000Y-69389000D01*
X117312000Y-69429000D02*
X129068000Y-69429000D01*
X117274000Y-69469000D02*
X129106000Y-69469000D01*
X117238000Y-69509000D02*
X129142000Y-69509000D01*
X117201000Y-69549000D02*
X129179000Y-69549000D01*
X117165000Y-69589000D02*
X129215000Y-69589000D01*
X117130000Y-69629000D02*
X129250000Y-69629000D01*
X117095000Y-69669000D02*
X129285000Y-69669000D01*
X117061000Y-69709000D02*
X129319000Y-69709000D01*
X117027000Y-69749000D02*
X129353000Y-69749000D01*
X116993000Y-69789000D02*
X129387000Y-69789000D01*
X124630000Y-69829000D02*
X129420000Y-69829000D01*
X116960000Y-69829000D02*
X121750000Y-69829000D01*
X124630000Y-69869000D02*
X129453000Y-69869000D01*
X116927000Y-69869000D02*
X121750000Y-69869000D01*
X124630000Y-69909000D02*
X129485000Y-69909000D01*
X116895000Y-69909000D02*
X121750000Y-69909000D01*
X124630000Y-69949000D02*
X129517000Y-69949000D01*
X116863000Y-69949000D02*
X121750000Y-69949000D01*
X124630000Y-69989000D02*
X129548000Y-69989000D01*
X116832000Y-69989000D02*
X121750000Y-69989000D01*
X124630000Y-70029000D02*
X129580000Y-70029000D01*
X116800000Y-70029000D02*
X121750000Y-70029000D01*
X124630000Y-70069000D02*
X129610000Y-70069000D01*
X116770000Y-70069000D02*
X121750000Y-70069000D01*
X124630000Y-70109000D02*
X129640000Y-70109000D01*
X116740000Y-70109000D02*
X121750000Y-70109000D01*
X124630000Y-70149000D02*
X129670000Y-70149000D01*
X116710000Y-70149000D02*
X121750000Y-70149000D01*
X124630000Y-70189000D02*
X129700000Y-70189000D01*
X116680000Y-70189000D02*
X121750000Y-70189000D01*
X124630000Y-70229000D02*
X129729000Y-70229000D01*
X116651000Y-70229000D02*
X121750000Y-70229000D01*
X124630000Y-70269000D02*
X129758000Y-70269000D01*
X116622000Y-70269000D02*
X121750000Y-70269000D01*
X124630000Y-70309000D02*
X129786000Y-70309000D01*
X116594000Y-70309000D02*
X121750000Y-70309000D01*
X124630000Y-70349000D02*
X129814000Y-70349000D01*
X116566000Y-70349000D02*
X121750000Y-70349000D01*
X124630000Y-70389000D02*
X129842000Y-70389000D01*
X116538000Y-70389000D02*
X121750000Y-70389000D01*
X124630000Y-70429000D02*
X129869000Y-70429000D01*
X116511000Y-70429000D02*
X121750000Y-70429000D01*
X124630000Y-70469000D02*
X129896000Y-70469000D01*
X116484000Y-70469000D02*
X121750000Y-70469000D01*
X124630000Y-70509000D02*
X129923000Y-70509000D01*
X116457000Y-70509000D02*
X121750000Y-70509000D01*
X124630000Y-70549000D02*
X129949000Y-70549000D01*
X116431000Y-70549000D02*
X121750000Y-70549000D01*
X124630000Y-70589000D02*
X129975000Y-70589000D01*
X116405000Y-70589000D02*
X121750000Y-70589000D01*
X124630000Y-70629000D02*
X130001000Y-70629000D01*
X116379000Y-70629000D02*
X121750000Y-70629000D01*
X124630000Y-70669000D02*
X130026000Y-70669000D01*
X116354000Y-70669000D02*
X121750000Y-70669000D01*
X124630000Y-70709000D02*
X130051000Y-70709000D01*
X116329000Y-70709000D02*
X121750000Y-70709000D01*
X124630000Y-70749000D02*
X130076000Y-70749000D01*
X116304000Y-70749000D02*
X121750000Y-70749000D01*
X124630000Y-70789000D02*
X130100000Y-70789000D01*
X116280000Y-70789000D02*
X121750000Y-70789000D01*
X124630000Y-70829000D02*
X130124000Y-70829000D01*
X116256000Y-70829000D02*
X121750000Y-70829000D01*
X124630000Y-70869000D02*
X130148000Y-70869000D01*
X116232000Y-70869000D02*
X121750000Y-70869000D01*
X124630000Y-70909000D02*
X130171000Y-70909000D01*
X116209000Y-70909000D02*
X121750000Y-70909000D01*
X124630000Y-70949000D02*
X130194000Y-70949000D01*
X116186000Y-70949000D02*
X121750000Y-70949000D01*
X124630000Y-70989000D02*
X130217000Y-70989000D01*
X116163000Y-70989000D02*
X121750000Y-70989000D01*
X124630000Y-71029000D02*
X130239000Y-71029000D01*
X116141000Y-71029000D02*
X121750000Y-71029000D01*
X124630000Y-71069000D02*
X130262000Y-71069000D01*
X116118000Y-71069000D02*
X121750000Y-71069000D01*
X124630000Y-71109000D02*
X130284000Y-71109000D01*
X116096000Y-71109000D02*
X121750000Y-71109000D01*
X124630000Y-71149000D02*
X130305000Y-71149000D01*
X116075000Y-71149000D02*
X121750000Y-71149000D01*
X124630000Y-71189000D02*
X130326000Y-71189000D01*
X116054000Y-71189000D02*
X121750000Y-71189000D01*
X124630000Y-71229000D02*
X130347000Y-71229000D01*
X116033000Y-71229000D02*
X121750000Y-71229000D01*
X124630000Y-71269000D02*
X130368000Y-71269000D01*
X116012000Y-71269000D02*
X121750000Y-71269000D01*
X124630000Y-71309000D02*
X130389000Y-71309000D01*
X115991000Y-71309000D02*
X121750000Y-71309000D01*
X124630000Y-71349000D02*
X130409000Y-71349000D01*
X115971000Y-71349000D02*
X121750000Y-71349000D01*
X124630000Y-71389000D02*
X130429000Y-71389000D01*
X115951000Y-71389000D02*
X121750000Y-71389000D01*
X124630000Y-71429000D02*
X130448000Y-71429000D01*
X115932000Y-71429000D02*
X121750000Y-71429000D01*
X124630000Y-71469000D02*
X130468000Y-71469000D01*
X115912000Y-71469000D02*
X121750000Y-71469000D01*
X124630000Y-71509000D02*
X130487000Y-71509000D01*
X115893000Y-71509000D02*
X121750000Y-71509000D01*
X124630000Y-71549000D02*
X130506000Y-71549000D01*
X115874000Y-71549000D02*
X121750000Y-71549000D01*
X124630000Y-71589000D02*
X130524000Y-71589000D01*
X115856000Y-71589000D02*
X121750000Y-71589000D01*
X124630000Y-71629000D02*
X130543000Y-71629000D01*
X115837000Y-71629000D02*
X121750000Y-71629000D01*
X124630000Y-71669000D02*
X130561000Y-71669000D01*
X115819000Y-71669000D02*
X121750000Y-71669000D01*
X124630000Y-71709000D02*
X130579000Y-71709000D01*
X115801000Y-71709000D02*
X121750000Y-71709000D01*
X124630000Y-71749000D02*
X130596000Y-71749000D01*
X115784000Y-71749000D02*
X121750000Y-71749000D01*
X124630000Y-71789000D02*
X130613000Y-71789000D01*
X115767000Y-71789000D02*
X121750000Y-71789000D01*
X124630000Y-71829000D02*
X130630000Y-71829000D01*
X115750000Y-71829000D02*
X121750000Y-71829000D01*
X124630000Y-71869000D02*
X130647000Y-71869000D01*
X115733000Y-71869000D02*
X121750000Y-71869000D01*
X124630000Y-71909000D02*
X130664000Y-71909000D01*
X115716000Y-71909000D02*
X121750000Y-71909000D01*
X124630000Y-71949000D02*
X130680000Y-71949000D01*
X115700000Y-71949000D02*
X121750000Y-71949000D01*
X124630000Y-71989000D02*
X130696000Y-71989000D01*
X115684000Y-71989000D02*
X121750000Y-71989000D01*
X124630000Y-72029000D02*
X130712000Y-72029000D01*
X115668000Y-72029000D02*
X121750000Y-72029000D01*
X124630000Y-72069000D02*
X130727000Y-72069000D01*
X115653000Y-72069000D02*
X121750000Y-72069000D01*
X124630000Y-72109000D02*
X130743000Y-72109000D01*
X115637000Y-72109000D02*
X121750000Y-72109000D01*
X124630000Y-72149000D02*
X130758000Y-72149000D01*
X115622000Y-72149000D02*
X121750000Y-72149000D01*
X124630000Y-72189000D02*
X130772000Y-72189000D01*
X115608000Y-72189000D02*
X121750000Y-72189000D01*
X124630000Y-72229000D02*
X130787000Y-72229000D01*
X115593000Y-72229000D02*
X121750000Y-72229000D01*
X124630000Y-72269000D02*
X130801000Y-72269000D01*
X115579000Y-72269000D02*
X121750000Y-72269000D01*
X124630000Y-72309000D02*
X130815000Y-72309000D01*
X115565000Y-72309000D02*
X121750000Y-72309000D01*
X124630000Y-72349000D02*
X130829000Y-72349000D01*
X115551000Y-72349000D02*
X121750000Y-72349000D01*
X124630000Y-72389000D02*
X130843000Y-72389000D01*
X115537000Y-72389000D02*
X121750000Y-72389000D01*
X124630000Y-72429000D02*
X130856000Y-72429000D01*
X115524000Y-72429000D02*
X121750000Y-72429000D01*
X124630000Y-72469000D02*
X130870000Y-72469000D01*
X115510000Y-72469000D02*
X121750000Y-72469000D01*
X124630000Y-72509000D02*
X130883000Y-72509000D01*
X115497000Y-72509000D02*
X121750000Y-72509000D01*
X124630000Y-72549000D02*
X130895000Y-72549000D01*
X115485000Y-72549000D02*
X121750000Y-72549000D01*
X124630000Y-72589000D02*
X130908000Y-72589000D01*
X115472000Y-72589000D02*
X121750000Y-72589000D01*
X124630000Y-72629000D02*
X130920000Y-72629000D01*
X115460000Y-72629000D02*
X121750000Y-72629000D01*
X124630000Y-72669000D02*
X130932000Y-72669000D01*
X115448000Y-72669000D02*
X121750000Y-72669000D01*
X115436000Y-72709000D02*
X130944000Y-72709000D01*
X115425000Y-72749000D02*
X130955000Y-72749000D01*
X115413000Y-72789000D02*
X130967000Y-72789000D01*
X115402000Y-72829000D02*
X130978000Y-72829000D01*
X115391000Y-72869000D02*
X130989000Y-72869000D01*
X115380000Y-72909000D02*
X131000000Y-72909000D01*
X115370000Y-72949000D02*
X131010000Y-72949000D01*
X115360000Y-72989000D02*
X131020000Y-72989000D01*
X115350000Y-73029000D02*
X131030000Y-73029000D01*
X115340000Y-73069000D02*
X131040000Y-73069000D01*
X115330000Y-73109000D02*
X131050000Y-73109000D01*
X115321000Y-73149000D02*
X131059000Y-73149000D01*
X115312000Y-73189000D02*
X131068000Y-73189000D01*
X115303000Y-73229000D02*
X131077000Y-73229000D01*
X115294000Y-73269000D02*
X131086000Y-73269000D01*
X115285000Y-73309000D02*
X131095000Y-73309000D01*
X115277000Y-73349000D02*
X131103000Y-73349000D01*
X115269000Y-73389000D02*
X131111000Y-73389000D01*
X115261000Y-73429000D02*
X131119000Y-73429000D01*
X115253000Y-73469000D02*
X131127000Y-73469000D01*
X115246000Y-73509000D02*
X131134000Y-73509000D01*
X115238000Y-73549000D02*
X131142000Y-73549000D01*
X115231000Y-73589000D02*
X131149000Y-73589000D01*
X115224000Y-73629000D02*
X131156000Y-73629000D01*
X115218000Y-73669000D02*
X131162000Y-73669000D01*
X115211000Y-73709000D02*
X131169000Y-73709000D01*
X115205000Y-73749000D02*
X131175000Y-73749000D01*
X115199000Y-73789000D02*
X131181000Y-73789000D01*
X115193000Y-73829000D02*
X131187000Y-73829000D01*
X115187000Y-73869000D02*
X131193000Y-73869000D01*
X115182000Y-73909000D02*
X131198000Y-73909000D01*
X115176000Y-73949000D02*
X131204000Y-73949000D01*
X115171000Y-73989000D02*
X131209000Y-73989000D01*
X115166000Y-74029000D02*
X131214000Y-74029000D01*
X115162000Y-74069000D02*
X131218000Y-74069000D01*
X115157000Y-74109000D02*
X131223000Y-74109000D01*
X115153000Y-74149000D02*
X131227000Y-74149000D01*
X115149000Y-74189000D02*
X131231000Y-74189000D01*
X115145000Y-74229000D02*
X131235000Y-74229000D01*
X115141000Y-74269000D02*
X131239000Y-74269000D01*
X115138000Y-74310000D02*
X131242000Y-74310000D01*
X115135000Y-74350000D02*
X131245000Y-74350000D01*
X115132000Y-74390000D02*
X131248000Y-74390000D01*
X115129000Y-74430000D02*
X131251000Y-74430000D01*
X115126000Y-74470000D02*
X131254000Y-74470000D01*
X115124000Y-74510000D02*
X131256000Y-74510000D01*
X115121000Y-74550000D02*
X131259000Y-74550000D01*
X115119000Y-74590000D02*
X131261000Y-74590000D01*
X115117000Y-74630000D02*
X131263000Y-74630000D01*
X115116000Y-74670000D02*
X131264000Y-74670000D01*
X115114000Y-74710000D02*
X131266000Y-74710000D01*
X115113000Y-74750000D02*
X131267000Y-74750000D01*
X115112000Y-74790000D02*
X131268000Y-74790000D01*
X115111000Y-74830000D02*
X131269000Y-74830000D01*
X115110000Y-74870000D02*
X131270000Y-74870000D01*
X115110000Y-74910000D02*
X131270000Y-74910000D01*
X115110000Y-74950000D02*
X131270000Y-74950000D01*
X115109000Y-74990000D02*
X131271000Y-74990000D01*
X131310000Y-74990000D02*
G75*
G03*
X131310000Y-74990000I-8120000J0D01*
G01*
X117835000Y-99643491D02*
X119435000Y-99643491D01*
X118635000Y-100443491D02*
X118635000Y-98843491D01*
X122425000Y-83673000D02*
X123955000Y-83673000D01*
X122092000Y-83713000D02*
X124288000Y-83713000D01*
X121839000Y-83753000D02*
X124541000Y-83753000D01*
X121626000Y-83793000D02*
X124754000Y-83793000D01*
X121438000Y-83833000D02*
X124942000Y-83833000D01*
X121270000Y-83873000D02*
X125110000Y-83873000D01*
X121116000Y-83913000D02*
X125264000Y-83913000D01*
X120972000Y-83953000D02*
X125408000Y-83953000D01*
X120839000Y-83993000D02*
X125541000Y-83993000D01*
X120712000Y-84033000D02*
X125668000Y-84033000D01*
X120593000Y-84073000D02*
X125787000Y-84073000D01*
X120479000Y-84113000D02*
X125901000Y-84113000D01*
X120370000Y-84153000D02*
X126010000Y-84153000D01*
X120266000Y-84193000D02*
X126114000Y-84193000D01*
X120166000Y-84233000D02*
X126214000Y-84233000D01*
X120070000Y-84273000D02*
X126310000Y-84273000D01*
X119977000Y-84313000D02*
X126403000Y-84313000D01*
X119887000Y-84353000D02*
X126493000Y-84353000D01*
X119800000Y-84393000D02*
X126580000Y-84393000D01*
X119715000Y-84433000D02*
X126665000Y-84433000D01*
X119633000Y-84473000D02*
X126747000Y-84473000D01*
X119553000Y-84513000D02*
X126827000Y-84513000D01*
X119475000Y-84553000D02*
X126905000Y-84553000D01*
X119400000Y-84593000D02*
X126980000Y-84593000D01*
X119326000Y-84633000D02*
X127054000Y-84633000D01*
X119254000Y-84673000D02*
X127126000Y-84673000D01*
X119183000Y-84713000D02*
X127197000Y-84713000D01*
X119114000Y-84753000D02*
X127266000Y-84753000D01*
X119047000Y-84793000D02*
X127333000Y-84793000D01*
X118981000Y-84833000D02*
X127399000Y-84833000D01*
X118917000Y-84873000D02*
X127463000Y-84873000D01*
X118854000Y-84913000D02*
X127526000Y-84913000D01*
X118792000Y-84953000D02*
X127588000Y-84953000D01*
X118731000Y-84993000D02*
X127649000Y-84993000D01*
X118671000Y-85033000D02*
X127709000Y-85033000D01*
X118613000Y-85073000D02*
X127767000Y-85073000D01*
X118556000Y-85113000D02*
X127824000Y-85113000D01*
X118499000Y-85153000D02*
X127881000Y-85153000D01*
X118444000Y-85193000D02*
X127936000Y-85193000D01*
X118390000Y-85233000D02*
X127990000Y-85233000D01*
X118336000Y-85273000D02*
X128044000Y-85273000D01*
X118284000Y-85313000D02*
X128096000Y-85313000D01*
X118232000Y-85353000D02*
X128148000Y-85353000D01*
X118181000Y-85393000D02*
X128199000Y-85393000D01*
X118131000Y-85433000D02*
X128249000Y-85433000D01*
X118082000Y-85473000D02*
X128298000Y-85473000D01*
X118034000Y-85513000D02*
X128346000Y-85513000D01*
X117986000Y-85553000D02*
X128394000Y-85553000D01*
X117939000Y-85593000D02*
X128441000Y-85593000D01*
X117893000Y-85633000D02*
X128487000Y-85633000D01*
X117847000Y-85673000D02*
X128533000Y-85673000D01*
X117802000Y-85713000D02*
X128578000Y-85713000D01*
X117758000Y-85753000D02*
X128622000Y-85753000D01*
X117715000Y-85793000D02*
X128665000Y-85793000D01*
X117672000Y-85833000D02*
X128708000Y-85833000D01*
X117630000Y-85873000D02*
X128750000Y-85873000D01*
X117588000Y-85913000D02*
X128792000Y-85913000D01*
X117547000Y-85953000D02*
X128833000Y-85953000D01*
X117506000Y-85993000D02*
X128874000Y-85993000D01*
X117466000Y-86033000D02*
X128914000Y-86033000D01*
X117427000Y-86073000D02*
X128953000Y-86073000D01*
X117388000Y-86113000D02*
X128992000Y-86113000D01*
X117350000Y-86153000D02*
X129030000Y-86153000D01*
X117312000Y-86193000D02*
X129068000Y-86193000D01*
X117274000Y-86233000D02*
X129106000Y-86233000D01*
X117238000Y-86273000D02*
X129142000Y-86273000D01*
X117201000Y-86313000D02*
X129179000Y-86313000D01*
X117165000Y-86353000D02*
X129215000Y-86353000D01*
X117130000Y-86393000D02*
X129250000Y-86393000D01*
X117095000Y-86433000D02*
X129285000Y-86433000D01*
X117061000Y-86473000D02*
X129319000Y-86473000D01*
X117027000Y-86513000D02*
X129353000Y-86513000D01*
X116993000Y-86553000D02*
X129387000Y-86553000D01*
X124630000Y-86593000D02*
X129420000Y-86593000D01*
X116960000Y-86593000D02*
X121750000Y-86593000D01*
X124630000Y-86633000D02*
X129453000Y-86633000D01*
X116927000Y-86633000D02*
X121750000Y-86633000D01*
X124630000Y-86673000D02*
X129485000Y-86673000D01*
X116895000Y-86673000D02*
X121750000Y-86673000D01*
X124630000Y-86713000D02*
X129517000Y-86713000D01*
X116863000Y-86713000D02*
X121750000Y-86713000D01*
X124630000Y-86753000D02*
X129548000Y-86753000D01*
X116832000Y-86753000D02*
X121750000Y-86753000D01*
X124630000Y-86793000D02*
X129580000Y-86793000D01*
X116800000Y-86793000D02*
X121750000Y-86793000D01*
X124630000Y-86833000D02*
X129610000Y-86833000D01*
X116770000Y-86833000D02*
X121750000Y-86833000D01*
X124630000Y-86873000D02*
X129640000Y-86873000D01*
X116740000Y-86873000D02*
X121750000Y-86873000D01*
X124630000Y-86913000D02*
X129670000Y-86913000D01*
X116710000Y-86913000D02*
X121750000Y-86913000D01*
X124630000Y-86953000D02*
X129700000Y-86953000D01*
X116680000Y-86953000D02*
X121750000Y-86953000D01*
X124630000Y-86993000D02*
X129729000Y-86993000D01*
X116651000Y-86993000D02*
X121750000Y-86993000D01*
X124630000Y-87033000D02*
X129758000Y-87033000D01*
X116622000Y-87033000D02*
X121750000Y-87033000D01*
X124630000Y-87073000D02*
X129786000Y-87073000D01*
X116594000Y-87073000D02*
X121750000Y-87073000D01*
X124630000Y-87113000D02*
X129814000Y-87113000D01*
X116566000Y-87113000D02*
X121750000Y-87113000D01*
X124630000Y-87153000D02*
X129842000Y-87153000D01*
X116538000Y-87153000D02*
X121750000Y-87153000D01*
X124630000Y-87193000D02*
X129869000Y-87193000D01*
X116511000Y-87193000D02*
X121750000Y-87193000D01*
X124630000Y-87233000D02*
X129896000Y-87233000D01*
X116484000Y-87233000D02*
X121750000Y-87233000D01*
X124630000Y-87273000D02*
X129923000Y-87273000D01*
X116457000Y-87273000D02*
X121750000Y-87273000D01*
X124630000Y-87313000D02*
X129949000Y-87313000D01*
X116431000Y-87313000D02*
X121750000Y-87313000D01*
X124630000Y-87353000D02*
X129975000Y-87353000D01*
X116405000Y-87353000D02*
X121750000Y-87353000D01*
X124630000Y-87393000D02*
X130001000Y-87393000D01*
X116379000Y-87393000D02*
X121750000Y-87393000D01*
X124630000Y-87433000D02*
X130026000Y-87433000D01*
X116354000Y-87433000D02*
X121750000Y-87433000D01*
X124630000Y-87473000D02*
X130051000Y-87473000D01*
X116329000Y-87473000D02*
X121750000Y-87473000D01*
X124630000Y-87513000D02*
X130076000Y-87513000D01*
X116304000Y-87513000D02*
X121750000Y-87513000D01*
X124630000Y-87553000D02*
X130100000Y-87553000D01*
X116280000Y-87553000D02*
X121750000Y-87553000D01*
X124630000Y-87593000D02*
X130124000Y-87593000D01*
X116256000Y-87593000D02*
X121750000Y-87593000D01*
X124630000Y-87633000D02*
X130148000Y-87633000D01*
X116232000Y-87633000D02*
X121750000Y-87633000D01*
X124630000Y-87673000D02*
X130171000Y-87673000D01*
X116209000Y-87673000D02*
X121750000Y-87673000D01*
X124630000Y-87713000D02*
X130194000Y-87713000D01*
X116186000Y-87713000D02*
X121750000Y-87713000D01*
X124630000Y-87753000D02*
X130217000Y-87753000D01*
X116163000Y-87753000D02*
X121750000Y-87753000D01*
X124630000Y-87793000D02*
X130239000Y-87793000D01*
X116141000Y-87793000D02*
X121750000Y-87793000D01*
X124630000Y-87833000D02*
X130262000Y-87833000D01*
X116118000Y-87833000D02*
X121750000Y-87833000D01*
X124630000Y-87873000D02*
X130284000Y-87873000D01*
X116096000Y-87873000D02*
X121750000Y-87873000D01*
X124630000Y-87913000D02*
X130305000Y-87913000D01*
X116075000Y-87913000D02*
X121750000Y-87913000D01*
X124630000Y-87953000D02*
X130326000Y-87953000D01*
X116054000Y-87953000D02*
X121750000Y-87953000D01*
X124630000Y-87993000D02*
X130347000Y-87993000D01*
X116033000Y-87993000D02*
X121750000Y-87993000D01*
X124630000Y-88033000D02*
X130368000Y-88033000D01*
X116012000Y-88033000D02*
X121750000Y-88033000D01*
X124630000Y-88073000D02*
X130389000Y-88073000D01*
X115991000Y-88073000D02*
X121750000Y-88073000D01*
X124630000Y-88113000D02*
X130409000Y-88113000D01*
X115971000Y-88113000D02*
X121750000Y-88113000D01*
X124630000Y-88153000D02*
X130429000Y-88153000D01*
X115951000Y-88153000D02*
X121750000Y-88153000D01*
X124630000Y-88193000D02*
X130448000Y-88193000D01*
X115932000Y-88193000D02*
X121750000Y-88193000D01*
X124630000Y-88233000D02*
X130468000Y-88233000D01*
X115912000Y-88233000D02*
X121750000Y-88233000D01*
X124630000Y-88273000D02*
X130487000Y-88273000D01*
X115893000Y-88273000D02*
X121750000Y-88273000D01*
X124630000Y-88313000D02*
X130506000Y-88313000D01*
X115874000Y-88313000D02*
X121750000Y-88313000D01*
X124630000Y-88353000D02*
X130524000Y-88353000D01*
X115856000Y-88353000D02*
X121750000Y-88353000D01*
X124630000Y-88393000D02*
X130543000Y-88393000D01*
X115837000Y-88393000D02*
X121750000Y-88393000D01*
X124630000Y-88433000D02*
X130561000Y-88433000D01*
X115819000Y-88433000D02*
X121750000Y-88433000D01*
X124630000Y-88473000D02*
X130579000Y-88473000D01*
X115801000Y-88473000D02*
X121750000Y-88473000D01*
X124630000Y-88513000D02*
X130596000Y-88513000D01*
X115784000Y-88513000D02*
X121750000Y-88513000D01*
X124630000Y-88553000D02*
X130613000Y-88553000D01*
X115767000Y-88553000D02*
X121750000Y-88553000D01*
X124630000Y-88593000D02*
X130630000Y-88593000D01*
X115750000Y-88593000D02*
X121750000Y-88593000D01*
X124630000Y-88633000D02*
X130647000Y-88633000D01*
X115733000Y-88633000D02*
X121750000Y-88633000D01*
X124630000Y-88673000D02*
X130664000Y-88673000D01*
X115716000Y-88673000D02*
X121750000Y-88673000D01*
X124630000Y-88713000D02*
X130680000Y-88713000D01*
X115700000Y-88713000D02*
X121750000Y-88713000D01*
X124630000Y-88753000D02*
X130696000Y-88753000D01*
X115684000Y-88753000D02*
X121750000Y-88753000D01*
X124630000Y-88793000D02*
X130712000Y-88793000D01*
X115668000Y-88793000D02*
X121750000Y-88793000D01*
X124630000Y-88833000D02*
X130727000Y-88833000D01*
X115653000Y-88833000D02*
X121750000Y-88833000D01*
X124630000Y-88873000D02*
X130743000Y-88873000D01*
X115637000Y-88873000D02*
X121750000Y-88873000D01*
X124630000Y-88913000D02*
X130758000Y-88913000D01*
X115622000Y-88913000D02*
X121750000Y-88913000D01*
X124630000Y-88953000D02*
X130772000Y-88953000D01*
X115608000Y-88953000D02*
X121750000Y-88953000D01*
X124630000Y-88993000D02*
X130787000Y-88993000D01*
X115593000Y-88993000D02*
X121750000Y-88993000D01*
X124630000Y-89033000D02*
X130801000Y-89033000D01*
X115579000Y-89033000D02*
X121750000Y-89033000D01*
X124630000Y-89073000D02*
X130815000Y-89073000D01*
X115565000Y-89073000D02*
X121750000Y-89073000D01*
X124630000Y-89113000D02*
X130829000Y-89113000D01*
X115551000Y-89113000D02*
X121750000Y-89113000D01*
X124630000Y-89153000D02*
X130843000Y-89153000D01*
X115537000Y-89153000D02*
X121750000Y-89153000D01*
X124630000Y-89193000D02*
X130856000Y-89193000D01*
X115524000Y-89193000D02*
X121750000Y-89193000D01*
X124630000Y-89233000D02*
X130870000Y-89233000D01*
X115510000Y-89233000D02*
X121750000Y-89233000D01*
X124630000Y-89273000D02*
X130883000Y-89273000D01*
X115497000Y-89273000D02*
X121750000Y-89273000D01*
X124630000Y-89313000D02*
X130895000Y-89313000D01*
X115485000Y-89313000D02*
X121750000Y-89313000D01*
X124630000Y-89353000D02*
X130908000Y-89353000D01*
X115472000Y-89353000D02*
X121750000Y-89353000D01*
X124630000Y-89393000D02*
X130920000Y-89393000D01*
X115460000Y-89393000D02*
X121750000Y-89393000D01*
X124630000Y-89433000D02*
X130932000Y-89433000D01*
X115448000Y-89433000D02*
X121750000Y-89433000D01*
X115436000Y-89473000D02*
X130944000Y-89473000D01*
X115425000Y-89513000D02*
X130955000Y-89513000D01*
X115413000Y-89553000D02*
X130967000Y-89553000D01*
X115402000Y-89593000D02*
X130978000Y-89593000D01*
X115391000Y-89633000D02*
X130989000Y-89633000D01*
X115380000Y-89673000D02*
X131000000Y-89673000D01*
X115370000Y-89713000D02*
X131010000Y-89713000D01*
X115360000Y-89753000D02*
X131020000Y-89753000D01*
X115350000Y-89793000D02*
X131030000Y-89793000D01*
X115340000Y-89833000D02*
X131040000Y-89833000D01*
X115330000Y-89873000D02*
X131050000Y-89873000D01*
X115321000Y-89913000D02*
X131059000Y-89913000D01*
X115312000Y-89953000D02*
X131068000Y-89953000D01*
X115303000Y-89993000D02*
X131077000Y-89993000D01*
X115294000Y-90033000D02*
X131086000Y-90033000D01*
X115285000Y-90073000D02*
X131095000Y-90073000D01*
X115277000Y-90113000D02*
X131103000Y-90113000D01*
X115269000Y-90153000D02*
X131111000Y-90153000D01*
X115261000Y-90193000D02*
X131119000Y-90193000D01*
X115253000Y-90233000D02*
X131127000Y-90233000D01*
X115246000Y-90273000D02*
X131134000Y-90273000D01*
X115238000Y-90313000D02*
X131142000Y-90313000D01*
X115231000Y-90353000D02*
X131149000Y-90353000D01*
X115224000Y-90393000D02*
X131156000Y-90393000D01*
X115218000Y-90433000D02*
X131162000Y-90433000D01*
X115211000Y-90473000D02*
X131169000Y-90473000D01*
X115205000Y-90513000D02*
X131175000Y-90513000D01*
X115199000Y-90553000D02*
X131181000Y-90553000D01*
X115193000Y-90593000D02*
X131187000Y-90593000D01*
X115187000Y-90633000D02*
X131193000Y-90633000D01*
X115182000Y-90673000D02*
X131198000Y-90673000D01*
X115176000Y-90713000D02*
X131204000Y-90713000D01*
X115171000Y-90753000D02*
X131209000Y-90753000D01*
X115166000Y-90793000D02*
X131214000Y-90793000D01*
X115162000Y-90833000D02*
X131218000Y-90833000D01*
X115157000Y-90873000D02*
X131223000Y-90873000D01*
X115153000Y-90913000D02*
X131227000Y-90913000D01*
X115149000Y-90953000D02*
X131231000Y-90953000D01*
X115145000Y-90993000D02*
X131235000Y-90993000D01*
X115141000Y-91033000D02*
X131239000Y-91033000D01*
X115138000Y-91074000D02*
X131242000Y-91074000D01*
X115135000Y-91114000D02*
X131245000Y-91114000D01*
X115132000Y-91154000D02*
X131248000Y-91154000D01*
X115129000Y-91194000D02*
X131251000Y-91194000D01*
X115126000Y-91234000D02*
X131254000Y-91234000D01*
X115124000Y-91274000D02*
X131256000Y-91274000D01*
X115121000Y-91314000D02*
X131259000Y-91314000D01*
X115119000Y-91354000D02*
X131261000Y-91354000D01*
X115117000Y-91394000D02*
X131263000Y-91394000D01*
X115116000Y-91434000D02*
X131264000Y-91434000D01*
X115114000Y-91474000D02*
X131266000Y-91474000D01*
X115113000Y-91514000D02*
X131267000Y-91514000D01*
X115112000Y-91554000D02*
X131268000Y-91554000D01*
X115111000Y-91594000D02*
X131269000Y-91594000D01*
X115110000Y-91634000D02*
X131270000Y-91634000D01*
X115110000Y-91674000D02*
X131270000Y-91674000D01*
X115110000Y-91714000D02*
X131270000Y-91714000D01*
X115109000Y-91754000D02*
X131271000Y-91754000D01*
X131310000Y-91754000D02*
G75*
G03*
X131310000Y-91754000I-8120000J0D01*
G01*
X147698000Y-73814000D02*
X147698000Y-76554000D01*
X140258000Y-73814000D02*
X140258000Y-76554000D01*
X140258000Y-76554000D02*
X147698000Y-76554000D01*
X140258000Y-73814000D02*
X147698000Y-73814000D01*
D10*
X139787333Y-89098380D02*
X139311142Y-89098380D01*
X139311142Y-88098380D01*
X140644476Y-89098380D02*
X140073047Y-89098380D01*
X140358761Y-89098380D02*
X140358761Y-88098380D01*
X140263523Y-88241238D01*
X140168285Y-88336476D01*
X140073047Y-88384095D01*
X159837380Y-83478666D02*
X159361190Y-83812000D01*
X159837380Y-84050095D02*
X158837380Y-84050095D01*
X158837380Y-83669142D01*
X158885000Y-83573904D01*
X158932619Y-83526285D01*
X159027857Y-83478666D01*
X159170714Y-83478666D01*
X159265952Y-83526285D01*
X159313571Y-83573904D01*
X159361190Y-83669142D01*
X159361190Y-84050095D01*
X159837380Y-83002476D02*
X159837380Y-82812000D01*
X159789761Y-82716761D01*
X159742142Y-82669142D01*
X159599285Y-82573904D01*
X159408809Y-82526285D01*
X159027857Y-82526285D01*
X158932619Y-82573904D01*
X158885000Y-82621523D01*
X158837380Y-82716761D01*
X158837380Y-82907238D01*
X158885000Y-83002476D01*
X158932619Y-83050095D01*
X159027857Y-83097714D01*
X159265952Y-83097714D01*
X159361190Y-83050095D01*
X159408809Y-83002476D01*
X159456428Y-82907238D01*
X159456428Y-82716761D01*
X159408809Y-82621523D01*
X159361190Y-82573904D01*
X159265952Y-82526285D01*
X172824380Y-85256666D02*
X172348190Y-85590000D01*
X172824380Y-85828095D02*
X171824380Y-85828095D01*
X171824380Y-85447142D01*
X171872000Y-85351904D01*
X171919619Y-85304285D01*
X172014857Y-85256666D01*
X172157714Y-85256666D01*
X172252952Y-85304285D01*
X172300571Y-85351904D01*
X172348190Y-85447142D01*
X172348190Y-85828095D01*
X172252952Y-84685238D02*
X172205333Y-84780476D01*
X172157714Y-84828095D01*
X172062476Y-84875714D01*
X172014857Y-84875714D01*
X171919619Y-84828095D01*
X171872000Y-84780476D01*
X171824380Y-84685238D01*
X171824380Y-84494761D01*
X171872000Y-84399523D01*
X171919619Y-84351904D01*
X172014857Y-84304285D01*
X172062476Y-84304285D01*
X172157714Y-84351904D01*
X172205333Y-84399523D01*
X172252952Y-84494761D01*
X172252952Y-84685238D01*
X172300571Y-84780476D01*
X172348190Y-84828095D01*
X172443428Y-84875714D01*
X172633904Y-84875714D01*
X172729142Y-84828095D01*
X172776761Y-84780476D01*
X172824380Y-84685238D01*
X172824380Y-84494761D01*
X172776761Y-84399523D01*
X172729142Y-84351904D01*
X172633904Y-84304285D01*
X172443428Y-84304285D01*
X172348190Y-84351904D01*
X172300571Y-84399523D01*
X172252952Y-84494761D01*
X159091333Y-90368380D02*
X158758000Y-89892190D01*
X158519904Y-90368380D02*
X158519904Y-89368380D01*
X158900857Y-89368380D01*
X158996095Y-89416000D01*
X159043714Y-89463619D01*
X159091333Y-89558857D01*
X159091333Y-89701714D01*
X159043714Y-89796952D01*
X158996095Y-89844571D01*
X158900857Y-89892190D01*
X158519904Y-89892190D01*
X159424666Y-89368380D02*
X160091333Y-89368380D01*
X159662761Y-90368380D01*
X172172333Y-90368380D02*
X171839000Y-89892190D01*
X171600904Y-90368380D02*
X171600904Y-89368380D01*
X171981857Y-89368380D01*
X172077095Y-89416000D01*
X172124714Y-89463619D01*
X172172333Y-89558857D01*
X172172333Y-89701714D01*
X172124714Y-89796952D01*
X172077095Y-89844571D01*
X171981857Y-89892190D01*
X171600904Y-89892190D01*
X173029476Y-89368380D02*
X172839000Y-89368380D01*
X172743761Y-89416000D01*
X172696142Y-89463619D01*
X172600904Y-89606476D01*
X172553285Y-89796952D01*
X172553285Y-90177904D01*
X172600904Y-90273142D01*
X172648523Y-90320761D01*
X172743761Y-90368380D01*
X172934238Y-90368380D01*
X173029476Y-90320761D01*
X173077095Y-90273142D01*
X173124714Y-90177904D01*
X173124714Y-89939809D01*
X173077095Y-89844571D01*
X173029476Y-89796952D01*
X172934238Y-89749333D01*
X172743761Y-89749333D01*
X172648523Y-89796952D01*
X172600904Y-89844571D01*
X172553285Y-89939809D01*
X151494142Y-74493380D02*
X151160809Y-74017190D01*
X150922714Y-74493380D02*
X150922714Y-73493380D01*
X151303666Y-73493380D01*
X151398904Y-73541000D01*
X151446523Y-73588619D01*
X151494142Y-73683857D01*
X151494142Y-73826714D01*
X151446523Y-73921952D01*
X151398904Y-73969571D01*
X151303666Y-74017190D01*
X150922714Y-74017190D01*
X152446523Y-74493380D02*
X151875095Y-74493380D01*
X152160809Y-74493380D02*
X152160809Y-73493380D01*
X152065571Y-73636238D01*
X151970333Y-73731476D01*
X151875095Y-73779095D01*
X152779857Y-73493380D02*
X153398904Y-73493380D01*
X153065571Y-73874333D01*
X153208428Y-73874333D01*
X153303666Y-73921952D01*
X153351285Y-73969571D01*
X153398904Y-74064809D01*
X153398904Y-74302904D01*
X153351285Y-74398142D01*
X153303666Y-74445761D01*
X153208428Y-74493380D01*
X152922714Y-74493380D01*
X152827476Y-74445761D01*
X152779857Y-74398142D01*
X163568142Y-64206380D02*
X163234809Y-63730190D01*
X162996714Y-64206380D02*
X162996714Y-63206380D01*
X163377666Y-63206380D01*
X163472904Y-63254000D01*
X163520523Y-63301619D01*
X163568142Y-63396857D01*
X163568142Y-63539714D01*
X163520523Y-63634952D01*
X163472904Y-63682571D01*
X163377666Y-63730190D01*
X162996714Y-63730190D01*
X164520523Y-64206380D02*
X163949095Y-64206380D01*
X164234809Y-64206380D02*
X164234809Y-63206380D01*
X164139571Y-63349238D01*
X164044333Y-63444476D01*
X163949095Y-63492095D01*
X164901476Y-63301619D02*
X164949095Y-63254000D01*
X165044333Y-63206380D01*
X165282428Y-63206380D01*
X165377666Y-63254000D01*
X165425285Y-63301619D01*
X165472904Y-63396857D01*
X165472904Y-63492095D01*
X165425285Y-63634952D01*
X164853857Y-64206380D01*
X165472904Y-64206380D01*
X163568142Y-68270380D02*
X163234809Y-67794190D01*
X162996714Y-68270380D02*
X162996714Y-67270380D01*
X163377666Y-67270380D01*
X163472904Y-67318000D01*
X163520523Y-67365619D01*
X163568142Y-67460857D01*
X163568142Y-67603714D01*
X163520523Y-67698952D01*
X163472904Y-67746571D01*
X163377666Y-67794190D01*
X162996714Y-67794190D01*
X164520523Y-68270380D02*
X163949095Y-68270380D01*
X164234809Y-68270380D02*
X164234809Y-67270380D01*
X164139571Y-67413238D01*
X164044333Y-67508476D01*
X163949095Y-67556095D01*
X165472904Y-68270380D02*
X164901476Y-68270380D01*
X165187190Y-68270380D02*
X165187190Y-67270380D01*
X165091952Y-67413238D01*
X164996714Y-67508476D01*
X164901476Y-67556095D01*
X163568142Y-66238380D02*
X163234809Y-65762190D01*
X162996714Y-66238380D02*
X162996714Y-65238380D01*
X163377666Y-65238380D01*
X163472904Y-65286000D01*
X163520523Y-65333619D01*
X163568142Y-65428857D01*
X163568142Y-65571714D01*
X163520523Y-65666952D01*
X163472904Y-65714571D01*
X163377666Y-65762190D01*
X162996714Y-65762190D01*
X164520523Y-66238380D02*
X163949095Y-66238380D01*
X164234809Y-66238380D02*
X164234809Y-65238380D01*
X164139571Y-65381238D01*
X164044333Y-65476476D01*
X163949095Y-65524095D01*
X165139571Y-65238380D02*
X165234809Y-65238380D01*
X165330047Y-65286000D01*
X165377666Y-65333619D01*
X165425285Y-65428857D01*
X165472904Y-65619333D01*
X165472904Y-65857428D01*
X165425285Y-66047904D01*
X165377666Y-66143142D01*
X165330047Y-66190761D01*
X165234809Y-66238380D01*
X165139571Y-66238380D01*
X165044333Y-66190761D01*
X164996714Y-66143142D01*
X164949095Y-66047904D01*
X164901476Y-65857428D01*
X164901476Y-65619333D01*
X164949095Y-65428857D01*
X164996714Y-65333619D01*
X165044333Y-65286000D01*
X165139571Y-65238380D01*
X172664380Y-96686666D02*
X172188190Y-97020000D01*
X172664380Y-97258095D02*
X171664380Y-97258095D01*
X171664380Y-96877142D01*
X171712000Y-96781904D01*
X171759619Y-96734285D01*
X171854857Y-96686666D01*
X171997714Y-96686666D01*
X172092952Y-96734285D01*
X172140571Y-96781904D01*
X172188190Y-96877142D01*
X172188190Y-97258095D01*
X171664380Y-95781904D02*
X171664380Y-96258095D01*
X172140571Y-96305714D01*
X172092952Y-96258095D01*
X172045333Y-96162857D01*
X172045333Y-95924761D01*
X172092952Y-95829523D01*
X172140571Y-95781904D01*
X172235809Y-95734285D01*
X172473904Y-95734285D01*
X172569142Y-95781904D01*
X172616761Y-95829523D01*
X172664380Y-95924761D01*
X172664380Y-96162857D01*
X172616761Y-96258095D01*
X172569142Y-96305714D01*
X174442380Y-96686666D02*
X173966190Y-97020000D01*
X174442380Y-97258095D02*
X173442380Y-97258095D01*
X173442380Y-96877142D01*
X173490000Y-96781904D01*
X173537619Y-96734285D01*
X173632857Y-96686666D01*
X173775714Y-96686666D01*
X173870952Y-96734285D01*
X173918571Y-96781904D01*
X173966190Y-96877142D01*
X173966190Y-97258095D01*
X173775714Y-95829523D02*
X174442380Y-95829523D01*
X173394761Y-96067619D02*
X174109047Y-96305714D01*
X174109047Y-95686666D01*
X176220380Y-96686666D02*
X175744190Y-97020000D01*
X176220380Y-97258095D02*
X175220380Y-97258095D01*
X175220380Y-96877142D01*
X175268000Y-96781904D01*
X175315619Y-96734285D01*
X175410857Y-96686666D01*
X175553714Y-96686666D01*
X175648952Y-96734285D01*
X175696571Y-96781904D01*
X175744190Y-96877142D01*
X175744190Y-97258095D01*
X175220380Y-96353333D02*
X175220380Y-95734285D01*
X175601333Y-96067619D01*
X175601333Y-95924761D01*
X175648952Y-95829523D01*
X175696571Y-95781904D01*
X175791809Y-95734285D01*
X176029904Y-95734285D01*
X176125142Y-95781904D01*
X176172761Y-95829523D01*
X176220380Y-95924761D01*
X176220380Y-96210476D01*
X176172761Y-96305714D01*
X176125142Y-96353333D01*
X165552380Y-96686666D02*
X165076190Y-97020000D01*
X165552380Y-97258095D02*
X164552380Y-97258095D01*
X164552380Y-96877142D01*
X164600000Y-96781904D01*
X164647619Y-96734285D01*
X164742857Y-96686666D01*
X164885714Y-96686666D01*
X164980952Y-96734285D01*
X165028571Y-96781904D01*
X165076190Y-96877142D01*
X165076190Y-97258095D01*
X164647619Y-96305714D02*
X164600000Y-96258095D01*
X164552380Y-96162857D01*
X164552380Y-95924761D01*
X164600000Y-95829523D01*
X164647619Y-95781904D01*
X164742857Y-95734285D01*
X164838095Y-95734285D01*
X164980952Y-95781904D01*
X165552380Y-96353333D01*
X165552380Y-95734285D01*
X167330380Y-96686666D02*
X166854190Y-97020000D01*
X167330380Y-97258095D02*
X166330380Y-97258095D01*
X166330380Y-96877142D01*
X166378000Y-96781904D01*
X166425619Y-96734285D01*
X166520857Y-96686666D01*
X166663714Y-96686666D01*
X166758952Y-96734285D01*
X166806571Y-96781904D01*
X166854190Y-96877142D01*
X166854190Y-97258095D01*
X167330380Y-95734285D02*
X167330380Y-96305714D01*
X167330380Y-96020000D02*
X166330380Y-96020000D01*
X166473238Y-96115238D01*
X166568476Y-96210476D01*
X166616095Y-96305714D01*
X169013142Y-96686666D02*
X169060761Y-96734285D01*
X169108380Y-96877142D01*
X169108380Y-96972380D01*
X169060761Y-97115238D01*
X168965523Y-97210476D01*
X168870285Y-97258095D01*
X168679809Y-97305714D01*
X168536952Y-97305714D01*
X168346476Y-97258095D01*
X168251238Y-97210476D01*
X168156000Y-97115238D01*
X168108380Y-96972380D01*
X168108380Y-96877142D01*
X168156000Y-96734285D01*
X168203619Y-96686666D01*
X168203619Y-96305714D02*
X168156000Y-96258095D01*
X168108380Y-96162857D01*
X168108380Y-95924761D01*
X168156000Y-95829523D01*
X168203619Y-95781904D01*
X168298857Y-95734285D01*
X168394095Y-95734285D01*
X168536952Y-95781904D01*
X169108380Y-96353333D01*
X169108380Y-95734285D01*
X170791142Y-96686666D02*
X170838761Y-96734285D01*
X170886380Y-96877142D01*
X170886380Y-96972380D01*
X170838761Y-97115238D01*
X170743523Y-97210476D01*
X170648285Y-97258095D01*
X170457809Y-97305714D01*
X170314952Y-97305714D01*
X170124476Y-97258095D01*
X170029238Y-97210476D01*
X169934000Y-97115238D01*
X169886380Y-96972380D01*
X169886380Y-96877142D01*
X169934000Y-96734285D01*
X169981619Y-96686666D01*
X170886380Y-95734285D02*
X170886380Y-96305714D01*
X170886380Y-96020000D02*
X169886380Y-96020000D01*
X170029238Y-96115238D01*
X170124476Y-96210476D01*
X170172095Y-96305714D01*
X171918380Y-82629333D02*
X172632666Y-82629333D01*
X172775523Y-82676952D01*
X172870761Y-82772190D01*
X172918380Y-82915047D01*
X172918380Y-83010285D01*
X172251714Y-81724571D02*
X172918380Y-81724571D01*
X171870761Y-81962666D02*
X172585047Y-82200761D01*
X172585047Y-81581714D01*
X105584666Y-73874380D02*
X105584666Y-74588666D01*
X105537047Y-74731523D01*
X105441809Y-74826761D01*
X105298952Y-74874380D01*
X105203714Y-74874380D01*
X105965619Y-73874380D02*
X106584666Y-73874380D01*
X106251333Y-74255333D01*
X106394190Y-74255333D01*
X106489428Y-74302952D01*
X106537047Y-74350571D01*
X106584666Y-74445809D01*
X106584666Y-74683904D01*
X106537047Y-74779142D01*
X106489428Y-74826761D01*
X106394190Y-74874380D01*
X106108476Y-74874380D01*
X106013238Y-74826761D01*
X105965619Y-74779142D01*
X148764666Y-100036380D02*
X148764666Y-100750666D01*
X148717047Y-100893523D01*
X148621809Y-100988761D01*
X148478952Y-101036380D01*
X148383714Y-101036380D01*
X149193238Y-100131619D02*
X149240857Y-100084000D01*
X149336095Y-100036380D01*
X149574190Y-100036380D01*
X149669428Y-100084000D01*
X149717047Y-100131619D01*
X149764666Y-100226857D01*
X149764666Y-100322095D01*
X149717047Y-100464952D01*
X149145619Y-101036380D01*
X149764666Y-101036380D01*
X156892666Y-100544380D02*
X156892666Y-101258666D01*
X156845047Y-101401523D01*
X156749809Y-101496761D01*
X156606952Y-101544380D01*
X156511714Y-101544380D01*
X157892666Y-101544380D02*
X157321238Y-101544380D01*
X157606952Y-101544380D02*
X157606952Y-100544380D01*
X157511714Y-100687238D01*
X157416476Y-100782476D01*
X157321238Y-100830095D01*
X136263142Y-76652380D02*
X135929809Y-76176190D01*
X135691714Y-76652380D02*
X135691714Y-75652380D01*
X136072666Y-75652380D01*
X136167904Y-75700000D01*
X136215523Y-75747619D01*
X136263142Y-75842857D01*
X136263142Y-75985714D01*
X136215523Y-76080952D01*
X136167904Y-76128571D01*
X136072666Y-76176190D01*
X135691714Y-76176190D01*
X137215523Y-76652380D02*
X136644095Y-76652380D01*
X136929809Y-76652380D02*
X136929809Y-75652380D01*
X136834571Y-75795238D01*
X136739333Y-75890476D01*
X136644095Y-75938095D01*
X138072666Y-75985714D02*
X138072666Y-76652380D01*
X137834571Y-75604761D02*
X137596476Y-76319047D01*
X138215523Y-76319047D01*
X153360380Y-88018857D02*
X152884190Y-88352190D01*
X153360380Y-88590285D02*
X152360380Y-88590285D01*
X152360380Y-88209333D01*
X152408000Y-88114095D01*
X152455619Y-88066476D01*
X152550857Y-88018857D01*
X152693714Y-88018857D01*
X152788952Y-88066476D01*
X152836571Y-88114095D01*
X152884190Y-88209333D01*
X152884190Y-88590285D01*
X153360380Y-87066476D02*
X153360380Y-87637904D01*
X153360380Y-87352190D02*
X152360380Y-87352190D01*
X152503238Y-87447428D01*
X152598476Y-87542666D01*
X152646095Y-87637904D01*
X152360380Y-86161714D02*
X152360380Y-86637904D01*
X152836571Y-86685523D01*
X152788952Y-86637904D01*
X152741333Y-86542666D01*
X152741333Y-86304571D01*
X152788952Y-86209333D01*
X152836571Y-86161714D01*
X152931809Y-86114095D01*
X153169904Y-86114095D01*
X153265142Y-86161714D01*
X153312761Y-86209333D01*
X153360380Y-86304571D01*
X153360380Y-86542666D01*
X153312761Y-86637904D01*
X153265142Y-86685523D01*
X165100095Y-81142380D02*
X165100095Y-81951904D01*
X165147714Y-82047142D01*
X165195333Y-82094761D01*
X165290571Y-82142380D01*
X165481047Y-82142380D01*
X165576285Y-82094761D01*
X165623904Y-82047142D01*
X165671523Y-81951904D01*
X165671523Y-81142380D01*
X166671523Y-82142380D02*
X166100095Y-82142380D01*
X166385809Y-82142380D02*
X166385809Y-81142380D01*
X166290571Y-81285238D01*
X166195333Y-81380476D01*
X166100095Y-81428095D01*
X157821333Y-73235142D02*
X157773714Y-73282761D01*
X157630857Y-73330380D01*
X157535619Y-73330380D01*
X157392761Y-73282761D01*
X157297523Y-73187523D01*
X157249904Y-73092285D01*
X157202285Y-72901809D01*
X157202285Y-72758952D01*
X157249904Y-72568476D01*
X157297523Y-72473238D01*
X157392761Y-72378000D01*
X157535619Y-72330380D01*
X157630857Y-72330380D01*
X157773714Y-72378000D01*
X157821333Y-72425619D01*
X158678476Y-72663714D02*
X158678476Y-73330380D01*
X158440380Y-72282761D02*
X158202285Y-72997047D01*
X158821333Y-72997047D01*
X173823333Y-73235142D02*
X173775714Y-73282761D01*
X173632857Y-73330380D01*
X173537619Y-73330380D01*
X173394761Y-73282761D01*
X173299523Y-73187523D01*
X173251904Y-73092285D01*
X173204285Y-72901809D01*
X173204285Y-72758952D01*
X173251904Y-72568476D01*
X173299523Y-72473238D01*
X173394761Y-72378000D01*
X173537619Y-72330380D01*
X173632857Y-72330380D01*
X173775714Y-72378000D01*
X173823333Y-72425619D01*
X174156666Y-72330380D02*
X174775714Y-72330380D01*
X174442380Y-72711333D01*
X174585238Y-72711333D01*
X174680476Y-72758952D01*
X174728095Y-72806571D01*
X174775714Y-72901809D01*
X174775714Y-73139904D01*
X174728095Y-73235142D01*
X174680476Y-73282761D01*
X174585238Y-73330380D01*
X174299523Y-73330380D01*
X174204285Y-73282761D01*
X174156666Y-73235142D01*
X147386095Y-62190380D02*
X147386095Y-62999904D01*
X147433714Y-63095142D01*
X147481333Y-63142761D01*
X147576571Y-63190380D01*
X147767047Y-63190380D01*
X147862285Y-63142761D01*
X147909904Y-63095142D01*
X147957523Y-62999904D01*
X147957523Y-62190380D01*
X148386095Y-62285619D02*
X148433714Y-62238000D01*
X148528952Y-62190380D01*
X148767047Y-62190380D01*
X148862285Y-62238000D01*
X148909904Y-62285619D01*
X148957523Y-62380857D01*
X148957523Y-62476095D01*
X148909904Y-62618952D01*
X148338476Y-63190380D01*
X148957523Y-63190380D01*
X123055142Y-64873142D02*
X123007523Y-64920761D01*
X122864666Y-64968380D01*
X122769428Y-64968380D01*
X122626571Y-64920761D01*
X122531333Y-64825523D01*
X122483714Y-64730285D01*
X122436095Y-64539809D01*
X122436095Y-64396952D01*
X122483714Y-64206476D01*
X122531333Y-64111238D01*
X122626571Y-64016000D01*
X122769428Y-63968380D01*
X122864666Y-63968380D01*
X123007523Y-64016000D01*
X123055142Y-64063619D01*
X124007523Y-64968380D02*
X123436095Y-64968380D01*
X123721809Y-64968380D02*
X123721809Y-63968380D01*
X123626571Y-64111238D01*
X123531333Y-64206476D01*
X123436095Y-64254095D01*
X124388476Y-64063619D02*
X124436095Y-64016000D01*
X124531333Y-63968380D01*
X124769428Y-63968380D01*
X124864666Y-64016000D01*
X124912285Y-64063619D01*
X124959904Y-64158857D01*
X124959904Y-64254095D01*
X124912285Y-64396952D01*
X124340857Y-64968380D01*
X124959904Y-64968380D01*
X158107142Y-79859142D02*
X158059523Y-79906761D01*
X157916666Y-79954380D01*
X157821428Y-79954380D01*
X157678571Y-79906761D01*
X157583333Y-79811523D01*
X157535714Y-79716285D01*
X157488095Y-79525809D01*
X157488095Y-79382952D01*
X157535714Y-79192476D01*
X157583333Y-79097238D01*
X157678571Y-79002000D01*
X157821428Y-78954380D01*
X157916666Y-78954380D01*
X158059523Y-79002000D01*
X158107142Y-79049619D01*
X159059523Y-79954380D02*
X158488095Y-79954380D01*
X158773809Y-79954380D02*
X158773809Y-78954380D01*
X158678571Y-79097238D01*
X158583333Y-79192476D01*
X158488095Y-79240095D01*
X159916666Y-79287714D02*
X159916666Y-79954380D01*
X159678571Y-78906761D02*
X159440476Y-79621047D01*
X160059523Y-79621047D01*
X172569142Y-79890857D02*
X172616761Y-79938476D01*
X172664380Y-80081333D01*
X172664380Y-80176571D01*
X172616761Y-80319428D01*
X172521523Y-80414666D01*
X172426285Y-80462285D01*
X172235809Y-80509904D01*
X172092952Y-80509904D01*
X171902476Y-80462285D01*
X171807238Y-80414666D01*
X171712000Y-80319428D01*
X171664380Y-80176571D01*
X171664380Y-80081333D01*
X171712000Y-79938476D01*
X171759619Y-79890857D01*
X172664380Y-78938476D02*
X172664380Y-79509904D01*
X172664380Y-79224190D02*
X171664380Y-79224190D01*
X171807238Y-79319428D01*
X171902476Y-79414666D01*
X171950095Y-79509904D01*
X171664380Y-78605142D02*
X171664380Y-77986095D01*
X172045333Y-78319428D01*
X172045333Y-78176571D01*
X172092952Y-78081333D01*
X172140571Y-78033714D01*
X172235809Y-77986095D01*
X172473904Y-77986095D01*
X172569142Y-78033714D01*
X172616761Y-78081333D01*
X172664380Y-78176571D01*
X172664380Y-78462285D01*
X172616761Y-78557523D01*
X172569142Y-78605142D01*
X137501333Y-67159142D02*
X137453714Y-67206761D01*
X137310857Y-67254380D01*
X137215619Y-67254380D01*
X137072761Y-67206761D01*
X136977523Y-67111523D01*
X136929904Y-67016285D01*
X136882285Y-66825809D01*
X136882285Y-66682952D01*
X136929904Y-66492476D01*
X136977523Y-66397238D01*
X137072761Y-66302000D01*
X137215619Y-66254380D01*
X137310857Y-66254380D01*
X137453714Y-66302000D01*
X137501333Y-66349619D01*
X137977523Y-67254380D02*
X138168000Y-67254380D01*
X138263238Y-67206761D01*
X138310857Y-67159142D01*
X138406095Y-67016285D01*
X138453714Y-66825809D01*
X138453714Y-66444857D01*
X138406095Y-66349619D01*
X138358476Y-66302000D01*
X138263238Y-66254380D01*
X138072761Y-66254380D01*
X137977523Y-66302000D01*
X137929904Y-66349619D01*
X137882285Y-66444857D01*
X137882285Y-66682952D01*
X137929904Y-66778190D01*
X137977523Y-66825809D01*
X138072761Y-66873428D01*
X138263238Y-66873428D01*
X138358476Y-66825809D01*
X138406095Y-66778190D01*
X138453714Y-66682952D01*
X137501333Y-72747142D02*
X137453714Y-72794761D01*
X137310857Y-72842380D01*
X137215619Y-72842380D01*
X137072761Y-72794761D01*
X136977523Y-72699523D01*
X136929904Y-72604285D01*
X136882285Y-72413809D01*
X136882285Y-72270952D01*
X136929904Y-72080476D01*
X136977523Y-71985238D01*
X137072761Y-71890000D01*
X137215619Y-71842380D01*
X137310857Y-71842380D01*
X137453714Y-71890000D01*
X137501333Y-71937619D01*
X138072761Y-72270952D02*
X137977523Y-72223333D01*
X137929904Y-72175714D01*
X137882285Y-72080476D01*
X137882285Y-72032857D01*
X137929904Y-71937619D01*
X137977523Y-71890000D01*
X138072761Y-71842380D01*
X138263238Y-71842380D01*
X138358476Y-71890000D01*
X138406095Y-71937619D01*
X138453714Y-72032857D01*
X138453714Y-72080476D01*
X138406095Y-72175714D01*
X138358476Y-72223333D01*
X138263238Y-72270952D01*
X138072761Y-72270952D01*
X137977523Y-72318571D01*
X137929904Y-72366190D01*
X137882285Y-72461428D01*
X137882285Y-72651904D01*
X137929904Y-72747142D01*
X137977523Y-72794761D01*
X138072761Y-72842380D01*
X138263238Y-72842380D01*
X138358476Y-72794761D01*
X138406095Y-72747142D01*
X138453714Y-72651904D01*
X138453714Y-72461428D01*
X138406095Y-72366190D01*
X138358476Y-72318571D01*
X138263238Y-72270952D01*
X114387333Y-71477142D02*
X114339714Y-71524761D01*
X114196857Y-71572380D01*
X114101619Y-71572380D01*
X113958761Y-71524761D01*
X113863523Y-71429523D01*
X113815904Y-71334285D01*
X113768285Y-71143809D01*
X113768285Y-71000952D01*
X113815904Y-70810476D01*
X113863523Y-70715238D01*
X113958761Y-70620000D01*
X114101619Y-70572380D01*
X114196857Y-70572380D01*
X114339714Y-70620000D01*
X114387333Y-70667619D01*
X114720666Y-70572380D02*
X115387333Y-70572380D01*
X114958761Y-71572380D01*
X114387333Y-96115142D02*
X114339714Y-96162761D01*
X114196857Y-96210380D01*
X114101619Y-96210380D01*
X113958761Y-96162761D01*
X113863523Y-96067523D01*
X113815904Y-95972285D01*
X113768285Y-95781809D01*
X113768285Y-95638952D01*
X113815904Y-95448476D01*
X113863523Y-95353238D01*
X113958761Y-95258000D01*
X114101619Y-95210380D01*
X114196857Y-95210380D01*
X114339714Y-95258000D01*
X114387333Y-95305619D01*
X115244476Y-95210380D02*
X115054000Y-95210380D01*
X114958761Y-95258000D01*
X114911142Y-95305619D01*
X114815904Y-95448476D01*
X114768285Y-95638952D01*
X114768285Y-96019904D01*
X114815904Y-96115142D01*
X114863523Y-96162761D01*
X114958761Y-96210380D01*
X115149238Y-96210380D01*
X115244476Y-96162761D01*
X115292095Y-96115142D01*
X115339714Y-96019904D01*
X115339714Y-95781809D01*
X115292095Y-95686571D01*
X115244476Y-95638952D01*
X115149238Y-95591333D01*
X114958761Y-95591333D01*
X114863523Y-95638952D01*
X114815904Y-95686571D01*
X114768285Y-95781809D01*
X143851333Y-73255142D02*
X143803714Y-73302761D01*
X143660857Y-73350380D01*
X143565619Y-73350380D01*
X143422761Y-73302761D01*
X143327523Y-73207523D01*
X143279904Y-73112285D01*
X143232285Y-72921809D01*
X143232285Y-72778952D01*
X143279904Y-72588476D01*
X143327523Y-72493238D01*
X143422761Y-72398000D01*
X143565619Y-72350380D01*
X143660857Y-72350380D01*
X143803714Y-72398000D01*
X143851333Y-72445619D01*
X144756095Y-72350380D02*
X144279904Y-72350380D01*
X144232285Y-72826571D01*
X144279904Y-72778952D01*
X144375142Y-72731333D01*
X144613238Y-72731333D01*
X144708476Y-72778952D01*
X144756095Y-72826571D01*
X144803714Y-72921809D01*
X144803714Y-73159904D01*
X144756095Y-73255142D01*
X144708476Y-73302761D01*
X144613238Y-73350380D01*
X144375142Y-73350380D01*
X144279904Y-73302761D01*
X144232285Y-73255142D01*
M02*
