G04 #@! TF.GenerationSoftware,KiCad,Pcbnew,5.1.9*
G04 #@! TF.CreationDate,2021-04-19T03:57:35-04:00*
G04 #@! TF.ProjectId,lm3886_amp_balanced_input,6c6d3338-3836-45f6-916d-705f62616c61,rev?*
G04 #@! TF.SameCoordinates,Original*
G04 #@! TF.FileFunction,Soldermask,Bot*
G04 #@! TF.FilePolarity,Negative*
%FSLAX46Y46*%
G04 Gerber Fmt 4.6, Leading zero omitted, Abs format (unit mm)*
G04 Created by KiCad (PCBNEW 5.1.9) date 2021-04-19 03:57:35*
%MOMM*%
%LPD*%
G01*
G04 APERTURE LIST*
%ADD10C,2.500000*%
%ADD11C,3.200000*%
%ADD12C,2.400000*%
%ADD13R,2.400000X2.400000*%
%ADD14C,2.600000*%
%ADD15R,2.600000X2.600000*%
%ADD16O,2.400000X2.400000*%
%ADD17C,1.600000*%
%ADD18R,2.000000X2.000000*%
%ADD19C,2.000000*%
%ADD20R,1.600000X1.600000*%
G04 APERTURE END LIST*
D10*
X139954000Y-93726000D03*
X139954000Y-83566000D03*
G36*
G01*
X125926000Y-62940250D02*
X125926000Y-62027750D01*
G75*
G02*
X126169750Y-61784000I243750J0D01*
G01*
X126657250Y-61784000D01*
G75*
G02*
X126901000Y-62027750I0J-243750D01*
G01*
X126901000Y-62940250D01*
G75*
G02*
X126657250Y-63184000I-243750J0D01*
G01*
X126169750Y-63184000D01*
G75*
G02*
X125926000Y-62940250I0J243750D01*
G01*
G37*
G36*
G01*
X124051000Y-62940250D02*
X124051000Y-62027750D01*
G75*
G02*
X124294750Y-61784000I243750J0D01*
G01*
X124782250Y-61784000D01*
G75*
G02*
X125026000Y-62027750I0J-243750D01*
G01*
X125026000Y-62940250D01*
G75*
G02*
X124782250Y-63184000I-243750J0D01*
G01*
X124294750Y-63184000D01*
G75*
G02*
X124051000Y-62940250I0J243750D01*
G01*
G37*
G36*
G01*
X144158000Y-63109000D02*
X144158000Y-61859000D01*
G75*
G02*
X144408000Y-61609000I250000J0D01*
G01*
X145158000Y-61609000D01*
G75*
G02*
X145408000Y-61859000I0J-250000D01*
G01*
X145408000Y-63109000D01*
G75*
G02*
X145158000Y-63359000I-250000J0D01*
G01*
X144408000Y-63359000D01*
G75*
G02*
X144158000Y-63109000I0J250000D01*
G01*
G37*
G36*
G01*
X141358000Y-63109000D02*
X141358000Y-61859000D01*
G75*
G02*
X141608000Y-61609000I250000J0D01*
G01*
X142358000Y-61609000D01*
G75*
G02*
X142608000Y-61859000I0J-250000D01*
G01*
X142608000Y-63109000D01*
G75*
G02*
X142358000Y-63359000I-250000J0D01*
G01*
X141608000Y-63359000D01*
G75*
G02*
X141358000Y-63109000I0J250000D01*
G01*
G37*
G36*
G01*
X137528000Y-71765000D02*
X137528000Y-73015000D01*
G75*
G02*
X137278000Y-73265000I-250000J0D01*
G01*
X136528000Y-73265000D01*
G75*
G02*
X136278000Y-73015000I0J250000D01*
G01*
X136278000Y-71765000D01*
G75*
G02*
X136528000Y-71515000I250000J0D01*
G01*
X137278000Y-71515000D01*
G75*
G02*
X137528000Y-71765000I0J-250000D01*
G01*
G37*
G36*
G01*
X140328000Y-71765000D02*
X140328000Y-73015000D01*
G75*
G02*
X140078000Y-73265000I-250000J0D01*
G01*
X139328000Y-73265000D01*
G75*
G02*
X139078000Y-73015000I0J250000D01*
G01*
X139078000Y-71765000D01*
G75*
G02*
X139328000Y-71515000I250000J0D01*
G01*
X140078000Y-71515000D01*
G75*
G02*
X140328000Y-71765000I0J-250000D01*
G01*
G37*
D11*
X108204000Y-66802000D03*
X108204000Y-102108000D03*
X177800000Y-102108000D03*
X177800000Y-66802000D03*
D12*
X176784000Y-78034000D03*
D13*
X176784000Y-81534000D03*
D14*
X109728000Y-88312000D03*
X109728000Y-83312000D03*
D15*
X109728000Y-78312000D03*
D14*
X144954000Y-100584000D03*
D15*
X139954000Y-100584000D03*
D12*
X167782000Y-101092000D03*
X164282000Y-101092000D03*
D13*
X160782000Y-101092000D03*
D16*
X133604000Y-78994000D03*
D12*
X146304000Y-78994000D03*
X149860000Y-93726000D03*
D16*
X149860000Y-81026000D03*
D17*
X162560000Y-74128000D03*
X162560000Y-71628000D03*
X169418000Y-74128000D03*
X169418000Y-71628000D03*
D18*
X139648000Y-69882000D03*
D19*
X141348000Y-64802000D03*
X143048000Y-69882000D03*
X144748000Y-64802000D03*
X146448000Y-69882000D03*
X148148000Y-64802000D03*
X149848000Y-69882000D03*
X151548000Y-64802000D03*
X153248000Y-69882000D03*
X154948000Y-64802000D03*
X156648000Y-69882000D03*
D20*
X128016000Y-65532000D03*
D17*
X128016000Y-63532000D03*
D20*
X164084000Y-79248000D03*
D17*
X162084000Y-79248000D03*
D20*
X169672000Y-79248000D03*
D17*
X167672000Y-79248000D03*
X134620000Y-63500000D03*
D20*
X134620000Y-65500000D03*
D17*
X134620000Y-69120000D03*
D20*
X134620000Y-71120000D03*
D12*
X123190000Y-71240000D03*
D13*
X123190000Y-78740000D03*
D12*
X123190000Y-88004000D03*
D13*
X123190000Y-95504000D03*
D17*
X146478000Y-75184000D03*
X141478000Y-75184000D03*
M02*
